<?xml version="1.0" encoding="UTF-8" standalone="no"?>
<!DOCTYPE svg PUBLIC "-//W3C//DTD SVG 1.1//EN"
 "http://www.w3.org/Graphics/SVG/1.1/DTD/svg11.dtd">
<!-- Generated by graphviz version 2.40.1 (20161225.0304)
 -->
<!-- Title: graphics.h Pages: 1 -->
<svg width="313pt" height="252pt"
 viewBox="0.00 0.00 312.50 252.00" xmlns="http://www.w3.org/2000/svg" xmlns:xlink="http://www.w3.org/1999/xlink">
<g id="graph0" class="graph" transform="scale(1 1) rotate(0) translate(4 248)">
<title>graphics.h</title>
<!-- Node1 -->
<g id="node1" class="node">
<title>Node1</title>
<g id="a_node1"><a xlink:title=" ">
<polygon fill="#bfbfbf" stroke="#000000" points="210,-224.5 210,-243.5 271,-243.5 271,-224.5 210,-224.5"/>
<text text-anchor="middle" x="240.5" y="-231.5" font-family="Helvetica" font-size="10.00" fill="#000000">graphics.h</text>
</a>
</g>
</g>
<!-- Node2 -->
<g id="node2" class="node">
<title>Node2</title>
<g id="a_node2"><a xlink:href="../../d3/d62/player_8h.html" target="_top" xlink:title=" ">
<polygon fill="none" stroke="#000000" points="252.5,-168.5 252.5,-187.5 304.5,-187.5 304.5,-168.5 252.5,-168.5"/>
<text text-anchor="middle" x="278.5" y="-175.5" font-family="Helvetica" font-size="10.00" fill="#000000">player.h</text>
</a>
</g>
</g>
<!-- Node1&#45;&gt;Node2 -->
<g id="edge1" class="edge">
<title>Node1&#45;&gt;Node2</title>
<path fill="none" stroke="#191970" d="M247.1191,-224.2455C252.4046,-216.4564 259.9541,-205.3308 266.3238,-195.9439"/>
<polygon fill="#191970" stroke="#191970" points="269.2379,-197.8827 271.9568,-187.6427 263.4455,-193.9522 269.2379,-197.8827"/>
</g>
<!-- Node8 -->
<g id="node8" class="node">
<title>Node8</title>
<g id="a_node8"><a xlink:href="../../d6/d4f/enemies_8h.html" target="_top" xlink:title=" ">
<polygon fill="none" stroke="#000000" points="173,-168.5 173,-187.5 234,-187.5 234,-168.5 173,-168.5"/>
<text text-anchor="middle" x="203.5" y="-175.5" font-family="Helvetica" font-size="10.00" fill="#000000">enemies.h</text>
</a>
</g>
</g>
<!-- Node1&#45;&gt;Node8 -->
<g id="edge9" class="edge">
<title>Node1&#45;&gt;Node8</title>
<path fill="none" stroke="#191970" d="M234.0551,-224.2455C228.9618,-216.5367 221.7092,-205.5598 215.548,-196.2348"/>
<polygon fill="#191970" stroke="#191970" points="218.3038,-194.0566 209.8711,-187.6427 212.4635,-197.9155 218.3038,-194.0566"/>
</g>
<!-- Node3 -->
<g id="node3" class="node">
<title>Node3</title>
<g id="a_node3"><a xlink:title=" ">
<polygon fill="none" stroke="#bfbfbf" points="195,-.5 195,-19.5 254,-19.5 254,-.5 195,-.5"/>
<text text-anchor="middle" x="224.5" y="-7.5" font-family="Helvetica" font-size="10.00" fill="#000000">lcom/lcf.h</text>
</a>
</g>
</g>
<!-- Node2&#45;&gt;Node3 -->
<g id="edge2" class="edge">
<title>Node2&#45;&gt;Node3</title>
<path fill="none" stroke="#191970" d="M279.9242,-168.4264C281.5383,-155.4278 283.3612,-131.572 278.5,-112 270.6195,-80.2719 250.849,-47.554 237.5456,-27.9963"/>
<polygon fill="#191970" stroke="#191970" points="240.381,-25.9434 231.7845,-19.7505 234.6428,-29.9526 240.381,-25.9434"/>
</g>
<!-- Node4 -->
<g id="node4" class="node">
<title>Node4</title>
<g id="a_node4"><a xlink:href="../../dd/d5a/entities_8h.html" target="_top" xlink:title=" ">
<polygon fill="none" stroke="#000000" points="213.5,-112.5 213.5,-131.5 269.5,-131.5 269.5,-112.5 213.5,-112.5"/>
<text text-anchor="middle" x="241.5" y="-119.5" font-family="Helvetica" font-size="10.00" fill="#000000">entities.h</text>
</a>
</g>
</g>
<!-- Node2&#45;&gt;Node4 -->
<g id="edge3" class="edge">
<title>Node2&#45;&gt;Node4</title>
<path fill="none" stroke="#191970" d="M272.0551,-168.2455C266.9618,-160.5367 259.7092,-149.5598 253.548,-140.2348"/>
<polygon fill="#191970" stroke="#191970" points="256.3038,-138.0566 247.8711,-131.6427 250.4635,-141.9155 256.3038,-138.0566"/>
</g>
<!-- Node4&#45;&gt;Node3 -->
<g id="edge4" class="edge">
<title>Node4&#45;&gt;Node3</title>
<path fill="none" stroke="#191970" d="M240.0506,-112.4509C237.2779,-94.184 231.1718,-53.9553 227.4898,-29.6976"/>
<polygon fill="#191970" stroke="#191970" points="230.9069,-28.8864 225.9457,-19.5249 223.9861,-29.9369 230.9069,-28.8864"/>
</g>
<!-- Node5 -->
<g id="node5" class="node">
<title>Node5</title>
<g id="a_node5"><a xlink:href="../../d3/def/sprites_8h.html" target="_top" xlink:title=" ">
<polygon fill="none" stroke="#000000" points="71.5,-56.5 71.5,-75.5 157.5,-75.5 157.5,-56.5 71.5,-56.5"/>
<text text-anchor="middle" x="114.5" y="-63.5" font-family="Helvetica" font-size="10.00" fill="#000000">sprites/sprites.h</text>
</a>
</g>
</g>
<!-- Node4&#45;&gt;Node5 -->
<g id="edge5" class="edge">
<title>Node4&#45;&gt;Node5</title>
<path fill="none" stroke="#191970" d="M219.6679,-112.3733C199.1897,-103.3435 168.3601,-89.7494 145.3681,-79.6111"/>
<polygon fill="#191970" stroke="#191970" points="146.6093,-76.3333 136.0472,-75.5011 143.785,-82.7383 146.6093,-76.3333"/>
</g>
<!-- Node5&#45;&gt;Node3 -->
<g id="edge6" class="edge">
<title>Node5&#45;&gt;Node3</title>
<path fill="none" stroke="#191970" d="M133.6605,-56.2455C151.0111,-47.4125 176.7901,-34.2887 196.4583,-24.2758"/>
<polygon fill="#191970" stroke="#191970" points="198.2353,-27.2986 205.559,-19.6427 195.0595,-21.0605 198.2353,-27.2986"/>
</g>
<!-- Node6 -->
<g id="node6" class="node">
<title>Node6</title>
<g id="a_node6"><a xlink:title=" ">
<polygon fill="none" stroke="#bfbfbf" points="0,-.5 0,-19.5 69,-19.5 69,-.5 0,-.5"/>
<text text-anchor="middle" x="34.5" y="-7.5" font-family="Helvetica" font-size="10.00" fill="#000000">lcom/liblm.h</text>
</a>
</g>
</g>
<!-- Node5&#45;&gt;Node6 -->
<g id="edge7" class="edge">
<title>Node5&#45;&gt;Node6</title>
<path fill="none" stroke="#191970" d="M100.5651,-56.2455C88.4053,-47.7337 70.5536,-35.2375 56.4715,-25.3801"/>
<polygon fill="#191970" stroke="#191970" points="58.4747,-22.51 48.2752,-19.6427 54.4605,-28.2447 58.4747,-22.51"/>
</g>
<!-- Node7 -->
<g id="node7" class="node">
<title>Node7</title>
<g id="a_node7"><a xlink:title=" ">
<polygon fill="none" stroke="#bfbfbf" points="87.5,-.5 87.5,-19.5 153.5,-19.5 153.5,-.5 87.5,-.5"/>
<text text-anchor="middle" x="120.5" y="-7.5" font-family="Helvetica" font-size="10.00" fill="#000000">lcom/proj.h</text>
</a>
</g>
</g>
<!-- Node5&#45;&gt;Node7 -->
<g id="edge8" class="edge">
<title>Node5&#45;&gt;Node7</title>
<path fill="none" stroke="#191970" d="M115.5451,-56.2455C116.328,-48.9382 117.4256,-38.6944 118.3888,-29.7046"/>
<polygon fill="#191970" stroke="#191970" points="121.8815,-29.9587 119.4669,-19.6427 114.9214,-29.2129 121.8815,-29.9587"/>
</g>
<!-- Node8&#45;&gt;Node3 -->
<g id="edge10" class="edge">
<title>Node8&#45;&gt;Node3</title>
<path fill="none" stroke="#191970" d="M203.1026,-168.1273C202.707,-155.1948 202.4223,-131.8313 204.5,-112 207.5302,-83.0768 214.6711,-50.1472 219.5464,-29.7173"/>
<polygon fill="#191970" stroke="#191970" points="223.0061,-30.3034 221.9812,-19.7583 216.2064,-28.6409 223.0061,-30.3034"/>
</g>
<!-- Node8&#45;&gt;Node4 -->
<g id="edge11" class="edge">
<title>Node8&#45;&gt;Node4</title>
<path fill="none" stroke="#191970" d="M210.1191,-168.2455C215.4046,-160.4564 222.9541,-149.3308 229.3238,-139.9439"/>
<polygon fill="#191970" stroke="#191970" points="232.2379,-141.8827 234.9568,-131.6427 226.4455,-137.9522 232.2379,-141.8827"/>
</g>
</g>
</svg>
