<?xml version="1.0" encoding="UTF-8" standalone="no"?>
<!DOCTYPE svg PUBLIC "-//W3C//DTD SVG 1.1//EN"
 "http://www.w3.org/Graphics/SVG/1.1/DTD/svg11.dtd">
<!-- Generated by graphviz version 2.40.1 (20161225.0304)
 -->
<!-- Title: animate_green_blob_death Pages: 1 -->
<svg width="612pt" height="39pt"
 viewBox="0.00 0.00 612.00 39.00" xmlns="http://www.w3.org/2000/svg" xmlns:xlink="http://www.w3.org/1999/xlink">
<g id="graph0" class="graph" transform="scale(1 1) rotate(0) translate(4 35)">
<title>animate_green_blob_death</title>
<!-- Node1 -->
<g id="node1" class="node">
<title>Node1</title>
<g id="a_node1"><a xlink:title="Animates the green blobs dying.">
<polygon fill="#bfbfbf" stroke="#000000" points="500,-.5 500,-30.5 604,-30.5 604,-.5 500,-.5"/>
<text text-anchor="start" x="508" y="-18.5" font-family="Helvetica" font-size="10.00" fill="#000000">animate_green_blob</text>
<text text-anchor="middle" x="552" y="-7.5" font-family="Helvetica" font-size="10.00" fill="#000000">_death</text>
</a>
</g>
</g>
<!-- Node2 -->
<g id="node2" class="node">
<title>Node2</title>
<g id="a_node2"><a xlink:href="../../d6/d4f/enemies_8h.html#a8f86b7712a773166a6ae8c35799e7135" target="_top" xlink:title="Animates the green blobs depending on their current action.">
<polygon fill="none" stroke="#000000" points="360,-6 360,-25 464,-25 464,-6 360,-6"/>
<text text-anchor="middle" x="412" y="-13" font-family="Helvetica" font-size="10.00" fill="#000000">animate_green_blob</text>
</a>
</g>
</g>
<!-- Node1&#45;&gt;Node2 -->
<g id="edge1" class="edge">
<title>Node1&#45;&gt;Node2</title>
<path fill="none" stroke="#191970" d="M489.6131,-15.5C481.1153,-15.5 472.4661,-15.5 464.1744,-15.5"/>
<polygon fill="#191970" stroke="#191970" points="489.8692,-19.0001 499.8692,-15.5 489.8691,-12.0001 489.8692,-19.0001"/>
</g>
<!-- Node3 -->
<g id="node3" class="node">
<title>Node3</title>
<g id="a_node3"><a xlink:href="../../dd/d5a/entities_8h.html#aeae621c58e08b754e9c212bee6d0f477" target="_top" xlink:title="Updates the animations of all Entities.">
<polygon fill="none" stroke="#000000" points="226,-6 226,-25 324,-25 324,-6 226,-6"/>
<text text-anchor="middle" x="275" y="-13" font-family="Helvetica" font-size="10.00" fill="#000000">update_animations</text>
</a>
</g>
</g>
<!-- Node2&#45;&gt;Node3 -->
<g id="edge2" class="edge">
<title>Node2&#45;&gt;Node3</title>
<path fill="none" stroke="#191970" d="M349.5846,-15.5C341.1176,-15.5 332.5256,-15.5 324.3316,-15.5"/>
<polygon fill="#191970" stroke="#191970" points="349.8154,-19.0001 359.8154,-15.5 349.8153,-12.0001 349.8154,-19.0001"/>
</g>
<!-- Node4 -->
<g id="node4" class="node">
<title>Node4</title>
<g id="a_node4"><a xlink:href="../../dd/d65/game__helper_8h.html#ac2e814f8670e374692b399122563067d" target="_top" xlink:title="Performs all game logic and displaying that occurs every frame depending on the game state.">
<polygon fill="none" stroke="#000000" points="119,-6 119,-25 190,-25 190,-6 119,-6"/>
<text text-anchor="middle" x="154.5" y="-13" font-family="Helvetica" font-size="10.00" fill="#000000">on_timer_int</text>
</a>
</g>
</g>
<!-- Node3&#45;&gt;Node4 -->
<g id="edge3" class="edge">
<title>Node3&#45;&gt;Node4</title>
<path fill="none" stroke="#191970" d="M215.7704,-15.5C207.0176,-15.5 198.236,-15.5 190.1649,-15.5"/>
<polygon fill="#191970" stroke="#191970" points="215.9881,-19.0001 225.988,-15.5 215.988,-12.0001 215.9881,-19.0001"/>
</g>
<!-- Node5 -->
<g id="node5" class="node">
<title>Node5</title>
<g id="a_node5"><a xlink:href="../../df/def/_l_c_o_m_8c.html#a2a16f651eccbd248e1ad3b3b924b143b" target="_top" xlink:title=" ">
<polygon fill="none" stroke="#000000" points="0,-6 0,-25 83,-25 83,-6 0,-6"/>
<text text-anchor="middle" x="41.5" y="-13" font-family="Helvetica" font-size="10.00" fill="#000000">proj_main_loop</text>
</a>
</g>
</g>
<!-- Node4&#45;&gt;Node5 -->
<g id="edge4" class="edge">
<title>Node4&#45;&gt;Node5</title>
<path fill="none" stroke="#191970" d="M108.7225,-15.5C100.3288,-15.5 91.6073,-15.5 83.3362,-15.5"/>
<polygon fill="#191970" stroke="#191970" points="108.7461,-19.0001 118.7461,-15.5 108.7461,-12.0001 108.7461,-19.0001"/>
</g>
</g>
</svg>
