<?xml version="1.0" encoding="UTF-8" standalone="no"?>
<!DOCTYPE svg PUBLIC "-//W3C//DTD SVG 1.1//EN"
 "http://www.w3.org/Graphics/SVG/1.1/DTD/svg11.dtd">
<!-- Generated by graphviz version 2.40.1 (20161225.0304)
 -->
<!-- Title: grid_enemies_move Pages: 1 -->
<svg width="356pt" height="66pt"
 viewBox="0.00 0.00 356.00 66.00" xmlns="http://www.w3.org/2000/svg" xmlns:xlink="http://www.w3.org/1999/xlink">
<g id="graph0" class="graph" transform="scale(1 1) rotate(0) translate(4 62)">
<title>grid_enemies_move</title>
<!-- Node1 -->
<g id="node1" class="node">
<title>Node1</title>
<g id="a_node1"><a xlink:title="Moves every enemy in the grid.">
<polygon fill="#bfbfbf" stroke="#000000" points="0,-19.5 0,-38.5 104,-38.5 104,-19.5 0,-19.5"/>
<text text-anchor="middle" x="52" y="-26.5" font-family="Helvetica" font-size="10.00" fill="#000000">grid_enemies_move</text>
</a>
</g>
</g>
<!-- Node2 -->
<g id="node2" class="node">
<title>Node2</title>
<g id="a_node2"><a xlink:href="../../db/d6f/enemies_8c.html#aa5b90db246913c9baf07f38ffb39af80" target="_top" xlink:title="Makes the blob act (move or attack)">
<polygon fill="none" stroke="#000000" points="140,-19.5 140,-38.5 223,-38.5 223,-19.5 140,-19.5"/>
<text text-anchor="middle" x="181.5" y="-26.5" font-family="Helvetica" font-size="10.00" fill="#000000">green_blob_act</text>
</a>
</g>
</g>
<!-- Node1&#45;&gt;Node2 -->
<g id="edge1" class="edge">
<title>Node1&#45;&gt;Node2</title>
<path fill="none" stroke="#191970" d="M104.2993,-29C112.6835,-29 121.3571,-29 129.7289,-29"/>
<polygon fill="#191970" stroke="#191970" points="129.7512,-32.5001 139.7512,-29 129.7511,-25.5001 129.7512,-32.5001"/>
</g>
<!-- Node3 -->
<g id="node3" class="node">
<title>Node3</title>
<g id="a_node3"><a xlink:href="../../d5/df6/entities_8c.html#a7458b099aabee51298042e2edde9e2d8" target="_top" xlink:title="Modifies the HP of an Entity in position ( x , y ) by health_mod.">
<polygon fill="none" stroke="#000000" points="259,-38.5 259,-57.5 348,-57.5 348,-38.5 259,-38.5"/>
<text text-anchor="middle" x="303.5" y="-45.5" font-family="Helvetica" font-size="10.00" fill="#000000">grid_health_mod</text>
</a>
</g>
</g>
<!-- Node2&#45;&gt;Node3 -->
<g id="edge2" class="edge">
<title>Node2&#45;&gt;Node3</title>
<path fill="none" stroke="#191970" d="M223.1443,-35.4856C231.3802,-36.7682 240.1413,-38.1327 248.7355,-39.4711"/>
<polygon fill="#191970" stroke="#191970" points="248.2868,-42.9433 258.7064,-41.0239 249.3641,-36.0267 248.2868,-42.9433"/>
</g>
<!-- Node4 -->
<g id="node4" class="node">
<title>Node4</title>
<g id="a_node4"><a xlink:href="../../d5/df6/entities_8c.html#a525a3fe4f3a4d24d73ce258b817462d7" target="_top" xlink:title="Moves an entity from position ( curr_x , curr_y ) to postition ( new_x, new_y )">
<polygon fill="none" stroke="#000000" points="272.5,-.5 272.5,-19.5 334.5,-19.5 334.5,-.5 272.5,-.5"/>
<text text-anchor="middle" x="303.5" y="-7.5" font-family="Helvetica" font-size="10.00" fill="#000000">grid_move</text>
</a>
</g>
</g>
<!-- Node2&#45;&gt;Node4 -->
<g id="edge3" class="edge">
<title>Node2&#45;&gt;Node4</title>
<path fill="none" stroke="#191970" d="M223.1443,-22.5144C235.7635,-20.5491 249.6156,-18.3918 262.2114,-16.4302"/>
<polygon fill="#191970" stroke="#191970" points="263.0995,-19.8342 272.4418,-14.8369 262.0223,-12.9175 263.0995,-19.8342"/>
</g>
</g>
</svg>
