<?xml version="1.0" encoding="UTF-8" standalone="no"?>
<!DOCTYPE svg PUBLIC "-//W3C//DTD SVG 1.1//EN"
 "http://www.w3.org/Graphics/SVG/1.1/DTD/svg11.dtd">
<!-- Generated by graphviz version 2.40.1 (20161225.0304)
 -->
<!-- Title: create_enemies Pages: 1 -->
<svg width="436pt" height="104pt"
 viewBox="0.00 0.00 436.00 104.00" xmlns="http://www.w3.org/2000/svg" xmlns:xlink="http://www.w3.org/1999/xlink">
<g id="graph0" class="graph" transform="scale(1 1) rotate(0) translate(4 100)">
<title>create_enemies</title>
<!-- Node1 -->
<g id="node1" class="node">
<title>Node1</title>
<g id="a_node1"><a xlink:title="Generates the random enemy board on the grid.">
<polygon fill="#bfbfbf" stroke="#000000" points="0,-38.5 0,-57.5 85,-57.5 85,-38.5 0,-38.5"/>
<text text-anchor="middle" x="42.5" y="-45.5" font-family="Helvetica" font-size="10.00" fill="#000000">create_enemies</text>
</a>
</g>
</g>
<!-- Node2 -->
<g id="node2" class="node">
<title>Node2</title>
<g id="a_node2"><a xlink:href="../../db/d6f/enemies_8c.html#a1543e46ad54303b0781dd9bb4eac88e8" target="_top" xlink:title="Create a green blob object (entity)">
<polygon fill="none" stroke="#000000" points="121,-76.5 121,-95.5 198,-95.5 198,-76.5 121,-76.5"/>
<text text-anchor="middle" x="159.5" y="-83.5" font-family="Helvetica" font-size="10.00" fill="#000000">create_g_blob</text>
</a>
</g>
</g>
<!-- Node1&#45;&gt;Node2 -->
<g id="edge1" class="edge">
<title>Node1&#45;&gt;Node2</title>
<path fill="none" stroke="#191970" d="M72.024,-57.589C86.7119,-62.3594 104.6601,-68.1888 120.4678,-73.3229"/>
<polygon fill="#191970" stroke="#191970" points="119.3933,-76.6538 129.9854,-76.4141 121.5556,-69.9961 119.3933,-76.6538"/>
</g>
<!-- Node3 -->
<g id="node3" class="node">
<title>Node3</title>
<g id="a_node3"><a xlink:href="../../d5/df6/entities_8c.html#a314d93b7fcb388099c24b5e3f1b01e28" target="_top" xlink:title="Add entity to the game board.">
<polygon fill="none" stroke="#000000" points="132.5,-38.5 132.5,-57.5 186.5,-57.5 186.5,-38.5 132.5,-38.5"/>
<text text-anchor="middle" x="159.5" y="-45.5" font-family="Helvetica" font-size="10.00" fill="#000000">grid_add</text>
</a>
</g>
</g>
<!-- Node1&#45;&gt;Node3 -->
<g id="edge2" class="edge">
<title>Node1&#45;&gt;Node3</title>
<path fill="none" stroke="#191970" d="M85.0707,-48C97.3001,-48 110.535,-48 122.4058,-48"/>
<polygon fill="#191970" stroke="#191970" points="122.4271,-51.5001 132.427,-48 122.427,-44.5001 122.4271,-51.5001"/>
</g>
<!-- Node4 -->
<g id="node4" class="node">
<title>Node4</title>
<g id="a_node4"><a xlink:href="../../d4/dcc/rtc_8c.html#a01efed7ef3d173bcbbeefbde025f38ac" target="_top" xlink:title="Reads the time from the RTC.">
<polygon fill="none" stroke="#000000" points="121,-.5 121,-19.5 198,-19.5 198,-.5 121,-.5"/>
<text text-anchor="middle" x="159.5" y="-7.5" font-family="Helvetica" font-size="10.00" fill="#000000">rtc_read_time</text>
</a>
</g>
</g>
<!-- Node1&#45;&gt;Node4 -->
<g id="edge3" class="edge">
<title>Node1&#45;&gt;Node4</title>
<path fill="none" stroke="#191970" d="M72.024,-38.411C86.7119,-33.6406 104.6601,-27.8112 120.4678,-22.6771"/>
<polygon fill="#191970" stroke="#191970" points="121.5556,-26.0039 129.9854,-19.5859 119.3933,-19.3462 121.5556,-26.0039"/>
</g>
<!-- Node5 -->
<g id="node5" class="node">
<title>Node5</title>
<g id="a_node5"><a xlink:href="../../d4/dcc/rtc_8c.html#abf6f23e3a37b625fce812ca09b3f35df" target="_top" xlink:title="Reads the Register reg of the RTC.">
<polygon fill="none" stroke="#000000" points="234,-.5 234,-19.5 325,-19.5 325,-.5 234,-.5"/>
<text text-anchor="middle" x="279.5" y="-7.5" font-family="Helvetica" font-size="10.00" fill="#000000">rtc_read_register</text>
</a>
</g>
</g>
<!-- Node4&#45;&gt;Node5 -->
<g id="edge4" class="edge">
<title>Node4&#45;&gt;Node5</title>
<path fill="none" stroke="#191970" d="M198.1293,-10C206.304,-10 215.0876,-10 223.7522,-10"/>
<polygon fill="#191970" stroke="#191970" points="223.8256,-13.5001 233.8256,-10 223.8256,-6.5001 223.8256,-13.5001"/>
</g>
<!-- Node6 -->
<g id="node6" class="node">
<title>Node6</title>
<g id="a_node6"><a xlink:href="../../d3/d91/utils_8c.html#a79a031a8611f5b2d6afa4158e92b0fb4" target="_top" xlink:title="Gets from port 8 bit information to value.">
<polygon fill="none" stroke="#000000" points="361,-.5 361,-19.5 428,-19.5 428,-.5 361,-.5"/>
<text text-anchor="middle" x="394.5" y="-7.5" font-family="Helvetica" font-size="10.00" fill="#000000">util_sys_inb</text>
</a>
</g>
</g>
<!-- Node5&#45;&gt;Node6 -->
<g id="edge5" class="edge">
<title>Node5&#45;&gt;Node6</title>
<path fill="none" stroke="#191970" d="M325.2815,-10C333.6493,-10 342.3629,-10 350.6721,-10"/>
<polygon fill="#191970" stroke="#191970" points="350.9245,-13.5001 360.9245,-10 350.9244,-6.5001 350.9245,-13.5001"/>
</g>
</g>
</svg>
