<?xml version="1.0" encoding="UTF-8" standalone="no"?>
<!DOCTYPE svg PUBLIC "-//W3C//DTD SVG 1.1//EN"
 "http://www.w3.org/Graphics/SVG/1.1/DTD/svg11.dtd">
<!-- Generated by graphviz version 2.40.1 (20161225.0304)
 -->
<!-- Title: process_uart_packet Pages: 1 -->
<!--zoomable 275 -->
<svg id="main" version="1.1" xmlns="http://www.w3.org/2000/svg" xmlns:xlink="http://www.w3.org/1999/xlink" xml:space="preserve" onload="init(evt)">
<style type="text/css"><![CDATA[
.edge:hover path { stroke: red; }
.edge:hover polygon { stroke: red; fill: red; }
]]></style>
<script type="text/javascript"><![CDATA[
var edges = document.getElementsByTagName('g');
if (edges && edges.length) {
  for (var i=0;i<edges.length;i++) {
    if (edges[i].id.substr(0,4)=='edge') {
      edges[i].setAttribute('class','edge');
    }
  }
}
]]></script>
        <defs>
                <circle id="rim" cx="0" cy="0" r="7"/>
                <circle id="rim2" cx="0" cy="0" r="3.5"/>
                <g id="zoomPlus">
                        <use xlink:href="#rim" fill="#404040">
                                <set attributeName="fill" to="#808080" begin="zoomplus.mouseover" end="zoomplus.mouseout"/>
                        </use>
                        <path d="M-4,0h8M0,-4v8" fill="none" stroke="white" stroke-width="1.5" pointer-events="none"/>
                </g>
                <g id="zoomMin">
                        <use xlink:href="#rim" fill="#404040">
                                <set attributeName="fill" to="#808080" begin="zoomminus.mouseover" end="zoomminus.mouseout"/>
                        </use>
                        <path d="M-4,0h8" fill="none" stroke="white" stroke-width="1.5" pointer-events="none"/>
                </g>
                <g id="dirArrow">
                        <path fill="none" stroke="white" stroke-width="1.5" d="M0,-3.0v7 M-2.5,-0.5L0,-3.0L2.5,-0.5"/>
                </g>
               <g id="resetDef">
                       <use xlink:href="#rim2" fill="#404040">
                               <set attributeName="fill" to="#808080" begin="reset.mouseover" end="reset.mouseout"/>
                       </use>
               </g>
        </defs>

<script type="text/javascript">
var viewWidth = 610;
var viewHeight = 275;
var sectionId = 'dynsection-10';
</script>
<script xlink:href="../../svgpan.js"/>
<svg id="graph" class="graph">
<g id="viewport">
<title>process_uart_packet</title>
<!-- Node1 -->
<g id="node1" class="node">
<title>Node1</title>
<g id="a_node1"><a xlink:title="Processes the incoming packet from the UART (COM1) and executes the associated logic.">
<polygon fill="#bfbfbf" stroke="#000000" points="0,-95.5 0,-114.5 106,-114.5 106,-95.5 0,-95.5"/>
<text text-anchor="middle" x="53" y="-102.5" font-family="Helvetica" font-size="10.00" fill="#000000">process_uart_packet</text>
</a>
</g>
</g>
<!-- Node2 -->
<g id="node2" class="node">
<title>Node2</title>
<g id="a_node2"><a xlink:href="../../d5/d95/graphics_8c.html#ae495df15c9dad2e1d052e15c6526423e" target="_top" xlink:title="Generates a new background (including UI background)">
<polygon fill="none" stroke="#000000" points="142,-209.5 142,-228.5 241,-228.5 241,-209.5 142,-209.5"/>
<text text-anchor="middle" x="191.5" y="-216.5" font-family="Helvetica" font-size="10.00" fill="#000000">create_background</text>
</a>
</g>
</g>
<!-- Node1&#45;&gt;Node2 -->
<g id="edge1" class="edge">
<title>Node1&#45;&gt;Node2</title>
<path fill="none" stroke="#191970" d="M63.8069,-114.5456C80.403,-129.1319 113.2631,-157.7261 142,-181 151.315,-188.5442 161.8243,-196.6653 170.7557,-203.4554"/>
<polygon fill="#191970" stroke="#191970" points="168.6571,-206.2566 178.7447,-209.4955 172.8787,-200.6728 168.6571,-206.2566"/>
</g>
<!-- Node6 -->
<g id="node6" class="node">
<title>Node6</title>
<g id="a_node6"><a xlink:href="../../d2/dba/game__helper_8c.html#aa1ee142c726e35646cf2262524f54d14" target="_top" xlink:title="Generates the random enemy board on the grid.">
<polygon fill="none" stroke="#000000" points="149,-152.5 149,-171.5 234,-171.5 234,-152.5 149,-152.5"/>
<text text-anchor="middle" x="191.5" y="-159.5" font-family="Helvetica" font-size="10.00" fill="#000000">create_enemies</text>
</a>
</g>
</g>
<!-- Node1&#45;&gt;Node6 -->
<g id="edge6" class="edge">
<title>Node1&#45;&gt;Node6</title>
<path fill="none" stroke="#191970" d="M76.1818,-114.5405C98.752,-123.8294 133.2712,-138.0358 158.6627,-148.4857"/>
<polygon fill="#191970" stroke="#191970" points="157.663,-151.8591 168.2426,-152.4284 160.3272,-145.3859 157.663,-151.8591"/>
</g>
<!-- Node8 -->
<g id="node8" class="node">
<title>Node8</title>
<g id="a_node8"><a xlink:href="../../d5/df6/entities_8c.html#a314d93b7fcb388099c24b5e3f1b01e28" target="_top" xlink:title="Add entity to the game board.">
<polygon fill="none" stroke="#000000" points="297.5,-95.5 297.5,-114.5 351.5,-114.5 351.5,-95.5 297.5,-95.5"/>
<text text-anchor="middle" x="324.5" y="-102.5" font-family="Helvetica" font-size="10.00" fill="#000000">grid_add</text>
</a>
</g>
</g>
<!-- Node1&#45;&gt;Node8 -->
<g id="edge14" class="edge">
<title>Node1&#45;&gt;Node8</title>
<path fill="none" stroke="#191970" d="M106.3157,-105C159.7243,-105 240.5309,-105 287.3535,-105"/>
<polygon fill="#191970" stroke="#191970" points="287.3675,-108.5001 297.3674,-105 287.3674,-101.5001 287.3675,-108.5001"/>
</g>
<!-- Node12 -->
<g id="node12" class="node">
<title>Node12</title>
<g id="a_node12"><a xlink:href="../../d1/db8/player_8c.html#af0ddce6da5510e0a1f6978c51c37e8a3" target="_top" xlink:title=" ">
<polygon fill="none" stroke="#000000" points="145.5,-76.5 145.5,-95.5 237.5,-95.5 237.5,-76.5 145.5,-76.5"/>
<text text-anchor="middle" x="191.5" y="-83.5" font-family="Helvetica" font-size="10.00" fill="#000000">create_spearman</text>
</a>
</g>
</g>
<!-- Node1&#45;&gt;Node12 -->
<g id="edge12" class="edge">
<title>Node1&#45;&gt;Node12</title>
<path fill="none" stroke="#191970" d="M106.1516,-97.7084C115.7766,-96.388 125.8408,-95.0074 135.5433,-93.6764"/>
<polygon fill="#191970" stroke="#191970" points="136.0582,-97.1386 145.4897,-92.3119 135.1068,-90.2036 136.0582,-97.1386"/>
</g>
<!-- Node13 -->
<g id="node13" class="node">
<title>Node13</title>
<g id="a_node13"><a xlink:href="../../d5/df6/entities_8c.html#a99c30635d189d8cee6678e4953e659dc" target="_top" xlink:title="Deletes the grid entities (frees memory)">
<polygon fill="none" stroke="#000000" points="159,-38.5 159,-57.5 224,-57.5 224,-38.5 159,-38.5"/>
<text text-anchor="middle" x="191.5" y="-45.5" font-family="Helvetica" font-size="10.00" fill="#000000">delete_grid</text>
</a>
</g>
</g>
<!-- Node1&#45;&gt;Node13 -->
<g id="edge13" class="edge">
<title>Node1&#45;&gt;Node13</title>
<path fill="none" stroke="#191970" d="M74.8507,-95.4032C92.8095,-87.5802 118.9551,-76.3387 142,-67 146.6095,-65.132 151.4783,-63.2062 156.2916,-61.3301"/>
<polygon fill="#191970" stroke="#191970" points="157.9251,-64.4513 165.9927,-57.5836 155.4032,-57.9213 157.9251,-64.4513"/>
</g>
<!-- Node14 -->
<g id="node14" class="node">
<title>Node14</title>
<g id="a_node14"><a xlink:href="../../d1/d87/uart_8c.html#af9200beb59291796d837e367401299b4" target="_top" xlink:title=" ">
<polygon fill="none" stroke="#000000" points="155,-.5 155,-19.5 228,-19.5 228,-.5 155,-.5"/>
<text text-anchor="middle" x="191.5" y="-7.5" font-family="Helvetica" font-size="10.00" fill="#000000">sync_players</text>
</a>
</g>
</g>
<!-- Node1&#45;&gt;Node14 -->
<g id="edge15" class="edge">
<title>Node1&#45;&gt;Node14</title>
<path fill="none" stroke="#191970" d="M62.0386,-95.3943C77.255,-79.6861 109.52,-48.3212 142,-29 145.2362,-27.0749 148.702,-25.2799 152.2414,-23.6226"/>
<polygon fill="#191970" stroke="#191970" points="153.8737,-26.7306 161.6754,-19.5624 151.1063,-20.3008 153.8737,-26.7306"/>
</g>
<!-- Node3 -->
<g id="node3" class="node">
<title>Node3</title>
<g id="a_node3"><a xlink:href="../../d5/d95/graphics_8c.html#ac057f434904c38cc92e73cb8c9886e1c" target="_top" xlink:title="Fills an area of the screen.">
<polygon fill="none" stroke="#000000" points="293.5,-247.5 293.5,-266.5 355.5,-266.5 355.5,-247.5 293.5,-247.5"/>
<text text-anchor="middle" x="324.5" y="-254.5" font-family="Helvetica" font-size="10.00" fill="#000000">paint_area</text>
</a>
</g>
</g>
<!-- Node2&#45;&gt;Node3 -->
<g id="edge2" class="edge">
<title>Node2&#45;&gt;Node3</title>
<path fill="none" stroke="#191970" d="M225.0615,-228.589C242.8041,-233.6583 264.7318,-239.9234 283.4774,-245.2793"/>
<polygon fill="#191970" stroke="#191970" points="282.6566,-248.6847 293.2334,-248.0667 284.5797,-241.9541 282.6566,-248.6847"/>
</g>
<!-- Node5 -->
<g id="node5" class="node">
<title>Node5</title>
<g id="a_node5"><a xlink:href="../../d5/d95/graphics_8c.html#a6386a61a54c277c05a7ab9d5737edcd8" target="_top" xlink:title="Paints a XPM file in the screen at coordinates ( start_x , start_y )">
<polygon fill="none" stroke="#000000" points="293.5,-209.5 293.5,-228.5 355.5,-228.5 355.5,-209.5 293.5,-209.5"/>
<text text-anchor="middle" x="324.5" y="-216.5" font-family="Helvetica" font-size="10.00" fill="#000000">paint_xpm</text>
</a>
</g>
</g>
<!-- Node2&#45;&gt;Node5 -->
<g id="edge4" class="edge">
<title>Node2&#45;&gt;Node5</title>
<path fill="none" stroke="#191970" d="M241.0243,-219C254.894,-219 269.8196,-219 283.1606,-219"/>
<polygon fill="#191970" stroke="#191970" points="283.4696,-222.5001 293.4695,-219 283.4695,-215.5001 283.4696,-222.5001"/>
</g>
<!-- Node4 -->
<g id="node4" class="node">
<title>Node4</title>
<g id="a_node4"><a xlink:href="../../d5/d95/graphics_8c.html#ac8c3ed74f805c5bccd091d94f5d72242" target="_top" xlink:title="Paints a pixel in coordinates ( x , y ) with colour.">
<polygon fill="none" stroke="#000000" points="422,-228.5 422,-247.5 485,-247.5 485,-228.5 422,-228.5"/>
<text text-anchor="middle" x="453.5" y="-235.5" font-family="Helvetica" font-size="10.00" fill="#000000">paint_pixel</text>
</a>
</g>
</g>
<!-- Node3&#45;&gt;Node4 -->
<g id="edge3" class="edge">
<title>Node3&#45;&gt;Node4</title>
<path fill="none" stroke="#191970" d="M355.7273,-252.4006C372.5105,-249.9287 393.4326,-246.8471 411.6113,-244.1697"/>
<polygon fill="#191970" stroke="#191970" points="412.2809,-247.6089 421.6641,-242.689 411.2608,-240.6836 412.2809,-247.6089"/>
</g>
<!-- Node5&#45;&gt;Node4 -->
<g id="edge5" class="edge">
<title>Node5&#45;&gt;Node4</title>
<path fill="none" stroke="#191970" d="M355.7273,-223.5994C372.5105,-226.0713 393.4326,-229.1529 411.6113,-231.8303"/>
<polygon fill="#191970" stroke="#191970" points="411.2608,-235.3164 421.6641,-233.311 412.2809,-228.3911 411.2608,-235.3164"/>
</g>
<!-- Node7 -->
<g id="node7" class="node">
<title>Node7</title>
<g id="a_node7"><a xlink:href="../../db/d6f/enemies_8c.html#a1543e46ad54303b0781dd9bb4eac88e8" target="_top" xlink:title="Create a green blob object (entity)">
<polygon fill="none" stroke="#000000" points="286,-171.5 286,-190.5 363,-190.5 363,-171.5 286,-171.5"/>
<text text-anchor="middle" x="324.5" y="-178.5" font-family="Helvetica" font-size="10.00" fill="#000000">create_g_blob</text>
</a>
</g>
</g>
<!-- Node6&#45;&gt;Node7 -->
<g id="edge7" class="edge">
<title>Node6&#45;&gt;Node7</title>
<path fill="none" stroke="#191970" d="M234.3141,-168.1163C247.5059,-170.0008 262.1282,-172.0897 275.6916,-174.0274"/>
<polygon fill="#191970" stroke="#191970" points="275.4214,-177.5242 285.8159,-175.4737 276.4114,-170.5946 275.4214,-177.5242"/>
</g>
<!-- Node6&#45;&gt;Node8 -->
<g id="edge8" class="edge">
<title>Node6&#45;&gt;Node8</title>
<path fill="none" stroke="#191970" d="M212.4859,-152.408C229.7353,-144.5879 254.851,-133.3479 277,-124 281.2576,-122.2031 285.7468,-120.3517 290.1974,-118.5423"/>
<polygon fill="#191970" stroke="#191970" points="291.8058,-121.6678 299.7743,-114.6855 289.1908,-115.1746 291.8058,-121.6678"/>
</g>
<!-- Node9 -->
<g id="node9" class="node">
<title>Node9</title>
<g id="a_node9"><a xlink:href="../../d4/dcc/rtc_8c.html#a01efed7ef3d173bcbbeefbde025f38ac" target="_top" xlink:title="Reads the time from the RTC.">
<polygon fill="none" stroke="#000000" points="286,-133.5 286,-152.5 363,-152.5 363,-133.5 286,-133.5"/>
<text text-anchor="middle" x="324.5" y="-140.5" font-family="Helvetica" font-size="10.00" fill="#000000">rtc_read_time</text>
</a>
</g>
</g>
<!-- Node6&#45;&gt;Node9 -->
<g id="edge9" class="edge">
<title>Node6&#45;&gt;Node9</title>
<path fill="none" stroke="#191970" d="M234.3141,-155.8837C247.5059,-153.9992 262.1282,-151.9103 275.6916,-149.9726"/>
<polygon fill="#191970" stroke="#191970" points="276.4114,-153.4054 285.8159,-148.5263 275.4214,-146.4758 276.4114,-153.4054"/>
</g>
<!-- Node10 -->
<g id="node10" class="node">
<title>Node10</title>
<g id="a_node10"><a xlink:href="../../d4/dcc/rtc_8c.html#abf6f23e3a37b625fce812ca09b3f35df" target="_top" xlink:title="Reads the Register reg of the RTC.">
<polygon fill="none" stroke="#000000" points="408,-109.5 408,-128.5 499,-128.5 499,-109.5 408,-109.5"/>
<text text-anchor="middle" x="453.5" y="-116.5" font-family="Helvetica" font-size="10.00" fill="#000000">rtc_read_register</text>
</a>
</g>
</g>
<!-- Node9&#45;&gt;Node10 -->
<g id="edge10" class="edge">
<title>Node9&#45;&gt;Node10</title>
<path fill="none" stroke="#191970" d="M363.2043,-135.7992C373.9955,-133.7915 385.9401,-131.5693 397.5126,-129.4163"/>
<polygon fill="#191970" stroke="#191970" points="398.3572,-132.8193 407.5483,-127.5492 397.0768,-125.9374 398.3572,-132.8193"/>
</g>
<!-- Node11 -->
<g id="node11" class="node">
<title>Node11</title>
<g id="a_node11"><a xlink:href="../../d3/d91/utils_8c.html#a79a031a8611f5b2d6afa4158e92b0fb4" target="_top" xlink:title="Gets from port 8 bit information to value.">
<polygon fill="none" stroke="#000000" points="535,-85.5 535,-104.5 602,-104.5 602,-85.5 535,-85.5"/>
<text text-anchor="middle" x="568.5" y="-92.5" font-family="Helvetica" font-size="10.00" fill="#000000">util_sys_inb</text>
</a>
</g>
</g>
<!-- Node10&#45;&gt;Node11 -->
<g id="edge11" class="edge">
<title>Node10&#45;&gt;Node11</title>
<path fill="none" stroke="#191970" d="M499.2815,-109.4456C507.7423,-107.6799 516.5566,-105.8404 524.949,-104.0889"/>
<polygon fill="#191970" stroke="#191970" points="525.8504,-107.4763 534.9245,-102.0071 524.4203,-100.6239 525.8504,-107.4763"/>
</g>
<!-- Node15 -->
<g id="node15" class="node">
<title>Node15</title>
<g id="a_node15"><a xlink:href="../../d1/d87/uart_8c.html#ad98091201e75ffc65de031e31b3e4032" target="_top" xlink:title="First step of syncing the players in COOP mode.">
<polygon fill="none" stroke="#000000" points="284,-38.5 284,-57.5 365,-57.5 365,-38.5 284,-38.5"/>
<text text-anchor="middle" x="324.5" y="-45.5" font-family="Helvetica" font-size="10.00" fill="#000000">sync_first_step</text>
</a>
</g>
</g>
<!-- Node14&#45;&gt;Node15 -->
<g id="edge16" class="edge">
<title>Node14&#45;&gt;Node15</title>
<path fill="none" stroke="#191970" d="M225.0615,-19.589C242.073,-24.4494 262.9319,-30.4091 281.1446,-35.6127"/>
<polygon fill="#191970" stroke="#191970" points="280.3724,-39.0321 290.9492,-38.4141 282.2955,-32.3014 280.3724,-39.0321"/>
</g>
<!-- Node17 -->
<g id="node17" class="node">
<title>Node17</title>
<g id="a_node17"><a xlink:href="../../d1/d87/uart_8c.html#a265bc12c2a740b346234525c57d8b5a3" target="_top" xlink:title="Second step of syncing the player in COOP mode.">
<polygon fill="none" stroke="#000000" points="277,-.5 277,-19.5 372,-19.5 372,-.5 277,-.5"/>
<text text-anchor="middle" x="324.5" y="-7.5" font-family="Helvetica" font-size="10.00" fill="#000000">sync_second_step</text>
</a>
</g>
</g>
<!-- Node14&#45;&gt;Node17 -->
<g id="edge19" class="edge">
<title>Node14&#45;&gt;Node17</title>
<path fill="none" stroke="#191970" d="M228.1949,-10C240.0863,-10 253.5808,-10 266.6251,-10"/>
<polygon fill="#191970" stroke="#191970" points="266.9505,-13.5001 276.9505,-10 266.9505,-6.5001 266.9505,-13.5001"/>
</g>
<!-- Node16 -->
<g id="node16" class="node">
<title>Node16</title>
<g id="a_node16"><a xlink:href="../../d1/d87/uart_8c.html#a1fecae2103dd5c010cb5e507e93d8125" target="_top" xlink:title="Sends a byte to the UART.">
<polygon fill="none" stroke="#000000" points="412,-38.5 412,-57.5 495,-57.5 495,-38.5 412,-38.5"/>
<text text-anchor="middle" x="453.5" y="-45.5" font-family="Helvetica" font-size="10.00" fill="#000000">send_data_uart</text>
</a>
</g>
</g>
<!-- Node15&#45;&gt;Node16 -->
<g id="edge17" class="edge">
<title>Node15&#45;&gt;Node16</title>
<path fill="none" stroke="#191970" d="M365.3164,-48C376.7346,-48 389.3026,-48 401.2835,-48"/>
<polygon fill="#191970" stroke="#191970" points="401.6174,-51.5001 411.6174,-48 401.6174,-44.5001 401.6174,-51.5001"/>
</g>
<!-- Node16&#45;&gt;Node11 -->
<g id="edge18" class="edge">
<title>Node16&#45;&gt;Node11</title>
<path fill="none" stroke="#191970" d="M476.772,-57.5112C493.6505,-64.4094 516.7157,-73.836 535.4942,-81.5107"/>
<polygon fill="#191970" stroke="#191970" points="534.287,-84.7983 544.8679,-85.3417 536.9353,-78.3186 534.287,-84.7983"/>
</g>
<!-- Node17&#45;&gt;Node16 -->
<g id="edge20" class="edge">
<title>Node17&#45;&gt;Node16</title>
<path fill="none" stroke="#191970" d="M357.0521,-19.589C373.3993,-24.4044 393.4092,-30.2988 410.9571,-35.468"/>
<polygon fill="#191970" stroke="#191970" points="410.3768,-38.9457 420.9583,-38.4141 412.3548,-32.2309 410.3768,-38.9457"/>
</g>
</g>
</svg>
        <g id="navigator" transform="translate(0 0)" fill="#404254">
                <rect fill="#f2f5e9" fill-opacity="0.5" stroke="#606060" stroke-width=".5" x="0" y="0" width="60" height="60"/>
                <use id="zoomplus" xlink:href="#zoomPlus" x="17" y="9" onmousedown="handleZoom(evt,'in')"/>
                <use id="zoomminus" xlink:href="#zoomMin" x="42" y="9" onmousedown="handleZoom(evt,'out')"/>
                <use id="reset" xlink:href="#resetDef" x="30" y="36" onmousedown="handleReset()"/>
                <g id="arrowUp" xlink:href="#dirArrow" transform="translate(30 24)" onmousedown="handlePan(0,-1)">
                  <use xlink:href="#rim" fill="#404040">
                        <set attributeName="fill" to="#808080" begin="arrowUp.mouseover" end="arrowUp.mouseout"/>
                  </use>
                  <path fill="none" stroke="white" stroke-width="1.5" d="M0,-3.0v7 M-2.5,-0.5L0,-3.0L2.5,-0.5"/>
                </g>
                <g id="arrowRight" xlink:href="#dirArrow" transform="rotate(90) translate(36 -43)" onmousedown="handlePan(1,0)">
                  <use xlink:href="#rim" fill="#404040">
                        <set attributeName="fill" to="#808080" begin="arrowRight.mouseover" end="arrowRight.mouseout"/>
                  </use>
                  <path fill="none" stroke="white" stroke-width="1.5" d="M0,-3.0v7 M-2.5,-0.5L0,-3.0L2.5,-0.5"/>
                </g>
                <g id="arrowDown" xlink:href="#dirArrow" transform="rotate(180) translate(-30 -48)" onmousedown="handlePan(0,1)">
                  <use xlink:href="#rim" fill="#404040">
                        <set attributeName="fill" to="#808080" begin="arrowDown.mouseover" end="arrowDown.mouseout"/>
                  </use>
                  <path fill="none" stroke="white" stroke-width="1.5" d="M0,-3.0v7 M-2.5,-0.5L0,-3.0L2.5,-0.5"/>
                </g>
                <g id="arrowLeft" xlink:href="#dirArrow" transform="rotate(270) translate(-36 17)" onmousedown="handlePan(-1,0)">
                  <use xlink:href="#rim" fill="#404040">
                        <set attributeName="fill" to="#808080" begin="arrowLeft.mouseover" end="arrowLeft.mouseout"/>
                  </use>
                  <path fill="none" stroke="white" stroke-width="1.5" d="M0,-3.0v7 M-2.5,-0.5L0,-3.0L2.5,-0.5"/>
                </g>
        </g>
        <svg viewBox="0 0 15 15" width="100%" height="30px" preserveAspectRatio="xMaxYMin meet">
         <g id="arrow_out" transform="scale(0.3 0.3)">
          <a xlink:href="game__helper_8h_a03d9f7e90ecc6a670f43c0510bf272c0_cgraph_org.svg" target="_base">
           <rect id="button" ry="5" rx="5" y="6" x="6" height="38" width="38"
                fill="#f2f5e9" fill-opacity="0.5" stroke="#606060" stroke-width="1.0"/>
           <path id="arrow"
             d="M 11.500037,31.436501 C 11.940474,20.09759 22.043105,11.32322 32.158766,21.979434 L 37.068811,17.246167 C 37.068811,17.246167 37.088388,32 37.088388,32 L 22.160133,31.978069 C 22.160133,31.978069 26.997745,27.140456 26.997745,27.140456 C 18.528582,18.264221 13.291696,25.230495 11.500037,31.436501 z"
             style="fill:#404040;"/>
          </a>
         </g>
        </svg>
</svg>
