<?xml version="1.0" encoding="UTF-8" standalone="no"?>
<!DOCTYPE svg PUBLIC "-//W3C//DTD SVG 1.1//EN"
 "http://www.w3.org/Graphics/SVG/1.1/DTD/svg11.dtd">
<!-- Generated by graphviz version 2.40.1 (20161225.0304)
 -->
<!-- Title: process_mouse_input Pages: 1 -->
<!--zoomable 275 -->
<svg id="main" version="1.1" xmlns="http://www.w3.org/2000/svg" xmlns:xlink="http://www.w3.org/1999/xlink" xml:space="preserve" onload="init(evt)">
<style type="text/css"><![CDATA[
.edge:hover path { stroke: red; }
.edge:hover polygon { stroke: red; fill: red; }
]]></style>
<script type="text/javascript"><![CDATA[
var edges = document.getElementsByTagName('g');
if (edges && edges.length) {
  for (var i=0;i<edges.length;i++) {
    if (edges[i].id.substr(0,4)=='edge') {
      edges[i].setAttribute('class','edge');
    }
  }
}
]]></script>
        <defs>
                <circle id="rim" cx="0" cy="0" r="7"/>
                <circle id="rim2" cx="0" cy="0" r="3.5"/>
                <g id="zoomPlus">
                        <use xlink:href="#rim" fill="#404040">
                                <set attributeName="fill" to="#808080" begin="zoomplus.mouseover" end="zoomplus.mouseout"/>
                        </use>
                        <path d="M-4,0h8M0,-4v8" fill="none" stroke="white" stroke-width="1.5" pointer-events="none"/>
                </g>
                <g id="zoomMin">
                        <use xlink:href="#rim" fill="#404040">
                                <set attributeName="fill" to="#808080" begin="zoomminus.mouseover" end="zoomminus.mouseout"/>
                        </use>
                        <path d="M-4,0h8" fill="none" stroke="white" stroke-width="1.5" pointer-events="none"/>
                </g>
                <g id="dirArrow">
                        <path fill="none" stroke="white" stroke-width="1.5" d="M0,-3.0v7 M-2.5,-0.5L0,-3.0L2.5,-0.5"/>
                </g>
               <g id="resetDef">
                       <use xlink:href="#rim2" fill="#404040">
                               <set attributeName="fill" to="#808080" begin="reset.mouseover" end="reset.mouseout"/>
                       </use>
               </g>
        </defs>

<script type="text/javascript">
var viewWidth = 615;
var viewHeight = 275;
var sectionId = 'dynsection-8';
</script>
<script xlink:href="../../svgpan.js"/>
<svg id="graph" class="graph">
<g id="viewport">
<title>process_mouse_input</title>
<!-- Node1 -->
<g id="node1" class="node">
<title>Node1</title>
<g id="a_node1"><a xlink:title="Processes the input that comes from the mouse and executes the associated logic.">
<polygon fill="#bfbfbf" stroke="#000000" points="0,-95.5 0,-114.5 110,-114.5 110,-95.5 0,-95.5"/>
<text text-anchor="middle" x="55" y="-102.5" font-family="Helvetica" font-size="10.00" fill="#000000">process_mouse_input</text>
</a>
</g>
</g>
<!-- Node2 -->
<g id="node2" class="node">
<title>Node2</title>
<g id="a_node2"><a xlink:href="../../d5/d95/graphics_8c.html#ae495df15c9dad2e1d052e15c6526423e" target="_top" xlink:title="Generates a new background (including UI background)">
<polygon fill="none" stroke="#000000" points="155.5,-209.5 155.5,-228.5 254.5,-228.5 254.5,-209.5 155.5,-209.5"/>
<text text-anchor="middle" x="205" y="-216.5" font-family="Helvetica" font-size="10.00" fill="#000000">create_background</text>
</a>
</g>
</g>
<!-- Node1&#45;&gt;Node2 -->
<g id="edge1" class="edge">
<title>Node1&#45;&gt;Node2</title>
<path fill="none" stroke="#191970" d="M65.5756,-114.5719C82.1911,-129.4381 115.6522,-158.6862 146,-181 156.9663,-189.0632 169.5975,-197.3257 180.352,-204.078"/>
<polygon fill="#191970" stroke="#191970" points="178.5233,-207.0624 188.8666,-209.3573 182.212,-201.1131 178.5233,-207.0624"/>
</g>
<!-- Node6 -->
<g id="node6" class="node">
<title>Node6</title>
<g id="a_node6"><a xlink:href="../../d2/dba/game__helper_8c.html#aa1ee142c726e35646cf2262524f54d14" target="_top" xlink:title="Generates the random enemy board on the grid.">
<polygon fill="none" stroke="#000000" points="162.5,-152.5 162.5,-171.5 247.5,-171.5 247.5,-152.5 162.5,-152.5"/>
<text text-anchor="middle" x="205" y="-159.5" font-family="Helvetica" font-size="10.00" fill="#000000">create_enemies</text>
</a>
</g>
</g>
<!-- Node1&#45;&gt;Node6 -->
<g id="edge6" class="edge">
<title>Node1&#45;&gt;Node6</title>
<path fill="none" stroke="#191970" d="M80.1066,-114.5405C104.7673,-123.9116 142.599,-138.2876 170.1639,-148.7623"/>
<polygon fill="#191970" stroke="#191970" points="169.2203,-152.1479 179.8115,-152.4284 171.7069,-145.6044 169.2203,-152.1479"/>
</g>
<!-- Node8 -->
<g id="node8" class="node">
<title>Node8</title>
<g id="a_node8"><a xlink:href="../../d5/df6/entities_8c.html#a314d93b7fcb388099c24b5e3f1b01e28" target="_top" xlink:title="Add entity to the game board.">
<polygon fill="none" stroke="#000000" points="311.5,-95.5 311.5,-114.5 365.5,-114.5 365.5,-95.5 311.5,-95.5"/>
<text text-anchor="middle" x="338.5" y="-102.5" font-family="Helvetica" font-size="10.00" fill="#000000">grid_add</text>
</a>
</g>
</g>
<!-- Node1&#45;&gt;Node8 -->
<g id="edge13" class="edge">
<title>Node1&#45;&gt;Node8</title>
<path fill="none" stroke="#191970" d="M110.3347,-105C166.6314,-105 252.3349,-105 301.1014,-105"/>
<polygon fill="#191970" stroke="#191970" points="301.2133,-108.5001 311.2133,-105 301.2133,-101.5001 301.2133,-108.5001"/>
</g>
<!-- Node12 -->
<g id="node12" class="node">
<title>Node12</title>
<g id="a_node12"><a xlink:href="../../d1/db8/player_8c.html#af0ddce6da5510e0a1f6978c51c37e8a3" target="_top" xlink:title=" ">
<polygon fill="none" stroke="#000000" points="159,-76.5 159,-95.5 251,-95.5 251,-76.5 159,-76.5"/>
<text text-anchor="middle" x="205" y="-83.5" font-family="Helvetica" font-size="10.00" fill="#000000">create_spearman</text>
</a>
</g>
</g>
<!-- Node1&#45;&gt;Node12 -->
<g id="edge12" class="edge">
<title>Node1&#45;&gt;Node12</title>
<path fill="none" stroke="#191970" d="M110.0027,-98.033C122.6701,-96.4285 136.1586,-94.7199 148.873,-93.1094"/>
<polygon fill="#191970" stroke="#191970" points="149.3925,-96.5717 158.8734,-91.8427 148.5128,-89.6272 149.3925,-96.5717"/>
</g>
<!-- Node13 -->
<g id="node13" class="node">
<title>Node13</title>
<g id="a_node13"><a xlink:href="../../d1/d87/uart_8c.html#a1fecae2103dd5c010cb5e507e93d8125" target="_top" xlink:title="Sends a byte to the UART.">
<polygon fill="none" stroke="#000000" points="417,-67.5 417,-86.5 500,-86.5 500,-67.5 417,-67.5"/>
<text text-anchor="middle" x="458.5" y="-74.5" font-family="Helvetica" font-size="10.00" fill="#000000">send_data_uart</text>
</a>
</g>
</g>
<!-- Node1&#45;&gt;Node13 -->
<g id="edge14" class="edge">
<title>Node1&#45;&gt;Node13</title>
<path fill="none" stroke="#191970" d="M72.1284,-95.4225C89.9483,-86.0498 118.973,-72.4164 146,-67 236.3712,-48.8891 344.3388,-59.2023 406.8036,-68.2014"/>
<polygon fill="#191970" stroke="#191970" points="406.3961,-71.6792 416.802,-69.687 407.425,-64.7552 406.3961,-71.6792"/>
</g>
<!-- Node14 -->
<g id="node14" class="node">
<title>Node14</title>
<g id="a_node14"><a xlink:href="../../d5/d95/graphics_8c.html#af88d251a72a7758e8142ef1b19ae9730" target="_top" xlink:title="Updates the mouse position.">
<polygon fill="none" stroke="#000000" points="146,-.5 146,-19.5 264,-19.5 264,-.5 146,-.5"/>
<text text-anchor="middle" x="205" y="-7.5" font-family="Helvetica" font-size="10.00" fill="#000000">update_mouse_position</text>
</a>
</g>
</g>
<!-- Node1&#45;&gt;Node14 -->
<g id="edge16" class="edge">
<title>Node1&#45;&gt;Node14</title>
<path fill="none" stroke="#191970" d="M65.2355,-95.452C81.3962,-80.7533 114.2583,-52.3621 146,-34 152.6465,-30.1551 160.0281,-26.6303 167.257,-23.5348"/>
<polygon fill="#191970" stroke="#191970" points="168.997,-26.6052 176.9367,-19.59 166.3552,-20.1228 168.997,-26.6052"/>
</g>
<!-- Node3 -->
<g id="node3" class="node">
<title>Node3</title>
<g id="a_node3"><a xlink:href="../../d5/d95/graphics_8c.html#ac057f434904c38cc92e73cb8c9886e1c" target="_top" xlink:title="Fills an area of the screen.">
<polygon fill="none" stroke="#000000" points="307.5,-247.5 307.5,-266.5 369.5,-266.5 369.5,-247.5 307.5,-247.5"/>
<text text-anchor="middle" x="338.5" y="-254.5" font-family="Helvetica" font-size="10.00" fill="#000000">paint_area</text>
</a>
</g>
</g>
<!-- Node2&#45;&gt;Node3 -->
<g id="edge2" class="edge">
<title>Node2&#45;&gt;Node3</title>
<path fill="none" stroke="#191970" d="M238.6877,-228.589C256.497,-233.6583 278.5071,-239.9234 297.3232,-245.2793"/>
<polygon fill="#191970" stroke="#191970" points="296.5397,-248.6952 307.1158,-248.0667 298.4561,-241.9626 296.5397,-248.6952"/>
</g>
<!-- Node5 -->
<g id="node5" class="node">
<title>Node5</title>
<g id="a_node5"><a xlink:href="../../d5/d95/graphics_8c.html#a6386a61a54c277c05a7ab9d5737edcd8" target="_top" xlink:title="Paints a XPM file in the screen at coordinates ( start_x , start_y )">
<polygon fill="none" stroke="#000000" points="307.5,-209.5 307.5,-228.5 369.5,-228.5 369.5,-209.5 307.5,-209.5"/>
<text text-anchor="middle" x="338.5" y="-216.5" font-family="Helvetica" font-size="10.00" fill="#000000">paint_xpm</text>
</a>
</g>
</g>
<!-- Node2&#45;&gt;Node5 -->
<g id="edge4" class="edge">
<title>Node2&#45;&gt;Node5</title>
<path fill="none" stroke="#191970" d="M254.7105,-219C268.6324,-219 283.6141,-219 297.0052,-219"/>
<polygon fill="#191970" stroke="#191970" points="297.3529,-222.5001 307.3529,-219 297.3528,-215.5001 297.3529,-222.5001"/>
</g>
<!-- Node4 -->
<g id="node4" class="node">
<title>Node4</title>
<g id="a_node4"><a xlink:href="../../d5/d95/graphics_8c.html#ac8c3ed74f805c5bccd091d94f5d72242" target="_top" xlink:title="Paints a pixel in coordinates ( x , y ) with colour.">
<polygon fill="none" stroke="#000000" points="427,-228.5 427,-247.5 490,-247.5 490,-228.5 427,-228.5"/>
<text text-anchor="middle" x="458.5" y="-235.5" font-family="Helvetica" font-size="10.00" fill="#000000">paint_pixel</text>
</a>
</g>
</g>
<!-- Node3&#45;&gt;Node4 -->
<g id="edge3" class="edge">
<title>Node3&#45;&gt;Node4</title>
<path fill="none" stroke="#191970" d="M369.7153,-252.0576C383.934,-249.8063 400.9792,-247.1075 416.3163,-244.6791"/>
<polygon fill="#191970" stroke="#191970" points="417.276,-248.0708 426.6056,-243.0499 416.1813,-241.1569 417.276,-248.0708"/>
</g>
<!-- Node5&#45;&gt;Node4 -->
<g id="edge5" class="edge">
<title>Node5&#45;&gt;Node4</title>
<path fill="none" stroke="#191970" d="M369.7153,-223.9424C383.934,-226.1937 400.9792,-228.8925 416.3163,-231.3209"/>
<polygon fill="#191970" stroke="#191970" points="416.1813,-234.8431 426.6056,-232.9501 417.276,-227.9292 416.1813,-234.8431"/>
</g>
<!-- Node7 -->
<g id="node7" class="node">
<title>Node7</title>
<g id="a_node7"><a xlink:href="../../db/d6f/enemies_8c.html#a1543e46ad54303b0781dd9bb4eac88e8" target="_top" xlink:title="Create a green blob object (entity)">
<polygon fill="none" stroke="#000000" points="300,-171.5 300,-190.5 377,-190.5 377,-171.5 300,-171.5"/>
<text text-anchor="middle" x="338.5" y="-178.5" font-family="Helvetica" font-size="10.00" fill="#000000">create_g_blob</text>
</a>
</g>
</g>
<!-- Node6&#45;&gt;Node7 -->
<g id="edge7" class="edge">
<title>Node6&#45;&gt;Node7</title>
<path fill="none" stroke="#191970" d="M247.6073,-168.064C260.985,-169.9679 275.858,-172.0847 289.6338,-174.0453"/>
<polygon fill="#191970" stroke="#191970" points="289.518,-177.564 299.9115,-175.508 290.5044,-170.6338 289.518,-177.564"/>
</g>
<!-- Node6&#45;&gt;Node8 -->
<g id="edge8" class="edge">
<title>Node6&#45;&gt;Node8</title>
<path fill="none" stroke="#191970" d="M228.8958,-152.4731C239.6555,-148.1337 252.4988,-142.8851 264,-138 278.5634,-131.8142 294.6227,-124.7342 308.0906,-118.7221"/>
<polygon fill="#191970" stroke="#191970" points="309.685,-121.8431 317.3809,-114.5612 306.8237,-115.4545 309.685,-121.8431"/>
</g>
<!-- Node9 -->
<g id="node9" class="node">
<title>Node9</title>
<g id="a_node9"><a xlink:href="../../d4/dcc/rtc_8c.html#a01efed7ef3d173bcbbeefbde025f38ac" target="_top" xlink:title="Reads the time from the RTC.">
<polygon fill="none" stroke="#000000" points="300,-133.5 300,-152.5 377,-152.5 377,-133.5 300,-133.5"/>
<text text-anchor="middle" x="338.5" y="-140.5" font-family="Helvetica" font-size="10.00" fill="#000000">rtc_read_time</text>
</a>
</g>
</g>
<!-- Node6&#45;&gt;Node9 -->
<g id="edge9" class="edge">
<title>Node6&#45;&gt;Node9</title>
<path fill="none" stroke="#191970" d="M247.6073,-155.936C260.985,-154.0321 275.858,-151.9153 289.6338,-149.9547"/>
<polygon fill="#191970" stroke="#191970" points="290.5044,-153.3662 299.9115,-148.492 289.518,-146.436 290.5044,-153.3662"/>
</g>
<!-- Node10 -->
<g id="node10" class="node">
<title>Node10</title>
<g id="a_node10"><a xlink:href="../../d4/dcc/rtc_8c.html#abf6f23e3a37b625fce812ca09b3f35df" target="_top" xlink:title="Reads the Register reg of the RTC.">
<polygon fill="none" stroke="#000000" points="413,-114.5 413,-133.5 504,-133.5 504,-114.5 413,-114.5"/>
<text text-anchor="middle" x="458.5" y="-121.5" font-family="Helvetica" font-size="10.00" fill="#000000">rtc_read_register</text>
</a>
</g>
</g>
<!-- Node9&#45;&gt;Node10 -->
<g id="edge10" class="edge">
<title>Node9&#45;&gt;Node10</title>
<path fill="none" stroke="#191970" d="M377.1293,-136.8837C385.304,-135.5894 394.0876,-134.1986 402.7522,-132.8267"/>
<polygon fill="#191970" stroke="#191970" points="403.496,-136.2527 412.8256,-131.2318 402.4013,-129.3388 403.496,-136.2527"/>
</g>
<!-- Node11 -->
<g id="node11" class="node">
<title>Node11</title>
<g id="a_node11"><a xlink:href="../../d3/d91/utils_8c.html#a79a031a8611f5b2d6afa4158e92b0fb4" target="_top" xlink:title="Gets from port 8 bit information to value.">
<polygon fill="none" stroke="#000000" points="540,-86.5 540,-105.5 607,-105.5 607,-86.5 540,-86.5"/>
<text text-anchor="middle" x="573.5" y="-93.5" font-family="Helvetica" font-size="10.00" fill="#000000">util_sys_inb</text>
</a>
</g>
</g>
<!-- Node10&#45;&gt;Node11 -->
<g id="edge11" class="edge">
<title>Node10&#45;&gt;Node11</title>
<path fill="none" stroke="#191970" d="M497.7548,-114.4423C508.1097,-111.9211 519.3453,-109.1855 529.9137,-106.6123"/>
<polygon fill="#191970" stroke="#191970" points="530.9033,-109.9737 539.7914,-104.2073 529.2472,-103.1724 530.9033,-109.9737"/>
</g>
<!-- Node13&#45;&gt;Node11 -->
<g id="edge15" class="edge">
<title>Node13&#45;&gt;Node11</title>
<path fill="none" stroke="#191970" d="M500.0176,-83.8594C509.7586,-85.4688 520.1643,-87.188 529.9898,-88.8114"/>
<polygon fill="#191970" stroke="#191970" points="529.53,-92.2828 539.9668,-90.4597 530.6711,-85.3764 529.53,-92.2828"/>
</g>
</g>
</svg>
        <g id="navigator" transform="translate(0 0)" fill="#404254">
                <rect fill="#f2f5e9" fill-opacity="0.5" stroke="#606060" stroke-width=".5" x="0" y="0" width="60" height="60"/>
                <use id="zoomplus" xlink:href="#zoomPlus" x="17" y="9" onmousedown="handleZoom(evt,'in')"/>
                <use id="zoomminus" xlink:href="#zoomMin" x="42" y="9" onmousedown="handleZoom(evt,'out')"/>
                <use id="reset" xlink:href="#resetDef" x="30" y="36" onmousedown="handleReset()"/>
                <g id="arrowUp" xlink:href="#dirArrow" transform="translate(30 24)" onmousedown="handlePan(0,-1)">
                  <use xlink:href="#rim" fill="#404040">
                        <set attributeName="fill" to="#808080" begin="arrowUp.mouseover" end="arrowUp.mouseout"/>
                  </use>
                  <path fill="none" stroke="white" stroke-width="1.5" d="M0,-3.0v7 M-2.5,-0.5L0,-3.0L2.5,-0.5"/>
                </g>
                <g id="arrowRight" xlink:href="#dirArrow" transform="rotate(90) translate(36 -43)" onmousedown="handlePan(1,0)">
                  <use xlink:href="#rim" fill="#404040">
                        <set attributeName="fill" to="#808080" begin="arrowRight.mouseover" end="arrowRight.mouseout"/>
                  </use>
                  <path fill="none" stroke="white" stroke-width="1.5" d="M0,-3.0v7 M-2.5,-0.5L0,-3.0L2.5,-0.5"/>
                </g>
                <g id="arrowDown" xlink:href="#dirArrow" transform="rotate(180) translate(-30 -48)" onmousedown="handlePan(0,1)">
                  <use xlink:href="#rim" fill="#404040">
                        <set attributeName="fill" to="#808080" begin="arrowDown.mouseover" end="arrowDown.mouseout"/>
                  </use>
                  <path fill="none" stroke="white" stroke-width="1.5" d="M0,-3.0v7 M-2.5,-0.5L0,-3.0L2.5,-0.5"/>
                </g>
                <g id="arrowLeft" xlink:href="#dirArrow" transform="rotate(270) translate(-36 17)" onmousedown="handlePan(-1,0)">
                  <use xlink:href="#rim" fill="#404040">
                        <set attributeName="fill" to="#808080" begin="arrowLeft.mouseover" end="arrowLeft.mouseout"/>
                  </use>
                  <path fill="none" stroke="white" stroke-width="1.5" d="M0,-3.0v7 M-2.5,-0.5L0,-3.0L2.5,-0.5"/>
                </g>
        </g>
        <svg viewBox="0 0 15 15" width="100%" height="30px" preserveAspectRatio="xMaxYMin meet">
         <g id="arrow_out" transform="scale(0.3 0.3)">
          <a xlink:href="game__helper_8h_a72c30bee155342f972c892a5a8d4a175_cgraph_org.svg" target="_base">
           <rect id="button" ry="5" rx="5" y="6" x="6" height="38" width="38"
                fill="#f2f5e9" fill-opacity="0.5" stroke="#606060" stroke-width="1.0"/>
           <path id="arrow"
             d="M 11.500037,31.436501 C 11.940474,20.09759 22.043105,11.32322 32.158766,21.979434 L 37.068811,17.246167 C 37.068811,17.246167 37.088388,32 37.088388,32 L 22.160133,31.978069 C 22.160133,31.978069 26.997745,27.140456 26.997745,27.140456 C 18.528582,18.264221 13.291696,25.230495 11.500037,31.436501 z"
             style="fill:#404040;"/>
          </a>
         </g>
        </svg>
</svg>
