<?xml version="1.0" encoding="UTF-8" standalone="no"?>
<!DOCTYPE svg PUBLIC "-//W3C//DTD SVG 1.1//EN"
 "http://www.w3.org/Graphics/SVG/1.1/DTD/svg11.dtd">
<!-- Generated by graphviz version 2.40.1 (20161225.0304)
 -->
<!-- Title: process_kbd_input Pages: 1 -->
<svg width="327pt" height="66pt"
 viewBox="0.00 0.00 327.00 66.00" xmlns="http://www.w3.org/2000/svg" xmlns:xlink="http://www.w3.org/1999/xlink">
<g id="graph0" class="graph" transform="scale(1 1) rotate(0) translate(4 62)">
<title>process_kbd_input</title>
<!-- Node1 -->
<g id="node1" class="node">
<title>Node1</title>
<g id="a_node1"><a xlink:title="Processes the input that comes from the keyboard and executes the associated logic.">
<polygon fill="#bfbfbf" stroke="#000000" points="0,-19.5 0,-38.5 97,-38.5 97,-19.5 0,-19.5"/>
<text text-anchor="middle" x="48.5" y="-26.5" font-family="Helvetica" font-size="10.00" fill="#000000">process_kbd_input</text>
</a>
</g>
</g>
<!-- Node2 -->
<g id="node2" class="node">
<title>Node2</title>
<g id="a_node2"><a xlink:href="../../d5/df6/entities_8c.html#a99c30635d189d8cee6678e4953e659dc" target="_top" xlink:title="Deletes the grid entities (frees memory)">
<polygon fill="none" stroke="#000000" points="142,-38.5 142,-57.5 207,-57.5 207,-38.5 142,-38.5"/>
<text text-anchor="middle" x="174.5" y="-45.5" font-family="Helvetica" font-size="10.00" fill="#000000">delete_grid</text>
</a>
</g>
</g>
<!-- Node1&#45;&gt;Node2 -->
<g id="edge1" class="edge">
<title>Node1&#45;&gt;Node2</title>
<path fill="none" stroke="#191970" d="M97.2149,-36.3459C108.6672,-38.0728 120.7844,-39.9 131.9421,-41.5825"/>
<polygon fill="#191970" stroke="#191970" points="131.4625,-45.0497 141.8726,-43.08 132.5063,-38.128 131.4625,-45.0497"/>
</g>
<!-- Node3 -->
<g id="node3" class="node">
<title>Node3</title>
<g id="a_node3"><a xlink:href="../../d1/d87/uart_8c.html#a1fecae2103dd5c010cb5e507e93d8125" target="_top" xlink:title="Sends a byte to the UART.">
<polygon fill="none" stroke="#000000" points="133,-.5 133,-19.5 216,-19.5 216,-.5 133,-.5"/>
<text text-anchor="middle" x="174.5" y="-7.5" font-family="Helvetica" font-size="10.00" fill="#000000">send_data_uart</text>
</a>
</g>
</g>
<!-- Node1&#45;&gt;Node3 -->
<g id="edge2" class="edge">
<title>Node1&#45;&gt;Node3</title>
<path fill="none" stroke="#191970" d="M97.2149,-21.6541C105.5845,-20.392 114.3092,-19.0764 122.7549,-17.8028"/>
<polygon fill="#191970" stroke="#191970" points="123.5096,-21.2287 132.8759,-16.2766 122.4658,-14.3069 123.5096,-21.2287"/>
</g>
<!-- Node4 -->
<g id="node4" class="node">
<title>Node4</title>
<g id="a_node4"><a xlink:href="../../d3/d91/utils_8c.html#a79a031a8611f5b2d6afa4158e92b0fb4" target="_top" xlink:title="Gets from port 8 bit information to value.">
<polygon fill="none" stroke="#000000" points="252,-.5 252,-19.5 319,-19.5 319,-.5 252,-.5"/>
<text text-anchor="middle" x="285.5" y="-7.5" font-family="Helvetica" font-size="10.00" fill="#000000">util_sys_inb</text>
</a>
</g>
</g>
<!-- Node3&#45;&gt;Node4 -->
<g id="edge3" class="edge">
<title>Node3&#45;&gt;Node4</title>
<path fill="none" stroke="#191970" d="M216.1481,-10C224.5452,-10 233.3942,-10 241.8573,-10"/>
<polygon fill="#191970" stroke="#191970" points="241.9328,-13.5001 251.9328,-10 241.9328,-6.5001 241.9328,-13.5001"/>
</g>
</g>
</svg>
