<?xml version="1.0" encoding="UTF-8" standalone="no"?>
<!DOCTYPE svg PUBLIC "-//W3C//DTD SVG 1.1//EN"
 "http://www.w3.org/Graphics/SVG/1.1/DTD/svg11.dtd">
<!-- Generated by graphviz version 2.40.1 (20161225.0304)
 -->
<!-- Title: kbd.h Pages: 1 -->
<svg width="116pt" height="84pt"
 viewBox="0.00 0.00 116.00 84.00" xmlns="http://www.w3.org/2000/svg" xmlns:xlink="http://www.w3.org/1999/xlink">
<g id="graph0" class="graph" transform="scale(1 1) rotate(0) translate(4 80)">
<title>kbd.h</title>
<!-- Node1 -->
<g id="node1" class="node">
<title>Node1</title>
<g id="a_node1"><a xlink:title=" ">
<polygon fill="#bfbfbf" stroke="#000000" points="30.5,-56.5 30.5,-75.5 71.5,-75.5 71.5,-56.5 30.5,-56.5"/>
<text text-anchor="middle" x="51" y="-63.5" font-family="Helvetica" font-size="10.00" fill="#000000">kbd.h</text>
</a>
</g>
</g>
<!-- Node2 -->
<g id="node2" class="node">
<title>Node2</title>
<g id="a_node2"><a xlink:href="../../dc/da9/kbd_8c.html" target="_top" xlink:title=" ">
<polygon fill="none" stroke="#000000" points="0,-.5 0,-19.5 40,-19.5 40,-.5 0,-.5"/>
<text text-anchor="middle" x="20" y="-7.5" font-family="Helvetica" font-size="10.00" fill="#000000">kbd.c</text>
</a>
</g>
</g>
<!-- Node1&#45;&gt;Node2 -->
<g id="edge1" class="edge">
<title>Node1&#45;&gt;Node2</title>
<path fill="none" stroke="#191970" d="M40.6688,-47.3372C35.5335,-38.0605 29.5434,-27.2398 25.3379,-19.6427"/>
<polygon fill="#191970" stroke="#191970" points="37.6949,-49.1917 45.6002,-56.2455 43.8191,-45.8015 37.6949,-49.1917"/>
</g>
<!-- Node3 -->
<g id="node3" class="node">
<title>Node3</title>
<g id="a_node3"><a xlink:href="../../df/def/_l_c_o_m_8c.html" target="_top" xlink:title=" ">
<polygon fill="none" stroke="#000000" points="58,-.5 58,-19.5 108,-19.5 108,-.5 58,-.5"/>
<text text-anchor="middle" x="83" y="-7.5" font-family="Helvetica" font-size="10.00" fill="#000000">LCOM.c</text>
</a>
</g>
</g>
<!-- Node1&#45;&gt;Node3 -->
<g id="edge2" class="edge">
<title>Node1&#45;&gt;Node3</title>
<path fill="none" stroke="#191970" d="M61.6645,-47.3372C66.9654,-38.0605 73.1487,-27.2398 77.4899,-19.6427"/>
<polygon fill="#191970" stroke="#191970" points="58.4966,-45.8266 56.574,-56.2455 64.5743,-49.2996 58.4966,-45.8266"/>
</g>
</g>
</svg>
