<?xml version="1.0" encoding="UTF-8" standalone="no"?>
<!DOCTYPE svg PUBLIC "-//W3C//DTD SVG 1.1//EN"
 "http://www.w3.org/Graphics/SVG/1.1/DTD/svg11.dtd">
<!-- Generated by graphviz version 2.40.1 (20161225.0304)
 -->
<!-- Title: player.h Pages: 1 -->
<svg width="491pt" height="196pt"
 viewBox="0.00 0.00 490.50 196.00" xmlns="http://www.w3.org/2000/svg" xmlns:xlink="http://www.w3.org/1999/xlink">
<g id="graph0" class="graph" transform="scale(1 1) rotate(0) translate(4 192)">
<title>player.h</title>
<!-- Node1 -->
<g id="node1" class="node">
<title>Node1</title>
<g id="a_node1"><a xlink:title=" ">
<polygon fill="#bfbfbf" stroke="#000000" points="260,-168.5 260,-187.5 312,-187.5 312,-168.5 260,-168.5"/>
<text text-anchor="middle" x="286" y="-175.5" font-family="Helvetica" font-size="10.00" fill="#000000">player.h</text>
</a>
</g>
</g>
<!-- Node2 -->
<g id="node2" class="node">
<title>Node2</title>
<g id="a_node2"><a xlink:href="../../d7/d04/graphics_8h.html" target="_top" xlink:title=" ">
<polygon fill="none" stroke="#000000" points="177.5,-112.5 177.5,-131.5 238.5,-131.5 238.5,-112.5 177.5,-112.5"/>
<text text-anchor="middle" x="208" y="-119.5" font-family="Helvetica" font-size="10.00" fill="#000000">graphics.h</text>
</a>
</g>
</g>
<!-- Node1&#45;&gt;Node2 -->
<g id="edge1" class="edge">
<title>Node1&#45;&gt;Node2</title>
<path fill="none" stroke="#191970" d="M264.0064,-162.2097C250.3071,-152.3743 233.1264,-140.0394 221.4309,-131.6427"/>
<polygon fill="#191970" stroke="#191970" points="262.2489,-165.2566 272.4134,-168.2455 266.3314,-159.5703 262.2489,-165.2566"/>
</g>
<!-- Node3 -->
<g id="node3" class="node">
<title>Node3</title>
<g id="a_node3"><a xlink:href="../../d5/d95/graphics_8c.html" target="_top" xlink:title=" ">
<polygon fill="none" stroke="#000000" points="0,-56.5 0,-75.5 60,-75.5 60,-56.5 0,-56.5"/>
<text text-anchor="middle" x="30" y="-63.5" font-family="Helvetica" font-size="10.00" fill="#000000">graphics.c</text>
</a>
</g>
</g>
<!-- Node1&#45;&gt;Node3 -->
<g id="edge10" class="edge">
<title>Node1&#45;&gt;Node3</title>
<path fill="none" stroke="#191970" d="M250.2464,-168.5431C221.2828,-160.3619 179.7298,-147.4339 145,-132 107.1352,-115.1729 65.6635,-89.3795 44.3769,-75.5478"/>
<polygon fill="#191970" stroke="#191970" points="249.3623,-171.93 259.9344,-171.2353 251.2366,-165.1856 249.3623,-171.93"/>
</g>
<!-- Node4 -->
<g id="node4" class="node">
<title>Node4</title>
<g id="a_node4"><a xlink:href="../../dd/d65/game__helper_8h.html" target="_top" xlink:title=" ">
<polygon fill="none" stroke="#000000" points="78.5,-56.5 78.5,-75.5 159.5,-75.5 159.5,-56.5 78.5,-56.5"/>
<text text-anchor="middle" x="119" y="-63.5" font-family="Helvetica" font-size="10.00" fill="#000000">game_helper.h</text>
</a>
</g>
</g>
<!-- Node1&#45;&gt;Node4 -->
<g id="edge11" class="edge">
<title>Node1&#45;&gt;Node4</title>
<path fill="none" stroke="#191970" d="M250.2096,-169.6907C225.3464,-162.6395 192.4252,-150.6428 168,-132 147.5805,-116.4145 131.6511,-90.1167 123.9926,-75.876"/>
<polygon fill="#191970" stroke="#191970" points="249.4176,-173.1022 259.9841,-172.3281 251.2412,-166.3438 249.4176,-173.1022"/>
</g>
<!-- Node6 -->
<g id="node6" class="node">
<title>Node6</title>
<g id="a_node6"><a xlink:href="../../df/def/_l_c_o_m_8c.html" target="_top" xlink:title=" ">
<polygon fill="none" stroke="#000000" points="170,-.5 170,-19.5 220,-19.5 220,-.5 170,-.5"/>
<text text-anchor="middle" x="195" y="-7.5" font-family="Helvetica" font-size="10.00" fill="#000000">LCOM.c</text>
</a>
</g>
</g>
<!-- Node1&#45;&gt;Node6 -->
<g id="edge13" class="edge">
<title>Node1&#45;&gt;Node6</title>
<path fill="none" stroke="#191970" d="M312.2097,-163.1234C349.4654,-140.0925 410.0602,-94.4499 380,-56 360.4311,-30.9694 266.153,-17.6097 220.2371,-12.4943"/>
<polygon fill="#191970" stroke="#191970" points="310.0775,-160.3214 303.3102,-168.4734 313.684,-166.3208 310.0775,-160.3214"/>
</g>
<!-- Node7 -->
<g id="node7" class="node">
<title>Node7</title>
<g id="a_node7"><a xlink:href="../../d1/db8/player_8c.html" target="_top" xlink:title=" ">
<polygon fill="none" stroke="#000000" points="319.5,-56.5 319.5,-75.5 370.5,-75.5 370.5,-56.5 319.5,-56.5"/>
<text text-anchor="middle" x="345" y="-63.5" font-family="Helvetica" font-size="10.00" fill="#000000">player.c</text>
</a>
</g>
</g>
<!-- Node1&#45;&gt;Node7 -->
<g id="edge12" class="edge">
<title>Node1&#45;&gt;Node7</title>
<path fill="none" stroke="#191970" d="M295.7075,-159.5723C308.4085,-135.4618 330.1959,-94.1028 339.9824,-75.5249"/>
<polygon fill="#191970" stroke="#191970" points="292.5945,-157.9722 291.0303,-168.4509 298.7877,-161.2347 292.5945,-157.9722"/>
</g>
<!-- Node9 -->
<g id="node9" class="node">
<title>Node9</title>
<g id="a_node9"><a xlink:href="../../d5/df6/entities_8c.html" target="_top" xlink:title=" ">
<polygon fill="none" stroke="#000000" points="427.5,-112.5 427.5,-131.5 482.5,-131.5 482.5,-112.5 427.5,-112.5"/>
<text text-anchor="middle" x="455" y="-119.5" font-family="Helvetica" font-size="10.00" fill="#000000">entities.c</text>
</a>
</g>
</g>
<!-- Node1&#45;&gt;Node9 -->
<g id="edge9" class="edge">
<title>Node1&#45;&gt;Node9</title>
<path fill="none" stroke="#191970" d="M321.736,-166.1585C353.2154,-155.7274 398.422,-140.7477 427.2476,-131.1961"/>
<polygon fill="#191970" stroke="#191970" points="320.4274,-162.9049 312.0359,-169.3727 322.6292,-169.5496 320.4274,-162.9049"/>
</g>
<!-- Node2&#45;&gt;Node3 -->
<g id="edge2" class="edge">
<title>Node2&#45;&gt;Node3</title>
<path fill="none" stroke="#191970" d="M167.7069,-109.3235C135.0632,-99.0536 89.7866,-84.8093 60.2,-75.5011"/>
<polygon fill="#191970" stroke="#191970" points="166.8113,-112.7108 177.4007,-112.3733 168.912,-106.0335 166.8113,-112.7108"/>
</g>
<!-- Node2&#45;&gt;Node4 -->
<g id="edge3" class="edge">
<title>Node2&#45;&gt;Node4</title>
<path fill="none" stroke="#191970" d="M183.7936,-106.769C168.0225,-96.8456 147.924,-84.1994 134.325,-75.6427"/>
<polygon fill="#191970" stroke="#191970" points="182.1695,-109.8823 192.4974,-112.2455 185.8974,-103.9575 182.1695,-109.8823"/>
</g>
<!-- Node2&#45;&gt;Node6 -->
<g id="edge7" class="edge">
<title>Node2&#45;&gt;Node6</title>
<path fill="none" stroke="#191970" d="M205.7099,-102.2702C202.8927,-77.9985 198.2236,-37.7725 196.1056,-19.5249"/>
<polygon fill="#191970" stroke="#191970" points="202.2619,-102.9212 206.8916,-112.4509 209.2152,-102.1141 202.2619,-102.9212"/>
</g>
<!-- Node2&#45;&gt;Node7 -->
<g id="edge6" class="edge">
<title>Node2&#45;&gt;Node7</title>
<path fill="none" stroke="#191970" d="M240.9806,-108.5189C265.9311,-98.3201 299.5734,-84.5685 321.7562,-75.5011"/>
<polygon fill="#191970" stroke="#191970" points="239.4834,-105.3497 231.5511,-112.3733 242.132,-111.8293 239.4834,-105.3497"/>
</g>
<!-- Node8 -->
<g id="node8" class="node">
<title>Node8</title>
<g id="a_node8"><a xlink:href="../../d7/dc7/sprites_8c.html" target="_top" xlink:title=" ">
<polygon fill="none" stroke="#000000" points="216.5,-56.5 216.5,-75.5 301.5,-75.5 301.5,-56.5 216.5,-56.5"/>
<text text-anchor="middle" x="259" y="-63.5" font-family="Helvetica" font-size="10.00" fill="#000000">sprites/sprites.c</text>
</a>
</g>
</g>
<!-- Node2&#45;&gt;Node8 -->
<g id="edge8" class="edge">
<title>Node2&#45;&gt;Node8</title>
<path fill="none" stroke="#191970" d="M223.6749,-104.7884C232.3994,-95.2085 242.9354,-83.6396 250.2183,-75.6427"/>
<polygon fill="#191970" stroke="#191970" points="221.0291,-102.4954 216.8835,-112.2455 226.2046,-107.2088 221.0291,-102.4954"/>
</g>
<!-- Node5 -->
<g id="node5" class="node">
<title>Node5</title>
<g id="a_node5"><a xlink:href="../../d2/dba/game__helper_8c.html" target="_top" xlink:title=" ">
<polygon fill="none" stroke="#000000" points="72,-.5 72,-19.5 152,-19.5 152,-.5 72,-.5"/>
<text text-anchor="middle" x="112" y="-7.5" font-family="Helvetica" font-size="10.00" fill="#000000">game_helper.c</text>
</a>
</g>
</g>
<!-- Node4&#45;&gt;Node5 -->
<g id="edge4" class="edge">
<title>Node4&#45;&gt;Node5</title>
<path fill="none" stroke="#191970" d="M116.5197,-46.1575C115.3944,-37.155 114.115,-26.9199 113.2053,-19.6427"/>
<polygon fill="#191970" stroke="#191970" points="113.0673,-46.7569 117.7807,-56.2455 120.0132,-45.8886 113.0673,-46.7569"/>
</g>
<!-- Node4&#45;&gt;Node6 -->
<g id="edge5" class="edge">
<title>Node4&#45;&gt;Node6</title>
<path fill="none" stroke="#191970" d="M140.4297,-50.2097C153.7777,-40.3743 170.5179,-28.0394 181.9135,-19.6427"/>
<polygon fill="#191970" stroke="#191970" points="138.2126,-47.4958 132.2382,-56.2455 142.365,-53.1312 138.2126,-47.4958"/>
</g>
</g>
</svg>
