<?xml version="1.0" encoding="UTF-8" standalone="no"?>
<!DOCTYPE svg PUBLIC "-//W3C//DTD SVG 1.1//EN"
 "http://www.w3.org/Graphics/SVG/1.1/DTD/svg11.dtd">
<!-- Generated by graphviz version 2.40.1 (20161225.0304)
 -->
<!-- Title: grid_move Pages: 1 -->
<!--zoomable 66 -->
<svg id="main" version="1.1" xmlns="http://www.w3.org/2000/svg" xmlns:xlink="http://www.w3.org/1999/xlink" xml:space="preserve" onload="init(evt)">
<style type="text/css"><![CDATA[
.edge:hover path { stroke: red; }
.edge:hover polygon { stroke: red; fill: red; }
]]></style>
<script type="text/javascript"><![CDATA[
var edges = document.getElementsByTagName('g');
if (edges && edges.length) {
  for (var i=0;i<edges.length;i++) {
    if (edges[i].id.substr(0,4)=='edge') {
      edges[i].setAttribute('class','edge');
    }
  }
}
]]></script>
        <defs>
                <circle id="rim" cx="0" cy="0" r="7"/>
                <circle id="rim2" cx="0" cy="0" r="3.5"/>
                <g id="zoomPlus">
                        <use xlink:href="#rim" fill="#404040">
                                <set attributeName="fill" to="#808080" begin="zoomplus.mouseover" end="zoomplus.mouseout"/>
                        </use>
                        <path d="M-4,0h8M0,-4v8" fill="none" stroke="white" stroke-width="1.5" pointer-events="none"/>
                </g>
                <g id="zoomMin">
                        <use xlink:href="#rim" fill="#404040">
                                <set attributeName="fill" to="#808080" begin="zoomminus.mouseover" end="zoomminus.mouseout"/>
                        </use>
                        <path d="M-4,0h8" fill="none" stroke="white" stroke-width="1.5" pointer-events="none"/>
                </g>
                <g id="dirArrow">
                        <path fill="none" stroke="white" stroke-width="1.5" d="M0,-3.0v7 M-2.5,-0.5L0,-3.0L2.5,-0.5"/>
                </g>
               <g id="resetDef">
                       <use xlink:href="#rim2" fill="#404040">
                               <set attributeName="fill" to="#808080" begin="reset.mouseover" end="reset.mouseout"/>
                       </use>
               </g>
        </defs>

<script type="text/javascript">
var viewWidth = 561;
var viewHeight = 66;
var sectionId = 'dynsection-4';
</script>
<script xlink:href="../../svgpan.js"/>
<svg id="graph" class="graph">
<g id="viewport">
<title>grid_move</title>
<!-- Node1 -->
<g id="node1" class="node">
<title>Node1</title>
<g id="a_node1"><a xlink:title="Moves an entity from position ( curr_x , curr_y ) to postition ( new_x, new_y )">
<polygon fill="#bfbfbf" stroke="#000000" points="491,-19.5 491,-38.5 553,-38.5 553,-19.5 491,-19.5"/>
<text text-anchor="middle" x="522" y="-26.5" font-family="Helvetica" font-size="10.00" fill="#000000">grid_move</text>
</a>
</g>
</g>
<!-- Node2 -->
<g id="node2" class="node">
<title>Node2</title>
<g id="a_node2"><a xlink:href="../../d6/d4f/enemies_8h.html#aa5b90db246913c9baf07f38ffb39af80" target="_top" xlink:title="Makes the blob act (move or attack)">
<polygon fill="none" stroke="#000000" points="369,-38.5 369,-57.5 452,-57.5 452,-38.5 369,-38.5"/>
<text text-anchor="middle" x="410.5" y="-45.5" font-family="Helvetica" font-size="10.00" fill="#000000">green_blob_act</text>
</a>
</g>
</g>
<!-- Node1&#45;&gt;Node2 -->
<g id="edge1" class="edge">
<title>Node1&#45;&gt;Node2</title>
<path fill="none" stroke="#191970" d="M481.042,-35.9794C471.6496,-37.5799 461.6535,-39.2833 452.2291,-40.8892"/>
<polygon fill="#191970" stroke="#191970" points="481.6711,-39.4227 490.941,-34.2926 480.4952,-32.5222 481.6711,-39.4227"/>
</g>
<!-- Node6 -->
<g id="node6" class="node">
<title>Node6</title>
<g id="a_node6"><a xlink:href="../../d3/d62/player_8h.html#a2e812fcd1282d5901ee15ee07434f73b" target="_top" xlink:title="The spearman moves in direction.">
<polygon fill="none" stroke="#000000" points="366,-.5 366,-19.5 455,-19.5 455,-.5 366,-.5"/>
<text text-anchor="middle" x="410.5" y="-7.5" font-family="Helvetica" font-size="10.00" fill="#000000">spearman_move</text>
</a>
</g>
</g>
<!-- Node1&#45;&gt;Node6 -->
<g id="edge5" class="edge">
<title>Node1&#45;&gt;Node6</title>
<path fill="none" stroke="#191970" d="M480.9775,-22.0096C472.5669,-20.5764 463.6745,-19.0611 455.1437,-17.6074"/>
<polygon fill="#191970" stroke="#191970" points="480.4952,-25.4778 490.941,-23.7074 481.6711,-18.5773 480.4952,-25.4778"/>
</g>
<!-- Node3 -->
<g id="node3" class="node">
<title>Node3</title>
<g id="a_node3"><a xlink:href="../../d6/d4f/enemies_8h.html#a551793ac2170b5920afc6931f2beba65" target="_top" xlink:title="Moves every enemy in the grid.">
<polygon fill="none" stroke="#000000" points="226,-38.5 226,-57.5 330,-57.5 330,-38.5 226,-38.5"/>
<text text-anchor="middle" x="278" y="-45.5" font-family="Helvetica" font-size="10.00" fill="#000000">grid_enemies_move</text>
</a>
</g>
</g>
<!-- Node2&#45;&gt;Node3 -->
<g id="edge2" class="edge">
<title>Node2&#45;&gt;Node3</title>
<path fill="none" stroke="#191970" d="M358.9008,-48C349.4624,-48 339.6064,-48 330.1521,-48"/>
<polygon fill="#191970" stroke="#191970" points="358.9397,-51.5001 368.9397,-48 358.9397,-44.5001 358.9397,-51.5001"/>
</g>
<!-- Node4 -->
<g id="node4" class="node">
<title>Node4</title>
<g id="a_node4"><a xlink:href="../../dd/d65/game__helper_8h.html#ac2e814f8670e374692b399122563067d" target="_top" xlink:title="Performs all game logic and displaying that occurs every frame depending on the game state.">
<polygon fill="none" stroke="#000000" points="119,-19.5 119,-38.5 190,-38.5 190,-19.5 119,-19.5"/>
<text text-anchor="middle" x="154.5" y="-26.5" font-family="Helvetica" font-size="10.00" fill="#000000">on_timer_int</text>
</a>
</g>
</g>
<!-- Node3&#45;&gt;Node4 -->
<g id="edge3" class="edge">
<title>Node3&#45;&gt;Node4</title>
<path fill="none" stroke="#191970" d="M216.0665,-38.4718C207.2514,-37.1156 198.4413,-35.7602 190.3548,-34.5161"/>
<polygon fill="#191970" stroke="#191970" points="215.5669,-41.936 225.9828,-39.9974 216.6313,-35.0174 215.5669,-41.936"/>
</g>
<!-- Node5 -->
<g id="node5" class="node">
<title>Node5</title>
<g id="a_node5"><a xlink:href="../../df/def/_l_c_o_m_8c.html#a2a16f651eccbd248e1ad3b3b924b143b" target="_top" xlink:title=" ">
<polygon fill="none" stroke="#000000" points="0,-19.5 0,-38.5 83,-38.5 83,-19.5 0,-19.5"/>
<text text-anchor="middle" x="41.5" y="-26.5" font-family="Helvetica" font-size="10.00" fill="#000000">proj_main_loop</text>
</a>
</g>
</g>
<!-- Node4&#45;&gt;Node5 -->
<g id="edge4" class="edge">
<title>Node4&#45;&gt;Node5</title>
<path fill="none" stroke="#191970" d="M108.7225,-29C100.3288,-29 91.6073,-29 83.3362,-29"/>
<polygon fill="#191970" stroke="#191970" points="108.7461,-32.5001 118.7461,-29 108.7461,-25.5001 108.7461,-32.5001"/>
</g>
<!-- Node7 -->
<g id="node7" class="node">
<title>Node7</title>
<g id="a_node7"><a xlink:href="../../d3/d62/player_8h.html#a43024b59b971eee693bdf802580d046e" target="_top" xlink:title="The spearman acts acording to action in PA.">
<polygon fill="none" stroke="#000000" points="239.5,-.5 239.5,-19.5 316.5,-19.5 316.5,-.5 239.5,-.5"/>
<text text-anchor="middle" x="278" y="-7.5" font-family="Helvetica" font-size="10.00" fill="#000000">spearman_act</text>
</a>
</g>
</g>
<!-- Node6&#45;&gt;Node7 -->
<g id="edge6" class="edge">
<title>Node6&#45;&gt;Node7</title>
<path fill="none" stroke="#191970" d="M355.3632,-10C342.3394,-10 328.7259,-10 316.6138,-10"/>
<polygon fill="#191970" stroke="#191970" points="355.6416,-13.5001 365.6415,-10 355.6415,-6.5001 355.6416,-13.5001"/>
</g>
<!-- Node7&#45;&gt;Node4 -->
<g id="edge7" class="edge">
<title>Node7&#45;&gt;Node4</title>
<path fill="none" stroke="#191970" d="M229.0622,-17.5289C216.0735,-19.5272 202.2936,-21.6471 190.1605,-23.5138"/>
<polygon fill="#191970" stroke="#191970" points="229.9112,-20.9395 239.2627,-15.9596 228.8467,-14.0209 229.9112,-20.9395"/>
</g>
</g>
</svg>
        <g id="navigator" transform="translate(0 0)" fill="#404254">
                <rect fill="#f2f5e9" fill-opacity="0.5" stroke="#606060" stroke-width=".5" x="0" y="0" width="60" height="60"/>
                <use id="zoomplus" xlink:href="#zoomPlus" x="17" y="9" onmousedown="handleZoom(evt,'in')"/>
                <use id="zoomminus" xlink:href="#zoomMin" x="42" y="9" onmousedown="handleZoom(evt,'out')"/>
                <use id="reset" xlink:href="#resetDef" x="30" y="36" onmousedown="handleReset()"/>
                <g id="arrowUp" xlink:href="#dirArrow" transform="translate(30 24)" onmousedown="handlePan(0,-1)">
                  <use xlink:href="#rim" fill="#404040">
                        <set attributeName="fill" to="#808080" begin="arrowUp.mouseover" end="arrowUp.mouseout"/>
                  </use>
                  <path fill="none" stroke="white" stroke-width="1.5" d="M0,-3.0v7 M-2.5,-0.5L0,-3.0L2.5,-0.5"/>
                </g>
                <g id="arrowRight" xlink:href="#dirArrow" transform="rotate(90) translate(36 -43)" onmousedown="handlePan(1,0)">
                  <use xlink:href="#rim" fill="#404040">
                        <set attributeName="fill" to="#808080" begin="arrowRight.mouseover" end="arrowRight.mouseout"/>
                  </use>
                  <path fill="none" stroke="white" stroke-width="1.5" d="M0,-3.0v7 M-2.5,-0.5L0,-3.0L2.5,-0.5"/>
                </g>
                <g id="arrowDown" xlink:href="#dirArrow" transform="rotate(180) translate(-30 -48)" onmousedown="handlePan(0,1)">
                  <use xlink:href="#rim" fill="#404040">
                        <set attributeName="fill" to="#808080" begin="arrowDown.mouseover" end="arrowDown.mouseout"/>
                  </use>
                  <path fill="none" stroke="white" stroke-width="1.5" d="M0,-3.0v7 M-2.5,-0.5L0,-3.0L2.5,-0.5"/>
                </g>
                <g id="arrowLeft" xlink:href="#dirArrow" transform="rotate(270) translate(-36 17)" onmousedown="handlePan(-1,0)">
                  <use xlink:href="#rim" fill="#404040">
                        <set attributeName="fill" to="#808080" begin="arrowLeft.mouseover" end="arrowLeft.mouseout"/>
                  </use>
                  <path fill="none" stroke="white" stroke-width="1.5" d="M0,-3.0v7 M-2.5,-0.5L0,-3.0L2.5,-0.5"/>
                </g>
        </g>
        <svg viewBox="0 0 15 15" width="100%" height="30px" preserveAspectRatio="xMaxYMin meet">
         <g id="arrow_out" transform="scale(0.3 0.3)">
          <a xlink:href="entities_8c_a525a3fe4f3a4d24d73ce258b817462d7_icgraph_org.svg" target="_base">
           <rect id="button" ry="5" rx="5" y="6" x="6" height="38" width="38"
                fill="#f2f5e9" fill-opacity="0.5" stroke="#606060" stroke-width="1.0"/>
           <path id="arrow"
             d="M 11.500037,31.436501 C 11.940474,20.09759 22.043105,11.32322 32.158766,21.979434 L 37.068811,17.246167 C 37.068811,17.246167 37.088388,32 37.088388,32 L 22.160133,31.978069 C 22.160133,31.978069 26.997745,27.140456 26.997745,27.140456 C 18.528582,18.264221 13.291696,25.230495 11.500037,31.436501 z"
             style="fill:#404040;"/>
          </a>
         </g>
        </svg>
</svg>
