<?xml version="1.0" encoding="UTF-8" standalone="no"?>
<!DOCTYPE svg PUBLIC "-//W3C//DTD SVG 1.1//EN"
 "http://www.w3.org/Graphics/SVG/1.1/DTD/svg11.dtd">
<!-- Generated by graphviz version 2.40.1 (20161225.0304)
 -->
<!-- Title: update_animations Pages: 1 -->
<svg width="613pt" height="317pt"
 viewBox="0.00 0.00 613.00 316.50" xmlns="http://www.w3.org/2000/svg" xmlns:xlink="http://www.w3.org/1999/xlink">
<g id="graph0" class="graph" transform="scale(1 1) rotate(0) translate(4 312.5)">
<title>update_animations</title>
<!-- Node1 -->
<g id="node1" class="node">
<title>Node1</title>
<g id="a_node1"><a xlink:title="Updates the animations of all Entities.">
<polygon fill="#bfbfbf" stroke="#000000" points="0,-133.5 0,-152.5 98,-152.5 98,-133.5 0,-133.5"/>
<text text-anchor="middle" x="49" y="-140.5" font-family="Helvetica" font-size="10.00" fill="#000000">update_animations</text>
</a>
</g>
</g>
<!-- Node2 -->
<g id="node2" class="node">
<title>Node2</title>
<g id="a_node2"><a xlink:href="../../db/d6f/enemies_8c.html#a8f86b7712a773166a6ae8c35799e7135" target="_top" xlink:title="Animates the green blobs depending on their current action.">
<polygon fill="none" stroke="#000000" points="134,-190.5 134,-209.5 238,-209.5 238,-190.5 134,-190.5"/>
<text text-anchor="middle" x="186" y="-197.5" font-family="Helvetica" font-size="10.00" fill="#000000">animate_green_blob</text>
</a>
</g>
</g>
<!-- Node1&#45;&gt;Node2 -->
<g id="edge1" class="edge">
<title>Node1&#45;&gt;Node2</title>
<path fill="none" stroke="#191970" d="M71.9307,-152.5405C94.2565,-161.8294 128.4018,-176.0358 153.5184,-186.4857"/>
<polygon fill="#191970" stroke="#191970" points="152.4172,-189.8184 162.9945,-190.4284 155.1062,-183.3555 152.4172,-189.8184"/>
</g>
<!-- Node7 -->
<g id="node7" class="node">
<title>Node7</title>
<g id="a_node7"><a xlink:href="../../d1/db8/player_8c.html#a21201934ad44d6ccf7beb9ae2278dda7" target="_top" xlink:title="Animates the spearman according to its action.">
<polygon fill="none" stroke="#000000" points="136.5,-76.5 136.5,-95.5 235.5,-95.5 235.5,-76.5 136.5,-76.5"/>
<text text-anchor="middle" x="186" y="-83.5" font-family="Helvetica" font-size="10.00" fill="#000000">animate_spearman</text>
</a>
</g>
</g>
<!-- Node1&#45;&gt;Node7 -->
<g id="edge6" class="edge">
<title>Node1&#45;&gt;Node7</title>
<path fill="none" stroke="#191970" d="M71.9307,-133.4595C94.2565,-124.1706 128.4018,-109.9642 153.5184,-99.5143"/>
<polygon fill="#191970" stroke="#191970" points="155.1062,-102.6445 162.9945,-95.5716 152.4172,-96.1816 155.1062,-102.6445"/>
</g>
<!-- Node3 -->
<g id="node3" class="node">
<title>Node3</title>
<g id="a_node3"><a xlink:href="../../db/d6f/enemies_8c.html#aef73587c39142a13b9548fd05228ef5a" target="_top" xlink:title="Animates the green blobs attacking.">
<polygon fill="none" stroke="#000000" points="289,-278 289,-308 393,-308 393,-278 289,-278"/>
<text text-anchor="start" x="297" y="-296" font-family="Helvetica" font-size="10.00" fill="#000000">animate_green_blob</text>
<text text-anchor="middle" x="341" y="-285" font-family="Helvetica" font-size="10.00" fill="#000000">_attack</text>
</a>
</g>
</g>
<!-- Node2&#45;&gt;Node3 -->
<g id="edge2" class="edge">
<title>Node2&#45;&gt;Node3</title>
<path fill="none" stroke="#191970" d="M196.0543,-209.6821C211.6392,-224.2518 243.0676,-251.9217 274,-269 277.0675,-270.6936 280.2776,-272.3065 283.5611,-273.8358"/>
<polygon fill="#191970" stroke="#191970" points="282.3852,-277.1411 292.9512,-277.9219 285.1783,-270.7225 282.3852,-277.1411"/>
</g>
<!-- Node4 -->
<g id="node4" class="node">
<title>Node4</title>
<g id="a_node4"><a xlink:href="../../db/d6f/enemies_8c.html#ab6b97c3e7de640e218312f9a34ebba3d" target="_top" xlink:title="Animates the green blobs dying.">
<polygon fill="none" stroke="#000000" points="289,-229 289,-259 393,-259 393,-229 289,-229"/>
<text text-anchor="start" x="297" y="-247" font-family="Helvetica" font-size="10.00" fill="#000000">animate_green_blob</text>
<text text-anchor="middle" x="341" y="-236" font-family="Helvetica" font-size="10.00" fill="#000000">_death</text>
</a>
</g>
</g>
<!-- Node2&#45;&gt;Node4 -->
<g id="edge3" class="edge">
<title>Node2&#45;&gt;Node4</title>
<path fill="none" stroke="#191970" d="M219.6327,-209.5473C237.0018,-214.4779 258.7541,-220.6528 279.0281,-226.408"/>
<polygon fill="#191970" stroke="#191970" points="278.2606,-229.8283 288.8363,-229.1922 280.1722,-223.0944 278.2606,-229.8283"/>
</g>
<!-- Node5 -->
<g id="node5" class="node">
<title>Node5</title>
<g id="a_node5"><a xlink:href="../../db/d6f/enemies_8c.html#a0a455a38e1bfcd3907f5b0ecd3dd5d8b" target="_top" xlink:title="Animates the green blobs idle state.">
<polygon fill="none" stroke="#000000" points="278.5,-190.5 278.5,-209.5 403.5,-209.5 403.5,-190.5 278.5,-190.5"/>
<text text-anchor="middle" x="341" y="-197.5" font-family="Helvetica" font-size="10.00" fill="#000000">animate_green_blob_idle</text>
</a>
</g>
</g>
<!-- Node2&#45;&gt;Node5 -->
<g id="edge4" class="edge">
<title>Node2&#45;&gt;Node5</title>
<path fill="none" stroke="#191970" d="M238.0439,-200C247.7402,-200 258.0344,-200 268.2196,-200"/>
<polygon fill="#191970" stroke="#191970" points="268.3422,-203.5001 278.3422,-200 268.3421,-196.5001 268.3422,-203.5001"/>
</g>
<!-- Node6 -->
<g id="node6" class="node">
<title>Node6</title>
<g id="a_node6"><a xlink:href="../../db/d6f/enemies_8c.html#aacc94f7f60bb7d9d608e19f4802398de" target="_top" xlink:title="Animates the green blobs moving state.">
<polygon fill="none" stroke="#000000" points="274,-152.5 274,-171.5 408,-171.5 408,-152.5 274,-152.5"/>
<text text-anchor="middle" x="341" y="-159.5" font-family="Helvetica" font-size="10.00" fill="#000000">animate_green_blob_move</text>
</a>
</g>
</g>
<!-- Node2&#45;&gt;Node6 -->
<g id="edge5" class="edge">
<title>Node2&#45;&gt;Node6</title>
<path fill="none" stroke="#191970" d="M225.113,-190.411C245.4748,-185.4191 270.5663,-179.2676 292.1887,-173.9666"/>
<polygon fill="#191970" stroke="#191970" points="293.2892,-177.3006 302.1682,-171.5201 291.6224,-170.5019 293.2892,-177.3006"/>
</g>
<!-- Node8 -->
<g id="node8" class="node">
<title>Node8</title>
<g id="a_node8"><a xlink:href="../../d1/db8/player_8c.html#a1ef2d92b05b9c22e1811bf09a80f1fc0" target="_top" xlink:title="Animates the spearman&#39;s attack.">
<polygon fill="none" stroke="#000000" points="275.5,-114.5 275.5,-133.5 406.5,-133.5 406.5,-114.5 275.5,-114.5"/>
<text text-anchor="middle" x="341" y="-121.5" font-family="Helvetica" font-size="10.00" fill="#000000">animate_spearman_attack</text>
</a>
</g>
</g>
<!-- Node7&#45;&gt;Node8 -->
<g id="edge7" class="edge">
<title>Node7&#45;&gt;Node8</title>
<path fill="none" stroke="#191970" d="M225.113,-95.589C245.4748,-100.5809 270.5663,-106.7324 292.1887,-112.0334"/>
<polygon fill="#191970" stroke="#191970" points="291.6224,-115.4981 302.1682,-114.4799 293.2892,-108.6994 291.6224,-115.4981"/>
</g>
<!-- Node9 -->
<g id="node9" class="node">
<title>Node9</title>
<g id="a_node9"><a xlink:href="../../d1/db8/player_8c.html#aeec69c660cc505f7ca09f29987131823" target="_top" xlink:title="Animates the spearman&#39;s directional move.">
<polygon fill="none" stroke="#000000" points="277,-76.5 277,-95.5 405,-95.5 405,-76.5 277,-76.5"/>
<text text-anchor="middle" x="341" y="-83.5" font-family="Helvetica" font-size="10.00" fill="#000000">animate_spearman_death</text>
</a>
</g>
</g>
<!-- Node7&#45;&gt;Node9 -->
<g id="edge8" class="edge">
<title>Node7&#45;&gt;Node9</title>
<path fill="none" stroke="#191970" d="M235.8962,-86C245.6532,-86 256.0816,-86 266.4399,-86"/>
<polygon fill="#191970" stroke="#191970" points="266.7475,-89.5001 276.7474,-86 266.7474,-82.5001 266.7475,-89.5001"/>
</g>
<!-- Node10 -->
<g id="node10" class="node">
<title>Node10</title>
<g id="a_node10"><a xlink:href="../../d1/db8/player_8c.html#afcbcbbf55587b8fad670ca62becea8d1" target="_top" xlink:title="Animates the spearman&#39;s directional move.">
<polygon fill="none" stroke="#000000" points="277,-38.5 277,-57.5 405,-57.5 405,-38.5 277,-38.5"/>
<text text-anchor="middle" x="341" y="-45.5" font-family="Helvetica" font-size="10.00" fill="#000000">animate_spearman_move</text>
</a>
</g>
</g>
<!-- Node7&#45;&gt;Node10 -->
<g id="edge9" class="edge">
<title>Node7&#45;&gt;Node10</title>
<path fill="none" stroke="#191970" d="M225.113,-76.411C245.4748,-71.4191 270.5663,-65.2676 292.1887,-59.9666"/>
<polygon fill="#191970" stroke="#191970" points="293.2892,-63.3006 302.1682,-57.5201 291.6224,-56.5019 293.2892,-63.3006"/>
</g>
<!-- Node11 -->
<g id="node11" class="node">
<title>Node11</title>
<g id="a_node11"><a xlink:href="../../d1/db8/player_8c.html#a909f31d95b754c4e0200dab6f3246d41" target="_top" xlink:title="Animates the spearman&#39;s special attack.">
<polygon fill="none" stroke="#000000" points="274,-.5 274,-19.5 408,-19.5 408,-.5 274,-.5"/>
<text text-anchor="middle" x="341" y="-7.5" font-family="Helvetica" font-size="10.00" fill="#000000">animate_spearman_special</text>
</a>
</g>
</g>
<!-- Node7&#45;&gt;Node11 -->
<g id="edge10" class="edge">
<title>Node7&#45;&gt;Node11</title>
<path fill="none" stroke="#191970" d="M198.1409,-76.4414C214.5174,-63.9578 244.9864,-42.1504 274,-29 279.0932,-26.6915 284.5329,-24.597 290.0277,-22.7145"/>
<polygon fill="#191970" stroke="#191970" points="291.4551,-25.9328 299.9149,-19.5545 289.324,-19.2651 291.4551,-25.9328"/>
</g>
<!-- Node12 -->
<g id="node12" class="node">
<title>Node12</title>
<g id="a_node12"><a xlink:href="../../d5/d95/graphics_8c.html#a6386a61a54c277c05a7ab9d5737edcd8" target="_top" xlink:title="Paints a XPM file in the screen at coordinates ( start_x , start_y )">
<polygon fill="none" stroke="#000000" points="444,-.5 444,-19.5 506,-19.5 506,-.5 444,-.5"/>
<text text-anchor="middle" x="475" y="-7.5" font-family="Helvetica" font-size="10.00" fill="#000000">paint_xpm</text>
</a>
</g>
</g>
<!-- Node11&#45;&gt;Node12 -->
<g id="edge11" class="edge">
<title>Node11&#45;&gt;Node12</title>
<path fill="none" stroke="#191970" d="M408.3926,-10C417.0026,-10 425.6039,-10 433.6278,-10"/>
<polygon fill="#191970" stroke="#191970" points="433.7957,-13.5001 443.7956,-10 433.7956,-6.5001 433.7957,-13.5001"/>
</g>
<!-- Node13 -->
<g id="node13" class="node">
<title>Node13</title>
<g id="a_node13"><a xlink:href="../../d5/d95/graphics_8c.html#ac8c3ed74f805c5bccd091d94f5d72242" target="_top" xlink:title="Paints a pixel in coordinates ( x , y ) with colour.">
<polygon fill="none" stroke="#000000" points="542,-.5 542,-19.5 605,-19.5 605,-.5 542,-.5"/>
<text text-anchor="middle" x="573.5" y="-7.5" font-family="Helvetica" font-size="10.00" fill="#000000">paint_pixel</text>
</a>
</g>
</g>
<!-- Node12&#45;&gt;Node13 -->
<g id="edge12" class="edge">
<title>Node12&#45;&gt;Node13</title>
<path fill="none" stroke="#191970" d="M506.166,-10C514.2601,-10 523.111,-10 531.6574,-10"/>
<polygon fill="#191970" stroke="#191970" points="531.8597,-13.5001 541.8597,-10 531.8597,-6.5001 531.8597,-13.5001"/>
</g>
</g>
</svg>
