<?xml version="1.0" encoding="UTF-8" standalone="no"?>
<!DOCTYPE svg PUBLIC "-//W3C//DTD SVG 1.1//EN"
 "http://www.w3.org/Graphics/SVG/1.1/DTD/svg11.dtd">
<!-- Generated by graphviz version 2.40.1 (20161225.0304)
 -->
<!-- Title: file_to_xpm Pages: 1 -->
<svg width="367pt" height="165pt"
 viewBox="0.00 0.00 367.00 164.50" xmlns="http://www.w3.org/2000/svg" xmlns:xlink="http://www.w3.org/1999/xlink">
<g id="graph0" class="graph" transform="scale(1 1) rotate(0) translate(4 160.5)">
<title>file_to_xpm</title>
<!-- Node1 -->
<g id="node1" class="node">
<title>Node1</title>
<g id="a_node1"><a xlink:title="Generates a struct containing all the information regarding a XPM in img.">
<polygon fill="#bfbfbf" stroke="#000000" points="292,-60.5 292,-79.5 359,-79.5 359,-60.5 292,-60.5"/>
<text text-anchor="middle" x="325.5" y="-67.5" font-family="Helvetica" font-size="10.00" fill="#000000">file_to_xpm</text>
</a>
</g>
</g>
<!-- Node2 -->
<g id="node2" class="node">
<title>Node2</title>
<g id="a_node2"><a xlink:href="../../d3/def/sprites_8h.html#ae7de65d94ace9081e3ae737cf514ae2d" target="_top" xlink:title="Generates the floor tiles of the game board.">
<polygon fill="none" stroke="#000000" points="129.5,-126 129.5,-156 245.5,-156 245.5,-126 129.5,-126"/>
<text text-anchor="start" x="137.5" y="-144" font-family="Helvetica" font-size="10.00" fill="#000000">generate_board_tileset</text>
<text text-anchor="middle" x="187.5" y="-133" font-family="Helvetica" font-size="10.00" fill="#000000">_sprites</text>
</a>
</g>
</g>
<!-- Node1&#45;&gt;Node2 -->
<g id="edge1" class="edge">
<title>Node1&#45;&gt;Node2</title>
<path fill="none" stroke="#191970" d="M305.2326,-85.7584C291.8081,-95.6681 273.5081,-108.1986 256,-117 249.5826,-120.2261 242.627,-123.2053 235.691,-125.8878"/>
<polygon fill="#191970" stroke="#191970" points="307.4089,-88.5009 313.2931,-79.6903 303.1988,-82.9085 307.4089,-88.5009"/>
</g>
<!-- Node4 -->
<g id="node4" class="node">
<title>Node4</title>
<g id="a_node4"><a xlink:href="../../d3/def/sprites_8h.html#a8aa200b91ad90efc6ac81569b804e070" target="_top" xlink:title="generates the green blob sprites">
<polygon fill="none" stroke="#000000" points="133.5,-77 133.5,-107 241.5,-107 241.5,-77 133.5,-77"/>
<text text-anchor="start" x="141.5" y="-95" font-family="Helvetica" font-size="10.00" fill="#000000">generate_green_blob</text>
<text text-anchor="middle" x="187.5" y="-84" font-family="Helvetica" font-size="10.00" fill="#000000">_sprites</text>
</a>
</g>
</g>
<!-- Node1&#45;&gt;Node4 -->
<g id="edge3" class="edge">
<title>Node1&#45;&gt;Node4</title>
<path fill="none" stroke="#191970" d="M281.8286,-76.9621C269.0583,-78.998 254.944,-81.2481 241.6088,-83.374"/>
<polygon fill="#191970" stroke="#191970" points="282.4171,-80.4126 291.7414,-75.3818 281.3151,-73.4999 282.4171,-80.4126"/>
</g>
<!-- Node5 -->
<g id="node5" class="node">
<title>Node5</title>
<g id="a_node5"><a xlink:href="../../d3/def/sprites_8h.html#a48949e97396d2ead1a080a3bd88249ef" target="_top" xlink:title="Generates the spearman sprites.">
<polygon fill="none" stroke="#000000" points="119,-38.5 119,-57.5 256,-57.5 256,-38.5 119,-38.5"/>
<text text-anchor="middle" x="187.5" y="-45.5" font-family="Helvetica" font-size="10.00" fill="#000000">generate_spearman_sprites</text>
</a>
</g>
</g>
<!-- Node1&#45;&gt;Node5 -->
<g id="edge5" class="edge">
<title>Node1&#45;&gt;Node5</title>
<path fill="none" stroke="#191970" d="M281.6177,-63.0043C270.7034,-61.2643 258.818,-59.3695 247.2826,-57.5306"/>
<polygon fill="#191970" stroke="#191970" points="281.3151,-66.5001 291.7414,-64.6182 282.4171,-59.5874 281.3151,-66.5001"/>
</g>
<!-- Node6 -->
<g id="node6" class="node">
<title>Node6</title>
<g id="a_node6"><a xlink:href="../../d3/def/sprites_8h.html#aed5a05d4c7f475279c199783adea0e06" target="_top" xlink:title="Generates the sprites for the game UI.">
<polygon fill="none" stroke="#000000" points="135.5,-.5 135.5,-19.5 239.5,-19.5 239.5,-.5 135.5,-.5"/>
<text text-anchor="middle" x="187.5" y="-7.5" font-family="Helvetica" font-size="10.00" fill="#000000">generate_UI_sprites</text>
</a>
</g>
</g>
<!-- Node1&#45;&gt;Node6 -->
<g id="edge7" class="edge">
<title>Node1&#45;&gt;Node6</title>
<path fill="none" stroke="#191970" d="M303.2441,-54.8338C289.9805,-46.3223 272.552,-36.0328 256,-29 247.3675,-25.3321 237.8233,-22.1675 228.6695,-19.5306"/>
<polygon fill="#191970" stroke="#191970" points="301.418,-57.8217 311.6993,-60.3804 305.2576,-51.9687 301.418,-57.8217"/>
</g>
<!-- Node3 -->
<g id="node3" class="node">
<title>Node3</title>
<g id="a_node3"><a xlink:href="../../df/def/_l_c_o_m_8c.html#a2a16f651eccbd248e1ad3b3b924b143b" target="_top" xlink:title=" ">
<polygon fill="none" stroke="#000000" points="0,-60.5 0,-79.5 83,-79.5 83,-60.5 0,-60.5"/>
<text text-anchor="middle" x="41.5" y="-67.5" font-family="Helvetica" font-size="10.00" fill="#000000">proj_main_loop</text>
</a>
</g>
</g>
<!-- Node2&#45;&gt;Node3 -->
<g id="edge2" class="edge">
<title>Node2&#45;&gt;Node3</title>
<path fill="none" stroke="#191970" d="M130.7496,-122.1628C126.7342,-120.5111 122.7818,-118.7853 119,-117 95.6632,-105.9828 70.4207,-89.7926 55.2915,-79.5787"/>
<polygon fill="#191970" stroke="#191970" points="129.595,-125.4697 140.1821,-125.8754 132.1588,-118.9561 129.595,-125.4697"/>
</g>
<!-- Node4&#45;&gt;Node3 -->
<g id="edge4" class="edge">
<title>Node4&#45;&gt;Node3</title>
<path fill="none" stroke="#191970" d="M122.9183,-82.2685C109.4181,-80.2342 95.5287,-78.1413 83.1301,-76.273"/>
<polygon fill="#191970" stroke="#191970" points="122.7251,-85.7788 133.135,-83.808 123.7682,-78.857 122.7251,-85.7788"/>
</g>
<!-- Node5&#45;&gt;Node3 -->
<g id="edge6" class="edge">
<title>Node5&#45;&gt;Node3</title>
<path fill="none" stroke="#191970" d="M114.177,-59.0487C103.5791,-60.6456 92.9904,-62.2412 83.3041,-63.7007"/>
<polygon fill="#191970" stroke="#191970" points="114.9446,-62.4726 124.3114,-57.5216 113.9015,-55.5507 114.9446,-62.4726"/>
</g>
<!-- Node6&#45;&gt;Node3 -->
<g id="edge8" class="edge">
<title>Node6&#45;&gt;Node3</title>
<path fill="none" stroke="#191970" d="M137.6332,-22.4659C131.2917,-24.4489 124.9452,-26.6352 119,-29 96.6528,-37.8892 72.3691,-51.4235 57.0517,-60.4831"/>
<polygon fill="#191970" stroke="#191970" points="138.9486,-25.7263 147.5359,-19.5207 136.953,-19.0168 138.9486,-25.7263"/>
</g>
</g>
</svg>
