<?xml version="1.0" encoding="UTF-8" standalone="no"?>
<!DOCTYPE svg PUBLIC "-//W3C//DTD SVG 1.1//EN"
 "http://www.w3.org/Graphics/SVG/1.1/DTD/svg11.dtd">
<!-- Generated by graphviz version 2.40.1 (20161225.0304)
 -->
<!-- Title: paint_pixel Pages: 1 -->
<!--zoomable 344 -->
<svg id="main" version="1.1" xmlns="http://www.w3.org/2000/svg" xmlns:xlink="http://www.w3.org/1999/xlink" xml:space="preserve" onload="init(evt)">
<style type="text/css"><![CDATA[
.edge:hover path { stroke: red; }
.edge:hover polygon { stroke: red; fill: red; }
]]></style>
<script type="text/javascript"><![CDATA[
var edges = document.getElementsByTagName('g');
if (edges && edges.length) {
  for (var i=0;i<edges.length;i++) {
    if (edges[i].id.substr(0,4)=='edge') {
      edges[i].setAttribute('class','edge');
    }
  }
}
]]></script>
        <defs>
                <circle id="rim" cx="0" cy="0" r="7"/>
                <circle id="rim2" cx="0" cy="0" r="3.5"/>
                <g id="zoomPlus">
                        <use xlink:href="#rim" fill="#404040">
                                <set attributeName="fill" to="#808080" begin="zoomplus.mouseover" end="zoomplus.mouseout"/>
                        </use>
                        <path d="M-4,0h8M0,-4v8" fill="none" stroke="white" stroke-width="1.5" pointer-events="none"/>
                </g>
                <g id="zoomMin">
                        <use xlink:href="#rim" fill="#404040">
                                <set attributeName="fill" to="#808080" begin="zoomminus.mouseover" end="zoomminus.mouseout"/>
                        </use>
                        <path d="M-4,0h8" fill="none" stroke="white" stroke-width="1.5" pointer-events="none"/>
                </g>
                <g id="dirArrow">
                        <path fill="none" stroke="white" stroke-width="1.5" d="M0,-3.0v7 M-2.5,-0.5L0,-3.0L2.5,-0.5"/>
                </g>
               <g id="resetDef">
                       <use xlink:href="#rim2" fill="#404040">
                               <set attributeName="fill" to="#808080" begin="reset.mouseover" end="reset.mouseout"/>
                       </use>
               </g>
        </defs>

<script type="text/javascript">
var viewWidth = 900;
var viewHeight = 344;
var sectionId = 'dynsection-16';
</script>
<script xlink:href="../../svgpan.js"/>
<svg id="graph" class="graph">
<g id="viewport">
<title>paint_pixel</title>
<!-- Node1 -->
<g id="node1" class="node">
<title>Node1</title>
<g id="a_node1"><a xlink:title="Paints a pixel in coordinates ( x , y ) with colour.">
<polygon fill="#bfbfbf" stroke="#000000" points="829,-228.5 829,-247.5 892,-247.5 892,-228.5 829,-228.5"/>
<text text-anchor="middle" x="860.5" y="-235.5" font-family="Helvetica" font-size="10.00" fill="#000000">paint_pixel</text>
</a>
</g>
</g>
<!-- Node2 -->
<g id="node2" class="node">
<title>Node2</title>
<g id="a_node2"><a xlink:href="../../d7/d04/graphics_8h.html#ac057f434904c38cc92e73cb8c9886e1c" target="_top" xlink:title="Fills an area of the screen.">
<polygon fill="none" stroke="#000000" points="444.5,-304.5 444.5,-323.5 506.5,-323.5 506.5,-304.5 444.5,-304.5"/>
<text text-anchor="middle" x="475.5" y="-311.5" font-family="Helvetica" font-size="10.00" fill="#000000">paint_area</text>
</a>
</g>
</g>
<!-- Node1&#45;&gt;Node2 -->
<g id="edge1" class="edge">
<title>Node1&#45;&gt;Node2</title>
<path fill="none" stroke="#191970" d="M825.7277,-251.1161C792.5973,-263.086 741.0802,-280.3387 695,-290 628.779,-303.8841 549.5322,-310.0316 506.6988,-312.5108"/>
<polygon fill="#191970" stroke="#191970" points="827.2011,-254.3041 835.3929,-247.5851 824.799,-247.7291 827.2011,-254.3041"/>
</g>
<!-- Node8 -->
<g id="node8" class="node">
<title>Node8</title>
<g id="a_node8"><a xlink:href="../../d7/d04/graphics_8h.html#a9fe85f8e4faafdc3f419f01067ecfabe" target="_top" xlink:title="Paints a XPM file in the screen at coordinates ( start_x , start_y )">
<polygon fill="none" stroke="#000000" points="731,-152.5 731,-171.5 793,-171.5 793,-152.5 731,-152.5"/>
<text text-anchor="middle" x="762" y="-159.5" font-family="Helvetica" font-size="10.00" fill="#000000">paint_xpm</text>
</a>
</g>
</g>
<!-- Node1&#45;&gt;Node8 -->
<g id="edge9" class="edge">
<title>Node1&#45;&gt;Node8</title>
<path fill="none" stroke="#191970" d="M839.9292,-222.1281C820.1251,-206.8478 790.8258,-184.2412 774.3738,-171.5473"/>
<polygon fill="#191970" stroke="#191970" points="837.9695,-225.0368 848.0249,-228.3745 842.2457,-219.4947 837.9695,-225.0368"/>
</g>
<!-- Node3 -->
<g id="node3" class="node">
<title>Node3</title>
<g id="a_node3"><a xlink:href="../../d7/d04/graphics_8h.html#ae495df15c9dad2e1d052e15c6526423e" target="_top" xlink:title="Generates a new background (including UI background)">
<polygon fill="none" stroke="#000000" points="278,-316.5 278,-335.5 377,-335.5 377,-316.5 278,-316.5"/>
<text text-anchor="middle" x="327.5" y="-323.5" font-family="Helvetica" font-size="10.00" fill="#000000">create_background</text>
</a>
</g>
</g>
<!-- Node2&#45;&gt;Node3 -->
<g id="edge2" class="edge">
<title>Node2&#45;&gt;Node3</title>
<path fill="none" stroke="#191970" d="M434.4288,-317.3301C416.6731,-318.7697 395.7403,-320.467 377.1244,-321.9764"/>
<polygon fill="#191970" stroke="#191970" points="434.7899,-320.8124 444.4744,-316.5156 434.2242,-313.8353 434.7899,-320.8124"/>
</g>
<!-- Node7 -->
<g id="node7" class="node">
<title>Node7</title>
<g id="a_node7"><a xlink:href="../../dd/d65/game__helper_8h.html#ac2e814f8670e374692b399122563067d" target="_top" xlink:title="Performs all game logic and displaying that occurs every frame depending on the game state.">
<polygon fill="none" stroke="#000000" points="138.5,-152.5 138.5,-171.5 209.5,-171.5 209.5,-152.5 138.5,-152.5"/>
<text text-anchor="middle" x="174" y="-159.5" font-family="Helvetica" font-size="10.00" fill="#000000">on_timer_int</text>
</a>
</g>
</g>
<!-- Node2&#45;&gt;Node7 -->
<g id="edge7" class="edge">
<title>Node2&#45;&gt;Node7</title>
<path fill="none" stroke="#191970" d="M434.3295,-308.4121C381.4476,-300.6906 293.125,-285.7948 265,-269 223.1257,-243.9949 191.138,-192.7526 179.1471,-171.5307"/>
<polygon fill="#191970" stroke="#191970" points="434.009,-311.9019 444.4051,-309.8592 435.0042,-304.973 434.009,-311.9019"/>
</g>
<!-- Node4 -->
<g id="node4" class="node">
<title>Node4</title>
<g id="a_node4"><a xlink:href="../../dd/d65/game__helper_8h.html#a72c30bee155342f972c892a5a8d4a175" target="_top" xlink:title="Processes the input that comes from the mouse and executes the associated logic.">
<polygon fill="none" stroke="#000000" points="119,-278.5 119,-297.5 229,-297.5 229,-278.5 119,-278.5"/>
<text text-anchor="middle" x="174" y="-285.5" font-family="Helvetica" font-size="10.00" fill="#000000">process_mouse_input</text>
</a>
</g>
</g>
<!-- Node3&#45;&gt;Node4 -->
<g id="edge3" class="edge">
<title>Node3&#45;&gt;Node4</title>
<path fill="none" stroke="#191970" d="M278.8648,-313.96C257.4201,-308.6512 232.5774,-302.5012 212.456,-297.5201"/>
<polygon fill="#191970" stroke="#191970" points="278.2174,-317.4053 288.7655,-316.411 279.8996,-310.6104 278.2174,-317.4053"/>
</g>
<!-- Node6 -->
<g id="node6" class="node">
<title>Node6</title>
<g id="a_node6"><a xlink:href="../../dd/d65/game__helper_8h.html#a03d9f7e90ecc6a670f43c0510bf272c0" target="_top" xlink:title="Processes the incoming packet from the UART (COM1) and executes the associated logic.">
<polygon fill="none" stroke="#000000" points="121,-316.5 121,-335.5 227,-335.5 227,-316.5 121,-316.5"/>
<text text-anchor="middle" x="174" y="-323.5" font-family="Helvetica" font-size="10.00" fill="#000000">process_uart_packet</text>
</a>
</g>
</g>
<!-- Node3&#45;&gt;Node6 -->
<g id="edge5" class="edge">
<title>Node3&#45;&gt;Node6</title>
<path fill="none" stroke="#191970" d="M267.5963,-326C254.2112,-326 240.1071,-326 227.0233,-326"/>
<polygon fill="#191970" stroke="#191970" points="267.663,-329.5001 277.6629,-326 267.6629,-322.5001 267.663,-329.5001"/>
</g>
<!-- Node5 -->
<g id="node5" class="node">
<title>Node5</title>
<g id="a_node5"><a xlink:href="../../df/def/_l_c_o_m_8c.html#a2a16f651eccbd248e1ad3b3b924b143b" target="_top" xlink:title=" ">
<polygon fill="none" stroke="#000000" points="0,-278.5 0,-297.5 83,-297.5 83,-278.5 0,-278.5"/>
<text text-anchor="middle" x="41.5" y="-285.5" font-family="Helvetica" font-size="10.00" fill="#000000">proj_main_loop</text>
</a>
</g>
</g>
<!-- Node4&#45;&gt;Node5 -->
<g id="edge4" class="edge">
<title>Node4&#45;&gt;Node5</title>
<path fill="none" stroke="#191970" d="M108.7976,-288C100.1014,-288 91.3811,-288 83.2363,-288"/>
<polygon fill="#191970" stroke="#191970" points="108.9592,-291.5001 118.9592,-288 108.9591,-284.5001 108.9592,-291.5001"/>
</g>
<!-- Node6&#45;&gt;Node5 -->
<g id="edge6" class="edge">
<title>Node6&#45;&gt;Node5</title>
<path fill="none" stroke="#191970" d="M130.7961,-313.6094C112.6508,-308.4055 91.8706,-302.4459 74.9246,-297.5859"/>
<polygon fill="#191970" stroke="#191970" points="129.9873,-317.0185 140.5647,-316.411 131.9171,-310.2898 129.9873,-317.0185"/>
</g>
<!-- Node7&#45;&gt;Node5 -->
<g id="edge8" class="edge">
<title>Node7&#45;&gt;Node5</title>
<path fill="none" stroke="#191970" d="M156.0734,-179.0472C127.9488,-205.792 74.3479,-256.7635 51.8488,-278.1589"/>
<polygon fill="#191970" stroke="#191970" points="158.7682,-181.3144 163.6029,-171.887 153.9445,-176.2418 158.7682,-181.3144"/>
</g>
<!-- Node8&#45;&gt;Node3 -->
<g id="edge14" class="edge">
<title>Node8&#45;&gt;Node3</title>
<path fill="none" stroke="#191970" d="M749.1691,-180.1393C737.0122,-195.9597 717.3281,-218.3093 695,-231 588.1589,-291.7256 544.4653,-262.3105 426,-295 402.324,-301.5332 375.7791,-309.952 356.2165,-316.3671"/>
<polygon fill="#191970" stroke="#191970" points="752.2798,-181.82 755.4202,-171.7013 746.6551,-177.6531 752.2798,-181.82"/>
</g>
<!-- Node8&#45;&gt;Node7 -->
<g id="edge15" class="edge">
<title>Node8&#45;&gt;Node7</title>
<path fill="none" stroke="#191970" d="M754.9976,-143.0697C745.4015,-120.2403 725.7651,-82.9492 695,-67 624.1465,-30.2682 345.3217,-71.4572 265,-101 232.6904,-112.8837 200.5783,-138.4566 184.5358,-152.4207"/>
<polygon fill="#191970" stroke="#191970" points="751.7631,-144.408 758.7041,-152.4126 758.2698,-141.8267 751.7631,-144.408"/>
</g>
<!-- Node9 -->
<g id="node9" class="node">
<title>Node9</title>
<g id="a_node9"><a xlink:href="../../d3/d62/player_8h.html#a909f31d95b754c4e0200dab6f3246d41" target="_top" xlink:title="Animates the spearman&#39;s special attack.">
<polygon fill="none" stroke="#000000" points="561,-.5 561,-19.5 695,-19.5 695,-.5 561,-.5"/>
<text text-anchor="middle" x="628" y="-7.5" font-family="Helvetica" font-size="10.00" fill="#000000">animate_spearman_special</text>
</a>
</g>
</g>
<!-- Node8&#45;&gt;Node9 -->
<g id="edge10" class="edge">
<title>Node8&#45;&gt;Node9</title>
<path fill="none" stroke="#191970" d="M756.8081,-142.7358C748.3632,-114.9354 729.0713,-63.6589 695,-34 687.8241,-27.7534 678.9035,-23.0933 669.9369,-19.6303"/>
<polygon fill="#191970" stroke="#191970" points="753.4776,-143.8184 759.607,-152.4602 760.2045,-141.8823 753.4776,-143.8184"/>
</g>
<!-- Node12 -->
<g id="node12" class="node">
<title>Node12</title>
<g id="a_node12"><a xlink:href="../../d7/d04/graphics_8h.html#a9bd4de8619e4f311211cf1a97aee2464" target="_top" xlink:title="Prints the lateral walls of the game board.">
<polygon fill="none" stroke="#000000" points="265,-229 265,-259 390,-259 390,-229 265,-229"/>
<text text-anchor="start" x="273" y="-247" font-family="Helvetica" font-size="10.00" fill="#000000">paint_background_lateral</text>
<text text-anchor="middle" x="327.5" y="-236" font-family="Helvetica" font-size="10.00" fill="#000000">_walls</text>
</a>
</g>
</g>
<!-- Node8&#45;&gt;Node12 -->
<g id="edge16" class="edge">
<title>Node8&#45;&gt;Node12</title>
<path fill="none" stroke="#191970" d="M741.0422,-177.6836C728.3734,-186.3292 711.5234,-196.414 695,-202 592.0368,-236.8087 464.5853,-243.9491 390.0304,-244.7913"/>
<polygon fill="#191970" stroke="#191970" points="743.3201,-180.3595 749.4635,-171.7276 739.2781,-174.6444 743.3201,-180.3595"/>
</g>
<!-- Node13 -->
<g id="node13" class="node">
<title>Node13</title>
<g id="a_node13"><a xlink:href="../../d7/d04/graphics_8h.html#a9aa917ce9e83c51b0b3d230345c4cefd" target="_top" xlink:title="Paints the Cursor.">
<polygon fill="none" stroke="#000000" points="440.5,-114.5 440.5,-133.5 510.5,-133.5 510.5,-114.5 440.5,-114.5"/>
<text text-anchor="middle" x="475.5" y="-121.5" font-family="Helvetica" font-size="10.00" fill="#000000">paint_cursor</text>
</a>
</g>
</g>
<!-- Node8&#45;&gt;Node13 -->
<g id="edge18" class="edge">
<title>Node8&#45;&gt;Node13</title>
<path fill="none" stroke="#191970" d="M723.2679,-149.6681C714.08,-147.1193 704.2575,-144.6974 695,-143 630.6647,-131.2041 554.3403,-126.6893 510.7488,-124.9917"/>
<polygon fill="#191970" stroke="#191970" points="722.3537,-153.047 732.932,-152.4555 724.2936,-146.3212 722.3537,-153.047"/>
</g>
<!-- Node14 -->
<g id="node14" class="node">
<title>Node14</title>
<g id="a_node14"><a xlink:href="../../d7/d04/graphics_8h.html#ab65f3f5dea52f13a56190f2bdaef5d63" target="_top" xlink:title="Paints the entities of the game (playes, monsters, etc)">
<polygon fill="none" stroke="#000000" points="598.5,-76.5 598.5,-95.5 657.5,-95.5 657.5,-76.5 598.5,-76.5"/>
<text text-anchor="middle" x="628" y="-83.5" font-family="Helvetica" font-size="10.00" fill="#000000">paint_grid</text>
</a>
</g>
</g>
<!-- Node8&#45;&gt;Node14 -->
<g id="edge20" class="edge">
<title>Node8&#45;&gt;Node14</title>
<path fill="none" stroke="#191970" d="M744.1765,-145.6236C731.2711,-134.4265 713.0001,-119.8801 695,-110 683.3022,-103.5792 669.5498,-98.3045 657.5584,-94.3516"/>
<polygon fill="#191970" stroke="#191970" points="742.024,-148.393 751.8256,-152.4153 746.6717,-143.1585 742.024,-148.393"/>
</g>
<!-- Node15 -->
<g id="node15" class="node">
<title>Node15</title>
<g id="a_node15"><a xlink:href="../../d7/d04/graphics_8h.html#ace731048796b4c75099bc7fa87d00908" target="_top" xlink:title="Paints in the screen s.">
<polygon fill="none" stroke="#000000" points="598.5,-152.5 598.5,-171.5 657.5,-171.5 657.5,-152.5 598.5,-152.5"/>
<text text-anchor="middle" x="628" y="-159.5" font-family="Helvetica" font-size="10.00" fill="#000000">paint_text</text>
</a>
</g>
</g>
<!-- Node8&#45;&gt;Node15 -->
<g id="edge22" class="edge">
<title>Node8&#45;&gt;Node15</title>
<path fill="none" stroke="#191970" d="M720.9147,-162C700.4373,-162 676.1419,-162 657.5313,-162"/>
<polygon fill="#191970" stroke="#191970" points="720.9209,-165.5001 730.9209,-162 720.9209,-158.5001 720.9209,-165.5001"/>
</g>
<!-- Node16 -->
<g id="node16" class="node">
<title>Node16</title>
<g id="a_node16"><a xlink:href="../../d7/d04/graphics_8h.html#a3fc4a889f36484e2d8a9624cac61df58" target="_top" xlink:title="Paints the UI elements to the screen.">
<polygon fill="none" stroke="#000000" points="449,-190.5 449,-209.5 502,-209.5 502,-190.5 449,-190.5"/>
<text text-anchor="middle" x="475.5" y="-197.5" font-family="Helvetica" font-size="10.00" fill="#000000">paint_UI</text>
</a>
</g>
</g>
<!-- Node8&#45;&gt;Node16 -->
<g id="edge26" class="edge">
<title>Node8&#45;&gt;Node16</title>
<path fill="none" stroke="#191970" d="M723.2679,-174.3319C714.08,-176.8807 704.2575,-179.3026 695,-181 626.15,-193.6237 543.5691,-197.9085 502.0707,-199.3257"/>
<polygon fill="#191970" stroke="#191970" points="724.2936,-177.6788 732.932,-171.5445 722.3537,-170.953 724.2936,-177.6788"/>
</g>
<!-- Node10 -->
<g id="node10" class="node">
<title>Node10</title>
<g id="a_node10"><a xlink:href="../../d3/d62/player_8h.html#a21201934ad44d6ccf7beb9ae2278dda7" target="_top" xlink:title="Animates the spearman according to its action.">
<polygon fill="none" stroke="#000000" points="426,-.5 426,-19.5 525,-19.5 525,-.5 426,-.5"/>
<text text-anchor="middle" x="475.5" y="-7.5" font-family="Helvetica" font-size="10.00" fill="#000000">animate_spearman</text>
</a>
</g>
</g>
<!-- Node9&#45;&gt;Node10 -->
<g id="edge11" class="edge">
<title>Node9&#45;&gt;Node10</title>
<path fill="none" stroke="#191970" d="M550.5251,-10C541.8709,-10 533.2377,-10 525.0716,-10"/>
<polygon fill="#191970" stroke="#191970" points="550.6674,-13.5001 560.6674,-10 550.6673,-6.5001 550.6674,-13.5001"/>
</g>
<!-- Node11 -->
<g id="node11" class="node">
<title>Node11</title>
<g id="a_node11"><a xlink:href="../../dd/d5a/entities_8h.html#aeae621c58e08b754e9c212bee6d0f477" target="_top" xlink:title="Updates the animations of all Entities.">
<polygon fill="none" stroke="#000000" points="278.5,-.5 278.5,-19.5 376.5,-19.5 376.5,-.5 278.5,-.5"/>
<text text-anchor="middle" x="327.5" y="-7.5" font-family="Helvetica" font-size="10.00" fill="#000000">update_animations</text>
</a>
</g>
</g>
<!-- Node10&#45;&gt;Node11 -->
<g id="edge12" class="edge">
<title>Node10&#45;&gt;Node11</title>
<path fill="none" stroke="#191970" d="M415.5707,-10C402.608,-10 389.0472,-10 376.5594,-10"/>
<polygon fill="#191970" stroke="#191970" points="415.8065,-13.5001 425.8064,-10 415.8064,-6.5001 415.8065,-13.5001"/>
</g>
<!-- Node11&#45;&gt;Node7 -->
<g id="edge13" class="edge">
<title>Node11&#45;&gt;Node7</title>
<path fill="none" stroke="#191970" d="M282.2232,-23.6855C276.119,-26.5654 270.1834,-29.9796 265,-34 221.2642,-67.9227 189.6699,-128.5325 178.4625,-152.1747"/>
<polygon fill="#191970" stroke="#191970" points="284.0336,-26.7194 291.8704,-19.5895 281.2978,-20.2761 284.0336,-26.7194"/>
</g>
<!-- Node12&#45;&gt;Node7 -->
<g id="edge17" class="edge">
<title>Node12&#45;&gt;Node7</title>
<path fill="none" stroke="#191970" d="M285.5639,-224.3809C278.6519,-221.0015 271.5942,-217.461 265,-214 238.2545,-199.9625 207.9317,-182.2654 189.9166,-171.5571"/>
<polygon fill="#191970" stroke="#191970" points="284.3152,-227.6648 294.8417,-228.8667 287.3623,-221.3627 284.3152,-227.6648"/>
</g>
<!-- Node13&#45;&gt;Node7 -->
<g id="edge19" class="edge">
<title>Node13&#45;&gt;Node7</title>
<path fill="none" stroke="#191970" d="M430.3725,-128.6289C387.7051,-133.1277 321.9186,-140.3798 265,-148 246.7804,-150.4392 226.5664,-153.5121 209.8265,-156.1571"/>
<polygon fill="#191970" stroke="#191970" points="430.8567,-132.0974 440.4372,-127.5736 430.1267,-125.1356 430.8567,-132.0974"/>
</g>
<!-- Node14&#45;&gt;Node7 -->
<g id="edge21" class="edge">
<title>Node14&#45;&gt;Node7</title>
<path fill="none" stroke="#191970" d="M588.1715,-87.3407C520.7013,-90.3574 380.0417,-99.8781 265,-129 241.0516,-135.0624 214.6012,-145.0435 196.4187,-152.444"/>
<polygon fill="#191970" stroke="#191970" points="588.5132,-90.8295 598.3565,-86.9104 588.2177,-83.8358 588.5132,-90.8295"/>
</g>
<!-- Node15&#45;&gt;Node7 -->
<g id="edge23" class="edge">
<title>Node15&#45;&gt;Node7</title>
<path fill="none" stroke="#191970" d="M588.1634,-162C500.7516,-162 293.2829,-162 209.7549,-162"/>
<polygon fill="#191970" stroke="#191970" points="588.2118,-165.5001 598.2118,-162 588.2118,-158.5001 588.2118,-165.5001"/>
</g>
<!-- Node15&#45;&gt;Node16 -->
<g id="edge24" class="edge">
<title>Node15&#45;&gt;Node16</title>
<path fill="none" stroke="#191970" d="M588.2724,-171.8993C561.1415,-178.6598 525.9339,-187.4329 502.1302,-193.3643"/>
<polygon fill="#191970" stroke="#191970" points="589.3774,-175.2311 598.2344,-169.417 587.6849,-168.4388 589.3774,-175.2311"/>
</g>
<!-- Node16&#45;&gt;Node7 -->
<g id="edge25" class="edge">
<title>Node16&#45;&gt;Node7</title>
<path fill="none" stroke="#191970" d="M438.8335,-196.259C396.7916,-191.8676 325.8313,-184.144 265,-176 246.7804,-173.5608 226.5664,-170.4879 209.8265,-167.8429"/>
<polygon fill="#191970" stroke="#191970" points="438.5672,-199.7501 448.8753,-197.3019 439.2903,-192.7875 438.5672,-199.7501"/>
</g>
</g>
</svg>
        <g id="navigator" transform="translate(0 0)" fill="#404254">
                <rect fill="#f2f5e9" fill-opacity="0.5" stroke="#606060" stroke-width=".5" x="0" y="0" width="60" height="60"/>
                <use id="zoomplus" xlink:href="#zoomPlus" x="17" y="9" onmousedown="handleZoom(evt,'in')"/>
                <use id="zoomminus" xlink:href="#zoomMin" x="42" y="9" onmousedown="handleZoom(evt,'out')"/>
                <use id="reset" xlink:href="#resetDef" x="30" y="36" onmousedown="handleReset()"/>
                <g id="arrowUp" xlink:href="#dirArrow" transform="translate(30 24)" onmousedown="handlePan(0,-1)">
                  <use xlink:href="#rim" fill="#404040">
                        <set attributeName="fill" to="#808080" begin="arrowUp.mouseover" end="arrowUp.mouseout"/>
                  </use>
                  <path fill="none" stroke="white" stroke-width="1.5" d="M0,-3.0v7 M-2.5,-0.5L0,-3.0L2.5,-0.5"/>
                </g>
                <g id="arrowRight" xlink:href="#dirArrow" transform="rotate(90) translate(36 -43)" onmousedown="handlePan(1,0)">
                  <use xlink:href="#rim" fill="#404040">
                        <set attributeName="fill" to="#808080" begin="arrowRight.mouseover" end="arrowRight.mouseout"/>
                  </use>
                  <path fill="none" stroke="white" stroke-width="1.5" d="M0,-3.0v7 M-2.5,-0.5L0,-3.0L2.5,-0.5"/>
                </g>
                <g id="arrowDown" xlink:href="#dirArrow" transform="rotate(180) translate(-30 -48)" onmousedown="handlePan(0,1)">
                  <use xlink:href="#rim" fill="#404040">
                        <set attributeName="fill" to="#808080" begin="arrowDown.mouseover" end="arrowDown.mouseout"/>
                  </use>
                  <path fill="none" stroke="white" stroke-width="1.5" d="M0,-3.0v7 M-2.5,-0.5L0,-3.0L2.5,-0.5"/>
                </g>
                <g id="arrowLeft" xlink:href="#dirArrow" transform="rotate(270) translate(-36 17)" onmousedown="handlePan(-1,0)">
                  <use xlink:href="#rim" fill="#404040">
                        <set attributeName="fill" to="#808080" begin="arrowLeft.mouseover" end="arrowLeft.mouseout"/>
                  </use>
                  <path fill="none" stroke="white" stroke-width="1.5" d="M0,-3.0v7 M-2.5,-0.5L0,-3.0L2.5,-0.5"/>
                </g>
        </g>
        <svg viewBox="0 0 15 15" width="100%" height="30px" preserveAspectRatio="xMaxYMin meet">
         <g id="arrow_out" transform="scale(0.3 0.3)">
          <a xlink:href="graphics_8h_a544239b1e6886722a56199ee2fef7bc3_icgraph_org.svg" target="_base">
           <rect id="button" ry="5" rx="5" y="6" x="6" height="38" width="38"
                fill="#f2f5e9" fill-opacity="0.5" stroke="#606060" stroke-width="1.0"/>
           <path id="arrow"
             d="M 11.500037,31.436501 C 11.940474,20.09759 22.043105,11.32322 32.158766,21.979434 L 37.068811,17.246167 C 37.068811,17.246167 37.088388,32 37.088388,32 L 22.160133,31.978069 C 22.160133,31.978069 26.997745,27.140456 26.997745,27.140456 C 18.528582,18.264221 13.291696,25.230495 11.500037,31.436501 z"
             style="fill:#404040;"/>
          </a>
         </g>
        </svg>
</svg>
