<?xml version="1.0" encoding="UTF-8" standalone="no"?>
<!DOCTYPE svg PUBLIC "-//W3C//DTD SVG 1.1//EN"
 "http://www.w3.org/Graphics/SVG/1.1/DTD/svg11.dtd">
<!-- Generated by graphviz version 2.40.1 (20161225.0304)
 -->
<!-- Title: paint_background_lateral_walls Pages: 1 -->
<svg width="359pt" height="39pt"
 viewBox="0.00 0.00 359.00 39.00" xmlns="http://www.w3.org/2000/svg" xmlns:xlink="http://www.w3.org/1999/xlink">
<g id="graph0" class="graph" transform="scale(1 1) rotate(0) translate(4 35)">
<title>paint_background_lateral_walls</title>
<!-- Node1 -->
<g id="node1" class="node">
<title>Node1</title>
<g id="a_node1"><a xlink:title="Prints the lateral walls of the game board.">
<polygon fill="#bfbfbf" stroke="#000000" points="226,-.5 226,-30.5 351,-30.5 351,-.5 226,-.5"/>
<text text-anchor="start" x="234" y="-18.5" font-family="Helvetica" font-size="10.00" fill="#000000">paint_background_lateral</text>
<text text-anchor="middle" x="288.5" y="-7.5" font-family="Helvetica" font-size="10.00" fill="#000000">_walls</text>
</a>
</g>
</g>
<!-- Node2 -->
<g id="node2" class="node">
<title>Node2</title>
<g id="a_node2"><a xlink:href="../../dd/d65/game__helper_8h.html#ac2e814f8670e374692b399122563067d" target="_top" xlink:title="Performs all game logic and displaying that occurs every frame depending on the game state.">
<polygon fill="none" stroke="#000000" points="119,-6 119,-25 190,-25 190,-6 119,-6"/>
<text text-anchor="middle" x="154.5" y="-13" font-family="Helvetica" font-size="10.00" fill="#000000">on_timer_int</text>
</a>
</g>
</g>
<!-- Node1&#45;&gt;Node2 -->
<g id="edge1" class="edge">
<title>Node1&#45;&gt;Node2</title>
<path fill="none" stroke="#191970" d="M215.7484,-15.5C206.8531,-15.5 198.0939,-15.5 190.1044,-15.5"/>
<polygon fill="#191970" stroke="#191970" points="215.8157,-19.0001 225.8157,-15.5 215.8157,-12.0001 215.8157,-19.0001"/>
</g>
<!-- Node3 -->
<g id="node3" class="node">
<title>Node3</title>
<g id="a_node3"><a xlink:href="../../df/def/_l_c_o_m_8c.html#a2a16f651eccbd248e1ad3b3b924b143b" target="_top" xlink:title=" ">
<polygon fill="none" stroke="#000000" points="0,-6 0,-25 83,-25 83,-6 0,-6"/>
<text text-anchor="middle" x="41.5" y="-13" font-family="Helvetica" font-size="10.00" fill="#000000">proj_main_loop</text>
</a>
</g>
</g>
<!-- Node2&#45;&gt;Node3 -->
<g id="edge2" class="edge">
<title>Node2&#45;&gt;Node3</title>
<path fill="none" stroke="#191970" d="M108.7225,-15.5C100.3288,-15.5 91.6073,-15.5 83.3362,-15.5"/>
<polygon fill="#191970" stroke="#191970" points="108.7461,-19.0001 118.7461,-15.5 108.7461,-12.0001 108.7461,-19.0001"/>
</g>
</g>
</svg>
