<?xml version="1.0" encoding="UTF-8" standalone="no"?>
<!DOCTYPE svg PUBLIC "-//W3C//DTD SVG 1.1//EN"
 "http://www.w3.org/Graphics/SVG/1.1/DTD/svg11.dtd">
<!-- Generated by graphviz version 2.40.1 (20161225.0304)
 -->
<!-- Title: paint_area Pages: 1 -->
<svg width="470pt" height="104pt"
 viewBox="0.00 0.00 470.00 104.00" xmlns="http://www.w3.org/2000/svg" xmlns:xlink="http://www.w3.org/1999/xlink">
<g id="graph0" class="graph" transform="scale(1 1) rotate(0) translate(4 100)">
<title>paint_area</title>
<!-- Node1 -->
<g id="node1" class="node">
<title>Node1</title>
<g id="a_node1"><a xlink:title="Fills an area of the screen.">
<polygon fill="#bfbfbf" stroke="#000000" points="400,-19.5 400,-38.5 462,-38.5 462,-19.5 400,-19.5"/>
<text text-anchor="middle" x="431" y="-26.5" font-family="Helvetica" font-size="10.00" fill="#000000">paint_area</text>
</a>
</g>
</g>
<!-- Node2 -->
<g id="node2" class="node">
<title>Node2</title>
<g id="a_node2"><a xlink:href="../../d7/d04/graphics_8h.html#ae495df15c9dad2e1d052e15c6526423e" target="_top" xlink:title="Generates a new background (including UI background)">
<polygon fill="none" stroke="#000000" points="265,-38.5 265,-57.5 364,-57.5 364,-38.5 265,-38.5"/>
<text text-anchor="middle" x="314.5" y="-45.5" font-family="Helvetica" font-size="10.00" fill="#000000">create_background</text>
</a>
</g>
</g>
<!-- Node1&#45;&gt;Node2 -->
<g id="edge1" class="edge">
<title>Node1&#45;&gt;Node2</title>
<path fill="none" stroke="#191970" d="M389.6807,-35.7388C381.4553,-37.0802 372.7367,-38.5022 364.2629,-39.8842"/>
<polygon fill="#191970" stroke="#191970" points="390.4739,-39.1557 399.7801,-34.0917 389.3471,-32.247 390.4739,-39.1557"/>
</g>
<!-- Node6 -->
<g id="node6" class="node">
<title>Node6</title>
<g id="a_node6"><a xlink:href="../../dd/d65/game__helper_8h.html#ac2e814f8670e374692b399122563067d" target="_top" xlink:title="Performs all game logic and displaying that occurs every frame depending on the game state.">
<polygon fill="none" stroke="#000000" points="279,-.5 279,-19.5 350,-19.5 350,-.5 279,-.5"/>
<text text-anchor="middle" x="314.5" y="-7.5" font-family="Helvetica" font-size="10.00" fill="#000000">on_timer_int</text>
</a>
</g>
</g>
<!-- Node1&#45;&gt;Node6 -->
<g id="edge6" class="edge">
<title>Node1&#45;&gt;Node6</title>
<path fill="none" stroke="#191970" d="M389.7721,-22.2761C376.9004,-20.1769 362.8131,-17.8794 350.3424,-15.8455"/>
<polygon fill="#191970" stroke="#191970" points="389.3471,-25.753 399.7801,-23.9083 390.4739,-18.8443 389.3471,-25.753"/>
</g>
<!-- Node3 -->
<g id="node3" class="node">
<title>Node3</title>
<g id="a_node3"><a xlink:href="../../dd/d65/game__helper_8h.html#a72c30bee155342f972c892a5a8d4a175" target="_top" xlink:title="Processes the input that comes from the mouse and executes the associated logic.">
<polygon fill="none" stroke="#000000" points="119,-76.5 119,-95.5 229,-95.5 229,-76.5 119,-76.5"/>
<text text-anchor="middle" x="174" y="-83.5" font-family="Helvetica" font-size="10.00" fill="#000000">process_mouse_input</text>
</a>
</g>
</g>
<!-- Node2&#45;&gt;Node3 -->
<g id="edge2" class="edge">
<title>Node2&#45;&gt;Node3</title>
<path fill="none" stroke="#191970" d="M269.2213,-60.2462C249.8551,-65.484 227.5782,-71.5091 209.4427,-76.4141"/>
<polygon fill="#191970" stroke="#191970" points="270.3066,-63.5785 279.0459,-57.589 268.4789,-56.8213 270.3066,-63.5785"/>
</g>
<!-- Node5 -->
<g id="node5" class="node">
<title>Node5</title>
<g id="a_node5"><a xlink:href="../../dd/d65/game__helper_8h.html#a03d9f7e90ecc6a670f43c0510bf272c0" target="_top" xlink:title="Processes the incoming packet from the UART (COM1) and executes the associated logic.">
<polygon fill="none" stroke="#000000" points="121,-38.5 121,-57.5 227,-57.5 227,-38.5 121,-38.5"/>
<text text-anchor="middle" x="174" y="-45.5" font-family="Helvetica" font-size="10.00" fill="#000000">process_uart_packet</text>
</a>
</g>
</g>
<!-- Node2&#45;&gt;Node5 -->
<g id="edge4" class="edge">
<title>Node2&#45;&gt;Node5</title>
<path fill="none" stroke="#191970" d="M254.8138,-48C245.7017,-48 236.3468,-48 227.3816,-48"/>
<polygon fill="#191970" stroke="#191970" points="254.965,-51.5001 264.965,-48 254.9649,-44.5001 254.965,-51.5001"/>
</g>
<!-- Node4 -->
<g id="node4" class="node">
<title>Node4</title>
<g id="a_node4"><a xlink:href="../../df/def/_l_c_o_m_8c.html#a2a16f651eccbd248e1ad3b3b924b143b" target="_top" xlink:title=" ">
<polygon fill="none" stroke="#000000" points="0,-38.5 0,-57.5 83,-57.5 83,-38.5 0,-38.5"/>
<text text-anchor="middle" x="41.5" y="-45.5" font-family="Helvetica" font-size="10.00" fill="#000000">proj_main_loop</text>
</a>
</g>
</g>
<!-- Node3&#45;&gt;Node4 -->
<g id="edge3" class="edge">
<title>Node3&#45;&gt;Node4</title>
<path fill="none" stroke="#191970" d="M130.7961,-73.6094C112.6508,-68.4055 91.8706,-62.4459 74.9246,-57.5859"/>
<polygon fill="#191970" stroke="#191970" points="129.9873,-77.0185 140.5647,-76.411 131.9171,-70.2898 129.9873,-77.0185"/>
</g>
<!-- Node5&#45;&gt;Node4 -->
<g id="edge5" class="edge">
<title>Node5&#45;&gt;Node4</title>
<path fill="none" stroke="#191970" d="M110.7852,-48C101.4289,-48 91.9916,-48 83.2221,-48"/>
<polygon fill="#191970" stroke="#191970" points="110.8707,-51.5001 120.8706,-48 110.8706,-44.5001 110.8707,-51.5001"/>
</g>
<!-- Node6&#45;&gt;Node4 -->
<g id="edge7" class="edge">
<title>Node6&#45;&gt;Node4</title>
<path fill="none" stroke="#191970" d="M268.7986,-12.5801C229.0207,-15.2684 169.918,-20.3303 119,-29 104.797,-31.4183 89.3434,-35.0075 75.9994,-38.4171"/>
<polygon fill="#191970" stroke="#191970" points="269.2291,-16.0596 278.9798,-11.9154 268.773,-9.0744 269.2291,-16.0596"/>
</g>
</g>
</svg>
