<?xml version="1.0" encoding="UTF-8" standalone="no"?>
<!DOCTYPE svg PUBLIC "-//W3C//DTD SVG 1.1//EN"
 "http://www.w3.org/Graphics/SVG/1.1/DTD/svg11.dtd">
<!-- Generated by graphviz version 2.40.1 (20161225.0304)
 -->
<!-- Title: paint_UI Pages: 1 -->
<svg width="353pt" height="47pt"
 viewBox="0.00 0.00 353.00 47.00" xmlns="http://www.w3.org/2000/svg" xmlns:xlink="http://www.w3.org/1999/xlink">
<g id="graph0" class="graph" transform="scale(1 1) rotate(0) translate(4 43)">
<title>paint_UI</title>
<!-- Node1 -->
<g id="node1" class="node">
<title>Node1</title>
<g id="a_node1"><a xlink:title="Paints the UI elements to the screen.">
<polygon fill="#bfbfbf" stroke="#000000" points="0,-.5 0,-19.5 53,-19.5 53,-.5 0,-.5"/>
<text text-anchor="middle" x="26.5" y="-7.5" font-family="Helvetica" font-size="10.00" fill="#000000">paint_UI</text>
</a>
</g>
</g>
<!-- Node2 -->
<g id="node2" class="node">
<title>Node2</title>
<g id="a_node2"><a xlink:href="../../d5/d95/graphics_8c.html#ace731048796b4c75099bc7fa87d00908" target="_top" xlink:title="Paints in the screen s.">
<polygon fill="none" stroke="#000000" points="89,-19.5 89,-38.5 148,-38.5 148,-19.5 89,-19.5"/>
<text text-anchor="middle" x="118.5" y="-26.5" font-family="Helvetica" font-size="10.00" fill="#000000">paint_text</text>
</a>
</g>
</g>
<!-- Node1&#45;&gt;Node2 -->
<g id="edge1" class="edge">
<title>Node1&#45;&gt;Node2</title>
<path fill="none" stroke="#191970" d="M53.1102,-15.4956C61.1202,-17.1498 70.0904,-19.0024 78.7584,-20.7925"/>
<polygon fill="#191970" stroke="#191970" points="78.2183,-24.2547 88.7196,-22.8497 79.6342,-17.3994 78.2183,-24.2547"/>
</g>
<!-- Node3 -->
<g id="node3" class="node">
<title>Node3</title>
<g id="a_node3"><a xlink:href="../../d5/d95/graphics_8c.html#a6386a61a54c277c05a7ab9d5737edcd8" target="_top" xlink:title="Paints a XPM file in the screen at coordinates ( start_x , start_y )">
<polygon fill="none" stroke="#000000" points="184,-.5 184,-19.5 246,-19.5 246,-.5 184,-.5"/>
<text text-anchor="middle" x="215" y="-7.5" font-family="Helvetica" font-size="10.00" fill="#000000">paint_xpm</text>
</a>
</g>
</g>
<!-- Node1&#45;&gt;Node3 -->
<g id="edge4" class="edge">
<title>Node1&#45;&gt;Node3</title>
<path fill="none" stroke="#191970" d="M53.1076,-10C84.42,-10 136.7852,-10 173.4582,-10"/>
<polygon fill="#191970" stroke="#191970" points="173.8244,-13.5001 183.8243,-10 173.8243,-6.5001 173.8244,-13.5001"/>
</g>
<!-- Node2&#45;&gt;Node3 -->
<g id="edge2" class="edge">
<title>Node2&#45;&gt;Node3</title>
<path fill="none" stroke="#191970" d="M148.2406,-23.1443C156.3605,-21.5456 165.3048,-19.7845 173.9353,-18.0853"/>
<polygon fill="#191970" stroke="#191970" points="174.719,-21.4982 183.8545,-16.1323 173.3667,-14.6301 174.719,-21.4982"/>
</g>
<!-- Node4 -->
<g id="node4" class="node">
<title>Node4</title>
<g id="a_node4"><a xlink:href="../../d5/d95/graphics_8c.html#ac8c3ed74f805c5bccd091d94f5d72242" target="_top" xlink:title="Paints a pixel in coordinates ( x , y ) with colour.">
<polygon fill="none" stroke="#000000" points="282,-.5 282,-19.5 345,-19.5 345,-.5 282,-.5"/>
<text text-anchor="middle" x="313.5" y="-7.5" font-family="Helvetica" font-size="10.00" fill="#000000">paint_pixel</text>
</a>
</g>
</g>
<!-- Node3&#45;&gt;Node4 -->
<g id="edge3" class="edge">
<title>Node3&#45;&gt;Node4</title>
<path fill="none" stroke="#191970" d="M246.166,-10C254.2601,-10 263.111,-10 271.6574,-10"/>
<polygon fill="#191970" stroke="#191970" points="271.8597,-13.5001 281.8597,-10 271.8597,-6.5001 271.8597,-13.5001"/>
</g>
</g>
</svg>
