<?xml version="1.0" encoding="UTF-8" standalone="no"?>
<!DOCTYPE svg PUBLIC "-//W3C//DTD SVG 1.1//EN"
 "http://www.w3.org/Graphics/SVG/1.1/DTD/svg11.dtd">
<!-- Generated by graphviz version 2.40.1 (20161225.0304)
 -->
<!-- Title: paint_text Pages: 1 -->
<svg width="382pt" height="47pt"
 viewBox="0.00 0.00 382.00 47.00" xmlns="http://www.w3.org/2000/svg" xmlns:xlink="http://www.w3.org/1999/xlink">
<g id="graph0" class="graph" transform="scale(1 1) rotate(0) translate(4 43)">
<title>paint_text</title>
<!-- Node1 -->
<g id="node1" class="node">
<title>Node1</title>
<g id="a_node1"><a xlink:title="Paints in the screen s.">
<polygon fill="#bfbfbf" stroke="#000000" points="315,-19.5 315,-38.5 374,-38.5 374,-19.5 315,-19.5"/>
<text text-anchor="middle" x="344.5" y="-26.5" font-family="Helvetica" font-size="10.00" fill="#000000">paint_text</text>
</a>
</g>
</g>
<!-- Node2 -->
<g id="node2" class="node">
<title>Node2</title>
<g id="a_node2"><a xlink:href="../../dd/d65/game__helper_8h.html#ac2e814f8670e374692b399122563067d" target="_top" xlink:title="Performs all game logic and displaying that occurs every frame depending on the game state.">
<polygon fill="none" stroke="#000000" points="119,-19.5 119,-38.5 190,-38.5 190,-19.5 119,-19.5"/>
<text text-anchor="middle" x="154.5" y="-26.5" font-family="Helvetica" font-size="10.00" fill="#000000">on_timer_int</text>
</a>
</g>
</g>
<!-- Node1&#45;&gt;Node2 -->
<g id="edge1" class="edge">
<title>Node1&#45;&gt;Node2</title>
<path fill="none" stroke="#191970" d="M304.8035,-29C270.9593,-29 222.7475,-29 190.126,-29"/>
<polygon fill="#191970" stroke="#191970" points="304.8125,-32.5001 314.8125,-29 304.8125,-25.5001 304.8125,-32.5001"/>
</g>
<!-- Node4 -->
<g id="node4" class="node">
<title>Node4</title>
<g id="a_node4"><a xlink:href="../../d7/d04/graphics_8h.html#a3fc4a889f36484e2d8a9624cac61df58" target="_top" xlink:title="Paints the UI elements to the screen.">
<polygon fill="none" stroke="#000000" points="226,-.5 226,-19.5 279,-19.5 279,-.5 226,-.5"/>
<text text-anchor="middle" x="252.5" y="-7.5" font-family="Helvetica" font-size="10.00" fill="#000000">paint_UI</text>
</a>
</g>
</g>
<!-- Node1&#45;&gt;Node4 -->
<g id="edge3" class="edge">
<title>Node1&#45;&gt;Node4</title>
<path fill="none" stroke="#191970" d="M304.9282,-20.8276C296.2612,-19.0376 287.2836,-17.1836 279.2589,-15.5263"/>
<polygon fill="#191970" stroke="#191970" points="304.383,-24.2887 314.8842,-22.8837 305.7988,-17.4334 304.383,-24.2887"/>
</g>
<!-- Node3 -->
<g id="node3" class="node">
<title>Node3</title>
<g id="a_node3"><a xlink:href="../../df/def/_l_c_o_m_8c.html#a2a16f651eccbd248e1ad3b3b924b143b" target="_top" xlink:title=" ">
<polygon fill="none" stroke="#000000" points="0,-19.5 0,-38.5 83,-38.5 83,-19.5 0,-19.5"/>
<text text-anchor="middle" x="41.5" y="-26.5" font-family="Helvetica" font-size="10.00" fill="#000000">proj_main_loop</text>
</a>
</g>
</g>
<!-- Node2&#45;&gt;Node3 -->
<g id="edge2" class="edge">
<title>Node2&#45;&gt;Node3</title>
<path fill="none" stroke="#191970" d="M108.7225,-29C100.3288,-29 91.6073,-29 83.3362,-29"/>
<polygon fill="#191970" stroke="#191970" points="108.7461,-32.5001 118.7461,-29 108.7461,-25.5001 108.7461,-32.5001"/>
</g>
<!-- Node4&#45;&gt;Node2 -->
<g id="edge4" class="edge">
<title>Node4&#45;&gt;Node2</title>
<path fill="none" stroke="#191970" d="M216.0333,-17.0701C207.603,-18.7045 198.6421,-20.4418 190.2431,-22.0702"/>
<polygon fill="#191970" stroke="#191970" points="216.8288,-20.4811 225.9798,-15.1417 215.4964,-13.6091 216.8288,-20.4811"/>
</g>
</g>
</svg>
