<?xml version="1.0" encoding="UTF-8" standalone="no"?>
<!DOCTYPE svg PUBLIC "-//W3C//DTD SVG 1.1//EN"
 "http://www.w3.org/Graphics/SVG/1.1/DTD/svg11.dtd">
<!-- Generated by graphviz version 2.40.1 (20161225.0304)
 -->
<!-- Title: paint_background_lateral_walls Pages: 1 -->
<svg width="330pt" height="39pt"
 viewBox="0.00 0.00 330.00 39.00" xmlns="http://www.w3.org/2000/svg" xmlns:xlink="http://www.w3.org/1999/xlink">
<g id="graph0" class="graph" transform="scale(1 1) rotate(0) translate(4 35)">
<title>paint_background_lateral_walls</title>
<!-- Node1 -->
<g id="node1" class="node">
<title>Node1</title>
<g id="a_node1"><a xlink:title="Prints the lateral walls of the game board.">
<polygon fill="#bfbfbf" stroke="#000000" points="0,-.5 0,-30.5 125,-30.5 125,-.5 0,-.5"/>
<text text-anchor="start" x="8" y="-18.5" font-family="Helvetica" font-size="10.00" fill="#000000">paint_background_lateral</text>
<text text-anchor="middle" x="62.5" y="-7.5" font-family="Helvetica" font-size="10.00" fill="#000000">_walls</text>
</a>
</g>
</g>
<!-- Node2 -->
<g id="node2" class="node">
<title>Node2</title>
<g id="a_node2"><a xlink:href="../../d5/d95/graphics_8c.html#a6386a61a54c277c05a7ab9d5737edcd8" target="_top" xlink:title="Paints a XPM file in the screen at coordinates ( start_x , start_y )">
<polygon fill="none" stroke="#000000" points="161,-6 161,-25 223,-25 223,-6 161,-6"/>
<text text-anchor="middle" x="192" y="-13" font-family="Helvetica" font-size="10.00" fill="#000000">paint_xpm</text>
</a>
</g>
</g>
<!-- Node1&#45;&gt;Node2 -->
<g id="edge1" class="edge">
<title>Node1&#45;&gt;Node2</title>
<path fill="none" stroke="#191970" d="M125.3533,-15.5C133.9564,-15.5 142.6042,-15.5 150.6885,-15.5"/>
<polygon fill="#191970" stroke="#191970" points="150.9404,-19.0001 160.9403,-15.5 150.9403,-12.0001 150.9404,-19.0001"/>
</g>
<!-- Node3 -->
<g id="node3" class="node">
<title>Node3</title>
<g id="a_node3"><a xlink:href="../../d5/d95/graphics_8c.html#ac8c3ed74f805c5bccd091d94f5d72242" target="_top" xlink:title="Paints a pixel in coordinates ( x , y ) with colour.">
<polygon fill="none" stroke="#000000" points="259,-6 259,-25 322,-25 322,-6 259,-6"/>
<text text-anchor="middle" x="290.5" y="-13" font-family="Helvetica" font-size="10.00" fill="#000000">paint_pixel</text>
</a>
</g>
</g>
<!-- Node2&#45;&gt;Node3 -->
<g id="edge2" class="edge">
<title>Node2&#45;&gt;Node3</title>
<path fill="none" stroke="#191970" d="M223.166,-15.5C231.2601,-15.5 240.111,-15.5 248.6574,-15.5"/>
<polygon fill="#191970" stroke="#191970" points="248.8597,-19.0001 258.8597,-15.5 248.8597,-12.0001 248.8597,-19.0001"/>
</g>
</g>
</svg>
