<?xml version="1.0" encoding="UTF-8" standalone="no"?>
<!DOCTYPE svg PUBLIC "-//W3C//DTD SVG 1.1//EN"
 "http://www.w3.org/Graphics/SVG/1.1/DTD/svg11.dtd">
<!-- Generated by graphviz version 2.40.1 (20161225.0304)
 -->
<!-- Title: create_background Pages: 1 -->
<svg width="304pt" height="66pt"
 viewBox="0.00 0.00 304.00 66.00" xmlns="http://www.w3.org/2000/svg" xmlns:xlink="http://www.w3.org/1999/xlink">
<g id="graph0" class="graph" transform="scale(1 1) rotate(0) translate(4 62)">
<title>create_background</title>
<!-- Node1 -->
<g id="node1" class="node">
<title>Node1</title>
<g id="a_node1"><a xlink:title="Generates a new background (including UI background)">
<polygon fill="#bfbfbf" stroke="#000000" points="0,-19.5 0,-38.5 99,-38.5 99,-19.5 0,-19.5"/>
<text text-anchor="middle" x="49.5" y="-26.5" font-family="Helvetica" font-size="10.00" fill="#000000">create_background</text>
</a>
</g>
</g>
<!-- Node2 -->
<g id="node2" class="node">
<title>Node2</title>
<g id="a_node2"><a xlink:href="../../d5/d95/graphics_8c.html#ac057f434904c38cc92e73cb8c9886e1c" target="_top" xlink:title="Fills an area of the screen.">
<polygon fill="none" stroke="#000000" points="135,-38.5 135,-57.5 197,-57.5 197,-38.5 135,-38.5"/>
<text text-anchor="middle" x="166" y="-45.5" font-family="Helvetica" font-size="10.00" fill="#000000">paint_area</text>
</a>
</g>
</g>
<!-- Node1&#45;&gt;Node2 -->
<g id="edge1" class="edge">
<title>Node1&#45;&gt;Node2</title>
<path fill="none" stroke="#191970" d="M99.2444,-37.1128C107.862,-38.5183 116.7335,-39.9651 125.0823,-41.3267"/>
<polygon fill="#191970" stroke="#191970" points="124.5217,-44.7815 134.9547,-42.9368 125.6485,-37.8727 124.5217,-44.7815"/>
</g>
<!-- Node4 -->
<g id="node4" class="node">
<title>Node4</title>
<g id="a_node4"><a xlink:href="../../d5/d95/graphics_8c.html#a6386a61a54c277c05a7ab9d5737edcd8" target="_top" xlink:title="Paints a XPM file in the screen at coordinates ( start_x , start_y )">
<polygon fill="none" stroke="#000000" points="135,-.5 135,-19.5 197,-19.5 197,-.5 135,-.5"/>
<text text-anchor="middle" x="166" y="-7.5" font-family="Helvetica" font-size="10.00" fill="#000000">paint_xpm</text>
</a>
</g>
</g>
<!-- Node1&#45;&gt;Node4 -->
<g id="edge3" class="edge">
<title>Node1&#45;&gt;Node4</title>
<path fill="none" stroke="#191970" d="M99.2444,-20.8872C107.862,-19.4817 116.7335,-18.0349 125.0823,-16.6733"/>
<polygon fill="#191970" stroke="#191970" points="125.6485,-20.1273 134.9547,-15.0632 124.5217,-13.2185 125.6485,-20.1273"/>
</g>
<!-- Node3 -->
<g id="node3" class="node">
<title>Node3</title>
<g id="a_node3"><a xlink:href="../../d5/d95/graphics_8c.html#ac8c3ed74f805c5bccd091d94f5d72242" target="_top" xlink:title="Paints a pixel in coordinates ( x , y ) with colour.">
<polygon fill="none" stroke="#000000" points="233,-19.5 233,-38.5 296,-38.5 296,-19.5 233,-19.5"/>
<text text-anchor="middle" x="264.5" y="-26.5" font-family="Helvetica" font-size="10.00" fill="#000000">paint_pixel</text>
</a>
</g>
</g>
<!-- Node2&#45;&gt;Node3 -->
<g id="edge2" class="edge">
<title>Node2&#45;&gt;Node3</title>
<path fill="none" stroke="#191970" d="M197.166,-41.9883C205.3491,-40.4098 214.3057,-38.6822 222.939,-37.0168"/>
<polygon fill="#191970" stroke="#191970" points="223.7036,-40.434 232.8597,-35.1032 222.3778,-33.5607 223.7036,-40.434"/>
</g>
<!-- Node4&#45;&gt;Node3 -->
<g id="edge4" class="edge">
<title>Node4&#45;&gt;Node3</title>
<path fill="none" stroke="#191970" d="M197.166,-16.0117C205.3491,-17.5902 214.3057,-19.3178 222.939,-20.9832"/>
<polygon fill="#191970" stroke="#191970" points="222.3778,-24.4393 232.8597,-22.8968 223.7036,-17.566 222.3778,-24.4393"/>
</g>
</g>
</svg>
