<?xml version="1.0" encoding="UTF-8" standalone="no"?>
<!DOCTYPE svg PUBLIC "-//W3C//DTD SVG 1.1//EN"
 "http://www.w3.org/Graphics/SVG/1.1/DTD/svg11.dtd">
<!-- Generated by graphviz version 2.40.1 (20161225.0304)
 -->
<!-- Title: mouse_write_command Pages: 1 -->
<svg width="372pt" height="47pt"
 viewBox="0.00 0.00 372.00 47.00" xmlns="http://www.w3.org/2000/svg" xmlns:xlink="http://www.w3.org/1999/xlink">
<g id="graph0" class="graph" transform="scale(1 1) rotate(0) translate(4 43)">
<title>mouse_write_command</title>
<!-- Node1 -->
<g id="node1" class="node">
<title>Node1</title>
<g id="a_node1"><a xlink:title="Writes cmd to the mouse.">
<polygon fill="#bfbfbf" stroke="#000000" points="0,-.5 0,-19.5 119,-19.5 119,-.5 0,-.5"/>
<text text-anchor="middle" x="59.5" y="-7.5" font-family="Helvetica" font-size="10.00" fill="#000000">mouse_write_command</text>
</a>
</g>
</g>
<!-- Node2 -->
<g id="node2" class="node">
<title>Node2</title>
<g id="a_node2"><a xlink:href="../../db/d9f/mouse_8c.html#a79f822ee418bebe387c463fbb343106c" target="_top" xlink:title="Writes cmd to the KBC.">
<polygon fill="none" stroke="#000000" points="155,-19.5 155,-38.5 261,-38.5 261,-19.5 155,-19.5"/>
<text text-anchor="middle" x="208" y="-26.5" font-family="Helvetica" font-size="10.00" fill="#000000">kbc_write_command</text>
</a>
</g>
</g>
<!-- Node1&#45;&gt;Node2 -->
<g id="edge1" class="edge">
<title>Node1&#45;&gt;Node2</title>
<path fill="none" stroke="#191970" d="M119.045,-17.6185C127.4205,-18.6902 136.056,-19.795 144.5019,-20.8757"/>
<polygon fill="#191970" stroke="#191970" points="144.3164,-24.3804 154.6798,-22.1779 145.2049,-17.437 144.3164,-24.3804"/>
</g>
<!-- Node3 -->
<g id="node3" class="node">
<title>Node3</title>
<g id="a_node3"><a xlink:href="../../d3/d91/utils_8c.html#a79a031a8611f5b2d6afa4158e92b0fb4" target="_top" xlink:title="Gets from port 8 bit information to value.">
<polygon fill="none" stroke="#000000" points="297,-.5 297,-19.5 364,-19.5 364,-.5 297,-.5"/>
<text text-anchor="middle" x="330.5" y="-7.5" font-family="Helvetica" font-size="10.00" fill="#000000">util_sys_inb</text>
</a>
</g>
</g>
<!-- Node1&#45;&gt;Node3 -->
<g id="edge3" class="edge">
<title>Node1&#45;&gt;Node3</title>
<path fill="none" stroke="#191970" d="M119.3076,-10C169.9204,-10 241.2785,-10 286.7122,-10"/>
<polygon fill="#191970" stroke="#191970" points="286.8355,-13.5001 296.8354,-10 286.8354,-6.5001 286.8355,-13.5001"/>
</g>
<!-- Node2&#45;&gt;Node3 -->
<g id="edge2" class="edge">
<title>Node2&#45;&gt;Node3</title>
<path fill="none" stroke="#191970" d="M261.0178,-20.7768C269.6603,-19.4364 278.5255,-18.0613 286.9082,-16.7612"/>
<polygon fill="#191970" stroke="#191970" points="287.5012,-20.2111 296.8466,-15.2197 286.4283,-13.2938 287.5012,-20.2111"/>
</g>
</g>
</svg>
