<?xml version="1.0" encoding="UTF-8" standalone="no"?>
<!DOCTYPE svg PUBLIC "-//W3C//DTD SVG 1.1//EN"
 "http://www.w3.org/Graphics/SVG/1.1/DTD/svg11.dtd">
<!-- Generated by graphviz version 2.40.1 (20161225.0304)
 -->
<!-- Title: i8042.h Pages: 1 -->
<svg width="271pt" height="140pt"
 viewBox="0.00 0.00 271.00 140.00" xmlns="http://www.w3.org/2000/svg" xmlns:xlink="http://www.w3.org/1999/xlink">
<g id="graph0" class="graph" transform="scale(1 1) rotate(0) translate(4 136)">
<title>i8042.h</title>
<!-- Node1 -->
<g id="node1" class="node">
<title>Node1</title>
<g id="a_node1"><a xlink:title=" ">
<polygon fill="#bfbfbf" stroke="#000000" points="88,-112.5 88,-131.5 136,-131.5 136,-112.5 88,-112.5"/>
<text text-anchor="middle" x="112" y="-119.5" font-family="Helvetica" font-size="10.00" fill="#000000">i8042.h</text>
</a>
</g>
</g>
<!-- Node2 -->
<g id="node2" class="node">
<title>Node2</title>
<g id="a_node2"><a xlink:href="../../dc/da9/kbd_8c.html" target="_top" xlink:title=" ">
<polygon fill="none" stroke="#000000" points="0,-56.5 0,-75.5 40,-75.5 40,-56.5 0,-56.5"/>
<text text-anchor="middle" x="20" y="-63.5" font-family="Helvetica" font-size="10.00" fill="#000000">kbd.c</text>
</a>
</g>
</g>
<!-- Node1&#45;&gt;Node2 -->
<g id="edge1" class="edge">
<title>Node1&#45;&gt;Node2</title>
<path fill="none" stroke="#191970" d="M86.9776,-106.769C70.675,-96.8456 49.899,-84.1994 35.8415,-75.6427"/>
<polygon fill="#191970" stroke="#191970" points="85.613,-110.0357 95.9748,-112.2455 89.2527,-104.0563 85.613,-110.0357"/>
</g>
<!-- Node3 -->
<g id="node3" class="node">
<title>Node3</title>
<g id="a_node3"><a xlink:href="../../dc/ded/mouse_8h.html" target="_top" xlink:title=" ">
<polygon fill="none" stroke="#000000" points="58.5,-56.5 58.5,-75.5 111.5,-75.5 111.5,-56.5 58.5,-56.5"/>
<text text-anchor="middle" x="85" y="-63.5" font-family="Helvetica" font-size="10.00" fill="#000000">mouse.h</text>
</a>
</g>
</g>
<!-- Node1&#45;&gt;Node3 -->
<g id="edge2" class="edge">
<title>Node1&#45;&gt;Node3</title>
<path fill="none" stroke="#191970" d="M102.8604,-103.0437C98.4195,-93.8331 93.2735,-83.1598 89.6491,-75.6427"/>
<polygon fill="#191970" stroke="#191970" points="99.8012,-104.7579 107.297,-112.2455 106.1066,-101.7178 99.8012,-104.7579"/>
</g>
<!-- Node5 -->
<g id="node5" class="node">
<title>Node5</title>
<g id="a_node5"><a xlink:href="../../df/def/_l_c_o_m_8c.html" target="_top" xlink:title=" ">
<polygon fill="none" stroke="#000000" points="115,-.5 115,-19.5 165,-19.5 165,-.5 115,-.5"/>
<text text-anchor="middle" x="140" y="-7.5" font-family="Helvetica" font-size="10.00" fill="#000000">LCOM.c</text>
</a>
</g>
</g>
<!-- Node1&#45;&gt;Node5 -->
<g id="edge8" class="edge">
<title>Node1&#45;&gt;Node5</title>
<path fill="none" stroke="#191970" d="M116.8503,-102.5987C122.9093,-78.363 133.0362,-37.8551 137.6188,-19.5249"/>
<polygon fill="#191970" stroke="#191970" points="113.4172,-101.9006 114.3873,-112.4509 120.2082,-103.5984 113.4172,-101.9006"/>
</g>
<!-- Node6 -->
<g id="node6" class="node">
<title>Node6</title>
<g id="a_node6"><a xlink:href="../../dd/d65/game__helper_8h.html" target="_top" xlink:title=" ">
<polygon fill="none" stroke="#000000" points="168.5,-56.5 168.5,-75.5 249.5,-75.5 249.5,-56.5 168.5,-56.5"/>
<text text-anchor="middle" x="209" y="-63.5" font-family="Helvetica" font-size="10.00" fill="#000000">game_helper.h</text>
</a>
</g>
</g>
<!-- Node1&#45;&gt;Node6 -->
<g id="edge5" class="edge">
<title>Node1&#45;&gt;Node6</title>
<path fill="none" stroke="#191970" d="M137.9016,-107.0465C155.1609,-97.0824 177.3376,-84.2794 192.2975,-75.6427"/>
<polygon fill="#191970" stroke="#191970" points="135.8065,-104.2146 128.8961,-112.2455 139.3064,-110.2768 135.8065,-104.2146"/>
</g>
<!-- Node4 -->
<g id="node4" class="node">
<title>Node4</title>
<g id="a_node4"><a xlink:href="../../db/d9f/mouse_8c.html" target="_top" xlink:title=" ">
<polygon fill="none" stroke="#000000" points="43.5,-.5 43.5,-19.5 96.5,-19.5 96.5,-.5 43.5,-.5"/>
<text text-anchor="middle" x="70" y="-7.5" font-family="Helvetica" font-size="10.00" fill="#000000">mouse.c</text>
</a>
</g>
</g>
<!-- Node3&#45;&gt;Node4 -->
<g id="edge3" class="edge">
<title>Node3&#45;&gt;Node4</title>
<path fill="none" stroke="#191970" d="M79.7644,-46.4538C77.334,-37.3803 74.5535,-26.9998 72.5829,-19.6427"/>
<polygon fill="#191970" stroke="#191970" points="76.4189,-47.4917 82.3872,-56.2455 83.1806,-45.6805 76.4189,-47.4917"/>
</g>
<!-- Node3&#45;&gt;Node5 -->
<g id="edge4" class="edge">
<title>Node3&#45;&gt;Node5</title>
<path fill="none" stroke="#191970" d="M101.6226,-49.0751C111.0855,-39.4402 122.5969,-27.7196 130.5295,-19.6427"/>
<polygon fill="#191970" stroke="#191970" points="99.0903,-46.6585 94.5803,-56.2455 104.0845,-51.5635 99.0903,-46.6585"/>
</g>
<!-- Node6&#45;&gt;Node5 -->
<g id="edge7" class="edge">
<title>Node6&#45;&gt;Node5</title>
<path fill="none" stroke="#191970" d="M189.197,-49.928C177.1364,-40.1397 162.1286,-27.9595 151.8812,-19.6427"/>
<polygon fill="#191970" stroke="#191970" points="187.0109,-52.6614 196.9811,-56.2455 191.4221,-47.2262 187.0109,-52.6614"/>
</g>
<!-- Node7 -->
<g id="node7" class="node">
<title>Node7</title>
<g id="a_node7"><a xlink:href="../../d2/dba/game__helper_8c.html" target="_top" xlink:title=" ">
<polygon fill="none" stroke="#000000" points="183,-.5 183,-19.5 263,-19.5 263,-.5 183,-.5"/>
<text text-anchor="middle" x="223" y="-7.5" font-family="Helvetica" font-size="10.00" fill="#000000">game_helper.c</text>
</a>
</g>
</g>
<!-- Node6&#45;&gt;Node7 -->
<g id="edge6" class="edge">
<title>Node6&#45;&gt;Node7</title>
<path fill="none" stroke="#191970" d="M213.8865,-46.4538C216.1549,-37.3803 218.75,-26.9998 220.5893,-19.6427"/>
<polygon fill="#191970" stroke="#191970" points="210.4685,-45.6952 211.4386,-56.2455 217.2595,-47.393 210.4685,-45.6952"/>
</g>
</g>
</svg>
