<?xml version="1.0" encoding="UTF-8" standalone="no"?>
<!DOCTYPE svg PUBLIC "-//W3C//DTD SVG 1.1//EN"
 "http://www.w3.org/Graphics/SVG/1.1/DTD/svg11.dtd">
<!-- Generated by graphviz version 2.40.1 (20161225.0304)
 -->
<!-- Title: sprites/sprites.c Pages: 1 -->
<!--zoomable 308 -->
<svg id="main" version="1.1" xmlns="http://www.w3.org/2000/svg" xmlns:xlink="http://www.w3.org/1999/xlink" xml:space="preserve" onload="init(evt)">
<style type="text/css"><![CDATA[
.edge:hover path { stroke: red; }
.edge:hover polygon { stroke: red; fill: red; }
]]></style>
<script type="text/javascript"><![CDATA[
var edges = document.getElementsByTagName('g');
if (edges && edges.length) {
  for (var i=0;i<edges.length;i++) {
    if (edges[i].id.substr(0,4)=='edge') {
      edges[i].setAttribute('class','edge');
    }
  }
}
]]></script>
        <defs>
                <circle id="rim" cx="0" cy="0" r="7"/>
                <circle id="rim2" cx="0" cy="0" r="3.5"/>
                <g id="zoomPlus">
                        <use xlink:href="#rim" fill="#404040">
                                <set attributeName="fill" to="#808080" begin="zoomplus.mouseover" end="zoomplus.mouseout"/>
                        </use>
                        <path d="M-4,0h8M0,-4v8" fill="none" stroke="white" stroke-width="1.5" pointer-events="none"/>
                </g>
                <g id="zoomMin">
                        <use xlink:href="#rim" fill="#404040">
                                <set attributeName="fill" to="#808080" begin="zoomminus.mouseover" end="zoomminus.mouseout"/>
                        </use>
                        <path d="M-4,0h8" fill="none" stroke="white" stroke-width="1.5" pointer-events="none"/>
                </g>
                <g id="dirArrow">
                        <path fill="none" stroke="white" stroke-width="1.5" d="M0,-3.0v7 M-2.5,-0.5L0,-3.0L2.5,-0.5"/>
                </g>
               <g id="resetDef">
                       <use xlink:href="#rim2" fill="#404040">
                               <set attributeName="fill" to="#808080" begin="reset.mouseover" end="reset.mouseout"/>
                       </use>
               </g>
        </defs>

<script type="text/javascript">
var viewWidth = 614;
var viewHeight = 308;
var sectionId = 'dynsection-0';
</script>
<script xlink:href="../../svgpan.js"/>
<svg id="graph" class="graph">
<g id="viewport">
<title>sprites/sprites.c</title>
<!-- Node1 -->
<g id="node1" class="node">
<title>Node1</title>
<g id="a_node1"><a xlink:title=" ">
<polygon fill="#bfbfbf" stroke="#000000" points="201.5,-280.5 201.5,-299.5 286.5,-299.5 286.5,-280.5 201.5,-280.5"/>
<text text-anchor="middle" x="244" y="-287.5" font-family="Helvetica" font-size="10.00" fill="#000000">sprites/sprites.c</text>
</a>
</g>
</g>
<!-- Node2 -->
<g id="node2" class="node">
<title>Node2</title>
<g id="a_node2"><a xlink:title=" ">
<polygon fill="none" stroke="#bfbfbf" points="64.5,-.5 64.5,-19.5 123.5,-19.5 123.5,-.5 64.5,-.5"/>
<text text-anchor="middle" x="94" y="-7.5" font-family="Helvetica" font-size="10.00" fill="#000000">lcom/lcf.h</text>
</a>
</g>
</g>
<!-- Node1&#45;&gt;Node2 -->
<g id="edge1" class="edge">
<title>Node1&#45;&gt;Node2</title>
<path fill="none" stroke="#191970" d="M204.2541,-280.4751C135.1138,-262.7381 0,-222.3966 0,-178 0,-178 0,-178 0,-122 0,-79.1654 40.839,-44.139 68.6803,-25.2374"/>
<polygon fill="#191970" stroke="#191970" points="70.7353,-28.0756 77.1947,-19.6776 66.908,-22.2145 70.7353,-28.0756"/>
</g>
<!-- Node3 -->
<g id="node3" class="node">
<title>Node3</title>
<g id="a_node3"><a xlink:title=" ">
<polygon fill="none" stroke="#bfbfbf" points="156.5,-.5 156.5,-19.5 225.5,-19.5 225.5,-.5 156.5,-.5"/>
<text text-anchor="middle" x="191" y="-7.5" font-family="Helvetica" font-size="10.00" fill="#000000">lcom/liblm.h</text>
</a>
</g>
</g>
<!-- Node1&#45;&gt;Node3 -->
<g id="edge2" class="edge">
<title>Node1&#45;&gt;Node3</title>
<path fill="none" stroke="#191970" d="M244,-280.4116C244,-261.0538 244,-215.9167 244,-178 244,-178 244,-178 244,-122 244,-91.4754 238.5077,-83.3733 225,-56 219.9772,-45.8212 212.662,-35.562 206.1026,-27.3232"/>
<polygon fill="#191970" stroke="#191970" points="208.7434,-25.0246 199.6684,-19.5569 203.353,-29.4904 208.7434,-25.0246"/>
</g>
<!-- Node4 -->
<g id="node4" class="node">
<title>Node4</title>
<g id="a_node4"><a xlink:title=" ">
<polygon fill="none" stroke="#bfbfbf" points="247,-.5 247,-19.5 313,-19.5 313,-.5 247,-.5"/>
<text text-anchor="middle" x="280" y="-7.5" font-family="Helvetica" font-size="10.00" fill="#000000">lcom/proj.h</text>
</a>
</g>
</g>
<!-- Node1&#45;&gt;Node4 -->
<g id="edge3" class="edge">
<title>Node1&#45;&gt;Node4</title>
<path fill="none" stroke="#191970" d="M249.607,-280.4834C260.1774,-261.6141 282,-217.8343 282,-178 282,-178 282,-178 282,-122 282,-89.7064 281.1585,-52.1836 280.5672,-29.8029"/>
<polygon fill="#191970" stroke="#191970" points="284.0599,-29.4874 280.2866,-19.5873 277.0626,-29.6797 284.0599,-29.4874"/>
</g>
<!-- Node5 -->
<g id="node5" class="node">
<title>Node5</title>
<g id="a_node5"><a xlink:href="../../d3/def/sprites_8h.html" target="_top" xlink:title=" ">
<polygon fill="none" stroke="#000000" points="162.5,-56.5 162.5,-75.5 215.5,-75.5 215.5,-56.5 162.5,-56.5"/>
<text text-anchor="middle" x="189" y="-63.5" font-family="Helvetica" font-size="10.00" fill="#000000">sprites.h</text>
</a>
</g>
</g>
<!-- Node1&#45;&gt;Node5 -->
<g id="edge4" class="edge">
<title>Node1&#45;&gt;Node5</title>
<path fill="none" stroke="#191970" d="M240.798,-280.186C237.8232,-270.9111 233.3594,-256.5818 230,-244 214.7791,-186.993 200.0253,-118.824 193.1001,-85.8321"/>
<polygon fill="#191970" stroke="#191970" points="196.4562,-84.7807 190.9891,-75.7054 189.6035,-86.2092 196.4562,-84.7807"/>
</g>
<!-- Node6 -->
<g id="node6" class="node">
<title>Node6</title>
<g id="a_node6"><a xlink:href="../../d7/d04/graphics_8h.html" target="_top" xlink:title=" ">
<polygon fill="none" stroke="#000000" points="106.5,-224.5 106.5,-243.5 177.5,-243.5 177.5,-224.5 106.5,-224.5"/>
<text text-anchor="middle" x="142" y="-231.5" font-family="Helvetica" font-size="10.00" fill="#000000">../graphics.h</text>
</a>
</g>
</g>
<!-- Node1&#45;&gt;Node6 -->
<g id="edge8" class="edge">
<title>Node1&#45;&gt;Node6</title>
<path fill="none" stroke="#191970" d="M226.233,-280.2455C210.2905,-271.4928 186.6741,-258.527 168.5011,-248.5496"/>
<polygon fill="#191970" stroke="#191970" points="170.0137,-245.3873 159.5634,-243.6427 166.6448,-251.5233 170.0137,-245.3873"/>
</g>
<!-- Node10 -->
<g id="node10" class="node">
<title>Node10</title>
<g id="a_node10"><a xlink:title=" ">
<polygon fill="none" stroke="#bfbfbf" points="310,-224.5 310,-243.5 430,-243.5 430,-224.5 310,-224.5"/>
<text text-anchor="middle" x="370" y="-231.5" font-family="Helvetica" font-size="10.00" fill="#000000">xpm_files/background.h</text>
</a>
</g>
</g>
<!-- Node1&#45;&gt;Node10 -->
<g id="edge17" class="edge">
<title>Node1&#45;&gt;Node10</title>
<path fill="none" stroke="#191970" d="M265.6602,-280.3733C285.9772,-271.3435 316.564,-257.7494 339.375,-247.6111"/>
<polygon fill="#191970" stroke="#191970" points="340.9059,-250.7609 348.6225,-243.5011 338.0628,-244.3642 340.9059,-250.7609"/>
</g>
<!-- Node11 -->
<g id="node11" class="node">
<title>Node11</title>
<g id="a_node11"><a xlink:title=" ">
<polygon fill="none" stroke="#bfbfbf" points="448,-224.5 448,-243.5 606,-243.5 606,-224.5 448,-224.5"/>
<text text-anchor="middle" x="527" y="-231.5" font-family="Helvetica" font-size="10.00" fill="#000000">xpm_files/winning_background.h</text>
</a>
</g>
</g>
<!-- Node1&#45;&gt;Node11 -->
<g id="edge18" class="edge">
<title>Node1&#45;&gt;Node11</title>
<path fill="none" stroke="#191970" d="M286.6744,-281.5556C335.1252,-271.9682 414.4518,-256.271 468.6129,-245.5536"/>
<polygon fill="#191970" stroke="#191970" points="469.6258,-248.9211 478.7562,-243.5465 468.2669,-242.0543 469.6258,-248.9211"/>
</g>
<!-- Node5&#45;&gt;Node2 -->
<g id="edge5" class="edge">
<title>Node5&#45;&gt;Node2</title>
<path fill="none" stroke="#191970" d="M172.4523,-56.2455C157.7401,-47.5731 136.0112,-34.7645 119.1495,-24.825"/>
<polygon fill="#191970" stroke="#191970" points="120.7502,-21.7057 110.3581,-19.6427 117.1954,-27.736 120.7502,-21.7057"/>
</g>
<!-- Node5&#45;&gt;Node3 -->
<g id="edge6" class="edge">
<title>Node5&#45;&gt;Node3</title>
<path fill="none" stroke="#191970" d="M189.3484,-56.2455C189.6093,-48.9382 189.9752,-38.6944 190.2963,-29.7046"/>
<polygon fill="#191970" stroke="#191970" points="193.7964,-29.7613 190.6556,-19.6427 186.8008,-29.5113 193.7964,-29.7613"/>
</g>
<!-- Node5&#45;&gt;Node4 -->
<g id="edge7" class="edge">
<title>Node5&#45;&gt;Node4</title>
<path fill="none" stroke="#191970" d="M204.851,-56.2455C218.8132,-47.6534 239.3728,-35.0014 255.4596,-25.1018"/>
<polygon fill="#191970" stroke="#191970" points="257.6484,-27.8645 264.3307,-19.6427 253.9797,-21.9029 257.6484,-27.8645"/>
</g>
<!-- Node7 -->
<g id="node7" class="node">
<title>Node7</title>
<g id="a_node7"><a xlink:href="../../d3/d62/player_8h.html" target="_top" xlink:title=" ">
<polygon fill="none" stroke="#000000" points="119,-168.5 119,-187.5 171,-187.5 171,-168.5 119,-168.5"/>
<text text-anchor="middle" x="145" y="-175.5" font-family="Helvetica" font-size="10.00" fill="#000000">player.h</text>
</a>
</g>
</g>
<!-- Node6&#45;&gt;Node7 -->
<g id="edge9" class="edge">
<title>Node6&#45;&gt;Node7</title>
<path fill="none" stroke="#191970" d="M142.5226,-224.2455C142.914,-216.9382 143.4628,-206.6944 143.9444,-197.7046"/>
<polygon fill="#191970" stroke="#191970" points="147.4434,-197.8156 144.4834,-187.6427 140.4534,-197.4411 147.4434,-197.8156"/>
</g>
<!-- Node9 -->
<g id="node9" class="node">
<title>Node9</title>
<g id="a_node9"><a xlink:href="../../d6/d4f/enemies_8h.html" target="_top" xlink:title=" ">
<polygon fill="none" stroke="#000000" points="39.5,-168.5 39.5,-187.5 100.5,-187.5 100.5,-168.5 39.5,-168.5"/>
<text text-anchor="middle" x="70" y="-175.5" font-family="Helvetica" font-size="10.00" fill="#000000">enemies.h</text>
</a>
</g>
</g>
<!-- Node6&#45;&gt;Node9 -->
<g id="edge14" class="edge">
<title>Node6&#45;&gt;Node9</title>
<path fill="none" stroke="#191970" d="M129.4586,-224.2455C118.7213,-215.8943 103.0527,-203.7076 90.4953,-193.9408"/>
<polygon fill="#191970" stroke="#191970" points="92.4401,-191.0194 82.3977,-187.6427 88.1425,-196.5449 92.4401,-191.0194"/>
</g>
<!-- Node7&#45;&gt;Node2 -->
<g id="edge10" class="edge">
<title>Node7&#45;&gt;Node2</title>
<path fill="none" stroke="#191970" d="M143.4133,-168.4993C141.1594,-155.5835 136.6675,-131.821 131,-112 122.5769,-82.5418 109.9214,-49.3422 101.8117,-29.0465"/>
<polygon fill="#191970" stroke="#191970" points="105.025,-27.6565 98.0317,-19.6976 98.5354,-30.2804 105.025,-27.6565"/>
</g>
<!-- Node8 -->
<g id="node8" class="node">
<title>Node8</title>
<g id="a_node8"><a xlink:href="../../dd/d5a/entities_8h.html" target="_top" xlink:title=" ">
<polygon fill="none" stroke="#000000" points="66,-112.5 66,-131.5 122,-131.5 122,-112.5 66,-112.5"/>
<text text-anchor="middle" x="94" y="-119.5" font-family="Helvetica" font-size="10.00" fill="#000000">entities.h</text>
</a>
</g>
</g>
<!-- Node7&#45;&gt;Node8 -->
<g id="edge11" class="edge">
<title>Node7&#45;&gt;Node8</title>
<path fill="none" stroke="#191970" d="M136.1165,-168.2455C128.8034,-160.2155 118.2609,-148.6394 109.5533,-139.0781"/>
<polygon fill="#191970" stroke="#191970" points="112.1028,-136.6795 102.7817,-131.6427 106.9273,-141.3928 112.1028,-136.6795"/>
</g>
<!-- Node8&#45;&gt;Node2 -->
<g id="edge12" class="edge">
<title>Node8&#45;&gt;Node2</title>
<path fill="none" stroke="#191970" d="M94,-112.4509C94,-94.184 94,-53.9553 94,-29.6976"/>
<polygon fill="#191970" stroke="#191970" points="97.5001,-29.5249 94,-19.5249 90.5001,-29.5249 97.5001,-29.5249"/>
</g>
<!-- Node8&#45;&gt;Node5 -->
<g id="edge13" class="edge">
<title>Node8&#45;&gt;Node5</title>
<path fill="none" stroke="#191970" d="M110.5477,-112.2455C125.2599,-103.5731 146.9888,-90.7645 163.8505,-80.825"/>
<polygon fill="#191970" stroke="#191970" points="165.8046,-83.736 172.6419,-75.6427 162.2498,-77.7057 165.8046,-83.736"/>
</g>
<!-- Node9&#45;&gt;Node2 -->
<g id="edge15" class="edge">
<title>Node9&#45;&gt;Node2</title>
<path fill="none" stroke="#191970" d="M65.7703,-168.1835C60.7521,-155.3117 53.4822,-132.0138 57,-112 62.304,-81.8239 75.8038,-48.8185 84.9441,-28.7601"/>
<polygon fill="#191970" stroke="#191970" points="88.1927,-30.0755 89.26,-19.5345 81.8522,-27.1093 88.1927,-30.0755"/>
</g>
<!-- Node9&#45;&gt;Node8 -->
<g id="edge16" class="edge">
<title>Node9&#45;&gt;Node8</title>
<path fill="none" stroke="#191970" d="M74.1805,-168.2455C77.381,-160.7776 81.896,-150.2427 85.8084,-141.1137"/>
<polygon fill="#191970" stroke="#191970" points="89.1452,-142.2129 89.8674,-131.6427 82.7112,-139.4554 89.1452,-142.2129"/>
</g>
</g>
</svg>
        <g id="navigator" transform="translate(0 0)" fill="#404254">
                <rect fill="#f2f5e9" fill-opacity="0.5" stroke="#606060" stroke-width=".5" x="0" y="0" width="60" height="60"/>
                <use id="zoomplus" xlink:href="#zoomPlus" x="17" y="9" onmousedown="handleZoom(evt,'in')"/>
                <use id="zoomminus" xlink:href="#zoomMin" x="42" y="9" onmousedown="handleZoom(evt,'out')"/>
                <use id="reset" xlink:href="#resetDef" x="30" y="36" onmousedown="handleReset()"/>
                <g id="arrowUp" xlink:href="#dirArrow" transform="translate(30 24)" onmousedown="handlePan(0,-1)">
                  <use xlink:href="#rim" fill="#404040">
                        <set attributeName="fill" to="#808080" begin="arrowUp.mouseover" end="arrowUp.mouseout"/>
                  </use>
                  <path fill="none" stroke="white" stroke-width="1.5" d="M0,-3.0v7 M-2.5,-0.5L0,-3.0L2.5,-0.5"/>
                </g>
                <g id="arrowRight" xlink:href="#dirArrow" transform="rotate(90) translate(36 -43)" onmousedown="handlePan(1,0)">
                  <use xlink:href="#rim" fill="#404040">
                        <set attributeName="fill" to="#808080" begin="arrowRight.mouseover" end="arrowRight.mouseout"/>
                  </use>
                  <path fill="none" stroke="white" stroke-width="1.5" d="M0,-3.0v7 M-2.5,-0.5L0,-3.0L2.5,-0.5"/>
                </g>
                <g id="arrowDown" xlink:href="#dirArrow" transform="rotate(180) translate(-30 -48)" onmousedown="handlePan(0,1)">
                  <use xlink:href="#rim" fill="#404040">
                        <set attributeName="fill" to="#808080" begin="arrowDown.mouseover" end="arrowDown.mouseout"/>
                  </use>
                  <path fill="none" stroke="white" stroke-width="1.5" d="M0,-3.0v7 M-2.5,-0.5L0,-3.0L2.5,-0.5"/>
                </g>
                <g id="arrowLeft" xlink:href="#dirArrow" transform="rotate(270) translate(-36 17)" onmousedown="handlePan(-1,0)">
                  <use xlink:href="#rim" fill="#404040">
                        <set attributeName="fill" to="#808080" begin="arrowLeft.mouseover" end="arrowLeft.mouseout"/>
                  </use>
                  <path fill="none" stroke="white" stroke-width="1.5" d="M0,-3.0v7 M-2.5,-0.5L0,-3.0L2.5,-0.5"/>
                </g>
        </g>
        <svg viewBox="0 0 15 15" width="100%" height="30px" preserveAspectRatio="xMaxYMin meet">
         <g id="arrow_out" transform="scale(0.3 0.3)">
          <a xlink:href="sprites_8c__incl_org.svg" target="_base">
           <rect id="button" ry="5" rx="5" y="6" x="6" height="38" width="38"
                fill="#f2f5e9" fill-opacity="0.5" stroke="#606060" stroke-width="1.0"/>
           <path id="arrow"
             d="M 11.500037,31.436501 C 11.940474,20.09759 22.043105,11.32322 32.158766,21.979434 L 37.068811,17.246167 C 37.068811,17.246167 37.088388,32 37.088388,32 L 22.160133,31.978069 C 22.160133,31.978069 26.997745,27.140456 26.997745,27.140456 C 18.528582,18.264221 13.291696,25.230495 11.500037,31.436501 z"
             style="fill:#404040;"/>
          </a>
         </g>
        </svg>
</svg>
