<?xml version="1.0" encoding="UTF-8" standalone="no"?>
<!DOCTYPE svg PUBLIC "-//W3C//DTD SVG 1.1//EN"
 "http://www.w3.org/Graphics/SVG/1.1/DTD/svg11.dtd">
<!-- Generated by graphviz version 2.40.1 (20161225.0304)
 -->
<!-- Title: spearman_attack Pages: 1 -->
<svg width="438pt" height="28pt"
 viewBox="0.00 0.00 438.00 28.00" xmlns="http://www.w3.org/2000/svg" xmlns:xlink="http://www.w3.org/1999/xlink">
<g id="graph0" class="graph" transform="scale(1 1) rotate(0) translate(4 24)">
<title>spearman_attack</title>
<!-- Node1 -->
<g id="node1" class="node">
<title>Node1</title>
<g id="a_node1"><a xlink:title="The spearman attacks in its direction.">
<polygon fill="#bfbfbf" stroke="#000000" points="339,-.5 339,-19.5 430,-19.5 430,-.5 339,-.5"/>
<text text-anchor="middle" x="384.5" y="-7.5" font-family="Helvetica" font-size="10.00" fill="#000000">spearman_attack</text>
</a>
</g>
</g>
<!-- Node2 -->
<g id="node2" class="node">
<title>Node2</title>
<g id="a_node2"><a xlink:href="../../d3/d62/player_8h.html#a43024b59b971eee693bdf802580d046e" target="_top" xlink:title="The spearman acts acording to action in PA.">
<polygon fill="none" stroke="#000000" points="226,-.5 226,-19.5 303,-19.5 303,-.5 226,-.5"/>
<text text-anchor="middle" x="264.5" y="-7.5" font-family="Helvetica" font-size="10.00" fill="#000000">spearman_act</text>
</a>
</g>
</g>
<!-- Node1&#45;&gt;Node2 -->
<g id="edge1" class="edge">
<title>Node1&#45;&gt;Node2</title>
<path fill="none" stroke="#191970" d="M328.7016,-10C320.0236,-10 311.2279,-10 303.0453,-10"/>
<polygon fill="#191970" stroke="#191970" points="328.7909,-13.5001 338.7908,-10 328.7908,-6.5001 328.7909,-13.5001"/>
</g>
<!-- Node3 -->
<g id="node3" class="node">
<title>Node3</title>
<g id="a_node3"><a xlink:href="../../dd/d65/game__helper_8h.html#ac2e814f8670e374692b399122563067d" target="_top" xlink:title="Performs all game logic and displaying that occurs every frame depending on the game state.">
<polygon fill="none" stroke="#000000" points="119,-.5 119,-19.5 190,-19.5 190,-.5 119,-.5"/>
<text text-anchor="middle" x="154.5" y="-7.5" font-family="Helvetica" font-size="10.00" fill="#000000">on_timer_int</text>
</a>
</g>
</g>
<!-- Node2&#45;&gt;Node3 -->
<g id="edge2" class="edge">
<title>Node2&#45;&gt;Node3</title>
<path fill="none" stroke="#191970" d="M215.5354,-10C207.0638,-10 198.3988,-10 190.3576,-10"/>
<polygon fill="#191970" stroke="#191970" points="215.7181,-13.5001 225.7181,-10 215.7181,-6.5001 215.7181,-13.5001"/>
</g>
<!-- Node4 -->
<g id="node4" class="node">
<title>Node4</title>
<g id="a_node4"><a xlink:href="../../df/def/_l_c_o_m_8c.html#a2a16f651eccbd248e1ad3b3b924b143b" target="_top" xlink:title=" ">
<polygon fill="none" stroke="#000000" points="0,-.5 0,-19.5 83,-19.5 83,-.5 0,-.5"/>
<text text-anchor="middle" x="41.5" y="-7.5" font-family="Helvetica" font-size="10.00" fill="#000000">proj_main_loop</text>
</a>
</g>
</g>
<!-- Node3&#45;&gt;Node4 -->
<g id="edge3" class="edge">
<title>Node3&#45;&gt;Node4</title>
<path fill="none" stroke="#191970" d="M108.7225,-10C100.3288,-10 91.6073,-10 83.3362,-10"/>
<polygon fill="#191970" stroke="#191970" points="108.7461,-13.5001 118.7461,-10 108.7461,-6.5001 108.7461,-13.5001"/>
</g>
</g>
</svg>
