<?xml version="1.0" encoding="UTF-8" standalone="no"?>
<!DOCTYPE svg PUBLIC "-//W3C//DTD SVG 1.1//EN"
 "http://www.w3.org/Graphics/SVG/1.1/DTD/svg11.dtd">
<!-- Generated by graphviz version 2.40.1 (20161225.0304)
 -->
<!-- Title: animate_spearman Pages: 1 -->
<svg width="474pt" height="142pt"
 viewBox="0.00 0.00 474.00 142.00" xmlns="http://www.w3.org/2000/svg" xmlns:xlink="http://www.w3.org/1999/xlink">
<g id="graph0" class="graph" transform="scale(1 1) rotate(0) translate(4 138)">
<title>animate_spearman</title>
<!-- Node1 -->
<g id="node1" class="node">
<title>Node1</title>
<g id="a_node1"><a xlink:title="Animates the spearman according to its action.">
<polygon fill="#bfbfbf" stroke="#000000" points="0,-57.5 0,-76.5 99,-76.5 99,-57.5 0,-57.5"/>
<text text-anchor="middle" x="49.5" y="-64.5" font-family="Helvetica" font-size="10.00" fill="#000000">animate_spearman</text>
</a>
</g>
</g>
<!-- Node2 -->
<g id="node2" class="node">
<title>Node2</title>
<g id="a_node2"><a xlink:href="../../d1/db8/player_8c.html#a1ef2d92b05b9c22e1811bf09a80f1fc0" target="_top" xlink:title="Animates the spearman&#39;s attack.">
<polygon fill="none" stroke="#000000" points="136.5,-114.5 136.5,-133.5 267.5,-133.5 267.5,-114.5 136.5,-114.5"/>
<text text-anchor="middle" x="202" y="-121.5" font-family="Helvetica" font-size="10.00" fill="#000000">animate_spearman_attack</text>
</a>
</g>
</g>
<!-- Node1&#45;&gt;Node2 -->
<g id="edge1" class="edge">
<title>Node1&#45;&gt;Node2</title>
<path fill="none" stroke="#191970" d="M68.8725,-76.5583C85.9944,-84.776 111.7834,-96.5969 135,-105 141.4163,-107.3223 148.2599,-109.5442 155.0305,-111.5969"/>
<polygon fill="#191970" stroke="#191970" points="154.2588,-115.018 164.8398,-114.4755 156.2299,-108.3012 154.2588,-115.018"/>
</g>
<!-- Node3 -->
<g id="node3" class="node">
<title>Node3</title>
<g id="a_node3"><a xlink:href="../../d1/db8/player_8c.html#aeec69c660cc505f7ca09f29987131823" target="_top" xlink:title="Animates the spearman&#39;s directional move.">
<polygon fill="none" stroke="#000000" points="138,-76.5 138,-95.5 266,-95.5 266,-76.5 138,-76.5"/>
<text text-anchor="middle" x="202" y="-83.5" font-family="Helvetica" font-size="10.00" fill="#000000">animate_spearman_death</text>
</a>
</g>
</g>
<!-- Node1&#45;&gt;Node3 -->
<g id="edge2" class="edge">
<title>Node1&#45;&gt;Node3</title>
<path fill="none" stroke="#191970" d="M99.0124,-73.1688C108.1783,-74.3107 117.9344,-75.5263 127.6494,-76.7366"/>
<polygon fill="#191970" stroke="#191970" points="127.376,-80.2296 137.732,-77.9928 128.2415,-73.2833 127.376,-80.2296"/>
</g>
<!-- Node4 -->
<g id="node4" class="node">
<title>Node4</title>
<g id="a_node4"><a xlink:href="../../d1/db8/player_8c.html#afcbcbbf55587b8fad670ca62becea8d1" target="_top" xlink:title="Animates the spearman&#39;s directional move.">
<polygon fill="none" stroke="#000000" points="138,-38.5 138,-57.5 266,-57.5 266,-38.5 138,-38.5"/>
<text text-anchor="middle" x="202" y="-45.5" font-family="Helvetica" font-size="10.00" fill="#000000">animate_spearman_move</text>
</a>
</g>
</g>
<!-- Node1&#45;&gt;Node4 -->
<g id="edge3" class="edge">
<title>Node1&#45;&gt;Node4</title>
<path fill="none" stroke="#191970" d="M99.0124,-60.8312C108.1783,-59.6893 117.9344,-58.4737 127.6494,-57.2634"/>
<polygon fill="#191970" stroke="#191970" points="128.2415,-60.7167 137.732,-56.0072 127.376,-53.7704 128.2415,-60.7167"/>
</g>
<!-- Node5 -->
<g id="node5" class="node">
<title>Node5</title>
<g id="a_node5"><a xlink:href="../../d1/db8/player_8c.html#a909f31d95b754c4e0200dab6f3246d41" target="_top" xlink:title="Animates the spearman&#39;s special attack.">
<polygon fill="none" stroke="#000000" points="135,-.5 135,-19.5 269,-19.5 269,-.5 135,-.5"/>
<text text-anchor="middle" x="202" y="-7.5" font-family="Helvetica" font-size="10.00" fill="#000000">animate_spearman_special</text>
</a>
</g>
</g>
<!-- Node1&#45;&gt;Node5 -->
<g id="edge4" class="edge">
<title>Node1&#45;&gt;Node5</title>
<path fill="none" stroke="#191970" d="M68.8725,-57.4417C85.9944,-49.224 111.7834,-37.4031 135,-29 141.4163,-26.6777 148.2599,-24.4558 155.0305,-22.4031"/>
<polygon fill="#191970" stroke="#191970" points="156.2299,-25.6988 164.8398,-19.5245 154.2588,-18.982 156.2299,-25.6988"/>
</g>
<!-- Node6 -->
<g id="node6" class="node">
<title>Node6</title>
<g id="a_node6"><a xlink:href="../../d5/d95/graphics_8c.html#a6386a61a54c277c05a7ab9d5737edcd8" target="_top" xlink:title="Paints a XPM file in the screen at coordinates ( start_x , start_y )">
<polygon fill="none" stroke="#000000" points="305,-.5 305,-19.5 367,-19.5 367,-.5 305,-.5"/>
<text text-anchor="middle" x="336" y="-7.5" font-family="Helvetica" font-size="10.00" fill="#000000">paint_xpm</text>
</a>
</g>
</g>
<!-- Node5&#45;&gt;Node6 -->
<g id="edge5" class="edge">
<title>Node5&#45;&gt;Node6</title>
<path fill="none" stroke="#191970" d="M269.3926,-10C278.0026,-10 286.6039,-10 294.6278,-10"/>
<polygon fill="#191970" stroke="#191970" points="294.7957,-13.5001 304.7956,-10 294.7956,-6.5001 294.7957,-13.5001"/>
</g>
<!-- Node7 -->
<g id="node7" class="node">
<title>Node7</title>
<g id="a_node7"><a xlink:href="../../d5/d95/graphics_8c.html#ac8c3ed74f805c5bccd091d94f5d72242" target="_top" xlink:title="Paints a pixel in coordinates ( x , y ) with colour.">
<polygon fill="none" stroke="#000000" points="403,-.5 403,-19.5 466,-19.5 466,-.5 403,-.5"/>
<text text-anchor="middle" x="434.5" y="-7.5" font-family="Helvetica" font-size="10.00" fill="#000000">paint_pixel</text>
</a>
</g>
</g>
<!-- Node6&#45;&gt;Node7 -->
<g id="edge6" class="edge">
<title>Node6&#45;&gt;Node7</title>
<path fill="none" stroke="#191970" d="M367.166,-10C375.2601,-10 384.111,-10 392.6574,-10"/>
<polygon fill="#191970" stroke="#191970" points="392.8597,-13.5001 402.8597,-10 392.8597,-6.5001 392.8597,-13.5001"/>
</g>
</g>
</svg>
