<?xml version="1.0" encoding="UTF-8" standalone="no"?>
<!DOCTYPE svg PUBLIC "-//W3C//DTD SVG 1.1//EN"
 "http://www.w3.org/Graphics/SVG/1.1/DTD/svg11.dtd">
<!-- Generated by graphviz version 2.40.1 (20161225.0304)
 -->
<!-- Title: grid.h Pages: 1 -->
<svg width="373pt" height="140pt"
 viewBox="0.00 0.00 373.00 140.00" xmlns="http://www.w3.org/2000/svg" xmlns:xlink="http://www.w3.org/1999/xlink">
<g id="graph0" class="graph" transform="scale(1 1) rotate(0) translate(4 136)">
<title>grid.h</title>
<!-- Node1 -->
<g id="node1" class="node">
<title>Node1</title>
<g id="a_node1"><a xlink:title=" ">
<polygon fill="#bfbfbf" stroke="#000000" points="161.5,-112.5 161.5,-131.5 202.5,-131.5 202.5,-112.5 161.5,-112.5"/>
<text text-anchor="middle" x="182" y="-119.5" font-family="Helvetica" font-size="10.00" fill="#000000">grid.h</text>
</a>
</g>
</g>
<!-- Node2 -->
<g id="node2" class="node">
<title>Node2</title>
<g id="a_node2"><a xlink:href="../../db/d6f/enemies_8c.html" target="_top" xlink:title=" ">
<polygon fill="none" stroke="#000000" points="0,-56.5 0,-75.5 60,-75.5 60,-56.5 0,-56.5"/>
<text text-anchor="middle" x="30" y="-63.5" font-family="Helvetica" font-size="10.00" fill="#000000">enemies.c</text>
</a>
</g>
</g>
<!-- Node1&#45;&gt;Node2 -->
<g id="edge1" class="edge">
<title>Node1&#45;&gt;Node2</title>
<path fill="none" stroke="#191970" d="M151.4992,-110.7629C123.4683,-100.4357 82.3692,-85.2939 55.8971,-75.541"/>
<polygon fill="#191970" stroke="#191970" points="150.5903,-114.1579 161.1838,-114.3309 153.0103,-107.5895 150.5903,-114.1579"/>
</g>
<!-- Node3 -->
<g id="node3" class="node">
<title>Node3</title>
<g id="a_node3"><a xlink:href="../../d5/df6/entities_8c.html" target="_top" xlink:title=" ">
<polygon fill="none" stroke="#000000" points="78.5,-56.5 78.5,-75.5 133.5,-75.5 133.5,-56.5 78.5,-56.5"/>
<text text-anchor="middle" x="106" y="-63.5" font-family="Helvetica" font-size="10.00" fill="#000000">entities.c</text>
</a>
</g>
</g>
<!-- Node1&#45;&gt;Node3 -->
<g id="edge2" class="edge">
<title>Node1&#45;&gt;Node3</title>
<path fill="none" stroke="#191970" d="M160.5703,-106.2097C147.2223,-96.3743 130.4821,-84.0394 119.0865,-75.6427"/>
<polygon fill="#191970" stroke="#191970" points="158.635,-109.1312 168.7618,-112.2455 162.7874,-103.4958 158.635,-109.1312"/>
</g>
<!-- Node4 -->
<g id="node4" class="node">
<title>Node4</title>
<g id="a_node4"><a xlink:href="../../d5/d95/graphics_8c.html" target="_top" xlink:title=" ">
<polygon fill="none" stroke="#000000" points="152,-56.5 152,-75.5 212,-75.5 212,-56.5 152,-56.5"/>
<text text-anchor="middle" x="182" y="-63.5" font-family="Helvetica" font-size="10.00" fill="#000000">graphics.c</text>
</a>
</g>
</g>
<!-- Node1&#45;&gt;Node4 -->
<g id="edge3" class="edge">
<title>Node1&#45;&gt;Node4</title>
<path fill="none" stroke="#191970" d="M182,-102.1575C182,-93.155 182,-82.9199 182,-75.6427"/>
<polygon fill="#191970" stroke="#191970" points="178.5001,-102.2455 182,-112.2455 185.5001,-102.2456 178.5001,-102.2455"/>
</g>
<!-- Node5 -->
<g id="node5" class="node">
<title>Node5</title>
<g id="a_node5"><a xlink:href="../../dd/d65/game__helper_8h.html" target="_top" xlink:title=" ">
<polygon fill="none" stroke="#000000" points="230.5,-56.5 230.5,-75.5 311.5,-75.5 311.5,-56.5 230.5,-56.5"/>
<text text-anchor="middle" x="271" y="-63.5" font-family="Helvetica" font-size="10.00" fill="#000000">game_helper.h</text>
</a>
</g>
</g>
<!-- Node1&#45;&gt;Node5 -->
<g id="edge4" class="edge">
<title>Node1&#45;&gt;Node5</title>
<path fill="none" stroke="#191970" d="M206.2064,-106.769C221.9775,-96.8456 242.076,-84.1994 255.675,-75.6427"/>
<polygon fill="#191970" stroke="#191970" points="204.1026,-103.9575 197.5026,-112.2455 207.8305,-109.8823 204.1026,-103.9575"/>
</g>
<!-- Node7 -->
<g id="node7" class="node">
<title>Node7</title>
<g id="a_node7"><a xlink:href="../../df/def/_l_c_o_m_8c.html" target="_top" xlink:title=" ">
<polygon fill="none" stroke="#000000" points="315,-.5 315,-19.5 365,-19.5 365,-.5 315,-.5"/>
<text text-anchor="middle" x="340" y="-7.5" font-family="Helvetica" font-size="10.00" fill="#000000">LCOM.c</text>
</a>
</g>
</g>
<!-- Node1&#45;&gt;Node7 -->
<g id="edge7" class="edge">
<title>Node1&#45;&gt;Node7</title>
<path fill="none" stroke="#191970" d="M212.7448,-115.3515C248.9051,-106.9476 305.9275,-91.6767 321,-76 335.8753,-60.5284 339.2255,-34.1844 339.9037,-19.9062"/>
<polygon fill="#191970" stroke="#191970" points="211.6821,-112.0037 202.7066,-117.6333 213.2337,-118.8296 211.6821,-112.0037"/>
</g>
<!-- Node6 -->
<g id="node6" class="node">
<title>Node6</title>
<g id="a_node6"><a xlink:href="../../d2/dba/game__helper_8c.html" target="_top" xlink:title=" ">
<polygon fill="none" stroke="#000000" points="217,-.5 217,-19.5 297,-19.5 297,-.5 217,-.5"/>
<text text-anchor="middle" x="257" y="-7.5" font-family="Helvetica" font-size="10.00" fill="#000000">game_helper.c</text>
</a>
</g>
</g>
<!-- Node5&#45;&gt;Node6 -->
<g id="edge5" class="edge">
<title>Node5&#45;&gt;Node6</title>
<path fill="none" stroke="#191970" d="M266.1135,-46.4538C263.8451,-37.3803 261.25,-26.9998 259.4107,-19.6427"/>
<polygon fill="#191970" stroke="#191970" points="262.7405,-47.393 268.5614,-56.2455 269.5315,-45.6952 262.7405,-47.393"/>
</g>
<!-- Node5&#45;&gt;Node7 -->
<g id="edge6" class="edge">
<title>Node5&#45;&gt;Node7</title>
<path fill="none" stroke="#191970" d="M290.803,-49.928C302.8636,-40.1397 317.8714,-27.9595 328.1188,-19.6427"/>
<polygon fill="#191970" stroke="#191970" points="288.5779,-47.2262 283.0189,-56.2455 292.9891,-52.6614 288.5779,-47.2262"/>
</g>
</g>
</svg>
