<?xml version="1.0" encoding="UTF-8" standalone="no"?>
<!DOCTYPE svg PUBLIC "-//W3C//DTD SVG 1.1//EN"
 "http://www.w3.org/Graphics/SVG/1.1/DTD/svg11.dtd">
<!-- Generated by graphviz version 2.40.1 (20161225.0304)
 -->
<!-- Title: mouse.c Pages: 1 -->
<svg width="335pt" height="196pt"
 viewBox="0.00 0.00 335.07 196.00" xmlns="http://www.w3.org/2000/svg" xmlns:xlink="http://www.w3.org/1999/xlink">
<g id="graph0" class="graph" transform="scale(1 1) rotate(0) translate(4 192)">
<title>mouse.c</title>
<!-- Node1 -->
<g id="node1" class="node">
<title>Node1</title>
<g id="a_node1"><a xlink:title=" ">
<polygon fill="#bfbfbf" stroke="#000000" points="108.0712,-168.5 108.0712,-187.5 161.0712,-187.5 161.0712,-168.5 108.0712,-168.5"/>
<text text-anchor="middle" x="134.5712" y="-175.5" font-family="Helvetica" font-size="10.00" fill="#000000">mouse.c</text>
</a>
</g>
</g>
<!-- Node2 -->
<g id="node2" class="node">
<title>Node2</title>
<g id="a_node2"><a xlink:title=" ">
<polygon fill="none" stroke="#bfbfbf" points="171.0712,-.5 171.0712,-19.5 230.0712,-19.5 230.0712,-.5 171.0712,-.5"/>
<text text-anchor="middle" x="200.5712" y="-7.5" font-family="Helvetica" font-size="10.00" fill="#000000">lcom/lcf.h</text>
</a>
</g>
</g>
<!-- Node1&#45;&gt;Node2 -->
<g id="edge1" class="edge">
<title>Node1&#45;&gt;Node2</title>
<path fill="none" stroke="#191970" d="M107.7744,-175.2538C62.8754,-169.4677 -20.3145,-153.0046 4.5712,-112 38.5023,-56.0911 114.1698,-29.4107 160.9334,-17.8248"/>
<polygon fill="#191970" stroke="#191970" points="161.8035,-21.2157 170.7325,-15.5126 160.1959,-14.4027 161.8035,-21.2157"/>
</g>
<!-- Node3 -->
<g id="node3" class="node">
<title>Node3</title>
<g id="a_node3"><a xlink:title=" ">
<polygon fill="none" stroke="#bfbfbf" points="14.0712,-112.5 14.0712,-131.5 83.0712,-131.5 83.0712,-112.5 14.0712,-112.5"/>
<text text-anchor="middle" x="48.5712" y="-119.5" font-family="Helvetica" font-size="10.00" fill="#000000">lcom/liblm.h</text>
</a>
</g>
</g>
<!-- Node1&#45;&gt;Node3 -->
<g id="edge2" class="edge">
<title>Node1&#45;&gt;Node3</title>
<path fill="none" stroke="#191970" d="M119.5911,-168.2455C106.3961,-159.6534 86.9661,-147.0014 71.7632,-137.1018"/>
<polygon fill="#191970" stroke="#191970" points="73.6694,-134.1665 63.3796,-131.6427 69.8497,-140.0325 73.6694,-134.1665"/>
</g>
<!-- Node4 -->
<g id="node4" class="node">
<title>Node4</title>
<g id="a_node4"><a xlink:title=" ">
<polygon fill="none" stroke="#bfbfbf" points="101.5712,-112.5 101.5712,-131.5 167.5712,-131.5 167.5712,-112.5 101.5712,-112.5"/>
<text text-anchor="middle" x="134.5712" y="-119.5" font-family="Helvetica" font-size="10.00" fill="#000000">lcom/proj.h</text>
</a>
</g>
</g>
<!-- Node1&#45;&gt;Node4 -->
<g id="edge3" class="edge">
<title>Node1&#45;&gt;Node4</title>
<path fill="none" stroke="#191970" d="M134.5712,-168.2455C134.5712,-160.9382 134.5712,-150.6944 134.5712,-141.7046"/>
<polygon fill="#191970" stroke="#191970" points="138.0713,-141.6426 134.5712,-131.6427 131.0713,-141.6427 138.0713,-141.6426"/>
</g>
<!-- Node5 -->
<g id="node5" class="node">
<title>Node5</title>
<g id="a_node5"><a xlink:title=" ">
<polygon fill="none" stroke="#bfbfbf" points="185.5712,-112.5 185.5712,-131.5 233.5712,-131.5 233.5712,-112.5 185.5712,-112.5"/>
<text text-anchor="middle" x="209.5712" y="-119.5" font-family="Helvetica" font-size="10.00" fill="#000000">stdint.h</text>
</a>
</g>
</g>
<!-- Node1&#45;&gt;Node5 -->
<g id="edge4" class="edge">
<title>Node1&#45;&gt;Node5</title>
<path fill="none" stroke="#191970" d="M147.6352,-168.2455C158.9274,-159.814 175.4557,-147.4729 188.5983,-137.6598"/>
<polygon fill="#191970" stroke="#191970" points="190.7381,-140.4301 196.6569,-131.6427 186.55,-134.8211 190.7381,-140.4301"/>
</g>
<!-- Node6 -->
<g id="node6" class="node">
<title>Node6</title>
<g id="a_node6"><a xlink:href="../../dc/ded/mouse_8h.html" target="_top" xlink:title=" ">
<polygon fill="none" stroke="#000000" points="252.0712,-112.5 252.0712,-131.5 305.0712,-131.5 305.0712,-112.5 252.0712,-112.5"/>
<text text-anchor="middle" x="278.5712" y="-119.5" font-family="Helvetica" font-size="10.00" fill="#000000">mouse.h</text>
</a>
</g>
</g>
<!-- Node1&#45;&gt;Node6 -->
<g id="edge5" class="edge">
<title>Node1&#45;&gt;Node6</title>
<path fill="none" stroke="#191970" d="M159.3257,-168.3733C182.856,-159.2226 218.4399,-145.3844 244.6138,-135.2057"/>
<polygon fill="#191970" stroke="#191970" points="246.0883,-138.3877 254.1397,-131.5011 243.5511,-131.8636 246.0883,-138.3877"/>
</g>
<!-- Node6&#45;&gt;Node2 -->
<g id="edge6" class="edge">
<title>Node6&#45;&gt;Node2</title>
<path fill="none" stroke="#191970" d="M271.4218,-112.1779C264.691,-102.8973 254.3593,-88.5642 245.5712,-76 234.3336,-59.9338 221.7839,-41.4842 212.7986,-28.1835"/>
<polygon fill="#191970" stroke="#191970" points="215.6996,-26.2253 207.2073,-19.8904 209.8955,-30.1385 215.6996,-26.2253"/>
</g>
<!-- Node7 -->
<g id="node7" class="node">
<title>Node7</title>
<g id="a_node7"><a xlink:href="../../da/d6a/i8042_8h.html" target="_top" xlink:title=" ">
<polygon fill="none" stroke="#000000" points="254.5712,-56.5 254.5712,-75.5 302.5712,-75.5 302.5712,-56.5 254.5712,-56.5"/>
<text text-anchor="middle" x="278.5712" y="-63.5" font-family="Helvetica" font-size="10.00" fill="#000000">i8042.h</text>
</a>
</g>
</g>
<!-- Node6&#45;&gt;Node7 -->
<g id="edge7" class="edge">
<title>Node6&#45;&gt;Node7</title>
<path fill="none" stroke="#191970" d="M278.5712,-112.2455C278.5712,-104.9382 278.5712,-94.6944 278.5712,-85.7046"/>
<polygon fill="#191970" stroke="#191970" points="282.0713,-85.6426 278.5712,-75.6427 275.0713,-85.6427 282.0713,-85.6426"/>
</g>
<!-- Node7&#45;&gt;Node2 -->
<g id="edge8" class="edge">
<title>Node7&#45;&gt;Node2</title>
<path fill="none" stroke="#191970" d="M264.9846,-56.2455C253.2407,-47.814 236.0513,-35.4729 222.383,-25.6598"/>
<polygon fill="#191970" stroke="#191970" points="224.1665,-22.6316 214.0021,-19.6427 220.0841,-28.3179 224.1665,-22.6316"/>
</g>
<!-- Node8 -->
<g id="node8" class="node">
<title>Node8</title>
<g id="a_node8"><a xlink:title=" ">
<polygon fill="none" stroke="#bfbfbf" points="248.0712,-.5 248.0712,-19.5 327.0712,-19.5 327.0712,-.5 248.0712,-.5"/>
<text text-anchor="middle" x="287.5712" y="-7.5" font-family="Helvetica" font-size="10.00" fill="#000000">minix/sysutil.h</text>
</a>
</g>
</g>
<!-- Node7&#45;&gt;Node8 -->
<g id="edge9" class="edge">
<title>Node7&#45;&gt;Node8</title>
<path fill="none" stroke="#191970" d="M280.1389,-56.2455C281.3133,-48.9382 282.9596,-38.6944 284.4044,-29.7046"/>
<polygon fill="#191970" stroke="#191970" points="287.8903,-30.0714 286.0215,-19.6427 280.979,-28.9606 287.8903,-30.0714"/>
</g>
</g>
</svg>
