<?xml version="1.0" encoding="UTF-8" standalone="no"?>
<!DOCTYPE svg PUBLIC "-//W3C//DTD SVG 1.1//EN"
 "http://www.w3.org/Graphics/SVG/1.1/DTD/svg11.dtd">
<!-- Generated by graphviz version 2.40.1 (20161225.0304)
 -->
<!-- Title: entities.c Pages: 1 -->
<svg width="353pt" height="252pt"
 viewBox="0.00 0.00 352.54 252.00" xmlns="http://www.w3.org/2000/svg" xmlns:xlink="http://www.w3.org/1999/xlink">
<g id="graph0" class="graph" transform="scale(1 1) rotate(0) translate(4 248)">
<title>entities.c</title>
<!-- Node1 -->
<g id="node1" class="node">
<title>Node1</title>
<g id="a_node1"><a xlink:title=" ">
<polygon fill="#bfbfbf" stroke="#000000" points="154.0442,-224.5 154.0442,-243.5 209.0442,-243.5 209.0442,-224.5 154.0442,-224.5"/>
<text text-anchor="middle" x="181.5442" y="-231.5" font-family="Helvetica" font-size="10.00" fill="#000000">entities.c</text>
</a>
</g>
</g>
<!-- Node2 -->
<g id="node2" class="node">
<title>Node2</title>
<g id="a_node2"><a xlink:title=" ">
<polygon fill="none" stroke="#bfbfbf" points="70.0442,-.5 70.0442,-19.5 129.0442,-19.5 129.0442,-.5 70.0442,-.5"/>
<text text-anchor="middle" x="99.5442" y="-7.5" font-family="Helvetica" font-size="10.00" fill="#000000">lcom/lcf.h</text>
</a>
</g>
</g>
<!-- Node1&#45;&gt;Node2 -->
<g id="edge1" class="edge">
<title>Node1&#45;&gt;Node2</title>
<path fill="none" stroke="#191970" d="M153.6976,-230.5049C110.2747,-224.4191 29.6227,-210.3486 12.5442,-188 -28.2311,-134.6427 43.787,-59.1428 80.2737,-26.307"/>
<polygon fill="#191970" stroke="#191970" points="82.6819,-28.85 87.8783,-19.617 78.0583,-23.5943 82.6819,-28.85"/>
</g>
<!-- Node3 -->
<g id="node3" class="node">
<title>Node3</title>
<g id="a_node3"><a xlink:title=" ">
<polygon fill="none" stroke="#bfbfbf" points="180.0442,-.5 180.0442,-19.5 249.0442,-19.5 249.0442,-.5 180.0442,-.5"/>
<text text-anchor="middle" x="214.5442" y="-7.5" font-family="Helvetica" font-size="10.00" fill="#000000">lcom/liblm.h</text>
</a>
</g>
</g>
<!-- Node1&#45;&gt;Node3 -->
<g id="edge2" class="edge">
<title>Node1&#45;&gt;Node3</title>
<path fill="none" stroke="#191970" d="M209.075,-225.9421C227.2036,-219.0433 249.5491,-207.1254 260.5442,-188 289.7837,-137.1392 282.9949,-110.2009 260.5442,-56 255.7129,-44.3363 246.3304,-34.0881 237.2924,-26.243"/>
<polygon fill="#191970" stroke="#191970" points="239.2111,-23.2942 229.2294,-19.7423 234.8175,-28.7436 239.2111,-23.2942"/>
</g>
<!-- Node4 -->
<g id="node4" class="node">
<title>Node4</title>
<g id="a_node4"><a xlink:title=" ">
<polygon fill="none" stroke="#bfbfbf" points="278.5442,-.5 278.5442,-19.5 344.5442,-19.5 344.5442,-.5 278.5442,-.5"/>
<text text-anchor="middle" x="311.5442" y="-7.5" font-family="Helvetica" font-size="10.00" fill="#000000">lcom/proj.h</text>
</a>
</g>
</g>
<!-- Node1&#45;&gt;Node4 -->
<g id="edge3" class="edge">
<title>Node1&#45;&gt;Node4</title>
<path fill="none" stroke="#191970" d="M209.4345,-227.7387C231.3724,-221.3766 261.0608,-209.3359 278.5442,-188 316.4717,-141.715 316.237,-65.8194 313.6258,-29.9594"/>
<polygon fill="#191970" stroke="#191970" points="317.0964,-29.4693 312.7399,-19.8117 310.123,-30.0782 317.0964,-29.4693"/>
</g>
<!-- Node5 -->
<g id="node5" class="node">
<title>Node5</title>
<g id="a_node5"><a xlink:href="../../dd/d5a/entities_8h.html" target="_top" xlink:title=" ">
<polygon fill="none" stroke="#000000" points="140.5442,-112.5 140.5442,-131.5 196.5442,-131.5 196.5442,-112.5 140.5442,-112.5"/>
<text text-anchor="middle" x="168.5442" y="-119.5" font-family="Helvetica" font-size="10.00" fill="#000000">entities.h</text>
</a>
</g>
</g>
<!-- Node1&#45;&gt;Node5 -->
<g id="edge4" class="edge">
<title>Node1&#45;&gt;Node5</title>
<path fill="none" stroke="#191970" d="M180.4358,-224.4509C178.3155,-206.184 173.6461,-165.9553 170.8305,-141.6976"/>
<polygon fill="#191970" stroke="#191970" points="174.2794,-141.0546 169.6497,-131.5249 167.3261,-141.8618 174.2794,-141.0546"/>
</g>
<!-- Node7 -->
<g id="node7" class="node">
<title>Node7</title>
<g id="a_node7"><a xlink:href="../../d6/d4f/enemies_8h.html" target="_top" xlink:title=" ">
<polygon fill="none" stroke="#000000" points="22.0442,-168.5 22.0442,-187.5 83.0442,-187.5 83.0442,-168.5 22.0442,-168.5"/>
<text text-anchor="middle" x="52.5442" y="-175.5" font-family="Helvetica" font-size="10.00" fill="#000000">enemies.h</text>
</a>
</g>
</g>
<!-- Node1&#45;&gt;Node7 -->
<g id="edge10" class="edge">
<title>Node1&#45;&gt;Node7</title>
<path fill="none" stroke="#191970" d="M159.3683,-224.3733C138.5675,-215.3435 107.2525,-201.7494 83.8983,-191.6111"/>
<polygon fill="#191970" stroke="#191970" points="84.9974,-188.2727 74.4307,-187.5011 82.2099,-194.6938 84.9974,-188.2727"/>
</g>
<!-- Node8 -->
<g id="node8" class="node">
<title>Node8</title>
<g id="a_node8"><a xlink:href="../../d3/d62/player_8h.html" target="_top" xlink:title=" ">
<polygon fill="none" stroke="#000000" points="101.5442,-168.5 101.5442,-187.5 153.5442,-187.5 153.5442,-168.5 101.5442,-168.5"/>
<text text-anchor="middle" x="127.5442" y="-175.5" font-family="Helvetica" font-size="10.00" fill="#000000">player.h</text>
</a>
</g>
</g>
<!-- Node1&#45;&gt;Node8 -->
<g id="edge13" class="edge">
<title>Node1&#45;&gt;Node8</title>
<path fill="none" stroke="#191970" d="M172.1381,-224.2455C164.3948,-216.2155 153.2321,-204.6394 144.0124,-195.0781"/>
<polygon fill="#191970" stroke="#191970" points="146.3033,-192.4117 136.8424,-187.6427 141.2644,-197.2706 146.3033,-192.4117"/>
</g>
<!-- Node9 -->
<g id="node9" class="node">
<title>Node9</title>
<g id="a_node9"><a xlink:href="../../da/d15/grid_8h.html" target="_top" xlink:title=" ">
<polygon fill="none" stroke="#000000" points="210.0442,-168.5 210.0442,-187.5 251.0442,-187.5 251.0442,-168.5 210.0442,-168.5"/>
<text text-anchor="middle" x="230.5442" y="-175.5" font-family="Helvetica" font-size="10.00" fill="#000000">grid.h</text>
</a>
</g>
</g>
<!-- Node1&#45;&gt;Node9 -->
<g id="edge16" class="edge">
<title>Node1&#45;&gt;Node9</title>
<path fill="none" stroke="#191970" d="M190.0793,-224.2455C197.0353,-216.2958 207.0324,-204.8706 215.3493,-195.3656"/>
<polygon fill="#191970" stroke="#191970" points="218.1558,-197.4732 222.1068,-187.6427 212.8877,-192.8637 218.1558,-197.4732"/>
</g>
<!-- Node5&#45;&gt;Node2 -->
<g id="edge5" class="edge">
<title>Node5&#45;&gt;Node2</title>
<path fill="none" stroke="#191970" d="M162.6613,-112.4509C151.1529,-93.7707 125.4954,-52.1238 110.6803,-28.0761"/>
<polygon fill="#191970" stroke="#191970" points="113.6373,-26.203 105.4122,-19.5249 107.6775,-29.8747 113.6373,-26.203"/>
</g>
<!-- Node6 -->
<g id="node6" class="node">
<title>Node6</title>
<g id="a_node6"><a xlink:href="../../d3/def/sprites_8h.html" target="_top" xlink:title=" ">
<polygon fill="none" stroke="#000000" points="165.5442,-56.5 165.5442,-75.5 251.5442,-75.5 251.5442,-56.5 165.5442,-56.5"/>
<text text-anchor="middle" x="208.5442" y="-63.5" font-family="Helvetica" font-size="10.00" fill="#000000">sprites/sprites.h</text>
</a>
</g>
</g>
<!-- Node5&#45;&gt;Node6 -->
<g id="edge6" class="edge">
<title>Node5&#45;&gt;Node6</title>
<path fill="none" stroke="#191970" d="M175.5116,-112.2455C181.0753,-104.4564 189.0222,-93.3308 195.727,-83.9439"/>
<polygon fill="#191970" stroke="#191970" points="198.6922,-85.8144 201.6565,-75.6427 192.996,-81.7457 198.6922,-85.8144"/>
</g>
<!-- Node6&#45;&gt;Node2 -->
<g id="edge7" class="edge">
<title>Node6&#45;&gt;Node2</title>
<path fill="none" stroke="#191970" d="M189.5578,-56.2455C172.365,-47.4125 146.8204,-34.2887 127.3309,-24.2758"/>
<polygon fill="#191970" stroke="#191970" points="128.8072,-21.0993 118.3129,-19.6427 125.6083,-27.3257 128.8072,-21.0993"/>
</g>
<!-- Node6&#45;&gt;Node3 -->
<g id="edge8" class="edge">
<title>Node6&#45;&gt;Node3</title>
<path fill="none" stroke="#191970" d="M209.5893,-56.2455C210.3722,-48.9382 211.4698,-38.6944 212.4329,-29.7046"/>
<polygon fill="#191970" stroke="#191970" points="215.9257,-29.9587 213.511,-19.6427 208.9655,-29.2129 215.9257,-29.9587"/>
</g>
<!-- Node6&#45;&gt;Node4 -->
<g id="edge9" class="edge">
<title>Node6&#45;&gt;Node4</title>
<path fill="none" stroke="#191970" d="M226.4854,-56.2455C242.5841,-47.4928 266.4321,-34.527 284.7832,-24.5496"/>
<polygon fill="#191970" stroke="#191970" points="286.6949,-27.4942 293.8085,-19.6427 283.3512,-21.3444 286.6949,-27.4942"/>
</g>
<!-- Node7&#45;&gt;Node2 -->
<g id="edge11" class="edge">
<title>Node7&#45;&gt;Node2</title>
<path fill="none" stroke="#191970" d="M55.2057,-168.4862C62.6675,-141.8144 83.9022,-65.9117 94.0342,-29.695"/>
<polygon fill="#191970" stroke="#191970" points="97.471,-30.4011 96.7947,-19.8279 90.7299,-28.5151 97.471,-30.4011"/>
</g>
<!-- Node7&#45;&gt;Node5 -->
<g id="edge12" class="edge">
<title>Node7&#45;&gt;Node5</title>
<path fill="none" stroke="#191970" d="M72.4853,-168.3733C91.0228,-159.4241 118.847,-145.9917 139.7855,-135.8835"/>
<polygon fill="#191970" stroke="#191970" points="141.3794,-139.0006 148.8633,-131.5011 138.3361,-132.6967 141.3794,-139.0006"/>
</g>
<!-- Node8&#45;&gt;Node2 -->
<g id="edge14" class="edge">
<title>Node8&#45;&gt;Node2</title>
<path fill="none" stroke="#191970" d="M125.9585,-168.4862C121.5132,-141.8144 108.8628,-65.9117 102.8267,-29.695"/>
<polygon fill="#191970" stroke="#191970" points="106.2786,-29.1164 101.1821,-19.8279 99.3738,-30.2672 106.2786,-29.1164"/>
</g>
<!-- Node8&#45;&gt;Node5 -->
<g id="edge15" class="edge">
<title>Node8&#45;&gt;Node5</title>
<path fill="none" stroke="#191970" d="M134.6858,-168.2455C140.3886,-160.4564 148.5341,-149.3308 155.4066,-139.9439"/>
<polygon fill="#191970" stroke="#191970" points="158.4009,-141.7789 161.4843,-131.6427 152.7529,-137.6437 158.4009,-141.7789"/>
</g>
<!-- Node9&#45;&gt;Node5 -->
<g id="edge17" class="edge">
<title>Node9&#45;&gt;Node5</title>
<path fill="none" stroke="#191970" d="M219.7446,-168.2455C210.6764,-160.0549 197.5235,-148.1749 186.8197,-138.5069"/>
<polygon fill="#191970" stroke="#191970" points="188.987,-135.7482 179.22,-131.6427 184.295,-140.9429 188.987,-135.7482"/>
</g>
</g>
</svg>
