<?xml version="1.0" encoding="UTF-8" standalone="no"?>
<!DOCTYPE svg PUBLIC "-//W3C//DTD SVG 1.1//EN"
 "http://www.w3.org/Graphics/SVG/1.1/DTD/svg11.dtd">
<!-- Generated by graphviz version 2.40.1 (20161225.0304)
 -->
<!-- Title: mouse.h Pages: 1 -->
<svg width="130pt" height="84pt"
 viewBox="0.00 0.00 129.50 84.00" xmlns="http://www.w3.org/2000/svg" xmlns:xlink="http://www.w3.org/1999/xlink">
<g id="graph0" class="graph" transform="scale(1 1) rotate(0) translate(4 80)">
<title>mouse.h</title>
<!-- Node1 -->
<g id="node1" class="node">
<title>Node1</title>
<g id="a_node1"><a xlink:title=" ">
<polygon fill="#bfbfbf" stroke="#000000" points="35,-56.5 35,-75.5 88,-75.5 88,-56.5 35,-56.5"/>
<text text-anchor="middle" x="61.5" y="-63.5" font-family="Helvetica" font-size="10.00" fill="#000000">mouse.h</text>
</a>
</g>
</g>
<!-- Node2 -->
<g id="node2" class="node">
<title>Node2</title>
<g id="a_node2"><a xlink:href="../../db/d9f/mouse_8c.html" target="_top" xlink:title=" ">
<polygon fill="none" stroke="#000000" points="0,-.5 0,-19.5 53,-19.5 53,-.5 0,-.5"/>
<text text-anchor="middle" x="26.5" y="-7.5" font-family="Helvetica" font-size="10.00" fill="#000000">mouse.c</text>
</a>
</g>
</g>
<!-- Node1&#45;&gt;Node2 -->
<g id="edge1" class="edge">
<title>Node1&#45;&gt;Node2</title>
<path fill="none" stroke="#191970" d="M50.0185,-47.6296C44.1804,-38.2887 37.3248,-27.3197 32.5267,-19.6427"/>
<polygon fill="#191970" stroke="#191970" points="47.1354,-49.6206 55.4035,-56.2455 53.0714,-45.9105 47.1354,-49.6206"/>
</g>
<!-- Node3 -->
<g id="node3" class="node">
<title>Node3</title>
<g id="a_node3"><a xlink:href="../../df/def/_l_c_o_m_8c.html" target="_top" xlink:title=" ">
<polygon fill="none" stroke="#000000" points="71.5,-.5 71.5,-19.5 121.5,-19.5 121.5,-.5 71.5,-.5"/>
<text text-anchor="middle" x="96.5" y="-7.5" font-family="Helvetica" font-size="10.00" fill="#000000">LCOM.c</text>
</a>
</g>
</g>
<!-- Node1&#45;&gt;Node3 -->
<g id="edge2" class="edge">
<title>Node1&#45;&gt;Node3</title>
<path fill="none" stroke="#191970" d="M72.9815,-47.6296C78.8196,-38.2887 85.6752,-27.3197 90.4733,-19.6427"/>
<polygon fill="#191970" stroke="#191970" points="69.9286,-45.9105 67.5965,-56.2455 75.8646,-49.6206 69.9286,-45.9105"/>
</g>
</g>
</svg>
