<?xml version="1.0" encoding="UTF-8" standalone="no"?>
<!DOCTYPE svg PUBLIC "-//W3C//DTD SVG 1.1//EN"
 "http://www.w3.org/Graphics/SVG/1.1/DTD/svg11.dtd">
<!-- Generated by graphviz version 2.40.1 (20161225.0304)
 -->
<!-- Title: timer.c Pages: 1 -->
<svg width="122pt" height="140pt"
 viewBox="0.00 0.00 121.50 140.00" xmlns="http://www.w3.org/2000/svg" xmlns:xlink="http://www.w3.org/1999/xlink">
<g id="graph0" class="graph" transform="scale(1 1) rotate(0) translate(4 136)">
<title>timer.c</title>
<!-- Node1 -->
<g id="node1" class="node">
<title>Node1</title>
<g id="a_node1"><a xlink:title=" ">
<polygon fill="#bfbfbf" stroke="#000000" points="33,-112.5 33,-131.5 80,-131.5 80,-112.5 33,-112.5"/>
<text text-anchor="middle" x="56.5" y="-119.5" font-family="Helvetica" font-size="10.00" fill="#000000">timer.c</text>
</a>
</g>
</g>
<!-- Node2 -->
<g id="node2" class="node">
<title>Node2</title>
<g id="a_node2"><a xlink:href="../../d5/dd0/timer_8h.html" target="_top" xlink:title=" ">
<polygon fill="none" stroke="#000000" points="0,-56.5 0,-75.5 47,-75.5 47,-56.5 0,-56.5"/>
<text text-anchor="middle" x="23.5" y="-63.5" font-family="Helvetica" font-size="10.00" fill="#000000">timer.h</text>
</a>
</g>
</g>
<!-- Node1&#45;&gt;Node2 -->
<g id="edge1" class="edge">
<title>Node1&#45;&gt;Node2</title>
<path fill="none" stroke="#191970" d="M50.7518,-112.2455C46.2565,-104.617 39.8752,-93.7881 34.4175,-84.5267"/>
<polygon fill="#191970" stroke="#191970" points="37.2747,-82.4811 29.1823,-75.6427 31.2439,-86.035 37.2747,-82.4811"/>
</g>
<!-- Node4 -->
<g id="node4" class="node">
<title>Node4</title>
<g id="a_node4"><a xlink:href="../../d7/ddf/i8254_8h.html" target="_top" xlink:title=" ">
<polygon fill="none" stroke="#000000" points="65.5,-56.5 65.5,-75.5 113.5,-75.5 113.5,-56.5 65.5,-56.5"/>
<text text-anchor="middle" x="89.5" y="-63.5" font-family="Helvetica" font-size="10.00" fill="#000000">i8254.h</text>
</a>
</g>
</g>
<!-- Node1&#45;&gt;Node4 -->
<g id="edge3" class="edge">
<title>Node1&#45;&gt;Node4</title>
<path fill="none" stroke="#191970" d="M62.2482,-112.2455C66.7435,-104.617 73.1248,-93.7881 78.5825,-84.5267"/>
<polygon fill="#191970" stroke="#191970" points="81.7561,-86.035 83.8177,-75.6427 75.7253,-82.4811 81.7561,-86.035"/>
</g>
<!-- Node3 -->
<g id="node3" class="node">
<title>Node3</title>
<g id="a_node3"><a xlink:title=" ">
<polygon fill="none" stroke="#bfbfbf" points="27,-.5 27,-19.5 86,-19.5 86,-.5 27,-.5"/>
<text text-anchor="middle" x="56.5" y="-7.5" font-family="Helvetica" font-size="10.00" fill="#000000">lcom/lcf.h</text>
</a>
</g>
</g>
<!-- Node2&#45;&gt;Node3 -->
<g id="edge2" class="edge">
<title>Node2&#45;&gt;Node3</title>
<path fill="none" stroke="#191970" d="M29.2482,-56.2455C33.7435,-48.617 40.1248,-37.7881 45.5825,-28.5267"/>
<polygon fill="#191970" stroke="#191970" points="48.7561,-30.035 50.8177,-19.6427 42.7253,-26.4811 48.7561,-30.035"/>
</g>
<!-- Node4&#45;&gt;Node3 -->
<g id="edge4" class="edge">
<title>Node4&#45;&gt;Node3</title>
<path fill="none" stroke="#191970" d="M83.7518,-56.2455C79.2565,-48.617 72.8752,-37.7881 67.4175,-28.5267"/>
<polygon fill="#191970" stroke="#191970" points="70.2747,-26.4811 62.1823,-19.6427 64.2439,-30.035 70.2747,-26.4811"/>
</g>
</g>
</svg>
