<?xml version="1.0" encoding="UTF-8" standalone="no"?>
<!DOCTYPE svg PUBLIC "-//W3C//DTD SVG 1.1//EN"
 "http://www.w3.org/Graphics/SVG/1.1/DTD/svg11.dtd">
<!-- Generated by graphviz version 2.40.1 (20161225.0304)
 -->
<!-- Title: rtc.c Pages: 1 -->
<svg width="336pt" height="140pt"
 viewBox="0.00 0.00 335.50 140.00" xmlns="http://www.w3.org/2000/svg" xmlns:xlink="http://www.w3.org/1999/xlink">
<g id="graph0" class="graph" transform="scale(1 1) rotate(0) translate(4 136)">
<title>rtc.c</title>
<!-- Node1 -->
<g id="node1" class="node">
<title>Node1</title>
<g id="a_node1"><a xlink:title=" ">
<polygon fill="#bfbfbf" stroke="#000000" points="131,-112.5 131,-131.5 166,-131.5 166,-112.5 131,-112.5"/>
<text text-anchor="middle" x="148.5" y="-119.5" font-family="Helvetica" font-size="10.00" fill="#000000">rtc.c</text>
</a>
</g>
</g>
<!-- Node2 -->
<g id="node2" class="node">
<title>Node2</title>
<g id="a_node2"><a xlink:href="../../dc/d1b/rtc_8h.html" target="_top" xlink:title=" ">
<polygon fill="none" stroke="#000000" points="21.5,-56.5 21.5,-75.5 57.5,-75.5 57.5,-56.5 21.5,-56.5"/>
<text text-anchor="middle" x="39.5" y="-63.5" font-family="Helvetica" font-size="10.00" fill="#000000">rtc.h</text>
</a>
</g>
</g>
<!-- Node1&#45;&gt;Node2 -->
<g id="edge1" class="edge">
<title>Node1&#45;&gt;Node2</title>
<path fill="none" stroke="#191970" d="M130.9873,-113.0026C113.6354,-104.0879 86.8125,-90.3073 66.6889,-79.9686"/>
<polygon fill="#191970" stroke="#191970" points="68.1904,-76.8052 57.6962,-75.3485 64.9915,-83.0315 68.1904,-76.8052"/>
</g>
<!-- Node4 -->
<g id="node4" class="node">
<title>Node4</title>
<g id="a_node4"><a xlink:title=" ">
<polygon fill="none" stroke="#bfbfbf" points="187,-.5 187,-19.5 246,-19.5 246,-.5 187,-.5"/>
<text text-anchor="middle" x="216.5" y="-7.5" font-family="Helvetica" font-size="10.00" fill="#000000">lcom/lcf.h</text>
</a>
</g>
</g>
<!-- Node1&#45;&gt;Node4 -->
<g id="edge3" class="edge">
<title>Node1&#45;&gt;Node4</title>
<path fill="none" stroke="#191970" d="M134.0424,-112.3711C116.5695,-99.5095 91.081,-76.018 104.5,-56 120.548,-32.06 151.5331,-20.5687 176.8518,-15.0586"/>
<polygon fill="#191970" stroke="#191970" points="177.7882,-18.4423 186.9402,-13.1048 176.4572,-11.57 177.7882,-18.4423"/>
</g>
<!-- Node5 -->
<g id="node5" class="node">
<title>Node5</title>
<g id="a_node5"><a xlink:title=" ">
<polygon fill="none" stroke="#bfbfbf" points="114,-56.5 114,-75.5 183,-75.5 183,-56.5 114,-56.5"/>
<text text-anchor="middle" x="148.5" y="-63.5" font-family="Helvetica" font-size="10.00" fill="#000000">lcom/liblm.h</text>
</a>
</g>
</g>
<!-- Node1&#45;&gt;Node5 -->
<g id="edge4" class="edge">
<title>Node1&#45;&gt;Node5</title>
<path fill="none" stroke="#191970" d="M148.5,-112.2455C148.5,-104.9382 148.5,-94.6944 148.5,-85.7046"/>
<polygon fill="#191970" stroke="#191970" points="152.0001,-85.6426 148.5,-75.6427 145.0001,-85.6427 152.0001,-85.6426"/>
</g>
<!-- Node6 -->
<g id="node6" class="node">
<title>Node6</title>
<g id="a_node6"><a xlink:title=" ">
<polygon fill="none" stroke="#bfbfbf" points="201.5,-56.5 201.5,-75.5 267.5,-75.5 267.5,-56.5 201.5,-56.5"/>
<text text-anchor="middle" x="234.5" y="-63.5" font-family="Helvetica" font-size="10.00" fill="#000000">lcom/proj.h</text>
</a>
</g>
</g>
<!-- Node1&#45;&gt;Node6 -->
<g id="edge5" class="edge">
<title>Node1&#45;&gt;Node6</title>
<path fill="none" stroke="#191970" d="M163.4801,-112.2455C176.6751,-103.6534 196.1051,-91.0014 211.3079,-81.1018"/>
<polygon fill="#191970" stroke="#191970" points="213.2215,-84.0325 219.6916,-75.6427 209.4017,-78.1665 213.2215,-84.0325"/>
</g>
<!-- Node7 -->
<g id="node7" class="node">
<title>Node7</title>
<g id="a_node7"><a xlink:href="../../d5/d60/utils_8h.html" target="_top" xlink:title=" ">
<polygon fill="none" stroke="#000000" points="285.5,-56.5 285.5,-75.5 327.5,-75.5 327.5,-56.5 285.5,-56.5"/>
<text text-anchor="middle" x="306.5" y="-63.5" font-family="Helvetica" font-size="10.00" fill="#000000">utils.h</text>
</a>
</g>
</g>
<!-- Node1&#45;&gt;Node7 -->
<g id="edge6" class="edge">
<title>Node1&#45;&gt;Node7</title>
<path fill="none" stroke="#191970" d="M166.0125,-115.7931C192.5166,-106.3992 243.1854,-88.4406 275.8789,-76.8531"/>
<polygon fill="#191970" stroke="#191970" points="277.1452,-80.1177 285.4014,-73.478 274.8066,-73.5198 277.1452,-80.1177"/>
</g>
<!-- Node3 -->
<g id="node3" class="node">
<title>Node3</title>
<g id="a_node3"><a xlink:title=" ">
<polygon fill="none" stroke="#bfbfbf" points="0,-.5 0,-19.5 79,-19.5 79,-.5 0,-.5"/>
<text text-anchor="middle" x="39.5" y="-7.5" font-family="Helvetica" font-size="10.00" fill="#000000">minix/sysutil.h</text>
</a>
</g>
</g>
<!-- Node2&#45;&gt;Node3 -->
<g id="edge2" class="edge">
<title>Node2&#45;&gt;Node3</title>
<path fill="none" stroke="#191970" d="M39.5,-56.2455C39.5,-48.9382 39.5,-38.6944 39.5,-29.7046"/>
<polygon fill="#191970" stroke="#191970" points="43.0001,-29.6426 39.5,-19.6427 36.0001,-29.6427 43.0001,-29.6426"/>
</g>
<!-- Node7&#45;&gt;Node4 -->
<g id="edge7" class="edge">
<title>Node7&#45;&gt;Node4</title>
<path fill="none" stroke="#191970" d="M290.8232,-56.2455C277.0144,-47.6534 256.6807,-35.0014 240.7708,-25.1018"/>
<polygon fill="#191970" stroke="#191970" points="242.3368,-21.954 231.9972,-19.6427 238.6387,-27.8974 242.3368,-21.954"/>
</g>
</g>
</svg>
