<?xml version="1.0" encoding="UTF-8" standalone="no"?>
<!DOCTYPE svg PUBLIC "-//W3C//DTD SVG 1.1//EN"
 "http://www.w3.org/Graphics/SVG/1.1/DTD/svg11.dtd">
<!-- Generated by graphviz version 2.40.1 (20161225.0304)
 -->
<!-- Title: sprites/sprites.h Pages: 1 -->
<!--zoomable 308 -->
<svg id="main" version="1.1" xmlns="http://www.w3.org/2000/svg" xmlns:xlink="http://www.w3.org/1999/xlink" xml:space="preserve" onload="init(evt)">
<style type="text/css"><![CDATA[
.edge:hover path { stroke: red; }
.edge:hover polygon { stroke: red; fill: red; }
]]></style>
<script type="text/javascript"><![CDATA[
var edges = document.getElementsByTagName('g');
if (edges && edges.length) {
  for (var i=0;i<edges.length;i++) {
    if (edges[i].id.substr(0,4)=='edge') {
      edges[i].setAttribute('class','edge');
    }
  }
}
]]></script>
        <defs>
                <circle id="rim" cx="0" cy="0" r="7"/>
                <circle id="rim2" cx="0" cy="0" r="3.5"/>
                <g id="zoomPlus">
                        <use xlink:href="#rim" fill="#404040">
                                <set attributeName="fill" to="#808080" begin="zoomplus.mouseover" end="zoomplus.mouseout"/>
                        </use>
                        <path d="M-4,0h8M0,-4v8" fill="none" stroke="white" stroke-width="1.5" pointer-events="none"/>
                </g>
                <g id="zoomMin">
                        <use xlink:href="#rim" fill="#404040">
                                <set attributeName="fill" to="#808080" begin="zoomminus.mouseover" end="zoomminus.mouseout"/>
                        </use>
                        <path d="M-4,0h8" fill="none" stroke="white" stroke-width="1.5" pointer-events="none"/>
                </g>
                <g id="dirArrow">
                        <path fill="none" stroke="white" stroke-width="1.5" d="M0,-3.0v7 M-2.5,-0.5L0,-3.0L2.5,-0.5"/>
                </g>
               <g id="resetDef">
                       <use xlink:href="#rim2" fill="#404040">
                               <set attributeName="fill" to="#808080" begin="reset.mouseover" end="reset.mouseout"/>
                       </use>
               </g>
        </defs>

<script type="text/javascript">
var viewWidth = 728;
var viewHeight = 308;
var sectionId = 'dynsection-1';
</script>
<script xlink:href="../../svgpan.js"/>
<svg id="graph" class="graph">
<g id="viewport">
<title>sprites/sprites.h</title>
<!-- Node1 -->
<g id="node1" class="node">
<title>Node1</title>
<g id="a_node1"><a xlink:title=" ">
<polygon fill="#bfbfbf" stroke="#000000" points="319,-280.5 319,-299.5 405,-299.5 405,-280.5 319,-280.5"/>
<text text-anchor="middle" x="362" y="-287.5" font-family="Helvetica" font-size="10.00" fill="#000000">sprites/sprites.h</text>
</a>
</g>
</g>
<!-- Node2 -->
<g id="node2" class="node">
<title>Node2</title>
<g id="a_node2"><a xlink:href="../../dd/d5a/entities_8h.html" target="_top" xlink:title=" ">
<polygon fill="none" stroke="#000000" points="334,-224.5 334,-243.5 390,-243.5 390,-224.5 334,-224.5"/>
<text text-anchor="middle" x="362" y="-231.5" font-family="Helvetica" font-size="10.00" fill="#000000">entities.h</text>
</a>
</g>
</g>
<!-- Node1&#45;&gt;Node2 -->
<g id="edge1" class="edge">
<title>Node1&#45;&gt;Node2</title>
<path fill="none" stroke="#191970" d="M362,-270.1575C362,-261.155 362,-250.9199 362,-243.6427"/>
<polygon fill="#191970" stroke="#191970" points="358.5001,-270.2455 362,-280.2455 365.5001,-270.2456 358.5001,-270.2455"/>
</g>
<!-- Node9 -->
<g id="node9" class="node">
<title>Node9</title>
<g id="a_node9"><a xlink:href="../../df/def/_l_c_o_m_8c.html" target="_top" xlink:title=" ">
<polygon fill="none" stroke="#000000" points="250,-.5 250,-19.5 300,-19.5 300,-.5 250,-.5"/>
<text text-anchor="middle" x="275" y="-7.5" font-family="Helvetica" font-size="10.00" fill="#000000">LCOM.c</text>
</a>
</g>
</g>
<!-- Node1&#45;&gt;Node9 -->
<g id="edge31" class="edge">
<title>Node1&#45;&gt;Node9</title>
<path fill="none" stroke="#191970" d="M308.7171,-284.7178C208.0704,-273.2561 0,-241.8407 0,-178 0,-178 0,-178 0,-122 0,-5.6905 129.2903,-52.3859 241,-20 243.8365,-19.1777 246.8047,-18.3121 249.7554,-17.4485"/>
<polygon fill="#191970" stroke="#191970" points="308.368,-288.2005 318.6939,-285.8286 309.1426,-281.2434 308.368,-288.2005"/>
</g>
<!-- Node11 -->
<g id="node11" class="node">
<title>Node11</title>
<g id="a_node11"><a xlink:href="../../d7/dc7/sprites_8c.html" target="_top" xlink:title=" ">
<polygon fill="none" stroke="#000000" points="607.5,-56.5 607.5,-75.5 692.5,-75.5 692.5,-56.5 607.5,-56.5"/>
<text text-anchor="middle" x="650" y="-63.5" font-family="Helvetica" font-size="10.00" fill="#000000">sprites/sprites.c</text>
</a>
</g>
</g>
<!-- Node1&#45;&gt;Node11 -->
<g id="edge32" class="edge">
<title>Node1&#45;&gt;Node11</title>
<path fill="none" stroke="#191970" d="M386.3464,-275.1433C428.8911,-248.7043 518.7355,-190.7267 587,-132 608.3749,-113.6116 630.4833,-88.8862 641.9712,-75.5263"/>
<polygon fill="#191970" stroke="#191970" points="384.4394,-272.2074 377.7725,-280.4417 388.1192,-278.1622 384.4394,-272.2074"/>
</g>
<!-- Node3 -->
<g id="node3" class="node">
<title>Node3</title>
<g id="a_node3"><a xlink:href="../../d6/d4f/enemies_8h.html" target="_top" xlink:title=" ">
<polygon fill="none" stroke="#000000" points="141.5,-168.5 141.5,-187.5 202.5,-187.5 202.5,-168.5 141.5,-168.5"/>
<text text-anchor="middle" x="172" y="-175.5" font-family="Helvetica" font-size="10.00" fill="#000000">enemies.h</text>
</a>
</g>
</g>
<!-- Node2&#45;&gt;Node3 -->
<g id="edge2" class="edge">
<title>Node2&#45;&gt;Node3</title>
<path fill="none" stroke="#191970" d="M323.9395,-222.7822C288.2941,-212.2762 235.7007,-196.7749 202.6719,-187.0401"/>
<polygon fill="#191970" stroke="#191970" points="323.3833,-226.267 333.9648,-225.737 325.3623,-219.5526 323.3833,-226.267"/>
</g>
<!-- Node2&#45;&gt;Node9 -->
<g id="edge30" class="edge">
<title>Node2&#45;&gt;Node9</title>
<path fill="none" stroke="#191970" d="M400.2946,-228.8321C507.042,-212.9883 794.1555,-159.7561 701,-56 674.0706,-26.0061 387.3572,-13.8268 300.0723,-10.7972"/>
<polygon fill="#191970" stroke="#191970" points="399.6443,-225.3897 390.2514,-230.2909 400.6507,-232.317 399.6443,-225.3897"/>
</g>
<!-- Node12 -->
<g id="node12" class="node">
<title>Node12</title>
<g id="a_node12"><a xlink:href="../../d5/df6/entities_8c.html" target="_top" xlink:title=" ">
<polygon fill="none" stroke="#000000" points="334.5,-112.5 334.5,-131.5 389.5,-131.5 389.5,-112.5 334.5,-112.5"/>
<text text-anchor="middle" x="362" y="-119.5" font-family="Helvetica" font-size="10.00" fill="#000000">entities.c</text>
</a>
</g>
</g>
<!-- Node2&#45;&gt;Node12 -->
<g id="edge22" class="edge">
<title>Node2&#45;&gt;Node12</title>
<path fill="none" stroke="#191970" d="M362,-214.2702C362,-189.9985 362,-149.7725 362,-131.5249"/>
<polygon fill="#191970" stroke="#191970" points="358.5001,-214.4509 362,-224.4509 365.5001,-214.451 358.5001,-214.4509"/>
</g>
<!-- Node13 -->
<g id="node13" class="node">
<title>Node13</title>
<g id="a_node13"><a xlink:href="../../da/d15/grid_8h.html" target="_top" xlink:title=" ">
<polygon fill="none" stroke="#000000" points="266.5,-168.5 266.5,-187.5 307.5,-187.5 307.5,-168.5 266.5,-168.5"/>
<text text-anchor="middle" x="287" y="-175.5" font-family="Helvetica" font-size="10.00" fill="#000000">grid.h</text>
</a>
</g>
</g>
<!-- Node2&#45;&gt;Node13 -->
<g id="edge16" class="edge">
<title>Node2&#45;&gt;Node13</title>
<path fill="none" stroke="#191970" d="M340.8523,-218.2097C327.6799,-208.3743 311.16,-196.0394 299.9143,-187.6427"/>
<polygon fill="#191970" stroke="#191970" points="338.8291,-221.0671 348.936,-224.2455 343.0172,-215.4581 338.8291,-221.0671"/>
</g>
<!-- Node14 -->
<g id="node14" class="node">
<title>Node14</title>
<g id="a_node14"><a xlink:href="../../d3/d62/player_8h.html" target="_top" xlink:title=" ">
<polygon fill="none" stroke="#000000" points="430,-168.5 430,-187.5 482,-187.5 482,-168.5 430,-168.5"/>
<text text-anchor="middle" x="456" y="-175.5" font-family="Helvetica" font-size="10.00" fill="#000000">player.h</text>
</a>
</g>
</g>
<!-- Node2&#45;&gt;Node14 -->
<g id="edge23" class="edge">
<title>Node2&#45;&gt;Node14</title>
<path fill="none" stroke="#191970" d="M387.1005,-219.0465C403.826,-209.0824 425.3168,-196.2794 439.8141,-187.6427"/>
<polygon fill="#191970" stroke="#191970" points="385.1732,-216.1206 378.3736,-224.2455 388.7559,-222.1343 385.1732,-216.1206"/>
</g>
<!-- Node4 -->
<g id="node4" class="node">
<title>Node4</title>
<g id="a_node4"><a xlink:href="../../db/d6f/enemies_8c.html" target="_top" xlink:title=" ">
<polygon fill="none" stroke="#000000" points="142,-112.5 142,-131.5 202,-131.5 202,-112.5 142,-112.5"/>
<text text-anchor="middle" x="172" y="-119.5" font-family="Helvetica" font-size="10.00" fill="#000000">enemies.c</text>
</a>
</g>
</g>
<!-- Node3&#45;&gt;Node4 -->
<g id="edge3" class="edge">
<title>Node3&#45;&gt;Node4</title>
<path fill="none" stroke="#191970" d="M172,-158.1575C172,-149.155 172,-138.9199 172,-131.6427"/>
<polygon fill="#191970" stroke="#191970" points="168.5001,-158.2455 172,-168.2455 175.5001,-158.2456 168.5001,-158.2455"/>
</g>
<!-- Node5 -->
<g id="node5" class="node">
<title>Node5</title>
<g id="a_node5"><a xlink:href="../../d7/d04/graphics_8h.html" target="_top" xlink:title=" ">
<polygon fill="none" stroke="#000000" points="484.5,-112.5 484.5,-131.5 545.5,-131.5 545.5,-112.5 484.5,-112.5"/>
<text text-anchor="middle" x="515" y="-119.5" font-family="Helvetica" font-size="10.00" fill="#000000">graphics.h</text>
</a>
</g>
</g>
<!-- Node3&#45;&gt;Node5 -->
<g id="edge4" class="edge">
<title>Node3&#45;&gt;Node5</title>
<path fill="none" stroke="#191970" d="M212.8748,-171.3266C282.4154,-159.973 422.2233,-137.1472 484.2048,-127.0278"/>
<polygon fill="#191970" stroke="#191970" points="212.0462,-167.9154 202.7408,-172.9811 213.1741,-174.824 212.0462,-167.9154"/>
</g>
<!-- Node6 -->
<g id="node6" class="node">
<title>Node6</title>
<g id="a_node6"><a xlink:href="../../d5/d95/graphics_8c.html" target="_top" xlink:title=" ">
<polygon fill="none" stroke="#000000" points="321,-56.5 321,-75.5 381,-75.5 381,-56.5 321,-56.5"/>
<text text-anchor="middle" x="351" y="-63.5" font-family="Helvetica" font-size="10.00" fill="#000000">graphics.c</text>
</a>
</g>
</g>
<!-- Node3&#45;&gt;Node6 -->
<g id="edge13" class="edge">
<title>Node3&#45;&gt;Node6</title>
<path fill="none" stroke="#191970" d="M151.4842,-161.8359C136.3061,-147.9211 120.2925,-127.6687 133,-112 144.8169,-97.4294 263.9168,-78.5255 320.9127,-70.2236"/>
<polygon fill="#191970" stroke="#191970" points="149.329,-164.599 159.1886,-168.4769 153.8993,-159.2968 149.329,-164.599"/>
</g>
<!-- Node7 -->
<g id="node7" class="node">
<title>Node7</title>
<g id="a_node7"><a xlink:href="../../dd/d65/game__helper_8h.html" target="_top" xlink:title=" ">
<polygon fill="none" stroke="#000000" points="158.5,-56.5 158.5,-75.5 239.5,-75.5 239.5,-56.5 158.5,-56.5"/>
<text text-anchor="middle" x="199" y="-63.5" font-family="Helvetica" font-size="10.00" fill="#000000">game_helper.h</text>
</a>
</g>
</g>
<!-- Node3&#45;&gt;Node7 -->
<g id="edge14" class="edge">
<title>Node3&#45;&gt;Node7</title>
<path fill="none" stroke="#191970" d="M137.642,-164.2038C113.0192,-152.1557 86.4128,-133.2955 100,-112 112.8444,-91.8687 137.0277,-80.4107 158.2766,-73.965"/>
<polygon fill="#191970" stroke="#191970" points="136.3479,-167.4614 146.8938,-168.4787 139.2841,-161.1069 136.3479,-167.4614"/>
</g>
<!-- Node3&#45;&gt;Node9 -->
<g id="edge15" class="edge">
<title>Node3&#45;&gt;Node9</title>
<path fill="none" stroke="#191970" d="M133.5715,-164.5198C108.9302,-153.3787 83.2362,-135.572 93,-112 106.4698,-79.4811 119.3234,-74.9265 149,-56 166.0817,-45.106 218.1518,-27.7702 249.7567,-17.7821"/>
<polygon fill="#191970" stroke="#191970" points="132.3144,-167.7882 142.8879,-168.4614 135.042,-161.3415 132.3144,-167.7882"/>
</g>
<!-- Node3&#45;&gt;Node12 -->
<g id="edge12" class="edge">
<title>Node3&#45;&gt;Node12</title>
<path fill="none" stroke="#191970" d="M212.4098,-166.0897C249.1066,-155.2738 302.2534,-139.6095 334.3295,-130.1555"/>
<polygon fill="#191970" stroke="#191970" points="211.1293,-162.8182 202.5268,-169.0026 213.1084,-169.5326 211.1293,-162.8182"/>
</g>
<!-- Node5&#45;&gt;Node6 -->
<g id="edge5" class="edge">
<title>Node5&#45;&gt;Node6</title>
<path fill="none" stroke="#191970" d="M477.0956,-109.057C447.0816,-98.8084 405.8493,-84.729 378.8247,-75.5011"/>
<polygon fill="#191970" stroke="#191970" points="476.2129,-112.454 486.8074,-112.3733 478.4749,-105.8295 476.2129,-112.454"/>
</g>
<!-- Node5&#45;&gt;Node7 -->
<g id="edge6" class="edge">
<title>Node5&#45;&gt;Node7</title>
<path fill="none" stroke="#191970" d="M474.4518,-114.8142C413.875,-104.0791 300.3961,-83.9689 239.7197,-73.2161"/>
<polygon fill="#191970" stroke="#191970" points="473.9561,-118.2809 484.4135,-116.5796 475.1777,-111.3883 473.9561,-118.2809"/>
</g>
<!-- Node5&#45;&gt;Node9 -->
<g id="edge10" class="edge">
<title>Node5&#45;&gt;Node9</title>
<path fill="none" stroke="#191970" d="M489.4647,-107.5007C464.4782,-93.5569 425.1568,-72.2579 390,-56 359.7481,-42.0103 323.9712,-28.098 300.4499,-19.2979"/>
<polygon fill="#191970" stroke="#191970" points="487.867,-110.6175 498.3006,-112.4588 491.2925,-104.5129 487.867,-110.6175"/>
</g>
<!-- Node10 -->
<g id="node10" class="node">
<title>Node10</title>
<g id="a_node10"><a xlink:href="../../d1/db8/player_8c.html" target="_top" xlink:title=" ">
<polygon fill="none" stroke="#000000" points="494.5,-56.5 494.5,-75.5 545.5,-75.5 545.5,-56.5 494.5,-56.5"/>
<text text-anchor="middle" x="520" y="-63.5" font-family="Helvetica" font-size="10.00" fill="#000000">player.c</text>
</a>
</g>
</g>
<!-- Node5&#45;&gt;Node10 -->
<g id="edge9" class="edge">
<title>Node5&#45;&gt;Node10</title>
<path fill="none" stroke="#191970" d="M516.7717,-102.1575C517.5754,-93.155 518.4893,-82.9199 519.139,-75.6427"/>
<polygon fill="#191970" stroke="#191970" points="513.2742,-101.9739 515.8709,-112.2455 520.2465,-102.5965 513.2742,-101.9739"/>
</g>
<!-- Node5&#45;&gt;Node11 -->
<g id="edge11" class="edge">
<title>Node5&#45;&gt;Node11</title>
<path fill="none" stroke="#191970" d="M547.4991,-108.5189C572.0854,-98.3201 605.2366,-84.5685 627.0955,-75.5011"/>
<polygon fill="#191970" stroke="#191970" points="546.1031,-105.3087 538.2073,-112.3733 548.7852,-111.7745 546.1031,-105.3087"/>
</g>
<!-- Node8 -->
<g id="node8" class="node">
<title>Node8</title>
<g id="a_node8"><a xlink:href="../../d2/dba/game__helper_8c.html" target="_top" xlink:title=" ">
<polygon fill="none" stroke="#000000" points="152,-.5 152,-19.5 232,-19.5 232,-.5 152,-.5"/>
<text text-anchor="middle" x="192" y="-7.5" font-family="Helvetica" font-size="10.00" fill="#000000">game_helper.c</text>
</a>
</g>
</g>
<!-- Node7&#45;&gt;Node8 -->
<g id="edge7" class="edge">
<title>Node7&#45;&gt;Node8</title>
<path fill="none" stroke="#191970" d="M196.5197,-46.1575C195.3944,-37.155 194.115,-26.9199 193.2053,-19.6427"/>
<polygon fill="#191970" stroke="#191970" points="193.0673,-46.7569 197.7807,-56.2455 200.0132,-45.8886 193.0673,-46.7569"/>
</g>
<!-- Node7&#45;&gt;Node9 -->
<g id="edge8" class="edge">
<title>Node7&#45;&gt;Node9</title>
<path fill="none" stroke="#191970" d="M220.4297,-50.2097C233.7777,-40.3743 250.5179,-28.0394 261.9135,-19.6427"/>
<polygon fill="#191970" stroke="#191970" points="218.2126,-47.4958 212.2382,-56.2455 222.365,-53.1312 218.2126,-47.4958"/>
</g>
<!-- Node13&#45;&gt;Node4 -->
<g id="edge17" class="edge">
<title>Node13&#45;&gt;Node4</title>
<path fill="none" stroke="#191970" d="M258.1967,-163.9741C237.375,-153.8348 209.8022,-140.408 191.5112,-131.5011"/>
<polygon fill="#191970" stroke="#191970" points="256.7078,-167.1419 267.2308,-168.3733 259.7724,-160.8484 256.7078,-167.1419"/>
</g>
<!-- Node13&#45;&gt;Node6 -->
<g id="edge19" class="edge">
<title>Node13&#45;&gt;Node6</title>
<path fill="none" stroke="#191970" d="M297.5301,-159.5723C311.3075,-135.4618 334.9413,-94.1028 345.5572,-75.5249"/>
<polygon fill="#191970" stroke="#191970" points="294.3792,-158.032 292.4566,-168.4509 300.4569,-161.505 294.3792,-158.032"/>
</g>
<!-- Node13&#45;&gt;Node7 -->
<g id="edge20" class="edge">
<title>Node13&#45;&gt;Node7</title>
<path fill="none" stroke="#191970" d="M273.2715,-160.5274C254.4469,-136.5688 221.2754,-94.3505 206.4838,-75.5249"/>
<polygon fill="#191970" stroke="#191970" points="270.5668,-162.7501 279.4972,-168.4509 276.071,-158.4253 270.5668,-162.7501"/>
</g>
<!-- Node13&#45;&gt;Node9 -->
<g id="edge21" class="edge">
<title>Node13&#45;&gt;Node9</title>
<path fill="none" stroke="#191970" d="M285.59,-158.2601C283.0119,-122.1669 277.6261,-46.7656 275.702,-19.8279"/>
<polygon fill="#191970" stroke="#191970" points="282.1168,-158.761 286.3204,-168.4862 289.099,-158.2623 282.1168,-158.761"/>
</g>
<!-- Node13&#45;&gt;Node12 -->
<g id="edge18" class="edge">
<title>Node13&#45;&gt;Node12</title>
<path fill="none" stroke="#191970" d="M308.1477,-162.2097C321.3201,-152.3743 337.84,-140.0394 349.0857,-131.6427"/>
<polygon fill="#191970" stroke="#191970" points="305.9828,-159.4581 300.064,-168.2455 310.1709,-165.0671 305.9828,-159.4581"/>
</g>
<!-- Node14&#45;&gt;Node5 -->
<g id="edge24" class="edge">
<title>Node14&#45;&gt;Node5</title>
<path fill="none" stroke="#191970" d="M473.5307,-161.3607C483.7377,-151.6727 496.2469,-139.7995 504.8408,-131.6427"/>
<polygon fill="#191970" stroke="#191970" points="471.1206,-158.8227 466.277,-168.2455 475.9396,-163.8998 471.1206,-158.8227"/>
</g>
<!-- Node14&#45;&gt;Node6 -->
<g id="edge26" class="edge">
<title>Node14&#45;&gt;Node6</title>
<path fill="none" stroke="#191970" d="M452.6105,-158.2693C449.3387,-144.0933 443.1763,-125.2276 432,-112 417.7009,-95.0765 395.5085,-83.0924 377.9663,-75.6078"/>
<polygon fill="#191970" stroke="#191970" points="449.2521,-159.322 454.6553,-168.4355 456.1146,-157.9416 449.2521,-159.322"/>
</g>
<!-- Node14&#45;&gt;Node7 -->
<g id="edge27" class="edge">
<title>Node14&#45;&gt;Node7</title>
<path fill="none" stroke="#191970" d="M444.6542,-159.676C434.338,-144.5749 417.7371,-123.7907 398,-112 371.6682,-96.2697 290.0461,-80.7926 239.8872,-72.4102"/>
<polygon fill="#191970" stroke="#191970" points="441.8347,-161.7594 450.2372,-168.2129 447.6931,-157.9281 441.8347,-161.7594"/>
</g>
<!-- Node14&#45;&gt;Node9 -->
<g id="edge29" class="edge">
<title>Node14&#45;&gt;Node9</title>
<path fill="none" stroke="#191970" d="M492.0678,-174.0001C518.5188,-168.9681 552.7155,-157.613 570,-132 583.1695,-112.4848 568.5748,-68.9896 554,-56 516.6183,-22.6842 361.646,-13.255 300.2308,-10.799"/>
<polygon fill="#191970" stroke="#191970" points="491.2847,-170.5825 482.0013,-175.6884 492.4425,-177.4861 491.2847,-170.5825"/>
</g>
<!-- Node14&#45;&gt;Node10 -->
<g id="edge28" class="edge">
<title>Node14&#45;&gt;Node10</title>
<path fill="none" stroke="#191970" d="M492.1526,-171.1575C514.115,-164.9367 540.4531,-153.3238 554,-132 566.1646,-112.852 545.5326,-88.8372 531.4496,-75.6979"/>
<polygon fill="#191970" stroke="#191970" points="491.2476,-167.7763 482.4313,-173.6519 492.9874,-174.5566 491.2476,-167.7763"/>
</g>
<!-- Node14&#45;&gt;Node12 -->
<g id="edge25" class="edge">
<title>Node14&#45;&gt;Node12</title>
<path fill="none" stroke="#191970" d="M430.8995,-163.0465C414.174,-153.0824 392.6832,-140.2794 378.1859,-131.6427"/>
<polygon fill="#191970" stroke="#191970" points="429.2441,-166.1343 439.6264,-168.2455 432.8268,-160.1206 429.2441,-166.1343"/>
</g>
</g>
</svg>
        <g id="navigator" transform="translate(0 0)" fill="#404254">
                <rect fill="#f2f5e9" fill-opacity="0.5" stroke="#606060" stroke-width=".5" x="0" y="0" width="60" height="60"/>
                <use id="zoomplus" xlink:href="#zoomPlus" x="17" y="9" onmousedown="handleZoom(evt,'in')"/>
                <use id="zoomminus" xlink:href="#zoomMin" x="42" y="9" onmousedown="handleZoom(evt,'out')"/>
                <use id="reset" xlink:href="#resetDef" x="30" y="36" onmousedown="handleReset()"/>
                <g id="arrowUp" xlink:href="#dirArrow" transform="translate(30 24)" onmousedown="handlePan(0,-1)">
                  <use xlink:href="#rim" fill="#404040">
                        <set attributeName="fill" to="#808080" begin="arrowUp.mouseover" end="arrowUp.mouseout"/>
                  </use>
                  <path fill="none" stroke="white" stroke-width="1.5" d="M0,-3.0v7 M-2.5,-0.5L0,-3.0L2.5,-0.5"/>
                </g>
                <g id="arrowRight" xlink:href="#dirArrow" transform="rotate(90) translate(36 -43)" onmousedown="handlePan(1,0)">
                  <use xlink:href="#rim" fill="#404040">
                        <set attributeName="fill" to="#808080" begin="arrowRight.mouseover" end="arrowRight.mouseout"/>
                  </use>
                  <path fill="none" stroke="white" stroke-width="1.5" d="M0,-3.0v7 M-2.5,-0.5L0,-3.0L2.5,-0.5"/>
                </g>
                <g id="arrowDown" xlink:href="#dirArrow" transform="rotate(180) translate(-30 -48)" onmousedown="handlePan(0,1)">
                  <use xlink:href="#rim" fill="#404040">
                        <set attributeName="fill" to="#808080" begin="arrowDown.mouseover" end="arrowDown.mouseout"/>
                  </use>
                  <path fill="none" stroke="white" stroke-width="1.5" d="M0,-3.0v7 M-2.5,-0.5L0,-3.0L2.5,-0.5"/>
                </g>
                <g id="arrowLeft" xlink:href="#dirArrow" transform="rotate(270) translate(-36 17)" onmousedown="handlePan(-1,0)">
                  <use xlink:href="#rim" fill="#404040">
                        <set attributeName="fill" to="#808080" begin="arrowLeft.mouseover" end="arrowLeft.mouseout"/>
                  </use>
                  <path fill="none" stroke="white" stroke-width="1.5" d="M0,-3.0v7 M-2.5,-0.5L0,-3.0L2.5,-0.5"/>
                </g>
        </g>
        <svg viewBox="0 0 15 15" width="100%" height="30px" preserveAspectRatio="xMaxYMin meet">
         <g id="arrow_out" transform="scale(0.3 0.3)">
          <a xlink:href="sprites_8h__dep__incl_org.svg" target="_base">
           <rect id="button" ry="5" rx="5" y="6" x="6" height="38" width="38"
                fill="#f2f5e9" fill-opacity="0.5" stroke="#606060" stroke-width="1.0"/>
           <path id="arrow"
             d="M 11.500037,31.436501 C 11.940474,20.09759 22.043105,11.32322 32.158766,21.979434 L 37.068811,17.246167 C 37.068811,17.246167 37.088388,32 37.088388,32 L 22.160133,31.978069 C 22.160133,31.978069 26.997745,27.140456 26.997745,27.140456 C 18.528582,18.264221 13.291696,25.230495 11.500037,31.436501 z"
             style="fill:#404040;"/>
          </a>
         </g>
        </svg>
</svg>
