<?xml version="1.0" encoding="UTF-8" standalone="no"?>
<!DOCTYPE svg PUBLIC "-//W3C//DTD SVG 1.1//EN"
 "http://www.w3.org/Graphics/SVG/1.1/DTD/svg11.dtd">
<!-- Generated by graphviz version 2.40.1 (20161225.0304)
 -->
<!-- Title: graphics.h Pages: 1 -->
<svg width="379pt" height="140pt"
 viewBox="0.00 0.00 378.50 140.00" xmlns="http://www.w3.org/2000/svg" xmlns:xlink="http://www.w3.org/1999/xlink">
<g id="graph0" class="graph" transform="scale(1 1) rotate(0) translate(4 136)">
<title>graphics.h</title>
<!-- Node1 -->
<g id="node1" class="node">
<title>Node1</title>
<g id="a_node1"><a xlink:title=" ">
<polygon fill="#bfbfbf" stroke="#000000" points="157.5,-112.5 157.5,-131.5 218.5,-131.5 218.5,-112.5 157.5,-112.5"/>
<text text-anchor="middle" x="188" y="-119.5" font-family="Helvetica" font-size="10.00" fill="#000000">graphics.h</text>
</a>
</g>
</g>
<!-- Node2 -->
<g id="node2" class="node">
<title>Node2</title>
<g id="a_node2"><a xlink:href="../../d5/d95/graphics_8c.html" target="_top" xlink:title=" ">
<polygon fill="none" stroke="#000000" points="0,-56.5 0,-75.5 60,-75.5 60,-56.5 0,-56.5"/>
<text text-anchor="middle" x="30" y="-63.5" font-family="Helvetica" font-size="10.00" fill="#000000">graphics.c</text>
</a>
</g>
</g>
<!-- Node1&#45;&gt;Node2 -->
<g id="edge1" class="edge">
<title>Node1&#45;&gt;Node2</title>
<path fill="none" stroke="#191970" d="M151.1045,-108.9231C122.2213,-98.686 82.7294,-84.6889 56.8067,-75.5011"/>
<polygon fill="#191970" stroke="#191970" points="150.2441,-112.3314 160.8388,-112.3733 152.5826,-105.7336 150.2441,-112.3314"/>
</g>
<!-- Node3 -->
<g id="node3" class="node">
<title>Node3</title>
<g id="a_node3"><a xlink:href="../../dd/d65/game__helper_8h.html" target="_top" xlink:title=" ">
<polygon fill="none" stroke="#000000" points="78.5,-56.5 78.5,-75.5 159.5,-75.5 159.5,-56.5 78.5,-56.5"/>
<text text-anchor="middle" x="119" y="-63.5" font-family="Helvetica" font-size="10.00" fill="#000000">game_helper.h</text>
</a>
</g>
</g>
<!-- Node1&#45;&gt;Node3 -->
<g id="edge2" class="edge">
<title>Node1&#45;&gt;Node3</title>
<path fill="none" stroke="#191970" d="M168.197,-105.928C156.1364,-96.1397 141.1286,-83.9595 130.8812,-75.6427"/>
<polygon fill="#191970" stroke="#191970" points="166.0109,-108.6614 175.9811,-112.2455 170.4221,-103.2262 166.0109,-108.6614"/>
</g>
<!-- Node5 -->
<g id="node5" class="node">
<title>Node5</title>
<g id="a_node5"><a xlink:href="../../df/def/_l_c_o_m_8c.html" target="_top" xlink:title=" ">
<polygon fill="none" stroke="#000000" points="163,-.5 163,-19.5 213,-19.5 213,-.5 163,-.5"/>
<text text-anchor="middle" x="188" y="-7.5" font-family="Helvetica" font-size="10.00" fill="#000000">LCOM.c</text>
</a>
</g>
</g>
<!-- Node1&#45;&gt;Node5 -->
<g id="edge6" class="edge">
<title>Node1&#45;&gt;Node5</title>
<path fill="none" stroke="#191970" d="M188,-102.2702C188,-77.9985 188,-37.7725 188,-19.5249"/>
<polygon fill="#191970" stroke="#191970" points="184.5001,-102.4509 188,-112.4509 191.5001,-102.451 184.5001,-102.4509"/>
</g>
<!-- Node6 -->
<g id="node6" class="node">
<title>Node6</title>
<g id="a_node6"><a xlink:href="../../d1/db8/player_8c.html" target="_top" xlink:title=" ">
<polygon fill="none" stroke="#000000" points="216.5,-56.5 216.5,-75.5 267.5,-75.5 267.5,-56.5 216.5,-56.5"/>
<text text-anchor="middle" x="242" y="-63.5" font-family="Helvetica" font-size="10.00" fill="#000000">player.c</text>
</a>
</g>
</g>
<!-- Node1&#45;&gt;Node6 -->
<g id="edge5" class="edge">
<title>Node1&#45;&gt;Node6</title>
<path fill="none" stroke="#191970" d="M204.5969,-104.7884C213.8347,-95.2085 224.9904,-83.6396 232.7017,-75.6427"/>
<polygon fill="#191970" stroke="#191970" points="201.828,-102.6176 197.4061,-112.2455 206.8669,-107.4766 201.828,-102.6176"/>
</g>
<!-- Node7 -->
<g id="node7" class="node">
<title>Node7</title>
<g id="a_node7"><a xlink:href="../../d7/dc7/sprites_8c.html" target="_top" xlink:title=" ">
<polygon fill="none" stroke="#000000" points="285.5,-56.5 285.5,-75.5 370.5,-75.5 370.5,-56.5 285.5,-56.5"/>
<text text-anchor="middle" x="328" y="-63.5" font-family="Helvetica" font-size="10.00" fill="#000000">sprites/sprites.c</text>
</a>
</g>
</g>
<!-- Node1&#45;&gt;Node7 -->
<g id="edge7" class="edge">
<title>Node1&#45;&gt;Node7</title>
<path fill="none" stroke="#191970" d="M221.3649,-108.6541C246.8952,-98.4419 281.4784,-84.6086 304.2472,-75.5011"/>
<polygon fill="#191970" stroke="#191970" points="220.0517,-105.4096 212.0669,-112.3733 222.6515,-111.909 220.0517,-105.4096"/>
</g>
<!-- Node4 -->
<g id="node4" class="node">
<title>Node4</title>
<g id="a_node4"><a xlink:href="../../d2/dba/game__helper_8c.html" target="_top" xlink:title=" ">
<polygon fill="none" stroke="#000000" points="65,-.5 65,-19.5 145,-19.5 145,-.5 65,-.5"/>
<text text-anchor="middle" x="105" y="-7.5" font-family="Helvetica" font-size="10.00" fill="#000000">game_helper.c</text>
</a>
</g>
</g>
<!-- Node3&#45;&gt;Node4 -->
<g id="edge3" class="edge">
<title>Node3&#45;&gt;Node4</title>
<path fill="none" stroke="#191970" d="M114.1135,-46.4538C111.8451,-37.3803 109.25,-26.9998 107.4107,-19.6427"/>
<polygon fill="#191970" stroke="#191970" points="110.7405,-47.393 116.5614,-56.2455 117.5315,-45.6952 110.7405,-47.393"/>
</g>
<!-- Node3&#45;&gt;Node5 -->
<g id="edge4" class="edge">
<title>Node3&#45;&gt;Node5</title>
<path fill="none" stroke="#191970" d="M138.803,-49.928C150.8636,-40.1397 165.8714,-27.9595 176.1188,-19.6427"/>
<polygon fill="#191970" stroke="#191970" points="136.5779,-47.2262 131.0189,-56.2455 140.9891,-52.6614 136.5779,-47.2262"/>
</g>
</g>
</svg>
