<?xml version="1.0" encoding="UTF-8" standalone="no"?>
<!DOCTYPE svg PUBLIC "-//W3C//DTD SVG 1.1//EN"
 "http://www.w3.org/Graphics/SVG/1.1/DTD/svg11.dtd">
<!-- Generated by graphviz version 2.40.1 (20161225.0304)
 -->
<!-- Title: kbd.c Pages: 1 -->
<svg width="301pt" height="140pt"
 viewBox="0.00 0.00 300.73 140.00" xmlns="http://www.w3.org/2000/svg" xmlns:xlink="http://www.w3.org/1999/xlink">
<g id="graph0" class="graph" transform="scale(1 1) rotate(0) translate(4 136)">
<title>kbd.c</title>
<!-- Node1 -->
<g id="node1" class="node">
<title>Node1</title>
<g id="a_node1"><a xlink:title=" ">
<polygon fill="#bfbfbf" stroke="#000000" points="114.2319,-112.5 114.2319,-131.5 154.2319,-131.5 154.2319,-112.5 114.2319,-112.5"/>
<text text-anchor="middle" x="134.2319" y="-119.5" font-family="Helvetica" font-size="10.00" fill="#000000">kbd.c</text>
</a>
</g>
</g>
<!-- Node2 -->
<g id="node2" class="node">
<title>Node2</title>
<g id="a_node2"><a xlink:title=" ">
<polygon fill="none" stroke="#bfbfbf" points="24.7319,-.5 24.7319,-19.5 83.7319,-19.5 83.7319,-.5 24.7319,-.5"/>
<text text-anchor="middle" x="54.2319" y="-7.5" font-family="Helvetica" font-size="10.00" fill="#000000">lcom/lcf.h</text>
</a>
</g>
</g>
<!-- Node1&#45;&gt;Node2 -->
<g id="edge1" class="edge">
<title>Node1&#45;&gt;Node2</title>
<path fill="none" stroke="#191970" d="M114.0726,-117.8186C80.9028,-110.4844 17.1878,-94.3275 4.2319,-76 -8.1762,-58.4475 10.97,-38.8821 29.0418,-25.644"/>
<polygon fill="#191970" stroke="#191970" points="31.4348,-28.2456 37.6841,-19.69 27.4635,-22.4811 31.4348,-28.2456"/>
</g>
<!-- Node3 -->
<g id="node3" class="node">
<title>Node3</title>
<g id="a_node3"><a xlink:title=" ">
<polygon fill="none" stroke="#bfbfbf" points="13.7319,-56.5 13.7319,-75.5 82.7319,-75.5 82.7319,-56.5 13.7319,-56.5"/>
<text text-anchor="middle" x="48.2319" y="-63.5" font-family="Helvetica" font-size="10.00" fill="#000000">lcom/liblm.h</text>
</a>
</g>
</g>
<!-- Node1&#45;&gt;Node3 -->
<g id="edge2" class="edge">
<title>Node1&#45;&gt;Node3</title>
<path fill="none" stroke="#191970" d="M119.2518,-112.2455C106.0568,-103.6534 86.6268,-91.0014 71.424,-81.1018"/>
<polygon fill="#191970" stroke="#191970" points="73.3302,-78.1665 63.0403,-75.6427 69.5104,-84.0325 73.3302,-78.1665"/>
</g>
<!-- Node4 -->
<g id="node4" class="node">
<title>Node4</title>
<g id="a_node4"><a xlink:title=" ">
<polygon fill="none" stroke="#bfbfbf" points="101.2319,-56.5 101.2319,-75.5 167.2319,-75.5 167.2319,-56.5 101.2319,-56.5"/>
<text text-anchor="middle" x="134.2319" y="-63.5" font-family="Helvetica" font-size="10.00" fill="#000000">lcom/proj.h</text>
</a>
</g>
</g>
<!-- Node1&#45;&gt;Node4 -->
<g id="edge3" class="edge">
<title>Node1&#45;&gt;Node4</title>
<path fill="none" stroke="#191970" d="M134.2319,-112.2455C134.2319,-104.9382 134.2319,-94.6944 134.2319,-85.7046"/>
<polygon fill="#191970" stroke="#191970" points="137.732,-85.6426 134.2319,-75.6427 130.732,-85.6427 137.732,-85.6426"/>
</g>
<!-- Node5 -->
<g id="node5" class="node">
<title>Node5</title>
<g id="a_node5"><a xlink:href="../../da/d6a/i8042_8h.html" target="_top" xlink:title=" ">
<polygon fill="none" stroke="#000000" points="185.2319,-56.5 185.2319,-75.5 233.2319,-75.5 233.2319,-56.5 185.2319,-56.5"/>
<text text-anchor="middle" x="209.2319" y="-63.5" font-family="Helvetica" font-size="10.00" fill="#000000">i8042.h</text>
</a>
</g>
</g>
<!-- Node1&#45;&gt;Node5 -->
<g id="edge4" class="edge">
<title>Node1&#45;&gt;Node5</title>
<path fill="none" stroke="#191970" d="M147.2959,-112.2455C158.5881,-103.814 175.1164,-91.4729 188.259,-81.6598"/>
<polygon fill="#191970" stroke="#191970" points="190.3988,-84.4301 196.3176,-75.6427 186.2107,-78.8211 190.3988,-84.4301"/>
</g>
<!-- Node7 -->
<g id="node7" class="node">
<title>Node7</title>
<g id="a_node7"><a xlink:href="../../d7/df4/kbd_8h.html" target="_top" xlink:title=" ">
<polygon fill="none" stroke="#000000" points="251.7319,-56.5 251.7319,-75.5 292.7319,-75.5 292.7319,-56.5 251.7319,-56.5"/>
<text text-anchor="middle" x="272.2319" y="-63.5" font-family="Helvetica" font-size="10.00" fill="#000000">kbd.h</text>
</a>
</g>
</g>
<!-- Node1&#45;&gt;Node7 -->
<g id="edge7" class="edge">
<title>Node1&#45;&gt;Node7</title>
<path fill="none" stroke="#191970" d="M154.2983,-113.8571C177.3657,-104.4964 215.4659,-89.0355 242.0997,-78.2276"/>
<polygon fill="#191970" stroke="#191970" points="243.7406,-81.3389 251.6907,-74.3356 241.1085,-74.8526 243.7406,-81.3389"/>
</g>
<!-- Node5&#45;&gt;Node2 -->
<g id="edge5" class="edge">
<title>Node5&#45;&gt;Node2</title>
<path fill="none" stroke="#191970" d="M185.0131,-57.25C159.5398,-48.0467 119.1814,-33.4656 90.0315,-22.9341"/>
<polygon fill="#191970" stroke="#191970" points="91.2076,-19.6376 80.6133,-19.5314 88.829,-26.2211 91.2076,-19.6376"/>
</g>
<!-- Node6 -->
<g id="node6" class="node">
<title>Node6</title>
<g id="a_node6"><a xlink:title=" ">
<polygon fill="none" stroke="#bfbfbf" points="169.7319,-.5 169.7319,-19.5 248.7319,-19.5 248.7319,-.5 169.7319,-.5"/>
<text text-anchor="middle" x="209.2319" y="-7.5" font-family="Helvetica" font-size="10.00" fill="#000000">minix/sysutil.h</text>
</a>
</g>
</g>
<!-- Node5&#45;&gt;Node6 -->
<g id="edge6" class="edge">
<title>Node5&#45;&gt;Node6</title>
<path fill="none" stroke="#191970" d="M209.2319,-56.2455C209.2319,-48.9382 209.2319,-38.6944 209.2319,-29.7046"/>
<polygon fill="#191970" stroke="#191970" points="212.732,-29.6426 209.2319,-19.6427 205.732,-29.6427 212.732,-29.6426"/>
</g>
</g>
</svg>
