<?xml version="1.0" encoding="UTF-8" standalone="no"?>
<!DOCTYPE svg PUBLIC "-//W3C//DTD SVG 1.1//EN"
 "http://www.w3.org/Graphics/SVG/1.1/DTD/svg11.dtd">
<!-- Generated by graphviz version 2.40.1 (20161225.0304)
 -->
<!-- Title: Graph Legend Pages: 1 -->
<svg width="501pt" height="159pt"
 viewBox="0.00 0.00 501.00 159.00" xmlns="http://www.w3.org/2000/svg" xmlns:xlink="http://www.w3.org/1999/xlink">
<g id="graph0" class="graph" transform="scale(1 1) rotate(0) translate(4 155)">
<title>Graph Legend</title>
<!-- Node9 -->
<g id="node1" class="node">
<title>Node9</title>
<polygon fill="#bfbfbf" stroke="#000000" points="284,-19 228,-19 228,0 284,0 284,-19"/>
<text text-anchor="middle" x="256" y="-7" font-family="Helvetica" font-size="10.00" fill="#000000">Inherited</text>
</g>
<!-- Node10 -->
<g id="node2" class="node">
<title>Node10</title>
<polygon fill="none" stroke="#000000" points="62,-85 0,-85 0,-66 62,-66 62,-85"/>
<text text-anchor="middle" x="31" y="-73" font-family="Helvetica" font-size="10.00" fill="#000000">PublicBase</text>
</g>
<!-- Node10&#45;&gt;Node9 -->
<g id="edge1" class="edge">
<title>Node10&#45;&gt;Node9</title>
<path fill="none" stroke="#191970" d="M72.0566,-63.4567C117.2155,-50.2101 188.5732,-29.2785 227.8167,-17.7671"/>
<polygon fill="#191970" stroke="#191970" points="70.8958,-60.1497 62.2853,-66.323 72.8662,-66.8667 70.8958,-60.1497"/>
</g>
<!-- Node11 -->
<g id="node3" class="node">
<title>Node11</title>
<polygon fill="none" stroke="#ff0000" points="61,-151 1,-151 1,-132 61,-132 61,-151"/>
<text text-anchor="middle" x="31" y="-139" font-family="Helvetica" font-size="10.00" fill="#000000">Truncated</text>
</g>
<!-- Node11&#45;&gt;Node10 -->
<g id="edge2" class="edge">
<title>Node11&#45;&gt;Node10</title>
<path fill="none" stroke="#191970" d="M31,-121.732C31,-109.6966 31,-94.847 31,-85.2785"/>
<polygon fill="#191970" stroke="#191970" points="27.5001,-121.7614 31,-131.7615 34.5001,-121.7615 27.5001,-121.7614"/>
</g>
<!-- Node13 -->
<g id="node4" class="node">
<title>Node13</title>
<polygon fill="none" stroke="#000000" points="158,-85 80,-85 80,-66 158,-66 158,-85"/>
<text text-anchor="middle" x="119" y="-73" font-family="Helvetica" font-size="10.00" fill="#000000">ProtectedBase</text>
</g>
<!-- Node13&#45;&gt;Node9 -->
<g id="edge3" class="edge">
<title>Node13&#45;&gt;Node9</title>
<path fill="none" stroke="#006400" d="M148.0826,-61.4894C174.5474,-48.7399 212.9111,-30.2581 236.055,-19.1085"/>
<polygon fill="#006400" stroke="#006400" points="146.411,-58.4097 138.921,-65.903 149.4491,-64.716 146.411,-58.4097"/>
</g>
<!-- Node14 -->
<g id="node5" class="node">
<title>Node14</title>
<polygon fill="none" stroke="#000000" points="244,-85 176,-85 176,-66 244,-66 244,-85"/>
<text text-anchor="middle" x="210" y="-73" font-family="Helvetica" font-size="10.00" fill="#000000">PrivateBase</text>
</g>
<!-- Node14&#45;&gt;Node9 -->
<g id="edge4" class="edge">
<title>Node14&#45;&gt;Node9</title>
<path fill="none" stroke="#8b1a1a" d="M222.5099,-57.5511C231.1003,-45.2256 242.1755,-29.3352 249.1847,-19.2785"/>
<polygon fill="#8b1a1a" stroke="#8b1a1a" points="219.634,-55.5562 216.7875,-65.7615 225.3768,-59.5588 219.634,-55.5562"/>
</g>
<!-- Node15 -->
<g id="node6" class="node">
<title>Node15</title>
<polygon fill="none" stroke="#bfbfbf" points="343.5,-85 262.5,-85 262.5,-66 343.5,-66 343.5,-85"/>
<text text-anchor="middle" x="303" y="-73" font-family="Helvetica" font-size="10.00" fill="#000000">Undocumented</text>
</g>
<!-- Node15&#45;&gt;Node9 -->
<g id="edge5" class="edge">
<title>Node15&#45;&gt;Node9</title>
<path fill="none" stroke="#191970" d="M290.2182,-57.5511C281.441,-45.2256 270.125,-29.3352 262.9635,-19.2785"/>
<polygon fill="#191970" stroke="#191970" points="287.4133,-59.646 296.065,-65.7615 293.1152,-55.5855 287.4133,-59.646"/>
</g>
<!-- Node16 -->
<g id="node7" class="node">
<title>Node16</title>
<polygon fill="none" stroke="#000000" points="436.5,-85 361.5,-85 361.5,-66 436.5,-66 436.5,-85"/>
<text text-anchor="middle" x="399" y="-73" font-family="Helvetica" font-size="10.00" fill="#000000">Templ&lt; int &gt;</text>
</g>
<!-- Node16&#45;&gt;Node9 -->
<g id="edge6" class="edge">
<title>Node16&#45;&gt;Node9</title>
<path fill="none" stroke="#191970" d="M369.0065,-61.6568C341.3714,-48.9022 301.0819,-30.3071 276.8185,-19.1085"/>
<polygon fill="#191970" stroke="#191970" points="367.6602,-64.8903 378.2066,-65.903 370.5937,-58.5345 367.6602,-64.8903"/>
</g>
<!-- Node17 -->
<g id="node8" class="node">
<title>Node17</title>
<polygon fill="none" stroke="#000000" points="434.5,-151 363.5,-151 363.5,-132 434.5,-132 434.5,-151"/>
<text text-anchor="middle" x="399" y="-139" font-family="Helvetica" font-size="10.00" fill="#000000">Templ&lt; T &gt;</text>
</g>
<!-- Node17&#45;&gt;Node16 -->
<g id="edge7" class="edge">
<title>Node17&#45;&gt;Node16</title>
<path fill="none" stroke="#ffa500" stroke-dasharray="5,2" d="M399,-121.732C399,-109.6966 399,-94.847 399,-85.2785"/>
<polygon fill="#ffa500" stroke="#ffa500" points="395.5001,-121.7614 399,-131.7615 402.5001,-121.7615 395.5001,-121.7614"/>
<text text-anchor="middle" x="415" y="-106" font-family="Helvetica" font-size="10.00" fill="#000000">&lt; int &gt;</text>
</g>
<!-- Node18 -->
<g id="node9" class="node">
<title>Node18</title>
<polygon fill="none" stroke="#000000" points="493,-85 455,-85 455,-66 493,-66 493,-85"/>
<text text-anchor="middle" x="474" y="-73" font-family="Helvetica" font-size="10.00" fill="#000000">Used</text>
</g>
<!-- Node18&#45;&gt;Node9 -->
<g id="edge8" class="edge">
<title>Node18&#45;&gt;Node9</title>
<path fill="none" stroke="#9a32cd" stroke-dasharray="5,2" d="M445.0804,-65.7867C382.2566,-45.8949 319.4684,-27.6338 284.1101,-17.4966"/>
<polygon fill="#9a32cd" stroke="#9a32cd" points="444.1616,-69.1671 454.7521,-68.8621 446.2829,-62.4963 444.1616,-69.1671"/>
<text text-anchor="middle" x="411.5" y="-40" font-family="Helvetica" font-size="10.00" fill="#000000">m_usedClass</text>
</g>
</g>
</svg>
