<?xml version="1.0" encoding="UTF-8" standalone="no"?>
<!DOCTYPE svg PUBLIC "-//W3C//DTD SVG 1.1//EN"
 "http://www.w3.org/Graphics/SVG/1.1/DTD/svg11.dtd">
<!-- Generated by graphviz version 2.40.1 (20161225.0304)
 -->
<!-- Title: graphics.c Pages: 1 -->
<svg width="443pt" height="308pt"
 viewBox="0.00 0.00 442.50 308.00" xmlns="http://www.w3.org/2000/svg" xmlns:xlink="http://www.w3.org/1999/xlink">
<g id="graph0" class="graph" transform="scale(1 1) rotate(0) translate(4 304)">
<title>graphics.c</title>
<!-- Node1 -->
<g id="node1" class="node">
<title>Node1</title>
<g id="a_node1"><a xlink:title=" ">
<polygon fill="#bfbfbf" stroke="#000000" points="188,-280.5 188,-299.5 248,-299.5 248,-280.5 188,-280.5"/>
<text text-anchor="middle" x="218" y="-287.5" font-family="Helvetica" font-size="10.00" fill="#000000">graphics.c</text>
</a>
</g>
</g>
<!-- Node2 -->
<g id="node2" class="node">
<title>Node2</title>
<g id="a_node2"><a xlink:title=" ">
<polygon fill="none" stroke="#bfbfbf" points="46.5,-.5 46.5,-19.5 105.5,-19.5 105.5,-.5 46.5,-.5"/>
<text text-anchor="middle" x="76" y="-7.5" font-family="Helvetica" font-size="10.00" fill="#000000">lcom/lcf.h</text>
</a>
</g>
</g>
<!-- Node1&#45;&gt;Node2 -->
<g id="edge1" class="edge">
<title>Node1&#45;&gt;Node2</title>
<path fill="none" stroke="#191970" d="M187.688,-288.1704C127.7876,-282.7451 0,-261.3979 0,-178 0,-178 0,-178 0,-122 0,-82.2361 33.2071,-46.1042 55.7208,-26.177"/>
<polygon fill="#191970" stroke="#191970" points="58.1079,-28.7412 63.4501,-19.5918 53.5683,-23.4128 58.1079,-28.7412"/>
</g>
<!-- Node3 -->
<g id="node3" class="node">
<title>Node3</title>
<g id="a_node3"><a xlink:title=" ">
<polygon fill="none" stroke="#bfbfbf" points="156.5,-.5 156.5,-19.5 225.5,-19.5 225.5,-.5 156.5,-.5"/>
<text text-anchor="middle" x="191" y="-7.5" font-family="Helvetica" font-size="10.00" fill="#000000">lcom/liblm.h</text>
</a>
</g>
</g>
<!-- Node1&#45;&gt;Node3 -->
<g id="edge2" class="edge">
<title>Node1&#45;&gt;Node3</title>
<path fill="none" stroke="#191970" d="M223.607,-280.4834C234.1774,-261.6141 256,-217.8343 256,-178 256,-178 256,-178 256,-122 256,-91.4754 252.5062,-82.2928 237,-56 230.4111,-44.8277 220.4764,-34.4219 211.5238,-26.3433"/>
<polygon fill="#191970" stroke="#191970" points="213.5682,-23.4853 203.7023,-19.6232 209.0064,-28.7948 213.5682,-23.4853"/>
</g>
<!-- Node4 -->
<g id="node4" class="node">
<title>Node4</title>
<g id="a_node4"><a xlink:title=" ">
<polygon fill="none" stroke="#bfbfbf" points="255,-.5 255,-19.5 321,-19.5 321,-.5 255,-.5"/>
<text text-anchor="middle" x="288" y="-7.5" font-family="Helvetica" font-size="10.00" fill="#000000">lcom/proj.h</text>
</a>
</g>
</g>
<!-- Node1&#45;&gt;Node4 -->
<g id="edge3" class="edge">
<title>Node1&#45;&gt;Node4</title>
<path fill="none" stroke="#191970" d="M230.5499,-280.4082C252.136,-262.7155 294,-222.6472 294,-178 294,-178 294,-178 294,-122 294,-89.6653 291.4755,-52.1547 289.7016,-29.7876"/>
<polygon fill="#191970" stroke="#191970" points="293.1698,-29.2576 288.8597,-19.5791 286.1935,-29.833 293.1698,-29.2576"/>
</g>
<!-- Node5 -->
<g id="node5" class="node">
<title>Node5</title>
<g id="a_node5"><a xlink:title=" ">
<polygon fill="none" stroke="#bfbfbf" points="322.5,-224.5 322.5,-243.5 367.5,-243.5 367.5,-224.5 322.5,-224.5"/>
<text text-anchor="middle" x="345" y="-231.5" font-family="Helvetica" font-size="10.00" fill="#000000">stdio.h</text>
</a>
</g>
</g>
<!-- Node1&#45;&gt;Node5 -->
<g id="edge4" class="edge">
<title>Node1&#45;&gt;Node5</title>
<path fill="none" stroke="#191970" d="M239.8321,-280.3733C260.3103,-271.3435 291.1399,-257.7494 314.1319,-247.6111"/>
<polygon fill="#191970" stroke="#191970" points="315.715,-250.7383 323.4528,-243.5011 312.8907,-244.3333 315.715,-250.7383"/>
</g>
<!-- Node6 -->
<g id="node6" class="node">
<title>Node6</title>
<g id="a_node6"><a xlink:title=" ">
<polygon fill="none" stroke="#bfbfbf" points="385.5,-224.5 385.5,-243.5 434.5,-243.5 434.5,-224.5 385.5,-224.5"/>
<text text-anchor="middle" x="410" y="-231.5" font-family="Helvetica" font-size="10.00" fill="#000000">string.h</text>
</a>
</g>
</g>
<!-- Node1&#45;&gt;Node6 -->
<g id="edge5" class="edge">
<title>Node1&#45;&gt;Node6</title>
<path fill="none" stroke="#191970" d="M248.2187,-281.3802C278.2904,-272.7753 326.0027,-259.0505 375.5462,-244.4098"/>
<polygon fill="#191970" stroke="#191970" points="376.5486,-247.7633 385.1438,-241.5688 374.5617,-241.0512 376.5486,-247.7633"/>
</g>
<!-- Node7 -->
<g id="node7" class="node">
<title>Node7</title>
<g id="a_node7"><a xlink:href="../../d7/d04/graphics_8h.html" target="_top" xlink:title=" ">
<polygon fill="none" stroke="#000000" points="90.5,-224.5 90.5,-243.5 151.5,-243.5 151.5,-224.5 90.5,-224.5"/>
<text text-anchor="middle" x="121" y="-231.5" font-family="Helvetica" font-size="10.00" fill="#000000">graphics.h</text>
</a>
</g>
</g>
<!-- Node1&#45;&gt;Node7 -->
<g id="edge6" class="edge">
<title>Node1&#45;&gt;Node7</title>
<path fill="none" stroke="#191970" d="M201.1039,-280.2455C186.082,-271.5731 163.8957,-258.7645 146.679,-248.825"/>
<polygon fill="#191970" stroke="#191970" points="148.1128,-245.6114 137.7025,-243.6427 144.6129,-251.6737 148.1128,-245.6114"/>
</g>
<!-- Node8 -->
<g id="node8" class="node">
<title>Node8</title>
<g id="a_node8"><a xlink:href="../../d3/d62/player_8h.html" target="_top" xlink:title=" ">
<polygon fill="none" stroke="#000000" points="36,-168.5 36,-187.5 88,-187.5 88,-168.5 36,-168.5"/>
<text text-anchor="middle" x="62" y="-175.5" font-family="Helvetica" font-size="10.00" fill="#000000">player.h</text>
</a>
</g>
</g>
<!-- Node1&#45;&gt;Node8 -->
<g id="edge18" class="edge">
<title>Node1&#45;&gt;Node8</title>
<path fill="none" stroke="#191970" d="M187.9374,-283.353C152.3064,-274.9042 95.8774,-259.5413 81,-244 69.1731,-231.6453 64.6346,-212.4154 62.9301,-197.8933"/>
<polygon fill="#191970" stroke="#191970" points="66.4159,-197.5759 62.1052,-187.8976 59.4396,-198.1516 66.4159,-197.5759"/>
</g>
<!-- Node11 -->
<g id="node11" class="node">
<title>Node11</title>
<g id="a_node11"><a xlink:href="../../d6/d4f/enemies_8h.html" target="_top" xlink:title=" ">
<polygon fill="none" stroke="#000000" points="106.5,-168.5 106.5,-187.5 167.5,-187.5 167.5,-168.5 106.5,-168.5"/>
<text text-anchor="middle" x="137" y="-175.5" font-family="Helvetica" font-size="10.00" fill="#000000">enemies.h</text>
</a>
</g>
</g>
<!-- Node1&#45;&gt;Node11 -->
<g id="edge19" class="edge">
<title>Node1&#45;&gt;Node11</title>
<path fill="none" stroke="#191970" d="M211.094,-280.4509C197.5244,-261.688 167.1976,-219.7548 149.8428,-195.758"/>
<polygon fill="#191970" stroke="#191970" points="152.5848,-193.5768 143.8885,-187.5249 146.9127,-197.679 152.5848,-193.5768"/>
</g>
<!-- Node12 -->
<g id="node12" class="node">
<title>Node12</title>
<g id="a_node12"><a xlink:href="../../da/d15/grid_8h.html" target="_top" xlink:title=" ">
<polygon fill="none" stroke="#000000" points="186.5,-168.5 186.5,-187.5 227.5,-187.5 227.5,-168.5 186.5,-168.5"/>
<text text-anchor="middle" x="207" y="-175.5" font-family="Helvetica" font-size="10.00" fill="#000000">grid.h</text>
</a>
</g>
</g>
<!-- Node1&#45;&gt;Node12 -->
<g id="edge20" class="edge">
<title>Node1&#45;&gt;Node12</title>
<path fill="none" stroke="#191970" d="M217.0621,-280.4509C215.2681,-262.184 211.317,-221.9553 208.9346,-197.6976"/>
<polygon fill="#191970" stroke="#191970" points="212.3962,-197.1349 207.9355,-187.5249 205.4298,-197.8191 212.3962,-197.1349"/>
</g>
<!-- Node7&#45;&gt;Node8 -->
<g id="edge7" class="edge">
<title>Node7&#45;&gt;Node8</title>
<path fill="none" stroke="#191970" d="M110.723,-224.2455C102.1782,-216.1352 89.8222,-204.4075 79.6915,-194.7919"/>
<polygon fill="#191970" stroke="#191970" points="81.8218,-191.9884 72.1592,-187.6427 77.0028,-197.0655 81.8218,-191.9884"/>
</g>
<!-- Node7&#45;&gt;Node11 -->
<g id="edge15" class="edge">
<title>Node7&#45;&gt;Node11</title>
<path fill="none" stroke="#191970" d="M123.787,-224.2455C125.8977,-216.8579 128.866,-206.4689 131.4547,-197.4087"/>
<polygon fill="#191970" stroke="#191970" points="134.863,-198.2195 134.245,-187.6427 128.1323,-196.2964 134.863,-198.2195"/>
</g>
<!-- Node8&#45;&gt;Node2 -->
<g id="edge8" class="edge">
<title>Node8&#45;&gt;Node2</title>
<path fill="none" stroke="#191970" d="M61.0495,-168.4383C59.2031,-147.7771 55.8275,-97.4808 62,-56 63.3327,-47.0439 66.0494,-37.419 68.7381,-29.3"/>
<polygon fill="#191970" stroke="#191970" points="72.1067,-30.272 72.1376,-19.6772 65.5064,-27.9402 72.1067,-30.272"/>
</g>
<!-- Node9 -->
<g id="node9" class="node">
<title>Node9</title>
<g id="a_node9"><a xlink:href="../../dd/d5a/entities_8h.html" target="_top" xlink:title=" ">
<polygon fill="none" stroke="#000000" points="109,-112.5 109,-131.5 165,-131.5 165,-112.5 109,-112.5"/>
<text text-anchor="middle" x="137" y="-119.5" font-family="Helvetica" font-size="10.00" fill="#000000">entities.h</text>
</a>
</g>
</g>
<!-- Node8&#45;&gt;Node9 -->
<g id="edge9" class="edge">
<title>Node8&#45;&gt;Node9</title>
<path fill="none" stroke="#191970" d="M75.064,-168.2455C86.3562,-159.814 102.8845,-147.4729 116.0271,-137.6598"/>
<polygon fill="#191970" stroke="#191970" points="118.1669,-140.4301 124.0857,-131.6427 113.9789,-134.8211 118.1669,-140.4301"/>
</g>
<!-- Node9&#45;&gt;Node2 -->
<g id="edge10" class="edge">
<title>Node9&#45;&gt;Node2</title>
<path fill="none" stroke="#191970" d="M131.7992,-112.4509C121.6701,-93.8533 99.1429,-52.4919 86.0195,-28.3964"/>
<polygon fill="#191970" stroke="#191970" points="89.0444,-26.6328 81.1877,-19.5249 82.8971,-29.9809 89.0444,-26.6328"/>
</g>
<!-- Node10 -->
<g id="node10" class="node">
<title>Node10</title>
<g id="a_node10"><a xlink:href="../../d3/def/sprites_8h.html" target="_top" xlink:title=" ">
<polygon fill="none" stroke="#000000" points="142,-56.5 142,-75.5 228,-75.5 228,-56.5 142,-56.5"/>
<text text-anchor="middle" x="185" y="-63.5" font-family="Helvetica" font-size="10.00" fill="#000000">sprites/sprites.h</text>
</a>
</g>
</g>
<!-- Node9&#45;&gt;Node10 -->
<g id="edge11" class="edge">
<title>Node9&#45;&gt;Node10</title>
<path fill="none" stroke="#191970" d="M145.361,-112.2455C152.175,-104.2958 161.9681,-92.8706 170.1152,-83.3656"/>
<polygon fill="#191970" stroke="#191970" points="172.8843,-85.513 176.7349,-75.6427 167.5695,-80.9575 172.8843,-85.513"/>
</g>
<!-- Node10&#45;&gt;Node2 -->
<g id="edge12" class="edge">
<title>Node10&#45;&gt;Node2</title>
<path fill="none" stroke="#191970" d="M166.0136,-56.2455C148.8208,-47.4125 123.2762,-34.2887 103.7868,-24.2758"/>
<polygon fill="#191970" stroke="#191970" points="105.263,-21.0993 94.7688,-19.6427 102.0641,-27.3257 105.263,-21.0993"/>
</g>
<!-- Node10&#45;&gt;Node3 -->
<g id="edge13" class="edge">
<title>Node10&#45;&gt;Node3</title>
<path fill="none" stroke="#191970" d="M186.0451,-56.2455C186.828,-48.9382 187.9256,-38.6944 188.8888,-29.7046"/>
<polygon fill="#191970" stroke="#191970" points="192.3815,-29.9587 189.9669,-19.6427 185.4214,-29.2129 192.3815,-29.9587"/>
</g>
<!-- Node10&#45;&gt;Node4 -->
<g id="edge14" class="edge">
<title>Node10&#45;&gt;Node4</title>
<path fill="none" stroke="#191970" d="M202.9412,-56.2455C219.04,-47.4928 242.8879,-34.527 261.2391,-24.5496"/>
<polygon fill="#191970" stroke="#191970" points="263.1507,-27.4942 270.2644,-19.6427 259.8071,-21.3444 263.1507,-27.4942"/>
</g>
<!-- Node11&#45;&gt;Node2 -->
<g id="edge16" class="edge">
<title>Node11&#45;&gt;Node2</title>
<path fill="none" stroke="#191970" d="M126.8982,-168.3851C118.3873,-159.6911 106.5764,-146.1222 100,-132 84.2742,-98.2302 78.844,-54.5504 76.9749,-29.6669"/>
<polygon fill="#191970" stroke="#191970" points="80.4664,-29.419 76.3426,-19.6597 73.4803,-29.8605 80.4664,-29.419"/>
</g>
<!-- Node11&#45;&gt;Node9 -->
<g id="edge17" class="edge">
<title>Node11&#45;&gt;Node9</title>
<path fill="none" stroke="#191970" d="M137,-168.2455C137,-160.9382 137,-150.6944 137,-141.7046"/>
<polygon fill="#191970" stroke="#191970" points="140.5001,-141.6426 137,-131.6427 133.5001,-141.6427 140.5001,-141.6426"/>
</g>
<!-- Node12&#45;&gt;Node9 -->
<g id="edge21" class="edge">
<title>Node12&#45;&gt;Node9</title>
<path fill="none" stroke="#191970" d="M194.8069,-168.2455C184.3679,-159.8943 169.1345,-147.7076 156.926,-137.9408"/>
<polygon fill="#191970" stroke="#191970" points="159.0485,-135.1566 149.0533,-131.6427 154.6756,-140.6227 159.0485,-135.1566"/>
</g>
</g>
</svg>
