<?xml version="1.0" encoding="UTF-8" standalone="no"?>
<!DOCTYPE svg PUBLIC "-//W3C//DTD SVG 1.1//EN"
 "http://www.w3.org/Graphics/SVG/1.1/DTD/svg11.dtd">
<!-- Generated by graphviz version 2.40.1 (20161225.0304)
 -->
<!-- Title: spearman_act Pages: 1 -->
<!--zoomable 161 -->
<svg id="main" version="1.1" xmlns="http://www.w3.org/2000/svg" xmlns:xlink="http://www.w3.org/1999/xlink" xml:space="preserve" onload="init(evt)">
<style type="text/css"><![CDATA[
.edge:hover path { stroke: red; }
.edge:hover polygon { stroke: red; fill: red; }
]]></style>
<script type="text/javascript"><![CDATA[
var edges = document.getElementsByTagName('g');
if (edges && edges.length) {
  for (var i=0;i<edges.length;i++) {
    if (edges[i].id.substr(0,4)=='edge') {
      edges[i].setAttribute('class','edge');
    }
  }
}
]]></script>
        <defs>
                <circle id="rim" cx="0" cy="0" r="7"/>
                <circle id="rim2" cx="0" cy="0" r="3.5"/>
                <g id="zoomPlus">
                        <use xlink:href="#rim" fill="#404040">
                                <set attributeName="fill" to="#808080" begin="zoomplus.mouseover" end="zoomplus.mouseout"/>
                        </use>
                        <path d="M-4,0h8M0,-4v8" fill="none" stroke="white" stroke-width="1.5" pointer-events="none"/>
                </g>
                <g id="zoomMin">
                        <use xlink:href="#rim" fill="#404040">
                                <set attributeName="fill" to="#808080" begin="zoomminus.mouseover" end="zoomminus.mouseout"/>
                        </use>
                        <path d="M-4,0h8" fill="none" stroke="white" stroke-width="1.5" pointer-events="none"/>
                </g>
                <g id="dirArrow">
                        <path fill="none" stroke="white" stroke-width="1.5" d="M0,-3.0v7 M-2.5,-0.5L0,-3.0L2.5,-0.5"/>
                </g>
               <g id="resetDef">
                       <use xlink:href="#rim2" fill="#404040">
                               <set attributeName="fill" to="#808080" begin="reset.mouseover" end="reset.mouseout"/>
                       </use>
               </g>
        </defs>

<script type="text/javascript">
var viewWidth = 708;
var viewHeight = 161;
var sectionId = 'dynsection-10';
</script>
<script xlink:href="../../svgpan.js"/>
<svg id="graph" class="graph">
<g id="viewport">
<title>spearman_act</title>
<!-- Node1 -->
<g id="node1" class="node">
<title>Node1</title>
<g id="a_node1"><a xlink:title="The spearman acts acording to action in PA.">
<polygon fill="#bfbfbf" stroke="#000000" points="0,-95.5 0,-114.5 77,-114.5 77,-95.5 0,-95.5"/>
<text text-anchor="middle" x="38.5" y="-102.5" font-family="Helvetica" font-size="10.00" fill="#000000">spearman_act</text>
</a>
</g>
</g>
<!-- Node2 -->
<g id="node2" class="node">
<title>Node2</title>
<g id="a_node2"><a xlink:href="../../d1/db8/player_8c.html#a05430863106de447d8a85bb9d840284f" target="_top" xlink:title="The spearman attacks in its direction.">
<polygon fill="none" stroke="#000000" points="114.5,-95.5 114.5,-114.5 205.5,-114.5 205.5,-95.5 114.5,-95.5"/>
<text text-anchor="middle" x="160" y="-102.5" font-family="Helvetica" font-size="10.00" fill="#000000">spearman_attack</text>
</a>
</g>
</g>
<!-- Node1&#45;&gt;Node2 -->
<g id="edge1" class="edge">
<title>Node1&#45;&gt;Node2</title>
<path fill="none" stroke="#191970" d="M77.2774,-105C85.8554,-105 95.1089,-105 104.2128,-105"/>
<polygon fill="#191970" stroke="#191970" points="104.3839,-108.5001 114.3838,-105 104.3838,-101.5001 104.3839,-108.5001"/>
</g>
<!-- Node4 -->
<g id="node4" class="node">
<title>Node4</title>
<g id="a_node4"><a xlink:href="../../d1/db8/player_8c.html#a2e812fcd1282d5901ee15ee07434f73b" target="_top" xlink:title="The spearman moves in direction.">
<polygon fill="none" stroke="#000000" points="115.5,-133.5 115.5,-152.5 204.5,-152.5 204.5,-133.5 115.5,-133.5"/>
<text text-anchor="middle" x="160" y="-140.5" font-family="Helvetica" font-size="10.00" fill="#000000">spearman_move</text>
</a>
</g>
</g>
<!-- Node1&#45;&gt;Node4 -->
<g id="edge3" class="edge">
<title>Node1&#45;&gt;Node4</title>
<path fill="none" stroke="#191970" d="M69.1596,-114.589C84.4124,-119.3594 103.0509,-125.1888 119.4666,-130.3229"/>
<polygon fill="#191970" stroke="#191970" points="118.7614,-133.7694 129.3502,-133.4141 120.8509,-127.0886 118.7614,-133.7694"/>
</g>
<!-- Node6 -->
<g id="node6" class="node">
<title>Node6</title>
<g id="a_node6"><a xlink:href="../../d1/db8/player_8c.html#aa281b82564297b42eb7b3bf734650e36" target="_top" xlink:title="The spearman uses its special ability.">
<polygon fill="none" stroke="#000000" points="113,-57.5 113,-76.5 207,-76.5 207,-57.5 113,-57.5"/>
<text text-anchor="middle" x="160" y="-64.5" font-family="Helvetica" font-size="10.00" fill="#000000">spearman_special</text>
</a>
</g>
</g>
<!-- Node1&#45;&gt;Node6 -->
<g id="edge5" class="edge">
<title>Node1&#45;&gt;Node6</title>
<path fill="none" stroke="#191970" d="M69.1596,-95.411C84.4124,-90.6406 103.0509,-84.8112 119.4666,-79.6771"/>
<polygon fill="#191970" stroke="#191970" points="120.8509,-82.9114 129.3502,-76.5859 118.7614,-76.2306 120.8509,-82.9114"/>
</g>
<!-- Node3 -->
<g id="node3" class="node">
<title>Node3</title>
<g id="a_node3"><a xlink:href="../../d5/df6/entities_8c.html#a7458b099aabee51298042e2edde9e2d8" target="_top" xlink:title="Modifies the HP of an Entity in position ( x , y ) by health_mod.">
<polygon fill="none" stroke="#000000" points="254.5,-95.5 254.5,-114.5 343.5,-114.5 343.5,-95.5 254.5,-95.5"/>
<text text-anchor="middle" x="299" y="-102.5" font-family="Helvetica" font-size="10.00" fill="#000000">grid_health_mod</text>
</a>
</g>
</g>
<!-- Node2&#45;&gt;Node3 -->
<g id="edge2" class="edge">
<title>Node2&#45;&gt;Node3</title>
<path fill="none" stroke="#191970" d="M205.5138,-105C217.8839,-105 231.4094,-105 244.2335,-105"/>
<polygon fill="#191970" stroke="#191970" points="244.3323,-108.5001 254.3323,-105 244.3322,-101.5001 244.3323,-108.5001"/>
</g>
<!-- Node5 -->
<g id="node5" class="node">
<title>Node5</title>
<g id="a_node5"><a xlink:href="../../d5/df6/entities_8c.html#a525a3fe4f3a4d24d73ce258b817462d7" target="_top" xlink:title="Moves an entity from position ( curr_x , curr_y ) to postition ( new_x, new_y )">
<polygon fill="none" stroke="#000000" points="268,-133.5 268,-152.5 330,-152.5 330,-133.5 268,-133.5"/>
<text text-anchor="middle" x="299" y="-140.5" font-family="Helvetica" font-size="10.00" fill="#000000">grid_move</text>
</a>
</g>
</g>
<!-- Node4&#45;&gt;Node5 -->
<g id="edge4" class="edge">
<title>Node4&#45;&gt;Node5</title>
<path fill="none" stroke="#191970" d="M204.7456,-143C221.8336,-143 241.2181,-143 257.9456,-143"/>
<polygon fill="#191970" stroke="#191970" points="257.9733,-146.5001 267.9733,-143 257.9733,-139.5001 257.9733,-146.5001"/>
</g>
<!-- Node6&#45;&gt;Node3 -->
<g id="edge6" class="edge">
<title>Node6&#45;&gt;Node3</title>
<path fill="none" stroke="#191970" d="M195.0756,-76.589C213.0191,-81.4944 235.0584,-87.5196 254.2167,-92.7571"/>
<polygon fill="#191970" stroke="#191970" points="253.3666,-96.1531 263.9357,-95.4141 255.2126,-89.4008 253.3666,-96.1531"/>
</g>
<!-- Node7 -->
<g id="node7" class="node">
<title>Node7</title>
<g id="a_node7"><a xlink:href="../../d4/dcc/rtc_8c.html#adb4289b2015a3ec052bae20542244311" target="_top" xlink:title="Sets an alarm at current_time + delta_seconds.">
<polygon fill="none" stroke="#000000" points="243,-57.5 243,-76.5 355,-76.5 355,-57.5 243,-57.5"/>
<text text-anchor="middle" x="299" y="-64.5" font-family="Helvetica" font-size="10.00" fill="#000000">rtc_set_alarm_delta_s</text>
</a>
</g>
</g>
<!-- Node6&#45;&gt;Node7 -->
<g id="edge7" class="edge">
<title>Node6&#45;&gt;Node7</title>
<path fill="none" stroke="#191970" d="M207.0591,-67C215.3239,-67 224.0631,-67 232.7349,-67"/>
<polygon fill="#191970" stroke="#191970" points="232.8516,-70.5001 242.8515,-67 232.8515,-63.5001 232.8516,-70.5001"/>
</g>
<!-- Node8 -->
<g id="node8" class="node">
<title>Node8</title>
<g id="a_node8"><a xlink:href="../../d4/dcc/rtc_8c.html#a9a867345f9d2703ac913a6b8624f560c" target="_top" xlink:title="Converts a number in BCD to binary.">
<polygon fill="none" stroke="#000000" points="391,-114.5 391,-133.5 468,-133.5 468,-114.5 391,-114.5"/>
<text text-anchor="middle" x="429.5" y="-121.5" font-family="Helvetica" font-size="10.00" fill="#000000">bcd_to_binary</text>
</a>
</g>
</g>
<!-- Node7&#45;&gt;Node8 -->
<g id="edge8" class="edge">
<title>Node7&#45;&gt;Node8</title>
<path fill="none" stroke="#191970" d="M330.141,-76.5892C338.326,-79.3738 347.0784,-82.5912 355,-86 371.6184,-93.1511 374.8867,-96.7738 391,-105 394.1492,-106.6077 397.4532,-108.272 400.7466,-109.9167"/>
<polygon fill="#191970" stroke="#191970" points="399.3486,-113.1301 409.8626,-114.4368 402.4583,-106.8587 399.3486,-113.1301"/>
</g>
<!-- Node9 -->
<g id="node9" class="node">
<title>Node9</title>
<g id="a_node9"><a xlink:href="../../d4/dcc/rtc_8c.html#a36f9a08f7379a6156dfbdd5da41a8668" target="_top" xlink:title="Converts a number in binary to BCD.">
<polygon fill="none" stroke="#000000" points="391,-76.5 391,-95.5 468,-95.5 468,-76.5 391,-76.5"/>
<text text-anchor="middle" x="429.5" y="-83.5" font-family="Helvetica" font-size="10.00" fill="#000000">binary_to_bcd</text>
</a>
</g>
</g>
<!-- Node7&#45;&gt;Node9 -->
<g id="edge9" class="edge">
<title>Node7&#45;&gt;Node9</title>
<path fill="none" stroke="#191970" d="M355.1011,-75.168C363.6468,-76.4122 372.406,-77.6875 380.7768,-78.9062"/>
<polygon fill="#191970" stroke="#191970" points="380.3542,-82.3815 390.7542,-80.3588 381.3628,-75.4545 380.3542,-82.3815"/>
</g>
<!-- Node10 -->
<g id="node10" class="node">
<title>Node10</title>
<g id="a_node10"><a xlink:href="../../d4/dcc/rtc_8c.html#a01efed7ef3d173bcbbeefbde025f38ac" target="_top" xlink:title="Reads the time from the RTC.">
<polygon fill="none" stroke="#000000" points="391,-38.5 391,-57.5 468,-57.5 468,-38.5 391,-38.5"/>
<text text-anchor="middle" x="429.5" y="-45.5" font-family="Helvetica" font-size="10.00" fill="#000000">rtc_read_time</text>
</a>
</g>
</g>
<!-- Node7&#45;&gt;Node10 -->
<g id="edge10" class="edge">
<title>Node7&#45;&gt;Node10</title>
<path fill="none" stroke="#191970" d="M355.1011,-58.832C363.6468,-57.5878 372.406,-56.3125 380.7768,-55.0938"/>
<polygon fill="#191970" stroke="#191970" points="381.3628,-58.5455 390.7542,-53.6412 380.3542,-51.6185 381.3628,-58.5455"/>
</g>
<!-- Node13 -->
<g id="node13" class="node">
<title>Node13</title>
<g id="a_node13"><a xlink:href="../../d4/dcc/rtc_8c.html#ae91804ce10b51363ab8dcee2bb002c5e" target="_top" xlink:title="Sets an alarm at hours : minutes : seconds.">
<polygon fill="none" stroke="#000000" points="391.5,-.5 391.5,-19.5 467.5,-19.5 467.5,-.5 391.5,-.5"/>
<text text-anchor="middle" x="429.5" y="-7.5" font-family="Helvetica" font-size="10.00" fill="#000000">rtc_set_alarm</text>
</a>
</g>
</g>
<!-- Node7&#45;&gt;Node13 -->
<g id="edge13" class="edge">
<title>Node7&#45;&gt;Node13</title>
<path fill="none" stroke="#191970" d="M320.8428,-57.4595C342.0152,-48.2117 374.347,-34.0898 398.2414,-23.6532"/>
<polygon fill="#191970" stroke="#191970" points="399.8229,-26.7818 407.586,-19.5716 397.021,-20.367 399.8229,-26.7818"/>
</g>
<!-- Node11 -->
<g id="node11" class="node">
<title>Node11</title>
<g id="a_node11"><a xlink:href="../../d4/dcc/rtc_8c.html#abf6f23e3a37b625fce812ca09b3f35df" target="_top" xlink:title="Reads the Register reg of the RTC.">
<polygon fill="none" stroke="#000000" points="505,-38.5 505,-57.5 596,-57.5 596,-38.5 505,-38.5"/>
<text text-anchor="middle" x="550.5" y="-45.5" font-family="Helvetica" font-size="10.00" fill="#000000">rtc_read_register</text>
</a>
</g>
</g>
<!-- Node10&#45;&gt;Node11 -->
<g id="edge11" class="edge">
<title>Node10&#45;&gt;Node11</title>
<path fill="none" stroke="#191970" d="M468.1178,-48C476.5601,-48 485.6592,-48 494.6223,-48"/>
<polygon fill="#191970" stroke="#191970" points="494.6419,-51.5001 504.6419,-48 494.6418,-44.5001 494.6419,-51.5001"/>
</g>
<!-- Node12 -->
<g id="node12" class="node">
<title>Node12</title>
<g id="a_node12"><a xlink:href="../../d3/d91/utils_8c.html#a79a031a8611f5b2d6afa4158e92b0fb4" target="_top" xlink:title="Gets from port 8 bit information to value.">
<polygon fill="none" stroke="#000000" points="633,-38.5 633,-57.5 700,-57.5 700,-38.5 633,-38.5"/>
<text text-anchor="middle" x="666.5" y="-45.5" font-family="Helvetica" font-size="10.00" fill="#000000">util_sys_inb</text>
</a>
</g>
</g>
<!-- Node11&#45;&gt;Node12 -->
<g id="edge12" class="edge">
<title>Node11&#45;&gt;Node12</title>
<path fill="none" stroke="#191970" d="M596.0133,-48C604.8638,-48 614.1215,-48 622.9082,-48"/>
<polygon fill="#191970" stroke="#191970" points="622.9541,-51.5001 632.9541,-48 622.954,-44.5001 622.9541,-51.5001"/>
</g>
<!-- Node14 -->
<g id="node14" class="node">
<title>Node14</title>
<g id="a_node14"><a xlink:href="../../d4/dcc/rtc_8c.html#a9356a574f1893f56d0973dd06db6ed74" target="_top" xlink:title="Writes to the Register reg of the RTC data.">
<polygon fill="none" stroke="#000000" points="504,-.5 504,-19.5 597,-19.5 597,-.5 504,-.5"/>
<text text-anchor="middle" x="550.5" y="-7.5" font-family="Helvetica" font-size="10.00" fill="#000000">rtc_write_register</text>
</a>
</g>
</g>
<!-- Node13&#45;&gt;Node14 -->
<g id="edge14" class="edge">
<title>Node13&#45;&gt;Node14</title>
<path fill="none" stroke="#191970" d="M467.7852,-10C476.046,-10 484.9485,-10 493.745,-10"/>
<polygon fill="#191970" stroke="#191970" points="493.9779,-13.5001 503.9778,-10 493.9778,-6.5001 493.9779,-13.5001"/>
</g>
</g>
</svg>
        <g id="navigator" transform="translate(0 0)" fill="#404254">
                <rect fill="#f2f5e9" fill-opacity="0.5" stroke="#606060" stroke-width=".5" x="0" y="0" width="60" height="60"/>
                <use id="zoomplus" xlink:href="#zoomPlus" x="17" y="9" onmousedown="handleZoom(evt,'in')"/>
                <use id="zoomminus" xlink:href="#zoomMin" x="42" y="9" onmousedown="handleZoom(evt,'out')"/>
                <use id="reset" xlink:href="#resetDef" x="30" y="36" onmousedown="handleReset()"/>
                <g id="arrowUp" xlink:href="#dirArrow" transform="translate(30 24)" onmousedown="handlePan(0,-1)">
                  <use xlink:href="#rim" fill="#404040">
                        <set attributeName="fill" to="#808080" begin="arrowUp.mouseover" end="arrowUp.mouseout"/>
                  </use>
                  <path fill="none" stroke="white" stroke-width="1.5" d="M0,-3.0v7 M-2.5,-0.5L0,-3.0L2.5,-0.5"/>
                </g>
                <g id="arrowRight" xlink:href="#dirArrow" transform="rotate(90) translate(36 -43)" onmousedown="handlePan(1,0)">
                  <use xlink:href="#rim" fill="#404040">
                        <set attributeName="fill" to="#808080" begin="arrowRight.mouseover" end="arrowRight.mouseout"/>
                  </use>
                  <path fill="none" stroke="white" stroke-width="1.5" d="M0,-3.0v7 M-2.5,-0.5L0,-3.0L2.5,-0.5"/>
                </g>
                <g id="arrowDown" xlink:href="#dirArrow" transform="rotate(180) translate(-30 -48)" onmousedown="handlePan(0,1)">
                  <use xlink:href="#rim" fill="#404040">
                        <set attributeName="fill" to="#808080" begin="arrowDown.mouseover" end="arrowDown.mouseout"/>
                  </use>
                  <path fill="none" stroke="white" stroke-width="1.5" d="M0,-3.0v7 M-2.5,-0.5L0,-3.0L2.5,-0.5"/>
                </g>
                <g id="arrowLeft" xlink:href="#dirArrow" transform="rotate(270) translate(-36 17)" onmousedown="handlePan(-1,0)">
                  <use xlink:href="#rim" fill="#404040">
                        <set attributeName="fill" to="#808080" begin="arrowLeft.mouseover" end="arrowLeft.mouseout"/>
                  </use>
                  <path fill="none" stroke="white" stroke-width="1.5" d="M0,-3.0v7 M-2.5,-0.5L0,-3.0L2.5,-0.5"/>
                </g>
        </g>
        <svg viewBox="0 0 15 15" width="100%" height="30px" preserveAspectRatio="xMaxYMin meet">
         <g id="arrow_out" transform="scale(0.3 0.3)">
          <a xlink:href="player_8h_a43024b59b971eee693bdf802580d046e_cgraph_org.svg" target="_base">
           <rect id="button" ry="5" rx="5" y="6" x="6" height="38" width="38"
                fill="#f2f5e9" fill-opacity="0.5" stroke="#606060" stroke-width="1.0"/>
           <path id="arrow"
             d="M 11.500037,31.436501 C 11.940474,20.09759 22.043105,11.32322 32.158766,21.979434 L 37.068811,17.246167 C 37.068811,17.246167 37.088388,32 37.088388,32 L 22.160133,31.978069 C 22.160133,31.978069 26.997745,27.140456 26.997745,27.140456 C 18.528582,18.264221 13.291696,25.230495 11.500037,31.436501 z"
             style="fill:#404040;"/>
          </a>
         </g>
        </svg>
</svg>
