<?xml version="1.0" encoding="UTF-8" standalone="no"?>
<!DOCTYPE svg PUBLIC "-//W3C//DTD SVG 1.1//EN"
 "http://www.w3.org/Graphics/SVG/1.1/DTD/svg11.dtd">
<!-- Generated by graphviz version 2.40.1 (20161225.0304)
 -->
<!-- Title: spearman_special Pages: 1 -->
<svg width="595pt" height="142pt"
 viewBox="0.00 0.00 595.00 142.00" xmlns="http://www.w3.org/2000/svg" xmlns:xlink="http://www.w3.org/1999/xlink">
<g id="graph0" class="graph" transform="scale(1 1) rotate(0) translate(4 138)">
<title>spearman_special</title>
<!-- Node1 -->
<g id="node1" class="node">
<title>Node1</title>
<g id="a_node1"><a xlink:title="The spearman uses its special ability.">
<polygon fill="#bfbfbf" stroke="#000000" points="0,-76.5 0,-95.5 94,-95.5 94,-76.5 0,-76.5"/>
<text text-anchor="middle" x="47" y="-83.5" font-family="Helvetica" font-size="10.00" fill="#000000">spearman_special</text>
</a>
</g>
</g>
<!-- Node2 -->
<g id="node2" class="node">
<title>Node2</title>
<g id="a_node2"><a xlink:href="../../d5/df6/entities_8c.html#a7458b099aabee51298042e2edde9e2d8" target="_top" xlink:title="Modifies the HP of an Entity in position ( x , y ) by health_mod.">
<polygon fill="none" stroke="#000000" points="141.5,-95.5 141.5,-114.5 230.5,-114.5 230.5,-95.5 141.5,-95.5"/>
<text text-anchor="middle" x="186" y="-102.5" font-family="Helvetica" font-size="10.00" fill="#000000">grid_health_mod</text>
</a>
</g>
</g>
<!-- Node1&#45;&gt;Node2 -->
<g id="edge1" class="edge">
<title>Node1&#45;&gt;Node2</title>
<path fill="none" stroke="#191970" d="M94.0591,-92.4325C105.9961,-94.0642 118.9225,-95.8311 131.2066,-97.5102"/>
<polygon fill="#191970" stroke="#191970" points="130.9563,-101.0085 141.3382,-98.8952 131.9044,-94.073 130.9563,-101.0085"/>
</g>
<!-- Node3 -->
<g id="node3" class="node">
<title>Node3</title>
<g id="a_node3"><a xlink:href="../../d4/dcc/rtc_8c.html#adb4289b2015a3ec052bae20542244311" target="_top" xlink:title="Sets an alarm at current_time + delta_seconds.">
<polygon fill="none" stroke="#000000" points="130,-57.5 130,-76.5 242,-76.5 242,-57.5 130,-57.5"/>
<text text-anchor="middle" x="186" y="-64.5" font-family="Helvetica" font-size="10.00" fill="#000000">rtc_set_alarm_delta_s</text>
</a>
</g>
</g>
<!-- Node1&#45;&gt;Node3 -->
<g id="edge2" class="edge">
<title>Node1&#45;&gt;Node3</title>
<path fill="none" stroke="#191970" d="M94.0591,-79.5675C102.3239,-78.4377 111.0631,-77.2432 119.7349,-76.0578"/>
<polygon fill="#191970" stroke="#191970" points="120.4177,-79.4971 129.8515,-74.675 119.4696,-72.5616 120.4177,-79.4971"/>
</g>
<!-- Node4 -->
<g id="node4" class="node">
<title>Node4</title>
<g id="a_node4"><a xlink:href="../../d4/dcc/rtc_8c.html#a9a867345f9d2703ac913a6b8624f560c" target="_top" xlink:title="Converts a number in BCD to binary.">
<polygon fill="none" stroke="#000000" points="278,-114.5 278,-133.5 355,-133.5 355,-114.5 278,-114.5"/>
<text text-anchor="middle" x="316.5" y="-121.5" font-family="Helvetica" font-size="10.00" fill="#000000">bcd_to_binary</text>
</a>
</g>
</g>
<!-- Node3&#45;&gt;Node4 -->
<g id="edge3" class="edge">
<title>Node3&#45;&gt;Node4</title>
<path fill="none" stroke="#191970" d="M217.141,-76.5892C225.326,-79.3738 234.0784,-82.5912 242,-86 258.6184,-93.1511 261.8867,-96.7738 278,-105 281.1492,-106.6077 284.4532,-108.272 287.7466,-109.9167"/>
<polygon fill="#191970" stroke="#191970" points="286.3486,-113.1301 296.8626,-114.4368 289.4583,-106.8587 286.3486,-113.1301"/>
</g>
<!-- Node5 -->
<g id="node5" class="node">
<title>Node5</title>
<g id="a_node5"><a xlink:href="../../d4/dcc/rtc_8c.html#a36f9a08f7379a6156dfbdd5da41a8668" target="_top" xlink:title="Converts a number in binary to BCD.">
<polygon fill="none" stroke="#000000" points="278,-76.5 278,-95.5 355,-95.5 355,-76.5 278,-76.5"/>
<text text-anchor="middle" x="316.5" y="-83.5" font-family="Helvetica" font-size="10.00" fill="#000000">binary_to_bcd</text>
</a>
</g>
</g>
<!-- Node3&#45;&gt;Node5 -->
<g id="edge4" class="edge">
<title>Node3&#45;&gt;Node5</title>
<path fill="none" stroke="#191970" d="M242.1011,-75.168C250.6468,-76.4122 259.406,-77.6875 267.7768,-78.9062"/>
<polygon fill="#191970" stroke="#191970" points="267.3542,-82.3815 277.7542,-80.3588 268.3628,-75.4545 267.3542,-82.3815"/>
</g>
<!-- Node6 -->
<g id="node6" class="node">
<title>Node6</title>
<g id="a_node6"><a xlink:href="../../d4/dcc/rtc_8c.html#a01efed7ef3d173bcbbeefbde025f38ac" target="_top" xlink:title="Reads the time from the RTC.">
<polygon fill="none" stroke="#000000" points="278,-38.5 278,-57.5 355,-57.5 355,-38.5 278,-38.5"/>
<text text-anchor="middle" x="316.5" y="-45.5" font-family="Helvetica" font-size="10.00" fill="#000000">rtc_read_time</text>
</a>
</g>
</g>
<!-- Node3&#45;&gt;Node6 -->
<g id="edge5" class="edge">
<title>Node3&#45;&gt;Node6</title>
<path fill="none" stroke="#191970" d="M242.1011,-58.832C250.6468,-57.5878 259.406,-56.3125 267.7768,-55.0938"/>
<polygon fill="#191970" stroke="#191970" points="268.3628,-58.5455 277.7542,-53.6412 267.3542,-51.6185 268.3628,-58.5455"/>
</g>
<!-- Node9 -->
<g id="node9" class="node">
<title>Node9</title>
<g id="a_node9"><a xlink:href="../../d4/dcc/rtc_8c.html#ae91804ce10b51363ab8dcee2bb002c5e" target="_top" xlink:title="Sets an alarm at hours : minutes : seconds.">
<polygon fill="none" stroke="#000000" points="278.5,-.5 278.5,-19.5 354.5,-19.5 354.5,-.5 278.5,-.5"/>
<text text-anchor="middle" x="316.5" y="-7.5" font-family="Helvetica" font-size="10.00" fill="#000000">rtc_set_alarm</text>
</a>
</g>
</g>
<!-- Node3&#45;&gt;Node9 -->
<g id="edge8" class="edge">
<title>Node3&#45;&gt;Node9</title>
<path fill="none" stroke="#191970" d="M207.8428,-57.4595C229.0152,-48.2117 261.347,-34.0898 285.2414,-23.6532"/>
<polygon fill="#191970" stroke="#191970" points="286.8229,-26.7818 294.586,-19.5716 284.021,-20.367 286.8229,-26.7818"/>
</g>
<!-- Node7 -->
<g id="node7" class="node">
<title>Node7</title>
<g id="a_node7"><a xlink:href="../../d4/dcc/rtc_8c.html#abf6f23e3a37b625fce812ca09b3f35df" target="_top" xlink:title="Reads the Register reg of the RTC.">
<polygon fill="none" stroke="#000000" points="392,-38.5 392,-57.5 483,-57.5 483,-38.5 392,-38.5"/>
<text text-anchor="middle" x="437.5" y="-45.5" font-family="Helvetica" font-size="10.00" fill="#000000">rtc_read_register</text>
</a>
</g>
</g>
<!-- Node6&#45;&gt;Node7 -->
<g id="edge6" class="edge">
<title>Node6&#45;&gt;Node7</title>
<path fill="none" stroke="#191970" d="M355.1178,-48C363.5601,-48 372.6592,-48 381.6223,-48"/>
<polygon fill="#191970" stroke="#191970" points="381.6419,-51.5001 391.6419,-48 381.6418,-44.5001 381.6419,-51.5001"/>
</g>
<!-- Node8 -->
<g id="node8" class="node">
<title>Node8</title>
<g id="a_node8"><a xlink:href="../../d3/d91/utils_8c.html#a79a031a8611f5b2d6afa4158e92b0fb4" target="_top" xlink:title="Gets from port 8 bit information to value.">
<polygon fill="none" stroke="#000000" points="520,-38.5 520,-57.5 587,-57.5 587,-38.5 520,-38.5"/>
<text text-anchor="middle" x="553.5" y="-45.5" font-family="Helvetica" font-size="10.00" fill="#000000">util_sys_inb</text>
</a>
</g>
</g>
<!-- Node7&#45;&gt;Node8 -->
<g id="edge7" class="edge">
<title>Node7&#45;&gt;Node8</title>
<path fill="none" stroke="#191970" d="M483.0133,-48C491.8638,-48 501.1215,-48 509.9082,-48"/>
<polygon fill="#191970" stroke="#191970" points="509.9541,-51.5001 519.9541,-48 509.954,-44.5001 509.9541,-51.5001"/>
</g>
<!-- Node10 -->
<g id="node10" class="node">
<title>Node10</title>
<g id="a_node10"><a xlink:href="../../d4/dcc/rtc_8c.html#a9356a574f1893f56d0973dd06db6ed74" target="_top" xlink:title="Writes to the Register reg of the RTC data.">
<polygon fill="none" stroke="#000000" points="391,-.5 391,-19.5 484,-19.5 484,-.5 391,-.5"/>
<text text-anchor="middle" x="437.5" y="-7.5" font-family="Helvetica" font-size="10.00" fill="#000000">rtc_write_register</text>
</a>
</g>
</g>
<!-- Node9&#45;&gt;Node10 -->
<g id="edge9" class="edge">
<title>Node9&#45;&gt;Node10</title>
<path fill="none" stroke="#191970" d="M354.7852,-10C363.046,-10 371.9485,-10 380.745,-10"/>
<polygon fill="#191970" stroke="#191970" points="380.9779,-13.5001 390.9778,-10 380.9778,-6.5001 380.9779,-13.5001"/>
</g>
</g>
</svg>
