<?xml version="1.0" encoding="UTF-8" standalone="no"?>
<!DOCTYPE svg PUBLIC "-//W3C//DTD SVG 1.1//EN"
 "http://www.w3.org/Graphics/SVG/1.1/DTD/svg11.dtd">
<!-- Generated by graphviz version 2.40.1 (20161225.0304)
 -->
<!-- Title: spearman_special Pages: 1 -->
<!--zoomable 142 -->
<svg id="main" version="1.1" xmlns="http://www.w3.org/2000/svg" xmlns:xlink="http://www.w3.org/1999/xlink" xml:space="preserve" onload="init(evt)">
<style type="text/css"><![CDATA[
.edge:hover path { stroke: red; }
.edge:hover polygon { stroke: red; fill: red; }
]]></style>
<script type="text/javascript"><![CDATA[
var edges = document.getElementsByTagName('g');
if (edges && edges.length) {
  for (var i=0;i<edges.length;i++) {
    if (edges[i].id.substr(0,4)=='edge') {
      edges[i].setAttribute('class','edge');
    }
  }
}
]]></script>
        <defs>
                <circle id="rim" cx="0" cy="0" r="7"/>
                <circle id="rim2" cx="0" cy="0" r="3.5"/>
                <g id="zoomPlus">
                        <use xlink:href="#rim" fill="#404040">
                                <set attributeName="fill" to="#808080" begin="zoomplus.mouseover" end="zoomplus.mouseout"/>
                        </use>
                        <path d="M-4,0h8M0,-4v8" fill="none" stroke="white" stroke-width="1.5" pointer-events="none"/>
                </g>
                <g id="zoomMin">
                        <use xlink:href="#rim" fill="#404040">
                                <set attributeName="fill" to="#808080" begin="zoomminus.mouseover" end="zoomminus.mouseout"/>
                        </use>
                        <path d="M-4,0h8" fill="none" stroke="white" stroke-width="1.5" pointer-events="none"/>
                </g>
                <g id="dirArrow">
                        <path fill="none" stroke="white" stroke-width="1.5" d="M0,-3.0v7 M-2.5,-0.5L0,-3.0L2.5,-0.5"/>
                </g>
               <g id="resetDef">
                       <use xlink:href="#rim2" fill="#404040">
                               <set attributeName="fill" to="#808080" begin="reset.mouseover" end="reset.mouseout"/>
                       </use>
               </g>
        </defs>

<script type="text/javascript">
var viewWidth = 595;
var viewHeight = 142;
var sectionId = 'dynsection-16';
</script>
<script xlink:href="../../svgpan.js"/>
<svg id="graph" class="graph">
<g id="viewport">
<title>spearman_special</title>
<!-- Node1 -->
<g id="node1" class="node">
<title>Node1</title>
<g id="a_node1"><a xlink:title="The spearman uses its special ability.">
<polygon fill="#bfbfbf" stroke="#000000" points="0,-76.5 0,-95.5 94,-95.5 94,-76.5 0,-76.5"/>
<text text-anchor="middle" x="47" y="-83.5" font-family="Helvetica" font-size="10.00" fill="#000000">spearman_special</text>
</a>
</g>
</g>
<!-- Node2 -->
<g id="node2" class="node">
<title>Node2</title>
<g id="a_node2"><a xlink:href="../../d5/df6/entities_8c.html#a7458b099aabee51298042e2edde9e2d8" target="_top" xlink:title="Modifies the HP of an Entity in position ( x , y ) by health_mod.">
<polygon fill="none" stroke="#000000" points="141.5,-95.5 141.5,-114.5 230.5,-114.5 230.5,-95.5 141.5,-95.5"/>
<text text-anchor="middle" x="186" y="-102.5" font-family="Helvetica" font-size="10.00" fill="#000000">grid_health_mod</text>
</a>
</g>
</g>
<!-- Node1&#45;&gt;Node2 -->
<g id="edge1" class="edge">
<title>Node1&#45;&gt;Node2</title>
<path fill="none" stroke="#191970" d="M94.0591,-92.4325C105.9961,-94.0642 118.9225,-95.8311 131.2066,-97.5102"/>
<polygon fill="#191970" stroke="#191970" points="130.9563,-101.0085 141.3382,-98.8952 131.9044,-94.073 130.9563,-101.0085"/>
</g>
<!-- Node3 -->
<g id="node3" class="node">
<title>Node3</title>
<g id="a_node3"><a xlink:href="../../d4/dcc/rtc_8c.html#adb4289b2015a3ec052bae20542244311" target="_top" xlink:title="Sets an alarm at current_time + delta_seconds.">
<polygon fill="none" stroke="#000000" points="130,-57.5 130,-76.5 242,-76.5 242,-57.5 130,-57.5"/>
<text text-anchor="middle" x="186" y="-64.5" font-family="Helvetica" font-size="10.00" fill="#000000">rtc_set_alarm_delta_s</text>
</a>
</g>
</g>
<!-- Node1&#45;&gt;Node3 -->
<g id="edge2" class="edge">
<title>Node1&#45;&gt;Node3</title>
<path fill="none" stroke="#191970" d="M94.0591,-79.5675C102.3239,-78.4377 111.0631,-77.2432 119.7349,-76.0578"/>
<polygon fill="#191970" stroke="#191970" points="120.4177,-79.4971 129.8515,-74.675 119.4696,-72.5616 120.4177,-79.4971"/>
</g>
<!-- Node4 -->
<g id="node4" class="node">
<title>Node4</title>
<g id="a_node4"><a xlink:href="../../d4/dcc/rtc_8c.html#a9a867345f9d2703ac913a6b8624f560c" target="_top" xlink:title="Converts a number in BCD to binary.">
<polygon fill="none" stroke="#000000" points="278,-114.5 278,-133.5 355,-133.5 355,-114.5 278,-114.5"/>
<text text-anchor="middle" x="316.5" y="-121.5" font-family="Helvetica" font-size="10.00" fill="#000000">bcd_to_binary</text>
</a>
</g>
</g>
<!-- Node3&#45;&gt;Node4 -->
<g id="edge3" class="edge">
<title>Node3&#45;&gt;Node4</title>
<path fill="none" stroke="#191970" d="M217.141,-76.5892C225.326,-79.3738 234.0784,-82.5912 242,-86 258.6184,-93.1511 261.8867,-96.7738 278,-105 281.1492,-106.6077 284.4532,-108.272 287.7466,-109.9167"/>
<polygon fill="#191970" stroke="#191970" points="286.3486,-113.1301 296.8626,-114.4368 289.4583,-106.8587 286.3486,-113.1301"/>
</g>
<!-- Node5 -->
<g id="node5" class="node">
<title>Node5</title>
<g id="a_node5"><a xlink:href="../../d4/dcc/rtc_8c.html#a36f9a08f7379a6156dfbdd5da41a8668" target="_top" xlink:title="Converts a number in binary to BCD.">
<polygon fill="none" stroke="#000000" points="278,-76.5 278,-95.5 355,-95.5 355,-76.5 278,-76.5"/>
<text text-anchor="middle" x="316.5" y="-83.5" font-family="Helvetica" font-size="10.00" fill="#000000">binary_to_bcd</text>
</a>
</g>
</g>
<!-- Node3&#45;&gt;Node5 -->
<g id="edge4" class="edge">
<title>Node3&#45;&gt;Node5</title>
<path fill="none" stroke="#191970" d="M242.1011,-75.168C250.6468,-76.4122 259.406,-77.6875 267.7768,-78.9062"/>
<polygon fill="#191970" stroke="#191970" points="267.3542,-82.3815 277.7542,-80.3588 268.3628,-75.4545 267.3542,-82.3815"/>
</g>
<!-- Node6 -->
<g id="node6" class="node">
<title>Node6</title>
<g id="a_node6"><a xlink:href="../../d4/dcc/rtc_8c.html#a01efed7ef3d173bcbbeefbde025f38ac" target="_top" xlink:title="Reads the time from the RTC.">
<polygon fill="none" stroke="#000000" points="278,-38.5 278,-57.5 355,-57.5 355,-38.5 278,-38.5"/>
<text text-anchor="middle" x="316.5" y="-45.5" font-family="Helvetica" font-size="10.00" fill="#000000">rtc_read_time</text>
</a>
</g>
</g>
<!-- Node3&#45;&gt;Node6 -->
<g id="edge5" class="edge">
<title>Node3&#45;&gt;Node6</title>
<path fill="none" stroke="#191970" d="M242.1011,-58.832C250.6468,-57.5878 259.406,-56.3125 267.7768,-55.0938"/>
<polygon fill="#191970" stroke="#191970" points="268.3628,-58.5455 277.7542,-53.6412 267.3542,-51.6185 268.3628,-58.5455"/>
</g>
<!-- Node9 -->
<g id="node9" class="node">
<title>Node9</title>
<g id="a_node9"><a xlink:href="../../d4/dcc/rtc_8c.html#ae91804ce10b51363ab8dcee2bb002c5e" target="_top" xlink:title="Sets an alarm at hours : minutes : seconds.">
<polygon fill="none" stroke="#000000" points="278.5,-.5 278.5,-19.5 354.5,-19.5 354.5,-.5 278.5,-.5"/>
<text text-anchor="middle" x="316.5" y="-7.5" font-family="Helvetica" font-size="10.00" fill="#000000">rtc_set_alarm</text>
</a>
</g>
</g>
<!-- Node3&#45;&gt;Node9 -->
<g id="edge8" class="edge">
<title>Node3&#45;&gt;Node9</title>
<path fill="none" stroke="#191970" d="M207.8428,-57.4595C229.0152,-48.2117 261.347,-34.0898 285.2414,-23.6532"/>
<polygon fill="#191970" stroke="#191970" points="286.8229,-26.7818 294.586,-19.5716 284.021,-20.367 286.8229,-26.7818"/>
</g>
<!-- Node7 -->
<g id="node7" class="node">
<title>Node7</title>
<g id="a_node7"><a xlink:href="../../d4/dcc/rtc_8c.html#abf6f23e3a37b625fce812ca09b3f35df" target="_top" xlink:title="Reads the Register reg of the RTC.">
<polygon fill="none" stroke="#000000" points="392,-38.5 392,-57.5 483,-57.5 483,-38.5 392,-38.5"/>
<text text-anchor="middle" x="437.5" y="-45.5" font-family="Helvetica" font-size="10.00" fill="#000000">rtc_read_register</text>
</a>
</g>
</g>
<!-- Node6&#45;&gt;Node7 -->
<g id="edge6" class="edge">
<title>Node6&#45;&gt;Node7</title>
<path fill="none" stroke="#191970" d="M355.1178,-48C363.5601,-48 372.6592,-48 381.6223,-48"/>
<polygon fill="#191970" stroke="#191970" points="381.6419,-51.5001 391.6419,-48 381.6418,-44.5001 381.6419,-51.5001"/>
</g>
<!-- Node8 -->
<g id="node8" class="node">
<title>Node8</title>
<g id="a_node8"><a xlink:href="../../d3/d91/utils_8c.html#a79a031a8611f5b2d6afa4158e92b0fb4" target="_top" xlink:title="Gets from port 8 bit information to value.">
<polygon fill="none" stroke="#000000" points="520,-38.5 520,-57.5 587,-57.5 587,-38.5 520,-38.5"/>
<text text-anchor="middle" x="553.5" y="-45.5" font-family="Helvetica" font-size="10.00" fill="#000000">util_sys_inb</text>
</a>
</g>
</g>
<!-- Node7&#45;&gt;Node8 -->
<g id="edge7" class="edge">
<title>Node7&#45;&gt;Node8</title>
<path fill="none" stroke="#191970" d="M483.0133,-48C491.8638,-48 501.1215,-48 509.9082,-48"/>
<polygon fill="#191970" stroke="#191970" points="509.9541,-51.5001 519.9541,-48 509.954,-44.5001 509.9541,-51.5001"/>
</g>
<!-- Node10 -->
<g id="node10" class="node">
<title>Node10</title>
<g id="a_node10"><a xlink:href="../../d4/dcc/rtc_8c.html#a9356a574f1893f56d0973dd06db6ed74" target="_top" xlink:title="Writes to the Register reg of the RTC data.">
<polygon fill="none" stroke="#000000" points="391,-.5 391,-19.5 484,-19.5 484,-.5 391,-.5"/>
<text text-anchor="middle" x="437.5" y="-7.5" font-family="Helvetica" font-size="10.00" fill="#000000">rtc_write_register</text>
</a>
</g>
</g>
<!-- Node9&#45;&gt;Node10 -->
<g id="edge9" class="edge">
<title>Node9&#45;&gt;Node10</title>
<path fill="none" stroke="#191970" d="M354.7852,-10C363.046,-10 371.9485,-10 380.745,-10"/>
<polygon fill="#191970" stroke="#191970" points="380.9779,-13.5001 390.9778,-10 380.9778,-6.5001 380.9779,-13.5001"/>
</g>
</g>
</svg>
        <g id="navigator" transform="translate(0 0)" fill="#404254">
                <rect fill="#f2f5e9" fill-opacity="0.5" stroke="#606060" stroke-width=".5" x="0" y="0" width="60" height="60"/>
                <use id="zoomplus" xlink:href="#zoomPlus" x="17" y="9" onmousedown="handleZoom(evt,'in')"/>
                <use id="zoomminus" xlink:href="#zoomMin" x="42" y="9" onmousedown="handleZoom(evt,'out')"/>
                <use id="reset" xlink:href="#resetDef" x="30" y="36" onmousedown="handleReset()"/>
                <g id="arrowUp" xlink:href="#dirArrow" transform="translate(30 24)" onmousedown="handlePan(0,-1)">
                  <use xlink:href="#rim" fill="#404040">
                        <set attributeName="fill" to="#808080" begin="arrowUp.mouseover" end="arrowUp.mouseout"/>
                  </use>
                  <path fill="none" stroke="white" stroke-width="1.5" d="M0,-3.0v7 M-2.5,-0.5L0,-3.0L2.5,-0.5"/>
                </g>
                <g id="arrowRight" xlink:href="#dirArrow" transform="rotate(90) translate(36 -43)" onmousedown="handlePan(1,0)">
                  <use xlink:href="#rim" fill="#404040">
                        <set attributeName="fill" to="#808080" begin="arrowRight.mouseover" end="arrowRight.mouseout"/>
                  </use>
                  <path fill="none" stroke="white" stroke-width="1.5" d="M0,-3.0v7 M-2.5,-0.5L0,-3.0L2.5,-0.5"/>
                </g>
                <g id="arrowDown" xlink:href="#dirArrow" transform="rotate(180) translate(-30 -48)" onmousedown="handlePan(0,1)">
                  <use xlink:href="#rim" fill="#404040">
                        <set attributeName="fill" to="#808080" begin="arrowDown.mouseover" end="arrowDown.mouseout"/>
                  </use>
                  <path fill="none" stroke="white" stroke-width="1.5" d="M0,-3.0v7 M-2.5,-0.5L0,-3.0L2.5,-0.5"/>
                </g>
                <g id="arrowLeft" xlink:href="#dirArrow" transform="rotate(270) translate(-36 17)" onmousedown="handlePan(-1,0)">
                  <use xlink:href="#rim" fill="#404040">
                        <set attributeName="fill" to="#808080" begin="arrowLeft.mouseover" end="arrowLeft.mouseout"/>
                  </use>
                  <path fill="none" stroke="white" stroke-width="1.5" d="M0,-3.0v7 M-2.5,-0.5L0,-3.0L2.5,-0.5"/>
                </g>
        </g>
        <svg viewBox="0 0 15 15" width="100%" height="30px" preserveAspectRatio="xMaxYMin meet">
         <g id="arrow_out" transform="scale(0.3 0.3)">
          <a xlink:href="player_8h_aa281b82564297b42eb7b3bf734650e36_cgraph_org.svg" target="_base">
           <rect id="button" ry="5" rx="5" y="6" x="6" height="38" width="38"
                fill="#f2f5e9" fill-opacity="0.5" stroke="#606060" stroke-width="1.0"/>
           <path id="arrow"
             d="M 11.500037,31.436501 C 11.940474,20.09759 22.043105,11.32322 32.158766,21.979434 L 37.068811,17.246167 C 37.068811,17.246167 37.088388,32 37.088388,32 L 22.160133,31.978069 C 22.160133,31.978069 26.997745,27.140456 26.997745,27.140456 C 18.528582,18.264221 13.291696,25.230495 11.500037,31.436501 z"
             style="fill:#404040;"/>
          </a>
         </g>
        </svg>
</svg>
