<?xml version="1.0" encoding="UTF-8" standalone="no"?>
<!DOCTYPE svg PUBLIC "-//W3C//DTD SVG 1.1//EN"
 "http://www.w3.org/Graphics/SVG/1.1/DTD/svg11.dtd">
<!-- Generated by graphviz version 2.40.1 (20161225.0304)
 -->
<!-- Title: animate_spearman_move Pages: 1 -->
<svg width="631pt" height="28pt"
 viewBox="0.00 0.00 631.00 28.00" xmlns="http://www.w3.org/2000/svg" xmlns:xlink="http://www.w3.org/1999/xlink">
<g id="graph0" class="graph" transform="scale(1 1) rotate(0) translate(4 24)">
<title>animate_spearman_move</title>
<!-- Node1 -->
<g id="node1" class="node">
<title>Node1</title>
<g id="a_node1"><a xlink:title="Animates the spearman&#39;s directional move.">
<polygon fill="#bfbfbf" stroke="#000000" points="495,-.5 495,-19.5 623,-19.5 623,-.5 495,-.5"/>
<text text-anchor="middle" x="559" y="-7.5" font-family="Helvetica" font-size="10.00" fill="#000000">animate_spearman_move</text>
</a>
</g>
</g>
<!-- Node2 -->
<g id="node2" class="node">
<title>Node2</title>
<g id="a_node2"><a xlink:href="../../d3/d62/player_8h.html#a21201934ad44d6ccf7beb9ae2278dda7" target="_top" xlink:title="Animates the spearman according to its action.">
<polygon fill="none" stroke="#000000" points="360,-.5 360,-19.5 459,-19.5 459,-.5 360,-.5"/>
<text text-anchor="middle" x="409.5" y="-7.5" font-family="Helvetica" font-size="10.00" fill="#000000">animate_spearman</text>
</a>
</g>
</g>
<!-- Node1&#45;&gt;Node2 -->
<g id="edge1" class="edge">
<title>Node1&#45;&gt;Node2</title>
<path fill="none" stroke="#191970" d="M484.6568,-10C476.049,-10 467.4339,-10 459.2684,-10"/>
<polygon fill="#191970" stroke="#191970" points="484.731,-13.5001 494.7309,-10 484.7309,-6.5001 484.731,-13.5001"/>
</g>
<!-- Node3 -->
<g id="node3" class="node">
<title>Node3</title>
<g id="a_node3"><a xlink:href="../../dd/d5a/entities_8h.html#aeae621c58e08b754e9c212bee6d0f477" target="_top" xlink:title="Updates the animations of all Entities.">
<polygon fill="none" stroke="#000000" points="226,-.5 226,-19.5 324,-19.5 324,-.5 226,-.5"/>
<text text-anchor="middle" x="275" y="-7.5" font-family="Helvetica" font-size="10.00" fill="#000000">update_animations</text>
</a>
</g>
</g>
<!-- Node2&#45;&gt;Node3 -->
<g id="edge2" class="edge">
<title>Node2&#45;&gt;Node3</title>
<path fill="none" stroke="#191970" d="M349.5231,-10C341.0038,-10 332.327,-10 324.0482,-10"/>
<polygon fill="#191970" stroke="#191970" points="349.7993,-13.5001 359.7993,-10 349.7993,-6.5001 349.7993,-13.5001"/>
</g>
<!-- Node4 -->
<g id="node4" class="node">
<title>Node4</title>
<g id="a_node4"><a xlink:href="../../dd/d65/game__helper_8h.html#ac2e814f8670e374692b399122563067d" target="_top" xlink:title="Performs all game logic and displaying that occurs every frame depending on the game state.">
<polygon fill="none" stroke="#000000" points="119,-.5 119,-19.5 190,-19.5 190,-.5 119,-.5"/>
<text text-anchor="middle" x="154.5" y="-7.5" font-family="Helvetica" font-size="10.00" fill="#000000">on_timer_int</text>
</a>
</g>
</g>
<!-- Node3&#45;&gt;Node4 -->
<g id="edge3" class="edge">
<title>Node3&#45;&gt;Node4</title>
<path fill="none" stroke="#191970" d="M215.7704,-10C207.0176,-10 198.236,-10 190.1649,-10"/>
<polygon fill="#191970" stroke="#191970" points="215.9881,-13.5001 225.988,-10 215.988,-6.5001 215.9881,-13.5001"/>
</g>
<!-- Node5 -->
<g id="node5" class="node">
<title>Node5</title>
<g id="a_node5"><a xlink:href="../../df/def/_l_c_o_m_8c.html#a2a16f651eccbd248e1ad3b3b924b143b" target="_top" xlink:title=" ">
<polygon fill="none" stroke="#000000" points="0,-.5 0,-19.5 83,-19.5 83,-.5 0,-.5"/>
<text text-anchor="middle" x="41.5" y="-7.5" font-family="Helvetica" font-size="10.00" fill="#000000">proj_main_loop</text>
</a>
</g>
</g>
<!-- Node4&#45;&gt;Node5 -->
<g id="edge4" class="edge">
<title>Node4&#45;&gt;Node5</title>
<path fill="none" stroke="#191970" d="M108.7225,-10C100.3288,-10 91.6073,-10 83.3362,-10"/>
<polygon fill="#191970" stroke="#191970" points="108.7461,-13.5001 118.7461,-10 108.7461,-6.5001 108.7461,-13.5001"/>
</g>
</g>
</svg>
