<?xml version="1.0" encoding="UTF-8" standalone="no"?>
<!DOCTYPE svg PUBLIC "-//W3C//DTD SVG 1.1//EN"
 "http://www.w3.org/Graphics/SVG/1.1/DTD/svg11.dtd">
<!-- Generated by graphviz version 2.40.1 (20161225.0304)
 -->
<!-- Title: enemies.h Pages: 1 -->
<svg width="239pt" height="196pt"
 viewBox="0.00 0.00 238.50 196.00" xmlns="http://www.w3.org/2000/svg" xmlns:xlink="http://www.w3.org/1999/xlink">
<g id="graph0" class="graph" transform="scale(1 1) rotate(0) translate(4 192)">
<title>enemies.h</title>
<!-- Node1 -->
<g id="node1" class="node">
<title>Node1</title>
<g id="a_node1"><a xlink:title=" ">
<polygon fill="#bfbfbf" stroke="#000000" points="0,-168.5 0,-187.5 61,-187.5 61,-168.5 0,-168.5"/>
<text text-anchor="middle" x="30.5" y="-175.5" font-family="Helvetica" font-size="10.00" fill="#000000">enemies.h</text>
</a>
</g>
</g>
<!-- Node2 -->
<g id="node2" class="node">
<title>Node2</title>
<g id="a_node2"><a xlink:title=" ">
<polygon fill="none" stroke="#bfbfbf" points="0,-.5 0,-19.5 59,-19.5 59,-.5 0,-.5"/>
<text text-anchor="middle" x="29.5" y="-7.5" font-family="Helvetica" font-size="10.00" fill="#000000">lcom/lcf.h</text>
</a>
</g>
</g>
<!-- Node1&#45;&gt;Node2 -->
<g id="edge1" class="edge">
<title>Node1&#45;&gt;Node2</title>
<path fill="none" stroke="#191970" d="M28.0135,-168.2105C25.7986,-158.9529 22.7245,-144.6354 21.5,-132 18.0004,-95.8876 22.7407,-53.6098 26.2775,-29.4992"/>
<polygon fill="#191970" stroke="#191970" points="29.7531,-29.9265 27.8299,-19.5076 22.8361,-28.8517 29.7531,-29.9265"/>
</g>
<!-- Node3 -->
<g id="node3" class="node">
<title>Node3</title>
<g id="a_node3"><a xlink:href="../../dd/d5a/entities_8h.html" target="_top" xlink:title=" ">
<polygon fill="none" stroke="#000000" points="30.5,-112.5 30.5,-131.5 86.5,-131.5 86.5,-112.5 30.5,-112.5"/>
<text text-anchor="middle" x="58.5" y="-119.5" font-family="Helvetica" font-size="10.00" fill="#000000">entities.h</text>
</a>
</g>
</g>
<!-- Node1&#45;&gt;Node3 -->
<g id="edge2" class="edge">
<title>Node1&#45;&gt;Node3</title>
<path fill="none" stroke="#191970" d="M35.3772,-168.2455C39.1513,-160.6973 44.4921,-150.0158 49.0901,-140.8197"/>
<polygon fill="#191970" stroke="#191970" points="52.337,-142.1522 53.6787,-131.6427 46.076,-139.0217 52.337,-142.1522"/>
</g>
<!-- Node3&#45;&gt;Node2 -->
<g id="edge3" class="edge">
<title>Node3&#45;&gt;Node2</title>
<path fill="none" stroke="#191970" d="M56.0275,-112.4509C51.2762,-94.1013 40.7869,-53.5908 34.5153,-29.3693"/>
<polygon fill="#191970" stroke="#191970" points="37.8612,-28.3283 31.9663,-19.5249 31.0847,-30.083 37.8612,-28.3283"/>
</g>
<!-- Node4 -->
<g id="node4" class="node">
<title>Node4</title>
<g id="a_node4"><a xlink:href="../../d3/def/sprites_8h.html" target="_top" xlink:title=" ">
<polygon fill="none" stroke="#000000" points="68.5,-56.5 68.5,-75.5 154.5,-75.5 154.5,-56.5 68.5,-56.5"/>
<text text-anchor="middle" x="111.5" y="-63.5" font-family="Helvetica" font-size="10.00" fill="#000000">sprites/sprites.h</text>
</a>
</g>
</g>
<!-- Node3&#45;&gt;Node4 -->
<g id="edge4" class="edge">
<title>Node3&#45;&gt;Node4</title>
<path fill="none" stroke="#191970" d="M67.7319,-112.2455C75.3317,-104.2155 86.2877,-92.6394 95.3368,-83.0781"/>
<polygon fill="#191970" stroke="#191970" points="98.0421,-85.3115 102.3739,-75.6427 92.958,-80.4998 98.0421,-85.3115"/>
</g>
<!-- Node4&#45;&gt;Node2 -->
<g id="edge5" class="edge">
<title>Node4&#45;&gt;Node2</title>
<path fill="none" stroke="#191970" d="M97.2167,-56.2455C84.753,-47.7337 66.4549,-35.2375 52.0208,-25.3801"/>
<polygon fill="#191970" stroke="#191970" points="53.8515,-22.392 43.6196,-19.6427 49.9038,-28.1726 53.8515,-22.392"/>
</g>
<!-- Node5 -->
<g id="node5" class="node">
<title>Node5</title>
<g id="a_node5"><a xlink:title=" ">
<polygon fill="none" stroke="#bfbfbf" points="77,-.5 77,-19.5 146,-19.5 146,-.5 77,-.5"/>
<text text-anchor="middle" x="111.5" y="-7.5" font-family="Helvetica" font-size="10.00" fill="#000000">lcom/liblm.h</text>
</a>
</g>
</g>
<!-- Node4&#45;&gt;Node5 -->
<g id="edge6" class="edge">
<title>Node4&#45;&gt;Node5</title>
<path fill="none" stroke="#191970" d="M111.5,-56.2455C111.5,-48.9382 111.5,-38.6944 111.5,-29.7046"/>
<polygon fill="#191970" stroke="#191970" points="115.0001,-29.6426 111.5,-19.6427 108.0001,-29.6427 115.0001,-29.6426"/>
</g>
<!-- Node6 -->
<g id="node6" class="node">
<title>Node6</title>
<g id="a_node6"><a xlink:title=" ">
<polygon fill="none" stroke="#bfbfbf" points="164.5,-.5 164.5,-19.5 230.5,-19.5 230.5,-.5 164.5,-.5"/>
<text text-anchor="middle" x="197.5" y="-7.5" font-family="Helvetica" font-size="10.00" fill="#000000">lcom/proj.h</text>
</a>
</g>
</g>
<!-- Node4&#45;&gt;Node6 -->
<g id="edge7" class="edge">
<title>Node4&#45;&gt;Node6</title>
<path fill="none" stroke="#191970" d="M126.4801,-56.2455C139.6751,-47.6534 159.1051,-35.0014 174.3079,-25.1018"/>
<polygon fill="#191970" stroke="#191970" points="176.2215,-28.0325 182.6916,-19.6427 172.4017,-22.1665 176.2215,-28.0325"/>
</g>
</g>
</svg>
