<?xml version="1.0" encoding="UTF-8" standalone="no"?>
<!DOCTYPE svg PUBLIC "-//W3C//DTD SVG 1.1//EN"
 "http://www.w3.org/Graphics/SVG/1.1/DTD/svg11.dtd">
<!-- Generated by graphviz version 2.40.1 (20161225.0304)
 -->
<!-- Title: rtc_read_register Pages: 1 -->
<svg width="884pt" height="170pt"
 viewBox="0.00 0.00 884.00 170.00" xmlns="http://www.w3.org/2000/svg" xmlns:xlink="http://www.w3.org/1999/xlink">
<g id="graph0" class="graph" transform="scale(1 1) rotate(0) translate(4 166)">
<title>rtc_read_register</title>
<!-- Node1 -->
<g id="node1" class="node">
<title>Node1</title>
<g id="a_node1"><a xlink:title="Reads the Register reg of the RTC.">
<polygon fill="#bfbfbf" stroke="#000000" points="785,-95.5 785,-114.5 876,-114.5 876,-95.5 785,-95.5"/>
<text text-anchor="middle" x="830.5" y="-102.5" font-family="Helvetica" font-size="10.00" fill="#000000">rtc_read_register</text>
</a>
</g>
</g>
<!-- Node2 -->
<g id="node2" class="node">
<title>Node2</title>
<g id="a_node2"><a xlink:href="../../df/def/_l_c_o_m_8c.html#a2a16f651eccbd248e1ad3b3b924b143b" target="_top" xlink:title=" ">
<polygon fill="none" stroke="#000000" points="0,-76.5 0,-95.5 83,-95.5 83,-76.5 0,-76.5"/>
<text text-anchor="middle" x="41.5" y="-83.5" font-family="Helvetica" font-size="10.00" fill="#000000">proj_main_loop</text>
</a>
</g>
</g>
<!-- Node1&#45;&gt;Node2 -->
<g id="edge1" class="edge">
<title>Node1&#45;&gt;Node2</title>
<path fill="none" stroke="#191970" d="M795.3201,-117.8527C746.0768,-134.6634 653.4746,-162 572,-162 572,-162 572,-162 307.5,-162 222.0368,-162 199.9235,-151.4835 119,-124 97.0067,-116.5306 73.235,-104.1756 57.901,-95.5895"/>
<polygon fill="#191970" stroke="#191970" points="796.5631,-121.1262 804.8625,-114.5405 794.2677,-114.5132 796.5631,-121.1262"/>
</g>
<!-- Node3 -->
<g id="node3" class="node">
<title>Node3</title>
<g id="a_node3"><a xlink:href="../../dc/d1b/rtc_8h.html#a2f5c62ef4118ce8c03eaa21181ebee4d" target="_top" xlink:title="RTC interrupt handler.">
<polygon fill="none" stroke="#000000" points="551.5,-114.5 551.5,-133.5 592.5,-133.5 592.5,-114.5 551.5,-114.5"/>
<text text-anchor="middle" x="572" y="-121.5" font-family="Helvetica" font-size="10.00" fill="#000000">rtc_ih</text>
</a>
</g>
</g>
<!-- Node1&#45;&gt;Node3 -->
<g id="edge2" class="edge">
<title>Node1&#45;&gt;Node3</title>
<path fill="none" stroke="#191970" d="M774.9052,-109.0863C717.6993,-113.291 631.5988,-119.6194 592.5535,-122.4893"/>
<polygon fill="#191970" stroke="#191970" points="775.1639,-112.5768 784.8804,-108.3531 774.6507,-105.5956 775.1639,-112.5768"/>
</g>
<!-- Node4 -->
<g id="node4" class="node">
<title>Node4</title>
<g id="a_node4"><a xlink:href="../../dc/d1b/rtc_8h.html#a01efed7ef3d173bcbbeefbde025f38ac" target="_top" xlink:title="Reads the time from the RTC.">
<polygon fill="none" stroke="#000000" points="668,-76.5 668,-95.5 745,-95.5 745,-76.5 668,-76.5"/>
<text text-anchor="middle" x="706.5" y="-83.5" font-family="Helvetica" font-size="10.00" fill="#000000">rtc_read_time</text>
</a>
</g>
</g>
<!-- Node1&#45;&gt;Node4 -->
<g id="edge4" class="edge">
<title>Node1&#45;&gt;Node4</title>
<path fill="none" stroke="#191970" d="M774.4879,-96.4175C764.596,-94.9018 754.4988,-93.3547 745.2164,-91.9323"/>
<polygon fill="#191970" stroke="#191970" points="774.2645,-99.924 784.6793,-97.9791 775.3248,-93.0048 774.2645,-99.924"/>
</g>
<!-- Node12 -->
<g id="node12" class="node">
<title>Node12</title>
<g id="a_node12"><a xlink:href="../../dc/d1b/rtc_8h.html#a0b956beb30165538fcd684d0ee75b1a6" target="_top" xlink:title="Sets the periodic interrupts time to send interrupts every delta_t.">
<polygon fill="none" stroke="#000000" points="664,-38.5 664,-57.5 749,-57.5 749,-38.5 664,-38.5"/>
<text text-anchor="middle" x="706.5" y="-45.5" font-family="Helvetica" font-size="10.00" fill="#000000">rtc_set_periodic</text>
</a>
</g>
</g>
<!-- Node1&#45;&gt;Node12 -->
<g id="edge16" class="edge">
<title>Node1&#45;&gt;Node12</title>
<path fill="none" stroke="#191970" d="M801.0266,-91.1204C785.5632,-83.8731 766.2878,-74.894 749,-67 742.2361,-63.9115 734.8449,-60.5889 728.1508,-57.5995"/>
<polygon fill="#191970" stroke="#191970" points="799.5707,-94.3033 810.1103,-95.3838 802.5449,-87.9666 799.5707,-94.3033"/>
</g>
<!-- Node3&#45;&gt;Node2 -->
<g id="edge3" class="edge">
<title>Node3&#45;&gt;Node2</title>
<path fill="none" stroke="#191970" d="M540.6632,-124.8144C466.7945,-126.2717 276.1485,-127.333 119,-105 104.1873,-102.8949 88.0794,-99.1844 74.4056,-95.5977"/>
<polygon fill="#191970" stroke="#191970" points="541.1734,-128.3043 551.0958,-124.5899 541.0228,-121.3059 541.1734,-128.3043"/>
</g>
<!-- Node4&#45;&gt;Node3 -->
<g id="edge10" class="edge">
<title>Node4&#45;&gt;Node3</title>
<path fill="none" stroke="#191970" d="M662.7533,-98.3597C639.1453,-105.0296 611.1171,-112.9483 592.5191,-118.2028"/>
<polygon fill="#191970" stroke="#191970" points="663.8883,-101.6761 672.56,-95.589 661.985,-94.9398 663.8883,-101.6761"/>
</g>
<!-- Node5 -->
<g id="node5" class="node">
<title>Node5</title>
<g id="a_node5"><a xlink:href="../../dd/d65/game__helper_8h.html#aa1ee142c726e35646cf2262524f54d14" target="_top" xlink:title="Generates the random enemy board on the grid.">
<polygon fill="none" stroke="#000000" points="265,-76.5 265,-95.5 350,-95.5 350,-76.5 265,-76.5"/>
<text text-anchor="middle" x="307.5" y="-83.5" font-family="Helvetica" font-size="10.00" fill="#000000">create_enemies</text>
</a>
</g>
</g>
<!-- Node4&#45;&gt;Node5 -->
<g id="edge5" class="edge">
<title>Node4&#45;&gt;Node5</title>
<path fill="none" stroke="#191970" d="M657.7278,-86C578.8723,-86 424.6938,-86 350.0327,-86"/>
<polygon fill="#191970" stroke="#191970" points="657.8797,-89.5001 667.8797,-86 657.8796,-82.5001 657.8797,-89.5001"/>
</g>
<!-- Node8 -->
<g id="node8" class="node">
<title>Node8</title>
<g id="a_node8"><a xlink:href="../../dc/d1b/rtc_8h.html#adb4289b2015a3ec052bae20542244311" target="_top" xlink:title="Sets an alarm at current_time + delta_seconds.">
<polygon fill="none" stroke="#000000" points="516,-33.5 516,-52.5 628,-52.5 628,-33.5 516,-33.5"/>
<text text-anchor="middle" x="572" y="-40.5" font-family="Helvetica" font-size="10.00" fill="#000000">rtc_set_alarm_delta_s</text>
</a>
</g>
</g>
<!-- Node4&#45;&gt;Node8 -->
<g id="edge11" class="edge">
<title>Node4&#45;&gt;Node8</title>
<path fill="none" stroke="#191970" d="M667.0986,-73.4033C646.2195,-66.7282 620.9908,-58.6625 601.7665,-52.5164"/>
<polygon fill="#191970" stroke="#191970" points="666.0592,-76.7454 676.6501,-76.4569 668.1909,-70.0779 666.0592,-76.7454"/>
</g>
<!-- Node6 -->
<g id="node6" class="node">
<title>Node6</title>
<g id="a_node6"><a xlink:href="../../dd/d65/game__helper_8h.html#a72c30bee155342f972c892a5a8d4a175" target="_top" xlink:title="Processes the input that comes from the mouse and executes the associated logic.">
<polygon fill="none" stroke="#000000" points="119,-76.5 119,-95.5 229,-95.5 229,-76.5 119,-76.5"/>
<text text-anchor="middle" x="174" y="-83.5" font-family="Helvetica" font-size="10.00" fill="#000000">process_mouse_input</text>
</a>
</g>
</g>
<!-- Node5&#45;&gt;Node6 -->
<g id="edge6" class="edge">
<title>Node5&#45;&gt;Node6</title>
<path fill="none" stroke="#191970" d="M254.8696,-86C246.4952,-86 237.8102,-86 229.3748,-86"/>
<polygon fill="#191970" stroke="#191970" points="254.8928,-89.5001 264.8927,-86 254.8927,-82.5001 254.8928,-89.5001"/>
</g>
<!-- Node7 -->
<g id="node7" class="node">
<title>Node7</title>
<g id="a_node7"><a xlink:href="../../dd/d65/game__helper_8h.html#a03d9f7e90ecc6a670f43c0510bf272c0" target="_top" xlink:title="Processes the incoming packet from the UART (COM1) and executes the associated logic.">
<polygon fill="none" stroke="#000000" points="121,-38.5 121,-57.5 227,-57.5 227,-38.5 121,-38.5"/>
<text text-anchor="middle" x="174" y="-45.5" font-family="Helvetica" font-size="10.00" fill="#000000">process_uart_packet</text>
</a>
</g>
</g>
<!-- Node5&#45;&gt;Node7 -->
<g id="edge8" class="edge">
<title>Node5&#45;&gt;Node7</title>
<path fill="none" stroke="#191970" d="M263.97,-73.6094C245.6878,-68.4055 224.7508,-62.4459 207.6769,-57.5859"/>
<polygon fill="#191970" stroke="#191970" points="263.2361,-77.0395 273.8123,-76.411 265.1526,-70.3069 263.2361,-77.0395"/>
</g>
<!-- Node6&#45;&gt;Node2 -->
<g id="edge7" class="edge">
<title>Node6&#45;&gt;Node2</title>
<path fill="none" stroke="#191970" d="M108.7976,-86C100.1014,-86 91.3811,-86 83.2363,-86"/>
<polygon fill="#191970" stroke="#191970" points="108.9592,-89.5001 118.9592,-86 108.9591,-82.5001 108.9592,-89.5001"/>
</g>
<!-- Node7&#45;&gt;Node2 -->
<g id="edge9" class="edge">
<title>Node7&#45;&gt;Node2</title>
<path fill="none" stroke="#191970" d="M130.7961,-60.3906C112.6508,-65.5945 91.8706,-71.5541 74.9246,-76.4141"/>
<polygon fill="#191970" stroke="#191970" points="131.9171,-63.7102 140.5647,-57.589 129.9873,-56.9815 131.9171,-63.7102"/>
</g>
<!-- Node9 -->
<g id="node9" class="node">
<title>Node9</title>
<g id="a_node9"><a xlink:href="../../d3/d62/player_8h.html#aa281b82564297b42eb7b3bf734650e36" target="_top" xlink:title="The spearman uses its special ability.">
<polygon fill="none" stroke="#000000" points="386,-24.5 386,-43.5 480,-43.5 480,-24.5 386,-24.5"/>
<text text-anchor="middle" x="433" y="-31.5" font-family="Helvetica" font-size="10.00" fill="#000000">spearman_special</text>
</a>
</g>
</g>
<!-- Node8&#45;&gt;Node9 -->
<g id="edge12" class="edge">
<title>Node8&#45;&gt;Node9</title>
<path fill="none" stroke="#191970" d="M505.8522,-38.717C497.2701,-38.1614 488.6196,-37.6013 480.4259,-37.0707"/>
<polygon fill="#191970" stroke="#191970" points="505.6588,-42.2118 515.864,-39.3653 506.1111,-35.2264 505.6588,-42.2118"/>
</g>
<!-- Node10 -->
<g id="node10" class="node">
<title>Node10</title>
<g id="a_node10"><a xlink:href="../../d3/d62/player_8h.html#a43024b59b971eee693bdf802580d046e" target="_top" xlink:title="The spearman acts acording to action in PA.">
<polygon fill="none" stroke="#000000" points="269,-5.5 269,-24.5 346,-24.5 346,-5.5 269,-5.5"/>
<text text-anchor="middle" x="307.5" y="-12.5" font-family="Helvetica" font-size="10.00" fill="#000000">spearman_act</text>
</a>
</g>
</g>
<!-- Node9&#45;&gt;Node10 -->
<g id="edge13" class="edge">
<title>Node9&#45;&gt;Node10</title>
<path fill="none" stroke="#191970" d="M375.9613,-25.3647C365.9069,-23.8425 355.6552,-22.2904 346.2504,-20.8666"/>
<polygon fill="#191970" stroke="#191970" points="375.5001,-28.8346 385.9114,-26.871 376.548,-21.9135 375.5001,-28.8346"/>
</g>
<!-- Node11 -->
<g id="node11" class="node">
<title>Node11</title>
<g id="a_node11"><a xlink:href="../../dd/d65/game__helper_8h.html#ac2e814f8670e374692b399122563067d" target="_top" xlink:title="Performs all game logic and displaying that occurs every frame depending on the game state.">
<polygon fill="none" stroke="#000000" points="138.5,-.5 138.5,-19.5 209.5,-19.5 209.5,-.5 138.5,-.5"/>
<text text-anchor="middle" x="174" y="-7.5" font-family="Helvetica" font-size="10.00" fill="#000000">on_timer_int</text>
</a>
</g>
</g>
<!-- Node10&#45;&gt;Node11 -->
<g id="edge14" class="edge">
<title>Node10&#45;&gt;Node11</title>
<path fill="none" stroke="#191970" d="M258.5373,-13.1662C242.3944,-12.5616 224.7542,-11.9009 209.7838,-11.3402"/>
<polygon fill="#191970" stroke="#191970" points="258.7622,-16.677 268.8863,-13.5538 259.0243,-9.6819 258.7622,-16.677"/>
</g>
<!-- Node11&#45;&gt;Node2 -->
<g id="edge15" class="edge">
<title>Node11&#45;&gt;Node2</title>
<path fill="none" stroke="#191970" d="M131.5632,-23.1969C127.242,-24.9721 122.9819,-26.9098 119,-29 93.268,-42.5072 66.7124,-63.9856 52.3403,-76.3594"/>
<polygon fill="#191970" stroke="#191970" points="132.946,-26.4154 141.0363,-19.5745 130.4458,-19.8771 132.946,-26.4154"/>
</g>
</g>
</svg>
