<?xml version="1.0" encoding="UTF-8" standalone="no"?>
<!DOCTYPE svg PUBLIC "-//W3C//DTD SVG 1.1//EN"
 "http://www.w3.org/Graphics/SVG/1.1/DTD/svg11.dtd">
<!-- Generated by graphviz version 2.40.1 (20161225.0304)
 -->
<!-- Title: rtc.h Pages: 1 -->
<svg width="264pt" height="140pt"
 viewBox="0.00 0.00 263.50 140.00" xmlns="http://www.w3.org/2000/svg" xmlns:xlink="http://www.w3.org/1999/xlink">
<g id="graph0" class="graph" transform="scale(1 1) rotate(0) translate(4 136)">
<title>rtc.h</title>
<!-- Node1 -->
<g id="node1" class="node">
<title>Node1</title>
<g id="a_node1"><a xlink:title=" ">
<polygon fill="#bfbfbf" stroke="#000000" points="132,-112.5 132,-131.5 168,-131.5 168,-112.5 132,-112.5"/>
<text text-anchor="middle" x="150" y="-119.5" font-family="Helvetica" font-size="10.00" fill="#000000">rtc.h</text>
</a>
</g>
</g>
<!-- Node2 -->
<g id="node2" class="node">
<title>Node2</title>
<g id="a_node2"><a xlink:href="../../dd/d65/game__helper_8h.html" target="_top" xlink:title=" ">
<polygon fill="none" stroke="#000000" points="13.5,-56.5 13.5,-75.5 94.5,-75.5 94.5,-56.5 13.5,-56.5"/>
<text text-anchor="middle" x="54" y="-63.5" font-family="Helvetica" font-size="10.00" fill="#000000">game_helper.h</text>
</a>
</g>
</g>
<!-- Node1&#45;&gt;Node2 -->
<g id="edge1" class="edge">
<title>Node1&#45;&gt;Node2</title>
<path fill="none" stroke="#191970" d="M124.3654,-107.0465C107.2841,-97.0824 85.336,-84.2794 70.5303,-75.6427"/>
<polygon fill="#191970" stroke="#191970" points="122.8767,-110.23 133.2781,-112.2455 126.4038,-104.1836 122.8767,-110.23"/>
</g>
<!-- Node4 -->
<g id="node4" class="node">
<title>Node4</title>
<g id="a_node4"><a xlink:href="../../df/def/_l_c_o_m_8c.html" target="_top" xlink:title=" ">
<polygon fill="none" stroke="#000000" points="98,-.5 98,-19.5 148,-19.5 148,-.5 98,-.5"/>
<text text-anchor="middle" x="123" y="-7.5" font-family="Helvetica" font-size="10.00" fill="#000000">LCOM.c</text>
</a>
</g>
</g>
<!-- Node1&#45;&gt;Node4 -->
<g id="edge6" class="edge">
<title>Node1&#45;&gt;Node4</title>
<path fill="none" stroke="#191970" d="M145.3229,-102.5987C139.4804,-78.363 129.7151,-37.8551 125.2962,-19.5249"/>
<polygon fill="#191970" stroke="#191970" points="141.9518,-103.5497 147.698,-112.4509 148.7569,-101.9092 141.9518,-103.5497"/>
</g>
<!-- Node5 -->
<g id="node5" class="node">
<title>Node5</title>
<g id="a_node5"><a xlink:href="../../d1/db8/player_8c.html" target="_top" xlink:title=" ">
<polygon fill="none" stroke="#000000" points="151.5,-56.5 151.5,-75.5 202.5,-75.5 202.5,-56.5 151.5,-56.5"/>
<text text-anchor="middle" x="177" y="-63.5" font-family="Helvetica" font-size="10.00" fill="#000000">player.c</text>
</a>
</g>
</g>
<!-- Node1&#45;&gt;Node5 -->
<g id="edge4" class="edge">
<title>Node1&#45;&gt;Node5</title>
<path fill="none" stroke="#191970" d="M159.1396,-103.0437C163.5805,-93.8331 168.7265,-83.1598 172.3509,-75.6427"/>
<polygon fill="#191970" stroke="#191970" points="155.8934,-101.7178 154.703,-112.2455 162.1988,-104.7579 155.8934,-101.7178"/>
</g>
<!-- Node6 -->
<g id="node6" class="node">
<title>Node6</title>
<g id="a_node6"><a xlink:href="../../d4/dcc/rtc_8c.html" target="_top" xlink:title=" ">
<polygon fill="none" stroke="#000000" points="220.5,-56.5 220.5,-75.5 255.5,-75.5 255.5,-56.5 220.5,-56.5"/>
<text text-anchor="middle" x="238" y="-63.5" font-family="Helvetica" font-size="10.00" fill="#000000">rtc.c</text>
</a>
</g>
</g>
<!-- Node1&#45;&gt;Node6 -->
<g id="edge5" class="edge">
<title>Node1&#45;&gt;Node6</title>
<path fill="none" stroke="#191970" d="M173.9345,-106.769C189.5283,-96.8456 209.401,-84.1994 222.8472,-75.6427"/>
<polygon fill="#191970" stroke="#191970" points="171.886,-103.9239 165.3284,-112.2455 175.6441,-109.8296 171.886,-103.9239"/>
</g>
<!-- Node3 -->
<g id="node3" class="node">
<title>Node3</title>
<g id="a_node3"><a xlink:href="../../d2/dba/game__helper_8c.html" target="_top" xlink:title=" ">
<polygon fill="none" stroke="#000000" points="0,-.5 0,-19.5 80,-19.5 80,-.5 0,-.5"/>
<text text-anchor="middle" x="40" y="-7.5" font-family="Helvetica" font-size="10.00" fill="#000000">game_helper.c</text>
</a>
</g>
</g>
<!-- Node2&#45;&gt;Node3 -->
<g id="edge2" class="edge">
<title>Node2&#45;&gt;Node3</title>
<path fill="none" stroke="#191970" d="M49.1135,-46.4538C46.8451,-37.3803 44.25,-26.9998 42.4107,-19.6427"/>
<polygon fill="#191970" stroke="#191970" points="45.7405,-47.393 51.5614,-56.2455 52.5315,-45.6952 45.7405,-47.393"/>
</g>
<!-- Node2&#45;&gt;Node4 -->
<g id="edge3" class="edge">
<title>Node2&#45;&gt;Node4</title>
<path fill="none" stroke="#191970" d="M73.803,-49.928C85.8636,-40.1397 100.8714,-27.9595 111.1188,-19.6427"/>
<polygon fill="#191970" stroke="#191970" points="71.5779,-47.2262 66.0189,-56.2455 75.9891,-52.6614 71.5779,-47.2262"/>
</g>
</g>
</svg>
