<?xml version="1.0" encoding="UTF-8" standalone="no"?>
<!DOCTYPE svg PUBLIC "-//W3C//DTD SVG 1.1//EN"
 "http://www.w3.org/Graphics/SVG/1.1/DTD/svg11.dtd">
<!-- Generated by graphviz version 2.40.1 (20161225.0304)
 -->
<!-- Title: grid_add Pages: 1 -->
<svg width="448pt" height="66pt"
 viewBox="0.00 0.00 448.00 66.00" xmlns="http://www.w3.org/2000/svg" xmlns:xlink="http://www.w3.org/1999/xlink">
<g id="graph0" class="graph" transform="scale(1 1) rotate(0) translate(4 62)">
<title>grid_add</title>
<!-- Node1 -->
<g id="node1" class="node">
<title>Node1</title>
<g id="a_node1"><a xlink:title="Add entity to the game board.">
<polygon fill="#bfbfbf" stroke="#000000" points="386,-19.5 386,-38.5 440,-38.5 440,-19.5 386,-19.5"/>
<text text-anchor="middle" x="413" y="-26.5" font-family="Helvetica" font-size="10.00" fill="#000000">grid_add</text>
</a>
</g>
</g>
<!-- Node2 -->
<g id="node2" class="node">
<title>Node2</title>
<g id="a_node2"><a xlink:href="../../dd/d65/game__helper_8h.html#aa1ee142c726e35646cf2262524f54d14" target="_top" xlink:title="Generates the random enemy board on the grid.">
<polygon fill="none" stroke="#000000" points="265,-19.5 265,-38.5 350,-38.5 350,-19.5 265,-19.5"/>
<text text-anchor="middle" x="307.5" y="-26.5" font-family="Helvetica" font-size="10.00" fill="#000000">create_enemies</text>
</a>
</g>
</g>
<!-- Node1&#45;&gt;Node2 -->
<g id="edge1" class="edge">
<title>Node1&#45;&gt;Node2</title>
<path fill="none" stroke="#191970" d="M375.7162,-29C367.4409,-29 358.6086,-29 350.1377,-29"/>
<polygon fill="#191970" stroke="#191970" points="375.8312,-32.5001 385.8311,-29 375.8311,-25.5001 375.8312,-32.5001"/>
</g>
<!-- Node3 -->
<g id="node3" class="node">
<title>Node3</title>
<g id="a_node3"><a xlink:href="../../dd/d65/game__helper_8h.html#a72c30bee155342f972c892a5a8d4a175" target="_top" xlink:title="Processes the input that comes from the mouse and executes the associated logic.">
<polygon fill="none" stroke="#000000" points="119,-38.5 119,-57.5 229,-57.5 229,-38.5 119,-38.5"/>
<text text-anchor="middle" x="174" y="-45.5" font-family="Helvetica" font-size="10.00" fill="#000000">process_mouse_input</text>
</a>
</g>
</g>
<!-- Node1&#45;&gt;Node3 -->
<g id="edge6" class="edge">
<title>Node1&#45;&gt;Node3</title>
<path fill="none" stroke="#191970" d="M377.6473,-41.6386C368.739,-44.2724 359.1147,-46.6555 350,-48 309.7962,-53.9306 263.862,-53.6989 229.0032,-52.1072"/>
<polygon fill="#191970" stroke="#191970" points="378.8409,-44.9324 387.3354,-38.6004 376.7463,-38.2532 378.8409,-44.9324"/>
</g>
<!-- Node5 -->
<g id="node5" class="node">
<title>Node5</title>
<g id="a_node5"><a xlink:href="../../dd/d65/game__helper_8h.html#a03d9f7e90ecc6a670f43c0510bf272c0" target="_top" xlink:title="Processes the incoming packet from the UART (COM1) and executes the associated logic.">
<polygon fill="none" stroke="#000000" points="121,-.5 121,-19.5 227,-19.5 227,-.5 121,-.5"/>
<text text-anchor="middle" x="174" y="-7.5" font-family="Helvetica" font-size="10.00" fill="#000000">process_uart_packet</text>
</a>
</g>
</g>
<!-- Node1&#45;&gt;Node5 -->
<g id="edge7" class="edge">
<title>Node1&#45;&gt;Node5</title>
<path fill="none" stroke="#191970" d="M377.6473,-16.3614C368.739,-13.7276 359.1147,-11.3445 350,-10 309.0405,-3.958 262.1331,-4.312 227.0493,-5.984"/>
<polygon fill="#191970" stroke="#191970" points="376.7463,-19.7468 387.3354,-19.3996 378.8409,-13.0676 376.7463,-19.7468"/>
</g>
<!-- Node2&#45;&gt;Node3 -->
<g id="edge2" class="edge">
<title>Node2&#45;&gt;Node3</title>
<path fill="none" stroke="#191970" d="M254.8696,-36.4905C246.4952,-37.6823 237.8102,-38.9184 229.3748,-40.1189"/>
<polygon fill="#191970" stroke="#191970" points="255.4857,-39.9381 264.8927,-35.064 254.4993,-33.008 255.4857,-39.9381"/>
</g>
<!-- Node2&#45;&gt;Node5 -->
<g id="edge4" class="edge">
<title>Node2&#45;&gt;Node5</title>
<path fill="none" stroke="#191970" d="M254.8995,-21.5138C245.8792,-20.23 236.4976,-18.8948 227.4553,-17.6079"/>
<polygon fill="#191970" stroke="#191970" points="254.4993,-24.992 264.8927,-22.936 255.4857,-18.0619 254.4993,-24.992"/>
</g>
<!-- Node4 -->
<g id="node4" class="node">
<title>Node4</title>
<g id="a_node4"><a xlink:href="../../df/def/_l_c_o_m_8c.html#a2a16f651eccbd248e1ad3b3b924b143b" target="_top" xlink:title=" ">
<polygon fill="none" stroke="#000000" points="0,-19.5 0,-38.5 83,-38.5 83,-19.5 0,-19.5"/>
<text text-anchor="middle" x="41.5" y="-26.5" font-family="Helvetica" font-size="10.00" fill="#000000">proj_main_loop</text>
</a>
</g>
</g>
<!-- Node3&#45;&gt;Node4 -->
<g id="edge3" class="edge">
<title>Node3&#45;&gt;Node4</title>
<path fill="none" stroke="#191970" d="M108.7976,-38.6502C100.1014,-37.4032 91.3811,-36.1528 83.2363,-34.9848"/>
<polygon fill="#191970" stroke="#191970" points="108.5636,-42.1524 118.9592,-40.1074 109.5573,-35.2233 108.5636,-42.1524"/>
</g>
<!-- Node5&#45;&gt;Node4 -->
<g id="edge5" class="edge">
<title>Node5&#45;&gt;Node4</title>
<path fill="none" stroke="#191970" d="M110.7852,-19.0648C101.4289,-20.4064 91.9916,-21.7597 83.2221,-23.0172"/>
<polygon fill="#191970" stroke="#191970" points="111.4687,-22.5026 120.8706,-17.6185 110.4751,-15.5735 111.4687,-22.5026"/>
</g>
</g>
</svg>
