<?xml version="1.0" encoding="UTF-8" standalone="no"?>
<!DOCTYPE svg PUBLIC "-//W3C//DTD SVG 1.1//EN"
 "http://www.w3.org/Graphics/SVG/1.1/DTD/svg11.dtd">
<!-- Generated by graphviz version 2.40.1 (20161225.0304)
 -->
<!-- Title: delete_grid Pages: 1 -->
<svg width="334pt" height="104pt"
 viewBox="0.00 0.00 334.00 104.00" xmlns="http://www.w3.org/2000/svg" xmlns:xlink="http://www.w3.org/1999/xlink">
<g id="graph0" class="graph" transform="scale(1 1) rotate(0) translate(4 100)">
<title>delete_grid</title>
<!-- Node1 -->
<g id="node1" class="node">
<title>Node1</title>
<g id="a_node1"><a xlink:title="Deletes the grid entities (frees memory)">
<polygon fill="#bfbfbf" stroke="#000000" points="261,-38.5 261,-57.5 326,-57.5 326,-38.5 261,-38.5"/>
<text text-anchor="middle" x="293.5" y="-45.5" font-family="Helvetica" font-size="10.00" fill="#000000">delete_grid</text>
</a>
</g>
</g>
<!-- Node2 -->
<g id="node2" class="node">
<title>Node2</title>
<g id="a_node2"><a xlink:href="../../dd/d65/game__helper_8h.html#a7562d024344a09070adef285be55ef46" target="_top" xlink:title="Processes the input that comes from the keyboard and executes the associated logic.">
<polygon fill="none" stroke="#000000" points="123.5,-76.5 123.5,-95.5 220.5,-95.5 220.5,-76.5 123.5,-76.5"/>
<text text-anchor="middle" x="172" y="-83.5" font-family="Helvetica" font-size="10.00" fill="#000000">process_kbd_input</text>
</a>
</g>
</g>
<!-- Node1&#45;&gt;Node2 -->
<g id="edge1" class="edge">
<title>Node1&#45;&gt;Node2</title>
<path fill="none" stroke="#191970" d="M252.956,-60.6804C236.5394,-65.8148 217.9011,-71.6441 202.6498,-76.4141"/>
<polygon fill="#191970" stroke="#191970" points="254.3411,-63.9145 262.8404,-57.589 252.2515,-57.2336 254.3411,-63.9145"/>
</g>
<!-- Node3 -->
<g id="node3" class="node">
<title>Node3</title>
<g id="a_node3"><a xlink:href="../../df/def/_l_c_o_m_8c.html#a2a16f651eccbd248e1ad3b3b924b143b" target="_top" xlink:title=" ">
<polygon fill="none" stroke="#000000" points="0,-38.5 0,-57.5 83,-57.5 83,-38.5 0,-38.5"/>
<text text-anchor="middle" x="41.5" y="-45.5" font-family="Helvetica" font-size="10.00" fill="#000000">proj_main_loop</text>
</a>
</g>
</g>
<!-- Node1&#45;&gt;Node3 -->
<g id="edge5" class="edge">
<title>Node1&#45;&gt;Node3</title>
<path fill="none" stroke="#191970" d="M250.7129,-48C204.0015,-48 129.6926,-48 83.353,-48"/>
<polygon fill="#191970" stroke="#191970" points="250.8138,-51.5001 260.8137,-48 250.8137,-44.5001 250.8138,-51.5001"/>
</g>
<!-- Node4 -->
<g id="node4" class="node">
<title>Node4</title>
<g id="a_node4"><a xlink:href="../../dd/d65/game__helper_8h.html#a03d9f7e90ecc6a670f43c0510bf272c0" target="_top" xlink:title="Processes the incoming packet from the UART (COM1) and executes the associated logic.">
<polygon fill="none" stroke="#000000" points="119,-.5 119,-19.5 225,-19.5 225,-.5 119,-.5"/>
<text text-anchor="middle" x="172" y="-7.5" font-family="Helvetica" font-size="10.00" fill="#000000">process_uart_packet</text>
</a>
</g>
</g>
<!-- Node1&#45;&gt;Node4 -->
<g id="edge3" class="edge">
<title>Node1&#45;&gt;Node4</title>
<path fill="none" stroke="#191970" d="M252.956,-35.3196C236.5394,-30.1852 217.9011,-24.3559 202.6498,-19.5859"/>
<polygon fill="#191970" stroke="#191970" points="252.2515,-38.7664 262.8404,-38.411 254.3411,-32.0855 252.2515,-38.7664"/>
</g>
<!-- Node2&#45;&gt;Node3 -->
<g id="edge2" class="edge">
<title>Node2&#45;&gt;Node3</title>
<path fill="none" stroke="#191970" d="M129.4482,-73.6094C111.5768,-68.4055 91.1103,-62.4459 74.4201,-57.5859"/>
<polygon fill="#191970" stroke="#191970" points="128.4896,-76.9756 139.0693,-76.411 130.4466,-70.2547 128.4896,-76.9756"/>
</g>
<!-- Node4&#45;&gt;Node3 -->
<g id="edge4" class="edge">
<title>Node4&#45;&gt;Node3</title>
<path fill="none" stroke="#191970" d="M129.4482,-22.3906C111.5768,-27.5945 91.1103,-33.5541 74.4201,-38.4141"/>
<polygon fill="#191970" stroke="#191970" points="130.4466,-25.7453 139.0693,-19.589 128.4896,-19.0244 130.4466,-25.7453"/>
</g>
</g>
</svg>
