<?xml version="1.0" encoding="UTF-8" standalone="no"?>
<!DOCTYPE svg PUBLIC "-//W3C//DTD SVG 1.1//EN"
 "http://www.w3.org/Graphics/SVG/1.1/DTD/svg11.dtd">
<!-- Generated by graphviz version 2.40.1 (20161225.0304)
 -->
<!-- Title: utils.c Pages: 1 -->
<svg width="235pt" height="140pt"
 viewBox="0.00 0.00 234.93 140.00" xmlns="http://www.w3.org/2000/svg" xmlns:xlink="http://www.w3.org/1999/xlink">
<g id="graph0" class="graph" transform="scale(1 1) rotate(0) translate(4 136)">
<title>utils.c</title>
<!-- Node1 -->
<g id="node1" class="node">
<title>Node1</title>
<g id="a_node1"><a xlink:title=" ">
<polygon fill="#bfbfbf" stroke="#000000" points="70.4316,-112.5 70.4316,-131.5 111.4316,-131.5 111.4316,-112.5 70.4316,-112.5"/>
<text text-anchor="middle" x="90.9316" y="-119.5" font-family="Helvetica" font-size="10.00" fill="#000000">utils.c</text>
</a>
</g>
</g>
<!-- Node2 -->
<g id="node2" class="node">
<title>Node2</title>
<g id="a_node2"><a xlink:title=" ">
<polygon fill="none" stroke="#bfbfbf" points="65.4316,-.5 65.4316,-19.5 124.4316,-19.5 124.4316,-.5 65.4316,-.5"/>
<text text-anchor="middle" x="94.9316" y="-7.5" font-family="Helvetica" font-size="10.00" fill="#000000">lcom/lcf.h</text>
</a>
</g>
</g>
<!-- Node1&#45;&gt;Node2 -->
<g id="edge1" class="edge">
<title>Node1&#45;&gt;Node2</title>
<path fill="none" stroke="#191970" d="M70.3277,-116.48C39.1741,-107.0389 -14.4421,-85.8756 3.9316,-56 15.2244,-37.6379 36.3643,-26.3363 55.4279,-19.5329"/>
<polygon fill="#191970" stroke="#191970" points="56.718,-22.7938 65.1445,-16.3717 54.5523,-16.1373 56.718,-22.7938"/>
</g>
<!-- Node3 -->
<g id="node3" class="node">
<title>Node3</title>
<g id="a_node3"><a xlink:title=" ">
<polygon fill="none" stroke="#bfbfbf" points="13.4316,-56.5 13.4316,-75.5 82.4316,-75.5 82.4316,-56.5 13.4316,-56.5"/>
<text text-anchor="middle" x="47.9316" y="-63.5" font-family="Helvetica" font-size="10.00" fill="#000000">lcom/liblm.h</text>
</a>
</g>
</g>
<!-- Node1&#45;&gt;Node3 -->
<g id="edge2" class="edge">
<title>Node1&#45;&gt;Node3</title>
<path fill="none" stroke="#191970" d="M83.4416,-112.2455C77.399,-104.3761 68.7413,-93.101 61.4875,-83.6542"/>
<polygon fill="#191970" stroke="#191970" points="64.2021,-81.4426 55.3358,-75.6427 58.6501,-85.7058 64.2021,-81.4426"/>
</g>
<!-- Node4 -->
<g id="node4" class="node">
<title>Node4</title>
<g id="a_node4"><a xlink:title=" ">
<polygon fill="none" stroke="#bfbfbf" points="100.9316,-56.5 100.9316,-75.5 166.9316,-75.5 166.9316,-56.5 100.9316,-56.5"/>
<text text-anchor="middle" x="133.9316" y="-63.5" font-family="Helvetica" font-size="10.00" fill="#000000">lcom/proj.h</text>
</a>
</g>
</g>
<!-- Node1&#45;&gt;Node4 -->
<g id="edge3" class="edge">
<title>Node1&#45;&gt;Node4</title>
<path fill="none" stroke="#191970" d="M98.4216,-112.2455C104.4642,-104.3761 113.1219,-93.101 120.3757,-83.6542"/>
<polygon fill="#191970" stroke="#191970" points="123.2131,-85.7058 126.5274,-75.6427 117.6611,-81.4426 123.2131,-85.7058"/>
</g>
<!-- Node5 -->
<g id="node5" class="node">
<title>Node5</title>
<g id="a_node5"><a xlink:href="../../d5/d60/utils_8h.html" target="_top" xlink:title=" ">
<polygon fill="none" stroke="#000000" points="184.9316,-56.5 184.9316,-75.5 226.9316,-75.5 226.9316,-56.5 184.9316,-56.5"/>
<text text-anchor="middle" x="205.9316" y="-63.5" font-family="Helvetica" font-size="10.00" fill="#000000">utils.h</text>
</a>
</g>
</g>
<!-- Node1&#45;&gt;Node5 -->
<g id="edge4" class="edge">
<title>Node1&#45;&gt;Node5</title>
<path fill="none" stroke="#191970" d="M110.7008,-112.3733C129.0785,-103.4241 156.6628,-89.9917 177.4209,-79.8835"/>
<polygon fill="#191970" stroke="#191970" points="178.962,-83.026 186.4204,-75.5011 175.8973,-76.7325 178.962,-83.026"/>
</g>
<!-- Node5&#45;&gt;Node2 -->
<g id="edge5" class="edge">
<title>Node5&#45;&gt;Node2</title>
<path fill="none" stroke="#191970" d="M186.85,-56.3733C169.1914,-47.4644 142.7264,-34.1127 122.7218,-24.0203"/>
<polygon fill="#191970" stroke="#191970" points="124.2688,-20.8806 113.7642,-19.5011 121.1158,-27.1303 124.2688,-20.8806"/>
</g>
</g>
</svg>
