<?xml version="1.0" encoding="UTF-8" standalone="no"?>
<!DOCTYPE svg PUBLIC "-//W3C//DTD SVG 1.1//EN"
 "http://www.w3.org/Graphics/SVG/1.1/DTD/svg11.dtd">
<!-- Generated by graphviz version 2.40.1 (20161225.0304)
 -->
<!-- Title: on_timer_int Pages: 1 -->
<!--zoomable 822 -->
<svg id="main" version="1.1" xmlns="http://www.w3.org/2000/svg" xmlns:xlink="http://www.w3.org/1999/xlink" xml:space="preserve" onload="init(evt)">
<style type="text/css"><![CDATA[
.edge:hover path { stroke: red; }
.edge:hover polygon { stroke: red; fill: red; }
]]></style>
<script type="text/javascript"><![CDATA[
var edges = document.getElementsByTagName('g');
if (edges && edges.length) {
  for (var i=0;i<edges.length;i++) {
    if (edges[i].id.substr(0,4)=='edge') {
      edges[i].setAttribute('class','edge');
    }
  }
}
]]></script>
        <defs>
                <circle id="rim" cx="0" cy="0" r="7"/>
                <circle id="rim2" cx="0" cy="0" r="3.5"/>
                <g id="zoomPlus">
                        <use xlink:href="#rim" fill="#404040">
                                <set attributeName="fill" to="#808080" begin="zoomplus.mouseover" end="zoomplus.mouseout"/>
                        </use>
                        <path d="M-4,0h8M0,-4v8" fill="none" stroke="white" stroke-width="1.5" pointer-events="none"/>
                </g>
                <g id="zoomMin">
                        <use xlink:href="#rim" fill="#404040">
                                <set attributeName="fill" to="#808080" begin="zoomminus.mouseover" end="zoomminus.mouseout"/>
                        </use>
                        <path d="M-4,0h8" fill="none" stroke="white" stroke-width="1.5" pointer-events="none"/>
                </g>
                <g id="dirArrow">
                        <path fill="none" stroke="white" stroke-width="1.5" d="M0,-3.0v7 M-2.5,-0.5L0,-3.0L2.5,-0.5"/>
                </g>
               <g id="resetDef">
                       <use xlink:href="#rim2" fill="#404040">
                               <set attributeName="fill" to="#808080" begin="reset.mouseover" end="reset.mouseout"/>
                       </use>
               </g>
        </defs>

<script type="text/javascript">
var viewWidth = 899;
var viewHeight = 822;
var sectionId = 'dynsection-3';
</script>
<script xlink:href="../../svgpan.js"/>
<svg id="graph" class="graph">
<g id="viewport">
<title>on_timer_int</title>
<!-- Node1 -->
<g id="node1" class="node">
<title>Node1</title>
<g id="a_node1"><a xlink:title="Performs all game logic and displaying that occurs every frame depending on the game state.">
<polygon fill="#bfbfbf" stroke="#000000" points="0,-509.5 0,-528.5 71,-528.5 71,-509.5 0,-509.5"/>
<text text-anchor="middle" x="35.5" y="-516.5" font-family="Helvetica" font-size="10.00" fill="#000000">on_timer_int</text>
</a>
</g>
</g>
<!-- Node2 -->
<g id="node2" class="node">
<title>Node2</title>
<g id="a_node2"><a xlink:href="../../d5/d95/graphics_8c.html#a74e144eb06b26dc73a1c359c2903942f" target="_top" xlink:title="Refreshes the background to be displayed.">
<polygon fill="none" stroke="#000000" points="107.5,-756.5 107.5,-775.5 210.5,-775.5 210.5,-756.5 107.5,-756.5"/>
<text text-anchor="middle" x="159" y="-763.5" font-family="Helvetica" font-size="10.00" fill="#000000">background_refresh</text>
</a>
</g>
</g>
<!-- Node1&#45;&gt;Node2 -->
<g id="edge1" class="edge">
<title>Node1&#45;&gt;Node2</title>
<path fill="none" stroke="#191970" d="M37.369,-528.7607C45.0593,-568.0155 75.3475,-713.8426 107,-747 108.3937,-748.46 109.9087,-749.8083 111.5157,-751.0534"/>
<polygon fill="#191970" stroke="#191970" points="109.8444,-754.136 120.1815,-756.4586 113.549,-748.1966 109.8444,-754.136"/>
</g>
<!-- Node3 -->
<g id="node3" class="node">
<title>Node3</title>
<g id="a_node3"><a xlink:href="../../db/d6f/enemies_8c.html#a551793ac2170b5920afc6931f2beba65" target="_top" xlink:title="Moves every enemy in the grid.">
<polygon fill="none" stroke="#000000" points="107,-718.5 107,-737.5 211,-737.5 211,-718.5 107,-718.5"/>
<text text-anchor="middle" x="159" y="-725.5" font-family="Helvetica" font-size="10.00" fill="#000000">grid_enemies_move</text>
</a>
</g>
</g>
<!-- Node1&#45;&gt;Node3 -->
<g id="edge2" class="edge">
<title>Node1&#45;&gt;Node3</title>
<path fill="none" stroke="#191970" d="M36.3596,-528.8096C39.5842,-559.7209 53.6626,-656.1727 107,-709 108.4597,-710.4457 110.0381,-711.7825 111.7054,-713.0184"/>
<polygon fill="#191970" stroke="#191970" points="110.269,-716.2389 120.6421,-718.3952 113.8778,-710.2408 110.269,-716.2389"/>
</g>
<!-- Node7 -->
<g id="node7" class="node">
<title>Node7</title>
<g id="a_node7"><a xlink:href="../../d5/d95/graphics_8c.html#a14e97e0c6ca78aa36cd6ff8cfd0b046f" target="_top" xlink:title="Calculates the grid position of the cursor.">
<polygon fill="none" stroke="#000000" points="115.5,-604.5 115.5,-623.5 202.5,-623.5 202.5,-604.5 115.5,-604.5"/>
<text text-anchor="middle" x="159" y="-611.5" font-family="Helvetica" font-size="10.00" fill="#000000">mouse_grid_pos</text>
</a>
</g>
</g>
<!-- Node1&#45;&gt;Node7 -->
<g id="edge6" class="edge">
<title>Node1&#45;&gt;Node7</title>
<path fill="none" stroke="#191970" d="M43.4145,-528.8145C55.7447,-543.6128 80.8518,-571.8353 107,-590 112.3589,-593.7227 118.3874,-597.114 124.3901,-600.099"/>
<polygon fill="#191970" stroke="#191970" points="123.1598,-603.3872 133.7018,-604.4448 126.1203,-597.044 123.1598,-603.3872"/>
</g>
<!-- Node8 -->
<g id="node8" class="node">
<title>Node8</title>
<g id="a_node8"><a xlink:href="../../d5/d95/graphics_8c.html#ac057f434904c38cc92e73cb8c9886e1c" target="_top" xlink:title="Fills an area of the screen.">
<polygon fill="none" stroke="#000000" points="587.5,-516.5 587.5,-535.5 649.5,-535.5 649.5,-516.5 587.5,-516.5"/>
<text text-anchor="middle" x="618.5" y="-523.5" font-family="Helvetica" font-size="10.00" fill="#000000">paint_area</text>
</a>
</g>
</g>
<!-- Node1&#45;&gt;Node8 -->
<g id="edge7" class="edge">
<title>Node1&#45;&gt;Node8</title>
<path fill="none" stroke="#191970" d="M48.9584,-528.5648C62.7775,-537.7853 85.2763,-551.1721 107,-557 276.8541,-602.5673 489.372,-559.2807 577.3943,-537.1906"/>
<polygon fill="#191970" stroke="#191970" points="578.4306,-540.5384 587.2539,-534.6732 576.6988,-533.756 578.4306,-540.5384"/>
</g>
<!-- Node10 -->
<g id="node10" class="node">
<title>Node10</title>
<g id="a_node10"><a xlink:href="../../d5/d95/graphics_8c.html#a9bd4de8619e4f311211cf1a97aee2464" target="_top" xlink:title="Prints the lateral walls of the game board.">
<polygon fill="none" stroke="#000000" points="247,-441 247,-471 372,-471 372,-441 247,-441"/>
<text text-anchor="start" x="255" y="-459" font-family="Helvetica" font-size="10.00" fill="#000000">paint_background_lateral</text>
<text text-anchor="middle" x="309.5" y="-448" font-family="Helvetica" font-size="10.00" fill="#000000">_walls</text>
</a>
</g>
</g>
<!-- Node1&#45;&gt;Node10 -->
<g id="edge9" class="edge">
<title>Node1&#45;&gt;Node10</title>
<path fill="none" stroke="#191970" d="M52.586,-509.4224C66.742,-501.9072 87.6095,-491.7809 107,-486 149.051,-473.4632 197.6429,-466.041 236.6852,-461.7161"/>
<polygon fill="#191970" stroke="#191970" points="237.3375,-465.1666 246.9116,-460.6295 236.5977,-458.2058 237.3375,-465.1666"/>
</g>
<!-- Node11 -->
<g id="node11" class="node">
<title>Node11</title>
<g id="a_node11"><a xlink:href="../../d5/d95/graphics_8c.html#a6386a61a54c277c05a7ab9d5737edcd8" target="_top" xlink:title="Paints a XPM file in the screen at coordinates ( start_x , start_y )">
<polygon fill="none" stroke="#000000" points="587.5,-426.5 587.5,-445.5 649.5,-445.5 649.5,-426.5 587.5,-426.5"/>
<text text-anchor="middle" x="618.5" y="-433.5" font-family="Helvetica" font-size="10.00" fill="#000000">paint_xpm</text>
</a>
</g>
</g>
<!-- Node1&#45;&gt;Node11 -->
<g id="edge21" class="edge">
<title>Node1&#45;&gt;Node11</title>
<path fill="none" stroke="#191970" d="M71.1777,-517.0472C154.4369,-511.998 367.7244,-496.2141 542,-459 554.9493,-456.2349 568.8803,-452.3331 581.2597,-448.5271"/>
<polygon fill="#191970" stroke="#191970" points="582.3208,-451.8625 590.8067,-445.5188 580.217,-445.1861 582.3208,-451.8625"/>
</g>
<!-- Node12 -->
<g id="node12" class="node">
<title>Node12</title>
<g id="a_node12"><a xlink:href="../../d5/d95/graphics_8c.html#a9aa917ce9e83c51b0b3d230345c4cefd" target="_top" xlink:title="Paints the Cursor.">
<polygon fill="none" stroke="#000000" points="274.5,-402.5 274.5,-421.5 344.5,-421.5 344.5,-402.5 274.5,-402.5"/>
<text text-anchor="middle" x="309.5" y="-409.5" font-family="Helvetica" font-size="10.00" fill="#000000">paint_cursor</text>
</a>
</g>
</g>
<!-- Node1&#45;&gt;Node12 -->
<g id="edge12" class="edge">
<title>Node1&#45;&gt;Node12</title>
<path fill="none" stroke="#191970" d="M44.2239,-509.4574C56.8008,-496.2946 81.3478,-472.7516 107,-460 157.5125,-434.8904 221.7312,-422.5548 264.1503,-416.7515"/>
<polygon fill="#191970" stroke="#191970" points="264.7141,-420.2077 274.1784,-415.4458 263.8102,-413.2663 264.7141,-420.2077"/>
</g>
<!-- Node13 -->
<g id="node13" class="node">
<title>Node13</title>
<g id="a_node13"><a xlink:href="../../d5/d95/graphics_8c.html#ab65f3f5dea52f13a56190f2bdaef5d63" target="_top" xlink:title="Paints the entities of the game (playes, monsters, etc)">
<polygon fill="none" stroke="#000000" points="129.5,-528.5 129.5,-547.5 188.5,-547.5 188.5,-528.5 129.5,-528.5"/>
<text text-anchor="middle" x="159" y="-535.5" font-family="Helvetica" font-size="10.00" fill="#000000">paint_grid</text>
</a>
</g>
</g>
<!-- Node1&#45;&gt;Node13 -->
<g id="edge14" class="edge">
<title>Node1&#45;&gt;Node13</title>
<path fill="none" stroke="#191970" d="M71.2213,-524.4956C86.1547,-526.793 103.5741,-529.4729 118.9406,-531.837"/>
<polygon fill="#191970" stroke="#191970" points="118.7792,-535.3533 129.1951,-533.4146 119.8436,-528.4347 118.7792,-535.3533"/>
</g>
<!-- Node14 -->
<g id="node14" class="node">
<title>Node14</title>
<g id="a_node14"><a xlink:href="../../d5/d95/graphics_8c.html#ace731048796b4c75099bc7fa87d00908" target="_top" xlink:title="Paints in the screen s.">
<polygon fill="none" stroke="#000000" points="280,-326.5 280,-345.5 339,-345.5 339,-326.5 280,-326.5"/>
<text text-anchor="middle" x="309.5" y="-333.5" font-family="Helvetica" font-size="10.00" fill="#000000">paint_text</text>
</a>
</g>
</g>
<!-- Node1&#45;&gt;Node14 -->
<g id="edge16" class="edge">
<title>Node1&#45;&gt;Node14</title>
<path fill="none" stroke="#191970" d="M36.4301,-509.1417C39.7641,-479.9222 53.9132,-393.4314 107,-355 154.5307,-320.5908 225.6819,-322.8478 269.7598,-328.6676"/>
<polygon fill="#191970" stroke="#191970" points="269.4152,-332.1541 279.8127,-330.1189 270.4155,-325.2259 269.4152,-332.1541"/>
</g>
<!-- Node15 -->
<g id="node15" class="node">
<title>Node15</title>
<g id="a_node15"><a xlink:href="../../d5/d95/graphics_8c.html#a3fc4a889f36484e2d8a9624cac61df58" target="_top" xlink:title="Paints the UI elements to the screen.">
<polygon fill="none" stroke="#000000" points="132.5,-364.5 132.5,-383.5 185.5,-383.5 185.5,-364.5 132.5,-364.5"/>
<text text-anchor="middle" x="159" y="-371.5" font-family="Helvetica" font-size="10.00" fill="#000000">paint_UI</text>
</a>
</g>
</g>
<!-- Node1&#45;&gt;Node15 -->
<g id="edge18" class="edge">
<title>Node1&#45;&gt;Node15</title>
<path fill="none" stroke="#191970" d="M39.2469,-509.2311C48.0595,-487.346 72.0278,-433.7417 107,-401 112.1887,-396.1422 118.419,-391.9247 124.7357,-388.36"/>
<polygon fill="#191970" stroke="#191970" points="126.6621,-391.3043 133.9409,-383.6056 123.4498,-385.0848 126.6621,-391.3043"/>
</g>
<!-- Node16 -->
<g id="node16" class="node">
<title>Node16</title>
<g id="a_node16"><a xlink:href="../../d1/db8/player_8c.html#a43024b59b971eee693bdf802580d046e" target="_top" xlink:title="The spearman acts acording to action in PA.">
<polygon fill="none" stroke="#000000" points="120.5,-680.5 120.5,-699.5 197.5,-699.5 197.5,-680.5 120.5,-680.5"/>
<text text-anchor="middle" x="159" y="-687.5" font-family="Helvetica" font-size="10.00" fill="#000000">spearman_act</text>
</a>
</g>
</g>
<!-- Node1&#45;&gt;Node16 -->
<g id="edge22" class="edge">
<title>Node1&#45;&gt;Node16</title>
<path fill="none" stroke="#191970" d="M37.7441,-528.576C44.1892,-554.1482 65.0411,-624.8842 107,-666 110.8083,-669.7318 115.3028,-672.9532 120.029,-675.7144"/>
<polygon fill="#191970" stroke="#191970" points="118.7894,-679.0125 129.2835,-680.4702 121.9889,-672.7864 118.7894,-679.0125"/>
</g>
<!-- Node28 -->
<g id="node28" class="node">
<title>Node28</title>
<g id="a_node28"><a xlink:href="../../d1/d87/uart_8c.html#ad98091201e75ffc65de031e31b3e4032" target="_top" xlink:title="First step of syncing the players in COOP mode.">
<polygon fill="none" stroke="#000000" points="578,-604.5 578,-623.5 659,-623.5 659,-604.5 578,-604.5"/>
<text text-anchor="middle" x="618.5" y="-611.5" font-family="Helvetica" font-size="10.00" fill="#000000">sync_first_step</text>
</a>
</g>
</g>
<!-- Node1&#45;&gt;Node28 -->
<g id="edge37" class="edge">
<title>Node1&#45;&gt;Node28</title>
<path fill="none" stroke="#191970" d="M38.0888,-528.6835C44.8579,-551.8109 65.5016,-610.0423 107,-633 184.9484,-676.1225 454.5329,-640.047 567.7773,-622.3749"/>
<polygon fill="#191970" stroke="#191970" points="568.5826,-625.7912 577.9155,-620.7766 567.4925,-618.8766 568.5826,-625.7912"/>
</g>
<!-- Node30 -->
<g id="node30" class="node">
<title>Node30</title>
<g id="a_node30"><a xlink:href="../../d5/df6/entities_8c.html#aeae621c58e08b754e9c212bee6d0f477" target="_top" xlink:title="Updates the animations of all Entities.">
<polygon fill="none" stroke="#000000" points="110,-270.5 110,-289.5 208,-289.5 208,-270.5 110,-270.5"/>
<text text-anchor="middle" x="159" y="-277.5" font-family="Helvetica" font-size="10.00" fill="#000000">update_animations</text>
</a>
</g>
</g>
<!-- Node1&#45;&gt;Node30 -->
<g id="edge40" class="edge">
<title>Node1&#45;&gt;Node30</title>
<path fill="none" stroke="#191970" d="M37.1398,-509.1063C42.5647,-478.6844 62.1963,-384.7887 107,-322 114.3283,-311.73 124.8106,-302.6081 134.4464,-295.5113"/>
<polygon fill="#191970" stroke="#191970" points="136.741,-298.1783 142.9429,-289.5884 132.7378,-292.4359 136.741,-298.1783"/>
</g>
<!-- Node41 -->
<g id="node41" class="node">
<title>Node41</title>
<g id="a_node41"><a xlink:href="../../d5/d95/graphics_8c.html#a63ccf23042b75794534fad458b21dbb2" target="_top" xlink:title="Refreshes the screen.">
<polygon fill="none" stroke="#000000" points="121,-232.5 121,-251.5 197,-251.5 197,-232.5 121,-232.5"/>
<text text-anchor="middle" x="159" y="-239.5" font-family="Helvetica" font-size="10.00" fill="#000000">video_refresh</text>
</a>
</g>
</g>
<!-- Node1&#45;&gt;Node41 -->
<g id="edge52" class="edge">
<title>Node1&#45;&gt;Node41</title>
<path fill="none" stroke="#191970" d="M36.9611,-509.4266C43.5567,-467.3412 71.7694,-299.1668 107,-261 108.5626,-259.3072 110.2884,-257.7648 112.1332,-256.3595"/>
<polygon fill="#191970" stroke="#191970" points="114.1385,-259.2359 120.8462,-251.0348 110.4883,-253.263 114.1385,-259.2359"/>
</g>
<!-- Node4 -->
<g id="node4" class="node">
<title>Node4</title>
<g id="a_node4"><a xlink:href="../../db/d6f/enemies_8c.html#aa5b90db246913c9baf07f38ffb39af80" target="_top" xlink:title="Makes the blob act (move or attack)">
<polygon fill="none" stroke="#000000" points="268,-756.5 268,-775.5 351,-775.5 351,-756.5 268,-756.5"/>
<text text-anchor="middle" x="309.5" y="-763.5" font-family="Helvetica" font-size="10.00" fill="#000000">green_blob_act</text>
</a>
</g>
</g>
<!-- Node3&#45;&gt;Node4 -->
<g id="edge3" class="edge">
<title>Node3&#45;&gt;Node4</title>
<path fill="none" stroke="#191970" d="M196.9775,-737.589C216.6587,-742.5583 240.8907,-748.6767 261.8206,-753.9613"/>
<polygon fill="#191970" stroke="#191970" points="261.243,-757.4253 271.7956,-756.4799 262.9567,-750.6383 261.243,-757.4253"/>
</g>
<!-- Node5 -->
<g id="node5" class="node">
<title>Node5</title>
<g id="a_node5"><a xlink:href="../../d5/df6/entities_8c.html#a7458b099aabee51298042e2edde9e2d8" target="_top" xlink:title="Modifies the HP of an Entity in position ( x , y ) by health_mod.">
<polygon fill="none" stroke="#000000" points="430.5,-718.5 430.5,-737.5 519.5,-737.5 519.5,-718.5 430.5,-718.5"/>
<text text-anchor="middle" x="475" y="-725.5" font-family="Helvetica" font-size="10.00" fill="#000000">grid_health_mod</text>
</a>
</g>
</g>
<!-- Node4&#45;&gt;Node5 -->
<g id="edge4" class="edge">
<title>Node4&#45;&gt;Node5</title>
<path fill="none" stroke="#191970" d="M351.2626,-756.411C373.2005,-751.3739 400.2803,-745.1562 423.508,-739.8229"/>
<polygon fill="#191970" stroke="#191970" points="424.5746,-743.1692 433.5377,-737.5201 423.008,-736.3467 424.5746,-743.1692"/>
</g>
<!-- Node6 -->
<g id="node6" class="node">
<title>Node6</title>
<g id="a_node6"><a xlink:href="../../d5/df6/entities_8c.html#a525a3fe4f3a4d24d73ce258b817462d7" target="_top" xlink:title="Moves an entity from position ( curr_x , curr_y ) to postition ( new_x, new_y )">
<polygon fill="none" stroke="#000000" points="444,-775.5 444,-794.5 506,-794.5 506,-775.5 444,-775.5"/>
<text text-anchor="middle" x="475" y="-782.5" font-family="Helvetica" font-size="10.00" fill="#000000">grid_move</text>
</a>
</g>
</g>
<!-- Node4&#45;&gt;Node6 -->
<g id="edge5" class="edge">
<title>Node4&#45;&gt;Node6</title>
<path fill="none" stroke="#191970" d="M351.2626,-770.7945C376.5954,-773.7028 408.7847,-777.3982 433.9815,-780.2909"/>
<polygon fill="#191970" stroke="#191970" points="433.6278,-783.7732 443.9618,-781.4367 434.4263,-776.8189 433.6278,-783.7732"/>
</g>
<!-- Node9 -->
<g id="node9" class="node">
<title>Node9</title>
<g id="a_node9"><a xlink:href="../../d5/d95/graphics_8c.html#ac8c3ed74f805c5bccd091d94f5d72242" target="_top" xlink:title="Paints a pixel in coordinates ( x , y ) with colour.">
<polygon fill="none" stroke="#000000" points="710,-472.5 710,-491.5 773,-491.5 773,-472.5 710,-472.5"/>
<text text-anchor="middle" x="741.5" y="-479.5" font-family="Helvetica" font-size="10.00" fill="#000000">paint_pixel</text>
</a>
</g>
</g>
<!-- Node8&#45;&gt;Node9 -->
<g id="edge8" class="edge">
<title>Node8&#45;&gt;Node9</title>
<path fill="none" stroke="#191970" d="M645.1892,-516.4527C662.7579,-510.1679 685.978,-501.8615 705.2164,-494.9795"/>
<polygon fill="#191970" stroke="#191970" points="706.6261,-498.1925 714.8629,-491.5287 704.2683,-491.6015 706.6261,-498.1925"/>
</g>
<!-- Node10&#45;&gt;Node11 -->
<g id="edge10" class="edge">
<title>Node10&#45;&gt;Node11</title>
<path fill="none" stroke="#191970" d="M372.0308,-451.9527C433.2018,-447.9934 524.615,-442.0767 577.2156,-438.6721"/>
<polygon fill="#191970" stroke="#191970" points="577.4448,-442.1647 587.1978,-438.026 576.9926,-435.1793 577.4448,-442.1647"/>
</g>
<!-- Node11&#45;&gt;Node9 -->
<g id="edge11" class="edge">
<title>Node11&#45;&gt;Node9</title>
<path fill="none" stroke="#191970" d="M643.9857,-445.5312C662.1269,-452.3158 686.7235,-461.5145 706.6746,-468.9759"/>
<polygon fill="#191970" stroke="#191970" points="705.4545,-472.2563 716.047,-472.481 707.9066,-465.6998 705.4545,-472.2563"/>
</g>
<!-- Node12&#45;&gt;Node11 -->
<g id="edge13" class="edge">
<title>Node12&#45;&gt;Node11</title>
<path fill="none" stroke="#191970" d="M344.6454,-414.7297C402.0651,-419.1895 515.7209,-428.0172 577.0092,-432.7774"/>
<polygon fill="#191970" stroke="#191970" points="576.8582,-436.2761 587.0992,-433.5611 577.4003,-429.2972 576.8582,-436.2761"/>
</g>
<!-- Node13&#45;&gt;Node11 -->
<g id="edge15" class="edge">
<title>Node13&#45;&gt;Node11</title>
<path fill="none" stroke="#191970" d="M188.5672,-543.011C255.2186,-552.8889 420.819,-569.4067 542,-514 570.3142,-501.0541 593.7693,-472.6432 606.9561,-453.9209"/>
<polygon fill="#191970" stroke="#191970" points="609.8697,-455.8605 612.5812,-445.6185 604.0745,-451.9342 609.8697,-455.8605"/>
</g>
<!-- Node14&#45;&gt;Node11 -->
<g id="edge17" class="edge">
<title>Node14&#45;&gt;Node11</title>
<path fill="none" stroke="#191970" d="M339.0476,-333.1984C384.8812,-330.1277 474.8247,-329.2679 542,-361 569.0668,-373.7857 592.3372,-400.139 605.8864,-417.9465"/>
<polygon fill="#191970" stroke="#191970" points="603.32,-420.3657 612.0543,-426.3626 608.9661,-416.2278 603.32,-420.3657"/>
</g>
<!-- Node15&#45;&gt;Node11 -->
<g id="edge20" class="edge">
<title>Node15&#45;&gt;Node11</title>
<path fill="none" stroke="#191970" d="M185.7221,-375.174C248.4665,-378.2958 409.8918,-388.4536 542,-415 553.6967,-417.3504 566.2368,-420.5146 577.7103,-423.6728"/>
<polygon fill="#191970" stroke="#191970" points="576.8958,-427.0796 587.4705,-426.4261 578.7963,-420.3425 576.8958,-427.0796"/>
</g>
<!-- Node15&#45;&gt;Node14 -->
<g id="edge19" class="edge">
<title>Node15&#45;&gt;Node14</title>
<path fill="none" stroke="#191970" d="M185.5599,-367.2938C208.9806,-361.3803 243.4291,-352.6824 270.0674,-345.9564"/>
<polygon fill="#191970" stroke="#191970" points="271.0163,-349.3267 279.8552,-343.4851 269.3026,-342.5397 271.0163,-349.3267"/>
</g>
<!-- Node17 -->
<g id="node17" class="node">
<title>Node17</title>
<g id="a_node17"><a xlink:href="../../d1/db8/player_8c.html#a05430863106de447d8a85bb9d840284f" target="_top" xlink:title="The spearman attacks in its direction.">
<polygon fill="none" stroke="#000000" points="264,-718.5 264,-737.5 355,-737.5 355,-718.5 264,-718.5"/>
<text text-anchor="middle" x="309.5" y="-725.5" font-family="Helvetica" font-size="10.00" fill="#000000">spearman_attack</text>
</a>
</g>
</g>
<!-- Node16&#45;&gt;Node17 -->
<g id="edge23" class="edge">
<title>Node16&#45;&gt;Node17</title>
<path fill="none" stroke="#191970" d="M196.9775,-699.589C216.6587,-704.5583 240.8907,-710.6767 261.8206,-715.9613"/>
<polygon fill="#191970" stroke="#191970" points="261.243,-719.4253 271.7956,-718.4799 262.9567,-712.6383 261.243,-719.4253"/>
</g>
<!-- Node18 -->
<g id="node18" class="node">
<title>Node18</title>
<g id="a_node18"><a xlink:href="../../d1/db8/player_8c.html#a2e812fcd1282d5901ee15ee07434f73b" target="_top" xlink:title="The spearman moves in direction.">
<polygon fill="none" stroke="#000000" points="265,-794.5 265,-813.5 354,-813.5 354,-794.5 265,-794.5"/>
<text text-anchor="middle" x="309.5" y="-801.5" font-family="Helvetica" font-size="10.00" fill="#000000">spearman_move</text>
</a>
</g>
</g>
<!-- Node16&#45;&gt;Node18 -->
<g id="edge25" class="edge">
<title>Node16&#45;&gt;Node18</title>
<path fill="none" stroke="#191970" d="M196.2762,-699.5246C201.6187,-702.0061 206.7389,-705.1141 211,-709 238.6167,-734.1845 218.699,-760.5871 247,-785 249.6567,-787.2918 252.5842,-789.3071 255.678,-791.0793"/>
<polygon fill="#191970" stroke="#191970" points="254.2239,-794.2638 264.7512,-795.4579 257.2663,-787.9595 254.2239,-794.2638"/>
</g>
<!-- Node19 -->
<g id="node19" class="node">
<title>Node19</title>
<g id="a_node19"><a xlink:href="../../d1/db8/player_8c.html#aa281b82564297b42eb7b3bf734650e36" target="_top" xlink:title="The spearman uses its special ability.">
<polygon fill="none" stroke="#000000" points="262.5,-680.5 262.5,-699.5 356.5,-699.5 356.5,-680.5 262.5,-680.5"/>
<text text-anchor="middle" x="309.5" y="-687.5" font-family="Helvetica" font-size="10.00" fill="#000000">spearman_special</text>
</a>
</g>
</g>
<!-- Node16&#45;&gt;Node19 -->
<g id="edge27" class="edge">
<title>Node16&#45;&gt;Node19</title>
<path fill="none" stroke="#191970" d="M197.7575,-690C214.2883,-690 233.9193,-690 252.0801,-690"/>
<polygon fill="#191970" stroke="#191970" points="252.2777,-693.5001 262.2777,-690 252.2776,-686.5001 252.2777,-693.5001"/>
</g>
<!-- Node17&#45;&gt;Node5 -->
<g id="edge24" class="edge">
<title>Node17&#45;&gt;Node5</title>
<path fill="none" stroke="#191970" d="M355.1617,-728C375.3064,-728 399.1484,-728 420.2403,-728"/>
<polygon fill="#191970" stroke="#191970" points="420.3454,-731.5001 430.3454,-728 420.3453,-724.5001 420.3454,-731.5001"/>
</g>
<!-- Node18&#45;&gt;Node6 -->
<g id="edge26" class="edge">
<title>Node18&#45;&gt;Node6</title>
<path fill="none" stroke="#191970" d="M354.2867,-798.8583C379.0806,-796.0119 409.6799,-792.499 433.8664,-789.7223"/>
<polygon fill="#191970" stroke="#191970" points="434.2684,-793.1992 443.8039,-788.5814 433.4699,-786.2449 434.2684,-793.1992"/>
</g>
<!-- Node19&#45;&gt;Node5 -->
<g id="edge28" class="edge">
<title>Node19&#45;&gt;Node5</title>
<path fill="none" stroke="#191970" d="M351.2626,-699.589C373.2005,-704.6261 400.2803,-710.8438 423.508,-716.1771"/>
<polygon fill="#191970" stroke="#191970" points="423.008,-719.6533 433.5377,-718.4799 424.5746,-712.8308 423.008,-719.6533"/>
</g>
<!-- Node20 -->
<g id="node20" class="node">
<title>Node20</title>
<g id="a_node20"><a xlink:href="../../d4/dcc/rtc_8c.html#adb4289b2015a3ec052bae20542244311" target="_top" xlink:title="Sets an alarm at current_time + delta_seconds.">
<polygon fill="none" stroke="#000000" points="419,-680.5 419,-699.5 531,-699.5 531,-680.5 419,-680.5"/>
<text text-anchor="middle" x="475" y="-687.5" font-family="Helvetica" font-size="10.00" fill="#000000">rtc_set_alarm_delta_s</text>
</a>
</g>
</g>
<!-- Node19&#45;&gt;Node20 -->
<g id="edge29" class="edge">
<title>Node19&#45;&gt;Node20</title>
<path fill="none" stroke="#191970" d="M356.9257,-690C373.0547,-690 391.3879,-690 408.717,-690"/>
<polygon fill="#191970" stroke="#191970" points="408.7799,-693.5001 418.7798,-690 408.7798,-686.5001 408.7799,-693.5001"/>
</g>
<!-- Node21 -->
<g id="node21" class="node">
<title>Node21</title>
<g id="a_node21"><a xlink:href="../../d4/dcc/rtc_8c.html#a9a867345f9d2703ac913a6b8624f560c" target="_top" xlink:title="Converts a number in BCD to binary.">
<polygon fill="none" stroke="#000000" points="580,-756.5 580,-775.5 657,-775.5 657,-756.5 580,-756.5"/>
<text text-anchor="middle" x="618.5" y="-763.5" font-family="Helvetica" font-size="10.00" fill="#000000">bcd_to_binary</text>
</a>
</g>
</g>
<!-- Node20&#45;&gt;Node21 -->
<g id="edge30" class="edge">
<title>Node20&#45;&gt;Node21</title>
<path fill="none" stroke="#191970" d="M521.066,-699.5082C528.351,-702.0017 535.5874,-705.1179 542,-709 561.9016,-721.0482 559.1407,-733.3779 578,-747 580.2252,-748.6073 582.608,-750.1329 585.0624,-751.5688"/>
<polygon fill="#191970" stroke="#191970" points="583.6356,-754.7737 594.1108,-756.3613 586.912,-748.5878 583.6356,-754.7737"/>
</g>
<!-- Node22 -->
<g id="node22" class="node">
<title>Node22</title>
<g id="a_node22"><a xlink:href="../../d4/dcc/rtc_8c.html#a36f9a08f7379a6156dfbdd5da41a8668" target="_top" xlink:title="Converts a number in binary to BCD.">
<polygon fill="none" stroke="#000000" points="580,-718.5 580,-737.5 657,-737.5 657,-718.5 580,-718.5"/>
<text text-anchor="middle" x="618.5" y="-725.5" font-family="Helvetica" font-size="10.00" fill="#000000">binary_to_bcd</text>
</a>
</g>
</g>
<!-- Node20&#45;&gt;Node22 -->
<g id="edge31" class="edge">
<title>Node20&#45;&gt;Node22</title>
<path fill="none" stroke="#191970" d="M511.2111,-699.589C529.8206,-704.5169 552.6972,-710.5749 572.5389,-715.8291"/>
<polygon fill="#191970" stroke="#191970" points="571.7377,-719.2375 582.3005,-718.4141 573.5296,-712.4708 571.7377,-719.2375"/>
</g>
<!-- Node23 -->
<g id="node23" class="node">
<title>Node23</title>
<g id="a_node23"><a xlink:href="../../d4/dcc/rtc_8c.html#a01efed7ef3d173bcbbeefbde025f38ac" target="_top" xlink:title="Reads the time from the RTC.">
<polygon fill="none" stroke="#000000" points="580,-680.5 580,-699.5 657,-699.5 657,-680.5 580,-680.5"/>
<text text-anchor="middle" x="618.5" y="-687.5" font-family="Helvetica" font-size="10.00" fill="#000000">rtc_read_time</text>
</a>
</g>
</g>
<!-- Node20&#45;&gt;Node23 -->
<g id="edge32" class="edge">
<title>Node20&#45;&gt;Node23</title>
<path fill="none" stroke="#191970" d="M531.3031,-690C543.94,-690 557.2479,-690 569.5565,-690"/>
<polygon fill="#191970" stroke="#191970" points="569.624,-693.5001 579.624,-690 569.6239,-686.5001 569.624,-693.5001"/>
</g>
<!-- Node26 -->
<g id="node26" class="node">
<title>Node26</title>
<g id="a_node26"><a xlink:href="../../d4/dcc/rtc_8c.html#ae91804ce10b51363ab8dcee2bb002c5e" target="_top" xlink:title="Sets an alarm at hours : minutes : seconds.">
<polygon fill="none" stroke="#000000" points="580.5,-642.5 580.5,-661.5 656.5,-661.5 656.5,-642.5 580.5,-642.5"/>
<text text-anchor="middle" x="618.5" y="-649.5" font-family="Helvetica" font-size="10.00" fill="#000000">rtc_set_alarm</text>
</a>
</g>
</g>
<!-- Node20&#45;&gt;Node26 -->
<g id="edge35" class="edge">
<title>Node20&#45;&gt;Node26</title>
<path fill="none" stroke="#191970" d="M511.2111,-680.411C529.8206,-675.4831 552.6972,-669.4251 572.5389,-664.1709"/>
<polygon fill="#191970" stroke="#191970" points="573.5296,-667.5292 582.3005,-661.5859 571.7377,-660.7625 573.5296,-667.5292"/>
</g>
<!-- Node24 -->
<g id="node24" class="node">
<title>Node24</title>
<g id="a_node24"><a xlink:href="../../d4/dcc/rtc_8c.html#abf6f23e3a37b625fce812ca09b3f35df" target="_top" xlink:title="Reads the Register reg of the RTC.">
<polygon fill="none" stroke="#000000" points="696,-680.5 696,-699.5 787,-699.5 787,-680.5 696,-680.5"/>
<text text-anchor="middle" x="741.5" y="-687.5" font-family="Helvetica" font-size="10.00" fill="#000000">rtc_read_register</text>
</a>
</g>
</g>
<!-- Node23&#45;&gt;Node24 -->
<g id="edge33" class="edge">
<title>Node23&#45;&gt;Node24</title>
<path fill="none" stroke="#191970" d="M657.0805,-690C666.083,-690 675.8502,-690 685.4396,-690"/>
<polygon fill="#191970" stroke="#191970" points="685.7308,-693.5001 695.7308,-690 685.7307,-686.5001 685.7308,-693.5001"/>
</g>
<!-- Node25 -->
<g id="node25" class="node">
<title>Node25</title>
<g id="a_node25"><a xlink:href="../../d3/d91/utils_8c.html#a79a031a8611f5b2d6afa4158e92b0fb4" target="_top" xlink:title="Gets from port 8 bit information to value.">
<polygon fill="none" stroke="#000000" points="824,-642.5 824,-661.5 891,-661.5 891,-642.5 824,-642.5"/>
<text text-anchor="middle" x="857.5" y="-649.5" font-family="Helvetica" font-size="10.00" fill="#000000">util_sys_inb</text>
</a>
</g>
</g>
<!-- Node24&#45;&gt;Node25 -->
<g id="edge34" class="edge">
<title>Node24&#45;&gt;Node25</title>
<path fill="none" stroke="#191970" d="M770.7717,-680.411C785.1967,-675.6856 802.7934,-669.9211 818.3573,-664.8226"/>
<polygon fill="#191970" stroke="#191970" points="819.8242,-668.0252 828.2377,-661.5859 817.645,-661.373 819.8242,-668.0252"/>
</g>
<!-- Node27 -->
<g id="node27" class="node">
<title>Node27</title>
<g id="a_node27"><a xlink:href="../../d4/dcc/rtc_8c.html#a9356a574f1893f56d0973dd06db6ed74" target="_top" xlink:title="Writes to the Register reg of the RTC data.">
<polygon fill="none" stroke="#000000" points="695,-642.5 695,-661.5 788,-661.5 788,-642.5 695,-642.5"/>
<text text-anchor="middle" x="741.5" y="-649.5" font-family="Helvetica" font-size="10.00" fill="#000000">rtc_write_register</text>
</a>
</g>
</g>
<!-- Node26&#45;&gt;Node27 -->
<g id="edge36" class="edge">
<title>Node26&#45;&gt;Node27</title>
<path fill="none" stroke="#191970" d="M656.7437,-652C665.5479,-652 675.0977,-652 684.5062,-652"/>
<polygon fill="#191970" stroke="#191970" points="684.618,-655.5001 694.6179,-652 684.6179,-648.5001 684.618,-655.5001"/>
</g>
<!-- Node29 -->
<g id="node29" class="node">
<title>Node29</title>
<g id="a_node29"><a xlink:href="../../d1/d87/uart_8c.html#a1fecae2103dd5c010cb5e507e93d8125" target="_top" xlink:title="Sends a byte to the UART.">
<polygon fill="none" stroke="#000000" points="700,-604.5 700,-623.5 783,-623.5 783,-604.5 700,-604.5"/>
<text text-anchor="middle" x="741.5" y="-611.5" font-family="Helvetica" font-size="10.00" fill="#000000">send_data_uart</text>
</a>
</g>
</g>
<!-- Node28&#45;&gt;Node29 -->
<g id="edge38" class="edge">
<title>Node28&#45;&gt;Node29</title>
<path fill="none" stroke="#191970" d="M659.1157,-614C668.8772,-614 679.4352,-614 689.6311,-614"/>
<polygon fill="#191970" stroke="#191970" points="689.6634,-617.5001 699.6634,-614 689.6633,-610.5001 689.6634,-617.5001"/>
</g>
<!-- Node29&#45;&gt;Node25 -->
<g id="edge39" class="edge">
<title>Node29&#45;&gt;Node25</title>
<path fill="none" stroke="#191970" d="M770.7717,-623.589C785.1967,-628.3144 802.7934,-634.0789 818.3573,-639.1774"/>
<polygon fill="#191970" stroke="#191970" points="817.645,-642.627 828.2377,-642.4141 819.8242,-635.9748 817.645,-642.627"/>
</g>
<!-- Node31 -->
<g id="node31" class="node">
<title>Node31</title>
<g id="a_node31"><a xlink:href="../../db/d6f/enemies_8c.html#a8f86b7712a773166a6ae8c35799e7135" target="_top" xlink:title="Animates the green blobs depending on their current action.">
<polygon fill="none" stroke="#000000" points="257.5,-82.5 257.5,-101.5 361.5,-101.5 361.5,-82.5 257.5,-82.5"/>
<text text-anchor="middle" x="309.5" y="-89.5" font-family="Helvetica" font-size="10.00" fill="#000000">animate_green_blob</text>
</a>
</g>
</g>
<!-- Node30&#45;&gt;Node31 -->
<g id="edge41" class="edge">
<title>Node30&#45;&gt;Node31</title>
<path fill="none" stroke="#191970" d="M195.4531,-270.3915C201.0229,-267.9101 206.4296,-264.8239 211,-261 260.5903,-219.5094 290.9007,-146.255 303.1792,-111.4338"/>
<polygon fill="#191970" stroke="#191970" points="306.6283,-112.1621 306.5337,-101.5677 300.0009,-109.9087 306.6283,-112.1621"/>
</g>
<!-- Node36 -->
<g id="node36" class="node">
<title>Node36</title>
<g id="a_node36"><a xlink:href="../../d1/db8/player_8c.html#a21201934ad44d6ccf7beb9ae2278dda7" target="_top" xlink:title="Animates the spearman according to its action.">
<polygon fill="none" stroke="#000000" points="260,-251.5 260,-270.5 359,-270.5 359,-251.5 260,-251.5"/>
<text text-anchor="middle" x="309.5" y="-258.5" font-family="Helvetica" font-size="10.00" fill="#000000">animate_spearman</text>
</a>
</g>
</g>
<!-- Node30&#45;&gt;Node36 -->
<g id="edge46" class="edge">
<title>Node30&#45;&gt;Node36</title>
<path fill="none" stroke="#191970" d="M208.2793,-273.7787C221.4639,-272.1142 235.8607,-270.2966 249.552,-268.5682"/>
<polygon fill="#191970" stroke="#191970" points="250.3697,-271.9928 259.8525,-267.2678 249.4928,-265.048 250.3697,-271.9928"/>
</g>
<!-- Node32 -->
<g id="node32" class="node">
<title>Node32</title>
<g id="a_node32"><a xlink:href="../../db/d6f/enemies_8c.html#aef73587c39142a13b9548fd05228ef5a" target="_top" xlink:title="Animates the green blobs attacking.">
<polygon fill="none" stroke="#000000" points="423,-126 423,-156 527,-156 527,-126 423,-126"/>
<text text-anchor="start" x="431" y="-144" font-family="Helvetica" font-size="10.00" fill="#000000">animate_green_blob</text>
<text text-anchor="middle" x="475" y="-133" font-family="Helvetica" font-size="10.00" fill="#000000">_attack</text>
</a>
</g>
</g>
<!-- Node31&#45;&gt;Node32 -->
<g id="edge42" class="edge">
<title>Node31&#45;&gt;Node32</title>
<path fill="none" stroke="#191970" d="M341.8029,-101.564C362.4813,-107.6863 389.9559,-115.8208 414.5794,-123.1111"/>
<polygon fill="#191970" stroke="#191970" points="413.6297,-126.4801 424.2119,-125.963 415.617,-119.7681 413.6297,-126.4801"/>
</g>
<!-- Node33 -->
<g id="node33" class="node">
<title>Node33</title>
<g id="a_node33"><a xlink:href="../../db/d6f/enemies_8c.html#ab6b97c3e7de640e218312f9a34ebba3d" target="_top" xlink:title="Animates the green blobs dying.">
<polygon fill="none" stroke="#000000" points="423,-77 423,-107 527,-107 527,-77 423,-77"/>
<text text-anchor="start" x="431" y="-95" font-family="Helvetica" font-size="10.00" fill="#000000">animate_green_blob</text>
<text text-anchor="middle" x="475" y="-84" font-family="Helvetica" font-size="10.00" fill="#000000">_death</text>
</a>
</g>
</g>
<!-- Node31&#45;&gt;Node33 -->
<g id="edge43" class="edge">
<title>Node31&#45;&gt;Node33</title>
<path fill="none" stroke="#191970" d="M361.8652,-92C378.0204,-92 395.9699,-92 412.7245,-92"/>
<polygon fill="#191970" stroke="#191970" points="412.9755,-95.5001 422.9754,-92 412.9754,-88.5001 412.9755,-95.5001"/>
</g>
<!-- Node34 -->
<g id="node34" class="node">
<title>Node34</title>
<g id="a_node34"><a xlink:href="../../db/d6f/enemies_8c.html#a0a455a38e1bfcd3907f5b0ecd3dd5d8b" target="_top" xlink:title="Animates the green blobs idle state.">
<polygon fill="none" stroke="#000000" points="412.5,-38.5 412.5,-57.5 537.5,-57.5 537.5,-38.5 412.5,-38.5"/>
<text text-anchor="middle" x="475" y="-45.5" font-family="Helvetica" font-size="10.00" fill="#000000">animate_green_blob_idle</text>
</a>
</g>
</g>
<!-- Node31&#45;&gt;Node34 -->
<g id="edge44" class="edge">
<title>Node31&#45;&gt;Node34</title>
<path fill="none" stroke="#191970" d="M345.411,-82.4527C370.0263,-75.9084 402.8863,-67.1722 429.3572,-60.1346"/>
<polygon fill="#191970" stroke="#191970" points="430.3941,-63.4806 439.159,-57.5287 428.5955,-56.7156 430.3941,-63.4806"/>
</g>
<!-- Node35 -->
<g id="node35" class="node">
<title>Node35</title>
<g id="a_node35"><a xlink:href="../../db/d6f/enemies_8c.html#aacc94f7f60bb7d9d608e19f4802398de" target="_top" xlink:title="Animates the green blobs moving state.">
<polygon fill="none" stroke="#000000" points="408,-.5 408,-19.5 542,-19.5 542,-.5 408,-.5"/>
<text text-anchor="middle" x="475" y="-7.5" font-family="Helvetica" font-size="10.00" fill="#000000">animate_green_blob_move</text>
</a>
</g>
</g>
<!-- Node31&#45;&gt;Node35 -->
<g id="edge45" class="edge">
<title>Node31&#45;&gt;Node35</title>
<path fill="none" stroke="#191970" d="M321.8791,-82.3753C339.9081,-68.7674 374.862,-43.905 408,-29 413.0998,-26.7062 418.5437,-24.621 424.041,-22.744"/>
<polygon fill="#191970" stroke="#191970" points="425.4671,-25.963 433.9309,-19.5901 423.3402,-19.2939 425.4671,-25.963"/>
</g>
<!-- Node37 -->
<g id="node37" class="node">
<title>Node37</title>
<g id="a_node37"><a xlink:href="../../d1/db8/player_8c.html#a1ef2d92b05b9c22e1811bf09a80f1fc0" target="_top" xlink:title="Animates the spearman&#39;s attack.">
<polygon fill="none" stroke="#000000" points="409.5,-251.5 409.5,-270.5 540.5,-270.5 540.5,-251.5 409.5,-251.5"/>
<text text-anchor="middle" x="475" y="-258.5" font-family="Helvetica" font-size="10.00" fill="#000000">animate_spearman_attack</text>
</a>
</g>
</g>
<!-- Node36&#45;&gt;Node37 -->
<g id="edge47" class="edge">
<title>Node36&#45;&gt;Node37</title>
<path fill="none" stroke="#191970" d="M359.1555,-261C371.7504,-261 385.5699,-261 399.1405,-261"/>
<polygon fill="#191970" stroke="#191970" points="399.4452,-264.5001 409.4452,-261 399.4451,-257.5001 399.4452,-264.5001"/>
</g>
<!-- Node38 -->
<g id="node38" class="node">
<title>Node38</title>
<g id="a_node38"><a xlink:href="../../d1/db8/player_8c.html#aeec69c660cc505f7ca09f29987131823" target="_top" xlink:title="Animates the spearman&#39;s directional move.">
<polygon fill="none" stroke="#000000" points="411,-213.5 411,-232.5 539,-232.5 539,-213.5 411,-213.5"/>
<text text-anchor="middle" x="475" y="-220.5" font-family="Helvetica" font-size="10.00" fill="#000000">animate_spearman_death</text>
</a>
</g>
</g>
<!-- Node36&#45;&gt;Node38 -->
<g id="edge48" class="edge">
<title>Node36&#45;&gt;Node38</title>
<path fill="none" stroke="#191970" d="M351.2626,-251.411C373.2005,-246.3739 400.2803,-240.1562 423.508,-234.8229"/>
<polygon fill="#191970" stroke="#191970" points="424.5746,-238.1692 433.5377,-232.5201 423.008,-231.3467 424.5746,-238.1692"/>
</g>
<!-- Node39 -->
<g id="node39" class="node">
<title>Node39</title>
<g id="a_node39"><a xlink:href="../../d1/db8/player_8c.html#afcbcbbf55587b8fad670ca62becea8d1" target="_top" xlink:title="Animates the spearman&#39;s directional move.">
<polygon fill="none" stroke="#000000" points="411,-175.5 411,-194.5 539,-194.5 539,-175.5 411,-175.5"/>
<text text-anchor="middle" x="475" y="-182.5" font-family="Helvetica" font-size="10.00" fill="#000000">animate_spearman_move</text>
</a>
</g>
</g>
<!-- Node36&#45;&gt;Node39 -->
<g id="edge49" class="edge">
<title>Node36&#45;&gt;Node39</title>
<path fill="none" stroke="#191970" d="M323.5997,-251.3271C342.2144,-238.9183 376.3418,-217.4021 408,-204 413.4922,-201.6749 419.3555,-199.5405 425.2429,-197.6094"/>
<polygon fill="#191970" stroke="#191970" points="426.5948,-200.8549 435.1125,-194.554 424.5247,-194.168 426.5948,-200.8549"/>
</g>
<!-- Node40 -->
<g id="node40" class="node">
<title>Node40</title>
<g id="a_node40"><a xlink:href="../../d1/db8/player_8c.html#a909f31d95b754c4e0200dab6f3246d41" target="_top" xlink:title="Animates the spearman&#39;s special attack.">
<polygon fill="none" stroke="#000000" points="408,-289.5 408,-308.5 542,-308.5 542,-289.5 408,-289.5"/>
<text text-anchor="middle" x="475" y="-296.5" font-family="Helvetica" font-size="10.00" fill="#000000">animate_spearman_special</text>
</a>
</g>
</g>
<!-- Node36&#45;&gt;Node40 -->
<g id="edge50" class="edge">
<title>Node36&#45;&gt;Node40</title>
<path fill="none" stroke="#191970" d="M351.2626,-270.589C373.2005,-275.6261 400.2803,-281.8438 423.508,-287.1771"/>
<polygon fill="#191970" stroke="#191970" points="423.008,-290.6533 433.5377,-289.4799 424.5746,-283.8308 423.008,-290.6533"/>
</g>
<!-- Node40&#45;&gt;Node11 -->
<g id="edge51" class="edge">
<title>Node40&#45;&gt;Node11</title>
<path fill="none" stroke="#191970" d="M514.6868,-308.583C524.244,-312.0952 533.995,-316.7895 542,-323 574.9031,-348.527 598.689,-392.2755 610.3651,-417.1865"/>
<polygon fill="#191970" stroke="#191970" points="607.1833,-418.6448 614.4938,-426.3134 613.5611,-415.7597 607.1833,-418.6448"/>
</g>
</g>
</svg>
        <g id="navigator" transform="translate(0 0)" fill="#404254">
                <rect fill="#f2f5e9" fill-opacity="0.5" stroke="#606060" stroke-width=".5" x="0" y="0" width="60" height="60"/>
                <use id="zoomplus" xlink:href="#zoomPlus" x="17" y="9" onmousedown="handleZoom(evt,'in')"/>
                <use id="zoomminus" xlink:href="#zoomMin" x="42" y="9" onmousedown="handleZoom(evt,'out')"/>
                <use id="reset" xlink:href="#resetDef" x="30" y="36" onmousedown="handleReset()"/>
                <g id="arrowUp" xlink:href="#dirArrow" transform="translate(30 24)" onmousedown="handlePan(0,-1)">
                  <use xlink:href="#rim" fill="#404040">
                        <set attributeName="fill" to="#808080" begin="arrowUp.mouseover" end="arrowUp.mouseout"/>
                  </use>
                  <path fill="none" stroke="white" stroke-width="1.5" d="M0,-3.0v7 M-2.5,-0.5L0,-3.0L2.5,-0.5"/>
                </g>
                <g id="arrowRight" xlink:href="#dirArrow" transform="rotate(90) translate(36 -43)" onmousedown="handlePan(1,0)">
                  <use xlink:href="#rim" fill="#404040">
                        <set attributeName="fill" to="#808080" begin="arrowRight.mouseover" end="arrowRight.mouseout"/>
                  </use>
                  <path fill="none" stroke="white" stroke-width="1.5" d="M0,-3.0v7 M-2.5,-0.5L0,-3.0L2.5,-0.5"/>
                </g>
                <g id="arrowDown" xlink:href="#dirArrow" transform="rotate(180) translate(-30 -48)" onmousedown="handlePan(0,1)">
                  <use xlink:href="#rim" fill="#404040">
                        <set attributeName="fill" to="#808080" begin="arrowDown.mouseover" end="arrowDown.mouseout"/>
                  </use>
                  <path fill="none" stroke="white" stroke-width="1.5" d="M0,-3.0v7 M-2.5,-0.5L0,-3.0L2.5,-0.5"/>
                </g>
                <g id="arrowLeft" xlink:href="#dirArrow" transform="rotate(270) translate(-36 17)" onmousedown="handlePan(-1,0)">
                  <use xlink:href="#rim" fill="#404040">
                        <set attributeName="fill" to="#808080" begin="arrowLeft.mouseover" end="arrowLeft.mouseout"/>
                  </use>
                  <path fill="none" stroke="white" stroke-width="1.5" d="M0,-3.0v7 M-2.5,-0.5L0,-3.0L2.5,-0.5"/>
                </g>
        </g>
        <svg viewBox="0 0 15 15" width="100%" height="30px" preserveAspectRatio="xMaxYMin meet">
         <g id="arrow_out" transform="scale(0.3 0.3)">
          <a xlink:href="game__helper_8c_ac2e814f8670e374692b399122563067d_cgraph_org.svg" target="_base">
           <rect id="button" ry="5" rx="5" y="6" x="6" height="38" width="38"
                fill="#f2f5e9" fill-opacity="0.5" stroke="#606060" stroke-width="1.0"/>
           <path id="arrow"
             d="M 11.500037,31.436501 C 11.940474,20.09759 22.043105,11.32322 32.158766,21.979434 L 37.068811,17.246167 C 37.068811,17.246167 37.088388,32 37.088388,32 L 22.160133,31.978069 C 22.160133,31.978069 26.997745,27.140456 26.997745,27.140456 C 18.528582,18.264221 13.291696,25.230495 11.500037,31.436501 z"
             style="fill:#404040;"/>
          </a>
         </g>
        </svg>
</svg>
