<?xml version="1.0" encoding="UTF-8" standalone="no"?>
<!DOCTYPE svg PUBLIC "-//W3C//DTD SVG 1.1//EN"
 "http://www.w3.org/Graphics/SVG/1.1/DTD/svg11.dtd">
<!-- Generated by graphviz version 2.40.1 (20161225.0304)
 -->
<!-- Title: game_helper.c Pages: 1 -->
<svg width="497pt" height="364pt"
 viewBox="0.00 0.00 496.50 364.00" xmlns="http://www.w3.org/2000/svg" xmlns:xlink="http://www.w3.org/1999/xlink">
<g id="graph0" class="graph" transform="scale(1 1) rotate(0) translate(4 360)">
<title>game_helper.c</title>
<!-- Node1 -->
<g id="node1" class="node">
<title>Node1</title>
<g id="a_node1"><a xlink:title=" ">
<polygon fill="#bfbfbf" stroke="#000000" points="101.5,-336.5 101.5,-355.5 181.5,-355.5 181.5,-336.5 101.5,-336.5"/>
<text text-anchor="middle" x="141.5" y="-343.5" font-family="Helvetica" font-size="10.00" fill="#000000">game_helper.c</text>
</a>
</g>
</g>
<!-- Node2 -->
<g id="node2" class="node">
<title>Node2</title>
<g id="a_node2"><a xlink:title=" ">
<polygon fill="none" stroke="#bfbfbf" points="255,-.5 255,-19.5 314,-19.5 314,-.5 255,-.5"/>
<text text-anchor="middle" x="284.5" y="-7.5" font-family="Helvetica" font-size="10.00" fill="#000000">lcom/lcf.h</text>
</a>
</g>
</g>
<!-- Node1&#45;&gt;Node2 -->
<g id="edge1" class="edge">
<title>Node1&#45;&gt;Node2</title>
<path fill="none" stroke="#191970" d="M181.6443,-341.6458C272.9854,-330.6254 488.5,-297.8572 488.5,-234 488.5,-234 488.5,-234 488.5,-122 488.5,-47.8667 383.7042,-22.4659 324.3336,-14.0239"/>
<polygon fill="#191970" stroke="#191970" points="324.5357,-10.5203 314.1634,-12.6798 323.6186,-17.4599 324.5357,-10.5203"/>
</g>
<!-- Node3 -->
<g id="node3" class="node">
<title>Node3</title>
<g id="a_node3"><a xlink:title=" ">
<polygon fill="none" stroke="#bfbfbf" points="0,-.5 0,-19.5 69,-19.5 69,-.5 0,-.5"/>
<text text-anchor="middle" x="34.5" y="-7.5" font-family="Helvetica" font-size="10.00" fill="#000000">lcom/liblm.h</text>
</a>
</g>
</g>
<!-- Node1&#45;&gt;Node3 -->
<g id="edge2" class="edge">
<title>Node1&#45;&gt;Node3</title>
<path fill="none" stroke="#191970" d="M119.7125,-336.466C86.876,-320.4478 28.5,-284.8238 28.5,-234 28.5,-234 28.5,-234 28.5,-122 28.5,-89.6653 31.0245,-52.1547 32.7984,-29.7876"/>
<polygon fill="#191970" stroke="#191970" points="36.3065,-29.833 33.6403,-19.5791 29.3302,-29.2576 36.3065,-29.833"/>
</g>
<!-- Node4 -->
<g id="node4" class="node">
<title>Node4</title>
<g id="a_node4"><a xlink:title=" ">
<polygon fill="none" stroke="#bfbfbf" points="98.5,-.5 98.5,-19.5 164.5,-19.5 164.5,-.5 98.5,-.5"/>
<text text-anchor="middle" x="131.5" y="-7.5" font-family="Helvetica" font-size="10.00" fill="#000000">lcom/proj.h</text>
</a>
</g>
</g>
<!-- Node1&#45;&gt;Node4 -->
<g id="edge3" class="edge">
<title>Node1&#45;&gt;Node4</title>
<path fill="none" stroke="#191970" d="M129.1153,-336.3714C107.8132,-318.6205 66.5,-278.4628 66.5,-234 66.5,-234 66.5,-234 66.5,-122 66.5,-91.4754 69.9938,-82.2928 85.5,-56 92.0889,-44.8277 102.0236,-34.4219 110.9762,-26.3433"/>
<polygon fill="#191970" stroke="#191970" points="113.4936,-28.7948 118.7977,-19.6232 108.9318,-23.4853 113.4936,-28.7948"/>
</g>
<!-- Node5 -->
<g id="node5" class="node">
<title>Node5</title>
<g id="a_node5"><a xlink:href="../../dd/d65/game__helper_8h.html" target="_top" xlink:title=" ">
<polygon fill="none" stroke="#000000" points="206,-280.5 206,-299.5 287,-299.5 287,-280.5 206,-280.5"/>
<text text-anchor="middle" x="246.5" y="-287.5" font-family="Helvetica" font-size="10.00" fill="#000000">game_helper.h</text>
</a>
</g>
</g>
<!-- Node1&#45;&gt;Node5 -->
<g id="edge4" class="edge">
<title>Node1&#45;&gt;Node5</title>
<path fill="none" stroke="#191970" d="M159.7896,-336.2455C176.2762,-327.4527 200.7352,-314.4079 219.4765,-304.4125"/>
<polygon fill="#191970" stroke="#191970" points="221.2435,-307.4368 228.42,-299.6427 217.9494,-301.2604 221.2435,-307.4368"/>
</g>
<!-- Node6 -->
<g id="node6" class="node">
<title>Node6</title>
<g id="a_node6"><a xlink:href="../../d2/d86/uart_8h.html" target="_top" xlink:title=" ">
<polygon fill="none" stroke="#000000" points="312.5,-112.5 312.5,-131.5 354.5,-131.5 354.5,-112.5 312.5,-112.5"/>
<text text-anchor="middle" x="333.5" y="-119.5" font-family="Helvetica" font-size="10.00" fill="#000000">uart.h</text>
</a>
</g>
</g>
<!-- Node5&#45;&gt;Node6 -->
<g id="edge5" class="edge">
<title>Node5&#45;&gt;Node6</title>
<path fill="none" stroke="#191970" d="M251.9435,-280.1718C257.0618,-270.8868 264.902,-256.5507 271.5,-244 290.6537,-207.5659 312.2787,-164.5698 324.2576,-140.5803"/>
<polygon fill="#191970" stroke="#191970" points="327.4364,-142.0485 328.7655,-131.5373 321.1717,-138.9255 327.4364,-142.0485"/>
</g>
<!-- Node7 -->
<g id="node7" class="node">
<title>Node7</title>
<g id="a_node7"><a xlink:href="../../d3/d62/player_8h.html" target="_top" xlink:title=" ">
<polygon fill="none" stroke="#000000" points="154.5,-168.5 154.5,-187.5 206.5,-187.5 206.5,-168.5 154.5,-168.5"/>
<text text-anchor="middle" x="180.5" y="-175.5" font-family="Helvetica" font-size="10.00" fill="#000000">player.h</text>
</a>
</g>
</g>
<!-- Node5&#45;&gt;Node7 -->
<g id="edge7" class="edge">
<title>Node5&#45;&gt;Node7</title>
<path fill="none" stroke="#191970" d="M220.9738,-280.3698C205.3579,-272.9914 186.6711,-261.1364 177.5,-244 169.8983,-229.796 171.5409,-211.3112 174.5723,-197.5184"/>
<polygon fill="#191970" stroke="#191970" points="178.0132,-198.1939 177.1511,-187.6342 171.2399,-196.4267 178.0132,-198.1939"/>
</g>
<!-- Node10 -->
<g id="node10" class="node">
<title>Node10</title>
<g id="a_node10"><a xlink:href="../../da/d15/grid_8h.html" target="_top" xlink:title=" ">
<polygon fill="none" stroke="#000000" points="95,-168.5 95,-187.5 136,-187.5 136,-168.5 95,-168.5"/>
<text text-anchor="middle" x="115.5" y="-175.5" font-family="Helvetica" font-size="10.00" fill="#000000">grid.h</text>
</a>
</g>
</g>
<!-- Node5&#45;&gt;Node10 -->
<g id="edge15" class="edge">
<title>Node5&#45;&gt;Node10</title>
<path fill="none" stroke="#191970" d="M225.9589,-280.4778C209.4126,-272.2236 186.0914,-259.2286 168.5,-244 152.2767,-229.9558 137.3178,-210.4609 127.4588,-196.3022"/>
<polygon fill="#191970" stroke="#191970" points="130.26,-194.1966 121.7545,-187.8794 124.4641,-198.1219 130.26,-194.1966"/>
</g>
<!-- Node11 -->
<g id="node11" class="node">
<title>Node11</title>
<g id="a_node11"><a xlink:href="../../da/d6a/i8042_8h.html" target="_top" xlink:title=" ">
<polygon fill="none" stroke="#000000" points="396.5,-224.5 396.5,-243.5 444.5,-243.5 444.5,-224.5 396.5,-224.5"/>
<text text-anchor="middle" x="420.5" y="-231.5" font-family="Helvetica" font-size="10.00" fill="#000000">i8042.h</text>
</a>
</g>
</g>
<!-- Node5&#45;&gt;Node11 -->
<g id="edge17" class="edge">
<title>Node5&#45;&gt;Node11</title>
<path fill="none" stroke="#191970" d="M276.4117,-280.3733C307.0111,-270.5252 354.4796,-255.2479 386.4895,-244.9459"/>
<polygon fill="#191970" stroke="#191970" points="387.8513,-248.1845 396.2982,-241.7891 385.7067,-241.5211 387.8513,-248.1845"/>
</g>
<!-- Node13 -->
<g id="node13" class="node">
<title>Node13</title>
<g id="a_node13"><a xlink:href="../../dc/d1b/rtc_8h.html" target="_top" xlink:title=" ">
<polygon fill="none" stroke="#000000" points="342.5,-224.5 342.5,-243.5 378.5,-243.5 378.5,-224.5 342.5,-224.5"/>
<text text-anchor="middle" x="360.5" y="-231.5" font-family="Helvetica" font-size="10.00" fill="#000000">rtc.h</text>
</a>
</g>
</g>
<!-- Node5&#45;&gt;Node13 -->
<g id="edge20" class="edge">
<title>Node5&#45;&gt;Node13</title>
<path fill="none" stroke="#191970" d="M266.0973,-280.3733C284.5629,-271.3024 312.4049,-257.6257 333.0727,-247.4731"/>
<polygon fill="#191970" stroke="#191970" points="334.8543,-250.4975 342.2866,-242.9469 331.7679,-244.2146 334.8543,-250.4975"/>
</g>
<!-- Node14 -->
<g id="node14" class="node">
<title>Node14</title>
<g id="a_node14"><a xlink:href="../../d6/d4f/enemies_8h.html" target="_top" xlink:title=" ">
<polygon fill="none" stroke="#000000" points="225,-168.5 225,-187.5 286,-187.5 286,-168.5 225,-168.5"/>
<text text-anchor="middle" x="255.5" y="-175.5" font-family="Helvetica" font-size="10.00" fill="#000000">enemies.h</text>
</a>
</g>
</g>
<!-- Node5&#45;&gt;Node14 -->
<g id="edge22" class="edge">
<title>Node5&#45;&gt;Node14</title>
<path fill="none" stroke="#191970" d="M249.5375,-280.2499C252.2435,-271.0202 256.0001,-256.7215 257.5,-244 259.3064,-228.6786 258.6609,-211.2265 257.6421,-198.1181"/>
<polygon fill="#191970" stroke="#191970" points="261.1019,-197.5179 256.703,-187.8794 254.1311,-198.1573 261.1019,-197.5179"/>
</g>
<!-- Node15 -->
<g id="node15" class="node">
<title>Node15</title>
<g id="a_node15"><a xlink:href="../../d7/d04/graphics_8h.html" target="_top" xlink:title=" ">
<polygon fill="none" stroke="#000000" points="187,-224.5 187,-243.5 248,-243.5 248,-224.5 187,-224.5"/>
<text text-anchor="middle" x="217.5" y="-231.5" font-family="Helvetica" font-size="10.00" fill="#000000">graphics.h</text>
</a>
</g>
</g>
<!-- Node5&#45;&gt;Node15 -->
<g id="edge25" class="edge">
<title>Node5&#45;&gt;Node15</title>
<path fill="none" stroke="#191970" d="M241.4486,-280.2455C237.4981,-272.617 231.8903,-261.7881 227.0942,-252.5267"/>
<polygon fill="#191970" stroke="#191970" points="230.2001,-250.9131 222.4935,-243.6427 223.9841,-254.1321 230.2001,-250.9131"/>
</g>
<!-- Node6&#45;&gt;Node2 -->
<g id="edge6" class="edge">
<title>Node6&#45;&gt;Node2</title>
<path fill="none" stroke="#191970" d="M329.3223,-112.4509C321.222,-93.936 303.2508,-52.8591 292.6894,-28.7187"/>
<polygon fill="#191970" stroke="#191970" points="295.8819,-27.2836 288.6671,-19.5249 289.4688,-30.0894 295.8819,-27.2836"/>
</g>
<!-- Node7&#45;&gt;Node2 -->
<g id="edge8" class="edge">
<title>Node7&#45;&gt;Node2</title>
<path fill="none" stroke="#191970" d="M189.2599,-168.1584C197.1151,-159.0988 208.7214,-145.1168 217.5,-132 240.9026,-97.0324 263.4663,-53.1911 275.5053,-28.7248"/>
<polygon fill="#191970" stroke="#191970" points="278.7621,-30.031 279.9922,-19.5078 272.4682,-26.967 278.7621,-30.031"/>
</g>
<!-- Node8 -->
<g id="node8" class="node">
<title>Node8</title>
<g id="a_node8"><a xlink:href="../../dd/d5a/entities_8h.html" target="_top" xlink:title=" ">
<polygon fill="none" stroke="#000000" points="152.5,-112.5 152.5,-131.5 208.5,-131.5 208.5,-112.5 152.5,-112.5"/>
<text text-anchor="middle" x="180.5" y="-119.5" font-family="Helvetica" font-size="10.00" fill="#000000">entities.h</text>
</a>
</g>
</g>
<!-- Node7&#45;&gt;Node8 -->
<g id="edge9" class="edge">
<title>Node7&#45;&gt;Node8</title>
<path fill="none" stroke="#191970" d="M180.5,-168.2455C180.5,-160.9382 180.5,-150.6944 180.5,-141.7046"/>
<polygon fill="#191970" stroke="#191970" points="184.0001,-141.6426 180.5,-131.6427 177.0001,-141.6427 184.0001,-141.6426"/>
</g>
<!-- Node8&#45;&gt;Node2 -->
<g id="edge10" class="edge">
<title>Node8&#45;&gt;Node2</title>
<path fill="none" stroke="#191970" d="M187.3955,-112.1603C196.9031,-98.8601 214.87,-74.6637 232.5,-56 242.458,-45.4582 254.5414,-34.6649 264.5531,-26.1849"/>
<polygon fill="#191970" stroke="#191970" points="266.9401,-28.7518 272.3834,-19.6622 262.4598,-23.3734 266.9401,-28.7518"/>
</g>
<!-- Node9 -->
<g id="node9" class="node">
<title>Node9</title>
<g id="a_node9"><a xlink:href="../../d3/def/sprites_8h.html" target="_top" xlink:title=" ">
<polygon fill="none" stroke="#000000" points="94.5,-56.5 94.5,-75.5 180.5,-75.5 180.5,-56.5 94.5,-56.5"/>
<text text-anchor="middle" x="137.5" y="-63.5" font-family="Helvetica" font-size="10.00" fill="#000000">sprites/sprites.h</text>
</a>
</g>
</g>
<!-- Node8&#45;&gt;Node9 -->
<g id="edge11" class="edge">
<title>Node8&#45;&gt;Node9</title>
<path fill="none" stroke="#191970" d="M173.01,-112.2455C166.9674,-104.3761 158.3097,-93.101 151.0559,-83.6542"/>
<polygon fill="#191970" stroke="#191970" points="153.7705,-81.4426 144.9042,-75.6427 148.2185,-85.7058 153.7705,-81.4426"/>
</g>
<!-- Node9&#45;&gt;Node2 -->
<g id="edge12" class="edge">
<title>Node9&#45;&gt;Node2</title>
<path fill="none" stroke="#191970" d="M162.7702,-56.3733C186.8966,-47.1822 223.4362,-33.2624 250.1877,-23.0713"/>
<polygon fill="#191970" stroke="#191970" points="251.4607,-26.3318 259.5596,-19.5011 248.9687,-19.7904 251.4607,-26.3318"/>
</g>
<!-- Node9&#45;&gt;Node3 -->
<g id="edge13" class="edge">
<title>Node9&#45;&gt;Node3</title>
<path fill="none" stroke="#191970" d="M119.5588,-56.2455C103.46,-47.4928 79.6121,-34.527 61.2609,-24.5496"/>
<polygon fill="#191970" stroke="#191970" points="62.6929,-21.3444 52.2356,-19.6427 59.3493,-27.4942 62.6929,-21.3444"/>
</g>
<!-- Node9&#45;&gt;Node4 -->
<g id="edge14" class="edge">
<title>Node9&#45;&gt;Node4</title>
<path fill="none" stroke="#191970" d="M136.4549,-56.2455C135.672,-48.9382 134.5744,-38.6944 133.6112,-29.7046"/>
<polygon fill="#191970" stroke="#191970" points="137.0786,-29.2129 132.5331,-19.6427 130.1185,-29.9587 137.0786,-29.2129"/>
</g>
<!-- Node10&#45;&gt;Node8 -->
<g id="edge16" class="edge">
<title>Node10&#45;&gt;Node8</title>
<path fill="none" stroke="#191970" d="M126.8221,-168.2455C136.4223,-159.9746 150.3892,-147.9416 161.6695,-138.2232"/>
<polygon fill="#191970" stroke="#191970" points="164.016,-140.8214 169.3076,-131.6427 159.447,-135.5182 164.016,-140.8214"/>
</g>
<!-- Node11&#45;&gt;Node2 -->
<g id="edge18" class="edge">
<title>Node11&#45;&gt;Node2</title>
<path fill="none" stroke="#191970" d="M425.2433,-224.2666C430.9771,-211.0869 438.9822,-187.0265 431.5,-168 406.4522,-104.3056 342.3002,-51.0605 307.6059,-25.7847"/>
<polygon fill="#191970" stroke="#191970" points="309.2337,-22.6468 299.0595,-19.6912 305.1699,-28.3464 309.2337,-22.6468"/>
</g>
<!-- Node12 -->
<g id="node12" class="node">
<title>Node12</title>
<g id="a_node12"><a xlink:title=" ">
<polygon fill="none" stroke="#bfbfbf" points="343,-168.5 343,-187.5 422,-187.5 422,-168.5 343,-168.5"/>
<text text-anchor="middle" x="382.5" y="-175.5" font-family="Helvetica" font-size="10.00" fill="#000000">minix/sysutil.h</text>
</a>
</g>
</g>
<!-- Node11&#45;&gt;Node12 -->
<g id="edge19" class="edge">
<title>Node11&#45;&gt;Node12</title>
<path fill="none" stroke="#191970" d="M413.8809,-224.2455C408.5954,-216.4564 401.0459,-205.3308 394.6762,-195.9439"/>
<polygon fill="#191970" stroke="#191970" points="397.5545,-193.9522 389.0432,-187.6427 391.7621,-197.8827 397.5545,-193.9522"/>
</g>
<!-- Node13&#45;&gt;Node12 -->
<g id="edge21" class="edge">
<title>Node13&#45;&gt;Node12</title>
<path fill="none" stroke="#191970" d="M364.3321,-224.2455C367.2659,-216.7776 371.4047,-206.2427 374.991,-197.1137"/>
<polygon fill="#191970" stroke="#191970" points="378.3129,-198.23 378.7118,-187.6427 371.7976,-195.6704 378.3129,-198.23"/>
</g>
<!-- Node14&#45;&gt;Node2 -->
<g id="edge23" class="edge">
<title>Node14&#45;&gt;Node2</title>
<path fill="none" stroke="#191970" d="M257.1423,-168.4862C261.7463,-141.8144 274.8486,-65.9117 281.1003,-29.695"/>
<polygon fill="#191970" stroke="#191970" points="284.5514,-30.2775 282.8035,-19.8279 277.6534,-29.0868 284.5514,-30.2775"/>
</g>
<!-- Node14&#45;&gt;Node8 -->
<g id="edge24" class="edge">
<title>Node14&#45;&gt;Node8</title>
<path fill="none" stroke="#191970" d="M242.436,-168.2455C231.1438,-159.814 214.6155,-147.4729 201.4729,-137.6598"/>
<polygon fill="#191970" stroke="#191970" points="203.5211,-134.8211 193.4143,-131.6427 199.3331,-140.4301 203.5211,-134.8211"/>
</g>
<!-- Node15&#45;&gt;Node7 -->
<g id="edge26" class="edge">
<title>Node15&#45;&gt;Node7</title>
<path fill="none" stroke="#191970" d="M211.0551,-224.2455C205.9618,-216.5367 198.7092,-205.5598 192.548,-196.2348"/>
<polygon fill="#191970" stroke="#191970" points="195.3038,-194.0566 186.8711,-187.6427 189.4635,-197.9155 195.3038,-194.0566"/>
</g>
<!-- Node15&#45;&gt;Node14 -->
<g id="edge27" class="edge">
<title>Node15&#45;&gt;Node14</title>
<path fill="none" stroke="#191970" d="M224.1191,-224.2455C229.4046,-216.4564 236.9541,-205.3308 243.3238,-195.9439"/>
<polygon fill="#191970" stroke="#191970" points="246.2379,-197.8827 248.9568,-187.6427 240.4455,-193.9522 246.2379,-197.8827"/>
</g>
</g>
</svg>
