<?xml version="1.0" encoding="UTF-8" standalone="no"?>
<!DOCTYPE svg PUBLIC "-//W3C//DTD SVG 1.1//EN"
 "http://www.w3.org/Graphics/SVG/1.1/DTD/svg11.dtd">
<!-- Generated by graphviz version 2.40.1 (20161225.0304)
 -->
<!-- Title: uart.h Pages: 1 -->
<svg width="201pt" height="140pt"
 viewBox="0.00 0.00 200.50 140.00" xmlns="http://www.w3.org/2000/svg" xmlns:xlink="http://www.w3.org/1999/xlink">
<g id="graph0" class="graph" transform="scale(1 1) rotate(0) translate(4 136)">
<title>uart.h</title>
<!-- Node1 -->
<g id="node1" class="node">
<title>Node1</title>
<g id="a_node1"><a xlink:title=" ">
<polygon fill="#bfbfbf" stroke="#000000" points="102,-112.5 102,-131.5 144,-131.5 144,-112.5 102,-112.5"/>
<text text-anchor="middle" x="123" y="-119.5" font-family="Helvetica" font-size="10.00" fill="#000000">uart.h</text>
</a>
</g>
</g>
<!-- Node2 -->
<g id="node2" class="node">
<title>Node2</title>
<g id="a_node2"><a xlink:href="../../dd/d65/game__helper_8h.html" target="_top" xlink:title=" ">
<polygon fill="none" stroke="#000000" points="13.5,-56.5 13.5,-75.5 94.5,-75.5 94.5,-56.5 13.5,-56.5"/>
<text text-anchor="middle" x="54" y="-63.5" font-family="Helvetica" font-size="10.00" fill="#000000">game_helper.h</text>
</a>
</g>
</g>
<!-- Node1&#45;&gt;Node2 -->
<g id="edge1" class="edge">
<title>Node1&#45;&gt;Node2</title>
<path fill="none" stroke="#191970" d="M103.197,-105.928C91.1364,-96.1397 76.1286,-83.9595 65.8812,-75.6427"/>
<polygon fill="#191970" stroke="#191970" points="101.0109,-108.6614 110.9811,-112.2455 105.4221,-103.2262 101.0109,-108.6614"/>
</g>
<!-- Node4 -->
<g id="node4" class="node">
<title>Node4</title>
<g id="a_node4"><a xlink:href="../../df/def/_l_c_o_m_8c.html" target="_top" xlink:title=" ">
<polygon fill="none" stroke="#000000" points="98,-.5 98,-19.5 148,-19.5 148,-.5 98,-.5"/>
<text text-anchor="middle" x="123" y="-7.5" font-family="Helvetica" font-size="10.00" fill="#000000">LCOM.c</text>
</a>
</g>
</g>
<!-- Node1&#45;&gt;Node4 -->
<g id="edge4" class="edge">
<title>Node1&#45;&gt;Node4</title>
<path fill="none" stroke="#191970" d="M123,-102.2702C123,-77.9985 123,-37.7725 123,-19.5249"/>
<polygon fill="#191970" stroke="#191970" points="119.5001,-102.4509 123,-112.4509 126.5001,-102.451 119.5001,-102.4509"/>
</g>
<!-- Node5 -->
<g id="node5" class="node">
<title>Node5</title>
<g id="a_node5"><a xlink:href="../../d1/d87/uart_8c.html" target="_top" xlink:title=" ">
<polygon fill="none" stroke="#000000" points="151.5,-56.5 151.5,-75.5 192.5,-75.5 192.5,-56.5 151.5,-56.5"/>
<text text-anchor="middle" x="172" y="-63.5" font-family="Helvetica" font-size="10.00" fill="#000000">uart.c</text>
</a>
</g>
</g>
<!-- Node1&#45;&gt;Node5 -->
<g id="edge5" class="edge">
<title>Node1&#45;&gt;Node5</title>
<path fill="none" stroke="#191970" d="M138.3122,-104.5004C146.6447,-94.9775 156.6353,-83.5596 163.5627,-75.6427"/>
<polygon fill="#191970" stroke="#191970" points="135.4862,-102.415 131.5351,-112.2455 140.7543,-107.0245 135.4862,-102.415"/>
</g>
<!-- Node3 -->
<g id="node3" class="node">
<title>Node3</title>
<g id="a_node3"><a xlink:href="../../d2/dba/game__helper_8c.html" target="_top" xlink:title=" ">
<polygon fill="none" stroke="#000000" points="0,-.5 0,-19.5 80,-19.5 80,-.5 0,-.5"/>
<text text-anchor="middle" x="40" y="-7.5" font-family="Helvetica" font-size="10.00" fill="#000000">game_helper.c</text>
</a>
</g>
</g>
<!-- Node2&#45;&gt;Node3 -->
<g id="edge2" class="edge">
<title>Node2&#45;&gt;Node3</title>
<path fill="none" stroke="#191970" d="M49.1135,-46.4538C46.8451,-37.3803 44.25,-26.9998 42.4107,-19.6427"/>
<polygon fill="#191970" stroke="#191970" points="45.7405,-47.393 51.5614,-56.2455 52.5315,-45.6952 45.7405,-47.393"/>
</g>
<!-- Node2&#45;&gt;Node4 -->
<g id="edge3" class="edge">
<title>Node2&#45;&gt;Node4</title>
<path fill="none" stroke="#191970" d="M73.803,-49.928C85.8636,-40.1397 100.8714,-27.9595 111.1188,-19.6427"/>
<polygon fill="#191970" stroke="#191970" points="71.5779,-47.2262 66.0189,-56.2455 75.9891,-52.6614 71.5779,-47.2262"/>
</g>
</g>
</svg>
