<?xml version="1.0" encoding="UTF-8" standalone="no"?>
<!DOCTYPE svg PUBLIC "-//W3C//DTD SVG 1.1//EN"
 "http://www.w3.org/Graphics/SVG/1.1/DTD/svg11.dtd">
<!-- Generated by graphviz version 2.40.1 (20161225.0304)
 -->
<!-- Title: sync_first_step Pages: 1 -->
<svg width="459pt" height="66pt"
 viewBox="0.00 0.00 459.00 66.00" xmlns="http://www.w3.org/2000/svg" xmlns:xlink="http://www.w3.org/1999/xlink">
<g id="graph0" class="graph" transform="scale(1 1) rotate(0) translate(4 62)">
<title>sync_first_step</title>
<!-- Node1 -->
<g id="node1" class="node">
<title>Node1</title>
<g id="a_node1"><a xlink:title="First step of syncing the players in COOP mode.">
<polygon fill="#bfbfbf" stroke="#000000" points="370,-19.5 370,-38.5 451,-38.5 451,-19.5 370,-19.5"/>
<text text-anchor="middle" x="410.5" y="-26.5" font-family="Helvetica" font-size="10.00" fill="#000000">sync_first_step</text>
</a>
</g>
</g>
<!-- Node2 -->
<g id="node2" class="node">
<title>Node2</title>
<g id="a_node2"><a xlink:href="../../dd/d65/game__helper_8h.html#ac2e814f8670e374692b399122563067d" target="_top" xlink:title="Performs all game logic and displaying that occurs every frame depending on the game state.">
<polygon fill="none" stroke="#000000" points="136.5,-38.5 136.5,-57.5 207.5,-57.5 207.5,-38.5 136.5,-38.5"/>
<text text-anchor="middle" x="172" y="-45.5" font-family="Helvetica" font-size="10.00" fill="#000000">on_timer_int</text>
</a>
</g>
</g>
<!-- Node1&#45;&gt;Node2 -->
<g id="edge1" class="edge">
<title>Node1&#45;&gt;Node2</title>
<path fill="none" stroke="#191970" d="M359.7558,-33.0425C313.9842,-36.6889 247.8364,-41.9585 207.5021,-45.1717"/>
<polygon fill="#191970" stroke="#191970" points="360.0809,-36.5278 369.7714,-32.2446 359.525,-29.5499 360.0809,-36.5278"/>
</g>
<!-- Node4 -->
<g id="node4" class="node">
<title>Node4</title>
<g id="a_node4"><a xlink:href="../../d2/d86/uart_8h.html#af9200beb59291796d837e367401299b4" target="_top" xlink:title=" ">
<polygon fill="none" stroke="#000000" points="261,-.5 261,-19.5 334,-19.5 334,-.5 261,-.5"/>
<text text-anchor="middle" x="297.5" y="-7.5" font-family="Helvetica" font-size="10.00" fill="#000000">sync_players</text>
</a>
</g>
</g>
<!-- Node1&#45;&gt;Node4 -->
<g id="edge3" class="edge">
<title>Node1&#45;&gt;Node4</title>
<path fill="none" stroke="#191970" d="M359.7098,-20.4601C351.084,-19.0097 342.279,-17.5292 334.1098,-16.1556"/>
<polygon fill="#191970" stroke="#191970" points="359.2625,-23.9339 369.7044,-22.1406 360.4232,-17.0308 359.2625,-23.9339"/>
</g>
<!-- Node3 -->
<g id="node3" class="node">
<title>Node3</title>
<g id="a_node3"><a xlink:href="../../df/def/_l_c_o_m_8c.html#a2a16f651eccbd248e1ad3b3b924b143b" target="_top" xlink:title=" ">
<polygon fill="none" stroke="#000000" points="0,-19.5 0,-38.5 83,-38.5 83,-19.5 0,-19.5"/>
<text text-anchor="middle" x="41.5" y="-26.5" font-family="Helvetica" font-size="10.00" fill="#000000">proj_main_loop</text>
</a>
</g>
</g>
<!-- Node2&#45;&gt;Node3 -->
<g id="edge2" class="edge">
<title>Node2&#45;&gt;Node3</title>
<path fill="none" stroke="#191970" d="M126.3787,-41.3578C112.3143,-39.3101 96.9082,-37.0671 83.1274,-35.0607"/>
<polygon fill="#191970" stroke="#191970" points="125.9403,-44.8308 136.3403,-42.8082 126.9489,-37.9038 125.9403,-44.8308"/>
</g>
<!-- Node5 -->
<g id="node5" class="node">
<title>Node5</title>
<g id="a_node5"><a xlink:href="../../dd/d65/game__helper_8h.html#a03d9f7e90ecc6a670f43c0510bf272c0" target="_top" xlink:title="Processes the incoming packet from the UART (COM1) and executes the associated logic.">
<polygon fill="none" stroke="#000000" points="119,-.5 119,-19.5 225,-19.5 225,-.5 119,-.5"/>
<text text-anchor="middle" x="172" y="-7.5" font-family="Helvetica" font-size="10.00" fill="#000000">process_uart_packet</text>
</a>
</g>
</g>
<!-- Node4&#45;&gt;Node5 -->
<g id="edge4" class="edge">
<title>Node4&#45;&gt;Node5</title>
<path fill="none" stroke="#191970" d="M250.6336,-10C242.3536,-10 233.6788,-10 225.2389,-10"/>
<polygon fill="#191970" stroke="#191970" points="250.8629,-13.5001 260.8628,-10 250.8628,-6.5001 250.8629,-13.5001"/>
</g>
<!-- Node5&#45;&gt;Node3 -->
<g id="edge5" class="edge">
<title>Node5&#45;&gt;Node3</title>
<path fill="none" stroke="#191970" d="M108.8226,-19.1982C100.1704,-20.4579 91.4696,-21.7247 83.3295,-22.9099"/>
<polygon fill="#191970" stroke="#191970" points="109.5293,-22.6323 118.9207,-17.728 108.5207,-15.7054 109.5293,-22.6323"/>
</g>
</g>
</svg>
