<?xml version="1.0" encoding="UTF-8" standalone="no"?>
<!DOCTYPE svg PUBLIC "-//W3C//DTD SVG 1.1//EN"
 "http://www.w3.org/Graphics/SVG/1.1/DTD/svg11.dtd">
<!-- Generated by graphviz version 2.40.1 (20161225.0304)
 -->
<!-- Title: sync_second_step Pages: 1 -->
<svg width="473pt" height="28pt"
 viewBox="0.00 0.00 473.00 28.00" xmlns="http://www.w3.org/2000/svg" xmlns:xlink="http://www.w3.org/1999/xlink">
<g id="graph0" class="graph" transform="scale(1 1) rotate(0) translate(4 24)">
<title>sync_second_step</title>
<!-- Node1 -->
<g id="node1" class="node">
<title>Node1</title>
<g id="a_node1"><a xlink:title="Second step of syncing the player in COOP mode.">
<polygon fill="#bfbfbf" stroke="#000000" points="370,-.5 370,-19.5 465,-19.5 465,-.5 370,-.5"/>
<text text-anchor="middle" x="417.5" y="-7.5" font-family="Helvetica" font-size="10.00" fill="#000000">sync_second_step</text>
</a>
</g>
</g>
<!-- Node2 -->
<g id="node2" class="node">
<title>Node2</title>
<g id="a_node2"><a xlink:href="../../d2/d86/uart_8h.html#af9200beb59291796d837e367401299b4" target="_top" xlink:title=" ">
<polygon fill="none" stroke="#000000" points="261,-.5 261,-19.5 334,-19.5 334,-.5 261,-.5"/>
<text text-anchor="middle" x="297.5" y="-7.5" font-family="Helvetica" font-size="10.00" fill="#000000">sync_players</text>
</a>
</g>
</g>
<!-- Node1&#45;&gt;Node2 -->
<g id="edge1" class="edge">
<title>Node1&#45;&gt;Node2</title>
<path fill="none" stroke="#191970" d="M359.5763,-10C350.8683,-10 342.1018,-10 334.0118,-10"/>
<polygon fill="#191970" stroke="#191970" points="359.7281,-13.5001 369.728,-10 359.728,-6.5001 359.7281,-13.5001"/>
</g>
<!-- Node3 -->
<g id="node3" class="node">
<title>Node3</title>
<g id="a_node3"><a xlink:href="../../dd/d65/game__helper_8h.html#a03d9f7e90ecc6a670f43c0510bf272c0" target="_top" xlink:title="Processes the incoming packet from the UART (COM1) and executes the associated logic.">
<polygon fill="none" stroke="#000000" points="119,-.5 119,-19.5 225,-19.5 225,-.5 119,-.5"/>
<text text-anchor="middle" x="172" y="-7.5" font-family="Helvetica" font-size="10.00" fill="#000000">process_uart_packet</text>
</a>
</g>
</g>
<!-- Node2&#45;&gt;Node3 -->
<g id="edge2" class="edge">
<title>Node2&#45;&gt;Node3</title>
<path fill="none" stroke="#191970" d="M250.6336,-10C242.3536,-10 233.6788,-10 225.2389,-10"/>
<polygon fill="#191970" stroke="#191970" points="250.8629,-13.5001 260.8628,-10 250.8628,-6.5001 250.8629,-13.5001"/>
</g>
<!-- Node4 -->
<g id="node4" class="node">
<title>Node4</title>
<g id="a_node4"><a xlink:href="../../df/def/_l_c_o_m_8c.html#a2a16f651eccbd248e1ad3b3b924b143b" target="_top" xlink:title=" ">
<polygon fill="none" stroke="#000000" points="0,-.5 0,-19.5 83,-19.5 83,-.5 0,-.5"/>
<text text-anchor="middle" x="41.5" y="-7.5" font-family="Helvetica" font-size="10.00" fill="#000000">proj_main_loop</text>
</a>
</g>
</g>
<!-- Node3&#45;&gt;Node4 -->
<g id="edge3" class="edge">
<title>Node3&#45;&gt;Node4</title>
<path fill="none" stroke="#191970" d="M108.8226,-10C100.1704,-10 91.4696,-10 83.3295,-10"/>
<polygon fill="#191970" stroke="#191970" points="108.9207,-13.5001 118.9207,-10 108.9206,-6.5001 108.9207,-13.5001"/>
</g>
</g>
</svg>
