<?xml version="1.0" encoding="UTF-8" standalone="no"?>
<!DOCTYPE svg PUBLIC "-//W3C//DTD SVG 1.1//EN"
 "http://www.w3.org/Graphics/SVG/1.1/DTD/svg11.dtd">
<!-- Generated by graphviz version 2.40.1 (20161225.0304)
 -->
<!-- Title: send_data_uart Pages: 1 -->
<svg width="629pt" height="142pt"
 viewBox="0.00 0.00 629.00 142.00" xmlns="http://www.w3.org/2000/svg" xmlns:xlink="http://www.w3.org/1999/xlink">
<g id="graph0" class="graph" transform="scale(1 1) rotate(0) translate(4 138)">
<title>send_data_uart</title>
<!-- Node1 -->
<g id="node1" class="node">
<title>Node1</title>
<g id="a_node1"><a xlink:title="Sends a byte to the UART.">
<polygon fill="#bfbfbf" stroke="#000000" points="538,-57.5 538,-76.5 621,-76.5 621,-57.5 538,-57.5"/>
<text text-anchor="middle" x="579.5" y="-64.5" font-family="Helvetica" font-size="10.00" fill="#000000">send_data_uart</text>
</a>
</g>
</g>
<!-- Node2 -->
<g id="node2" class="node">
<title>Node2</title>
<g id="a_node2"><a xlink:href="../../dd/d65/game__helper_8h.html#a7562d024344a09070adef285be55ef46" target="_top" xlink:title="Processes the input that comes from the keyboard and executes the associated logic.">
<polygon fill="none" stroke="#000000" points="123.5,-114.5 123.5,-133.5 220.5,-133.5 220.5,-114.5 123.5,-114.5"/>
<text text-anchor="middle" x="172" y="-121.5" font-family="Helvetica" font-size="10.00" fill="#000000">process_kbd_input</text>
</a>
</g>
</g>
<!-- Node1&#45;&gt;Node2 -->
<g id="edge1" class="edge">
<title>Node1&#45;&gt;Node2</title>
<path fill="none" stroke="#191970" d="M540.1268,-79.4534C527.9952,-82.9443 514.532,-86.4718 502,-89 403.1683,-108.938 285.2489,-117.9725 220.5224,-121.6936"/>
<polygon fill="#191970" stroke="#191970" points="541.3546,-82.7403 549.9546,-76.5524 539.3728,-76.0267 541.3546,-82.7403"/>
</g>
<!-- Node4 -->
<g id="node4" class="node">
<title>Node4</title>
<g id="a_node4"><a xlink:href="../../dd/d65/game__helper_8h.html#a72c30bee155342f972c892a5a8d4a175" target="_top" xlink:title="Processes the input that comes from the mouse and executes the associated logic.">
<polygon fill="none" stroke="#000000" points="261,-76.5 261,-95.5 371,-95.5 371,-76.5 261,-76.5"/>
<text text-anchor="middle" x="316" y="-83.5" font-family="Helvetica" font-size="10.00" fill="#000000">process_mouse_input</text>
</a>
</g>
</g>
<!-- Node1&#45;&gt;Node4 -->
<g id="edge3" class="edge">
<title>Node1&#45;&gt;Node4</title>
<path fill="none" stroke="#191970" d="M527.5931,-70.7428C482.4995,-73.9943 417.3714,-78.6905 371.306,-82.0121"/>
<polygon fill="#191970" stroke="#191970" points="528.0253,-74.2208 537.7476,-70.0106 527.5218,-67.239 528.0253,-74.2208"/>
</g>
<!-- Node5 -->
<g id="node5" class="node">
<title>Node5</title>
<g id="a_node5"><a xlink:href="../../d2/d86/uart_8h.html#ad98091201e75ffc65de031e31b3e4032" target="_top" xlink:title="First step of syncing the players in COOP mode.">
<polygon fill="none" stroke="#000000" points="414,-38.5 414,-57.5 495,-57.5 495,-38.5 414,-38.5"/>
<text text-anchor="middle" x="454.5" y="-45.5" font-family="Helvetica" font-size="10.00" fill="#000000">sync_first_step</text>
</a>
</g>
</g>
<!-- Node1&#45;&gt;Node5 -->
<g id="edge5" class="edge">
<title>Node1&#45;&gt;Node5</title>
<path fill="none" stroke="#191970" d="M527.9775,-59.1686C517.0118,-57.5018 505.5807,-55.7643 495.092,-54.17"/>
<polygon fill="#191970" stroke="#191970" points="527.4644,-62.6307 537.8768,-60.6733 528.5164,-55.7102 527.4644,-62.6307"/>
</g>
<!-- Node9 -->
<g id="node9" class="node">
<title>Node9</title>
<g id="a_node9"><a xlink:href="../../d2/d86/uart_8h.html#a265bc12c2a740b346234525c57d8b5a3" target="_top" xlink:title="Second step of syncing the player in COOP mode.">
<polygon fill="none" stroke="#000000" points="407,-.5 407,-19.5 502,-19.5 502,-.5 407,-.5"/>
<text text-anchor="middle" x="454.5" y="-7.5" font-family="Helvetica" font-size="10.00" fill="#000000">sync_second_step</text>
</a>
</g>
</g>
<!-- Node1&#45;&gt;Node9 -->
<g id="edge11" class="edge">
<title>Node1&#45;&gt;Node9</title>
<path fill="none" stroke="#191970" d="M551.8412,-52.8087C537.1591,-45.4361 518.7375,-36.4382 502,-29 494.6952,-25.7537 486.6558,-22.4417 479.3011,-19.5113"/>
<polygon fill="#191970" stroke="#191970" points="550.3907,-55.9972 560.8941,-57.3861 553.5493,-49.7503 550.3907,-55.9972"/>
</g>
<!-- Node3 -->
<g id="node3" class="node">
<title>Node3</title>
<g id="a_node3"><a xlink:href="../../df/def/_l_c_o_m_8c.html#a2a16f651eccbd248e1ad3b3b924b143b" target="_top" xlink:title=" ">
<polygon fill="none" stroke="#000000" points="0,-57.5 0,-76.5 83,-76.5 83,-57.5 0,-57.5"/>
<text text-anchor="middle" x="41.5" y="-64.5" font-family="Helvetica" font-size="10.00" fill="#000000">proj_main_loop</text>
</a>
</g>
</g>
<!-- Node2&#45;&gt;Node3 -->
<g id="edge2" class="edge">
<title>Node2&#45;&gt;Node3</title>
<path fill="none" stroke="#191970" d="M140.8217,-110.3819C116.9462,-99.9535 84.6115,-85.8303 63.414,-76.5716"/>
<polygon fill="#191970" stroke="#191970" points="139.5923,-113.6642 150.1572,-114.4595 142.3942,-107.2494 139.5923,-113.6642"/>
</g>
<!-- Node4&#45;&gt;Node3 -->
<g id="edge4" class="edge">
<title>Node4&#45;&gt;Node3</title>
<path fill="none" stroke="#191970" d="M250.6649,-81.4777C198.7404,-77.8837 127.6779,-72.965 83.1959,-69.8861"/>
<polygon fill="#191970" stroke="#191970" points="250.5632,-84.979 260.781,-82.1779 251.0466,-77.9957 250.5632,-84.979"/>
</g>
<!-- Node6 -->
<g id="node6" class="node">
<title>Node6</title>
<g id="a_node6"><a xlink:href="../../dd/d65/game__helper_8h.html#ac2e814f8670e374692b399122563067d" target="_top" xlink:title="Performs all game logic and displaying that occurs every frame depending on the game state.">
<polygon fill="none" stroke="#000000" points="136.5,-38.5 136.5,-57.5 207.5,-57.5 207.5,-38.5 136.5,-38.5"/>
<text text-anchor="middle" x="172" y="-45.5" font-family="Helvetica" font-size="10.00" fill="#000000">on_timer_int</text>
</a>
</g>
</g>
<!-- Node5&#45;&gt;Node6 -->
<g id="edge6" class="edge">
<title>Node5&#45;&gt;Node6</title>
<path fill="none" stroke="#191970" d="M403.5795,-48C347.0897,-48 257.3936,-48 207.8426,-48"/>
<polygon fill="#191970" stroke="#191970" points="403.7238,-51.5001 413.7238,-48 403.7237,-44.5001 403.7238,-51.5001"/>
</g>
<!-- Node7 -->
<g id="node7" class="node">
<title>Node7</title>
<g id="a_node7"><a xlink:href="../../d2/d86/uart_8h.html#af9200beb59291796d837e367401299b4" target="_top" xlink:title=" ">
<polygon fill="none" stroke="#000000" points="279.5,-.5 279.5,-19.5 352.5,-19.5 352.5,-.5 279.5,-.5"/>
<text text-anchor="middle" x="316" y="-7.5" font-family="Helvetica" font-size="10.00" fill="#000000">sync_players</text>
</a>
</g>
</g>
<!-- Node5&#45;&gt;Node7 -->
<g id="edge8" class="edge">
<title>Node5&#45;&gt;Node7</title>
<path fill="none" stroke="#191970" d="M409.8658,-35.7538C390.7753,-30.516 368.8155,-24.4909 350.9382,-19.5859"/>
<polygon fill="#191970" stroke="#191970" points="408.9809,-39.1403 419.5506,-38.411 410.8331,-32.3898 408.9809,-39.1403"/>
</g>
<!-- Node6&#45;&gt;Node3 -->
<g id="edge7" class="edge">
<title>Node6&#45;&gt;Node3</title>
<path fill="none" stroke="#191970" d="M126.3787,-54.6422C112.3143,-56.6899 96.9082,-58.9329 83.1274,-60.9393"/>
<polygon fill="#191970" stroke="#191970" points="126.9489,-58.0962 136.3403,-53.1918 125.9403,-51.1692 126.9489,-58.0962"/>
</g>
<!-- Node8 -->
<g id="node8" class="node">
<title>Node8</title>
<g id="a_node8"><a xlink:href="../../dd/d65/game__helper_8h.html#a03d9f7e90ecc6a670f43c0510bf272c0" target="_top" xlink:title="Processes the incoming packet from the UART (COM1) and executes the associated logic.">
<polygon fill="none" stroke="#000000" points="119,-.5 119,-19.5 225,-19.5 225,-.5 119,-.5"/>
<text text-anchor="middle" x="172" y="-7.5" font-family="Helvetica" font-size="10.00" fill="#000000">process_uart_packet</text>
</a>
</g>
</g>
<!-- Node7&#45;&gt;Node8 -->
<g id="edge9" class="edge">
<title>Node7&#45;&gt;Node8</title>
<path fill="none" stroke="#191970" d="M268.9258,-10C254.9543,-10 239.5542,-10 225.2215,-10"/>
<polygon fill="#191970" stroke="#191970" points="269.2902,-13.5001 279.2901,-10 269.2901,-6.5001 269.2902,-13.5001"/>
</g>
<!-- Node8&#45;&gt;Node3 -->
<g id="edge10" class="edge">
<title>Node8&#45;&gt;Node3</title>
<path fill="none" stroke="#191970" d="M133.88,-23.0863C128.8421,-24.9846 123.773,-26.9817 119,-29 98.297,-37.7543 75.2478,-49.2959 59.7097,-57.3529"/>
<polygon fill="#191970" stroke="#191970" points="135.2606,-26.308 143.4435,-19.5782 132.8499,-19.7362 135.2606,-26.308"/>
</g>
<!-- Node9&#45;&gt;Node7 -->
<g id="edge12" class="edge">
<title>Node9&#45;&gt;Node7</title>
<path fill="none" stroke="#191970" d="M396.7036,-10C381.8505,-10 366.2744,-10 352.8114,-10"/>
<polygon fill="#191970" stroke="#191970" points="396.8362,-13.5001 406.8362,-10 396.8361,-6.5001 396.8362,-13.5001"/>
</g>
</g>
</svg>
