<?xml version="1.0" encoding="UTF-8" standalone="no"?>
<!DOCTYPE svg PUBLIC "-//W3C//DTD SVG 1.1//EN"
 "http://www.w3.org/Graphics/SVG/1.1/DTD/svg11.dtd">
<!-- Generated by graphviz version 2.40.1 (20161225.0304)
 -->
<!-- Title: sync_players Pages: 1 -->
<svg width="434pt" height="66pt"
 viewBox="0.00 0.00 434.00 66.00" xmlns="http://www.w3.org/2000/svg" xmlns:xlink="http://www.w3.org/1999/xlink">
<g id="graph0" class="graph" transform="scale(1 1) rotate(0) translate(4 62)">
<title>sync_players</title>
<!-- Node1 -->
<g id="node1" class="node">
<title>Node1</title>
<g id="a_node1"><a xlink:title=" ">
<polygon fill="#bfbfbf" stroke="#000000" points="0,-19.5 0,-38.5 73,-38.5 73,-19.5 0,-19.5"/>
<text text-anchor="middle" x="36.5" y="-26.5" font-family="Helvetica" font-size="10.00" fill="#000000">sync_players</text>
</a>
</g>
</g>
<!-- Node2 -->
<g id="node2" class="node">
<title>Node2</title>
<g id="a_node2"><a xlink:href="../../d1/d87/uart_8c.html#ad98091201e75ffc65de031e31b3e4032" target="_top" xlink:title="First step of syncing the players in COOP mode.">
<polygon fill="none" stroke="#000000" points="116,-38.5 116,-57.5 197,-57.5 197,-38.5 116,-38.5"/>
<text text-anchor="middle" x="156.5" y="-45.5" font-family="Helvetica" font-size="10.00" fill="#000000">sync_first_step</text>
</a>
</g>
</g>
<!-- Node1&#45;&gt;Node2 -->
<g id="edge1" class="edge">
<title>Node1&#45;&gt;Node2</title>
<path fill="none" stroke="#191970" d="M73.156,-34.8039C83.4991,-36.4415 94.9387,-38.2528 105.9436,-39.9952"/>
<polygon fill="#191970" stroke="#191970" points="105.4596,-43.4621 115.8839,-41.5691 106.5543,-36.5482 105.4596,-43.4621"/>
</g>
<!-- Node5 -->
<g id="node5" class="node">
<title>Node5</title>
<g id="a_node5"><a xlink:href="../../d1/d87/uart_8c.html#a265bc12c2a740b346234525c57d8b5a3" target="_top" xlink:title="Second step of syncing the player in COOP mode.">
<polygon fill="none" stroke="#000000" points="109,-.5 109,-19.5 204,-19.5 204,-.5 109,-.5"/>
<text text-anchor="middle" x="156.5" y="-7.5" font-family="Helvetica" font-size="10.00" fill="#000000">sync_second_step</text>
</a>
</g>
</g>
<!-- Node1&#45;&gt;Node5 -->
<g id="edge4" class="edge">
<title>Node1&#45;&gt;Node5</title>
<path fill="none" stroke="#191970" d="M73.156,-23.1961C81.3689,-21.8958 90.2731,-20.4859 99.1021,-19.088"/>
<polygon fill="#191970" stroke="#191970" points="99.6678,-22.5421 108.9974,-17.5212 98.5731,-15.6282 99.6678,-22.5421"/>
</g>
<!-- Node3 -->
<g id="node3" class="node">
<title>Node3</title>
<g id="a_node3"><a xlink:href="../../d1/d87/uart_8c.html#a1fecae2103dd5c010cb5e507e93d8125" target="_top" xlink:title="Sends a byte to the UART.">
<polygon fill="none" stroke="#000000" points="240,-19.5 240,-38.5 323,-38.5 323,-19.5 240,-19.5"/>
<text text-anchor="middle" x="281.5" y="-26.5" font-family="Helvetica" font-size="10.00" fill="#000000">send_data_uart</text>
</a>
</g>
</g>
<!-- Node2&#45;&gt;Node3 -->
<g id="edge2" class="edge">
<title>Node2&#45;&gt;Node3</title>
<path fill="none" stroke="#191970" d="M197.0839,-41.8312C207.5632,-40.2384 218.9836,-38.5025 229.941,-36.837"/>
<polygon fill="#191970" stroke="#191970" points="230.4729,-40.2964 239.8334,-35.3333 229.4209,-33.3759 230.4729,-40.2964"/>
</g>
<!-- Node4 -->
<g id="node4" class="node">
<title>Node4</title>
<g id="a_node4"><a xlink:href="../../d3/d91/utils_8c.html#a79a031a8611f5b2d6afa4158e92b0fb4" target="_top" xlink:title="Gets from port 8 bit information to value.">
<polygon fill="none" stroke="#000000" points="359,-19.5 359,-38.5 426,-38.5 426,-19.5 359,-19.5"/>
<text text-anchor="middle" x="392.5" y="-26.5" font-family="Helvetica" font-size="10.00" fill="#000000">util_sys_inb</text>
</a>
</g>
</g>
<!-- Node3&#45;&gt;Node4 -->
<g id="edge3" class="edge">
<title>Node3&#45;&gt;Node4</title>
<path fill="none" stroke="#191970" d="M323.1481,-29C331.5452,-29 340.3942,-29 348.8573,-29"/>
<polygon fill="#191970" stroke="#191970" points="348.9328,-32.5001 358.9328,-29 348.9328,-25.5001 348.9328,-32.5001"/>
</g>
<!-- Node5&#45;&gt;Node3 -->
<g id="edge5" class="edge">
<title>Node5&#45;&gt;Node3</title>
<path fill="none" stroke="#191970" d="M204.1137,-17.2373C212.4523,-18.5047 221.1662,-19.8293 229.6137,-21.1133"/>
<polygon fill="#191970" stroke="#191970" points="229.33,-24.6103 239.7424,-22.6528 230.382,-17.6898 229.33,-24.6103"/>
</g>
</g>
</svg>
