<?xml version="1.0" encoding="UTF-8" standalone="no"?>
<!DOCTYPE svg PUBLIC "-//W3C//DTD SVG 1.1//EN"
 "http://www.w3.org/Graphics/SVG/1.1/DTD/svg11.dtd">
<!-- Generated by graphviz version 2.40.1 (20161225.0304)
 -->
<!-- Title: sync_second_step Pages: 1 -->
<svg width="325pt" height="28pt"
 viewBox="0.00 0.00 325.00 28.00" xmlns="http://www.w3.org/2000/svg" xmlns:xlink="http://www.w3.org/1999/xlink">
<g id="graph0" class="graph" transform="scale(1 1) rotate(0) translate(4 24)">
<title>sync_second_step</title>
<!-- Node1 -->
<g id="node1" class="node">
<title>Node1</title>
<g id="a_node1"><a xlink:title="Second step of syncing the player in COOP mode.">
<polygon fill="#bfbfbf" stroke="#000000" points="0,-.5 0,-19.5 95,-19.5 95,-.5 0,-.5"/>
<text text-anchor="middle" x="47.5" y="-7.5" font-family="Helvetica" font-size="10.00" fill="#000000">sync_second_step</text>
</a>
</g>
</g>
<!-- Node2 -->
<g id="node2" class="node">
<title>Node2</title>
<g id="a_node2"><a xlink:href="../../d1/d87/uart_8c.html#a1fecae2103dd5c010cb5e507e93d8125" target="_top" xlink:title="Sends a byte to the UART.">
<polygon fill="none" stroke="#000000" points="131,-.5 131,-19.5 214,-19.5 214,-.5 131,-.5"/>
<text text-anchor="middle" x="172.5" y="-7.5" font-family="Helvetica" font-size="10.00" fill="#000000">send_data_uart</text>
</a>
</g>
</g>
<!-- Node1&#45;&gt;Node2 -->
<g id="edge1" class="edge">
<title>Node1&#45;&gt;Node2</title>
<path fill="none" stroke="#191970" d="M95.1137,-10C103.4523,-10 112.1662,-10 120.6137,-10"/>
<polygon fill="#191970" stroke="#191970" points="120.7424,-13.5001 130.7424,-10 120.7424,-6.5001 120.7424,-13.5001"/>
</g>
<!-- Node3 -->
<g id="node3" class="node">
<title>Node3</title>
<g id="a_node3"><a xlink:href="../../d3/d91/utils_8c.html#a79a031a8611f5b2d6afa4158e92b0fb4" target="_top" xlink:title="Gets from port 8 bit information to value.">
<polygon fill="none" stroke="#000000" points="250,-.5 250,-19.5 317,-19.5 317,-.5 250,-.5"/>
<text text-anchor="middle" x="283.5" y="-7.5" font-family="Helvetica" font-size="10.00" fill="#000000">util_sys_inb</text>
</a>
</g>
</g>
<!-- Node2&#45;&gt;Node3 -->
<g id="edge2" class="edge">
<title>Node2&#45;&gt;Node3</title>
<path fill="none" stroke="#191970" d="M214.1481,-10C222.5452,-10 231.3942,-10 239.8573,-10"/>
<polygon fill="#191970" stroke="#191970" points="239.9328,-13.5001 249.9328,-10 239.9328,-6.5001 239.9328,-13.5001"/>
</g>
</g>
</svg>
