<?xml version="1.0" encoding="UTF-8" standalone="no"?>
<!DOCTYPE svg PUBLIC "-//W3C//DTD SVG 1.1//EN"
 "http://www.w3.org/Graphics/SVG/1.1/DTD/svg11.dtd">
<!-- Generated by graphviz version 2.40.1 (20161225.0304)
 -->
<!-- Title: util_sys_inb Pages: 1 -->
<!--zoomable 461 -->
<svg id="main" version="1.1" xmlns="http://www.w3.org/2000/svg" xmlns:xlink="http://www.w3.org/1999/xlink" xml:space="preserve" onload="init(evt)">
<style type="text/css"><![CDATA[
.edge:hover path { stroke: red; }
.edge:hover polygon { stroke: red; fill: red; }
]]></style>
<script type="text/javascript"><![CDATA[
var edges = document.getElementsByTagName('g');
if (edges && edges.length) {
  for (var i=0;i<edges.length;i++) {
    if (edges[i].id.substr(0,4)=='edge') {
      edges[i].setAttribute('class','edge');
    }
  }
}
]]></script>
        <defs>
                <circle id="rim" cx="0" cy="0" r="7"/>
                <circle id="rim2" cx="0" cy="0" r="3.5"/>
                <g id="zoomPlus">
                        <use xlink:href="#rim" fill="#404040">
                                <set attributeName="fill" to="#808080" begin="zoomplus.mouseover" end="zoomplus.mouseout"/>
                        </use>
                        <path d="M-4,0h8M0,-4v8" fill="none" stroke="white" stroke-width="1.5" pointer-events="none"/>
                </g>
                <g id="zoomMin">
                        <use xlink:href="#rim" fill="#404040">
                                <set attributeName="fill" to="#808080" begin="zoomminus.mouseover" end="zoomminus.mouseout"/>
                        </use>
                        <path d="M-4,0h8" fill="none" stroke="white" stroke-width="1.5" pointer-events="none"/>
                </g>
                <g id="dirArrow">
                        <path fill="none" stroke="white" stroke-width="1.5" d="M0,-3.0v7 M-2.5,-0.5L0,-3.0L2.5,-0.5"/>
                </g>
               <g id="resetDef">
                       <use xlink:href="#rim2" fill="#404040">
                               <set attributeName="fill" to="#808080" begin="reset.mouseover" end="reset.mouseout"/>
                       </use>
               </g>
        </defs>

<script type="text/javascript">
var viewWidth = 1049;
var viewHeight = 461;
var sectionId = 'dynsection-2';
</script>
<script xlink:href="../../svgpan.js"/>
<svg id="graph" class="graph">
<g id="viewport">
<title>util_sys_inb</title>
<!-- Node1 -->
<g id="node1" class="node">
<title>Node1</title>
<g id="a_node1"><a xlink:title="Gets from port 8 bit information to value.">
<polygon fill="#bfbfbf" stroke="#000000" points="974,-334.2004 974,-353.2004 1041,-353.2004 1041,-334.2004 974,-334.2004"/>
<text text-anchor="middle" x="1007.5" y="-341.2004" font-family="Helvetica" font-size="10.00" fill="#000000">util_sys_inb</text>
</a>
</g>
</g>
<!-- Node2 -->
<g id="node2" class="node">
<title>Node2</title>
<g id="a_node2"><a xlink:href="../../dc/ded/mouse_8h.html#a79f822ee418bebe387c463fbb343106c" target="_top" xlink:title="Writes cmd to the KBC.">
<polygon fill="none" stroke="#000000" points="832,-410.2004 832,-429.2004 938,-429.2004 938,-410.2004 832,-410.2004"/>
<text text-anchor="middle" x="885" y="-417.2004" font-family="Helvetica" font-size="10.00" fill="#000000">kbc_write_command</text>
</a>
</g>
</g>
<!-- Node1&#45;&gt;Node2 -->
<g id="edge1" class="edge">
<title>Node1&#45;&gt;Node2</title>
<path fill="none" stroke="#191970" d="M988.17,-359.9602C974.6491,-370.8745 955.8786,-385.1341 938,-395.7004 928.8695,-401.0965 918.3128,-406.1036 909.0358,-410.133"/>
<polygon fill="#191970" stroke="#191970" points="990.7239,-362.3922 996.2349,-353.3435 986.2839,-356.9804 990.7239,-362.3922"/>
</g>
<!-- Node3 -->
<g id="node3" class="node">
<title>Node3</title>
<g id="a_node3"><a xlink:href="../../dc/ded/mouse_8h.html#a090c9bebd05709adc5de77ab5b26d7c3" target="_top" xlink:title="Writes cmd to the mouse.">
<polygon fill="none" stroke="#000000" points="677,-410.2004 677,-429.2004 796,-429.2004 796,-410.2004 677,-410.2004"/>
<text text-anchor="middle" x="736.5" y="-417.2004" font-family="Helvetica" font-size="10.00" fill="#000000">mouse_write_command</text>
</a>
</g>
</g>
<!-- Node1&#45;&gt;Node3 -->
<g id="edge8" class="edge">
<title>Node1&#45;&gt;Node3</title>
<path fill="none" stroke="#191970" d="M1000.0337,-362.6538C989.8719,-385.5068 969.2901,-422.822 938,-438.7004 878.935,-468.6733 797.6034,-444.205 758.82,-429.218"/>
<polygon fill="#191970" stroke="#191970" points="1003.317,-363.875 1003.9705,-353.3004 996.8652,-361.1595 1003.317,-363.875"/>
</g>
<!-- Node5 -->
<g id="node5" class="node">
<title>Node5</title>
<g id="a_node5"><a xlink:href="../../d7/df4/kbd_8h.html#a30e6fd04d6255aeee6c061cae85490ee" target="_top" xlink:title="Parses the KBC keyboard data.">
<polygon fill="none" stroke="#000000" points="693.5,-372.2004 693.5,-391.2004 779.5,-391.2004 779.5,-372.2004 693.5,-372.2004"/>
<text text-anchor="middle" x="736.5" y="-379.2004" font-family="Helvetica" font-size="10.00" fill="#000000">kbd_parse_data</text>
</a>
</g>
</g>
<!-- Node1&#45;&gt;Node5 -->
<g id="edge4" class="edge">
<title>Node1&#45;&gt;Node5</title>
<path fill="none" stroke="#191970" d="M963.8493,-353.0495C955.3005,-354.723 946.3861,-356.3586 938,-357.7004 883.7317,-366.3838 820.7783,-373.3964 779.8766,-377.55"/>
<polygon fill="#191970" stroke="#191970" points="964.5458,-356.4796 973.6632,-351.0829 963.1704,-349.616 964.5458,-356.4796"/>
</g>
<!-- Node6 -->
<g id="node6" class="node">
<title>Node6</title>
<g id="a_node6"><a xlink:href="../../dc/ded/mouse_8h.html#aed4404005e4c565ac36656307386e0ac" target="_top" xlink:title="Mouse interrupt handler.">
<polygon fill="none" stroke="#000000" points="556,-334.2004 556,-353.2004 614,-353.2004 614,-334.2004 556,-334.2004"/>
<text text-anchor="middle" x="585" y="-341.2004" font-family="Helvetica" font-size="10.00" fill="#000000">mouse_ih</text>
</a>
</g>
</g>
<!-- Node1&#45;&gt;Node6 -->
<g id="edge6" class="edge">
<title>Node1&#45;&gt;Node6</title>
<path fill="none" stroke="#191970" d="M963.7489,-343.7004C877.4099,-343.7004 687.1664,-343.7004 614.2411,-343.7004"/>
<polygon fill="#191970" stroke="#191970" points="963.994,-347.2005 973.994,-343.7004 963.9939,-340.2005 963.994,-347.2005"/>
</g>
<!-- Node7 -->
<g id="node7" class="node">
<title>Node7</title>
<g id="a_node7"><a xlink:href="../../dc/d1b/rtc_8h.html#abf6f23e3a37b625fce812ca09b3f35df" target="_top" xlink:title="Reads the Register reg of the RTC.">
<polygon fill="none" stroke="#000000" points="839.5,-258.2004 839.5,-277.2004 930.5,-277.2004 930.5,-258.2004 839.5,-258.2004"/>
<text text-anchor="middle" x="885" y="-265.2004" font-family="Helvetica" font-size="10.00" fill="#000000">rtc_read_register</text>
</a>
</g>
</g>
<!-- Node1&#45;&gt;Node7 -->
<g id="edge9" class="edge">
<title>Node1&#45;&gt;Node7</title>
<path fill="none" stroke="#191970" d="M983.2308,-328.6436C958.5999,-313.3624 921.2163,-290.1693 900.3887,-277.2477"/>
<polygon fill="#191970" stroke="#191970" points="981.6426,-331.7771 991.9853,-334.0749 985.333,-325.8289 981.6426,-331.7771"/>
</g>
<!-- Node18 -->
<g id="node18" class="node">
<title>Node18</title>
<g id="a_node18"><a xlink:href="../../d2/d86/uart_8h.html#a1fecae2103dd5c010cb5e507e93d8125" target="_top" xlink:title="Sends a byte to the UART.">
<polygon fill="none" stroke="#000000" points="543.5,-144.2004 543.5,-163.2004 626.5,-163.2004 626.5,-144.2004 543.5,-144.2004"/>
<text text-anchor="middle" x="585" y="-151.2004" font-family="Helvetica" font-size="10.00" fill="#000000">send_data_uart</text>
</a>
</g>
</g>
<!-- Node1&#45;&gt;Node18 -->
<g id="edge26" class="edge">
<title>Node1&#45;&gt;Node18</title>
<path fill="none" stroke="#191970" d="M997.3982,-325.2095C985.3882,-304.5349 963.7028,-271.0308 938,-248.7004 883.9633,-201.7537 864.5803,-193.2113 796,-172.7004 739.0908,-155.68 670.0104,-152.5729 626.7645,-152.5982"/>
<polygon fill="#191970" stroke="#191970" points="994.3844,-326.9904 1002.3539,-333.9716 1000.4774,-323.5443 994.3844,-326.9904"/>
</g>
<!-- Node23 -->
<g id="node23" class="node">
<title>Node23</title>
<g id="a_node23"><a xlink:href="../../d2/d86/uart_8h.html#a67d2da4dd20c731989c130bbe2cd4c85" target="_top" xlink:title="UART&#39;s interrupt handler.">
<polygon fill="none" stroke="#000000" points="861.5,-49.2004 861.5,-68.2004 908.5,-68.2004 908.5,-49.2004 861.5,-49.2004"/>
<text text-anchor="middle" x="885" y="-56.2004" font-family="Helvetica" font-size="10.00" fill="#000000">uart_ih</text>
</a>
</g>
</g>
<!-- Node1&#45;&gt;Node23 -->
<g id="edge36" class="edge">
<title>Node1&#45;&gt;Node23</title>
<path fill="none" stroke="#191970" d="M1002.5654,-324.0038C992.873,-286.8401 969.5183,-204.307 938,-139.7004 924.5895,-112.2114 903.4592,-82.8683 892.3637,-68.2012"/>
<polygon fill="#191970" stroke="#191970" points="999.2567,-325.192 1005.1287,-334.0108 1006.0378,-323.455 999.2567,-325.192"/>
</g>
<!-- Node2&#45;&gt;Node3 -->
<g id="edge2" class="edge">
<title>Node2&#45;&gt;Node3</title>
<path fill="none" stroke="#191970" d="M821.6198,-419.7004C813.1647,-419.7004 804.5174,-419.7004 796.1293,-419.7004"/>
<polygon fill="#191970" stroke="#191970" points="821.8076,-423.2005 831.8075,-419.7004 821.8075,-416.2005 821.8076,-423.2005"/>
</g>
<!-- Node4 -->
<g id="node4" class="node">
<title>Node4</title>
<g id="a_node4"><a xlink:href="../../df/def/_l_c_o_m_8c.html#a2a16f651eccbd248e1ad3b3b924b143b" target="_top" xlink:title=" ">
<polygon fill="none" stroke="#000000" points="0,-239.2004 0,-258.2004 83,-258.2004 83,-239.2004 0,-239.2004"/>
<text text-anchor="middle" x="41.5" y="-246.2004" font-family="Helvetica" font-size="10.00" fill="#000000">proj_main_loop</text>
</a>
</g>
</g>
<!-- Node3&#45;&gt;Node4 -->
<g id="edge3" class="edge">
<title>Node3&#45;&gt;Node4</title>
<path fill="none" stroke="#191970" d="M666.556,-419.7004C607.6102,-419.7004 521.04,-419.7004 445.5,-419.7004 445.5,-419.7004 445.5,-419.7004 313.5,-419.7004 225.2464,-419.7004 190.843,-430.9573 119,-379.7004 74.9018,-348.2382 51.7327,-283.1608 44.2514,-258.4803"/>
<polygon fill="#191970" stroke="#191970" points="666.8665,-423.2005 676.8664,-419.7004 666.8664,-416.2005 666.8665,-423.2005"/>
</g>
<!-- Node5&#45;&gt;Node4 -->
<g id="edge5" class="edge">
<title>Node5&#45;&gt;Node4</title>
<path fill="none" stroke="#191970" d="M683.0205,-381.7004C624.6474,-381.7004 528.4272,-381.7004 445.5,-381.7004 445.5,-381.7004 445.5,-381.7004 313.5,-381.7004 225.8202,-381.7004 194.2139,-393.7629 119,-348.7004 81.6934,-326.3491 55.7345,-278.7519 45.8869,-258.3317"/>
<polygon fill="#191970" stroke="#191970" points="683.1146,-385.2005 693.1146,-381.7004 683.1146,-378.2005 683.1146,-385.2005"/>
</g>
<!-- Node6&#45;&gt;Node4 -->
<g id="edge7" class="edge">
<title>Node6&#45;&gt;Node4</title>
<path fill="none" stroke="#191970" d="M546.0013,-350.2289C463.4284,-362.2649 266.4374,-381.4382 119,-319.7004 87.3568,-306.4501 60.3933,-274.3704 48.3016,-258.263"/>
<polygon fill="#191970" stroke="#191970" points="546.5878,-353.6802 555.9554,-348.7307 545.5459,-346.7581 546.5878,-353.6802"/>
</g>
<!-- Node7&#45;&gt;Node4 -->
<g id="edge10" class="edge">
<title>Node7&#45;&gt;Node4</title>
<path fill="none" stroke="#191970" d="M829.4654,-278.9907C769.448,-290.1927 670.8572,-305.7004 585,-305.7004 585,-305.7004 585,-305.7004 313.5,-305.7004 222.0701,-305.7004 116.9578,-274.4674 68.5181,-258.2409"/>
<polygon fill="#191970" stroke="#191970" points="830.3101,-282.3931 839.4844,-277.0937 829.0078,-275.5153 830.3101,-282.3931"/>
</g>
<!-- Node8 -->
<g id="node8" class="node">
<title>Node8</title>
<g id="a_node8"><a xlink:href="../../dc/d1b/rtc_8h.html#a2f5c62ef4118ce8c03eaa21181ebee4d" target="_top" xlink:title="RTC interrupt handler.">
<polygon fill="none" stroke="#000000" points="564.5,-258.2004 564.5,-277.2004 605.5,-277.2004 605.5,-258.2004 564.5,-258.2004"/>
<text text-anchor="middle" x="585" y="-265.2004" font-family="Helvetica" font-size="10.00" fill="#000000">rtc_ih</text>
</a>
</g>
</g>
<!-- Node7&#45;&gt;Node8 -->
<g id="edge11" class="edge">
<title>Node7&#45;&gt;Node8</title>
<path fill="none" stroke="#191970" d="M829.391,-267.7004C761.8604,-267.7004 651.3341,-267.7004 605.7034,-267.7004"/>
<polygon fill="#191970" stroke="#191970" points="829.4365,-271.2005 839.4365,-267.7004 829.4364,-264.2005 829.4365,-271.2005"/>
</g>
<!-- Node9 -->
<g id="node9" class="node">
<title>Node9</title>
<g id="a_node9"><a xlink:href="../../dc/d1b/rtc_8h.html#a01efed7ef3d173bcbbeefbde025f38ac" target="_top" xlink:title="Reads the time from the RTC.">
<polygon fill="none" stroke="#000000" points="698,-220.2004 698,-239.2004 775,-239.2004 775,-220.2004 698,-220.2004"/>
<text text-anchor="middle" x="736.5" y="-227.2004" font-family="Helvetica" font-size="10.00" fill="#000000">rtc_read_time</text>
</a>
</g>
</g>
<!-- Node7&#45;&gt;Node9 -->
<g id="edge13" class="edge">
<title>Node7&#45;&gt;Node9</title>
<path fill="none" stroke="#191970" d="M837.6671,-255.5883C816.9854,-250.296 793.0812,-244.1791 773.7034,-239.2204"/>
<polygon fill="#191970" stroke="#191970" points="836.9716,-259.023 847.5272,-258.1114 838.707,-252.2415 836.9716,-259.023"/>
</g>
<!-- Node17 -->
<g id="node17" class="node">
<title>Node17</title>
<g id="a_node17"><a xlink:href="../../dc/d1b/rtc_8h.html#a0b956beb30165538fcd684d0ee75b1a6" target="_top" xlink:title="Sets the periodic interrupts time to send interrupts every delta_t.">
<polygon fill="none" stroke="#000000" points="694,-182.2004 694,-201.2004 779,-201.2004 779,-182.2004 694,-182.2004"/>
<text text-anchor="middle" x="736.5" y="-189.2004" font-family="Helvetica" font-size="10.00" fill="#000000">rtc_set_periodic</text>
</a>
</g>
</g>
<!-- Node7&#45;&gt;Node17 -->
<g id="edge25" class="edge">
<title>Node7&#45;&gt;Node17</title>
<path fill="none" stroke="#191970" d="M864.0281,-252.0368C846.5432,-239.5378 820.6053,-222.265 796,-210.7004 788.3452,-207.1026 779.8314,-203.9334 771.6927,-201.2656"/>
<polygon fill="#191970" stroke="#191970" points="862.2018,-255.0361 872.3493,-258.0823 866.3163,-249.3729 862.2018,-255.0361"/>
</g>
<!-- Node8&#45;&gt;Node4 -->
<g id="edge12" class="edge">
<title>Node8&#45;&gt;Node4</title>
<path fill="none" stroke="#191970" d="M554.2982,-266.6271C462.2252,-263.4084 188.3149,-253.8328 83.2065,-250.1584"/>
<polygon fill="#191970" stroke="#191970" points="554.2416,-270.1272 564.3578,-266.9788 554.4862,-263.1314 554.2416,-270.1272"/>
</g>
<!-- Node9&#45;&gt;Node8 -->
<g id="edge19" class="edge">
<title>Node9&#45;&gt;Node8</title>
<path fill="none" stroke="#191970" d="M688.2765,-241.796C660.3493,-248.8009 626.6445,-257.2549 605.5107,-262.5558"/>
<polygon fill="#191970" stroke="#191970" points="689.4221,-245.1172 698.2702,-239.2894 687.7191,-238.3275 689.4221,-245.1172"/>
</g>
<!-- Node10 -->
<g id="node10" class="node">
<title>Node10</title>
<g id="a_node10"><a xlink:href="../../dd/d65/game__helper_8h.html#aa1ee142c726e35646cf2262524f54d14" target="_top" xlink:title="Generates the random enemy board on the grid.">
<polygon fill="none" stroke="#000000" points="271,-220.2004 271,-239.2004 356,-239.2004 356,-220.2004 271,-220.2004"/>
<text text-anchor="middle" x="313.5" y="-227.2004" font-family="Helvetica" font-size="10.00" fill="#000000">create_enemies</text>
</a>
</g>
</g>
<!-- Node9&#45;&gt;Node10 -->
<g id="edge14" class="edge">
<title>Node9&#45;&gt;Node10</title>
<path fill="none" stroke="#191970" d="M687.6082,-229.7004C604.1127,-229.7004 435.4075,-229.7004 356.2862,-229.7004"/>
<polygon fill="#191970" stroke="#191970" points="687.8402,-233.2005 697.8402,-229.7004 687.8402,-226.2005 687.8402,-233.2005"/>
</g>
<!-- Node13 -->
<g id="node13" class="node">
<title>Node13</title>
<g id="a_node13"><a xlink:href="../../dc/d1b/rtc_8h.html#adb4289b2015a3ec052bae20542244311" target="_top" xlink:title="Sets an alarm at current_time + delta_seconds.">
<polygon fill="none" stroke="#000000" points="529,-87.2004 529,-106.2004 641,-106.2004 641,-87.2004 529,-87.2004"/>
<text text-anchor="middle" x="585" y="-94.2004" font-family="Helvetica" font-size="10.00" fill="#000000">rtc_set_alarm_delta_s</text>
</a>
</g>
</g>
<!-- Node9&#45;&gt;Node13 -->
<g id="edge20" class="edge">
<title>Node9&#45;&gt;Node13</title>
<path fill="none" stroke="#191970" d="M688.5249,-218.3843C684.3701,-216.2499 680.4443,-213.7137 677,-210.7004 648.8702,-186.0904 665.3198,-163.0815 641,-134.7004 630.7556,-122.7452 615.8926,-112.8941 604.0528,-106.22"/>
<polygon fill="#191970" stroke="#191970" points="687.3215,-221.6774 697.8885,-222.4446 690.1063,-215.2551 687.3215,-221.6774"/>
</g>
<!-- Node11 -->
<g id="node11" class="node">
<title>Node11</title>
<g id="a_node11"><a xlink:href="../../dd/d65/game__helper_8h.html#a72c30bee155342f972c892a5a8d4a175" target="_top" xlink:title="Processes the input that comes from the mouse and executes the associated logic.">
<polygon fill="none" stroke="#000000" points="119,-220.2004 119,-239.2004 229,-239.2004 229,-220.2004 119,-220.2004"/>
<text text-anchor="middle" x="174" y="-227.2004" font-family="Helvetica" font-size="10.00" fill="#000000">process_mouse_input</text>
</a>
</g>
</g>
<!-- Node10&#45;&gt;Node11 -->
<g id="edge15" class="edge">
<title>Node10&#45;&gt;Node11</title>
<path fill="none" stroke="#191970" d="M260.7828,-229.7004C250.4653,-229.7004 239.6182,-229.7004 229.2217,-229.7004"/>
<polygon fill="#191970" stroke="#191970" points="260.8874,-233.2005 270.8874,-229.7004 260.8874,-226.2005 260.8874,-233.2005"/>
</g>
<!-- Node12 -->
<g id="node12" class="node">
<title>Node12</title>
<g id="a_node12"><a xlink:href="../../dd/d65/game__helper_8h.html#a03d9f7e90ecc6a670f43c0510bf272c0" target="_top" xlink:title="Processes the incoming packet from the UART (COM1) and executes the associated logic.">
<polygon fill="none" stroke="#000000" points="121,-182.2004 121,-201.2004 227,-201.2004 227,-182.2004 121,-182.2004"/>
<text text-anchor="middle" x="174" y="-189.2004" font-family="Helvetica" font-size="10.00" fill="#000000">process_uart_packet</text>
</a>
</g>
</g>
<!-- Node10&#45;&gt;Node12 -->
<g id="edge17" class="edge">
<title>Node10&#45;&gt;Node12</title>
<path fill="none" stroke="#191970" d="M268.5436,-217.4542C249.3152,-212.2164 227.1969,-206.1913 209.1905,-201.2863"/>
<polygon fill="#191970" stroke="#191970" points="267.7299,-220.86 278.2983,-220.1114 269.5697,-214.1061 267.7299,-220.86"/>
</g>
<!-- Node11&#45;&gt;Node4 -->
<g id="edge16" class="edge">
<title>Node11&#45;&gt;Node4</title>
<path fill="none" stroke="#191970" d="M108.7976,-239.0502C100.1014,-240.2972 91.3811,-241.5476 83.2363,-242.7156"/>
<polygon fill="#191970" stroke="#191970" points="109.5573,-242.4771 118.9592,-237.593 108.5636,-235.548 109.5573,-242.4771"/>
</g>
<!-- Node12&#45;&gt;Node4 -->
<g id="edge18" class="edge">
<title>Node12&#45;&gt;Node4</title>
<path fill="none" stroke="#191970" d="M134.2459,-204.7791C129.0798,-206.6696 123.8881,-208.6668 119,-210.7004 98.1082,-219.392 74.8987,-231.051 59.3743,-239.1529"/>
<polygon fill="#191970" stroke="#191970" points="135.8101,-207.9378 144.0625,-201.2935 133.4678,-201.3413 135.8101,-207.9378"/>
</g>
<!-- Node14 -->
<g id="node14" class="node">
<title>Node14</title>
<g id="a_node14"><a xlink:href="../../d3/d62/player_8h.html#aa281b82564297b42eb7b3bf734650e36" target="_top" xlink:title="The spearman uses its special ability.">
<polygon fill="none" stroke="#000000" points="398.5,-68.2004 398.5,-87.2004 492.5,-87.2004 492.5,-68.2004 398.5,-68.2004"/>
<text text-anchor="middle" x="445.5" y="-75.2004" font-family="Helvetica" font-size="10.00" fill="#000000">spearman_special</text>
</a>
</g>
</g>
<!-- Node13&#45;&gt;Node14 -->
<g id="edge21" class="edge">
<title>Node13&#45;&gt;Node14</title>
<path fill="none" stroke="#191970" d="M518.4846,-87.641C509.7605,-86.4527 500.9688,-85.2553 492.6569,-84.1232"/>
<polygon fill="#191970" stroke="#191970" points="518.2812,-91.1455 528.6621,-89.0271 519.226,-84.2095 518.2812,-91.1455"/>
</g>
<!-- Node15 -->
<g id="node15" class="node">
<title>Node15</title>
<g id="a_node15"><a xlink:href="../../d3/d62/player_8h.html#a43024b59b971eee693bdf802580d046e" target="_top" xlink:title="The spearman acts acording to action in PA.">
<polygon fill="none" stroke="#000000" points="275,-68.2004 275,-87.2004 352,-87.2004 352,-68.2004 275,-68.2004"/>
<text text-anchor="middle" x="313.5" y="-75.2004" font-family="Helvetica" font-size="10.00" fill="#000000">spearman_act</text>
</a>
</g>
</g>
<!-- Node14&#45;&gt;Node15 -->
<g id="edge22" class="edge">
<title>Node14&#45;&gt;Node15</title>
<path fill="none" stroke="#191970" d="M388.1468,-77.7004C376.0023,-77.7004 363.4603,-77.7004 352.2041,-77.7004"/>
<polygon fill="#191970" stroke="#191970" points="388.2178,-81.2005 398.2178,-77.7004 388.2178,-74.2005 388.2178,-81.2005"/>
</g>
<!-- Node16 -->
<g id="node16" class="node">
<title>Node16</title>
<g id="a_node16"><a xlink:href="../../dd/d65/game__helper_8h.html#ac2e814f8670e374692b399122563067d" target="_top" xlink:title="Performs all game logic and displaying that occurs every frame depending on the game state.">
<polygon fill="none" stroke="#000000" points="138.5,-106.2004 138.5,-125.2004 209.5,-125.2004 209.5,-106.2004 138.5,-106.2004"/>
<text text-anchor="middle" x="174" y="-113.2004" font-family="Helvetica" font-size="10.00" fill="#000000">on_timer_int</text>
</a>
</g>
</g>
<!-- Node15&#45;&gt;Node16 -->
<g id="edge23" class="edge">
<title>Node15&#45;&gt;Node16</title>
<path fill="none" stroke="#191970" d="M268.5436,-89.9466C249.3152,-95.1844 227.1969,-101.2095 209.1905,-106.1145"/>
<polygon fill="#191970" stroke="#191970" points="269.5697,-93.2947 278.2983,-87.2894 267.7299,-86.5408 269.5697,-93.2947"/>
</g>
<!-- Node16&#45;&gt;Node4 -->
<g id="edge24" class="edge">
<title>Node16&#45;&gt;Node4</title>
<path fill="none" stroke="#191970" d="M157.3653,-132.3978C129.397,-160.4717 73.8064,-216.2721 51.3002,-238.8632"/>
<polygon fill="#191970" stroke="#191970" points="159.8927,-134.82 164.4709,-125.2654 154.9336,-129.8796 159.8927,-134.82"/>
</g>
<!-- Node18&#45;&gt;Node11 -->
<g id="edge29" class="edge">
<title>Node18&#45;&gt;Node11</title>
<path fill="none" stroke="#191970" d="M533.5289,-164.6947C520.3377,-167.4122 506.1594,-170.2459 493,-172.7004 392.0106,-191.5372 365.9688,-191.7537 265,-210.7004 249.6134,-213.5877 232.8221,-217.0147 217.8997,-220.1581"/>
<polygon fill="#191970" stroke="#191970" points="534.3108,-168.1071 543.3906,-162.6475 532.8879,-161.2532 534.3108,-168.1071"/>
</g>
<!-- Node19 -->
<g id="node19" class="node">
<title>Node19</title>
<g id="a_node19"><a xlink:href="../../dd/d65/game__helper_8h.html#a7562d024344a09070adef285be55ef46" target="_top" xlink:title="Processes the input that comes from the keyboard and executes the associated logic.">
<polygon fill="none" stroke="#000000" points="265,-30.2004 265,-49.2004 362,-49.2004 362,-30.2004 265,-30.2004"/>
<text text-anchor="middle" x="313.5" y="-37.2004" font-family="Helvetica" font-size="10.00" fill="#000000">process_kbd_input</text>
</a>
</g>
</g>
<!-- Node18&#45;&gt;Node19 -->
<g id="edge27" class="edge">
<title>Node18&#45;&gt;Node19</title>
<path fill="none" stroke="#191970" d="M558.4573,-138.8681C548.5182,-132.5351 537.5698,-124.5568 529,-115.7004 508.1642,-94.1679 518.4423,-74.5265 493,-58.7004 453.8843,-34.3689 400.5045,-31.7158 362.1396,-33.8675"/>
<polygon fill="#191970" stroke="#191970" points="556.8437,-141.9834 567.2042,-144.1995 560.487,-136.0062 556.8437,-141.9834"/>
</g>
<!-- Node20 -->
<g id="node20" class="node">
<title>Node20</title>
<g id="a_node20"><a xlink:href="../../d2/d86/uart_8h.html#ad98091201e75ffc65de031e31b3e4032" target="_top" xlink:title="First step of syncing the players in COOP mode.">
<polygon fill="none" stroke="#000000" points="405,-106.2004 405,-125.2004 486,-125.2004 486,-106.2004 405,-106.2004"/>
<text text-anchor="middle" x="445.5" y="-113.2004" font-family="Helvetica" font-size="10.00" fill="#000000">sync_first_step</text>
</a>
</g>
</g>
<!-- Node18&#45;&gt;Node20 -->
<g id="edge30" class="edge">
<title>Node18&#45;&gt;Node20</title>
<path fill="none" stroke="#191970" d="M540.0436,-141.4542C520.8152,-136.2164 498.6969,-130.1913 480.6905,-125.2863"/>
<polygon fill="#191970" stroke="#191970" points="539.2299,-144.86 549.7983,-144.1114 541.0697,-138.1061 539.2299,-144.86"/>
</g>
<!-- Node22 -->
<g id="node22" class="node">
<title>Node22</title>
<g id="a_node22"><a xlink:href="../../d2/d86/uart_8h.html#a265bc12c2a740b346234525c57d8b5a3" target="_top" xlink:title="Second step of syncing the player in COOP mode.">
<polygon fill="none" stroke="#000000" points="398,-144.2004 398,-163.2004 493,-163.2004 493,-144.2004 398,-144.2004"/>
<text text-anchor="middle" x="445.5" y="-151.2004" font-family="Helvetica" font-size="10.00" fill="#000000">sync_second_step</text>
</a>
</g>
</g>
<!-- Node18&#45;&gt;Node22 -->
<g id="edge34" class="edge">
<title>Node18&#45;&gt;Node22</title>
<path fill="none" stroke="#191970" d="M532.9267,-153.7004C519.9022,-153.7004 505.9973,-153.7004 493.197,-153.7004"/>
<polygon fill="#191970" stroke="#191970" points="533.1454,-157.2005 543.1454,-153.7004 533.1454,-150.2005 533.1454,-157.2005"/>
</g>
<!-- Node19&#45;&gt;Node4 -->
<g id="edge28" class="edge">
<title>Node19&#45;&gt;Node4</title>
<path fill="none" stroke="#191970" d="M254.8553,-44.5972C212.9522,-50.7994 157.4147,-64.8542 119,-96.7004 71.5678,-136.0221 50.0508,-211.7898 43.6495,-238.8203"/>
<polygon fill="#191970" stroke="#191970" points="255.4926,-48.0426 264.925,-43.2176 254.5424,-41.1074 255.4926,-48.0426"/>
</g>
<!-- Node20&#45;&gt;Node16 -->
<g id="edge31" class="edge">
<title>Node20&#45;&gt;Node16</title>
<path fill="none" stroke="#191970" d="M394.8253,-115.7004C340.9347,-115.7004 257.0777,-115.7004 209.7185,-115.7004"/>
<polygon fill="#191970" stroke="#191970" points="394.8537,-119.2005 404.8537,-115.7004 394.8537,-112.2005 394.8537,-119.2005"/>
</g>
<!-- Node21 -->
<g id="node21" class="node">
<title>Node21</title>
<g id="a_node21"><a xlink:href="../../d2/d86/uart_8h.html#af9200beb59291796d837e367401299b4" target="_top" xlink:title=" ">
<polygon fill="none" stroke="#000000" points="277,-144.2004 277,-163.2004 350,-163.2004 350,-144.2004 277,-144.2004"/>
<text text-anchor="middle" x="313.5" y="-151.2004" font-family="Helvetica" font-size="10.00" fill="#000000">sync_players</text>
</a>
</g>
</g>
<!-- Node20&#45;&gt;Node21 -->
<g id="edge32" class="edge">
<title>Node20&#45;&gt;Node21</title>
<path fill="none" stroke="#191970" d="M402.4591,-128.0909C384.3823,-133.2949 363.6805,-139.2545 346.7985,-144.1145"/>
<polygon fill="#191970" stroke="#191970" points="403.5494,-131.4193 412.1908,-125.2894 401.6128,-124.6925 403.5494,-131.4193"/>
</g>
<!-- Node21&#45;&gt;Node12 -->
<g id="edge33" class="edge">
<title>Node21&#45;&gt;Node12</title>
<path fill="none" stroke="#191970" d="M268.5436,-165.9466C249.3152,-171.1844 227.1969,-177.2095 209.1905,-182.1145"/>
<polygon fill="#191970" stroke="#191970" points="269.5697,-169.2947 278.2983,-163.2894 267.7299,-162.5408 269.5697,-169.2947"/>
</g>
<!-- Node22&#45;&gt;Node21 -->
<g id="edge35" class="edge">
<title>Node22&#45;&gt;Node21</title>
<path fill="none" stroke="#191970" d="M387.775,-153.7004C375.0615,-153.7004 361.9318,-153.7004 350.3132,-153.7004"/>
<polygon fill="#191970" stroke="#191970" points="387.845,-157.2005 397.845,-153.7004 387.8449,-150.2005 387.845,-157.2005"/>
</g>
<!-- Node23&#45;&gt;Node4 -->
<g id="edge37" class="edge">
<title>Node23&#45;&gt;Node4</title>
<path fill="none" stroke="#191970" d="M851.6122,-48.1013C796.6306,-31.6149 683.3202,-1.7004 585,-1.7004 585,-1.7004 585,-1.7004 313.5,-1.7004 224.8712,-1.7004 185.9643,12.3586 119,-45.7004 57.719,-98.8318 44.7073,-205.9026 42.1113,-238.8358"/>
<polygon fill="#191970" stroke="#191970" points="850.5971,-51.4508 861.1829,-51.0131 852.6347,-44.7539 850.5971,-51.4508"/>
</g>
</g>
</svg>
        <g id="navigator" transform="translate(0 0)" fill="#404254">
                <rect fill="#f2f5e9" fill-opacity="0.5" stroke="#606060" stroke-width=".5" x="0" y="0" width="60" height="60"/>
                <use id="zoomplus" xlink:href="#zoomPlus" x="17" y="9" onmousedown="handleZoom(evt,'in')"/>
                <use id="zoomminus" xlink:href="#zoomMin" x="42" y="9" onmousedown="handleZoom(evt,'out')"/>
                <use id="reset" xlink:href="#resetDef" x="30" y="36" onmousedown="handleReset()"/>
                <g id="arrowUp" xlink:href="#dirArrow" transform="translate(30 24)" onmousedown="handlePan(0,-1)">
                  <use xlink:href="#rim" fill="#404040">
                        <set attributeName="fill" to="#808080" begin="arrowUp.mouseover" end="arrowUp.mouseout"/>
                  </use>
                  <path fill="none" stroke="white" stroke-width="1.5" d="M0,-3.0v7 M-2.5,-0.5L0,-3.0L2.5,-0.5"/>
                </g>
                <g id="arrowRight" xlink:href="#dirArrow" transform="rotate(90) translate(36 -43)" onmousedown="handlePan(1,0)">
                  <use xlink:href="#rim" fill="#404040">
                        <set attributeName="fill" to="#808080" begin="arrowRight.mouseover" end="arrowRight.mouseout"/>
                  </use>
                  <path fill="none" stroke="white" stroke-width="1.5" d="M0,-3.0v7 M-2.5,-0.5L0,-3.0L2.5,-0.5"/>
                </g>
                <g id="arrowDown" xlink:href="#dirArrow" transform="rotate(180) translate(-30 -48)" onmousedown="handlePan(0,1)">
                  <use xlink:href="#rim" fill="#404040">
                        <set attributeName="fill" to="#808080" begin="arrowDown.mouseover" end="arrowDown.mouseout"/>
                  </use>
                  <path fill="none" stroke="white" stroke-width="1.5" d="M0,-3.0v7 M-2.5,-0.5L0,-3.0L2.5,-0.5"/>
                </g>
                <g id="arrowLeft" xlink:href="#dirArrow" transform="rotate(270) translate(-36 17)" onmousedown="handlePan(-1,0)">
                  <use xlink:href="#rim" fill="#404040">
                        <set attributeName="fill" to="#808080" begin="arrowLeft.mouseover" end="arrowLeft.mouseout"/>
                  </use>
                  <path fill="none" stroke="white" stroke-width="1.5" d="M0,-3.0v7 M-2.5,-0.5L0,-3.0L2.5,-0.5"/>
                </g>
        </g>
        <svg viewBox="0 0 15 15" width="100%" height="30px" preserveAspectRatio="xMaxYMin meet">
         <g id="arrow_out" transform="scale(0.3 0.3)">
          <a xlink:href="utils_8h_a79a031a8611f5b2d6afa4158e92b0fb4_icgraph_org.svg" target="_base">
           <rect id="button" ry="5" rx="5" y="6" x="6" height="38" width="38"
                fill="#f2f5e9" fill-opacity="0.5" stroke="#606060" stroke-width="1.0"/>
           <path id="arrow"
             d="M 11.500037,31.436501 C 11.940474,20.09759 22.043105,11.32322 32.158766,21.979434 L 37.068811,17.246167 C 37.068811,17.246167 37.088388,32 37.088388,32 L 22.160133,31.978069 C 22.160133,31.978069 26.997745,27.140456 26.997745,27.140456 C 18.528582,18.264221 13.291696,25.230495 11.500037,31.436501 z"
             style="fill:#404040;"/>
          </a>
         </g>
        </svg>
</svg>
