<?xml version="1.0" encoding="UTF-8" standalone="no"?>
<!DOCTYPE svg PUBLIC "-//W3C//DTD SVG 1.1//EN"
 "http://www.w3.org/Graphics/SVG/1.1/DTD/svg11.dtd">
<!-- Generated by graphviz version 2.40.1 (20161225.0304)
 -->
<!-- Title: game_helper.h Pages: 1 -->
<svg width="419pt" height="308pt"
 viewBox="0.00 0.00 418.82 308.00" xmlns="http://www.w3.org/2000/svg" xmlns:xlink="http://www.w3.org/1999/xlink">
<g id="graph0" class="graph" transform="scale(1 1) rotate(0) translate(4 304)">
<title>game_helper.h</title>
<!-- Node1 -->
<g id="node1" class="node">
<title>Node1</title>
<g id="a_node1"><a xlink:title=" ">
<polygon fill="#bfbfbf" stroke="#000000" points="206,-280.5 206,-299.5 287,-299.5 287,-280.5 206,-280.5"/>
<text text-anchor="middle" x="246.5" y="-287.5" font-family="Helvetica" font-size="10.00" fill="#000000">game_helper.h</text>
</a>
</g>
</g>
<!-- Node2 -->
<g id="node2" class="node">
<title>Node2</title>
<g id="a_node2"><a xlink:href="../../d2/d86/uart_8h.html" target="_top" xlink:title=" ">
<polygon fill="none" stroke="#000000" points="360.5,-112.5 360.5,-131.5 402.5,-131.5 402.5,-112.5 360.5,-112.5"/>
<text text-anchor="middle" x="381.5" y="-119.5" font-family="Helvetica" font-size="10.00" fill="#000000">uart.h</text>
</a>
</g>
</g>
<!-- Node1&#45;&gt;Node2 -->
<g id="edge1" class="edge">
<title>Node1&#45;&gt;Node2</title>
<path fill="none" stroke="#191970" d="M287.2512,-285.9637C317.8673,-280.9114 358.9322,-269.5468 385.5,-244 410.7602,-219.7106 415.1329,-201.9635 406.5,-168 404.0215,-158.2493 399.0127,-148.3309 394.1249,-140.2128"/>
<polygon fill="#191970" stroke="#191970" points="396.9556,-138.1437 388.6015,-131.6276 391.0687,-141.9312 396.9556,-138.1437"/>
</g>
<!-- Node4 -->
<g id="node4" class="node">
<title>Node4</title>
<g id="a_node4"><a xlink:href="../../d3/d62/player_8h.html" target="_top" xlink:title=" ">
<polygon fill="none" stroke="#000000" points="129.5,-168.5 129.5,-187.5 181.5,-187.5 181.5,-168.5 129.5,-168.5"/>
<text text-anchor="middle" x="155.5" y="-175.5" font-family="Helvetica" font-size="10.00" fill="#000000">player.h</text>
</a>
</g>
</g>
<!-- Node1&#45;&gt;Node4 -->
<g id="edge3" class="edge">
<title>Node1&#45;&gt;Node4</title>
<path fill="none" stroke="#191970" d="M205.7766,-282.035C184.5277,-275.5893 160.3444,-264.1313 147.5,-244 138.694,-230.1981 142.1024,-211.4287 146.8932,-197.4338"/>
<polygon fill="#191970" stroke="#191970" points="150.2687,-198.4119 150.6469,-187.8238 143.7484,-195.8651 150.2687,-198.4119"/>
</g>
<!-- Node9 -->
<g id="node9" class="node">
<title>Node9</title>
<g id="a_node9"><a xlink:href="../../da/d15/grid_8h.html" target="_top" xlink:title=" ">
<polygon fill="none" stroke="#000000" points="70,-168.5 70,-187.5 111,-187.5 111,-168.5 70,-168.5"/>
<text text-anchor="middle" x="90.5" y="-175.5" font-family="Helvetica" font-size="10.00" fill="#000000">grid.h</text>
</a>
</g>
</g>
<!-- Node1&#45;&gt;Node9 -->
<g id="edge11" class="edge">
<title>Node1&#45;&gt;Node9</title>
<path fill="none" stroke="#191970" d="M211.6012,-280.4509C189.0959,-273.0781 160.1051,-261.1987 138.5,-244 122.2884,-231.0948 108.934,-211.3943 100.4632,-196.8745"/>
<polygon fill="#191970" stroke="#191970" points="103.3297,-194.8282 95.404,-187.7973 97.2153,-198.2362 103.3297,-194.8282"/>
</g>
<!-- Node10 -->
<g id="node10" class="node">
<title>Node10</title>
<g id="a_node10"><a xlink:href="../../da/d6a/i8042_8h.html" target="_top" xlink:title=" ">
<polygon fill="none" stroke="#000000" points="274.5,-224.5 274.5,-243.5 322.5,-243.5 322.5,-224.5 274.5,-224.5"/>
<text text-anchor="middle" x="298.5" y="-231.5" font-family="Helvetica" font-size="10.00" fill="#000000">i8042.h</text>
</a>
</g>
</g>
<!-- Node1&#45;&gt;Node10 -->
<g id="edge13" class="edge">
<title>Node1&#45;&gt;Node10</title>
<path fill="none" stroke="#191970" d="M255.5577,-280.2455C263.0142,-272.2155 273.7634,-260.6394 282.6417,-251.0781"/>
<polygon fill="#191970" stroke="#191970" points="285.3063,-253.3522 289.5461,-243.6427 280.1768,-248.589 285.3063,-253.3522"/>
</g>
<!-- Node12 -->
<g id="node12" class="node">
<title>Node12</title>
<g id="a_node12"><a xlink:href="../../dc/d1b/rtc_8h.html" target="_top" xlink:title=" ">
<polygon fill="none" stroke="#000000" points="340.5,-224.5 340.5,-243.5 376.5,-243.5 376.5,-224.5 340.5,-224.5"/>
<text text-anchor="middle" x="358.5" y="-231.5" font-family="Helvetica" font-size="10.00" fill="#000000">rtc.h</text>
</a>
</g>
</g>
<!-- Node1&#45;&gt;Node12 -->
<g id="edge16" class="edge">
<title>Node1&#45;&gt;Node12</title>
<path fill="none" stroke="#191970" d="M265.7535,-280.3733C283.7871,-271.3564 310.9233,-257.7883 331.1905,-247.6548"/>
<polygon fill="#191970" stroke="#191970" points="332.8604,-250.733 340.2394,-243.1303 329.7298,-244.472 332.8604,-250.733"/>
</g>
<!-- Node13 -->
<g id="node13" class="node">
<title>Node13</title>
<g id="a_node13"><a xlink:href="../../d6/d4f/enemies_8h.html" target="_top" xlink:title=" ">
<polygon fill="none" stroke="#000000" points="200,-168.5 200,-187.5 261,-187.5 261,-168.5 200,-168.5"/>
<text text-anchor="middle" x="230.5" y="-175.5" font-family="Helvetica" font-size="10.00" fill="#000000">enemies.h</text>
</a>
</g>
</g>
<!-- Node1&#45;&gt;Node13 -->
<g id="edge18" class="edge">
<title>Node1&#45;&gt;Node13</title>
<path fill="none" stroke="#191970" d="M245.1358,-280.4509C242.5263,-262.184 236.7793,-221.9553 233.3139,-197.6976"/>
<polygon fill="#191970" stroke="#191970" points="236.7398,-196.9294 231.8607,-187.5249 229.8102,-197.9194 236.7398,-196.9294"/>
</g>
<!-- Node14 -->
<g id="node14" class="node">
<title>Node14</title>
<g id="a_node14"><a xlink:href="../../d7/d04/graphics_8h.html" target="_top" xlink:title=" ">
<polygon fill="none" stroke="#000000" points="157,-224.5 157,-243.5 218,-243.5 218,-224.5 157,-224.5"/>
<text text-anchor="middle" x="187.5" y="-231.5" font-family="Helvetica" font-size="10.00" fill="#000000">graphics.h</text>
</a>
</g>
</g>
<!-- Node1&#45;&gt;Node14 -->
<g id="edge21" class="edge">
<title>Node1&#45;&gt;Node14</title>
<path fill="none" stroke="#191970" d="M236.223,-280.2455C227.6782,-272.1352 215.3222,-260.4075 205.1915,-250.7919"/>
<polygon fill="#191970" stroke="#191970" points="207.3218,-247.9884 197.6592,-243.6427 202.5028,-253.0655 207.3218,-247.9884"/>
</g>
<!-- Node3 -->
<g id="node3" class="node">
<title>Node3</title>
<g id="a_node3"><a xlink:title=" ">
<polygon fill="none" stroke="#bfbfbf" points="205,-.5 205,-19.5 264,-19.5 264,-.5 205,-.5"/>
<text text-anchor="middle" x="234.5" y="-7.5" font-family="Helvetica" font-size="10.00" fill="#000000">lcom/lcf.h</text>
</a>
</g>
</g>
<!-- Node2&#45;&gt;Node3 -->
<g id="edge2" class="edge">
<title>Node2&#45;&gt;Node3</title>
<path fill="none" stroke="#191970" d="M370.7175,-112.1923C355.9584,-98.9284 328.4459,-74.773 303.5,-56 289.0126,-45.0975 272.0806,-33.7895 258.6153,-25.1134"/>
<polygon fill="#191970" stroke="#191970" points="260.2323,-21.9934 249.9196,-19.5647 256.4669,-27.8944 260.2323,-21.9934"/>
</g>
<!-- Node4&#45;&gt;Node3 -->
<g id="edge4" class="edge">
<title>Node4&#45;&gt;Node3</title>
<path fill="none" stroke="#191970" d="M164.8075,-168.492C173.0313,-159.657 184.8712,-145.8172 192.5,-132 211.1845,-98.1588 223.7638,-54.5039 229.9786,-29.6441"/>
<polygon fill="#191970" stroke="#191970" points="233.4473,-30.1889 232.3852,-19.6474 226.6418,-28.5505 233.4473,-30.1889"/>
</g>
<!-- Node5 -->
<g id="node5" class="node">
<title>Node5</title>
<g id="a_node5"><a xlink:href="../../dd/d5a/entities_8h.html" target="_top" xlink:title=" ">
<polygon fill="none" stroke="#000000" points="127.5,-112.5 127.5,-131.5 183.5,-131.5 183.5,-112.5 127.5,-112.5"/>
<text text-anchor="middle" x="155.5" y="-119.5" font-family="Helvetica" font-size="10.00" fill="#000000">entities.h</text>
</a>
</g>
</g>
<!-- Node4&#45;&gt;Node5 -->
<g id="edge5" class="edge">
<title>Node4&#45;&gt;Node5</title>
<path fill="none" stroke="#191970" d="M155.5,-168.2455C155.5,-160.9382 155.5,-150.6944 155.5,-141.7046"/>
<polygon fill="#191970" stroke="#191970" points="159.0001,-141.6426 155.5,-131.6427 152.0001,-141.6427 159.0001,-141.6426"/>
</g>
<!-- Node5&#45;&gt;Node3 -->
<g id="edge6" class="edge">
<title>Node5&#45;&gt;Node3</title>
<path fill="none" stroke="#191970" d="M161.3717,-112.4284C169.426,-99.4322 184.5004,-75.579 198.5,-56 205.3293,-46.449 213.3449,-36.128 220.0769,-27.6872"/>
<polygon fill="#191970" stroke="#191970" points="222.9771,-29.6661 226.5242,-19.6827 217.5256,-25.2751 222.9771,-29.6661"/>
</g>
<!-- Node6 -->
<g id="node6" class="node">
<title>Node6</title>
<g id="a_node6"><a xlink:href="../../d3/def/sprites_8h.html" target="_top" xlink:title=" ">
<polygon fill="none" stroke="#000000" points="60.5,-56.5 60.5,-75.5 146.5,-75.5 146.5,-56.5 60.5,-56.5"/>
<text text-anchor="middle" x="103.5" y="-63.5" font-family="Helvetica" font-size="10.00" fill="#000000">sprites/sprites.h</text>
</a>
</g>
</g>
<!-- Node5&#45;&gt;Node6 -->
<g id="edge7" class="edge">
<title>Node5&#45;&gt;Node6</title>
<path fill="none" stroke="#191970" d="M146.4423,-112.2455C138.9858,-104.2155 128.2366,-92.6394 119.3583,-83.0781"/>
<polygon fill="#191970" stroke="#191970" points="121.8232,-80.589 112.4539,-75.6427 116.6937,-85.3522 121.8232,-80.589"/>
</g>
<!-- Node6&#45;&gt;Node3 -->
<g id="edge8" class="edge">
<title>Node6&#45;&gt;Node3</title>
<path fill="none" stroke="#191970" d="M126.0197,-56.3733C147.2372,-47.3032 179.2276,-33.6279 202.9769,-23.4755"/>
<polygon fill="#191970" stroke="#191970" points="204.4548,-26.6502 212.2742,-19.5011 201.7033,-20.2136 204.4548,-26.6502"/>
</g>
<!-- Node7 -->
<g id="node7" class="node">
<title>Node7</title>
<g id="a_node7"><a xlink:title=" ">
<polygon fill="none" stroke="#bfbfbf" points="0,-.5 0,-19.5 69,-19.5 69,-.5 0,-.5"/>
<text text-anchor="middle" x="34.5" y="-7.5" font-family="Helvetica" font-size="10.00" fill="#000000">lcom/liblm.h</text>
</a>
</g>
</g>
<!-- Node6&#45;&gt;Node7 -->
<g id="edge9" class="edge">
<title>Node6&#45;&gt;Node7</title>
<path fill="none" stroke="#191970" d="M91.4811,-56.2455C81.2902,-47.9746 66.4638,-35.9416 54.4893,-26.2232"/>
<polygon fill="#191970" stroke="#191970" points="56.3514,-23.2268 46.3812,-19.6427 51.9402,-28.662 56.3514,-23.2268"/>
</g>
<!-- Node8 -->
<g id="node8" class="node">
<title>Node8</title>
<g id="a_node8"><a xlink:title=" ">
<polygon fill="none" stroke="#bfbfbf" points="87.5,-.5 87.5,-19.5 153.5,-19.5 153.5,-.5 87.5,-.5"/>
<text text-anchor="middle" x="120.5" y="-7.5" font-family="Helvetica" font-size="10.00" fill="#000000">lcom/proj.h</text>
</a>
</g>
</g>
<!-- Node6&#45;&gt;Node8 -->
<g id="edge10" class="edge">
<title>Node6&#45;&gt;Node8</title>
<path fill="none" stroke="#191970" d="M106.4612,-56.2455C108.7038,-48.8579 111.8577,-38.4689 114.6081,-29.4087"/>
<polygon fill="#191970" stroke="#191970" points="118.017,-30.2282 117.5728,-19.6427 111.3188,-28.1948 118.017,-30.2282"/>
</g>
<!-- Node9&#45;&gt;Node5 -->
<g id="edge12" class="edge">
<title>Node9&#45;&gt;Node5</title>
<path fill="none" stroke="#191970" d="M101.8221,-168.2455C111.4223,-159.9746 125.3892,-147.9416 136.6695,-138.2232"/>
<polygon fill="#191970" stroke="#191970" points="139.016,-140.8214 144.3076,-131.6427 134.447,-135.5182 139.016,-140.8214"/>
</g>
<!-- Node10&#45;&gt;Node3 -->
<g id="edge14" class="edge">
<title>Node10&#45;&gt;Node3</title>
<path fill="none" stroke="#191970" d="M295.75,-224.375C286.0261,-190.3415 253.1463,-75.262 239.9992,-29.247"/>
<polygon fill="#191970" stroke="#191970" points="243.3524,-28.2428 237.2398,-19.5891 236.6217,-30.1659 243.3524,-28.2428"/>
</g>
<!-- Node11 -->
<g id="node11" class="node">
<title>Node11</title>
<g id="a_node11"><a xlink:title=" ">
<polygon fill="none" stroke="#bfbfbf" points="318,-168.5 318,-187.5 397,-187.5 397,-168.5 318,-168.5"/>
<text text-anchor="middle" x="357.5" y="-175.5" font-family="Helvetica" font-size="10.00" fill="#000000">minix/sysutil.h</text>
</a>
</g>
</g>
<!-- Node10&#45;&gt;Node11 -->
<g id="edge15" class="edge">
<title>Node10&#45;&gt;Node11</title>
<path fill="none" stroke="#191970" d="M308.777,-224.2455C317.3218,-216.1352 329.6778,-204.4075 339.8085,-194.7919"/>
<polygon fill="#191970" stroke="#191970" points="342.4972,-197.0655 347.3408,-187.6427 337.6782,-191.9884 342.4972,-197.0655"/>
</g>
<!-- Node12&#45;&gt;Node11 -->
<g id="edge17" class="edge">
<title>Node12&#45;&gt;Node11</title>
<path fill="none" stroke="#191970" d="M358.3258,-224.2455C358.1953,-216.9382 358.0124,-206.6944 357.8519,-197.7046"/>
<polygon fill="#191970" stroke="#191970" points="361.3503,-197.5786 357.6722,-187.6427 354.3514,-197.7036 361.3503,-197.5786"/>
</g>
<!-- Node13&#45;&gt;Node3 -->
<g id="edge19" class="edge">
<title>Node13&#45;&gt;Node3</title>
<path fill="none" stroke="#191970" d="M230.7265,-168.4862C231.3588,-141.9293 233.1532,-66.5651 234.0199,-30.1655"/>
<polygon fill="#191970" stroke="#191970" points="237.5269,-29.9084 234.266,-19.8279 230.5289,-29.7417 237.5269,-29.9084"/>
</g>
<!-- Node13&#45;&gt;Node5 -->
<g id="edge20" class="edge">
<title>Node13&#45;&gt;Node5</title>
<path fill="none" stroke="#191970" d="M217.436,-168.2455C206.1438,-159.814 189.6155,-147.4729 176.4729,-137.6598"/>
<polygon fill="#191970" stroke="#191970" points="178.5211,-134.8211 168.4143,-131.6427 174.3331,-140.4301 178.5211,-134.8211"/>
</g>
<!-- Node14&#45;&gt;Node4 -->
<g id="edge22" class="edge">
<title>Node14&#45;&gt;Node4</title>
<path fill="none" stroke="#191970" d="M181.926,-224.2455C177.5669,-216.617 171.3789,-205.7881 166.0867,-196.5267"/>
<polygon fill="#191970" stroke="#191970" points="169.0104,-194.5886 161.0101,-187.6427 162.9327,-198.0616 169.0104,-194.5886"/>
</g>
<!-- Node14&#45;&gt;Node13 -->
<g id="edge23" class="edge">
<title>Node14&#45;&gt;Node13</title>
<path fill="none" stroke="#191970" d="M194.99,-224.2455C201.0326,-216.3761 209.6903,-205.101 216.9441,-195.6542"/>
<polygon fill="#191970" stroke="#191970" points="219.7815,-197.7058 223.0958,-187.6427 214.2295,-193.4426 219.7815,-197.7058"/>
</g>
</g>
</svg>
