<?xml version="1.0" encoding="UTF-8" standalone="no"?>
<!DOCTYPE svg PUBLIC "-//W3C//DTD SVG 1.1//EN"
 "http://www.w3.org/Graphics/SVG/1.1/DTD/svg11.dtd">
<!-- Generated by graphviz version 2.40.1 (20161225.0304)
 -->
<!-- Title: enemies.h Pages: 1 -->
<svg width="491pt" height="196pt"
 viewBox="0.00 0.00 490.50 196.00" xmlns="http://www.w3.org/2000/svg" xmlns:xlink="http://www.w3.org/1999/xlink">
<g id="graph0" class="graph" transform="scale(1 1) rotate(0) translate(4 192)">
<title>enemies.h</title>
<!-- Node1 -->
<g id="node1" class="node">
<title>Node1</title>
<g id="a_node1"><a xlink:title=" ">
<polygon fill="#bfbfbf" stroke="#000000" points="127.5,-168.5 127.5,-187.5 188.5,-187.5 188.5,-168.5 127.5,-168.5"/>
<text text-anchor="middle" x="158" y="-175.5" font-family="Helvetica" font-size="10.00" fill="#000000">enemies.h</text>
</a>
</g>
</g>
<!-- Node2 -->
<g id="node2" class="node">
<title>Node2</title>
<g id="a_node2"><a xlink:href="../../db/d6f/enemies_8c.html" target="_top" xlink:title=" ">
<polygon fill="none" stroke="#000000" points="3,-112.5 3,-131.5 63,-131.5 63,-112.5 3,-112.5"/>
<text text-anchor="middle" x="33" y="-119.5" font-family="Helvetica" font-size="10.00" fill="#000000">enemies.c</text>
</a>
</g>
</g>
<!-- Node1&#45;&gt;Node2 -->
<g id="edge1" class="edge">
<title>Node1&#45;&gt;Node2</title>
<path fill="none" stroke="#191970" d="M127.302,-164.2473C104.6007,-154.0771 74.2685,-140.4883 54.2079,-131.5011"/>
<polygon fill="#191970" stroke="#191970" points="125.9547,-167.4789 136.5117,-168.3733 128.8167,-161.0906 125.9547,-167.4789"/>
</g>
<!-- Node3 -->
<g id="node3" class="node">
<title>Node3</title>
<g id="a_node3"><a xlink:href="../../d7/d04/graphics_8h.html" target="_top" xlink:title=" ">
<polygon fill="none" stroke="#000000" points="157.5,-112.5 157.5,-131.5 218.5,-131.5 218.5,-112.5 157.5,-112.5"/>
<text text-anchor="middle" x="188" y="-119.5" font-family="Helvetica" font-size="10.00" fill="#000000">graphics.h</text>
</a>
</g>
</g>
<!-- Node1&#45;&gt;Node3 -->
<g id="edge2" class="edge">
<title>Node1&#45;&gt;Node3</title>
<path fill="none" stroke="#191970" d="M167.998,-159.3372C172.9676,-150.0605 178.7644,-139.2398 182.8343,-131.6427"/>
<polygon fill="#191970" stroke="#191970" points="164.8627,-157.7779 163.2256,-168.2455 171.0331,-161.0835 164.8627,-157.7779"/>
</g>
<!-- Node4 -->
<g id="node4" class="node">
<title>Node4</title>
<g id="a_node4"><a xlink:href="../../d5/d95/graphics_8c.html" target="_top" xlink:title=" ">
<polygon fill="none" stroke="#000000" points="0,-56.5 0,-75.5 60,-75.5 60,-56.5 0,-56.5"/>
<text text-anchor="middle" x="30" y="-63.5" font-family="Helvetica" font-size="10.00" fill="#000000">graphics.c</text>
</a>
</g>
</g>
<!-- Node1&#45;&gt;Node4 -->
<g id="edge11" class="edge">
<title>Node1&#45;&gt;Node4</title>
<path fill="none" stroke="#191970" d="M139.4529,-161.7713C112.3512,-138.0573 62.778,-94.6807 40.8856,-75.5249"/>
<polygon fill="#191970" stroke="#191970" points="137.2562,-164.4999 147.0868,-168.4509 141.8658,-159.2318 137.2562,-164.4999"/>
</g>
<!-- Node5 -->
<g id="node5" class="node">
<title>Node5</title>
<g id="a_node5"><a xlink:href="../../dd/d65/game__helper_8h.html" target="_top" xlink:title=" ">
<polygon fill="none" stroke="#000000" points="78.5,-56.5 78.5,-75.5 159.5,-75.5 159.5,-56.5 78.5,-56.5"/>
<text text-anchor="middle" x="119" y="-63.5" font-family="Helvetica" font-size="10.00" fill="#000000">game_helper.h</text>
</a>
</g>
</g>
<!-- Node1&#45;&gt;Node5 -->
<g id="edge12" class="edge">
<title>Node1&#45;&gt;Node5</title>
<path fill="none" stroke="#191970" d="M151.3579,-158.9253C142.9322,-134.7284 128.7283,-93.9376 122.3167,-75.5249"/>
<polygon fill="#191970" stroke="#191970" points="148.081,-160.1581 154.6749,-168.4509 154.6917,-157.8561 148.081,-160.1581"/>
</g>
<!-- Node7 -->
<g id="node7" class="node">
<title>Node7</title>
<g id="a_node7"><a xlink:href="../../df/def/_l_c_o_m_8c.html" target="_top" xlink:title=" ">
<polygon fill="none" stroke="#000000" points="170,-.5 170,-19.5 220,-19.5 220,-.5 170,-.5"/>
<text text-anchor="middle" x="195" y="-7.5" font-family="Helvetica" font-size="10.00" fill="#000000">LCOM.c</text>
</a>
</g>
</g>
<!-- Node1&#45;&gt;Node7 -->
<g id="edge13" class="edge">
<title>Node1&#45;&gt;Node7</title>
<path fill="none" stroke="#191970" d="M198.7201,-172.5702C251.0689,-163.1645 339.9775,-138.4335 380,-76 384.7971,-68.5167 385.4748,-63.0028 380,-56 360.4311,-30.9694 266.153,-17.6097 220.2371,-12.4943"/>
<polygon fill="#191970" stroke="#191970" points="198.0397,-169.1355 188.7631,-174.2536 199.2067,-176.0375 198.0397,-169.1355"/>
</g>
<!-- Node10 -->
<g id="node10" class="node">
<title>Node10</title>
<g id="a_node10"><a xlink:href="../../d5/df6/entities_8c.html" target="_top" xlink:title=" ">
<polygon fill="none" stroke="#000000" points="427.5,-112.5 427.5,-131.5 482.5,-131.5 482.5,-112.5 427.5,-112.5"/>
<text text-anchor="middle" x="455" y="-119.5" font-family="Helvetica" font-size="10.00" fill="#000000">entities.c</text>
</a>
</g>
</g>
<!-- Node1&#45;&gt;Node10 -->
<g id="edge10" class="edge">
<title>Node1&#45;&gt;Node10</title>
<path fill="none" stroke="#191970" d="M198.9005,-171.3381C249.3793,-162.9515 337.7702,-147.7288 413,-132 417.6956,-131.0183 422.6684,-129.9024 427.4863,-128.7808"/>
<polygon fill="#191970" stroke="#191970" points="198.0174,-167.9366 188.7227,-173.0217 199.1599,-174.8427 198.0174,-167.9366"/>
</g>
<!-- Node3&#45;&gt;Node4 -->
<g id="edge3" class="edge">
<title>Node3&#45;&gt;Node4</title>
<path fill="none" stroke="#191970" d="M151.1045,-108.9231C122.2213,-98.686 82.7294,-84.6889 56.8067,-75.5011"/>
<polygon fill="#191970" stroke="#191970" points="150.2441,-112.3314 160.8388,-112.3733 152.5826,-105.7336 150.2441,-112.3314"/>
</g>
<!-- Node3&#45;&gt;Node5 -->
<g id="edge4" class="edge">
<title>Node3&#45;&gt;Node5</title>
<path fill="none" stroke="#191970" d="M168.197,-105.928C156.1364,-96.1397 141.1286,-83.9595 130.8812,-75.6427"/>
<polygon fill="#191970" stroke="#191970" points="166.0109,-108.6614 175.9811,-112.2455 170.4221,-103.2262 166.0109,-108.6614"/>
</g>
<!-- Node3&#45;&gt;Node7 -->
<g id="edge8" class="edge">
<title>Node3&#45;&gt;Node7</title>
<path fill="none" stroke="#191970" d="M189.2331,-102.2702C190.7501,-77.9985 193.2642,-37.7725 194.4047,-19.5249"/>
<polygon fill="#191970" stroke="#191970" points="185.7275,-102.2521 188.5968,-112.4509 192.7139,-102.6888 185.7275,-102.2521"/>
</g>
<!-- Node8 -->
<g id="node8" class="node">
<title>Node8</title>
<g id="a_node8"><a xlink:href="../../d1/db8/player_8c.html" target="_top" xlink:title=" ">
<polygon fill="none" stroke="#000000" points="216.5,-56.5 216.5,-75.5 267.5,-75.5 267.5,-56.5 216.5,-56.5"/>
<text text-anchor="middle" x="242" y="-63.5" font-family="Helvetica" font-size="10.00" fill="#000000">player.c</text>
</a>
</g>
</g>
<!-- Node3&#45;&gt;Node8 -->
<g id="edge7" class="edge">
<title>Node3&#45;&gt;Node8</title>
<path fill="none" stroke="#191970" d="M204.5969,-104.7884C213.8347,-95.2085 224.9904,-83.6396 232.7017,-75.6427"/>
<polygon fill="#191970" stroke="#191970" points="201.828,-102.6176 197.4061,-112.2455 206.8669,-107.4766 201.828,-102.6176"/>
</g>
<!-- Node9 -->
<g id="node9" class="node">
<title>Node9</title>
<g id="a_node9"><a xlink:href="../../d7/dc7/sprites_8c.html" target="_top" xlink:title=" ">
<polygon fill="none" stroke="#000000" points="285.5,-56.5 285.5,-75.5 370.5,-75.5 370.5,-56.5 285.5,-56.5"/>
<text text-anchor="middle" x="328" y="-63.5" font-family="Helvetica" font-size="10.00" fill="#000000">sprites/sprites.c</text>
</a>
</g>
</g>
<!-- Node3&#45;&gt;Node9 -->
<g id="edge9" class="edge">
<title>Node3&#45;&gt;Node9</title>
<path fill="none" stroke="#191970" d="M221.3649,-108.6541C246.8952,-98.4419 281.4784,-84.6086 304.2472,-75.5011"/>
<polygon fill="#191970" stroke="#191970" points="220.0517,-105.4096 212.0669,-112.3733 222.6515,-111.909 220.0517,-105.4096"/>
</g>
<!-- Node6 -->
<g id="node6" class="node">
<title>Node6</title>
<g id="a_node6"><a xlink:href="../../d2/dba/game__helper_8c.html" target="_top" xlink:title=" ">
<polygon fill="none" stroke="#000000" points="72,-.5 72,-19.5 152,-19.5 152,-.5 72,-.5"/>
<text text-anchor="middle" x="112" y="-7.5" font-family="Helvetica" font-size="10.00" fill="#000000">game_helper.c</text>
</a>
</g>
</g>
<!-- Node5&#45;&gt;Node6 -->
<g id="edge5" class="edge">
<title>Node5&#45;&gt;Node6</title>
<path fill="none" stroke="#191970" d="M116.5197,-46.1575C115.3944,-37.155 114.115,-26.9199 113.2053,-19.6427"/>
<polygon fill="#191970" stroke="#191970" points="113.0673,-46.7569 117.7807,-56.2455 120.0132,-45.8886 113.0673,-46.7569"/>
</g>
<!-- Node5&#45;&gt;Node7 -->
<g id="edge6" class="edge">
<title>Node5&#45;&gt;Node7</title>
<path fill="none" stroke="#191970" d="M140.4297,-50.2097C153.7777,-40.3743 170.5179,-28.0394 181.9135,-19.6427"/>
<polygon fill="#191970" stroke="#191970" points="138.2126,-47.4958 132.2382,-56.2455 142.365,-53.1312 138.2126,-47.4958"/>
</g>
</g>
</svg>
