<?xml version="1.0" encoding="UTF-8" standalone="no"?>
<!DOCTYPE svg PUBLIC "-//W3C//DTD SVG 1.1//EN"
 "http://www.w3.org/Graphics/SVG/1.1/DTD/svg11.dtd">
<!-- Generated by graphviz version 2.40.1 (20161225.0304)
 -->
<!-- Title: enemies.h Pages: 1 -->
<svg width="569pt" height="196pt"
 viewBox="0.00 0.00 568.50 196.00" xmlns="http://www.w3.org/2000/svg" xmlns:xlink="http://www.w3.org/1999/xlink">
<g id="graph0" class="graph" transform="scale(1 1) rotate(0) translate(4 192)">
<title>enemies.h</title>
<!-- Node1 -->
<g id="node1" class="node">
<title>Node1</title>
<g id="a_node1"><a xlink:title=" ">
<polygon fill="#bfbfbf" stroke="#000000" points="289.5,-168.5 289.5,-187.5 350.5,-187.5 350.5,-168.5 289.5,-168.5"/>
<text text-anchor="middle" x="320" y="-175.5" font-family="Helvetica" font-size="10.00" fill="#000000">enemies.h</text>
</a>
</g>
</g>
<!-- Node2 -->
<g id="node2" class="node">
<title>Node2</title>
<g id="a_node2"><a xlink:href="../../d7/d04/graphics_8h.html" target="_top" xlink:title=" ">
<polygon fill="none" stroke="#000000" points="184.5,-112.5 184.5,-131.5 245.5,-131.5 245.5,-112.5 184.5,-112.5"/>
<text text-anchor="middle" x="215" y="-119.5" font-family="Helvetica" font-size="10.00" fill="#000000">graphics.h</text>
</a>
</g>
</g>
<!-- Node1&#45;&gt;Node2 -->
<g id="edge1" class="edge">
<title>Node1&#45;&gt;Node2</title>
<path fill="none" stroke="#191970" d="M292.7375,-163.46C273.9478,-153.4388 249.4987,-140.3993 233.08,-131.6427"/>
<polygon fill="#191970" stroke="#191970" points="291.2398,-166.6278 301.7104,-168.2455 294.5339,-160.4514 291.2398,-166.6278"/>
</g>
<!-- Node3 -->
<g id="node3" class="node">
<title>Node3</title>
<g id="a_node3"><a xlink:href="../../d5/d95/graphics_8c.html" target="_top" xlink:title=" ">
<polygon fill="none" stroke="#000000" points="0,-56.5 0,-75.5 60,-75.5 60,-56.5 0,-56.5"/>
<text text-anchor="middle" x="30" y="-63.5" font-family="Helvetica" font-size="10.00" fill="#000000">graphics.c</text>
</a>
</g>
</g>
<!-- Node1&#45;&gt;Node3 -->
<g id="edge11" class="edge">
<title>Node1&#45;&gt;Node3</title>
<path fill="none" stroke="#191970" d="M279.331,-169.8651C244.3252,-162.1914 192.8385,-149.2869 150,-132 110.0915,-115.8954 66.6289,-89.5708 44.5879,-75.5284"/>
<polygon fill="#191970" stroke="#191970" points="278.6794,-173.3049 289.1915,-171.9838 280.15,-166.4611 278.6794,-173.3049"/>
</g>
<!-- Node4 -->
<g id="node4" class="node">
<title>Node4</title>
<g id="a_node4"><a xlink:href="../../dd/d65/game__helper_8h.html" target="_top" xlink:title=" ">
<polygon fill="none" stroke="#000000" points="78.5,-56.5 78.5,-75.5 159.5,-75.5 159.5,-56.5 78.5,-56.5"/>
<text text-anchor="middle" x="119" y="-63.5" font-family="Helvetica" font-size="10.00" fill="#000000">game_helper.h</text>
</a>
</g>
</g>
<!-- Node1&#45;&gt;Node4 -->
<g id="edge12" class="edge">
<title>Node1&#45;&gt;Node4</title>
<path fill="none" stroke="#191970" d="M279.3299,-171.4152C248.6977,-165.0237 206.7041,-153.0989 175,-132 152.2316,-116.8478 133.5328,-89.8816 124.6251,-75.5579"/>
<polygon fill="#191970" stroke="#191970" points="278.7626,-174.8707 289.2514,-173.3759 280.1197,-168.0035 278.7626,-174.8707"/>
</g>
<!-- Node6 -->
<g id="node6" class="node">
<title>Node6</title>
<g id="a_node6"><a xlink:href="../../df/def/_l_c_o_m_8c.html" target="_top" xlink:title=" ">
<polygon fill="none" stroke="#000000" points="170,-.5 170,-19.5 220,-19.5 220,-.5 170,-.5"/>
<text text-anchor="middle" x="195" y="-7.5" font-family="Helvetica" font-size="10.00" fill="#000000">LCOM.c</text>
</a>
</g>
</g>
<!-- Node1&#45;&gt;Node6 -->
<g id="edge13" class="edge">
<title>Node1&#45;&gt;Node6</title>
<path fill="none" stroke="#191970" d="M339.0989,-161.4901C365.3112,-136.838 406.3496,-89.7037 380,-56 360.4311,-30.9694 266.153,-17.6097 220.2371,-12.4943"/>
<polygon fill="#191970" stroke="#191970" points="336.5699,-159.0593 331.5311,-168.3792 341.2821,-164.2357 336.5699,-159.0593"/>
</g>
<!-- Node9 -->
<g id="node9" class="node">
<title>Node9</title>
<g id="a_node9"><a xlink:href="../../db/d6f/enemies_8c.html" target="_top" xlink:title=" ">
<polygon fill="none" stroke="#000000" points="427,-112.5 427,-131.5 487,-131.5 487,-112.5 427,-112.5"/>
<text text-anchor="middle" x="457" y="-119.5" font-family="Helvetica" font-size="10.00" fill="#000000">enemies.c</text>
</a>
</g>
</g>
<!-- Node1&#45;&gt;Node9 -->
<g id="edge9" class="edge">
<title>Node1&#45;&gt;Node9</title>
<path fill="none" stroke="#191970" d="M352.9806,-164.5189C377.9311,-154.3201 411.5734,-140.5685 433.7562,-131.5011"/>
<polygon fill="#191970" stroke="#191970" points="351.4834,-161.3497 343.5511,-168.3733 354.132,-167.8293 351.4834,-161.3497"/>
</g>
<!-- Node10 -->
<g id="node10" class="node">
<title>Node10</title>
<g id="a_node10"><a xlink:href="../../d5/df6/entities_8c.html" target="_top" xlink:title=" ">
<polygon fill="none" stroke="#000000" points="505.5,-112.5 505.5,-131.5 560.5,-131.5 560.5,-112.5 505.5,-112.5"/>
<text text-anchor="middle" x="533" y="-119.5" font-family="Helvetica" font-size="10.00" fill="#000000">entities.c</text>
</a>
</g>
</g>
<!-- Node1&#45;&gt;Node10 -->
<g id="edge10" class="edge">
<title>Node1&#45;&gt;Node10</title>
<path fill="none" stroke="#191970" d="M360.5725,-167.498C396.2611,-158.2358 449.6076,-144.3316 496,-132 498.9582,-131.2137 502.0479,-130.3871 505.1263,-129.56"/>
<polygon fill="#191970" stroke="#191970" points="359.3446,-164.2006 350.5437,-170.0992 361.1021,-170.9764 359.3446,-164.2006"/>
</g>
<!-- Node2&#45;&gt;Node3 -->
<g id="edge2" class="edge">
<title>Node2&#45;&gt;Node3</title>
<path fill="none" stroke="#191970" d="M174.7035,-109.8021C140.2675,-99.3783 91.48,-84.6102 60.2869,-75.1679"/>
<polygon fill="#191970" stroke="#191970" points="173.8658,-113.2054 184.451,-112.7527 175.8939,-106.5056 173.8658,-113.2054"/>
</g>
<!-- Node2&#45;&gt;Node4 -->
<g id="edge3" class="edge">
<title>Node2&#45;&gt;Node4</title>
<path fill="none" stroke="#191970" d="M189.3654,-107.0465C172.2841,-97.0824 150.336,-84.2794 135.5303,-75.6427"/>
<polygon fill="#191970" stroke="#191970" points="187.8767,-110.23 198.2781,-112.2455 191.4038,-104.1836 187.8767,-110.23"/>
</g>
<!-- Node2&#45;&gt;Node6 -->
<g id="edge7" class="edge">
<title>Node2&#45;&gt;Node6</title>
<path fill="none" stroke="#191970" d="M211.5355,-102.5987C207.2077,-78.363 199.9741,-37.8551 196.7009,-19.5249"/>
<polygon fill="#191970" stroke="#191970" points="208.0913,-103.222 213.2948,-112.4509 214.9823,-101.9914 208.0913,-103.222"/>
</g>
<!-- Node7 -->
<g id="node7" class="node">
<title>Node7</title>
<g id="a_node7"><a xlink:href="../../d1/db8/player_8c.html" target="_top" xlink:title=" ">
<polygon fill="none" stroke="#000000" points="216.5,-56.5 216.5,-75.5 267.5,-75.5 267.5,-56.5 216.5,-56.5"/>
<text text-anchor="middle" x="242" y="-63.5" font-family="Helvetica" font-size="10.00" fill="#000000">player.c</text>
</a>
</g>
</g>
<!-- Node2&#45;&gt;Node7 -->
<g id="edge6" class="edge">
<title>Node2&#45;&gt;Node7</title>
<path fill="none" stroke="#191970" d="M224.1396,-103.0437C228.5805,-93.8331 233.7265,-83.1598 237.3509,-75.6427"/>
<polygon fill="#191970" stroke="#191970" points="220.8934,-101.7178 219.703,-112.2455 227.1988,-104.7579 220.8934,-101.7178"/>
</g>
<!-- Node8 -->
<g id="node8" class="node">
<title>Node8</title>
<g id="a_node8"><a xlink:href="../../d7/dc7/sprites_8c.html" target="_top" xlink:title=" ">
<polygon fill="none" stroke="#000000" points="285.5,-56.5 285.5,-75.5 370.5,-75.5 370.5,-56.5 285.5,-56.5"/>
<text text-anchor="middle" x="328" y="-63.5" font-family="Helvetica" font-size="10.00" fill="#000000">sprites/sprites.c</text>
</a>
</g>
</g>
<!-- Node2&#45;&gt;Node8 -->
<g id="edge8" class="edge">
<title>Node2&#45;&gt;Node8</title>
<path fill="none" stroke="#191970" d="M243.5792,-107.8368C264.0058,-97.7139 290.9362,-84.3679 308.8281,-75.5011"/>
<polygon fill="#191970" stroke="#191970" points="241.8313,-104.7968 234.4254,-112.3733 244.9396,-111.0688 241.8313,-104.7968"/>
</g>
<!-- Node5 -->
<g id="node5" class="node">
<title>Node5</title>
<g id="a_node5"><a xlink:href="../../d2/dba/game__helper_8c.html" target="_top" xlink:title=" ">
<polygon fill="none" stroke="#000000" points="72,-.5 72,-19.5 152,-19.5 152,-.5 72,-.5"/>
<text text-anchor="middle" x="112" y="-7.5" font-family="Helvetica" font-size="10.00" fill="#000000">game_helper.c</text>
</a>
</g>
</g>
<!-- Node4&#45;&gt;Node5 -->
<g id="edge4" class="edge">
<title>Node4&#45;&gt;Node5</title>
<path fill="none" stroke="#191970" d="M116.5197,-46.1575C115.3944,-37.155 114.115,-26.9199 113.2053,-19.6427"/>
<polygon fill="#191970" stroke="#191970" points="113.0673,-46.7569 117.7807,-56.2455 120.0132,-45.8886 113.0673,-46.7569"/>
</g>
<!-- Node4&#45;&gt;Node6 -->
<g id="edge5" class="edge">
<title>Node4&#45;&gt;Node6</title>
<path fill="none" stroke="#191970" d="M140.4297,-50.2097C153.7777,-40.3743 170.5179,-28.0394 181.9135,-19.6427"/>
<polygon fill="#191970" stroke="#191970" points="138.2126,-47.4958 132.2382,-56.2455 142.365,-53.1312 138.2126,-47.4958"/>
</g>
</g>
</svg>
