<?xml version="1.0" encoding="UTF-8" standalone="no"?>
<!DOCTYPE svg PUBLIC "-//W3C//DTD SVG 1.1//EN"
 "http://www.w3.org/Graphics/SVG/1.1/DTD/svg11.dtd">
<!-- Generated by graphviz version 2.40.1 (20161225.0304)
 -->
<!-- Title: generate_green_blob_sprites Pages: 1 -->
<svg width="249pt" height="66pt"
 viewBox="0.00 0.00 249.00 66.00" xmlns="http://www.w3.org/2000/svg" xmlns:xlink="http://www.w3.org/1999/xlink">
<g id="graph0" class="graph" transform="scale(1 1) rotate(0) translate(4 62)">
<title>generate_green_blob_sprites</title>
<!-- Node1 -->
<g id="node1" class="node">
<title>Node1</title>
<g id="a_node1"><a xlink:title="generates the green blob sprites">
<polygon fill="#bfbfbf" stroke="#000000" points="0,-14 0,-44 108,-44 108,-14 0,-14"/>
<text text-anchor="start" x="8" y="-32" font-family="Helvetica" font-size="10.00" fill="#000000">generate_green_blob</text>
<text text-anchor="middle" x="54" y="-21" font-family="Helvetica" font-size="10.00" fill="#000000">_sprites</text>
</a>
</g>
</g>
<!-- Node2 -->
<g id="node2" class="node">
<title>Node2</title>
<g id="a_node2"><a xlink:href="../../d7/dc7/sprites_8c.html#ac0e99b9f7235b18b249df2527ee3eebc" target="_top" xlink:title="Create a grid image object.">
<polygon fill="none" stroke="#000000" points="144,-38.5 144,-57.5 241,-57.5 241,-38.5 144,-38.5"/>
<text text-anchor="middle" x="192.5" y="-45.5" font-family="Helvetica" font-size="10.00" fill="#000000">create_grid_image</text>
</a>
</g>
</g>
<!-- Node1&#45;&gt;Node2 -->
<g id="edge1" class="edge">
<title>Node1&#45;&gt;Node2</title>
<path fill="none" stroke="#191970" d="M108.3414,-36.4548C116.6386,-37.593 125.2355,-38.7724 133.6246,-39.9232"/>
<polygon fill="#191970" stroke="#191970" points="133.3374,-43.4165 143.7203,-41.3082 134.2888,-36.4815 133.3374,-43.4165"/>
</g>
<!-- Node3 -->
<g id="node3" class="node">
<title>Node3</title>
<g id="a_node3"><a xlink:href="../../d5/d95/graphics_8c.html#aa94da1d9467049006badbe0db10e9ece" target="_top" xlink:title="Generates a struct containing all the information regarding a XPM in img.">
<polygon fill="none" stroke="#000000" points="159,-.5 159,-19.5 226,-19.5 226,-.5 159,-.5"/>
<text text-anchor="middle" x="192.5" y="-7.5" font-family="Helvetica" font-size="10.00" fill="#000000">file_to_xpm</text>
</a>
</g>
</g>
<!-- Node1&#45;&gt;Node3 -->
<g id="edge2" class="edge">
<title>Node1&#45;&gt;Node3</title>
<path fill="none" stroke="#191970" d="M108.3414,-21.5452C121.7362,-19.7077 135.9123,-17.7629 148.734,-16.004"/>
<polygon fill="#191970" stroke="#191970" points="149.254,-19.4655 158.6855,-14.6388 148.3026,-12.5305 149.254,-19.4655"/>
</g>
</g>
</svg>
