<?xml version="1.0" encoding="UTF-8" standalone="no"?>
<!DOCTYPE svg PUBLIC "-//W3C//DTD SVG 1.1//EN"
 "http://www.w3.org/Graphics/SVG/1.1/DTD/svg11.dtd">
<!-- Generated by graphviz version 2.40.1 (20161225.0304)
 -->
<!-- Title: generate_spearman_sprites Pages: 1 -->
<svg width="278pt" height="66pt"
 viewBox="0.00 0.00 278.00 66.00" xmlns="http://www.w3.org/2000/svg" xmlns:xlink="http://www.w3.org/1999/xlink">
<g id="graph0" class="graph" transform="scale(1 1) rotate(0) translate(4 62)">
<title>generate_spearman_sprites</title>
<!-- Node1 -->
<g id="node1" class="node">
<title>Node1</title>
<g id="a_node1"><a xlink:title="Generates the spearman sprites.">
<polygon fill="#bfbfbf" stroke="#000000" points="0,-19.5 0,-38.5 137,-38.5 137,-19.5 0,-19.5"/>
<text text-anchor="middle" x="68.5" y="-26.5" font-family="Helvetica" font-size="10.00" fill="#000000">generate_spearman_sprites</text>
</a>
</g>
</g>
<!-- Node2 -->
<g id="node2" class="node">
<title>Node2</title>
<g id="a_node2"><a xlink:href="../../d7/dc7/sprites_8c.html#ac0e99b9f7235b18b249df2527ee3eebc" target="_top" xlink:title="Create a grid image object.">
<polygon fill="none" stroke="#000000" points="173,-38.5 173,-57.5 270,-57.5 270,-38.5 173,-38.5"/>
<text text-anchor="middle" x="221.5" y="-45.5" font-family="Helvetica" font-size="10.00" fill="#000000">create_grid_image</text>
</a>
</g>
</g>
<!-- Node1&#45;&gt;Node2 -->
<g id="edge1" class="edge">
<title>Node1&#45;&gt;Node2</title>
<path fill="none" stroke="#191970" d="M137.3911,-37.5551C145.8495,-38.6055 154.4332,-39.6714 162.723,-40.7009"/>
<polygon fill="#191970" stroke="#191970" points="162.3058,-44.1759 172.661,-41.935 163.1685,-37.2292 162.3058,-44.1759"/>
</g>
<!-- Node3 -->
<g id="node3" class="node">
<title>Node3</title>
<g id="a_node3"><a xlink:href="../../d5/d95/graphics_8c.html#aa94da1d9467049006badbe0db10e9ece" target="_top" xlink:title="Generates a struct containing all the information regarding a XPM in img.">
<polygon fill="none" stroke="#000000" points="188,-.5 188,-19.5 255,-19.5 255,-.5 188,-.5"/>
<text text-anchor="middle" x="221.5" y="-7.5" font-family="Helvetica" font-size="10.00" fill="#000000">file_to_xpm</text>
</a>
</g>
</g>
<!-- Node1&#45;&gt;Node3 -->
<g id="edge2" class="edge">
<title>Node1&#45;&gt;Node3</title>
<path fill="none" stroke="#191970" d="M137.3911,-20.4449C151.0236,-18.752 164.9817,-17.0186 177.5105,-15.4627"/>
<polygon fill="#191970" stroke="#191970" points="178.1676,-18.9081 187.66,-14.2024 177.3049,-11.9615 178.1676,-18.9081"/>
</g>
</g>
</svg>
