<?xml version="1.0" encoding="UTF-8" standalone="no"?>
<!DOCTYPE svg PUBLIC "-//W3C//DTD SVG 1.1//EN"
 "http://www.w3.org/Graphics/SVG/1.1/DTD/svg11.dtd">
<!-- Generated by graphviz version 2.40.1 (20161225.0304)
 -->
<!-- Title: create_grid_image Pages: 1 -->
<svg width="397pt" height="78pt"
 viewBox="0.00 0.00 397.00 77.50" xmlns="http://www.w3.org/2000/svg" xmlns:xlink="http://www.w3.org/1999/xlink">
<g id="graph0" class="graph" transform="scale(1 1) rotate(0) translate(4 73.5)">
<title>create_grid_image</title>
<!-- Node1 -->
<g id="node1" class="node">
<title>Node1</title>
<g id="a_node1"><a xlink:title="Create a grid image object.">
<polygon fill="#bfbfbf" stroke="#000000" points="292,-22.5 292,-41.5 389,-41.5 389,-22.5 292,-22.5"/>
<text text-anchor="middle" x="340.5" y="-29.5" font-family="Helvetica" font-size="10.00" fill="#000000">create_grid_image</text>
</a>
</g>
</g>
<!-- Node2 -->
<g id="node2" class="node">
<title>Node2</title>
<g id="a_node2"><a xlink:href="../../d3/def/sprites_8h.html#a8aa200b91ad90efc6ac81569b804e070" target="_top" xlink:title="generates the green blob sprites">
<polygon fill="none" stroke="#000000" points="133.5,-39 133.5,-69 241.5,-69 241.5,-39 133.5,-39"/>
<text text-anchor="start" x="141.5" y="-57" font-family="Helvetica" font-size="10.00" fill="#000000">generate_green_blob</text>
<text text-anchor="middle" x="187.5" y="-46" font-family="Helvetica" font-size="10.00" fill="#000000">_sprites</text>
</a>
</g>
</g>
<!-- Node1&#45;&gt;Node2 -->
<g id="edge1" class="edge">
<title>Node1&#45;&gt;Node2</title>
<path fill="none" stroke="#191970" d="M281.7692,-40.4449C268.5971,-42.339 254.6809,-44.34 241.7028,-46.2061"/>
<polygon fill="#191970" stroke="#191970" points="282.2692,-43.9092 291.6692,-39.0214 281.2728,-36.9804 282.2692,-43.9092"/>
</g>
<!-- Node4 -->
<g id="node4" class="node">
<title>Node4</title>
<g id="a_node4"><a xlink:href="../../d3/def/sprites_8h.html#a48949e97396d2ead1a080a3bd88249ef" target="_top" xlink:title="Generates the spearman sprites.">
<polygon fill="none" stroke="#000000" points="119,-.5 119,-19.5 256,-19.5 256,-.5 119,-.5"/>
<text text-anchor="middle" x="187.5" y="-7.5" font-family="Helvetica" font-size="10.00" fill="#000000">generate_spearman_sprites</text>
</a>
</g>
</g>
<!-- Node1&#45;&gt;Node4 -->
<g id="edge3" class="edge">
<title>Node1&#45;&gt;Node4</title>
<path fill="none" stroke="#191970" d="M281.5606,-23.525C272.4487,-22.2149 262.9856,-20.8541 253.7269,-19.5228"/>
<polygon fill="#191970" stroke="#191970" points="281.2728,-27.0196 291.6692,-24.9786 282.2692,-20.0909 281.2728,-27.0196"/>
</g>
<!-- Node3 -->
<g id="node3" class="node">
<title>Node3</title>
<g id="a_node3"><a xlink:href="../../df/def/_l_c_o_m_8c.html#a2a16f651eccbd248e1ad3b3b924b143b" target="_top" xlink:title=" ">
<polygon fill="none" stroke="#000000" points="0,-22.5 0,-41.5 83,-41.5 83,-22.5 0,-22.5"/>
<text text-anchor="middle" x="41.5" y="-29.5" font-family="Helvetica" font-size="10.00" fill="#000000">proj_main_loop</text>
</a>
</g>
</g>
<!-- Node2&#45;&gt;Node3 -->
<g id="edge2" class="edge">
<title>Node2&#45;&gt;Node3</title>
<path fill="none" stroke="#191970" d="M122.9183,-44.2685C109.4181,-42.2342 95.5287,-40.1413 83.1301,-38.273"/>
<polygon fill="#191970" stroke="#191970" points="122.7251,-47.7788 133.135,-45.808 123.7682,-40.857 122.7251,-47.7788"/>
</g>
<!-- Node4&#45;&gt;Node3 -->
<g id="edge4" class="edge">
<title>Node4&#45;&gt;Node3</title>
<path fill="none" stroke="#191970" d="M114.177,-21.0487C103.5791,-22.6456 92.9904,-24.2412 83.3041,-25.7007"/>
<polygon fill="#191970" stroke="#191970" points="114.9446,-24.4726 124.3114,-19.5216 113.9015,-17.5507 114.9446,-24.4726"/>
</g>
</g>
</svg>
