<?xml version="1.0" encoding="UTF-8" standalone="no"?>
<!DOCTYPE svg PUBLIC "-//W3C//DTD SVG 1.1//EN"
 "http://www.w3.org/Graphics/SVG/1.1/DTD/svg11.dtd">
<!-- Generated by graphviz version 2.40.1 (20161225.0304)
 -->
<!-- Title: paint_grid Pages: 1 -->
<svg width="264pt" height="28pt"
 viewBox="0.00 0.00 264.00 28.00" xmlns="http://www.w3.org/2000/svg" xmlns:xlink="http://www.w3.org/1999/xlink">
<g id="graph0" class="graph" transform="scale(1 1) rotate(0) translate(4 24)">
<title>paint_grid</title>
<!-- Node1 -->
<g id="node1" class="node">
<title>Node1</title>
<g id="a_node1"><a xlink:title="Paints the entities of the game (playes, monsters, etc)">
<polygon fill="#bfbfbf" stroke="#000000" points="0,-.5 0,-19.5 59,-19.5 59,-.5 0,-.5"/>
<text text-anchor="middle" x="29.5" y="-7.5" font-family="Helvetica" font-size="10.00" fill="#000000">paint_grid</text>
</a>
</g>
</g>
<!-- Node2 -->
<g id="node2" class="node">
<title>Node2</title>
<g id="a_node2"><a xlink:href="../../d5/d95/graphics_8c.html#a6386a61a54c277c05a7ab9d5737edcd8" target="_top" xlink:title="Paints a XPM file in the screen at coordinates ( start_x , start_y )">
<polygon fill="none" stroke="#000000" points="95,-.5 95,-19.5 157,-19.5 157,-.5 95,-.5"/>
<text text-anchor="middle" x="126" y="-7.5" font-family="Helvetica" font-size="10.00" fill="#000000">paint_xpm</text>
</a>
</g>
</g>
<!-- Node1&#45;&gt;Node2 -->
<g id="edge1" class="edge">
<title>Node1&#45;&gt;Node2</title>
<path fill="none" stroke="#191970" d="M59.2406,-10C67.2723,-10 76.1104,-10 84.6538,-10"/>
<polygon fill="#191970" stroke="#191970" points="84.8545,-13.5001 94.8545,-10 84.8545,-6.5001 84.8545,-13.5001"/>
</g>
<!-- Node3 -->
<g id="node3" class="node">
<title>Node3</title>
<g id="a_node3"><a xlink:href="../../d5/d95/graphics_8c.html#ac8c3ed74f805c5bccd091d94f5d72242" target="_top" xlink:title="Paints a pixel in coordinates ( x , y ) with colour.">
<polygon fill="none" stroke="#000000" points="193,-.5 193,-19.5 256,-19.5 256,-.5 193,-.5"/>
<text text-anchor="middle" x="224.5" y="-7.5" font-family="Helvetica" font-size="10.00" fill="#000000">paint_pixel</text>
</a>
</g>
</g>
<!-- Node2&#45;&gt;Node3 -->
<g id="edge2" class="edge">
<title>Node2&#45;&gt;Node3</title>
<path fill="none" stroke="#191970" d="M157.166,-10C165.2601,-10 174.111,-10 182.6574,-10"/>
<polygon fill="#191970" stroke="#191970" points="182.8597,-13.5001 192.8597,-10 182.8597,-6.5001 182.8597,-13.5001"/>
</g>
</g>
</svg>
