<?xml version="1.0" encoding="UTF-8" standalone="no"?>
<!DOCTYPE svg PUBLIC "-//W3C//DTD SVG 1.1//EN"
 "http://www.w3.org/Graphics/SVG/1.1/DTD/svg11.dtd">
<!-- Generated by graphviz version 2.40.1 (20161225.0304)
 -->
<!-- Title: paint_xpm Pages: 1 -->
<svg width="801pt" height="331pt"
 viewBox="0.00 0.00 801.00 331.45" xmlns="http://www.w3.org/2000/svg" xmlns:xlink="http://www.w3.org/1999/xlink">
<g id="graph0" class="graph" transform="scale(1 1) rotate(0) translate(4 327.4478)">
<title>paint_xpm</title>
<!-- Node1 -->
<g id="node1" class="node">
<title>Node1</title>
<g id="a_node1"><a xlink:title="Paints a XPM file in the screen at coordinates ( start_x , start_y )">
<polygon fill="#bfbfbf" stroke="#000000" points="731,-155.1799 731,-174.1799 793,-174.1799 793,-155.1799 731,-155.1799"/>
<text text-anchor="middle" x="762" y="-162.1799" font-family="Helvetica" font-size="10.00" fill="#000000">paint_xpm</text>
</a>
</g>
</g>
<!-- Node2 -->
<g id="node2" class="node">
<title>Node2</title>
<g id="a_node2"><a xlink:href="../../d3/d62/player_8h.html#a909f31d95b754c4e0200dab6f3246d41" target="_top" xlink:title="Animates the spearman&#39;s special attack.">
<polygon fill="none" stroke="#000000" points="561,-250.1799 561,-269.1799 695,-269.1799 695,-250.1799 561,-250.1799"/>
<text text-anchor="middle" x="628" y="-257.1799" font-family="Helvetica" font-size="10.00" fill="#000000">animate_spearman_special</text>
</a>
</g>
</g>
<!-- Node1&#45;&gt;Node2 -->
<g id="edge1" class="edge">
<title>Node1&#45;&gt;Node2</title>
<path fill="none" stroke="#191970" d="M749.2683,-182.3231C736.9739,-198.2323 717.021,-221.2785 695,-235.6799 685.6934,-241.7663 674.6495,-246.5395 664.2402,-250.1706"/>
<polygon fill="#191970" stroke="#191970" points="752.072,-184.4181 755.2751,-174.319 746.4733,-180.2164 752.072,-184.4181"/>
</g>
<!-- Node5 -->
<g id="node5" class="node">
<title>Node5</title>
<g id="a_node5"><a xlink:href="../../dd/d65/game__helper_8h.html#ac2e814f8670e374692b399122563067d" target="_top" xlink:title="Performs all game logic and displaying that occurs every frame depending on the game state.">
<polygon fill="none" stroke="#000000" points="138.5,-155.1799 138.5,-174.1799 209.5,-174.1799 209.5,-155.1799 138.5,-155.1799"/>
<text text-anchor="middle" x="174" y="-162.1799" font-family="Helvetica" font-size="10.00" fill="#000000">on_timer_int</text>
</a>
</g>
</g>
<!-- Node1&#45;&gt;Node5 -->
<g id="edge11" class="edge">
<title>Node1&#45;&gt;Node5</title>
<path fill="none" stroke="#191970" d="M720.772,-164.6799C610.9161,-164.6799 312.5135,-164.6799 209.5203,-164.6799"/>
<polygon fill="#191970" stroke="#191970" points="720.8018,-168.18 730.8017,-164.6799 720.8017,-161.18 720.8018,-168.18"/>
</g>
<!-- Node7 -->
<g id="node7" class="node">
<title>Node7</title>
<g id="a_node7"><a xlink:href="../../d7/d04/graphics_8h.html#ae495df15c9dad2e1d052e15c6526423e" target="_top" xlink:title="Generates a new background (including UI background)">
<polygon fill="none" stroke="#000000" points="265,-288.1799 265,-307.1799 364,-307.1799 364,-288.1799 265,-288.1799"/>
<text text-anchor="middle" x="314.5" y="-295.1799" font-family="Helvetica" font-size="10.00" fill="#000000">create_background</text>
</a>
</g>
</g>
<!-- Node1&#45;&gt;Node7 -->
<g id="edge6" class="edge">
<title>Node1&#45;&gt;Node7</title>
<path fill="none" stroke="#191970" d="M756.9216,-183.8967C748.7773,-210.4433 730.032,-257.4575 695,-278.6799 586.8091,-344.2222 427.9082,-322.4393 354.4481,-307.2272"/>
<polygon fill="#191970" stroke="#191970" points="760.307,-184.788 759.6991,-174.2106 753.5782,-182.8585 760.307,-184.788"/>
</g>
<!-- Node10 -->
<g id="node10" class="node">
<title>Node10</title>
<g id="a_node10"><a xlink:href="../../d7/d04/graphics_8h.html#a9bd4de8619e4f311211cf1a97aee2464" target="_top" xlink:title="Prints the lateral walls of the game board.">
<polygon fill="none" stroke="#000000" points="400,-86.6799 400,-116.6799 525,-116.6799 525,-86.6799 400,-86.6799"/>
<text text-anchor="start" x="408" y="-104.6799" font-family="Helvetica" font-size="10.00" fill="#000000">paint_background_lateral</text>
<text text-anchor="middle" x="462.5" y="-93.6799" font-family="Helvetica" font-size="10.00" fill="#000000">_walls</text>
</a>
</g>
</g>
<!-- Node1&#45;&gt;Node10 -->
<g id="edge12" class="edge">
<title>Node1&#45;&gt;Node10</title>
<path fill="none" stroke="#191970" d="M737.5818,-150.2266C725.2191,-143.5471 709.7394,-136.1264 695,-131.6799 639.0855,-114.812 572.8019,-107.4282 525.343,-104.1961"/>
<polygon fill="#191970" stroke="#191970" points="735.9263,-153.3109 746.3641,-155.1284 739.3379,-147.1985 735.9263,-153.3109"/>
</g>
<!-- Node11 -->
<g id="node11" class="node">
<title>Node11</title>
<g id="a_node11"><a xlink:href="../../d7/d04/graphics_8h.html#a9aa917ce9e83c51b0b3d230345c4cefd" target="_top" xlink:title="Paints the Cursor.">
<polygon fill="none" stroke="#000000" points="279.5,-51.1799 279.5,-70.1799 349.5,-70.1799 349.5,-51.1799 279.5,-51.1799"/>
<text text-anchor="middle" x="314.5" y="-58.1799" font-family="Helvetica" font-size="10.00" fill="#000000">paint_cursor</text>
</a>
</g>
</g>
<!-- Node1&#45;&gt;Node11 -->
<g id="edge14" class="edge">
<title>Node1&#45;&gt;Node11</title>
<path fill="none" stroke="#191970" d="M748.1962,-147.0063C735.8811,-132.5859 716.5104,-112.9736 695,-102.6799 578.3983,-46.881 419.3352,-51.6261 349.6398,-57.1262"/>
<polygon fill="#191970" stroke="#191970" points="745.5397,-149.2864 754.5947,-154.7872 750.9464,-144.8403 745.5397,-149.2864"/>
</g>
<!-- Node12 -->
<g id="node12" class="node">
<title>Node12</title>
<g id="a_node12"><a xlink:href="../../d7/d04/graphics_8h.html#ab65f3f5dea52f13a56190f2bdaef5d63" target="_top" xlink:title="Paints the entities of the game (playes, monsters, etc)">
<polygon fill="none" stroke="#000000" points="598.5,-10.1799 598.5,-29.1799 657.5,-29.1799 657.5,-10.1799 598.5,-10.1799"/>
<text text-anchor="middle" x="628" y="-17.1799" font-family="Helvetica" font-size="10.00" fill="#000000">paint_grid</text>
</a>
</g>
</g>
<!-- Node1&#45;&gt;Node12 -->
<g id="edge16" class="edge">
<title>Node1&#45;&gt;Node12</title>
<path fill="none" stroke="#191970" d="M756.1303,-145.3298C747.1345,-118.8011 727.4813,-71.2914 695,-43.6799 684.4564,-34.7171 670.3142,-29.003 657.7403,-25.4105"/>
<polygon fill="#191970" stroke="#191970" points="752.8464,-146.5505 759.2474,-154.9932 759.5084,-144.4016 752.8464,-146.5505"/>
</g>
<!-- Node13 -->
<g id="node13" class="node">
<title>Node13</title>
<g id="a_node13"><a xlink:href="../../d7/d04/graphics_8h.html#ace731048796b4c75099bc7fa87d00908" target="_top" xlink:title="Paints in the screen s.">
<polygon fill="none" stroke="#000000" points="598.5,-174.1799 598.5,-193.1799 657.5,-193.1799 657.5,-174.1799 598.5,-174.1799"/>
<text text-anchor="middle" x="628" y="-181.1799" font-family="Helvetica" font-size="10.00" fill="#000000">paint_text</text>
</a>
</g>
</g>
<!-- Node1&#45;&gt;Node13 -->
<g id="edge18" class="edge">
<title>Node1&#45;&gt;Node13</title>
<path fill="none" stroke="#191970" d="M720.9147,-170.5055C700.4373,-173.409 676.1419,-176.8539 657.5313,-179.4927"/>
<polygon fill="#191970" stroke="#191970" points="721.5113,-173.956 730.9209,-169.0867 720.5285,-167.0253 721.5113,-173.956"/>
</g>
<!-- Node14 -->
<g id="node14" class="node">
<title>Node14</title>
<g id="a_node14"><a xlink:href="../../d7/d04/graphics_8h.html#a3fc4a889f36484e2d8a9624cac61df58" target="_top" xlink:title="Paints the UI elements to the screen.">
<polygon fill="none" stroke="#000000" points="436,-212.1799 436,-231.1799 489,-231.1799 489,-212.1799 436,-212.1799"/>
<text text-anchor="middle" x="462.5" y="-219.1799" font-family="Helvetica" font-size="10.00" fill="#000000">paint_UI</text>
</a>
</g>
</g>
<!-- Node1&#45;&gt;Node14 -->
<g id="edge22" class="edge">
<title>Node1&#45;&gt;Node14</title>
<path fill="none" stroke="#191970" d="M740.5135,-180.0678C727.8839,-188.2697 711.249,-197.6761 695,-202.6799 623.2014,-224.7902 533.3785,-224.834 489.351,-223.1812"/>
<polygon fill="#191970" stroke="#191970" points="742.6032,-182.8802 748.9392,-174.3887 738.6907,-177.0757 742.6032,-182.8802"/>
</g>
<!-- Node3 -->
<g id="node3" class="node">
<title>Node3</title>
<g id="a_node3"><a xlink:href="../../d3/d62/player_8h.html#a21201934ad44d6ccf7beb9ae2278dda7" target="_top" xlink:title="Animates the spearman according to its action.">
<polygon fill="none" stroke="#000000" points="413,-250.1799 413,-269.1799 512,-269.1799 512,-250.1799 413,-250.1799"/>
<text text-anchor="middle" x="462.5" y="-257.1799" font-family="Helvetica" font-size="10.00" fill="#000000">animate_spearman</text>
</a>
</g>
</g>
<!-- Node2&#45;&gt;Node3 -->
<g id="edge2" class="edge">
<title>Node2&#45;&gt;Node3</title>
<path fill="none" stroke="#191970" d="M550.3498,-259.6799C537.3877,-259.6799 524.2581,-259.6799 512.2396,-259.6799"/>
<polygon fill="#191970" stroke="#191970" points="550.6848,-263.18 560.6848,-259.6799 550.6848,-256.18 550.6848,-263.18"/>
</g>
<!-- Node4 -->
<g id="node4" class="node">
<title>Node4</title>
<g id="a_node4"><a xlink:href="../../dd/d5a/entities_8h.html#aeae621c58e08b754e9c212bee6d0f477" target="_top" xlink:title="Updates the animations of all Entities.">
<polygon fill="none" stroke="#000000" points="265.5,-250.1799 265.5,-269.1799 363.5,-269.1799 363.5,-250.1799 265.5,-250.1799"/>
<text text-anchor="middle" x="314.5" y="-257.1799" font-family="Helvetica" font-size="10.00" fill="#000000">update_animations</text>
</a>
</g>
</g>
<!-- Node3&#45;&gt;Node4 -->
<g id="edge3" class="edge">
<title>Node3&#45;&gt;Node4</title>
<path fill="none" stroke="#191970" d="M402.5707,-259.6799C389.608,-259.6799 376.0472,-259.6799 363.5594,-259.6799"/>
<polygon fill="#191970" stroke="#191970" points="402.8065,-263.18 412.8064,-259.6799 402.8064,-256.18 402.8065,-263.18"/>
</g>
<!-- Node4&#45;&gt;Node5 -->
<g id="edge4" class="edge">
<title>Node4&#45;&gt;Node5</title>
<path fill="none" stroke="#191970" d="M282.9515,-245.6214C276.8689,-242.5676 270.6394,-239.1921 265,-235.6799 234.0429,-216.4002 201.1086,-188.6482 184.6552,-174.215"/>
<polygon fill="#191970" stroke="#191970" points="281.7559,-248.9308 292.2828,-250.1289 284.8007,-242.6277 281.7559,-248.9308"/>
</g>
<!-- Node6 -->
<g id="node6" class="node">
<title>Node6</title>
<g id="a_node6"><a xlink:href="../../df/def/_l_c_o_m_8c.html#a2a16f651eccbd248e1ad3b3b924b143b" target="_top" xlink:title=" ">
<polygon fill="none" stroke="#000000" points="0,-250.1799 0,-269.1799 83,-269.1799 83,-250.1799 0,-250.1799"/>
<text text-anchor="middle" x="41.5" y="-257.1799" font-family="Helvetica" font-size="10.00" fill="#000000">proj_main_loop</text>
</a>
</g>
</g>
<!-- Node5&#45;&gt;Node6 -->
<g id="edge5" class="edge">
<title>Node5&#45;&gt;Node6</title>
<path fill="none" stroke="#191970" d="M152.0651,-180.4068C124.417,-200.23 77.7515,-233.6883 54.909,-250.0659"/>
<polygon fill="#191970" stroke="#191970" points="154.2317,-183.1602 160.3192,-174.4888 150.1528,-177.4713 154.2317,-183.1602"/>
</g>
<!-- Node8 -->
<g id="node8" class="node">
<title>Node8</title>
<g id="a_node8"><a xlink:href="../../dd/d65/game__helper_8h.html#a72c30bee155342f972c892a5a8d4a175" target="_top" xlink:title="Processes the input that comes from the mouse and executes the associated logic.">
<polygon fill="none" stroke="#000000" points="119,-250.1799 119,-269.1799 229,-269.1799 229,-250.1799 119,-250.1799"/>
<text text-anchor="middle" x="174" y="-257.1799" font-family="Helvetica" font-size="10.00" fill="#000000">process_mouse_input</text>
</a>
</g>
</g>
<!-- Node7&#45;&gt;Node8 -->
<g id="edge7" class="edge">
<title>Node7&#45;&gt;Node8</title>
<path fill="none" stroke="#191970" d="M269.2213,-285.4337C249.8551,-280.1959 227.5782,-274.1708 209.4427,-269.2659"/>
<polygon fill="#191970" stroke="#191970" points="268.4789,-288.8587 279.0459,-288.0909 270.3066,-282.1014 268.4789,-288.8587"/>
</g>
<!-- Node9 -->
<g id="node9" class="node">
<title>Node9</title>
<g id="a_node9"><a xlink:href="../../dd/d65/game__helper_8h.html#a03d9f7e90ecc6a670f43c0510bf272c0" target="_top" xlink:title="Processes the incoming packet from the UART (COM1) and executes the associated logic.">
<polygon fill="none" stroke="#000000" points="121,-288.1799 121,-307.1799 227,-307.1799 227,-288.1799 121,-288.1799"/>
<text text-anchor="middle" x="174" y="-295.1799" font-family="Helvetica" font-size="10.00" fill="#000000">process_uart_packet</text>
</a>
</g>
</g>
<!-- Node7&#45;&gt;Node9 -->
<g id="edge9" class="edge">
<title>Node7&#45;&gt;Node9</title>
<path fill="none" stroke="#191970" d="M254.8138,-297.6799C245.7017,-297.6799 236.3468,-297.6799 227.3816,-297.6799"/>
<polygon fill="#191970" stroke="#191970" points="254.965,-301.18 264.965,-297.6799 254.9649,-294.18 254.965,-301.18"/>
</g>
<!-- Node8&#45;&gt;Node6 -->
<g id="edge8" class="edge">
<title>Node8&#45;&gt;Node6</title>
<path fill="none" stroke="#191970" d="M108.7976,-259.6799C100.1014,-259.6799 91.3811,-259.6799 83.2363,-259.6799"/>
<polygon fill="#191970" stroke="#191970" points="108.9592,-263.18 118.9592,-259.6799 108.9591,-256.18 108.9592,-263.18"/>
</g>
<!-- Node9&#45;&gt;Node6 -->
<g id="edge10" class="edge">
<title>Node9&#45;&gt;Node6</title>
<path fill="none" stroke="#191970" d="M130.7961,-285.2894C112.6508,-280.0855 91.8706,-274.1258 74.9246,-269.2659"/>
<polygon fill="#191970" stroke="#191970" points="129.9873,-288.6984 140.5647,-288.0909 131.9171,-281.9697 129.9873,-288.6984"/>
</g>
<!-- Node10&#45;&gt;Node5 -->
<g id="edge13" class="edge">
<title>Node10&#45;&gt;Node5</title>
<path fill="none" stroke="#191970" d="M389.2646,-109.3116C351.7501,-114.0984 305.5516,-121.3549 265,-131.6799 241.06,-137.7754 214.6084,-147.7516 196.4233,-155.1419"/>
<polygon fill="#191970" stroke="#191970" points="390.1116,-112.7333 399.6034,-108.0264 389.248,-105.7868 390.1116,-112.7333"/>
</g>
<!-- Node11&#45;&gt;Node5 -->
<g id="edge15" class="edge">
<title>Node11&#45;&gt;Node5</title>
<path fill="none" stroke="#191970" d="M288.5219,-75.5059C280.8099,-80.1508 272.4393,-85.4383 265,-90.6799 234.7043,-112.0259 201.491,-140.4225 184.8209,-155.0557"/>
<polygon fill="#191970" stroke="#191970" points="290.3497,-78.4913 297.1772,-70.3897 286.7877,-72.4653 290.3497,-78.4913"/>
</g>
<!-- Node12&#45;&gt;Node5 -->
<g id="edge17" class="edge">
<title>Node12&#45;&gt;Node5</title>
<path fill="none" stroke="#191970" d="M588.2891,-11.7699C518.1984,.0565 370.0381,15.3188 265,-41.6799 217.1385,-67.6519 187.5764,-130.902 177.6972,-155.0724"/>
<polygon fill="#191970" stroke="#191970" points="587.9952,-15.2717 598.4498,-13.5538 589.2057,-8.3772 587.9952,-15.2717"/>
</g>
<!-- Node13&#45;&gt;Node5 -->
<g id="edge19" class="edge">
<title>Node13&#45;&gt;Node5</title>
<path fill="none" stroke="#191970" d="M588.1634,-182.0128C500.7516,-178.3546 293.2829,-169.672 209.7549,-166.1763"/>
<polygon fill="#191970" stroke="#191970" points="588.0742,-185.512 598.2118,-182.4333 588.3669,-178.5181 588.0742,-185.512"/>
</g>
<!-- Node13&#45;&gt;Node14 -->
<g id="edge20" class="edge">
<title>Node13&#45;&gt;Node14</title>
<path fill="none" stroke="#191970" d="M588.4517,-192.7605C557.7224,-199.8162 515.9471,-209.4081 489.099,-215.5726"/>
<polygon fill="#191970" stroke="#191970" points="589.4488,-196.1227 598.4119,-190.4736 587.8823,-189.3003 589.4488,-196.1227"/>
</g>
<!-- Node14&#45;&gt;Node5 -->
<g id="edge21" class="edge">
<title>Node14&#45;&gt;Node5</title>
<path fill="none" stroke="#191970" d="M425.8904,-219.7224C385.9082,-217.0099 320.2035,-210.8624 265,-197.6799 240.8083,-191.903 214.1734,-181.7761 196.0059,-174.2597"/>
<polygon fill="#191970" stroke="#191970" points="425.7631,-223.2213 435.967,-220.3698 426.212,-216.2357 425.7631,-223.2213"/>
</g>
</g>
</svg>
