<?xml version="1.0" encoding="UTF-8" standalone="no"?>
<!DOCTYPE svg PUBLIC "-//W3C//DTD SVG 1.1//EN"
 "http://www.w3.org/Graphics/SVG/1.1/DTD/svg11.dtd">
<!-- Generated by graphviz version 2.40.1 (20161225.0304)
 -->
<!-- Title: utils.h Pages: 1 -->
<svg width="171pt" height="84pt"
 viewBox="0.00 0.00 171.00 84.00" xmlns="http://www.w3.org/2000/svg" xmlns:xlink="http://www.w3.org/1999/xlink">
<g id="graph0" class="graph" transform="scale(1 1) rotate(0) translate(4 80)">
<title>utils.h</title>
<!-- Node1 -->
<g id="node1" class="node">
<title>Node1</title>
<g id="a_node1"><a xlink:title=" ">
<polygon fill="#bfbfbf" stroke="#000000" points="57.5,-56.5 57.5,-75.5 99.5,-75.5 99.5,-56.5 57.5,-56.5"/>
<text text-anchor="middle" x="78.5" y="-63.5" font-family="Helvetica" font-size="10.00" fill="#000000">utils.h</text>
</a>
</g>
</g>
<!-- Node2 -->
<g id="node2" class="node">
<title>Node2</title>
<g id="a_node2"><a xlink:href="../../d4/dcc/rtc_8c.html" target="_top" xlink:title=" ">
<polygon fill="none" stroke="#000000" points="0,-.5 0,-19.5 35,-19.5 35,-.5 0,-.5"/>
<text text-anchor="middle" x="17.5" y="-7.5" font-family="Helvetica" font-size="10.00" fill="#000000">rtc.c</text>
</a>
</g>
</g>
<!-- Node1&#45;&gt;Node2 -->
<g id="edge1" class="edge">
<title>Node1&#45;&gt;Node2</title>
<path fill="none" stroke="#191970" d="M60.3751,-49.3607C49.822,-39.6727 36.8888,-27.7995 28.0036,-19.6427"/>
<polygon fill="#191970" stroke="#191970" points="58.1411,-52.0611 67.8746,-56.2455 62.875,-46.9045 58.1411,-52.0611"/>
</g>
<!-- Node3 -->
<g id="node3" class="node">
<title>Node3</title>
<g id="a_node3"><a xlink:href="../../df/def/_l_c_o_m_8c.html" target="_top" xlink:title=" ">
<polygon fill="none" stroke="#000000" points="53.5,-.5 53.5,-19.5 103.5,-19.5 103.5,-.5 53.5,-.5"/>
<text text-anchor="middle" x="78.5" y="-7.5" font-family="Helvetica" font-size="10.00" fill="#000000">LCOM.c</text>
</a>
</g>
</g>
<!-- Node1&#45;&gt;Node3 -->
<g id="edge2" class="edge">
<title>Node1&#45;&gt;Node3</title>
<path fill="none" stroke="#191970" d="M78.5,-46.1575C78.5,-37.155 78.5,-26.9199 78.5,-19.6427"/>
<polygon fill="#191970" stroke="#191970" points="75.0001,-46.2455 78.5,-56.2455 82.0001,-46.2456 75.0001,-46.2455"/>
</g>
<!-- Node4 -->
<g id="node4" class="node">
<title>Node4</title>
<g id="a_node4"><a xlink:href="../../d3/d91/utils_8c.html" target="_top" xlink:title=" ">
<polygon fill="none" stroke="#000000" points="122,-.5 122,-19.5 163,-19.5 163,-.5 122,-.5"/>
<text text-anchor="middle" x="142.5" y="-7.5" font-family="Helvetica" font-size="10.00" fill="#000000">utils.c</text>
</a>
</g>
</g>
<!-- Node1&#45;&gt;Node4 -->
<g id="edge3" class="edge">
<title>Node1&#45;&gt;Node4</title>
<path fill="none" stroke="#191970" d="M97.1914,-49.645C108.3219,-39.9058 122.0663,-27.8795 131.4798,-19.6427"/>
<polygon fill="#191970" stroke="#191970" points="94.869,-47.0264 89.6479,-56.2455 99.4785,-52.2945 94.869,-47.0264"/>
</g>
</g>
</svg>
