<?xml version="1.0" encoding="UTF-8" standalone="no"?>
<!DOCTYPE svg PUBLIC "-//W3C//DTD SVG 1.1//EN"
 "http://www.w3.org/Graphics/SVG/1.1/DTD/svg11.dtd">
<!-- Generated by graphviz version 2.40.1 (20161225.0304)
 -->
<!-- Title: entities.h Pages: 1 -->
<svg width="239pt" height="140pt"
 viewBox="0.00 0.00 238.50 140.00" xmlns="http://www.w3.org/2000/svg" xmlns:xlink="http://www.w3.org/1999/xlink">
<g id="graph0" class="graph" transform="scale(1 1) rotate(0) translate(4 136)">
<title>entities.h</title>
<!-- Node1 -->
<g id="node1" class="node">
<title>Node1</title>
<g id="a_node1"><a xlink:title=" ">
<polygon fill="#bfbfbf" stroke="#000000" points="41.5,-112.5 41.5,-131.5 97.5,-131.5 97.5,-112.5 41.5,-112.5"/>
<text text-anchor="middle" x="69.5" y="-119.5" font-family="Helvetica" font-size="10.00" fill="#000000">entities.h</text>
</a>
</g>
</g>
<!-- Node2 -->
<g id="node2" class="node">
<title>Node2</title>
<g id="a_node2"><a xlink:title=" ">
<polygon fill="none" stroke="#bfbfbf" points="0,-.5 0,-19.5 59,-19.5 59,-.5 0,-.5"/>
<text text-anchor="middle" x="29.5" y="-7.5" font-family="Helvetica" font-size="10.00" fill="#000000">lcom/lcf.h</text>
</a>
</g>
</g>
<!-- Node1&#45;&gt;Node2 -->
<g id="edge1" class="edge">
<title>Node1&#45;&gt;Node2</title>
<path fill="none" stroke="#191970" d="M66.0896,-112.4509C59.5067,-94.0186 44.9376,-53.2254 36.3011,-29.043"/>
<polygon fill="#191970" stroke="#191970" points="39.5613,-27.7651 32.9017,-19.5249 32.9691,-30.1195 39.5613,-27.7651"/>
</g>
<!-- Node3 -->
<g id="node3" class="node">
<title>Node3</title>
<g id="a_node3"><a xlink:href="../../d3/def/sprites_8h.html" target="_top" xlink:title=" ">
<polygon fill="none" stroke="#000000" points="65.5,-56.5 65.5,-75.5 151.5,-75.5 151.5,-56.5 65.5,-56.5"/>
<text text-anchor="middle" x="108.5" y="-63.5" font-family="Helvetica" font-size="10.00" fill="#000000">sprites/sprites.h</text>
</a>
</g>
</g>
<!-- Node1&#45;&gt;Node3 -->
<g id="edge2" class="edge">
<title>Node1&#45;&gt;Node3</title>
<path fill="none" stroke="#191970" d="M76.2933,-112.2455C81.7178,-104.4564 89.4661,-93.3308 96.0033,-83.9439"/>
<polygon fill="#191970" stroke="#191970" points="98.9417,-85.849 101.7846,-75.6427 93.1975,-81.8485 98.9417,-85.849"/>
</g>
<!-- Node3&#45;&gt;Node2 -->
<g id="edge3" class="edge">
<title>Node3&#45;&gt;Node2</title>
<path fill="none" stroke="#191970" d="M94.7393,-56.2455C82.8448,-47.814 65.435,-35.4729 51.5915,-25.6598"/>
<polygon fill="#191970" stroke="#191970" points="53.2854,-22.5704 43.1031,-19.6427 49.2372,-28.2811 53.2854,-22.5704"/>
</g>
<!-- Node4 -->
<g id="node4" class="node">
<title>Node4</title>
<g id="a_node4"><a xlink:title=" ">
<polygon fill="none" stroke="#bfbfbf" points="77,-.5 77,-19.5 146,-19.5 146,-.5 77,-.5"/>
<text text-anchor="middle" x="111.5" y="-7.5" font-family="Helvetica" font-size="10.00" fill="#000000">lcom/liblm.h</text>
</a>
</g>
</g>
<!-- Node3&#45;&gt;Node4 -->
<g id="edge4" class="edge">
<title>Node3&#45;&gt;Node4</title>
<path fill="none" stroke="#191970" d="M109.0226,-56.2455C109.414,-48.9382 109.9628,-38.6944 110.4444,-29.7046"/>
<polygon fill="#191970" stroke="#191970" points="113.9434,-29.8156 110.9834,-19.6427 106.9534,-29.4411 113.9434,-29.8156"/>
</g>
<!-- Node5 -->
<g id="node5" class="node">
<title>Node5</title>
<g id="a_node5"><a xlink:title=" ">
<polygon fill="none" stroke="#bfbfbf" points="164.5,-.5 164.5,-19.5 230.5,-19.5 230.5,-.5 164.5,-.5"/>
<text text-anchor="middle" x="197.5" y="-7.5" font-family="Helvetica" font-size="10.00" fill="#000000">lcom/proj.h</text>
</a>
</g>
</g>
<!-- Node3&#45;&gt;Node5 -->
<g id="edge5" class="edge">
<title>Node3&#45;&gt;Node5</title>
<path fill="none" stroke="#191970" d="M124.0026,-56.2455C137.658,-47.6534 157.7657,-35.0014 173.4989,-25.1018"/>
<polygon fill="#191970" stroke="#191970" points="175.5751,-27.9307 182.175,-19.6427 171.8471,-22.006 175.5751,-27.9307"/>
</g>
</g>
</svg>
