<?xml version="1.0" encoding="UTF-8" standalone="no"?>
<!DOCTYPE svg PUBLIC "-//W3C//DTD SVG 1.1//EN"
 "http://www.w3.org/Graphics/SVG/1.1/DTD/svg11.dtd">
<!-- Generated by graphviz version 2.40.1 (20161225.0304)
 -->
<!-- Title: Game Pages: 1 -->
<svg width="199pt" height="106pt"
 viewBox="0.00 0.00 198.50 106.00" xmlns="http://www.w3.org/2000/svg" xmlns:xlink="http://www.w3.org/1999/xlink">
<g id="graph0" class="graph" transform="scale(1 1) rotate(0) translate(4 102)">
<title>Game</title>
<!-- Node1 -->
<g id="node1" class="node">
<title>Node1</title>
<g id="a_node1"><a xlink:title="Struct that holds information on ALL the current game variables, excluding the grid.">
<polygon fill="#bfbfbf" stroke="#000000" points="63.5,-.5 63.5,-19.5 105.5,-19.5 105.5,-.5 63.5,-.5"/>
<text text-anchor="middle" x="84.5" y="-7.5" font-family="Helvetica" font-size="10.00" fill="#000000">Game</text>
</a>
</g>
</g>
<!-- Node2 -->
<g id="node2" class="node">
<title>Node2</title>
<g id="a_node2"><a xlink:href="../../dc/dc4/struct_entity.html" target="_top" xlink:title="Represents an Entity present in the game board.">
<polygon fill="none" stroke="#000000" points="0,-78.5 0,-97.5 41,-97.5 41,-78.5 0,-78.5"/>
<text text-anchor="middle" x="20.5" y="-85.5" font-family="Helvetica" font-size="10.00" fill="#000000">Entity</text>
</a>
</g>
</g>
<!-- Node2&#45;&gt;Node1 -->
<g id="edge1" class="edge">
<title>Node2&#45;&gt;Node1</title>
<path fill="none" stroke="#9a32cd" stroke-dasharray="5,2" d="M24.7562,-68.4104C27.6547,-58.4946 32.3057,-46.7404 39.5,-38 45.8154,-30.3273 54.8112,-24.1451 63.1018,-19.5613"/>
<polygon fill="#9a32cd" stroke="#9a32cd" points="21.3345,-67.6646 22.2614,-78.2188 28.1185,-69.3902 21.3345,-67.6646"/>
<text text-anchor="middle" x="60" y="-52" font-family="Helvetica" font-size="10.00" fill="#000000"> player_1</text>
<text text-anchor="middle" x="60" y="-41" font-family="Helvetica" font-size="10.00" fill="#000000">player_2</text>
</g>
<!-- Node3 -->
<g id="node3" class="node">
<title>Node3</title>
<g id="a_node3"><a xlink:href="../../d6/d2d/struct_cursor.html" target="_top" xlink:title="Game cursor.">
<polygon fill="none" stroke="#000000" points="62,-78.5 62,-97.5 107,-97.5 107,-78.5 62,-78.5"/>
<text text-anchor="middle" x="84.5" y="-85.5" font-family="Helvetica" font-size="10.00" fill="#000000">Cursor</text>
</a>
</g>
</g>
<!-- Node3&#45;&gt;Node1 -->
<g id="edge2" class="edge">
<title>Node3&#45;&gt;Node1</title>
<path fill="none" stroke="#9a32cd" stroke-dasharray="5,2" d="M84.5,-68.2866C84.5,-52.7395 84.5,-31.7276 84.5,-19.6426"/>
<polygon fill="#9a32cd" stroke="#9a32cd" points="81.0001,-68.4356 84.5,-78.4357 88.0001,-68.4357 81.0001,-68.4356"/>
<text text-anchor="middle" x="100" y="-46.5" font-family="Helvetica" font-size="10.00" fill="#000000"> cursor</text>
</g>
<!-- Node4 -->
<g id="node4" class="node">
<title>Node4</title>
<g id="a_node4"><a xlink:href="../../d3/d9b/struct_game_state.html" target="_top" xlink:title="Struct that holds information on current gamemode, menu and difficulty.">
<polygon fill="none" stroke="#000000" points="125.5,-78.5 125.5,-97.5 189.5,-97.5 189.5,-78.5 125.5,-78.5"/>
<text text-anchor="middle" x="157.5" y="-85.5" font-family="Helvetica" font-size="10.00" fill="#000000">GameState</text>
</a>
</g>
</g>
<!-- Node4&#45;&gt;Node1 -->
<g id="edge3" class="edge">
<title>Node4&#45;&gt;Node1</title>
<path fill="none" stroke="#9a32cd" stroke-dasharray="5,2" d="M145.4024,-69.9186C138.3829,-60.0151 129.0592,-47.8 119.5,-38 112.9797,-31.3155 104.8818,-24.7454 98.1179,-19.6512"/>
<polygon fill="#9a32cd" stroke="#9a32cd" points="142.5788,-71.9891 151.1418,-78.2281 148.3385,-68.0109 142.5788,-71.9891"/>
<text text-anchor="middle" x="163.5" y="-46.5" font-family="Helvetica" font-size="10.00" fill="#000000"> game_state</text>
</g>
</g>
</svg>
