<?xml version="1.0" encoding="UTF-8" standalone="no"?>
<!DOCTYPE svg PUBLIC "-//W3C//DTD SVG 1.1//EN"
 "http://www.w3.org/Graphics/SVG/1.1/DTD/svg11.dtd">
<!-- Generated by graphviz version 2.40.1 (20161225.0304)
 -->
<!-- Title: animate_green_blob Pages: 1 -->
<svg width="282pt" height="165pt"
 viewBox="0.00 0.00 282.00 164.50" xmlns="http://www.w3.org/2000/svg" xmlns:xlink="http://www.w3.org/1999/xlink">
<g id="graph0" class="graph" transform="scale(1 1) rotate(0) translate(4 160.5)">
<title>animate_green_blob</title>
<!-- Node1 -->
<g id="node1" class="node">
<title>Node1</title>
<g id="a_node1"><a xlink:title="Animates the green blobs depending on their current action.">
<polygon fill="#bfbfbf" stroke="#000000" points="0,-60.5 0,-79.5 104,-79.5 104,-60.5 0,-60.5"/>
<text text-anchor="middle" x="52" y="-67.5" font-family="Helvetica" font-size="10.00" fill="#000000">animate_green_blob</text>
</a>
</g>
</g>
<!-- Node2 -->
<g id="node2" class="node">
<title>Node2</title>
<g id="a_node2"><a xlink:href="../../db/d6f/enemies_8c.html#aef73587c39142a13b9548fd05228ef5a" target="_top" xlink:title="Animates the green blobs attacking.">
<polygon fill="none" stroke="#000000" points="155,-126 155,-156 259,-156 259,-126 155,-126"/>
<text text-anchor="start" x="163" y="-144" font-family="Helvetica" font-size="10.00" fill="#000000">animate_green_blob</text>
<text text-anchor="middle" x="207" y="-133" font-family="Helvetica" font-size="10.00" fill="#000000">_attack</text>
</a>
</g>
</g>
<!-- Node1&#45;&gt;Node2 -->
<g id="edge1" class="edge">
<title>Node1&#45;&gt;Node2</title>
<path fill="none" stroke="#191970" d="M68.1843,-79.5718C85.5714,-89.633 114.1902,-105.5588 140,-117 144.0488,-118.7948 148.2772,-120.5575 152.5557,-122.2618"/>
<polygon fill="#191970" stroke="#191970" points="151.3621,-125.5528 161.9516,-125.8898 153.8836,-119.0226 151.3621,-125.5528"/>
</g>
<!-- Node3 -->
<g id="node3" class="node">
<title>Node3</title>
<g id="a_node3"><a xlink:href="../../db/d6f/enemies_8c.html#ab6b97c3e7de640e218312f9a34ebba3d" target="_top" xlink:title="Animates the green blobs dying.">
<polygon fill="none" stroke="#000000" points="155,-77 155,-107 259,-107 259,-77 155,-77"/>
<text text-anchor="start" x="163" y="-95" font-family="Helvetica" font-size="10.00" fill="#000000">animate_green_blob</text>
<text text-anchor="middle" x="207" y="-84" font-family="Helvetica" font-size="10.00" fill="#000000">_death</text>
</a>
</g>
</g>
<!-- Node1&#45;&gt;Node3 -->
<g id="edge2" class="edge">
<title>Node1&#45;&gt;Node3</title>
<path fill="none" stroke="#191970" d="M104.0439,-77.3869C117.0794,-79.2371 131.1958,-81.2407 144.6748,-83.1538"/>
<polygon fill="#191970" stroke="#191970" points="144.4369,-86.6551 154.8296,-84.5952 145.4207,-79.7245 144.4369,-86.6551"/>
</g>
<!-- Node4 -->
<g id="node4" class="node">
<title>Node4</title>
<g id="a_node4"><a xlink:href="../../db/d6f/enemies_8c.html#a0a455a38e1bfcd3907f5b0ecd3dd5d8b" target="_top" xlink:title="Animates the green blobs idle state.">
<polygon fill="none" stroke="#000000" points="144.5,-38.5 144.5,-57.5 269.5,-57.5 269.5,-38.5 144.5,-38.5"/>
<text text-anchor="middle" x="207" y="-45.5" font-family="Helvetica" font-size="10.00" fill="#000000">animate_green_blob_idle</text>
</a>
</g>
</g>
<!-- Node1&#45;&gt;Node4 -->
<g id="edge3" class="edge">
<title>Node1&#45;&gt;Node4</title>
<path fill="none" stroke="#191970" d="M104.0439,-62.6131C113.7402,-61.2369 124.0344,-59.7758 134.2196,-58.3301"/>
<polygon fill="#191970" stroke="#191970" points="134.9333,-61.764 144.3422,-56.8934 133.9495,-54.8335 134.9333,-61.764"/>
</g>
<!-- Node5 -->
<g id="node5" class="node">
<title>Node5</title>
<g id="a_node5"><a xlink:href="../../db/d6f/enemies_8c.html#aacc94f7f60bb7d9d608e19f4802398de" target="_top" xlink:title="Animates the green blobs moving state.">
<polygon fill="none" stroke="#000000" points="140,-.5 140,-19.5 274,-19.5 274,-.5 140,-.5"/>
<text text-anchor="middle" x="207" y="-7.5" font-family="Helvetica" font-size="10.00" fill="#000000">animate_green_blob_move</text>
</a>
</g>
</g>
<!-- Node1&#45;&gt;Node5 -->
<g id="edge4" class="edge">
<title>Node1&#45;&gt;Node5</title>
<path fill="none" stroke="#191970" d="M70.1757,-60.4872C87.72,-51.557 115.199,-38.2268 140,-29 146.3193,-26.649 153.0647,-24.4207 159.7508,-22.3732"/>
<polygon fill="#191970" stroke="#191970" points="160.8484,-25.6985 169.4476,-19.5094 158.8657,-18.9852 160.8484,-25.6985"/>
</g>
</g>
</svg>
