<?xml version="1.0" encoding="UTF-8" standalone="no"?>
<!DOCTYPE svg PUBLIC "-//W3C//DTD SVG 1.1//EN"
 "http://www.w3.org/Graphics/SVG/1.1/DTD/svg11.dtd">
<!-- Generated by graphviz version 2.40.1 (20161225.0304)
 -->
<!-- Title: green_blob_act Pages: 1 -->
<svg width="457pt" height="28pt"
 viewBox="0.00 0.00 457.00 28.00" xmlns="http://www.w3.org/2000/svg" xmlns:xlink="http://www.w3.org/1999/xlink">
<g id="graph0" class="graph" transform="scale(1 1) rotate(0) translate(4 24)">
<title>green_blob_act</title>
<!-- Node1 -->
<g id="node1" class="node">
<title>Node1</title>
<g id="a_node1"><a xlink:title="Makes the blob act (move or attack)">
<polygon fill="#bfbfbf" stroke="#000000" points="366,-.5 366,-19.5 449,-19.5 449,-.5 366,-.5"/>
<text text-anchor="middle" x="407.5" y="-7.5" font-family="Helvetica" font-size="10.00" fill="#000000">green_blob_act</text>
</a>
</g>
</g>
<!-- Node2 -->
<g id="node2" class="node">
<title>Node2</title>
<g id="a_node2"><a xlink:href="../../d6/d4f/enemies_8h.html#a551793ac2170b5920afc6931f2beba65" target="_top" xlink:title="Moves every enemy in the grid.">
<polygon fill="none" stroke="#000000" points="226,-.5 226,-19.5 330,-19.5 330,-.5 226,-.5"/>
<text text-anchor="middle" x="278" y="-7.5" font-family="Helvetica" font-size="10.00" fill="#000000">grid_enemies_move</text>
</a>
</g>
</g>
<!-- Node1&#45;&gt;Node2 -->
<g id="edge1" class="edge">
<title>Node1&#45;&gt;Node2</title>
<path fill="none" stroke="#191970" d="M355.7046,-10C347.2598,-10 338.5085,-10 330.0575,-10"/>
<polygon fill="#191970" stroke="#191970" points="355.8126,-13.5001 365.8126,-10 355.8125,-6.5001 355.8126,-13.5001"/>
</g>
<!-- Node3 -->
<g id="node3" class="node">
<title>Node3</title>
<g id="a_node3"><a xlink:href="../../dd/d65/game__helper_8h.html#ac2e814f8670e374692b399122563067d" target="_top" xlink:title="Performs all game logic and displaying that occurs every frame depending on the game state.">
<polygon fill="none" stroke="#000000" points="119,-.5 119,-19.5 190,-19.5 190,-.5 119,-.5"/>
<text text-anchor="middle" x="154.5" y="-7.5" font-family="Helvetica" font-size="10.00" fill="#000000">on_timer_int</text>
</a>
</g>
</g>
<!-- Node2&#45;&gt;Node3 -->
<g id="edge2" class="edge">
<title>Node2&#45;&gt;Node3</title>
<path fill="none" stroke="#191970" d="M215.7821,-10C207.062,-10 198.3544,-10 190.3548,-10"/>
<polygon fill="#191970" stroke="#191970" points="215.9829,-13.5001 225.9828,-10 215.9828,-6.5001 215.9829,-13.5001"/>
</g>
<!-- Node4 -->
<g id="node4" class="node">
<title>Node4</title>
<g id="a_node4"><a xlink:href="../../df/def/_l_c_o_m_8c.html#a2a16f651eccbd248e1ad3b3b924b143b" target="_top" xlink:title=" ">
<polygon fill="none" stroke="#000000" points="0,-.5 0,-19.5 83,-19.5 83,-.5 0,-.5"/>
<text text-anchor="middle" x="41.5" y="-7.5" font-family="Helvetica" font-size="10.00" fill="#000000">proj_main_loop</text>
</a>
</g>
</g>
<!-- Node3&#45;&gt;Node4 -->
<g id="edge3" class="edge">
<title>Node3&#45;&gt;Node4</title>
<path fill="none" stroke="#191970" d="M108.7225,-10C100.3288,-10 91.6073,-10 83.3362,-10"/>
<polygon fill="#191970" stroke="#191970" points="108.7461,-13.5001 118.7461,-10 108.7461,-6.5001 108.7461,-13.5001"/>
</g>
</g>
</svg>
