<?xml version="1.0" encoding="UTF-8" standalone="no"?>
<!DOCTYPE svg PUBLIC "-//W3C//DTD SVG 1.1//EN"
 "http://www.w3.org/Graphics/SVG/1.1/DTD/svg11.dtd">
<!-- Generated by graphviz version 2.40.1 (20161225.0304)
 -->
<!-- Title: green_blob_act Pages: 1 -->
<svg width="216pt" height="66pt"
 viewBox="0.00 0.00 216.00 66.00" xmlns="http://www.w3.org/2000/svg" xmlns:xlink="http://www.w3.org/1999/xlink">
<g id="graph0" class="graph" transform="scale(1 1) rotate(0) translate(4 62)">
<title>green_blob_act</title>
<!-- Node1 -->
<g id="node1" class="node">
<title>Node1</title>
<g id="a_node1"><a xlink:title="Makes the blob act (move or attack)">
<polygon fill="#bfbfbf" stroke="#000000" points="0,-19.5 0,-38.5 83,-38.5 83,-19.5 0,-19.5"/>
<text text-anchor="middle" x="41.5" y="-26.5" font-family="Helvetica" font-size="10.00" fill="#000000">green_blob_act</text>
</a>
</g>
</g>
<!-- Node2 -->
<g id="node2" class="node">
<title>Node2</title>
<g id="a_node2"><a xlink:href="../../d5/df6/entities_8c.html#a7458b099aabee51298042e2edde9e2d8" target="_top" xlink:title="Modifies the HP of an Entity in position ( x , y ) by health_mod.">
<polygon fill="none" stroke="#000000" points="119,-38.5 119,-57.5 208,-57.5 208,-38.5 119,-38.5"/>
<text text-anchor="middle" x="163.5" y="-45.5" font-family="Helvetica" font-size="10.00" fill="#000000">grid_health_mod</text>
</a>
</g>
</g>
<!-- Node1&#45;&gt;Node2 -->
<g id="edge1" class="edge">
<title>Node1&#45;&gt;Node2</title>
<path fill="none" stroke="#191970" d="M83.1443,-35.4856C91.3802,-36.7682 100.1413,-38.1327 108.7355,-39.4711"/>
<polygon fill="#191970" stroke="#191970" points="108.2868,-42.9433 118.7064,-41.0239 109.3641,-36.0267 108.2868,-42.9433"/>
</g>
<!-- Node3 -->
<g id="node3" class="node">
<title>Node3</title>
<g id="a_node3"><a xlink:href="../../d5/df6/entities_8c.html#a525a3fe4f3a4d24d73ce258b817462d7" target="_top" xlink:title="Moves an entity from position ( curr_x , curr_y ) to postition ( new_x, new_y )">
<polygon fill="none" stroke="#000000" points="132.5,-.5 132.5,-19.5 194.5,-19.5 194.5,-.5 132.5,-.5"/>
<text text-anchor="middle" x="163.5" y="-7.5" font-family="Helvetica" font-size="10.00" fill="#000000">grid_move</text>
</a>
</g>
</g>
<!-- Node1&#45;&gt;Node3 -->
<g id="edge2" class="edge">
<title>Node1&#45;&gt;Node3</title>
<path fill="none" stroke="#191970" d="M83.1443,-22.5144C95.7635,-20.5491 109.6156,-18.3918 122.2114,-16.4302"/>
<polygon fill="#191970" stroke="#191970" points="123.0995,-19.8342 132.4418,-14.8369 122.0223,-12.9175 123.0995,-19.8342"/>
</g>
</g>
</svg>
