<?xml version="1.0" encoding="UTF-8" standalone="no"?>
<!DOCTYPE svg PUBLIC "-//W3C//DTD SVG 1.1//EN"
 "http://www.w3.org/Graphics/SVG/1.1/DTD/svg11.dtd">
<!-- Generated by graphviz version 2.40.1 (20161225.0304)
 -->
<!-- Title: mouse.h Pages: 1 -->
<svg width="164pt" height="140pt"
 viewBox="0.00 0.00 164.00 140.00" xmlns="http://www.w3.org/2000/svg" xmlns:xlink="http://www.w3.org/1999/xlink">
<g id="graph0" class="graph" transform="scale(1 1) rotate(0) translate(4 136)">
<title>mouse.h</title>
<!-- Node1 -->
<g id="node1" class="node">
<title>Node1</title>
<g id="a_node1"><a xlink:title=" ">
<polygon fill="#bfbfbf" stroke="#000000" points="29,-112.5 29,-131.5 82,-131.5 82,-112.5 29,-112.5"/>
<text text-anchor="middle" x="55.5" y="-119.5" font-family="Helvetica" font-size="10.00" fill="#000000">mouse.h</text>
</a>
</g>
</g>
<!-- Node2 -->
<g id="node2" class="node">
<title>Node2</title>
<g id="a_node2"><a xlink:title=" ">
<polygon fill="none" stroke="#bfbfbf" points="0,-.5 0,-19.5 59,-19.5 59,-.5 0,-.5"/>
<text text-anchor="middle" x="29.5" y="-7.5" font-family="Helvetica" font-size="10.00" fill="#000000">lcom/lcf.h</text>
</a>
</g>
</g>
<!-- Node1&#45;&gt;Node2 -->
<g id="edge1" class="edge">
<title>Node1&#45;&gt;Node2</title>
<path fill="none" stroke="#191970" d="M53.2833,-112.4509C49.0235,-94.1013 39.6193,-53.5908 33.9965,-29.3693"/>
<polygon fill="#191970" stroke="#191970" points="37.3818,-28.4744 31.7111,-19.5249 30.5632,-30.0573 37.3818,-28.4744"/>
</g>
<!-- Node3 -->
<g id="node3" class="node">
<title>Node3</title>
<g id="a_node3"><a xlink:href="../../da/d6a/i8042_8h.html" target="_top" xlink:title=" ">
<polygon fill="none" stroke="#000000" points="57.5,-56.5 57.5,-75.5 105.5,-75.5 105.5,-56.5 57.5,-56.5"/>
<text text-anchor="middle" x="81.5" y="-63.5" font-family="Helvetica" font-size="10.00" fill="#000000">i8042.h</text>
</a>
</g>
</g>
<!-- Node1&#45;&gt;Node3 -->
<g id="edge2" class="edge">
<title>Node1&#45;&gt;Node3</title>
<path fill="none" stroke="#191970" d="M60.0289,-112.2455C63.5334,-104.6973 68.4927,-94.0158 72.7623,-84.8197"/>
<polygon fill="#191970" stroke="#191970" points="75.9864,-86.1867 77.023,-75.6427 69.6373,-83.2389 75.9864,-86.1867"/>
</g>
<!-- Node3&#45;&gt;Node2 -->
<g id="edge3" class="edge">
<title>Node3&#45;&gt;Node2</title>
<path fill="none" stroke="#191970" d="M72.4423,-56.2455C64.9858,-48.2155 54.2366,-36.6394 45.3583,-27.0781"/>
<polygon fill="#191970" stroke="#191970" points="47.8232,-24.589 38.4539,-19.6427 42.6937,-29.3522 47.8232,-24.589"/>
</g>
<!-- Node4 -->
<g id="node4" class="node">
<title>Node4</title>
<g id="a_node4"><a xlink:title=" ">
<polygon fill="none" stroke="#bfbfbf" points="77,-.5 77,-19.5 156,-19.5 156,-.5 77,-.5"/>
<text text-anchor="middle" x="116.5" y="-7.5" font-family="Helvetica" font-size="10.00" fill="#000000">minix/sysutil.h</text>
</a>
</g>
</g>
<!-- Node3&#45;&gt;Node4 -->
<g id="edge4" class="edge">
<title>Node3&#45;&gt;Node4</title>
<path fill="none" stroke="#191970" d="M87.5965,-56.2455C92.4145,-48.5367 99.2751,-37.5598 105.1032,-28.2348"/>
<polygon fill="#191970" stroke="#191970" points="108.1413,-29.9777 110.4733,-19.6427 102.2053,-26.2677 108.1413,-29.9777"/>
</g>
</g>
</svg>
