<?xml version="1.0" encoding="UTF-8" standalone="no"?>
<!DOCTYPE svg PUBLIC "-//W3C//DTD SVG 1.1//EN"
 "http://www.w3.org/Graphics/SVG/1.1/DTD/svg11.dtd">
<!-- Generated by graphviz version 2.40.1 (20161225.0304)
 -->
<!-- Title: game_helper.h Pages: 1 -->
<svg width="156pt" height="84pt"
 viewBox="0.00 0.00 156.00 84.00" xmlns="http://www.w3.org/2000/svg" xmlns:xlink="http://www.w3.org/1999/xlink">
<g id="graph0" class="graph" transform="scale(1 1) rotate(0) translate(4 80)">
<title>game_helper.h</title>
<!-- Node1 -->
<g id="node1" class="node">
<title>Node1</title>
<g id="a_node1"><a xlink:title=" ">
<polygon fill="#bfbfbf" stroke="#000000" points="40.5,-56.5 40.5,-75.5 121.5,-75.5 121.5,-56.5 40.5,-56.5"/>
<text text-anchor="middle" x="81" y="-63.5" font-family="Helvetica" font-size="10.00" fill="#000000">game_helper.h</text>
</a>
</g>
</g>
<!-- Node2 -->
<g id="node2" class="node">
<title>Node2</title>
<g id="a_node2"><a xlink:href="../../d2/dba/game__helper_8c.html" target="_top" xlink:title=" ">
<polygon fill="none" stroke="#000000" points="0,-.5 0,-19.5 80,-19.5 80,-.5 0,-.5"/>
<text text-anchor="middle" x="40" y="-7.5" font-family="Helvetica" font-size="10.00" fill="#000000">game_helper.c</text>
</a>
</g>
</g>
<!-- Node1&#45;&gt;Node2 -->
<g id="edge1" class="edge">
<title>Node1&#45;&gt;Node2</title>
<path fill="none" stroke="#191970" d="M67.7636,-47.9209C60.8789,-38.5176 52.7391,-27.3997 47.0598,-19.6427"/>
<polygon fill="#191970" stroke="#191970" points="65.1269,-50.2445 73.8583,-56.2455 70.7749,-46.1093 65.1269,-50.2445"/>
</g>
<!-- Node3 -->
<g id="node3" class="node">
<title>Node3</title>
<g id="a_node3"><a xlink:href="../../df/def/_l_c_o_m_8c.html" target="_top" xlink:title=" ">
<polygon fill="none" stroke="#000000" points="98,-.5 98,-19.5 148,-19.5 148,-.5 98,-.5"/>
<text text-anchor="middle" x="123" y="-7.5" font-family="Helvetica" font-size="10.00" fill="#000000">LCOM.c</text>
</a>
</g>
</g>
<!-- Node1&#45;&gt;Node3 -->
<g id="edge2" class="edge">
<title>Node1&#45;&gt;Node3</title>
<path fill="none" stroke="#191970" d="M94.3416,-48.2112C101.4396,-38.7472 109.8903,-27.4797 115.768,-19.6427"/>
<polygon fill="#191970" stroke="#191970" points="91.5159,-46.1455 88.3158,-56.2455 97.1159,-50.3455 91.5159,-46.1455"/>
</g>
</g>
</svg>
