<?xml version="1.0" encoding="UTF-8" standalone="no"?>
<!DOCTYPE svg PUBLIC "-//W3C//DTD SVG 1.1//EN"
 "http://www.w3.org/Graphics/SVG/1.1/DTD/svg11.dtd">
<!-- Generated by graphviz version 2.40.1 (20161225.0304)
 -->
<!-- Title: kbc_write_command Pages: 1 -->
<svg width="388pt" height="28pt"
 viewBox="0.00 0.00 388.00 28.00" xmlns="http://www.w3.org/2000/svg" xmlns:xlink="http://www.w3.org/1999/xlink">
<g id="graph0" class="graph" transform="scale(1 1) rotate(0) translate(4 24)">
<title>kbc_write_command</title>
<!-- Node1 -->
<g id="node1" class="node">
<title>Node1</title>
<g id="a_node1"><a xlink:title="Writes cmd to the KBC.">
<polygon fill="#bfbfbf" stroke="#000000" points="274,-.5 274,-19.5 380,-19.5 380,-.5 274,-.5"/>
<text text-anchor="middle" x="327" y="-7.5" font-family="Helvetica" font-size="10.00" fill="#000000">kbc_write_command</text>
</a>
</g>
</g>
<!-- Node2 -->
<g id="node2" class="node">
<title>Node2</title>
<g id="a_node2"><a xlink:href="../../dc/ded/mouse_8h.html#a090c9bebd05709adc5de77ab5b26d7c3" target="_top" xlink:title="Writes cmd to the mouse.">
<polygon fill="none" stroke="#000000" points="119,-.5 119,-19.5 238,-19.5 238,-.5 119,-.5"/>
<text text-anchor="middle" x="178.5" y="-7.5" font-family="Helvetica" font-size="10.00" fill="#000000">mouse_write_command</text>
</a>
</g>
</g>
<!-- Node1&#45;&gt;Node2 -->
<g id="edge1" class="edge">
<title>Node1&#45;&gt;Node2</title>
<path fill="none" stroke="#191970" d="M263.6198,-10C255.1647,-10 246.5174,-10 238.1293,-10"/>
<polygon fill="#191970" stroke="#191970" points="263.8076,-13.5001 273.8075,-10 263.8075,-6.5001 263.8076,-13.5001"/>
</g>
<!-- Node3 -->
<g id="node3" class="node">
<title>Node3</title>
<g id="a_node3"><a xlink:href="../../df/def/_l_c_o_m_8c.html#a2a16f651eccbd248e1ad3b3b924b143b" target="_top" xlink:title=" ">
<polygon fill="none" stroke="#000000" points="0,-.5 0,-19.5 83,-19.5 83,-.5 0,-.5"/>
<text text-anchor="middle" x="41.5" y="-7.5" font-family="Helvetica" font-size="10.00" fill="#000000">proj_main_loop</text>
</a>
</g>
</g>
<!-- Node2&#45;&gt;Node3 -->
<g id="edge2" class="edge">
<title>Node2&#45;&gt;Node3</title>
<path fill="none" stroke="#191970" d="M108.6556,-10C99.9898,-10 91.3527,-10 83.2994,-10"/>
<polygon fill="#191970" stroke="#191970" points="108.8084,-13.5001 118.8083,-10 108.8083,-6.5001 108.8084,-13.5001"/>
</g>
</g>
</svg>
