<?xml version="1.0" encoding="UTF-8" standalone="no"?>
<!DOCTYPE svg PUBLIC "-//W3C//DTD SVG 1.1//EN"
 "http://www.w3.org/Graphics/SVG/1.1/DTD/svg11.dtd">
<!-- Generated by graphviz version 2.40.1 (20161225.0304)
 -->
<!-- Title: player.c Pages: 1 -->
<svg width="410pt" height="308pt"
 viewBox="0.00 0.00 409.50 308.00" xmlns="http://www.w3.org/2000/svg" xmlns:xlink="http://www.w3.org/1999/xlink">
<g id="graph0" class="graph" transform="scale(1 1) rotate(0) translate(4 304)">
<title>player.c</title>
<!-- Node1 -->
<g id="node1" class="node">
<title>Node1</title>
<g id="a_node1"><a xlink:title=" ">
<polygon fill="#bfbfbf" stroke="#000000" points="212.5,-280.5 212.5,-299.5 263.5,-299.5 263.5,-280.5 212.5,-280.5"/>
<text text-anchor="middle" x="238" y="-287.5" font-family="Helvetica" font-size="10.00" fill="#000000">player.c</text>
</a>
</g>
</g>
<!-- Node2 -->
<g id="node2" class="node">
<title>Node2</title>
<g id="a_node2"><a xlink:title=" ">
<polygon fill="none" stroke="#bfbfbf" points="46.5,-.5 46.5,-19.5 105.5,-19.5 105.5,-.5 46.5,-.5"/>
<text text-anchor="middle" x="76" y="-7.5" font-family="Helvetica" font-size="10.00" fill="#000000">lcom/lcf.h</text>
</a>
</g>
</g>
<!-- Node1&#45;&gt;Node2 -->
<g id="edge1" class="edge">
<title>Node1&#45;&gt;Node2</title>
<path fill="none" stroke="#191970" d="M212.0768,-283.6634C150.3924,-267.8309 0,-224.4651 0,-178 0,-178 0,-178 0,-122 0,-82.2361 33.2071,-46.1042 55.7208,-26.177"/>
<polygon fill="#191970" stroke="#191970" points="58.1079,-28.7412 63.4501,-19.5918 53.5683,-23.4128 58.1079,-28.7412"/>
</g>
<!-- Node3 -->
<g id="node3" class="node">
<title>Node3</title>
<g id="a_node3"><a xlink:title=" ">
<polygon fill="none" stroke="#bfbfbf" points="156.5,-.5 156.5,-19.5 225.5,-19.5 225.5,-.5 156.5,-.5"/>
<text text-anchor="middle" x="191" y="-7.5" font-family="Helvetica" font-size="10.00" fill="#000000">lcom/liblm.h</text>
</a>
</g>
</g>
<!-- Node1&#45;&gt;Node3 -->
<g id="edge2" class="edge">
<title>Node1&#45;&gt;Node3</title>
<path fill="none" stroke="#191970" d="M240.579,-280.4945C245.5561,-261.2857 256,-216.4032 256,-178 256,-178 256,-178 256,-122 256,-91.4754 252.5062,-82.2928 237,-56 230.4111,-44.8277 220.4764,-34.4219 211.5238,-26.3433"/>
<polygon fill="#191970" stroke="#191970" points="213.5682,-23.4853 203.7023,-19.6232 209.0064,-28.7948 213.5682,-23.4853"/>
</g>
<!-- Node4 -->
<g id="node4" class="node">
<title>Node4</title>
<g id="a_node4"><a xlink:title=" ">
<polygon fill="none" stroke="#bfbfbf" points="255,-.5 255,-19.5 321,-19.5 321,-.5 255,-.5"/>
<text text-anchor="middle" x="288" y="-7.5" font-family="Helvetica" font-size="10.00" fill="#000000">lcom/proj.h</text>
</a>
</g>
</g>
<!-- Node1&#45;&gt;Node4 -->
<g id="edge3" class="edge">
<title>Node1&#45;&gt;Node4</title>
<path fill="none" stroke="#191970" d="M246.75,-280.3262C262.5,-261.87 294,-219.7399 294,-178 294,-178 294,-178 294,-122 294,-89.6653 291.4755,-52.1547 289.7016,-29.7876"/>
<polygon fill="#191970" stroke="#191970" points="293.1698,-29.2576 288.8597,-19.5791 286.1935,-29.833 293.1698,-29.2576"/>
</g>
<!-- Node5 -->
<g id="node5" class="node">
<title>Node5</title>
<g id="a_node5"><a xlink:href="../../d3/d62/player_8h.html" target="_top" xlink:title=" ">
<polygon fill="none" stroke="#000000" points="126,-168.5 126,-187.5 178,-187.5 178,-168.5 126,-168.5"/>
<text text-anchor="middle" x="152" y="-175.5" font-family="Helvetica" font-size="10.00" fill="#000000">player.h</text>
</a>
</g>
</g>
<!-- Node1&#45;&gt;Node5 -->
<g id="edge4" class="edge">
<title>Node1&#45;&gt;Node5</title>
<path fill="none" stroke="#191970" d="M231.552,-280.4178C222.7144,-267.4095 206.1993,-243.5427 191,-224 183.4794,-214.3303 174.6869,-203.8909 167.356,-195.4052"/>
<polygon fill="#191970" stroke="#191970" points="169.8232,-192.9091 160.6134,-187.6716 164.5469,-197.5092 169.8232,-192.9091"/>
</g>
<!-- Node8 -->
<g id="node8" class="node">
<title>Node8</title>
<g id="a_node8"><a xlink:href="../../dc/d1b/rtc_8h.html" target="_top" xlink:title=" ">
<polygon fill="none" stroke="#000000" points="333,-224.5 333,-243.5 369,-243.5 369,-224.5 333,-224.5"/>
<text text-anchor="middle" x="351" y="-231.5" font-family="Helvetica" font-size="10.00" fill="#000000">rtc.h</text>
</a>
</g>
</g>
<!-- Node1&#45;&gt;Node8 -->
<g id="edge12" class="edge">
<title>Node1&#45;&gt;Node8</title>
<path fill="none" stroke="#191970" d="M257.4254,-280.3733C275.729,-271.3024 303.3268,-257.6257 323.8132,-247.4731"/>
<polygon fill="#191970" stroke="#191970" points="325.5405,-250.5234 332.9464,-242.9469 322.4322,-244.2513 325.5405,-250.5234"/>
</g>
<!-- Node10 -->
<g id="node10" class="node">
<title>Node10</title>
<g id="a_node10"><a xlink:href="../../d7/d04/graphics_8h.html" target="_top" xlink:title=" ">
<polygon fill="none" stroke="#000000" points="121.5,-224.5 121.5,-243.5 182.5,-243.5 182.5,-224.5 121.5,-224.5"/>
<text text-anchor="middle" x="152" y="-231.5" font-family="Helvetica" font-size="10.00" fill="#000000">graphics.h</text>
</a>
</g>
</g>
<!-- Node1&#45;&gt;Node10 -->
<g id="edge14" class="edge">
<title>Node1&#45;&gt;Node10</title>
<path fill="none" stroke="#191970" d="M223.0199,-280.2455C209.8249,-271.6534 190.3949,-259.0014 175.1921,-249.1018"/>
<polygon fill="#191970" stroke="#191970" points="177.0983,-246.1665 166.8084,-243.6427 173.2785,-252.0325 177.0983,-246.1665"/>
</g>
<!-- Node5&#45;&gt;Node2 -->
<g id="edge5" class="edge">
<title>Node5&#45;&gt;Node2</title>
<path fill="none" stroke="#191970" d="M149.5512,-168.3999C146.0922,-155.3714 139.2663,-131.4817 131,-112 118.1011,-81.6005 99.1323,-48.2511 87.1802,-28.232"/>
<polygon fill="#191970" stroke="#191970" points="90.1001,-26.2965 81.9338,-19.5466 84.1084,-29.9158 90.1001,-26.2965"/>
</g>
<!-- Node6 -->
<g id="node6" class="node">
<title>Node6</title>
<g id="a_node6"><a xlink:href="../../dd/d5a/entities_8h.html" target="_top" xlink:title=" ">
<polygon fill="none" stroke="#000000" points="66,-112.5 66,-131.5 122,-131.5 122,-112.5 66,-112.5"/>
<text text-anchor="middle" x="94" y="-119.5" font-family="Helvetica" font-size="10.00" fill="#000000">entities.h</text>
</a>
</g>
</g>
<!-- Node5&#45;&gt;Node6 -->
<g id="edge6" class="edge">
<title>Node5&#45;&gt;Node6</title>
<path fill="none" stroke="#191970" d="M141.8972,-168.2455C133.4972,-160.1352 121.3506,-148.4075 111.3916,-138.7919"/>
<polygon fill="#191970" stroke="#191970" points="113.6122,-136.0707 103.9871,-131.6427 108.75,-141.1066 113.6122,-136.0707"/>
</g>
<!-- Node6&#45;&gt;Node2 -->
<g id="edge7" class="edge">
<title>Node6&#45;&gt;Node2</title>
<path fill="none" stroke="#191970" d="M92.4653,-112.4509C89.5296,-94.184 83.0642,-53.9553 79.1657,-29.6976"/>
<polygon fill="#191970" stroke="#191970" points="82.5733,-28.8428 77.5308,-19.5249 75.662,-29.9536 82.5733,-28.8428"/>
</g>
<!-- Node7 -->
<g id="node7" class="node">
<title>Node7</title>
<g id="a_node7"><a xlink:href="../../d3/def/sprites_8h.html" target="_top" xlink:title=" ">
<polygon fill="none" stroke="#000000" points="142,-56.5 142,-75.5 228,-75.5 228,-56.5 142,-56.5"/>
<text text-anchor="middle" x="185" y="-63.5" font-family="Helvetica" font-size="10.00" fill="#000000">sprites/sprites.h</text>
</a>
</g>
</g>
<!-- Node6&#45;&gt;Node7 -->
<g id="edge8" class="edge">
<title>Node6&#45;&gt;Node7</title>
<path fill="none" stroke="#191970" d="M109.851,-112.2455C123.8132,-103.6534 144.3728,-91.0014 160.4596,-81.1018"/>
<polygon fill="#191970" stroke="#191970" points="162.6484,-83.8645 169.3307,-75.6427 158.9797,-77.9029 162.6484,-83.8645"/>
</g>
<!-- Node7&#45;&gt;Node2 -->
<g id="edge9" class="edge">
<title>Node7&#45;&gt;Node2</title>
<path fill="none" stroke="#191970" d="M166.0136,-56.2455C148.8208,-47.4125 123.2762,-34.2887 103.7868,-24.2758"/>
<polygon fill="#191970" stroke="#191970" points="105.263,-21.0993 94.7688,-19.6427 102.0641,-27.3257 105.263,-21.0993"/>
</g>
<!-- Node7&#45;&gt;Node3 -->
<g id="edge10" class="edge">
<title>Node7&#45;&gt;Node3</title>
<path fill="none" stroke="#191970" d="M186.0451,-56.2455C186.828,-48.9382 187.9256,-38.6944 188.8888,-29.7046"/>
<polygon fill="#191970" stroke="#191970" points="192.3815,-29.9587 189.9669,-19.6427 185.4214,-29.2129 192.3815,-29.9587"/>
</g>
<!-- Node7&#45;&gt;Node4 -->
<g id="edge11" class="edge">
<title>Node7&#45;&gt;Node4</title>
<path fill="none" stroke="#191970" d="M202.9412,-56.2455C219.04,-47.4928 242.8879,-34.527 261.2391,-24.5496"/>
<polygon fill="#191970" stroke="#191970" points="263.1507,-27.4942 270.2644,-19.6427 259.8071,-21.3444 263.1507,-27.4942"/>
</g>
<!-- Node9 -->
<g id="node9" class="node">
<title>Node9</title>
<g id="a_node9"><a xlink:title=" ">
<polygon fill="none" stroke="#bfbfbf" points="322.5,-168.5 322.5,-187.5 401.5,-187.5 401.5,-168.5 322.5,-168.5"/>
<text text-anchor="middle" x="362" y="-175.5" font-family="Helvetica" font-size="10.00" fill="#000000">minix/sysutil.h</text>
</a>
</g>
</g>
<!-- Node8&#45;&gt;Node9 -->
<g id="edge13" class="edge">
<title>Node8&#45;&gt;Node9</title>
<path fill="none" stroke="#191970" d="M352.9161,-224.2455C354.3514,-216.9382 356.3636,-206.6944 358.1295,-197.7046"/>
<polygon fill="#191970" stroke="#191970" points="361.6127,-198.1298 360.1059,-187.6427 354.744,-196.7805 361.6127,-198.1298"/>
</g>
<!-- Node10&#45;&gt;Node5 -->
<g id="edge15" class="edge">
<title>Node10&#45;&gt;Node5</title>
<path fill="none" stroke="#191970" d="M152,-224.2455C152,-216.9382 152,-206.6944 152,-197.7046"/>
<polygon fill="#191970" stroke="#191970" points="155.5001,-197.6426 152,-187.6427 148.5001,-197.6427 155.5001,-197.6426"/>
</g>
<!-- Node11 -->
<g id="node11" class="node">
<title>Node11</title>
<g id="a_node11"><a xlink:href="../../d6/d4f/enemies_8h.html" target="_top" xlink:title=" ">
<polygon fill="none" stroke="#000000" points="46.5,-168.5 46.5,-187.5 107.5,-187.5 107.5,-168.5 46.5,-168.5"/>
<text text-anchor="middle" x="77" y="-175.5" font-family="Helvetica" font-size="10.00" fill="#000000">enemies.h</text>
</a>
</g>
</g>
<!-- Node10&#45;&gt;Node11 -->
<g id="edge16" class="edge">
<title>Node10&#45;&gt;Node11</title>
<path fill="none" stroke="#191970" d="M138.936,-224.2455C127.6438,-215.814 111.1155,-203.4729 97.9729,-193.6598"/>
<polygon fill="#191970" stroke="#191970" points="100.0211,-190.8211 89.9143,-187.6427 95.8331,-196.4301 100.0211,-190.8211"/>
</g>
<!-- Node11&#45;&gt;Node2 -->
<g id="edge17" class="edge">
<title>Node11&#45;&gt;Node2</title>
<path fill="none" stroke="#191970" d="M71.3055,-168.1646C66.4137,-159.1092 59.7308,-145.1298 57,-132 49.5052,-95.9651 60.6115,-53.3857 68.7384,-29.2514"/>
<polygon fill="#191970" stroke="#191970" points="72.1351,-30.1452 72.1852,-19.5504 65.5391,-27.8015 72.1351,-30.1452"/>
</g>
<!-- Node11&#45;&gt;Node6 -->
<g id="edge18" class="edge">
<title>Node11&#45;&gt;Node6</title>
<path fill="none" stroke="#191970" d="M79.9612,-168.2455C82.2038,-160.8579 85.3577,-150.4689 88.1081,-141.4087"/>
<polygon fill="#191970" stroke="#191970" points="91.517,-142.2282 91.0728,-131.6427 84.8188,-140.1948 91.517,-142.2282"/>
</g>
</g>
</svg>
