<?xml version="1.0" encoding="UTF-8" standalone="no"?>
<!DOCTYPE svg PUBLIC "-//W3C//DTD SVG 1.1//EN"
 "http://www.w3.org/Graphics/SVG/1.1/DTD/svg11.dtd">
<!-- Generated by graphviz version 2.40.1 (20161225.0304)
 -->
<!-- Title: LCOM.c Pages: 1 -->
<svg width="982pt" height="364pt"
 viewBox="0.00 0.00 981.50 364.00" xmlns="http://www.w3.org/2000/svg" xmlns:xlink="http://www.w3.org/1999/xlink">
<g id="graph0" class="graph" transform="scale(1 1) rotate(0) translate(4 360)">
<title>LCOM.c</title>
<!-- Node1 -->
<g id="node1" class="node">
<title>Node1</title>
<g id="a_node1"><a xlink:title=" ">
<polygon fill="#bfbfbf" stroke="#000000" points="484,-336.5 484,-355.5 534,-355.5 534,-336.5 484,-336.5"/>
<text text-anchor="middle" x="509" y="-343.5" font-family="Helvetica" font-size="10.00" fill="#000000">LCOM.c</text>
</a>
</g>
</g>
<!-- Node2 -->
<g id="node2" class="node">
<title>Node2</title>
<g id="a_node2"><a xlink:title=" ">
<polygon fill="none" stroke="#bfbfbf" points="284.5,-.5 284.5,-19.5 343.5,-19.5 343.5,-.5 284.5,-.5"/>
<text text-anchor="middle" x="314" y="-7.5" font-family="Helvetica" font-size="10.00" fill="#000000">lcom/lcf.h</text>
</a>
</g>
</g>
<!-- Node1&#45;&gt;Node2 -->
<g id="edge1" class="edge">
<title>Node1&#45;&gt;Node2</title>
<path fill="none" stroke="#191970" d="M483.9812,-345.2494C403.4695,-342.5373 152.0276,-331.6735 78,-300 36.2493,-282.1365 0,-279.4117 0,-234 0,-234 0,-234 0,-122 0,-75.5625 38.972,-75.7507 81,-56 144.3149,-26.2456 226.0511,-15.7257 273.979,-12.0143"/>
<polygon fill="#191970" stroke="#191970" points="274.5242,-15.4844 284.2506,-11.2836 274.0275,-8.5021 274.5242,-15.4844"/>
</g>
<!-- Node3 -->
<g id="node3" class="node">
<title>Node3</title>
<g id="a_node3"><a xlink:title=" ">
<polygon fill="none" stroke="#bfbfbf" points="561.5,-.5 561.5,-19.5 630.5,-19.5 630.5,-.5 561.5,-.5"/>
<text text-anchor="middle" x="596" y="-7.5" font-family="Helvetica" font-size="10.00" fill="#000000">lcom/liblm.h</text>
</a>
</g>
</g>
<!-- Node1&#45;&gt;Node3 -->
<g id="edge2" class="edge">
<title>Node1&#45;&gt;Node3</title>
<path fill="none" stroke="#191970" d="M534.0997,-339.9242C577.272,-327.8075 661,-296.28 661,-234 661,-234 661,-234 661,-122 661,-91.4754 657.5062,-82.2928 642,-56 635.4111,-44.8277 625.4764,-34.4219 616.5238,-26.3433"/>
<polygon fill="#191970" stroke="#191970" points="618.5682,-23.4853 608.7023,-19.6232 614.0064,-28.7948 618.5682,-23.4853"/>
</g>
<!-- Node4 -->
<g id="node4" class="node">
<title>Node4</title>
<g id="a_node4"><a xlink:title=" ">
<polygon fill="none" stroke="#bfbfbf" points="660,-.5 660,-19.5 726,-19.5 726,-.5 660,-.5"/>
<text text-anchor="middle" x="693" y="-7.5" font-family="Helvetica" font-size="10.00" fill="#000000">lcom/proj.h</text>
</a>
</g>
</g>
<!-- Node1&#45;&gt;Node4 -->
<g id="edge3" class="edge">
<title>Node1&#45;&gt;Node4</title>
<path fill="none" stroke="#191970" d="M534.2305,-342.9744C585.9143,-335.2236 699,-309.6239 699,-234 699,-234 699,-234 699,-122 699,-89.6653 696.4755,-52.1547 694.7016,-29.7876"/>
<polygon fill="#191970" stroke="#191970" points="698.1698,-29.2576 693.8597,-19.5791 691.1935,-29.833 698.1698,-29.2576"/>
</g>
<!-- Node5 -->
<g id="node5" class="node">
<title>Node5</title>
<g id="a_node5"><a xlink:title=" ">
<polygon fill="none" stroke="#bfbfbf" points="727,-280.5 727,-299.5 783,-299.5 783,-280.5 727,-280.5"/>
<text text-anchor="middle" x="755" y="-287.5" font-family="Helvetica" font-size="10.00" fill="#000000">stdbool.h</text>
</a>
</g>
</g>
<!-- Node1&#45;&gt;Node5 -->
<g id="edge4" class="edge">
<title>Node1&#45;&gt;Node5</title>
<path fill="none" stroke="#191970" d="M534.1467,-340.4312C572.6778,-331.8755 648.6298,-314.92 713,-300 714.2733,-299.7049 715.568,-299.4036 716.8752,-299.0983"/>
<polygon fill="#191970" stroke="#191970" points="718.0644,-302.4141 726.9969,-296.7166 716.461,-295.6002 718.0644,-302.4141"/>
</g>
<!-- Node6 -->
<g id="node6" class="node">
<title>Node6</title>
<g id="a_node6"><a xlink:title=" ">
<polygon fill="none" stroke="#bfbfbf" points="801,-280.5 801,-299.5 849,-299.5 849,-280.5 801,-280.5"/>
<text text-anchor="middle" x="825" y="-287.5" font-family="Helvetica" font-size="10.00" fill="#000000">stdint.h</text>
</a>
</g>
</g>
<!-- Node1&#45;&gt;Node6 -->
<g id="edge5" class="edge">
<title>Node1&#45;&gt;Node6</title>
<path fill="none" stroke="#191970" d="M534.2038,-343.0481C582.3095,-337.1707 690.6436,-322.7661 790.9572,-299.9948"/>
<polygon fill="#191970" stroke="#191970" points="791.9907,-303.3485 800.9493,-297.6921 790.4187,-296.5272 791.9907,-303.3485"/>
</g>
<!-- Node7 -->
<g id="node7" class="node">
<title>Node7</title>
<g id="a_node7"><a xlink:href="../../dc/d1b/rtc_8h.html" target="_top" xlink:title=" ">
<polygon fill="none" stroke="#000000" points="306,-224.5 306,-243.5 342,-243.5 342,-224.5 306,-224.5"/>
<text text-anchor="middle" x="324" y="-231.5" font-family="Helvetica" font-size="10.00" fill="#000000">rtc.h</text>
</a>
</g>
</g>
<!-- Node1&#45;&gt;Node7 -->
<g id="edge6" class="edge">
<title>Node1&#45;&gt;Node7</title>
<path fill="none" stroke="#191970" d="M493.227,-336.4509C461.0059,-316.9441 387.4174,-272.3932 348.7617,-248.9909"/>
<polygon fill="#191970" stroke="#191970" points="350.1002,-245.7098 339.7331,-243.5249 346.4749,-251.6979 350.1002,-245.7098"/>
</g>
<!-- Node9 -->
<g id="node9" class="node">
<title>Node9</title>
<g id="a_node9"><a xlink:href="../../d3/d62/player_8h.html" target="_top" xlink:title=" ">
<polygon fill="none" stroke="#000000" points="365,-168.5 365,-187.5 417,-187.5 417,-168.5 365,-168.5"/>
<text text-anchor="middle" x="391" y="-175.5" font-family="Helvetica" font-size="10.00" fill="#000000">player.h</text>
</a>
</g>
</g>
<!-- Node1&#45;&gt;Node9 -->
<g id="edge8" class="edge">
<title>Node1&#45;&gt;Node9</title>
<path fill="none" stroke="#191970" d="M510.2293,-336.2917C512.5067,-313.9978 515.0126,-258.4166 489,-224 474.0315,-204.1956 448.4213,-192.582 427.1351,-185.9791"/>
<polygon fill="#191970" stroke="#191970" points="427.9829,-182.5814 417.4065,-183.2064 426.0642,-189.3134 427.9829,-182.5814"/>
</g>
<!-- Node10 -->
<g id="node10" class="node">
<title>Node10</title>
<g id="a_node10"><a xlink:href="../../dd/d5a/entities_8h.html" target="_top" xlink:title=" ">
<polygon fill="none" stroke="#000000" points="409,-112.5 409,-131.5 465,-131.5 465,-112.5 409,-112.5"/>
<text text-anchor="middle" x="437" y="-119.5" font-family="Helvetica" font-size="10.00" fill="#000000">entities.h</text>
</a>
</g>
</g>
<!-- Node1&#45;&gt;Node10 -->
<g id="edge27" class="edge">
<title>Node1&#45;&gt;Node10</title>
<path fill="none" stroke="#191970" d="M513.411,-336.3802C517.3419,-327.2426 522.8026,-313.0061 525,-300 526.4808,-291.2353 526.2329,-288.803 525,-280 521.4097,-254.3654 520.1769,-247.3474 509,-224 493.5909,-191.8121 468.2227,-158.8386 452.0781,-139.4026"/>
<polygon fill="#191970" stroke="#191970" points="454.7061,-137.0898 445.5788,-131.7098 449.3589,-141.6074 454.7061,-137.0898"/>
</g>
<!-- Node11 -->
<g id="node11" class="node">
<title>Node11</title>
<g id="a_node11"><a xlink:href="../../d3/def/sprites_8h.html" target="_top" xlink:title=" ">
<polygon fill="none" stroke="#000000" points="547,-56.5 547,-75.5 633,-75.5 633,-56.5 547,-56.5"/>
<text text-anchor="middle" x="590" y="-63.5" font-family="Helvetica" font-size="10.00" fill="#000000">sprites/sprites.h</text>
</a>
</g>
</g>
<!-- Node1&#45;&gt;Node11 -->
<g id="edge29" class="edge">
<title>Node1&#45;&gt;Node11</title>
<path fill="none" stroke="#191970" d="M531.251,-336.3895C564.4271,-320.3825 623,-284.9125 623,-234 623,-234 623,-234 623,-178 623,-144.051 608.8765,-106.5869 599.1089,-84.7366"/>
<polygon fill="#191970" stroke="#191970" points="602.2552,-83.202 594.8693,-75.6061 595.9063,-86.1501 602.2552,-83.202"/>
</g>
<!-- Node12 -->
<g id="node12" class="node">
<title>Node12</title>
<g id="a_node12"><a xlink:href="../../d7/d04/graphics_8h.html" target="_top" xlink:title=" ">
<polygon fill="none" stroke="#000000" points="360.5,-224.5 360.5,-243.5 421.5,-243.5 421.5,-224.5 360.5,-224.5"/>
<text text-anchor="middle" x="391" y="-231.5" font-family="Helvetica" font-size="10.00" fill="#000000">graphics.h</text>
</a>
</g>
</g>
<!-- Node1&#45;&gt;Node12 -->
<g id="edge16" class="edge">
<title>Node1&#45;&gt;Node12</title>
<path fill="none" stroke="#191970" d="M498.9394,-336.4509C478.823,-317.3574 433.427,-274.2697 408.3906,-250.5063"/>
<polygon fill="#191970" stroke="#191970" points="410.6977,-247.8706 401.0351,-243.5249 405.8787,-252.9478 410.6977,-247.8706"/>
</g>
<!-- Node13 -->
<g id="node13" class="node">
<title>Node13</title>
<g id="a_node13"><a xlink:href="../../d6/d4f/enemies_8h.html" target="_top" xlink:title=" ">
<polygon fill="none" stroke="#000000" points="283.5,-168.5 283.5,-187.5 344.5,-187.5 344.5,-168.5 283.5,-168.5"/>
<text text-anchor="middle" x="314" y="-175.5" font-family="Helvetica" font-size="10.00" fill="#000000">enemies.h</text>
</a>
</g>
</g>
<!-- Node1&#45;&gt;Node13 -->
<g id="edge28" class="edge">
<title>Node1&#45;&gt;Node13</title>
<path fill="none" stroke="#191970" d="M483.6464,-345.5489C423.5865,-343.8903 275.3901,-336.1432 245,-300 232.8328,-285.5294 242.3692,-249.1762 258,-224 265.6454,-211.6858 277.7503,-201.1392 288.7529,-193.263"/>
<polygon fill="#191970" stroke="#191970" points="290.9051,-196.033 297.2341,-187.5363 286.9878,-190.2317 290.9051,-196.033"/>
</g>
<!-- Node14 -->
<g id="node14" class="node">
<title>Node14</title>
<g id="a_node14"><a xlink:href="../../da/d6a/i8042_8h.html" target="_top" xlink:title=" ">
<polygon fill="none" stroke="#000000" points="126,-224.5 126,-243.5 174,-243.5 174,-224.5 126,-224.5"/>
<text text-anchor="middle" x="150" y="-231.5" font-family="Helvetica" font-size="10.00" fill="#000000">i8042.h</text>
</a>
</g>
</g>
<!-- Node1&#45;&gt;Node14 -->
<g id="edge21" class="edge">
<title>Node1&#45;&gt;Node14</title>
<path fill="none" stroke="#191970" d="M483.8527,-344.4458C420.0835,-340.1509 253.7417,-326.6373 206,-300 186.0042,-288.8434 169.9723,-267.5854 160.2696,-252.2036"/>
<polygon fill="#191970" stroke="#191970" points="163.212,-250.3047 155.0674,-243.5285 157.2087,-253.9047 163.212,-250.3047"/>
</g>
<!-- Node15 -->
<g id="node15" class="node">
<title>Node15</title>
<g id="a_node15"><a xlink:href="../../d7/df4/kbd_8h.html" target="_top" xlink:title=" ">
<polygon fill="none" stroke="#000000" points="867.5,-280.5 867.5,-299.5 908.5,-299.5 908.5,-280.5 867.5,-280.5"/>
<text text-anchor="middle" x="888" y="-287.5" font-family="Helvetica" font-size="10.00" fill="#000000">kbd.h</text>
</a>
</g>
</g>
<!-- Node1&#45;&gt;Node15 -->
<g id="edge24" class="edge">
<title>Node1&#45;&gt;Node15</title>
<path fill="none" stroke="#191970" d="M534.2608,-344.3297C590.6769,-340.2492 731.2132,-328.1417 857.64,-299.6687"/>
<polygon fill="#191970" stroke="#191970" points="858.5259,-303.0565 867.4906,-297.4099 856.9613,-296.2336 858.5259,-303.0565"/>
</g>
<!-- Node16 -->
<g id="node16" class="node">
<title>Node16</title>
<g id="a_node16"><a xlink:href="../../d5/d60/utils_8h.html" target="_top" xlink:title=" ">
<polygon fill="none" stroke="#000000" points="526,-112.5 526,-131.5 568,-131.5 568,-112.5 526,-112.5"/>
<text text-anchor="middle" x="547" y="-119.5" font-family="Helvetica" font-size="10.00" fill="#000000">utils.h</text>
</a>
</g>
</g>
<!-- Node1&#45;&gt;Node16 -->
<g id="edge25" class="edge">
<title>Node1&#45;&gt;Node16</title>
<path fill="none" stroke="#191970" d="M526.0567,-336.377C538.3089,-328.4014 553.8708,-315.8248 561,-300 585.0121,-246.6996 566.048,-175.3299 554.3958,-141.4393"/>
<polygon fill="#191970" stroke="#191970" points="557.6142,-140.0462 550.9333,-131.8233 551.0282,-142.4177 557.6142,-140.0462"/>
</g>
<!-- Node17 -->
<g id="node17" class="node">
<title>Node17</title>
<g id="a_node17"><a xlink:href="../../da/d15/grid_8h.html" target="_top" xlink:title=" ">
<polygon fill="none" stroke="#000000" points="439.5,-224.5 439.5,-243.5 480.5,-243.5 480.5,-224.5 439.5,-224.5"/>
<text text-anchor="middle" x="460" y="-231.5" font-family="Helvetica" font-size="10.00" fill="#000000">grid.h</text>
</a>
</g>
</g>
<!-- Node1&#45;&gt;Node17 -->
<g id="edge30" class="edge">
<title>Node1&#45;&gt;Node17</title>
<path fill="none" stroke="#191970" d="M504.8223,-336.4509C496.722,-317.936 478.7508,-276.8591 468.1894,-252.7187"/>
<polygon fill="#191970" stroke="#191970" points="471.3819,-251.2836 464.1671,-243.5249 464.9688,-254.0894 471.3819,-251.2836"/>
</g>
<!-- Node18 -->
<g id="node18" class="node">
<title>Node18</title>
<g id="a_node18"><a xlink:href="../../dc/ded/mouse_8h.html" target="_top" xlink:title=" ">
<polygon fill="none" stroke="#000000" points="100.5,-280.5 100.5,-299.5 153.5,-299.5 153.5,-280.5 100.5,-280.5"/>
<text text-anchor="middle" x="127" y="-287.5" font-family="Helvetica" font-size="10.00" fill="#000000">mouse.h</text>
</a>
</g>
</g>
<!-- Node1&#45;&gt;Node18 -->
<g id="edge32" class="edge">
<title>Node1&#45;&gt;Node18</title>
<path fill="none" stroke="#191970" d="M483.6143,-343.499C426.782,-337.6983 285.1064,-322.1165 168,-300 166.5601,-299.7281 165.095,-299.4376 163.6173,-299.1331"/>
<polygon fill="#191970" stroke="#191970" points="164.3379,-295.708 153.8183,-296.9691 162.8282,-302.5433 164.3379,-295.708"/>
</g>
<!-- Node19 -->
<g id="node19" class="node">
<title>Node19</title>
<g id="a_node19"><a xlink:href="../../d2/d86/uart_8h.html" target="_top" xlink:title=" ">
<polygon fill="none" stroke="#000000" points="66,-224.5 66,-243.5 108,-243.5 108,-224.5 66,-224.5"/>
<text text-anchor="middle" x="87" y="-231.5" font-family="Helvetica" font-size="10.00" fill="#000000">uart.h</text>
</a>
</g>
</g>
<!-- Node1&#45;&gt;Node19 -->
<g id="edge35" class="edge">
<title>Node1&#45;&gt;Node19</title>
<path fill="none" stroke="#191970" d="M483.8645,-345.0848C397.7212,-341.7011 118.2161,-328.5856 91,-300 79.52,-287.9423 79.7637,-268.3637 82.132,-253.6557"/>
<polygon fill="#191970" stroke="#191970" points="85.6214,-254.0619 84.1982,-243.5631 78.7636,-252.6579 85.6214,-254.0619"/>
</g>
<!-- Node20 -->
<g id="node20" class="node">
<title>Node20</title>
<g id="a_node20"><a xlink:title=" ">
<polygon fill="none" stroke="#bfbfbf" points="926.5,-280.5 926.5,-299.5 973.5,-299.5 973.5,-280.5 926.5,-280.5"/>
<text text-anchor="middle" x="950" y="-287.5" font-family="Helvetica" font-size="10.00" fill="#000000">stdlib.h</text>
</a>
</g>
</g>
<!-- Node1&#45;&gt;Node20 -->
<g id="edge37" class="edge">
<title>Node1&#45;&gt;Node20</title>
<path fill="none" stroke="#191970" d="M534.1628,-344.8425C597.2311,-341.5894 767.1456,-330.653 916.5571,-299.9862"/>
<polygon fill="#191970" stroke="#191970" points="917.2942,-303.4079 926.3676,-297.9376 915.8633,-296.5557 917.2942,-303.4079"/>
</g>
<!-- Node21 -->
<g id="node21" class="node">
<title>Node21</title>
<g id="a_node21"><a xlink:href="../../dd/d65/game__helper_8h.html" target="_top" xlink:title=" ">
<polygon fill="none" stroke="#000000" points="254.5,-280.5 254.5,-299.5 335.5,-299.5 335.5,-280.5 254.5,-280.5"/>
<text text-anchor="middle" x="295" y="-287.5" font-family="Helvetica" font-size="10.00" fill="#000000">game_helper.h</text>
</a>
</g>
</g>
<!-- Node1&#45;&gt;Node21 -->
<g id="edge38" class="edge">
<title>Node1&#45;&gt;Node21</title>
<path fill="none" stroke="#191970" d="M483.611,-339.3562C448.5853,-330.1906 384.835,-313.5082 341.2293,-302.0974"/>
<polygon fill="#191970" stroke="#191970" points="341.9894,-298.6785 331.4291,-299.5328 340.2173,-305.4505 341.9894,-298.6785"/>
</g>
<!-- Node8 -->
<g id="node8" class="node">
<title>Node8</title>
<g id="a_node8"><a xlink:title=" ">
<polygon fill="none" stroke="#bfbfbf" points="181.5,-168.5 181.5,-187.5 260.5,-187.5 260.5,-168.5 181.5,-168.5"/>
<text text-anchor="middle" x="221" y="-175.5" font-family="Helvetica" font-size="10.00" fill="#000000">minix/sysutil.h</text>
</a>
</g>
</g>
<!-- Node7&#45;&gt;Node8 -->
<g id="edge7" class="edge">
<title>Node7&#45;&gt;Node8</title>
<path fill="none" stroke="#191970" d="M306.0588,-224.2455C289.96,-215.4928 266.1121,-202.527 247.7609,-192.5496"/>
<polygon fill="#191970" stroke="#191970" points="249.1929,-189.3444 238.7356,-187.6427 245.8493,-195.4942 249.1929,-189.3444"/>
</g>
<!-- Node9&#45;&gt;Node2 -->
<g id="edge9" class="edge">
<title>Node9&#45;&gt;Node2</title>
<path fill="none" stroke="#191970" d="M386.6395,-168.4862C374.3622,-141.6994 339.3259,-65.2565 322.8133,-29.2289"/>
<polygon fill="#191970" stroke="#191970" points="325.8528,-27.4602 318.5044,-19.8279 319.4893,-30.3769 325.8528,-27.4602"/>
</g>
<!-- Node9&#45;&gt;Node10 -->
<g id="edge10" class="edge">
<title>Node9&#45;&gt;Node10</title>
<path fill="none" stroke="#191970" d="M399.0126,-168.2455C405.4768,-160.3761 414.7385,-149.101 422.4983,-139.6542"/>
<polygon fill="#191970" stroke="#191970" points="425.4364,-141.5916 429.0792,-131.6427 420.0273,-137.1484 425.4364,-141.5916"/>
</g>
<!-- Node10&#45;&gt;Node2 -->
<g id="edge11" class="edge">
<title>Node10&#45;&gt;Node2</title>
<path fill="none" stroke="#191970" d="M428.8389,-112.0667C417.6039,-98.6605 396.4351,-74.3442 376,-56 363.6403,-44.9049 348.7184,-33.7725 336.6111,-25.2388"/>
<polygon fill="#191970" stroke="#191970" points="338.581,-22.3456 328.3694,-19.5219 334.5913,-28.0974 338.581,-22.3456"/>
</g>
<!-- Node10&#45;&gt;Node11 -->
<g id="edge12" class="edge">
<title>Node10&#45;&gt;Node11</title>
<path fill="none" stroke="#191970" d="M463.3016,-112.3733C488.4128,-103.1822 526.4438,-89.2624 554.2872,-79.0713"/>
<polygon fill="#191970" stroke="#191970" points="555.8538,-82.2251 564.0416,-75.5011 553.4478,-75.6516 555.8538,-82.2251"/>
</g>
<!-- Node11&#45;&gt;Node2 -->
<g id="edge13" class="edge">
<title>Node11&#45;&gt;Node2</title>
<path fill="none" stroke="#191970" d="M546.875,-57.25C493.9689,-46.5154 405.004,-28.4646 353.709,-18.0569"/>
<polygon fill="#191970" stroke="#191970" points="354.1641,-14.578 343.6678,-16.0196 352.7722,-21.4382 354.1641,-14.578"/>
</g>
<!-- Node11&#45;&gt;Node3 -->
<g id="edge14" class="edge">
<title>Node11&#45;&gt;Node3</title>
<path fill="none" stroke="#191970" d="M591.0451,-56.2455C591.828,-48.9382 592.9256,-38.6944 593.8888,-29.7046"/>
<polygon fill="#191970" stroke="#191970" points="597.3815,-29.9587 594.9669,-19.6427 590.4214,-29.2129 597.3815,-29.9587"/>
</g>
<!-- Node11&#45;&gt;Node4 -->
<g id="edge15" class="edge">
<title>Node11&#45;&gt;Node4</title>
<path fill="none" stroke="#191970" d="M607.9412,-56.2455C624.04,-47.4928 647.8879,-34.527 666.2391,-24.5496"/>
<polygon fill="#191970" stroke="#191970" points="668.1507,-27.4942 675.2644,-19.6427 664.8071,-21.3444 668.1507,-27.4942"/>
</g>
<!-- Node12&#45;&gt;Node9 -->
<g id="edge17" class="edge">
<title>Node12&#45;&gt;Node9</title>
<path fill="none" stroke="#191970" d="M391,-224.2455C391,-216.9382 391,-206.6944 391,-197.7046"/>
<polygon fill="#191970" stroke="#191970" points="394.5001,-197.6426 391,-187.6427 387.5001,-197.6427 394.5001,-197.6426"/>
</g>
<!-- Node12&#45;&gt;Node13 -->
<g id="edge18" class="edge">
<title>Node12&#45;&gt;Node13</title>
<path fill="none" stroke="#191970" d="M377.5876,-224.2455C365.9943,-215.814 349.0252,-203.4729 335.5322,-193.6598"/>
<polygon fill="#191970" stroke="#191970" points="337.4047,-190.6938 327.2587,-187.6427 333.2874,-196.355 337.4047,-190.6938"/>
</g>
<!-- Node13&#45;&gt;Node2 -->
<g id="edge19" class="edge">
<title>Node13&#45;&gt;Node2</title>
<path fill="none" stroke="#191970" d="M314,-168.4862C314,-141.9293 314,-66.5651 314,-30.1655"/>
<polygon fill="#191970" stroke="#191970" points="317.5001,-29.8278 314,-19.8279 310.5001,-29.8279 317.5001,-29.8278"/>
</g>
<!-- Node13&#45;&gt;Node10 -->
<g id="edge20" class="edge">
<title>Node13&#45;&gt;Node10</title>
<path fill="none" stroke="#191970" d="M335.1445,-168.3733C354.8892,-159.3838 384.5698,-145.8706 406.8055,-135.7471"/>
<polygon fill="#191970" stroke="#191970" points="408.4806,-138.8302 416.1315,-131.5011 405.58,-132.4594 408.4806,-138.8302"/>
</g>
<!-- Node14&#45;&gt;Node2 -->
<g id="edge22" class="edge">
<title>Node14&#45;&gt;Node2</title>
<path fill="none" stroke="#191970" d="M151.9707,-224.0754C154.9203,-210.6791 161.3099,-186.374 172,-168 206.2449,-109.1401 264.9605,-52.9935 295.0333,-26.2655"/>
<polygon fill="#191970" stroke="#191970" points="297.5028,-28.755 302.7117,-19.5291 292.8863,-23.493 297.5028,-28.755"/>
</g>
<!-- Node14&#45;&gt;Node8 -->
<g id="edge23" class="edge">
<title>Node14&#45;&gt;Node8</title>
<path fill="none" stroke="#191970" d="M162.3673,-224.2455C172.9554,-215.8943 188.4064,-203.7076 200.7893,-193.9408"/>
<polygon fill="#191970" stroke="#191970" points="203.0903,-196.5837 208.7745,-187.6427 198.7553,-191.0875 203.0903,-196.5837"/>
</g>
<!-- Node16&#45;&gt;Node2 -->
<g id="edge26" class="edge">
<title>Node16&#45;&gt;Node2</title>
<path fill="none" stroke="#191970" d="M527.1346,-112.4509C485.9515,-92.6548 391.1111,-47.0663 343.0496,-23.9638"/>
<polygon fill="#191970" stroke="#191970" points="344.3443,-20.7028 333.8152,-19.5249 341.3117,-27.0118 344.3443,-20.7028"/>
</g>
<!-- Node17&#45;&gt;Node10 -->
<g id="edge31" class="edge">
<title>Node17&#45;&gt;Node10</title>
<path fill="none" stroke="#191970" d="M458.039,-224.4509C454.2708,-206.1013 445.9517,-165.5908 440.9776,-141.3693"/>
<polygon fill="#191970" stroke="#191970" points="444.3961,-140.6164 438.956,-131.5249 437.5392,-142.0246 444.3961,-140.6164"/>
</g>
<!-- Node18&#45;&gt;Node2 -->
<g id="edge33" class="edge">
<title>Node18&#45;&gt;Node2</title>
<path fill="none" stroke="#191970" d="M104.6754,-280.4863C89.1604,-272.7869 69.1602,-260.509 57,-244 38.897,-219.4229 38,-208.5246 38,-178 38,-178 38,-178 38,-122 38,-71.6236 197.8701,-33.0531 274.2631,-17.4981"/>
<polygon fill="#191970" stroke="#191970" points="275.3443,-20.8512 284.4632,-15.4571 273.9708,-13.9873 275.3443,-20.8512"/>
</g>
<!-- Node18&#45;&gt;Node14 -->
<g id="edge34" class="edge">
<title>Node18&#45;&gt;Node14</title>
<path fill="none" stroke="#191970" d="M131.0063,-280.2455C134.0735,-272.7776 138.4003,-262.2427 142.1497,-253.1137"/>
<polygon fill="#191970" stroke="#191970" points="145.4779,-254.2226 146.0396,-243.6427 139.0028,-251.5631 145.4779,-254.2226"/>
</g>
<!-- Node19&#45;&gt;Node2 -->
<g id="edge36" class="edge">
<title>Node19&#45;&gt;Node2</title>
<path fill="none" stroke="#191970" d="M93.826,-224.2414C113.9828,-195.8785 175.9186,-111.9306 241,-56 254.9793,-43.9863 272.3852,-32.8942 286.694,-24.6132"/>
<polygon fill="#191970" stroke="#191970" points="288.5946,-27.5595 295.5826,-19.596 285.1537,-21.4636 288.5946,-27.5595"/>
</g>
<!-- Node21&#45;&gt;Node7 -->
<g id="edge43" class="edge">
<title>Node21&#45;&gt;Node7</title>
<path fill="none" stroke="#191970" d="M300.0514,-280.2455C304.0019,-272.617 309.6097,-261.7881 314.4058,-252.5267"/>
<polygon fill="#191970" stroke="#191970" points="317.5159,-254.1321 319.0065,-243.6427 311.2999,-250.9131 317.5159,-254.1321"/>
</g>
<!-- Node21&#45;&gt;Node9 -->
<g id="edge40" class="edge">
<title>Node21&#45;&gt;Node9</title>
<path fill="none" stroke="#191970" d="M292.3629,-280.1277C289.2918,-266.3567 285.9373,-241.1461 297,-224 303.9259,-213.2655 331.6071,-200.4439 355.1513,-191.0672"/>
<polygon fill="#191970" stroke="#191970" points="356.5292,-194.2868 364.5822,-187.4021 353.9935,-187.7622 356.5292,-194.2868"/>
</g>
<!-- Node21&#45;&gt;Node12 -->
<g id="edge45" class="edge">
<title>Node21&#45;&gt;Node12</title>
<path fill="none" stroke="#191970" d="M311.7219,-280.2455C326.5889,-271.5731 348.5466,-258.7645 365.5858,-248.825"/>
<polygon fill="#191970" stroke="#191970" points="367.5955,-251.7047 374.4697,-243.6427 364.0683,-245.6582 367.5955,-251.7047"/>
</g>
<!-- Node21&#45;&gt;Node13 -->
<g id="edge44" class="edge">
<title>Node21&#45;&gt;Node13</title>
<path fill="none" stroke="#191970" d="M284.7713,-280.2318C272.6508,-267.4122 255.1487,-244.1706 264,-224 269.3323,-211.8487 279.6339,-201.4938 289.5076,-193.7031"/>
<polygon fill="#191970" stroke="#191970" points="291.59,-196.5162 297.5823,-187.7788 287.4491,-190.8723 291.59,-196.5162"/>
</g>
<!-- Node21&#45;&gt;Node14 -->
<g id="edge42" class="edge">
<title>Node21&#45;&gt;Node14</title>
<path fill="none" stroke="#191970" d="M270.0736,-280.3733C246.2362,-271.1671 210.1142,-257.2165 183.7151,-247.021"/>
<polygon fill="#191970" stroke="#191970" points="184.7088,-243.6529 174.1193,-243.315 182.1868,-250.1828 184.7088,-243.6529"/>
</g>
<!-- Node21&#45;&gt;Node17 -->
<g id="edge41" class="edge">
<title>Node21&#45;&gt;Node17</title>
<path fill="none" stroke="#191970" d="M323.3645,-280.3733C353.0006,-270.3149 399.3236,-254.5932 429.6723,-244.293"/>
<polygon fill="#191970" stroke="#191970" points="430.9603,-247.5521 439.3049,-241.0238 428.7105,-240.9234 430.9603,-247.5521"/>
</g>
<!-- Node21&#45;&gt;Node19 -->
<g id="edge39" class="edge">
<title>Node21&#45;&gt;Node19</title>
<path fill="none" stroke="#191970" d="M254.8411,-280.4596C220.7441,-272.1725 170.3251,-259.4811 118.0309,-244.1721"/>
<polygon fill="#191970" stroke="#191970" points="118.8299,-240.7587 108.2481,-241.2836 116.8476,-247.4722 118.8299,-240.7587"/>
</g>
</g>
</svg>
