<?xml version="1.0" encoding="UTF-8" standalone="no"?>
<!DOCTYPE svg PUBLIC "-//W3C//DTD SVG 1.1//EN"
 "http://www.w3.org/Graphics/SVG/1.1/DTD/svg11.dtd">
<!-- Generated by graphviz version 2.40.1 (20161225.0304)
 -->
<!-- Title: entities.h Pages: 1 -->
<svg width="591pt" height="252pt"
 viewBox="0.00 0.00 591.37 252.00" xmlns="http://www.w3.org/2000/svg" xmlns:xlink="http://www.w3.org/1999/xlink">
<g id="graph0" class="graph" transform="scale(1 1) rotate(0) translate(4 248)">
<title>entities.h</title>
<!-- Node1 -->
<g id="node1" class="node">
<title>Node1</title>
<g id="a_node1"><a xlink:title=" ">
<polygon fill="#bfbfbf" stroke="#000000" points="217.0162,-224.5 217.0162,-243.5 273.0162,-243.5 273.0162,-224.5 217.0162,-224.5"/>
<text text-anchor="middle" x="245.0162" y="-231.5" font-family="Helvetica" font-size="10.00" fill="#000000">entities.h</text>
</a>
</g>
</g>
<!-- Node2 -->
<g id="node2" class="node">
<title>Node2</title>
<g id="a_node2"><a xlink:href="../../d6/d4f/enemies_8h.html" target="_top" xlink:title=" ">
<polygon fill="none" stroke="#000000" points="214.5162,-168.5 214.5162,-187.5 275.5162,-187.5 275.5162,-168.5 214.5162,-168.5"/>
<text text-anchor="middle" x="245.0162" y="-175.5" font-family="Helvetica" font-size="10.00" fill="#000000">enemies.h</text>
</a>
</g>
</g>
<!-- Node1&#45;&gt;Node2 -->
<g id="edge1" class="edge">
<title>Node1&#45;&gt;Node2</title>
<path fill="none" stroke="#191970" d="M245.0162,-214.1575C245.0162,-205.155 245.0162,-194.9199 245.0162,-187.6427"/>
<polygon fill="#191970" stroke="#191970" points="241.5163,-214.2455 245.0162,-224.2455 248.5163,-214.2456 241.5163,-214.2455"/>
</g>
<!-- Node8 -->
<g id="node8" class="node">
<title>Node8</title>
<g id="a_node8"><a xlink:href="../../df/def/_l_c_o_m_8c.html" target="_top" xlink:title=" ">
<polygon fill="none" stroke="#000000" points="294.0162,-.5 294.0162,-19.5 344.0162,-19.5 344.0162,-.5 294.0162,-.5"/>
<text text-anchor="middle" x="319.0162" y="-7.5" font-family="Helvetica" font-size="10.00" fill="#000000">LCOM.c</text>
</a>
</g>
</g>
<!-- Node1&#45;&gt;Node8 -->
<g id="edge29" class="edge">
<title>Node1&#45;&gt;Node8</title>
<path fill="none" stroke="#191970" d="M283.0322,-231.2429C346.602,-224.7082 475.1542,-203.0125 553.0162,-132 573.4314,-113.3807 573.8616,-102.9365 580.0162,-76 581.9962,-67.3344 585.7302,-62.8091 580.0162,-56 549.996,-20.2261 403.4693,-12.2626 344.0848,-10.4985"/>
<polygon fill="#191970" stroke="#191970" points="282.6606,-227.7624 273.0395,-232.1992 283.3275,-234.7305 282.6606,-227.7624"/>
</g>
<!-- Node11 -->
<g id="node11" class="node">
<title>Node11</title>
<g id="a_node11"><a xlink:href="../../d5/df6/entities_8c.html" target="_top" xlink:title=" ">
<polygon fill="none" stroke="#000000" points="132.5162,-112.5 132.5162,-131.5 187.5162,-131.5 187.5162,-112.5 132.5162,-112.5"/>
<text text-anchor="middle" x="160.0162" y="-119.5" font-family="Helvetica" font-size="10.00" fill="#000000">entities.c</text>
</a>
</g>
</g>
<!-- Node1&#45;&gt;Node11 -->
<g id="edge21" class="edge">
<title>Node1&#45;&gt;Node11</title>
<path fill="none" stroke="#191970" d="M229.6169,-216.6283C222.276,-208.1503 213.4877,-197.7076 206.0162,-188 191.0234,-168.52 174.9035,-144.6297 166.2928,-131.6006"/>
<polygon fill="#191970" stroke="#191970" points="227.1545,-219.1293 236.3729,-224.3516 232.4231,-214.5205 227.1545,-219.1293"/>
</g>
<!-- Node12 -->
<g id="node12" class="node">
<title>Node12</title>
<g id="a_node12"><a xlink:href="../../da/d15/grid_8h.html" target="_top" xlink:title=" ">
<polygon fill="none" stroke="#000000" points="34.5162,-168.5 34.5162,-187.5 75.5162,-187.5 75.5162,-168.5 34.5162,-168.5"/>
<text text-anchor="middle" x="55.0162" y="-175.5" font-family="Helvetica" font-size="10.00" fill="#000000">grid.h</text>
</a>
</g>
</g>
<!-- Node1&#45;&gt;Node12 -->
<g id="edge15" class="edge">
<title>Node1&#45;&gt;Node12</title>
<path fill="none" stroke="#191970" d="M207.1621,-222.843C167.6044,-211.1839 107.01,-193.3245 75.5583,-184.0545"/>
<polygon fill="#191970" stroke="#191970" points="206.3995,-226.267 216.9811,-225.737 208.3785,-219.5526 206.3995,-226.267"/>
</g>
<!-- Node13 -->
<g id="node13" class="node">
<title>Node13</title>
<g id="a_node13"><a xlink:href="../../d3/d62/player_8h.html" target="_top" xlink:title=" ">
<polygon fill="none" stroke="#000000" points="342.0162,-168.5 342.0162,-187.5 394.0162,-187.5 394.0162,-168.5 342.0162,-168.5"/>
<text text-anchor="middle" x="368.0162" y="-175.5" font-family="Helvetica" font-size="10.00" fill="#000000">player.h</text>
</a>
</g>
</g>
<!-- Node1&#45;&gt;Node13 -->
<g id="edge22" class="edge">
<title>Node1&#45;&gt;Node13</title>
<path fill="none" stroke="#191970" d="M275.5227,-220.1109C297.8275,-209.9559 327.4962,-196.4482 347.1477,-187.5011"/>
<polygon fill="#191970" stroke="#191970" points="273.8115,-217.0442 266.1607,-224.3733 276.7121,-223.415 273.8115,-217.0442"/>
</g>
<!-- Node3 -->
<g id="node3" class="node">
<title>Node3</title>
<g id="a_node3"><a xlink:href="../../db/d6f/enemies_8c.html" target="_top" xlink:title=" ">
<polygon fill="none" stroke="#000000" points="54.0162,-112.5 54.0162,-131.5 114.0162,-131.5 114.0162,-112.5 54.0162,-112.5"/>
<text text-anchor="middle" x="84.0162" y="-119.5" font-family="Helvetica" font-size="10.00" fill="#000000">enemies.c</text>
</a>
</g>
</g>
<!-- Node2&#45;&gt;Node3 -->
<g id="edge2" class="edge">
<title>Node2&#45;&gt;Node3</title>
<path fill="none" stroke="#191970" d="M207.8052,-165.057C178.3403,-154.8084 137.8621,-140.729 111.332,-131.5011"/>
<polygon fill="#191970" stroke="#191970" points="206.7445,-168.3937 217.3393,-168.3733 209.0442,-161.7822 206.7445,-168.3937"/>
</g>
<!-- Node4 -->
<g id="node4" class="node">
<title>Node4</title>
<g id="a_node4"><a xlink:href="../../d7/d04/graphics_8h.html" target="_top" xlink:title=" ">
<polygon fill="none" stroke="#000000" points="396.5162,-112.5 396.5162,-131.5 457.5162,-131.5 457.5162,-112.5 396.5162,-112.5"/>
<text text-anchor="middle" x="427.0162" y="-119.5" font-family="Helvetica" font-size="10.00" fill="#000000">graphics.h</text>
</a>
</g>
</g>
<!-- Node2&#45;&gt;Node4 -->
<g id="edge3" class="edge">
<title>Node2&#45;&gt;Node4</title>
<path fill="none" stroke="#191970" d="M285.8197,-165.4451C319.2837,-155.1485 365.9278,-140.7964 396.2952,-131.4526"/>
<polygon fill="#191970" stroke="#191970" points="284.4185,-162.2142 275.8901,-168.5004 286.4772,-168.9047 284.4185,-162.2142"/>
</g>
<!-- Node5 -->
<g id="node5" class="node">
<title>Node5</title>
<g id="a_node5"><a xlink:href="../../d5/d95/graphics_8c.html" target="_top" xlink:title=" ">
<polygon fill="none" stroke="#000000" points="282.0162,-56.5 282.0162,-75.5 342.0162,-75.5 342.0162,-56.5 282.0162,-56.5"/>
<text text-anchor="middle" x="312.0162" y="-63.5" font-family="Helvetica" font-size="10.00" fill="#000000">graphics.c</text>
</a>
</g>
</g>
<!-- Node2&#45;&gt;Node5 -->
<g id="edge12" class="edge">
<title>Node2&#45;&gt;Node5</title>
<path fill="none" stroke="#191970" d="M256.04,-159.5723C270.4632,-135.4618 295.2048,-94.1028 306.3183,-75.5249"/>
<polygon fill="#191970" stroke="#191970" points="252.8588,-158.0724 250.7286,-168.4509 258.8659,-161.6661 252.8588,-158.0724"/>
</g>
<!-- Node6 -->
<g id="node6" class="node">
<title>Node6</title>
<g id="a_node6"><a xlink:href="../../dd/d65/game__helper_8h.html" target="_top" xlink:title=" ">
<polygon fill="none" stroke="#000000" points="144.5162,-56.5 144.5162,-75.5 225.5162,-75.5 225.5162,-56.5 144.5162,-56.5"/>
<text text-anchor="middle" x="185.0162" y="-63.5" font-family="Helvetica" font-size="10.00" fill="#000000">game_helper.h</text>
</a>
</g>
</g>
<!-- Node2&#45;&gt;Node6 -->
<g id="edge13" class="edge">
<title>Node2&#45;&gt;Node6</title>
<path fill="none" stroke="#191970" d="M235.1442,-159.5723C222.2279,-135.4618 200.0713,-94.1028 190.1189,-75.5249"/>
<polygon fill="#191970" stroke="#191970" points="232.0932,-161.2889 239.9007,-168.4509 238.2636,-157.9833 232.0932,-161.2889"/>
</g>
<!-- Node2&#45;&gt;Node8 -->
<g id="edge14" class="edge">
<title>Node2&#45;&gt;Node8</title>
<path fill="none" stroke="#191970" d="M246.1797,-158.4062C248.392,-133.2675 254.765,-88.9763 273.0162,-56 281.2199,-41.1777 295.6027,-27.9324 306.107,-19.5049"/>
<polygon fill="#191970" stroke="#191970" points="242.6805,-158.267 245.4283,-168.4993 249.6611,-158.7868 242.6805,-158.267"/>
</g>
<!-- Node2&#45;&gt;Node11 -->
<g id="edge11" class="edge">
<title>Node2&#45;&gt;Node11</title>
<path fill="none" stroke="#191970" d="M221.4743,-162.49C206.4773,-152.6096 187.5189,-140.1194 174.6524,-131.6427"/>
<polygon fill="#191970" stroke="#191970" points="219.9342,-165.6666 230.2104,-168.2455 223.7853,-159.8212 219.9342,-165.6666"/>
</g>
<!-- Node4&#45;&gt;Node5 -->
<g id="edge4" class="edge">
<title>Node4&#45;&gt;Node5</title>
<path fill="none" stroke="#191970" d="M398.213,-107.9741C377.3913,-97.8348 349.8185,-84.408 331.5275,-75.5011"/>
<polygon fill="#191970" stroke="#191970" points="396.724,-111.1419 407.247,-112.3733 399.7887,-104.8484 396.724,-111.1419"/>
</g>
<!-- Node4&#45;&gt;Node6 -->
<g id="edge5" class="edge">
<title>Node4&#45;&gt;Node6</title>
<path fill="none" stroke="#191970" d="M386.4566,-112.6143C341.865,-102.2956 270.6281,-85.811 225.9057,-75.462"/>
<polygon fill="#191970" stroke="#191970" points="385.8351,-116.0629 396.3668,-114.9076 387.4133,-109.2431 385.8351,-116.0629"/>
</g>
<!-- Node4&#45;&gt;Node8 -->
<g id="edge9" class="edge">
<title>Node4&#45;&gt;Node8</title>
<path fill="none" stroke="#191970" d="M410.7715,-105.1536C387.7807,-81.3113 346.5134,-38.5156 328.2009,-19.5249"/>
<polygon fill="#191970" stroke="#191970" points="408.3474,-107.682 417.8082,-112.4509 413.3863,-102.823 408.3474,-107.682"/>
</g>
<!-- Node9 -->
<g id="node9" class="node">
<title>Node9</title>
<g id="a_node9"><a xlink:href="../../d1/db8/player_8c.html" target="_top" xlink:title=" ">
<polygon fill="none" stroke="#000000" points="501.5162,-56.5 501.5162,-75.5 552.5162,-75.5 552.5162,-56.5 501.5162,-56.5"/>
<text text-anchor="middle" x="527.0162" y="-63.5" font-family="Helvetica" font-size="10.00" fill="#000000">player.c</text>
</a>
</g>
</g>
<!-- Node4&#45;&gt;Node9 -->
<g id="edge8" class="edge">
<title>Node4&#45;&gt;Node9</title>
<path fill="none" stroke="#191970" d="M453.226,-107.3225C471.088,-97.3198 494.2317,-84.3593 509.7972,-75.6427"/>
<polygon fill="#191970" stroke="#191970" points="451.4498,-104.3057 444.4349,-112.2455 454.8701,-110.4132 451.4498,-104.3057"/>
</g>
<!-- Node10 -->
<g id="node10" class="node">
<title>Node10</title>
<g id="a_node10"><a xlink:href="../../d7/dc7/sprites_8c.html" target="_top" xlink:title=" ">
<polygon fill="none" stroke="#000000" points="398.5162,-56.5 398.5162,-75.5 483.5162,-75.5 483.5162,-56.5 398.5162,-56.5"/>
<text text-anchor="middle" x="441.0162" y="-63.5" font-family="Helvetica" font-size="10.00" fill="#000000">sprites/sprites.c</text>
</a>
</g>
</g>
<!-- Node4&#45;&gt;Node10 -->
<g id="edge10" class="edge">
<title>Node4&#45;&gt;Node10</title>
<path fill="none" stroke="#191970" d="M431.9028,-102.4538C434.1711,-93.3803 436.7663,-82.9998 438.6056,-75.6427"/>
<polygon fill="#191970" stroke="#191970" points="428.4848,-101.6952 429.4548,-112.2455 435.2758,-103.393 428.4848,-101.6952"/>
</g>
<!-- Node7 -->
<g id="node7" class="node">
<title>Node7</title>
<g id="a_node7"><a xlink:href="../../d2/dba/game__helper_8c.html" target="_top" xlink:title=" ">
<polygon fill="none" stroke="#000000" points="145.0162,-.5 145.0162,-19.5 225.0162,-19.5 225.0162,-.5 145.0162,-.5"/>
<text text-anchor="middle" x="185.0162" y="-7.5" font-family="Helvetica" font-size="10.00" fill="#000000">game_helper.c</text>
</a>
</g>
</g>
<!-- Node6&#45;&gt;Node7 -->
<g id="edge6" class="edge">
<title>Node6&#45;&gt;Node7</title>
<path fill="none" stroke="#191970" d="M185.0162,-46.1575C185.0162,-37.155 185.0162,-26.9199 185.0162,-19.6427"/>
<polygon fill="#191970" stroke="#191970" points="181.5163,-46.2455 185.0162,-56.2455 188.5163,-46.2456 181.5163,-46.2455"/>
</g>
<!-- Node6&#45;&gt;Node8 -->
<g id="edge7" class="edge">
<title>Node6&#45;&gt;Node8</title>
<path fill="none" stroke="#191970" d="M217.5991,-52.3833C241.9698,-42.1985 274.6804,-28.5284 296.2814,-19.5011"/>
<polygon fill="#191970" stroke="#191970" points="215.9288,-49.2879 208.0517,-56.3733 218.6279,-55.7466 215.9288,-49.2879"/>
</g>
<!-- Node12&#45;&gt;Node3 -->
<g id="edge16" class="edge">
<title>Node12&#45;&gt;Node3</title>
<path fill="none" stroke="#191970" d="M64.6809,-159.3372C69.4849,-150.0605 75.0885,-139.2398 79.0227,-131.6427"/>
<polygon fill="#191970" stroke="#191970" points="61.5583,-157.7561 60.0676,-168.2455 67.7742,-160.9751 61.5583,-157.7561"/>
</g>
<!-- Node12&#45;&gt;Node5 -->
<g id="edge18" class="edge">
<title>Node12&#45;&gt;Node5</title>
<path fill="none" stroke="#191970" d="M45.0572,-159.157C38.9168,-144.6547 34.0961,-124.9623 45.0162,-112 52.6494,-102.9393 213.6838,-79.6432 281.9033,-70.1348"/>
<polygon fill="#191970" stroke="#191970" points="41.904,-160.6762 49.3419,-168.2213 48.2326,-157.6847 41.904,-160.6762"/>
</g>
<!-- Node12&#45;&gt;Node6 -->
<g id="edge19" class="edge">
<title>Node12&#45;&gt;Node6</title>
<path fill="none" stroke="#191970" d="M32.5332,-161.7544C16.3966,-148.0936 -.4768,-128.2489 12.0162,-112 28.023,-91.1809 98.2903,-77.8024 144.2014,-71.1137"/>
<polygon fill="#191970" stroke="#191970" points="30.7391,-164.7994 40.745,-168.2826 35.0952,-159.3199 30.7391,-164.7994"/>
</g>
<!-- Node12&#45;&gt;Node8 -->
<g id="edge20" class="edge">
<title>Node12&#45;&gt;Node8</title>
<path fill="none" stroke="#191970" d="M29.6873,-162.6168C11.4741,-149.5359 -7.9367,-130.0551 4.0162,-112 37.0966,-62.0317 225.2423,-25.797 293.9232,-14.0708"/>
<polygon fill="#191970" stroke="#191970" points="28.1426,-165.7968 38.3894,-168.49 32.0586,-159.9946 28.1426,-165.7968"/>
</g>
<!-- Node12&#45;&gt;Node11 -->
<g id="edge17" class="edge">
<title>Node12&#45;&gt;Node11</title>
<path fill="none" stroke="#191970" d="M82.2787,-163.46C101.0684,-153.4388 125.5175,-140.3993 141.9362,-131.6427"/>
<polygon fill="#191970" stroke="#191970" points="80.4823,-160.4514 73.3058,-168.2455 83.7765,-166.6278 80.4823,-160.4514"/>
</g>
<!-- Node13&#45;&gt;Node4 -->
<g id="edge23" class="edge">
<title>Node13&#45;&gt;Node4</title>
<path fill="none" stroke="#191970" d="M385.5469,-161.3607C395.7539,-151.6727 408.2631,-139.7995 416.857,-131.6427"/>
<polygon fill="#191970" stroke="#191970" points="383.1368,-158.8227 378.2932,-168.2455 387.9558,-163.8998 383.1368,-158.8227"/>
</g>
<!-- Node13&#45;&gt;Node5 -->
<g id="edge25" class="edge">
<title>Node13&#45;&gt;Node5</title>
<path fill="none" stroke="#191970" d="M362.4358,-158.6352C358.2101,-145.1778 351.8094,-127.0321 344.0162,-112 337.1207,-98.6994 326.9413,-84.7547 319.9243,-75.7541"/>
<polygon fill="#191970" stroke="#191970" points="359.1043,-159.7106 365.3433,-168.2736 365.806,-157.6889 359.1043,-159.7106"/>
</g>
<!-- Node13&#45;&gt;Node6 -->
<g id="edge26" class="edge">
<title>Node13&#45;&gt;Node6</title>
<path fill="none" stroke="#191970" d="M343.4748,-162.9801C305.2085,-139.5603 232.4181,-95.011 200.5792,-75.5249"/>
<polygon fill="#191970" stroke="#191970" points="342.0573,-166.216 352.4138,-168.4509 345.7115,-160.2455 342.0573,-166.216"/>
</g>
<!-- Node13&#45;&gt;Node8 -->
<g id="edge28" class="edge">
<title>Node13&#45;&gt;Node8</title>
<path fill="none" stroke="#191970" d="M404.2529,-170.6946C473.0564,-155.2545 611.51,-115.742 562.0162,-56 534.4871,-22.7706 400.385,-13.3641 344.0337,-10.8561"/>
<polygon fill="#191970" stroke="#191970" points="403.2649,-167.3279 394.2424,-172.8817 404.759,-174.1666 403.2649,-167.3279"/>
</g>
<!-- Node13&#45;&gt;Node9 -->
<g id="edge27" class="edge">
<title>Node13&#45;&gt;Node9</title>
<path fill="none" stroke="#191970" d="M403.9077,-165.3577C423.5883,-157.4653 447.8143,-146.1176 467.0162,-132 489.4737,-115.4889 510.0134,-89.5671 520.2296,-75.6313"/>
<polygon fill="#191970" stroke="#191970" points="402.4249,-162.1788 394.368,-169.0588 404.9569,-168.7048 402.4249,-162.1788"/>
</g>
<!-- Node13&#45;&gt;Node11 -->
<g id="edge24" class="edge">
<title>Node13&#45;&gt;Node11</title>
<path fill="none" stroke="#191970" d="M331.8218,-168.2553C290.8347,-157.2204 224.9404,-139.4796 187.8,-129.4803"/>
<polygon fill="#191970" stroke="#191970" points="331.1068,-171.6874 341.6729,-170.9076 332.9267,-164.9281 331.1068,-171.6874"/>
</g>
</g>
</svg>
