<?xml version="1.0" encoding="UTF-8" standalone="no"?>
<!DOCTYPE svg PUBLIC "-//W3C//DTD SVG 1.1//EN"
 "http://www.w3.org/Graphics/SVG/1.1/DTD/svg11.dtd">
<!-- Generated by graphviz version 2.40.1 (20161225.0304)
 -->
<!-- Title: rtc_set_alarm_delta_s Pages: 1 -->
<svg width="465pt" height="142pt"
 viewBox="0.00 0.00 465.00 142.00" xmlns="http://www.w3.org/2000/svg" xmlns:xlink="http://www.w3.org/1999/xlink">
<g id="graph0" class="graph" transform="scale(1 1) rotate(0) translate(4 138)">
<title>rtc_set_alarm_delta_s</title>
<!-- Node1 -->
<g id="node1" class="node">
<title>Node1</title>
<g id="a_node1"><a xlink:title="Sets an alarm at current_time + delta_seconds.">
<polygon fill="#bfbfbf" stroke="#000000" points="0,-57.5 0,-76.5 112,-76.5 112,-57.5 0,-57.5"/>
<text text-anchor="middle" x="56" y="-64.5" font-family="Helvetica" font-size="10.00" fill="#000000">rtc_set_alarm_delta_s</text>
</a>
</g>
</g>
<!-- Node2 -->
<g id="node2" class="node">
<title>Node2</title>
<g id="a_node2"><a xlink:href="../../d4/dcc/rtc_8c.html#a9a867345f9d2703ac913a6b8624f560c" target="_top" xlink:title="Converts a number in BCD to binary.">
<polygon fill="none" stroke="#000000" points="148,-114.5 148,-133.5 225,-133.5 225,-114.5 148,-114.5"/>
<text text-anchor="middle" x="186.5" y="-121.5" font-family="Helvetica" font-size="10.00" fill="#000000">bcd_to_binary</text>
</a>
</g>
</g>
<!-- Node1&#45;&gt;Node2 -->
<g id="edge1" class="edge">
<title>Node1&#45;&gt;Node2</title>
<path fill="none" stroke="#191970" d="M77.8428,-76.5405C99.0152,-85.7883 131.347,-99.9102 155.2414,-110.3468"/>
<polygon fill="#191970" stroke="#191970" points="154.021,-113.633 164.586,-114.4284 156.8229,-107.2182 154.021,-113.633"/>
</g>
<!-- Node3 -->
<g id="node3" class="node">
<title>Node3</title>
<g id="a_node3"><a xlink:href="../../d4/dcc/rtc_8c.html#a36f9a08f7379a6156dfbdd5da41a8668" target="_top" xlink:title="Converts a number in binary to BCD.">
<polygon fill="none" stroke="#000000" points="148,-76.5 148,-95.5 225,-95.5 225,-76.5 148,-76.5"/>
<text text-anchor="middle" x="186.5" y="-83.5" font-family="Helvetica" font-size="10.00" fill="#000000">binary_to_bcd</text>
</a>
</g>
</g>
<!-- Node1&#45;&gt;Node3 -->
<g id="edge2" class="edge">
<title>Node1&#45;&gt;Node3</title>
<path fill="none" stroke="#191970" d="M112.1011,-75.168C120.6468,-76.4122 129.406,-77.6875 137.7768,-78.9062"/>
<polygon fill="#191970" stroke="#191970" points="137.3542,-82.3815 147.7542,-80.3588 138.3628,-75.4545 137.3542,-82.3815"/>
</g>
<!-- Node4 -->
<g id="node4" class="node">
<title>Node4</title>
<g id="a_node4"><a xlink:href="../../d4/dcc/rtc_8c.html#a01efed7ef3d173bcbbeefbde025f38ac" target="_top" xlink:title="Reads the time from the RTC.">
<polygon fill="none" stroke="#000000" points="148,-38.5 148,-57.5 225,-57.5 225,-38.5 148,-38.5"/>
<text text-anchor="middle" x="186.5" y="-45.5" font-family="Helvetica" font-size="10.00" fill="#000000">rtc_read_time</text>
</a>
</g>
</g>
<!-- Node1&#45;&gt;Node4 -->
<g id="edge3" class="edge">
<title>Node1&#45;&gt;Node4</title>
<path fill="none" stroke="#191970" d="M112.1011,-58.832C120.6468,-57.5878 129.406,-56.3125 137.7768,-55.0938"/>
<polygon fill="#191970" stroke="#191970" points="138.3628,-58.5455 147.7542,-53.6412 137.3542,-51.6185 138.3628,-58.5455"/>
</g>
<!-- Node7 -->
<g id="node7" class="node">
<title>Node7</title>
<g id="a_node7"><a xlink:href="../../d4/dcc/rtc_8c.html#ae91804ce10b51363ab8dcee2bb002c5e" target="_top" xlink:title="Sets an alarm at hours : minutes : seconds.">
<polygon fill="none" stroke="#000000" points="148.5,-.5 148.5,-19.5 224.5,-19.5 224.5,-.5 148.5,-.5"/>
<text text-anchor="middle" x="186.5" y="-7.5" font-family="Helvetica" font-size="10.00" fill="#000000">rtc_set_alarm</text>
</a>
</g>
</g>
<!-- Node1&#45;&gt;Node7 -->
<g id="edge6" class="edge">
<title>Node1&#45;&gt;Node7</title>
<path fill="none" stroke="#191970" d="M77.8428,-57.4595C99.0152,-48.2117 131.347,-34.0898 155.2414,-23.6532"/>
<polygon fill="#191970" stroke="#191970" points="156.8229,-26.7818 164.586,-19.5716 154.021,-20.367 156.8229,-26.7818"/>
</g>
<!-- Node5 -->
<g id="node5" class="node">
<title>Node5</title>
<g id="a_node5"><a xlink:href="../../d4/dcc/rtc_8c.html#abf6f23e3a37b625fce812ca09b3f35df" target="_top" xlink:title="Reads the Register reg of the RTC.">
<polygon fill="none" stroke="#000000" points="262,-38.5 262,-57.5 353,-57.5 353,-38.5 262,-38.5"/>
<text text-anchor="middle" x="307.5" y="-45.5" font-family="Helvetica" font-size="10.00" fill="#000000">rtc_read_register</text>
</a>
</g>
</g>
<!-- Node4&#45;&gt;Node5 -->
<g id="edge4" class="edge">
<title>Node4&#45;&gt;Node5</title>
<path fill="none" stroke="#191970" d="M225.1178,-48C233.5601,-48 242.6592,-48 251.6223,-48"/>
<polygon fill="#191970" stroke="#191970" points="251.6419,-51.5001 261.6419,-48 251.6418,-44.5001 251.6419,-51.5001"/>
</g>
<!-- Node6 -->
<g id="node6" class="node">
<title>Node6</title>
<g id="a_node6"><a xlink:href="../../d3/d91/utils_8c.html#a79a031a8611f5b2d6afa4158e92b0fb4" target="_top" xlink:title="Gets from port 8 bit information to value.">
<polygon fill="none" stroke="#000000" points="390,-38.5 390,-57.5 457,-57.5 457,-38.5 390,-38.5"/>
<text text-anchor="middle" x="423.5" y="-45.5" font-family="Helvetica" font-size="10.00" fill="#000000">util_sys_inb</text>
</a>
</g>
</g>
<!-- Node5&#45;&gt;Node6 -->
<g id="edge5" class="edge">
<title>Node5&#45;&gt;Node6</title>
<path fill="none" stroke="#191970" d="M353.0133,-48C361.8638,-48 371.1215,-48 379.9082,-48"/>
<polygon fill="#191970" stroke="#191970" points="379.9541,-51.5001 389.9541,-48 379.954,-44.5001 379.9541,-51.5001"/>
</g>
<!-- Node8 -->
<g id="node8" class="node">
<title>Node8</title>
<g id="a_node8"><a xlink:href="../../d4/dcc/rtc_8c.html#a9356a574f1893f56d0973dd06db6ed74" target="_top" xlink:title="Writes to the Register reg of the RTC data.">
<polygon fill="none" stroke="#000000" points="261,-.5 261,-19.5 354,-19.5 354,-.5 261,-.5"/>
<text text-anchor="middle" x="307.5" y="-7.5" font-family="Helvetica" font-size="10.00" fill="#000000">rtc_write_register</text>
</a>
</g>
</g>
<!-- Node7&#45;&gt;Node8 -->
<g id="edge7" class="edge">
<title>Node7&#45;&gt;Node8</title>
<path fill="none" stroke="#191970" d="M224.7852,-10C233.046,-10 241.9485,-10 250.745,-10"/>
<polygon fill="#191970" stroke="#191970" points="250.9779,-13.5001 260.9778,-10 250.9778,-6.5001 250.9779,-13.5001"/>
</g>
</g>
</svg>
