<?xml version="1.0" encoding="UTF-8" standalone="no"?>
<!DOCTYPE svg PUBLIC "-//W3C//DTD SVG 1.1//EN"
 "http://www.w3.org/Graphics/SVG/1.1/DTD/svg11.dtd">
<!-- Generated by graphviz version 2.40.1 (20161225.0304)
 -->
<!-- Title: rtc_set_periodic Pages: 1 -->
<svg width="325pt" height="66pt"
 viewBox="0.00 0.00 325.00 66.00" xmlns="http://www.w3.org/2000/svg" xmlns:xlink="http://www.w3.org/1999/xlink">
<g id="graph0" class="graph" transform="scale(1 1) rotate(0) translate(4 62)">
<title>rtc_set_periodic</title>
<!-- Node1 -->
<g id="node1" class="node">
<title>Node1</title>
<g id="a_node1"><a xlink:title="Sets the periodic interrupts time to send interrupts every delta_t.">
<polygon fill="#bfbfbf" stroke="#000000" points="0,-19.5 0,-38.5 85,-38.5 85,-19.5 0,-19.5"/>
<text text-anchor="middle" x="42.5" y="-26.5" font-family="Helvetica" font-size="10.00" fill="#000000">rtc_set_periodic</text>
</a>
</g>
</g>
<!-- Node2 -->
<g id="node2" class="node">
<title>Node2</title>
<g id="a_node2"><a xlink:href="../../d4/dcc/rtc_8c.html#abf6f23e3a37b625fce812ca09b3f35df" target="_top" xlink:title="Reads the Register reg of the RTC.">
<polygon fill="none" stroke="#000000" points="122,-38.5 122,-57.5 213,-57.5 213,-38.5 122,-38.5"/>
<text text-anchor="middle" x="167.5" y="-45.5" font-family="Helvetica" font-size="10.00" fill="#000000">rtc_read_register</text>
</a>
</g>
</g>
<!-- Node1&#45;&gt;Node2 -->
<g id="edge1" class="edge">
<title>Node1&#45;&gt;Node2</title>
<path fill="none" stroke="#191970" d="M85.1683,-35.4856C93.6985,-36.7822 102.7785,-38.1623 111.676,-39.5147"/>
<polygon fill="#191970" stroke="#191970" points="111.1924,-42.9814 121.6049,-41.0239 112.2444,-36.0609 111.1924,-42.9814"/>
</g>
<!-- Node4 -->
<g id="node4" class="node">
<title>Node4</title>
<g id="a_node4"><a xlink:href="../../d4/dcc/rtc_8c.html#a9356a574f1893f56d0973dd06db6ed74" target="_top" xlink:title="Writes to the Register reg of the RTC data.">
<polygon fill="none" stroke="#000000" points="121,-.5 121,-19.5 214,-19.5 214,-.5 121,-.5"/>
<text text-anchor="middle" x="167.5" y="-7.5" font-family="Helvetica" font-size="10.00" fill="#000000">rtc_write_register</text>
</a>
</g>
</g>
<!-- Node1&#45;&gt;Node4 -->
<g id="edge3" class="edge">
<title>Node1&#45;&gt;Node4</title>
<path fill="none" stroke="#191970" d="M85.1683,-22.5144C93.4034,-21.2627 102.151,-19.933 110.752,-18.6257"/>
<polygon fill="#191970" stroke="#191970" points="111.3817,-22.0703 120.7421,-17.1072 110.3297,-15.1498 111.3817,-22.0703"/>
</g>
<!-- Node3 -->
<g id="node3" class="node">
<title>Node3</title>
<g id="a_node3"><a xlink:href="../../d3/d91/utils_8c.html#a79a031a8611f5b2d6afa4158e92b0fb4" target="_top" xlink:title="Gets from port 8 bit information to value.">
<polygon fill="none" stroke="#000000" points="250,-38.5 250,-57.5 317,-57.5 317,-38.5 250,-38.5"/>
<text text-anchor="middle" x="283.5" y="-45.5" font-family="Helvetica" font-size="10.00" fill="#000000">util_sys_inb</text>
</a>
</g>
</g>
<!-- Node2&#45;&gt;Node3 -->
<g id="edge2" class="edge">
<title>Node2&#45;&gt;Node3</title>
<path fill="none" stroke="#191970" d="M213.0133,-48C221.8638,-48 231.1215,-48 239.9082,-48"/>
<polygon fill="#191970" stroke="#191970" points="239.9541,-51.5001 249.9541,-48 239.954,-44.5001 239.9541,-51.5001"/>
</g>
</g>
</svg>
