<?xml version="1.0" encoding="UTF-8" standalone="no"?>
<!DOCTYPE svg PUBLIC "-//W3C//DTD SVG 1.1//EN"
 "http://www.w3.org/Graphics/SVG/1.1/DTD/svg11.dtd">
<!-- Generated by graphviz version 2.40.1 (20161225.0304)
 -->
<!-- Title: rtc_write_register Pages: 1 -->
<svg width="839pt" height="94pt"
 viewBox="0.00 0.00 839.00 94.00" xmlns="http://www.w3.org/2000/svg" xmlns:xlink="http://www.w3.org/1999/xlink">
<g id="graph0" class="graph" transform="scale(1 1) rotate(0) translate(4 90)">
<title>rtc_write_register</title>
<!-- Node1 -->
<g id="node1" class="node">
<title>Node1</title>
<g id="a_node1"><a xlink:title="Writes to the Register reg of the RTC data.">
<polygon fill="#bfbfbf" stroke="#000000" points="738,-38.5 738,-57.5 831,-57.5 831,-38.5 738,-38.5"/>
<text text-anchor="middle" x="784.5" y="-45.5" font-family="Helvetica" font-size="10.00" fill="#000000">rtc_write_register</text>
</a>
</g>
</g>
<!-- Node2 -->
<g id="node2" class="node">
<title>Node2</title>
<g id="a_node2"><a xlink:href="../../df/def/_l_c_o_m_8c.html#a2a16f651eccbd248e1ad3b3b924b143b" target="_top" xlink:title=" ">
<polygon fill="none" stroke="#000000" points="0,-57.5 0,-76.5 83,-76.5 83,-57.5 0,-57.5"/>
<text text-anchor="middle" x="41.5" y="-64.5" font-family="Helvetica" font-size="10.00" fill="#000000">proj_main_loop</text>
</a>
</g>
</g>
<!-- Node1&#45;&gt;Node2 -->
<g id="edge1" class="edge">
<title>Node1&#45;&gt;Node2</title>
<path fill="none" stroke="#191970" d="M737.4305,-59.8608C725.8961,-62.4844 713.5467,-65.0578 702,-67 623.9775,-80.1238 604.1186,-86 525,-86 525,-86 525,-86 264.5,-86 201.1655,-86 128.0769,-78.2972 83.332,-72.7006"/>
<polygon fill="#191970" stroke="#191970" points="738.3718,-63.2354 747.3164,-57.5569 736.7829,-56.418 738.3718,-63.2354"/>
</g>
<!-- Node3 -->
<g id="node3" class="node">
<title>Node3</title>
<g id="a_node3"><a xlink:href="../../dc/d1b/rtc_8h.html#ae91804ce10b51363ab8dcee2bb002c5e" target="_top" xlink:title="Sets an alarm at hours : minutes : seconds.">
<polygon fill="none" stroke="#000000" points="621.5,-38.5 621.5,-57.5 697.5,-57.5 697.5,-38.5 621.5,-38.5"/>
<text text-anchor="middle" x="659.5" y="-45.5" font-family="Helvetica" font-size="10.00" fill="#000000">rtc_set_alarm</text>
</a>
</g>
</g>
<!-- Node1&#45;&gt;Node3 -->
<g id="edge2" class="edge">
<title>Node1&#45;&gt;Node3</title>
<path fill="none" stroke="#191970" d="M727.8061,-48C717.5461,-48 707.0755,-48 697.5132,-48"/>
<polygon fill="#191970" stroke="#191970" points="727.9546,-51.5001 737.9546,-48 727.9546,-44.5001 727.9546,-51.5001"/>
</g>
<!-- Node8 -->
<g id="node8" class="node">
<title>Node8</title>
<g id="a_node8"><a xlink:href="../../dc/d1b/rtc_8h.html#a0b956beb30165538fcd684d0ee75b1a6" target="_top" xlink:title="Sets the periodic interrupts time to send interrupts every delta_t.">
<polygon fill="none" stroke="#000000" points="617,-.5 617,-19.5 702,-19.5 702,-.5 617,-.5"/>
<text text-anchor="middle" x="659.5" y="-7.5" font-family="Helvetica" font-size="10.00" fill="#000000">rtc_set_periodic</text>
</a>
</g>
</g>
<!-- Node1&#45;&gt;Node8 -->
<g id="edge8" class="edge">
<title>Node1&#45;&gt;Node8</title>
<path fill="none" stroke="#191970" d="M743.2655,-35.4647C726.2607,-30.2952 706.8714,-24.4009 691.0327,-19.5859"/>
<polygon fill="#191970" stroke="#191970" points="742.3715,-38.851 752.9572,-38.411 744.4076,-32.1537 742.3715,-38.851"/>
</g>
<!-- Node4 -->
<g id="node4" class="node">
<title>Node4</title>
<g id="a_node4"><a xlink:href="../../dc/d1b/rtc_8h.html#adb4289b2015a3ec052bae20542244311" target="_top" xlink:title="Sets an alarm at current_time + delta_seconds.">
<polygon fill="none" stroke="#000000" points="469,-38.5 469,-57.5 581,-57.5 581,-38.5 469,-38.5"/>
<text text-anchor="middle" x="525" y="-45.5" font-family="Helvetica" font-size="10.00" fill="#000000">rtc_set_alarm_delta_s</text>
</a>
</g>
</g>
<!-- Node3&#45;&gt;Node4 -->
<g id="edge3" class="edge">
<title>Node3&#45;&gt;Node4</title>
<path fill="none" stroke="#191970" d="M611.0447,-48C601.3326,-48 591.0519,-48 581.1057,-48"/>
<polygon fill="#191970" stroke="#191970" points="611.3175,-51.5001 621.3175,-48 611.3174,-44.5001 611.3175,-51.5001"/>
</g>
<!-- Node5 -->
<g id="node5" class="node">
<title>Node5</title>
<g id="a_node5"><a xlink:href="../../d3/d62/player_8h.html#aa281b82564297b42eb7b3bf734650e36" target="_top" xlink:title="The spearman uses its special ability.">
<polygon fill="none" stroke="#000000" points="339,-38.5 339,-57.5 433,-57.5 433,-38.5 339,-38.5"/>
<text text-anchor="middle" x="386" y="-45.5" font-family="Helvetica" font-size="10.00" fill="#000000">spearman_special</text>
</a>
</g>
</g>
<!-- Node4&#45;&gt;Node5 -->
<g id="edge4" class="edge">
<title>Node4&#45;&gt;Node5</title>
<path fill="none" stroke="#191970" d="M458.8522,-48C450.2701,-48 441.6196,-48 433.4259,-48"/>
<polygon fill="#191970" stroke="#191970" points="458.8641,-51.5001 468.864,-48 458.864,-44.5001 458.8641,-51.5001"/>
</g>
<!-- Node6 -->
<g id="node6" class="node">
<title>Node6</title>
<g id="a_node6"><a xlink:href="../../d3/d62/player_8h.html#a43024b59b971eee693bdf802580d046e" target="_top" xlink:title="The spearman acts acording to action in PA.">
<polygon fill="none" stroke="#000000" points="226,-38.5 226,-57.5 303,-57.5 303,-38.5 226,-38.5"/>
<text text-anchor="middle" x="264.5" y="-45.5" font-family="Helvetica" font-size="10.00" fill="#000000">spearman_act</text>
</a>
</g>
</g>
<!-- Node5&#45;&gt;Node6 -->
<g id="edge5" class="edge">
<title>Node5&#45;&gt;Node6</title>
<path fill="none" stroke="#191970" d="M328.6571,-48C320.0504,-48 311.3523,-48 303.2565,-48"/>
<polygon fill="#191970" stroke="#191970" points="328.6771,-51.5001 338.677,-48 328.677,-44.5001 328.6771,-51.5001"/>
</g>
<!-- Node7 -->
<g id="node7" class="node">
<title>Node7</title>
<g id="a_node7"><a xlink:href="../../dd/d65/game__helper_8h.html#ac2e814f8670e374692b399122563067d" target="_top" xlink:title="Performs all game logic and displaying that occurs every frame depending on the game state.">
<polygon fill="none" stroke="#000000" points="119,-38.5 119,-57.5 190,-57.5 190,-38.5 119,-38.5"/>
<text text-anchor="middle" x="154.5" y="-45.5" font-family="Helvetica" font-size="10.00" fill="#000000">on_timer_int</text>
</a>
</g>
</g>
<!-- Node6&#45;&gt;Node7 -->
<g id="edge6" class="edge">
<title>Node6&#45;&gt;Node7</title>
<path fill="none" stroke="#191970" d="M215.5354,-48C207.0638,-48 198.3988,-48 190.3576,-48"/>
<polygon fill="#191970" stroke="#191970" points="215.7181,-51.5001 225.7181,-48 215.7181,-44.5001 215.7181,-51.5001"/>
</g>
<!-- Node7&#45;&gt;Node2 -->
<g id="edge7" class="edge">
<title>Node7&#45;&gt;Node2</title>
<path fill="none" stroke="#191970" d="M108.7225,-55.6971C100.3288,-57.1084 91.6073,-58.5749 83.3362,-59.9656"/>
<polygon fill="#191970" stroke="#191970" points="109.4649,-59.1215 118.7461,-54.0117 108.3041,-52.2184 109.4649,-59.1215"/>
</g>
</g>
</svg>
