<?xml version="1.0" encoding="UTF-8" standalone="no"?>
<!DOCTYPE svg PUBLIC "-//W3C//DTD SVG 1.1//EN"
 "http://www.w3.org/Graphics/SVG/1.1/DTD/svg11.dtd">
<!-- Generated by graphviz version 2.40.1 (20161225.0304)
 -->
<!-- Title: rtc_read_time Pages: 1 -->
<!--zoomable 142 -->
<svg id="main" version="1.1" xmlns="http://www.w3.org/2000/svg" xmlns:xlink="http://www.w3.org/1999/xlink" xml:space="preserve" onload="init(evt)">
<style type="text/css"><![CDATA[
.edge:hover path { stroke: red; }
.edge:hover polygon { stroke: red; fill: red; }
]]></style>
<script type="text/javascript"><![CDATA[
var edges = document.getElementsByTagName('g');
if (edges && edges.length) {
  for (var i=0;i<edges.length;i++) {
    if (edges[i].id.substr(0,4)=='edge') {
      edges[i].setAttribute('class','edge');
    }
  }
}
]]></script>
        <defs>
                <circle id="rim" cx="0" cy="0" r="7"/>
                <circle id="rim2" cx="0" cy="0" r="3.5"/>
                <g id="zoomPlus">
                        <use xlink:href="#rim" fill="#404040">
                                <set attributeName="fill" to="#808080" begin="zoomplus.mouseover" end="zoomplus.mouseout"/>
                        </use>
                        <path d="M-4,0h8M0,-4v8" fill="none" stroke="white" stroke-width="1.5" pointer-events="none"/>
                </g>
                <g id="zoomMin">
                        <use xlink:href="#rim" fill="#404040">
                                <set attributeName="fill" to="#808080" begin="zoomminus.mouseover" end="zoomminus.mouseout"/>
                        </use>
                        <path d="M-4,0h8" fill="none" stroke="white" stroke-width="1.5" pointer-events="none"/>
                </g>
                <g id="dirArrow">
                        <path fill="none" stroke="white" stroke-width="1.5" d="M0,-3.0v7 M-2.5,-0.5L0,-3.0L2.5,-0.5"/>
                </g>
               <g id="resetDef">
                       <use xlink:href="#rim2" fill="#404040">
                               <set attributeName="fill" to="#808080" begin="reset.mouseover" end="reset.mouseout"/>
                       </use>
               </g>
        </defs>

<script type="text/javascript">
var viewWidth = 749;
var viewHeight = 142;
var sectionId = 'dynsection-9';
</script>
<script xlink:href="../../svgpan.js"/>
<svg id="graph" class="graph">
<g id="viewport">
<title>rtc_read_time</title>
<!-- Node1 -->
<g id="node1" class="node">
<title>Node1</title>
<g id="a_node1"><a xlink:title="Reads the time from the RTC.">
<polygon fill="#bfbfbf" stroke="#000000" points="664,-38.5 664,-57.5 741,-57.5 741,-38.5 664,-38.5"/>
<text text-anchor="middle" x="702.5" y="-45.5" font-family="Helvetica" font-size="10.00" fill="#000000">rtc_read_time</text>
</a>
</g>
</g>
<!-- Node2 -->
<g id="node2" class="node">
<title>Node2</title>
<g id="a_node2"><a xlink:href="../../dd/d65/game__helper_8h.html#aa1ee142c726e35646cf2262524f54d14" target="_top" xlink:title="Generates the random enemy board on the grid.">
<polygon fill="none" stroke="#000000" points="265,-76.5 265,-95.5 350,-95.5 350,-76.5 265,-76.5"/>
<text text-anchor="middle" x="307.5" y="-83.5" font-family="Helvetica" font-size="10.00" fill="#000000">create_enemies</text>
</a>
</g>
</g>
<!-- Node1&#45;&gt;Node2 -->
<g id="edge1" class="edge">
<title>Node1&#45;&gt;Node2</title>
<path fill="none" stroke="#191970" d="M654.0089,-57.9175C645.373,-59.4535 636.441,-60.8943 628,-62 528.9673,-74.9723 411.731,-81.5374 350.1655,-84.3131"/>
<polygon fill="#191970" stroke="#191970" points="654.7624,-61.3377 663.9635,-56.0851 653.4951,-54.4534 654.7624,-61.3377"/>
</g>
<!-- Node6 -->
<g id="node6" class="node">
<title>Node6</title>
<g id="a_node6"><a xlink:href="../../dc/d1b/rtc_8h.html#a2f5c62ef4118ce8c03eaa21181ebee4d" target="_top" xlink:title="RTC interrupt handler.">
<polygon fill="none" stroke="#000000" points="412.5,-38.5 412.5,-57.5 453.5,-57.5 453.5,-38.5 412.5,-38.5"/>
<text text-anchor="middle" x="433" y="-45.5" font-family="Helvetica" font-size="10.00" fill="#000000">rtc_ih</text>
</a>
</g>
</g>
<!-- Node1&#45;&gt;Node6 -->
<g id="edge6" class="edge">
<title>Node1&#45;&gt;Node6</title>
<path fill="none" stroke="#191970" d="M653.5885,-48C593.9958,-48 496.029,-48 453.6267,-48"/>
<polygon fill="#191970" stroke="#191970" points="653.8873,-51.5001 663.8872,-48 653.8872,-44.5001 653.8873,-51.5001"/>
</g>
<!-- Node7 -->
<g id="node7" class="node">
<title>Node7</title>
<g id="a_node7"><a xlink:href="../../dc/d1b/rtc_8h.html#adb4289b2015a3ec052bae20542244311" target="_top" xlink:title="Sets an alarm at current_time + delta_seconds.">
<polygon fill="none" stroke="#000000" points="516,-.5 516,-19.5 628,-19.5 628,-.5 516,-.5"/>
<text text-anchor="middle" x="572" y="-7.5" font-family="Helvetica" font-size="10.00" fill="#000000">rtc_set_alarm_delta_s</text>
</a>
</g>
</g>
<!-- Node1&#45;&gt;Node7 -->
<g id="edge8" class="edge">
<title>Node1&#45;&gt;Node7</title>
<path fill="none" stroke="#191970" d="M659.9482,-35.6094C642.0768,-30.4055 621.6103,-24.4459 604.9201,-19.5859"/>
<polygon fill="#191970" stroke="#191970" points="658.9896,-38.9756 669.5693,-38.411 660.9466,-32.2547 658.9896,-38.9756"/>
</g>
<!-- Node3 -->
<g id="node3" class="node">
<title>Node3</title>
<g id="a_node3"><a xlink:href="../../dd/d65/game__helper_8h.html#a72c30bee155342f972c892a5a8d4a175" target="_top" xlink:title="Processes the input that comes from the mouse and executes the associated logic.">
<polygon fill="none" stroke="#000000" points="119,-114.5 119,-133.5 229,-133.5 229,-114.5 119,-114.5"/>
<text text-anchor="middle" x="174" y="-121.5" font-family="Helvetica" font-size="10.00" fill="#000000">process_mouse_input</text>
</a>
</g>
</g>
<!-- Node2&#45;&gt;Node3 -->
<g id="edge2" class="edge">
<title>Node2&#45;&gt;Node3</title>
<path fill="none" stroke="#191970" d="M263.97,-98.3906C245.6878,-103.5945 224.7508,-109.5541 207.6769,-114.4141"/>
<polygon fill="#191970" stroke="#191970" points="265.1526,-101.6931 273.8123,-95.589 263.2361,-94.9605 265.1526,-101.6931"/>
</g>
<!-- Node5 -->
<g id="node5" class="node">
<title>Node5</title>
<g id="a_node5"><a xlink:href="../../dd/d65/game__helper_8h.html#a03d9f7e90ecc6a670f43c0510bf272c0" target="_top" xlink:title="Processes the incoming packet from the UART (COM1) and executes the associated logic.">
<polygon fill="none" stroke="#000000" points="121,-76.5 121,-95.5 227,-95.5 227,-76.5 121,-76.5"/>
<text text-anchor="middle" x="174" y="-83.5" font-family="Helvetica" font-size="10.00" fill="#000000">process_uart_packet</text>
</a>
</g>
</g>
<!-- Node2&#45;&gt;Node5 -->
<g id="edge4" class="edge">
<title>Node2&#45;&gt;Node5</title>
<path fill="none" stroke="#191970" d="M254.6084,-86C245.6775,-86 236.4004,-86 227.4553,-86"/>
<polygon fill="#191970" stroke="#191970" points="254.8928,-89.5001 264.8927,-86 254.8927,-82.5001 254.8928,-89.5001"/>
</g>
<!-- Node4 -->
<g id="node4" class="node">
<title>Node4</title>
<g id="a_node4"><a xlink:href="../../df/def/_l_c_o_m_8c.html#a2a16f651eccbd248e1ad3b3b924b143b" target="_top" xlink:title=" ">
<polygon fill="none" stroke="#000000" points="0,-57.5 0,-76.5 83,-76.5 83,-57.5 0,-57.5"/>
<text text-anchor="middle" x="41.5" y="-64.5" font-family="Helvetica" font-size="10.00" fill="#000000">proj_main_loop</text>
</a>
</g>
</g>
<!-- Node3&#45;&gt;Node4 -->
<g id="edge3" class="edge">
<title>Node3&#45;&gt;Node4</title>
<path fill="none" stroke="#191970" d="M134.2459,-110.9213C129.0798,-109.0308 123.8881,-107.0336 119,-105 98.1082,-96.3084 74.8987,-84.6494 59.3743,-76.5475"/>
<polygon fill="#191970" stroke="#191970" points="133.4678,-114.3591 144.0625,-114.4069 135.8101,-107.7626 133.4678,-114.3591"/>
</g>
<!-- Node5&#45;&gt;Node4 -->
<g id="edge5" class="edge">
<title>Node5&#45;&gt;Node4</title>
<path fill="none" stroke="#191970" d="M110.7852,-76.9352C101.4289,-75.5936 91.9916,-74.2403 83.2221,-72.9828"/>
<polygon fill="#191970" stroke="#191970" points="110.4751,-80.4265 120.8706,-78.3815 111.4687,-73.4974 110.4751,-80.4265"/>
</g>
<!-- Node6&#45;&gt;Node4 -->
<g id="edge7" class="edge">
<title>Node6&#45;&gt;Node4</title>
<path fill="none" stroke="#191970" d="M401.8838,-49.5101C331.9112,-52.906 162.1126,-61.1465 83.1543,-64.9785"/>
<polygon fill="#191970" stroke="#191970" points="402.4091,-52.9888 412.2277,-49.0081 402.0697,-45.9971 402.4091,-52.9888"/>
</g>
<!-- Node8 -->
<g id="node8" class="node">
<title>Node8</title>
<g id="a_node8"><a xlink:href="../../d3/d62/player_8h.html#aa281b82564297b42eb7b3bf734650e36" target="_top" xlink:title="The spearman uses its special ability.">
<polygon fill="none" stroke="#000000" points="386,-.5 386,-19.5 480,-19.5 480,-.5 386,-.5"/>
<text text-anchor="middle" x="433" y="-7.5" font-family="Helvetica" font-size="10.00" fill="#000000">spearman_special</text>
</a>
</g>
</g>
<!-- Node7&#45;&gt;Node8 -->
<g id="edge9" class="edge">
<title>Node7&#45;&gt;Node8</title>
<path fill="none" stroke="#191970" d="M505.8522,-10C497.2701,-10 488.6196,-10 480.4259,-10"/>
<polygon fill="#191970" stroke="#191970" points="505.8641,-13.5001 515.864,-10 505.864,-6.5001 505.8641,-13.5001"/>
</g>
<!-- Node9 -->
<g id="node9" class="node">
<title>Node9</title>
<g id="a_node9"><a xlink:href="../../d3/d62/player_8h.html#a43024b59b971eee693bdf802580d046e" target="_top" xlink:title="The spearman acts acording to action in PA.">
<polygon fill="none" stroke="#000000" points="269,-.5 269,-19.5 346,-19.5 346,-.5 269,-.5"/>
<text text-anchor="middle" x="307.5" y="-7.5" font-family="Helvetica" font-size="10.00" fill="#000000">spearman_act</text>
</a>
</g>
</g>
<!-- Node8&#45;&gt;Node9 -->
<g id="edge10" class="edge">
<title>Node8&#45;&gt;Node9</title>
<path fill="none" stroke="#191970" d="M375.6471,-10C365.6934,-10 355.5573,-10 346.2504,-10"/>
<polygon fill="#191970" stroke="#191970" points="375.9114,-13.5001 385.9114,-10 375.9113,-6.5001 375.9114,-13.5001"/>
</g>
<!-- Node10 -->
<g id="node10" class="node">
<title>Node10</title>
<g id="a_node10"><a xlink:href="../../dd/d65/game__helper_8h.html#ac2e814f8670e374692b399122563067d" target="_top" xlink:title="Performs all game logic and displaying that occurs every frame depending on the game state.">
<polygon fill="none" stroke="#000000" points="138.5,-.5 138.5,-19.5 209.5,-19.5 209.5,-.5 138.5,-.5"/>
<text text-anchor="middle" x="174" y="-7.5" font-family="Helvetica" font-size="10.00" fill="#000000">on_timer_int</text>
</a>
</g>
</g>
<!-- Node9&#45;&gt;Node10 -->
<g id="edge11" class="edge">
<title>Node9&#45;&gt;Node10</title>
<path fill="none" stroke="#191970" d="M258.5373,-10C242.3944,-10 224.7542,-10 209.7838,-10"/>
<polygon fill="#191970" stroke="#191970" points="258.8863,-13.5001 268.8863,-10 258.8862,-6.5001 258.8863,-13.5001"/>
</g>
<!-- Node10&#45;&gt;Node4 -->
<g id="edge12" class="edge">
<title>Node10&#45;&gt;Node4</title>
<path fill="none" stroke="#191970" d="M142.3439,-23.6181C118.1025,-34.0465 85.2722,-48.1697 63.7499,-57.4284"/>
<polygon fill="#191970" stroke="#191970" points="144.0195,-26.7074 151.8225,-19.5405 141.2533,-20.2772 144.0195,-26.7074"/>
</g>
</g>
</svg>
        <g id="navigator" transform="translate(0 0)" fill="#404254">
                <rect fill="#f2f5e9" fill-opacity="0.5" stroke="#606060" stroke-width=".5" x="0" y="0" width="60" height="60"/>
                <use id="zoomplus" xlink:href="#zoomPlus" x="17" y="9" onmousedown="handleZoom(evt,'in')"/>
                <use id="zoomminus" xlink:href="#zoomMin" x="42" y="9" onmousedown="handleZoom(evt,'out')"/>
                <use id="reset" xlink:href="#resetDef" x="30" y="36" onmousedown="handleReset()"/>
                <g id="arrowUp" xlink:href="#dirArrow" transform="translate(30 24)" onmousedown="handlePan(0,-1)">
                  <use xlink:href="#rim" fill="#404040">
                        <set attributeName="fill" to="#808080" begin="arrowUp.mouseover" end="arrowUp.mouseout"/>
                  </use>
                  <path fill="none" stroke="white" stroke-width="1.5" d="M0,-3.0v7 M-2.5,-0.5L0,-3.0L2.5,-0.5"/>
                </g>
                <g id="arrowRight" xlink:href="#dirArrow" transform="rotate(90) translate(36 -43)" onmousedown="handlePan(1,0)">
                  <use xlink:href="#rim" fill="#404040">
                        <set attributeName="fill" to="#808080" begin="arrowRight.mouseover" end="arrowRight.mouseout"/>
                  </use>
                  <path fill="none" stroke="white" stroke-width="1.5" d="M0,-3.0v7 M-2.5,-0.5L0,-3.0L2.5,-0.5"/>
                </g>
                <g id="arrowDown" xlink:href="#dirArrow" transform="rotate(180) translate(-30 -48)" onmousedown="handlePan(0,1)">
                  <use xlink:href="#rim" fill="#404040">
                        <set attributeName="fill" to="#808080" begin="arrowDown.mouseover" end="arrowDown.mouseout"/>
                  </use>
                  <path fill="none" stroke="white" stroke-width="1.5" d="M0,-3.0v7 M-2.5,-0.5L0,-3.0L2.5,-0.5"/>
                </g>
                <g id="arrowLeft" xlink:href="#dirArrow" transform="rotate(270) translate(-36 17)" onmousedown="handlePan(-1,0)">
                  <use xlink:href="#rim" fill="#404040">
                        <set attributeName="fill" to="#808080" begin="arrowLeft.mouseover" end="arrowLeft.mouseout"/>
                  </use>
                  <path fill="none" stroke="white" stroke-width="1.5" d="M0,-3.0v7 M-2.5,-0.5L0,-3.0L2.5,-0.5"/>
                </g>
        </g>
        <svg viewBox="0 0 15 15" width="100%" height="30px" preserveAspectRatio="xMaxYMin meet">
         <g id="arrow_out" transform="scale(0.3 0.3)">
          <a xlink:href="rtc_8h_a01efed7ef3d173bcbbeefbde025f38ac_icgraph_org.svg" target="_base">
           <rect id="button" ry="5" rx="5" y="6" x="6" height="38" width="38"
                fill="#f2f5e9" fill-opacity="0.5" stroke="#606060" stroke-width="1.0"/>
           <path id="arrow"
             d="M 11.500037,31.436501 C 11.940474,20.09759 22.043105,11.32322 32.158766,21.979434 L 37.068811,17.246167 C 37.068811,17.246167 37.088388,32 37.088388,32 L 22.160133,31.978069 C 22.160133,31.978069 26.997745,27.140456 26.997745,27.140456 C 18.528582,18.264221 13.291696,25.230495 11.500037,31.436501 z"
             style="fill:#404040;"/>
          </a>
         </g>
        </svg>
</svg>
