<?xml version="1.0" encoding="UTF-8" standalone="no"?>
<!DOCTYPE svg PUBLIC "-//W3C//DTD SVG 1.1//EN"
 "http://www.w3.org/Graphics/SVG/1.1/DTD/svg11.dtd">
<!-- Generated by graphviz version 2.40.1 (20161225.0304)
 -->
<!-- Title: rtc_ih Pages: 1 -->
<svg width="392pt" height="47pt"
 viewBox="0.00 0.00 392.00 47.00" xmlns="http://www.w3.org/2000/svg" xmlns:xlink="http://www.w3.org/1999/xlink">
<g id="graph0" class="graph" transform="scale(1 1) rotate(0) translate(4 43)">
<title>rtc_ih</title>
<!-- Node1 -->
<g id="node1" class="node">
<title>Node1</title>
<g id="a_node1"><a xlink:title="RTC interrupt handler.">
<polygon fill="#bfbfbf" stroke="#000000" points="0,-19.5 0,-38.5 41,-38.5 41,-19.5 0,-19.5"/>
<text text-anchor="middle" x="20.5" y="-26.5" font-family="Helvetica" font-size="10.00" fill="#000000">rtc_ih</text>
</a>
</g>
</g>
<!-- Node2 -->
<g id="node2" class="node">
<title>Node2</title>
<g id="a_node2"><a xlink:href="../../d4/dcc/rtc_8c.html#abf6f23e3a37b625fce812ca09b3f35df" target="_top" xlink:title="Reads the Register reg of the RTC.">
<polygon fill="none" stroke="#000000" points="190,-19.5 190,-38.5 281,-38.5 281,-19.5 190,-19.5"/>
<text text-anchor="middle" x="235.5" y="-26.5" font-family="Helvetica" font-size="10.00" fill="#000000">rtc_read_register</text>
</a>
</g>
</g>
<!-- Node1&#45;&gt;Node2 -->
<g id="edge1" class="edge">
<title>Node1&#45;&gt;Node2</title>
<path fill="none" stroke="#191970" d="M41.1151,-29C72.7741,-29 134.4621,-29 179.8881,-29"/>
<polygon fill="#191970" stroke="#191970" points="179.8958,-32.5001 189.8958,-29 179.8958,-25.5001 179.8958,-32.5001"/>
</g>
<!-- Node4 -->
<g id="node4" class="node">
<title>Node4</title>
<g id="a_node4"><a xlink:href="../../d4/dcc/rtc_8c.html#a01efed7ef3d173bcbbeefbde025f38ac" target="_top" xlink:title="Reads the time from the RTC.">
<polygon fill="none" stroke="#000000" points="77,-.5 77,-19.5 154,-19.5 154,-.5 77,-.5"/>
<text text-anchor="middle" x="115.5" y="-7.5" font-family="Helvetica" font-size="10.00" fill="#000000">rtc_read_time</text>
</a>
</g>
</g>
<!-- Node1&#45;&gt;Node4 -->
<g id="edge3" class="edge">
<title>Node1&#45;&gt;Node4</title>
<path fill="none" stroke="#191970" d="M41.1136,-24.8773C48.8081,-23.3384 57.906,-21.5188 67.0509,-19.6898"/>
<polygon fill="#191970" stroke="#191970" points="67.809,-23.1076 76.9283,-17.7143 66.4361,-16.2435 67.809,-23.1076"/>
</g>
<!-- Node3 -->
<g id="node3" class="node">
<title>Node3</title>
<g id="a_node3"><a xlink:href="../../d3/d91/utils_8c.html#a79a031a8611f5b2d6afa4158e92b0fb4" target="_top" xlink:title="Gets from port 8 bit information to value.">
<polygon fill="none" stroke="#000000" points="317,-19.5 317,-38.5 384,-38.5 384,-19.5 317,-19.5"/>
<text text-anchor="middle" x="350.5" y="-26.5" font-family="Helvetica" font-size="10.00" fill="#000000">util_sys_inb</text>
</a>
</g>
</g>
<!-- Node2&#45;&gt;Node3 -->
<g id="edge2" class="edge">
<title>Node2&#45;&gt;Node3</title>
<path fill="none" stroke="#191970" d="M281.2815,-29C289.6493,-29 298.3629,-29 306.6721,-29"/>
<polygon fill="#191970" stroke="#191970" points="306.9245,-32.5001 316.9245,-29 306.9244,-25.5001 306.9245,-32.5001"/>
</g>
<!-- Node4&#45;&gt;Node2 -->
<g id="edge4" class="edge">
<title>Node4&#45;&gt;Node2</title>
<path fill="none" stroke="#191970" d="M154.1293,-16.1163C162.304,-17.4106 171.0876,-18.8014 179.7522,-20.1733"/>
<polygon fill="#191970" stroke="#191970" points="179.4013,-23.6612 189.8256,-21.7682 180.496,-16.7473 179.4013,-23.6612"/>
</g>
</g>
</svg>
