<?xml version="1.0" encoding="UTF-8" standalone="no"?>
<!DOCTYPE svg PUBLIC "-//W3C//DTD SVG 1.1//EN"
 "http://www.w3.org/Graphics/SVG/1.1/DTD/svg11.dtd">
<!-- Generated by graphviz version 2.40.1 (20161225.0304)
 -->
<!-- Title: enemies.c Pages: 1 -->
<svg width="277pt" height="252pt"
 viewBox="0.00 0.00 277.31 252.00" xmlns="http://www.w3.org/2000/svg" xmlns:xlink="http://www.w3.org/1999/xlink">
<g id="graph0" class="graph" transform="scale(1 1) rotate(0) translate(4 248)">
<title>enemies.c</title>
<!-- Node1 -->
<g id="node1" class="node">
<title>Node1</title>
<g id="a_node1"><a xlink:title=" ">
<polygon fill="#bfbfbf" stroke="#000000" points="93.3145,-224.5 93.3145,-243.5 153.3145,-243.5 153.3145,-224.5 93.3145,-224.5"/>
<text text-anchor="middle" x="123.3145" y="-231.5" font-family="Helvetica" font-size="10.00" fill="#000000">enemies.c</text>
</a>
</g>
</g>
<!-- Node2 -->
<g id="node2" class="node">
<title>Node2</title>
<g id="a_node2"><a xlink:title=" ">
<polygon fill="none" stroke="#bfbfbf" points="14.8145,-.5 14.8145,-19.5 73.8145,-19.5 73.8145,-.5 14.8145,-.5"/>
<text text-anchor="middle" x="44.3145" y="-7.5" font-family="Helvetica" font-size="10.00" fill="#000000">lcom/lcf.h</text>
</a>
</g>
</g>
<!-- Node1&#45;&gt;Node2 -->
<g id="edge1" class="edge">
<title>Node1&#45;&gt;Node2</title>
<path fill="none" stroke="#191970" d="M93.2675,-230.4178C67.4603,-225.5774 31.7436,-214.273 14.3145,-188 -18.7976,-138.0861 14.257,-63.4823 33.1342,-28.8797"/>
<polygon fill="#191970" stroke="#191970" points="36.3567,-30.2915 38.2328,-19.8641 30.2635,-26.8457 36.3567,-30.2915"/>
</g>
<!-- Node3 -->
<g id="node3" class="node">
<title>Node3</title>
<g id="a_node3"><a xlink:title=" ">
<polygon fill="none" stroke="#bfbfbf" points="104.8145,-.5 104.8145,-19.5 173.8145,-19.5 173.8145,-.5 104.8145,-.5"/>
<text text-anchor="middle" x="139.3145" y="-7.5" font-family="Helvetica" font-size="10.00" fill="#000000">lcom/liblm.h</text>
</a>
</g>
</g>
<!-- Node1&#45;&gt;Node3 -->
<g id="edge2" class="edge">
<title>Node1&#45;&gt;Node3</title>
<path fill="none" stroke="#191970" d="M130.6054,-224.221C137.0482,-215.2035 146.3263,-201.2482 152.3145,-188 173.6884,-140.7126 177.9052,-127.3619 185.3145,-76 186.5836,-67.2022 188.7161,-64.2123 185.3145,-56 180.4832,-44.3363 171.1008,-34.0881 162.0627,-26.243"/>
<polygon fill="#191970" stroke="#191970" points="163.9815,-23.2942 153.9997,-19.7423 159.5879,-28.7436 163.9815,-23.2942"/>
</g>
<!-- Node4 -->
<g id="node4" class="node">
<title>Node4</title>
<g id="a_node4"><a xlink:title=" ">
<polygon fill="none" stroke="#bfbfbf" points="203.3145,-.5 203.3145,-19.5 269.3145,-19.5 269.3145,-.5 203.3145,-.5"/>
<text text-anchor="middle" x="236.3145" y="-7.5" font-family="Helvetica" font-size="10.00" fill="#000000">lcom/proj.h</text>
</a>
</g>
</g>
<!-- Node1&#45;&gt;Node4 -->
<g id="edge3" class="edge">
<title>Node1&#45;&gt;Node4</title>
<path fill="none" stroke="#191970" d="M136.3197,-224.3278C146.9969,-215.7983 161.8496,-202.4971 171.3145,-188 205.2475,-136.0258 224.4692,-63.9776 232.2327,-29.6751"/>
<polygon fill="#191970" stroke="#191970" points="235.7247,-30.0883 234.431,-19.5727 228.8847,-28.5998 235.7247,-30.0883"/>
</g>
<!-- Node5 -->
<g id="node5" class="node">
<title>Node5</title>
<g id="a_node5"><a xlink:href="../../d6/d4f/enemies_8h.html" target="_top" xlink:title=" ">
<polygon fill="none" stroke="#000000" points="23.8145,-168.5 23.8145,-187.5 84.8145,-187.5 84.8145,-168.5 23.8145,-168.5"/>
<text text-anchor="middle" x="54.3145" y="-175.5" font-family="Helvetica" font-size="10.00" fill="#000000">enemies.h</text>
</a>
</g>
</g>
<!-- Node1&#45;&gt;Node5 -->
<g id="edge4" class="edge">
<title>Node1&#45;&gt;Node5</title>
<path fill="none" stroke="#191970" d="M111.2956,-224.2455C101.1046,-215.9746 86.2783,-203.9416 74.3038,-194.2232"/>
<polygon fill="#191970" stroke="#191970" points="76.1658,-191.2268 66.1956,-187.6427 71.7546,-196.662 76.1658,-191.2268"/>
</g>
<!-- Node8 -->
<g id="node8" class="node">
<title>Node8</title>
<g id="a_node8"><a xlink:href="../../da/d15/grid_8h.html" target="_top" xlink:title=" ">
<polygon fill="none" stroke="#000000" points="102.8145,-168.5 102.8145,-187.5 143.8145,-187.5 143.8145,-168.5 102.8145,-168.5"/>
<text text-anchor="middle" x="123.3145" y="-175.5" font-family="Helvetica" font-size="10.00" fill="#000000">grid.h</text>
</a>
</g>
</g>
<!-- Node1&#45;&gt;Node8 -->
<g id="edge12" class="edge">
<title>Node1&#45;&gt;Node8</title>
<path fill="none" stroke="#191970" d="M123.3145,-224.2455C123.3145,-216.9382 123.3145,-206.6944 123.3145,-197.7046"/>
<polygon fill="#191970" stroke="#191970" points="126.8146,-197.6426 123.3145,-187.6427 119.8146,-197.6427 126.8146,-197.6426"/>
</g>
<!-- Node5&#45;&gt;Node2 -->
<g id="edge5" class="edge">
<title>Node5&#45;&gt;Node2</title>
<path fill="none" stroke="#191970" d="M53.7482,-168.4862C52.1674,-141.9293 47.6815,-66.5651 45.5148,-30.1655"/>
<polygon fill="#191970" stroke="#191970" points="48.9876,-29.6022 44.8995,-19.8279 41.9999,-30.0182 48.9876,-29.6022"/>
</g>
<!-- Node6 -->
<g id="node6" class="node">
<title>Node6</title>
<g id="a_node6"><a xlink:href="../../dd/d5a/entities_8h.html" target="_top" xlink:title=" ">
<polygon fill="none" stroke="#000000" points="74.3145,-112.5 74.3145,-131.5 130.3145,-131.5 130.3145,-112.5 74.3145,-112.5"/>
<text text-anchor="middle" x="102.3145" y="-119.5" font-family="Helvetica" font-size="10.00" fill="#000000">entities.h</text>
</a>
</g>
</g>
<!-- Node5&#45;&gt;Node6 -->
<g id="edge6" class="edge">
<title>Node5&#45;&gt;Node6</title>
<path fill="none" stroke="#191970" d="M62.6755,-168.2455C69.4895,-160.2958 79.2826,-148.8706 87.4297,-139.3656"/>
<polygon fill="#191970" stroke="#191970" points="90.1988,-141.513 94.0493,-131.6427 84.884,-136.9575 90.1988,-141.513"/>
</g>
<!-- Node6&#45;&gt;Node2 -->
<g id="edge7" class="edge">
<title>Node6&#45;&gt;Node2</title>
<path fill="none" stroke="#191970" d="M97.3694,-112.4509C87.7813,-93.936 66.5094,-52.8591 54.0081,-28.7187"/>
<polygon fill="#191970" stroke="#191970" points="56.9536,-26.7953 49.247,-19.5249 50.7376,-30.0144 56.9536,-26.7953"/>
</g>
<!-- Node7 -->
<g id="node7" class="node">
<title>Node7</title>
<g id="a_node7"><a xlink:href="../../d3/def/sprites_8h.html" target="_top" xlink:title=" ">
<polygon fill="none" stroke="#000000" points="90.3145,-56.5 90.3145,-75.5 176.3145,-75.5 176.3145,-56.5 90.3145,-56.5"/>
<text text-anchor="middle" x="133.3145" y="-63.5" font-family="Helvetica" font-size="10.00" fill="#000000">sprites/sprites.h</text>
</a>
</g>
</g>
<!-- Node6&#45;&gt;Node7 -->
<g id="edge8" class="edge">
<title>Node6&#45;&gt;Node7</title>
<path fill="none" stroke="#191970" d="M107.7143,-112.2455C111.9372,-104.617 117.9318,-93.7881 123.0586,-84.5267"/>
<polygon fill="#191970" stroke="#191970" points="126.1955,-86.0867 127.9766,-75.6427 120.0712,-82.6965 126.1955,-86.0867"/>
</g>
<!-- Node7&#45;&gt;Node2 -->
<g id="edge9" class="edge">
<title>Node7&#45;&gt;Node2</title>
<path fill="none" stroke="#191970" d="M117.8119,-56.2455C104.1565,-47.6534 84.0488,-35.0014 68.3156,-25.1018"/>
<polygon fill="#191970" stroke="#191970" points="69.9674,-22.006 59.6395,-19.6427 66.2394,-27.9307 69.9674,-22.006"/>
</g>
<!-- Node7&#45;&gt;Node3 -->
<g id="edge10" class="edge">
<title>Node7&#45;&gt;Node3</title>
<path fill="none" stroke="#191970" d="M134.3596,-56.2455C135.1425,-48.9382 136.2401,-38.6944 137.2033,-29.7046"/>
<polygon fill="#191970" stroke="#191970" points="140.696,-29.9587 138.2813,-19.6427 133.7358,-29.2129 140.696,-29.9587"/>
</g>
<!-- Node7&#45;&gt;Node4 -->
<g id="edge11" class="edge">
<title>Node7&#45;&gt;Node4</title>
<path fill="none" stroke="#191970" d="M151.2557,-56.2455C167.3545,-47.4928 191.2024,-34.527 209.5536,-24.5496"/>
<polygon fill="#191970" stroke="#191970" points="211.4652,-27.4942 218.5789,-19.6427 208.1216,-21.3444 211.4652,-27.4942"/>
</g>
<!-- Node8&#45;&gt;Node6 -->
<g id="edge13" class="edge">
<title>Node8&#45;&gt;Node6</title>
<path fill="none" stroke="#191970" d="M119.6566,-168.2455C116.8561,-160.7776 112.9055,-150.2427 109.4821,-141.1137"/>
<polygon fill="#191970" stroke="#191970" points="112.7189,-139.777 105.9305,-131.6427 106.1646,-142.2349 112.7189,-139.777"/>
</g>
</g>
</svg>
